<?xml version="1.0" standalone="no"?><!DOCTYPE svg PUBLIC "-//W3C//DTD SVG 1.1//EN" "http://www.w3.org/Graphics/SVG/1.1/DTD/svg11.dtd" ><svg xmlns="http://www.w3.org/2000/svg"><metadata></metadata><defs><font id="3.117;1KTF;Cairo-Bold" horiz-adv-x="1792"><font-face font-family="Cairo" font-weight="700" font-stretch="normal" units-per-em="1000" panose-1="0 0 0 0 0 0 0 0 0 0" ascent="1303" descent="-571" x-height="0" bbox="-181 -458 1812 1092" underline-thickness="50" underline-position="-100" unicode-range="U+0000-fefc" /><missing-glyph horiz-adv-x="235" d="M21 709 l186 0 l0 -709 l-186 0 l0 709 ZM41 689 l0 -669 l146 0 l0 669 l-146 0 Z" /><glyph glyph-name="A" unicode="A" d="M12 0 l174 683 l241 0 l173 -683 l-138 0 l-38 138 l-239 0 l-36 -138 l-137 0 ZM207 249 l197 0 l-77 322 l-42 0 l-78 -322 Z" /><glyph glyph-name="AE" unicode="Æ" d="M10 0 l194 686 l639 0 l0 -118 l-317 0 l0 -162 l257 0 l0 -115 l-257 0 l0 -173 l317 0 l0 -118 l-452 0 l0 136 l-201 0 l-42 -136 l-138 0 ZM214 252 l177 0 l1 316 l-90 0 l-88 -316 Z" /><glyph glyph-name="B" unicode="B" d="M63 0 l0 683 l272 0 q68 0 117 -17 q49 -17 76.5 -54.5 q27.5 -37.5 27.5 -100.5 q0 -43 -8.5 -72.5 q-8.5 -29.5 -26 -50 q-17.5 -20.5 -45.5 -37.5 q30 -11 52.5 -29.5 q22.5 -18.5 34.5 -49 q12 -30.5 12 -80.5 q0 -55 -17 -92 q-17 -37 -48.5 -59 q-31.5 -22 -73.5 -31.5 q-42 -9.5 -92 -9.5 l-281 0 ZM201 102 l133 0 q35 0 58.5 8.5 q23.5 8.5 36 30.5 q12.5 22 12.5 61 q0 30 -10 49 q-10 19 -26 28.5 q-16 9.5 -35.5 13.5 q-19.5 4 -38.5 4 l-130 0 l0 -195 ZM201 395 l129 0 q51 0 73.5 24 q22.5 24 22.5 73 q0 47 -24.5 68 q-24.5 21 -76.5 21 l-124 0 l0 -186 Z" /><glyph glyph-name="C" unicode="C" d="M309 -11 q-80 0 -131.5 20.5 q-51.5 20.5 -81.5 63.5 q-30 43 -41.5 109.5 q-11.5 66.5 -11.5 158.5 q0 93 11.5 159.5 q11.5 66.5 41.5 109.5 q30 43 82.5 64 q52.5 21 134.5 21 q33 0 69 -4 q36 -4 69.5 -9.5 q33.5 -5.5 57.5 -11.5 l-4 -110 q-20 4 -50 7.5 q-30 3.5 -61 5.5 q-31 2 -58 2 q-48 0 -78 -12 q-30 -12 -46.5 -40 q-16.5 -28 -22.5 -72.5 q-6 -44.5 -6 -109.5 q0 -64 6 -108.5 q6 -44.5 22 -72 q16 -27.5 46.5 -40 q30.5 -12.5 79.5 -12.5 q40 0 88.5 4.5 q48.5 4.5 80.5 8.5 l3 -109 q-24 -5 -57 -10.5 q-33 -5.5 -70 -9 q-37 -3.5 -73 -3.5 Z" /><glyph glyph-name="D" unicode="D" d="M63 0 l0 683 l261 0 q80 0 134.5 -22.5 q54.5 -22.5 87.5 -65.5 q33 -43 47.5 -104 q14.5 -61 14.5 -139 q0 -79 -13.5 -143 q-13.5 -64 -45.5 -111 q-32 -47 -86 -72.5 q-54 -25.5 -135 -25.5 l-265 0 ZM201 116 l119 0 q47 0 76 18 q29 18 44.5 50.5 q15.5 32.5 21 75 q5.5 42.5 5.5 92.5 q0 48 -6 87.5 q-6 39.5 -21.5 68 q-15.5 28.5 -44 44 q-28.5 15.5 -75.5 15.5 l-119 0 l0 -451 Z" /><glyph glyph-name="Eth" unicode="Ð" d="M12 294 l0 100 l311 0 l0 -100 l-311 0 ZM68 0 l0 683 l261 0 q80 0 134.5 -22.5 q54.5 -22.5 87.5 -65.5 q33 -43 47 -104 q14 -61 14 -139 q0 -79 -13.5 -143 q-13.5 -64 -45.5 -111 q-32 -47 -86 -72.5 q-54 -25.5 -135 -25.5 l-264 0 ZM206 116 l119 0 q47 0 76 18 q29 18 44 50.5 q15 32.5 21 75 q6 42.5 6 92.5 q0 48 -6 87.5 q-6 39.5 -21.5 68 q-15.5 28.5 -44.5 44 q-29 15.5 -75 15.5 l-119 0 l0 -451 Z" /><glyph glyph-name="Dcroat" unicode="&#x110;" d="M12 294 l0 100 l311 0 l0 -100 l-311 0 ZM68 0 l0 683 l261 0 q80 0 134.5 -22.5 q54.5 -22.5 87.5 -65.5 q33 -43 47 -104 q14 -61 14 -139 q0 -79 -13.5 -143 q-13.5 -64 -45.5 -111 q-32 -47 -86 -72.5 q-54 -25.5 -135 -25.5 l-264 0 ZM206 116 l119 0 q47 0 76 18 q29 18 44 50.5 q15 32.5 21 75 q6 42.5 6 92.5 q0 48 -6 87.5 q-6 39.5 -21.5 68 q-15.5 28.5 -44.5 44 q-29 15.5 -75 15.5 l-119 0 l0 -451 Z" /><glyph glyph-name="E" unicode="E" d="M63 0 l0 683 l454 0 l0 -115 l-316 0 l0 -166 l256 0 l0 -113 l-256 0 l0 -174 l316 0 l0 -115 l-454 0 Z" /><glyph glyph-name="F" unicode="F" d="M63 0 l0 683 l441 0 l0 -116 l-303 0 l0 -206 l248 0 l0 -116 l-248 0 l0 -245 l-138 0 Z" /><glyph glyph-name="G" unicode="G" d="M328 -10 q-86 0 -142 22.5 q-56 22.5 -87.5 67 q-31.5 44.5 -44.5 110 q-13 65.5 -13 151.5 q0 91 14.5 157.5 q14.5 66.5 48 110 q33.5 43.5 88 65 q54.5 21.5 134.5 21.5 q41 0 85.5 -4.5 q44.5 -4.5 85 -11.5 q40.5 -7 67.5 -14 l-2 -108 q-28 5 -67.5 9 q-39.5 4 -80.5 6.5 q-41 2.5 -74 2.5 q-50 0 -81.5 -13 q-31.5 -13 -48 -41.5 q-16.5 -28.5 -22.5 -73 q-6 -44.5 -6 -106.5 q0 -79 11.5 -131.5 q11.5 -52.5 45 -77.5 q33.5 -25 96.5 -25 q16 0 34.5 1 q18.5 1 36 3 q17.5 2 29.5 4 l0 149 l-81 0 l0 105 l212 0 l0 -353 q-22 -3 -53 -7.5 q-31 -4.5 -64.5 -8.5 q-33.5 -4 -65 -7 q-31.5 -3 -55.5 -3 Z" /><glyph glyph-name="Gdotaccent" unicode="&#x120;" d="M250 772 l0 113 l120 0 l0 -113 l-120 0 ZM328 -10 q-86 0 -142 22.5 q-56 22.5 -87.5 67 q-31.5 44.5 -44.5 110 q-13 65.5 -13 151.5 q0 91 14.5 157.5 q14.5 66.5 48 110 q33.5 43.5 88 65 q54.5 21.5 134.5 21.5 q41 0 85.5 -4.5 q44.5 -4.5 85 -11.5 q40.5 -7 67.5 -14 l-2 -108 q-28 5 -67.5 9 q-39.5 4 -80.5 6.5 q-41 2.5 -74 2.5 q-50 0 -81.5 -13 q-31.5 -13 -48 -41.5 q-16.5 -28.5 -22.5 -73 q-6 -44.5 -6 -106.5 q0 -79 11.5 -131.5 q11.5 -52.5 45 -77.5 q33.5 -25 96.5 -25 q16 0 34.5 1 q18.5 1 36 3 q17.5 2 29.5 4 l0 149 l-81 0 l0 105 l212 0 l0 -353 q-22 -3 -53 -7.5 q-31 -4.5 -64.5 -8.5 q-33.5 -4 -65 -7 q-31.5 -3 -55.5 -3 Z" /><glyph glyph-name="H" unicode="H" d="M63 0 l0 683 l138 0 l0 -285 l265 0 l0 285 l138 0 l0 -683 l-138 0 l0 282 l-265 0 l0 -282 l-138 0 Z" /><glyph glyph-name="Hbar" unicode="&#x126;" d="M11 493 l0 93 l657 0 l0 -93 l-657 0 ZM67 0 l0 683 l138 0 l0 -285 l264 0 l0 285 l138 0 l0 -683 l-138 0 l0 282 l-264 0 l0 -282 l-138 0 Z" /><glyph glyph-name="I" unicode="I" d="M63 0 l0 683 l138 0 l0 -683 l-138 0 Z" /><glyph glyph-name="Idotaccent" unicode="&#x130;" d="M73 764 l0 113 l119 0 l0 -113 l-119 0 ZM63 0 l0 683 l138 0 l0 -683 l-138 0 Z" /><glyph glyph-name="J" unicode="J" d="M17 -49 l0 116 q26 0 43 4 q17 4 26.5 16.5 q9.5 12.5 13 37 q3.5 24.5 3.5 64.5 l0 494 l138 0 l0 -556 q0 -60 -14 -95.5 q-14 -35.5 -42.5 -53 q-28.5 -17.5 -70 -22.5 q-41.5 -5 -97.5 -5 Z" /><glyph glyph-name="K" unicode="K" d="M63 0 l0 683 l138 0 l0 -288 l86 2 l136 286 l144 0 l-161 -338 l172 -345 l-148 0 l-142 273 l-87 -2 l0 -271 l-138 0 Z" /><glyph glyph-name="uni0136" unicode="&#x136;" d="M204 -276 l33 211 l125 0 l-54 -211 l-104 0 ZM63 0 l0 683 l138 0 l0 -288 l86 2 l136 286 l144 0 l-161 -338 l172 -345 l-148 0 l-142 273 l-87 -2 l0 -271 l-138 0 Z" /><glyph glyph-name="L" unicode="L" d="M63 0 l0 683 l138 0 l0 -566 l270 0 l0 -117 l-408 0 Z" /><glyph glyph-name="Lcaron" unicode="&#x13d;" d="M347 471 l8 228 l124 0 l-24 -228 l-108 0 ZM63 0 l0 683 l138 0 l0 -566 l270 0 l0 -117 l-408 0 Z" /><glyph glyph-name="uni013B" unicode="&#x13b;" d="M174 -276 l33 211 l125 0 l-54 -211 l-104 0 ZM63 0 l0 683 l138 0 l0 -566 l270 0 l0 -117 l-408 0 Z" /><glyph glyph-name="Lslash" unicode="&#x141;" d="M22 200 l-24 105 l323 200 l24 -104 l-323 -201 ZM68 0 l0 683 l138 0 l0 -566 l270 0 l0 -117 l-408 0 Z" /><glyph glyph-name="M" unicode="M" d="M63 0 l0 683 l222 0 l138 -456 l135 456 l225 0 l0 -683 l-138 0 l0 506 l-14 0 l-143 -488 l-130 0 l-143 488 l-14 0 l0 -506 l-138 0 Z" /><glyph glyph-name="N" unicode="N" d="M63 0 l0 683 l180 0 l219 -480 l18 0 l0 480 l138 0 l0 -683 l-178 0 l-221 488 l-18 0 l0 -488 l-138 0 Z" /><glyph glyph-name="uni0145" unicode="&#x145;" d="M266 -276 l33 211 l126 0 l-54 -211 l-105 0 ZM63 0 l0 683 l180 0 l219 -480 l18 0 l0 480 l138 0 l0 -683 l-178 0 l-221 488 l-18 0 l0 -488 l-138 0 Z" /><glyph glyph-name="Eng" unicode="&#x14a;" d="M406 -224 l-28 109 q32 6 52.5 11.5 q20.5 5.5 31.5 16 q11 10.5 15 30 q4 19.5 4 53.5 l0 33 l137 0 l0 -37 q0 -63 -11 -102 q-11 -39 -35.5 -60.5 q-24.5 -21.5 -65.5 -33 q-41 -11.5 -100 -20.5 ZM63 0 l0 683 l180 0 l219 -480 l18 0 l0 480 l138 0 l0 -683 l-178 0 l-221 488 l-18 0 l0 -488 l-138 0 Z" /><glyph glyph-name="O" unicode="O" d="M332 -11 q-109 0 -172.5 38.5 q-63.5 38.5 -91 116.5 q-27.5 78 -27.5 195 q0 118 27.5 197 q27.5 79 91 119 q63.5 40 172.5 40 q109 0 172.5 -40 q63.5 -40 91 -119 q27.5 -79 27.5 -197 q0 -119 -27.5 -197 q-27.5 -78 -91 -115.5 q-63.5 -37.5 -172.5 -37.5 ZM332 105 q63 0 95.5 25.5 q32.5 25.5 43.5 78 q11 52.5 11 130.5 q0 78 -11.5 131.5 q-11.5 53.5 -43.5 81 q-32 27.5 -95 27.5 q-62 0 -94.5 -27.5 q-32.5 -27.5 -44.5 -81 q-12 -53.5 -12 -131.5 q0 -77 11.5 -129 q11.5 -52 44 -78.5 q32.5 -26.5 95.5 -26.5 Z" /><glyph glyph-name="Oslash" unicode="Ø" d="M305 318 l-8 103 l248 334 l15 -69 l-255 -368 ZM209 -92 l-118 33 l143 315 l128 -16 l-153 -332 ZM332 -11 q-109 0 -172.5 38.5 q-63.5 38.5 -91 116.5 q-27.5 78 -27.5 195 q0 118 27.5 197 q27.5 79 91 119 q63.5 40 172.5 40 q109 0 172.5 -40 q63.5 -40 91 -119 q27.5 -79 27.5 -197 q0 -119 -27.5 -197 q-27.5 -78 -91 -115.5 q-63.5 -37.5 -172.5 -37.5 ZM332 105 q63 0 95.5 25.5 q32.5 25.5 43.5 78 q11 52.5 11 130.5 q0 78 -11.5 131.5 q-11.5 53.5 -43.5 81 q-32 27.5 -95 27.5 q-62 0 -94.5 -27.5 q-32.5 -27.5 -44.5 -81 q-12 -53.5 -12 -131.5 q0 -77 11.5 -129 q11.5 -52 44 -78.5 q32.5 -26.5 95.5 -26.5 Z" /><glyph glyph-name="Oslashacute" unicode="&#x1fe;" d="M305 318 l-8 103 l248 334 l15 -69 l-255 -368 ZM209 -92 l-118 33 l143 315 l128 -16 l-153 -332 ZM309 782 l-80 35 l151 113 l107 -43 l-178 -105 ZM332 -11 q-109 0 -172.5 38.5 q-63.5 38.5 -91 116.5 q-27.5 78 -27.5 195 q0 118 27.5 197 q27.5 79 91 119 q63.5 40 172.5 40 q109 0 172.5 -40 q63.5 -40 91 -119 q27.5 -79 27.5 -197 q0 -119 -27.5 -197 q-27.5 -78 -91 -115.5 q-63.5 -37.5 -172.5 -37.5 ZM332 105 q63 0 95.5 25.5 q32.5 25.5 43.5 78 q11 52.5 11 130.5 q0 78 -11.5 131.5 q-11.5 53.5 -43.5 81 q-32 27.5 -95 27.5 q-62 0 -94.5 -27.5 q-32.5 -27.5 -44.5 -81 q-12 -53.5 -12 -131.5 q0 -77 11.5 -129 q11.5 -52 44 -78.5 q32.5 -26.5 95.5 -26.5 Z" /><glyph glyph-name="OE" unicode="&#x152;" d="M308 -11 q-107 0 -165.5 39.5 q-58.5 39.5 -80.5 118.5 q-22 79 -22 198 q0 123 23.5 200 q23.5 77 82.5 113 q59 36 166 36 q18 0 46 -1.5 q28 -1.5 58 -4 q30 -2.5 54 -5.5 l404 0 l0 -115 l-300 0 l0 -165 l240 0 l0 -113 l-240 0 l0 -175 l300 0 l0 -116 l-401 0 q-22 -2 -52.5 -4.5 q-30.5 -2.5 -60 -4 q-29.5 -1.5 -52.5 -1.5 ZM339 105 q8 0 20 0.5 q12 0.5 26.5 1 q14.5 0.5 27.5 1.5 q13 1 23 2 l0 463 q-8 0 -22 1 q-14 1 -29 2 q-15 1 -27.5 1.5 q-12.5 0.5 -19.5 0.5 q-66 0 -100.5 -23 q-34.5 -23 -47 -74.5 q-12.5 -51.5 -12.5 -136.5 q0 -84 11 -136.5 q11 -52.5 45.5 -77.5 q34.5 -25 104.5 -25 Z" /><glyph glyph-name="P" unicode="P" d="M63 0 l0 683 l257 0 q85 0 141 -23.5 q56 -23.5 84.5 -75.5 q28.5 -52 28.5 -139 q0 -87 -28.5 -141.5 q-28.5 -54.5 -84.5 -80 q-56 -25.5 -141 -25.5 l-119 0 l0 -198 l-138 0 ZM201 311 l115 0 q63 0 90 33.5 q27 33.5 27 99.5 q0 68 -27 97 q-27 29 -90 29 l-115 0 l0 -259 Z" /><glyph glyph-name="Thorn" unicode="Þ" d="M63 0 l0 686 l136 0 l0 -96 l120 0 q85 0 141 -23.5 q56 -23.5 84 -75 q28 -51.5 28 -138.5 q0 -87 -28 -143 q-28 -56 -84 -82.5 q-56 -26.5 -141 -26.5 l-120 0 l0 -101 l-136 0 ZM199 219 l116 0 q63 0 91 34.5 q28 34.5 28 98.5 q0 66 -27.5 93.5 q-27.5 27.5 -91.5 27.5 l-116 0 l0 -254 Z" /><glyph glyph-name="Q" unicode="Q" d="M484 -151 l-91 146 q-13 -3 -29 -4.5 q-16 -1.5 -33 -1.5 q-109 0 -172.5 38 q-63.5 38 -90.5 116 q-27 78 -27 196 q0 119 27 197.5 q27 78.5 90.5 118.5 q63.5 40 172.5 40 q109 0 172.5 -39.5 q63.5 -39.5 91 -118.5 q27.5 -79 27.5 -198 q0 -114 -24 -189.5 q-24 -75.5 -83 -114.5 l83 -131 l-114 -55 ZM331 105 q63 0 95 25.5 q32 25.5 43.5 78 q11.5 52.5 11.5 130.5 q0 77 -11.5 130.5 q-11.5 53.5 -44 81.5 q-32.5 28 -94.5 28 q-62 0 -94.5 -28 q-32.5 -28 -45 -81 q-12.5 -53 -12.5 -131 q0 -77 12 -129.5 q12 -52.5 44.5 -78.5 q32.5 -26 95.5 -26 Z" /><glyph glyph-name="R" unicode="R" d="M63 0 l0 683 l267 0 q82 0 137.5 -21 q55.5 -21 83 -70 q27.5 -49 27.5 -133 q0 -74 -26.5 -124.5 q-26.5 -50.5 -80.5 -74.5 l107 -260 l-145 0 l-90 229 l-142 0 l0 -229 l-138 0 ZM201 342 l132 0 q38 0 61 14.5 q23 14.5 33 41 q10 26.5 10 60.5 q0 56 -26 84 q-26 28 -81 28 l-129 0 l0 -228 Z" /><glyph glyph-name="S" unicode="S" d="M284 -11 q-38 0 -83 4.5 q-45 4.5 -87.5 11 q-42.5 6.5 -72.5 11.5 l9 109 q31 -4 72 -8.5 q41 -4.5 81.5 -7.5 q40.5 -3 70.5 -3 q57 0 83 22.5 q26 22.5 26 70.5 q0 26 -10.5 41.5 q-10.5 15.5 -37.5 25 q-27 9.5 -75 18.5 q-80 15 -129.5 37 q-49.5 22 -72 62 q-22.5 40 -22.5 107 q0 78 29 122.5 q29 44.5 83 63.5 q54 19 127 19 q33 0 75.5 -3.5 q42.5 -3.5 84 -8.5 q41.5 -5 70.5 -11 l-6 -110 q-30 4 -69.5 7.5 q-39.5 3.5 -78 6.5 q-38.5 3 -65.5 3 q-57 0 -84 -18 q-27 -18 -27 -58 q0 -30 12 -46 q12 -16 40.5 -26 q28.5 -10 78.5 -21 q59 -13 100.5 -28 q41.5 -15 67 -36 q25.5 -21 37.5 -54 q12 -33 12 -83 q0 -80 -28.5 -128.5 q-28.5 -48.5 -82 -70 q-53.5 -21.5 -128.5 -21.5 Z" /><glyph glyph-name="uni0218" unicode="&#x218;" d="M197 -276 l32 211 l126 0 l-54 -211 l-104 0 ZM284 -11 q-38 0 -83 4.5 q-45 4.5 -87.5 11 q-42.5 6.5 -72.5 11.5 l9 109 q31 -4 72 -8.5 q41 -4.5 81.5 -7.5 q40.5 -3 70.5 -3 q57 0 83 22.5 q26 22.5 26 70.5 q0 26 -10.5 41.5 q-10.5 15.5 -37.5 25 q-27 9.5 -75 18.5 q-80 15 -129.5 37 q-49.5 22 -72 62 q-22.5 40 -22.5 107 q0 78 29 122.5 q29 44.5 83 63.5 q54 19 127 19 q33 0 75.5 -3.5 q42.5 -3.5 84 -8.5 q41.5 -5 70.5 -11 l-6 -110 q-30 4 -69.5 7.5 q-39.5 3.5 -78 6.5 q-38.5 3 -65.5 3 q-57 0 -84 -18 q-27 -18 -27 -58 q0 -30 12 -46 q12 -16 40.5 -26 q28.5 -10 78.5 -21 q59 -13 100.5 -28 q41.5 -15 67 -36 q25.5 -21 37.5 -54 q12 -33 12 -83 q0 -80 -28.5 -128.5 q-28.5 -48.5 -82 -70 q-53.5 -21.5 -128.5 -21.5 Z" /><glyph glyph-name="T" unicode="T" d="M195 0 l0 566 l-184 0 l0 117 l500 0 l0 -117 l-178 0 l0 -566 l-138 0 Z" /><glyph glyph-name="Tbar" unicode="&#x166;" d="M78 257 l0 94 l374 0 l0 -94 l-374 0 ZM196 0 l0 566 l-183 0 l0 117 l500 0 l0 -117 l-179 0 l0 -566 l-138 0 Z" /><glyph glyph-name="uni021A" unicode="&#x21a;" d="M180 -276 l33 211 l125 0 l-54 -211 l-104 0 ZM195 0 l0 566 l-184 0 l0 117 l500 0 l0 -117 l-178 0 l0 -566 l-138 0 Z" /><glyph glyph-name="U" unicode="U" d="M320 -11 q-84 0 -142.5 22 q-58.5 22 -88.5 73.5 q-30 51.5 -30 137.5 l0 461 l138 0 l0 -466 q0 -59 31.5 -85 q31.5 -26 91.5 -26 q63 0 95 26 q32 26 32 85 l0 466 l138 0 l0 -459 q0 -86 -30.5 -138 q-30.5 -52 -89 -74.5 q-58.5 -22.5 -145.5 -22.5 Z" /><glyph glyph-name="V" unicode="V" d="M175 0 l-163 683 l145 0 l117 -550 l41 0 l115 550 l145 0 l-160 -683 l-240 0 Z" /><glyph glyph-name="W" unicode="W" d="M137 0 l-116 683 l139 0 l84 -550 l24 0 l104 543 l155 0 l106 -543 l24 0 l79 550 l140 0 l-114 -683 l-219 0 l-97 542 l5 0 l-98 -542 l-216 0 Z" /><glyph glyph-name="X" unicode="X" d="M8 0 l186 332 l-186 351 l146 0 l130 -251 l137 251 l141 0 l-187 -338 l183 -345 l-147 0 l-128 244 l-132 -244 l-143 0 Z" /><glyph glyph-name="Y" unicode="Y" d="M210 0 l0 259 l-209 424 l150 0 l128 -274 l130 274 l149 0 l-210 -424 l0 -259 l-138 0 Z" /><glyph glyph-name="Z" unicode="Z" d="M34 -1 l0 125 l305 423 l0 20 l-305 0 l0 116 l480 0 l0 -128 l-304 -420 l0 -19 l304 0 l0 -117 l-480 0 Z" /><glyph glyph-name="a" unicode="a" d="M186 -11 q-78 0 -117.5 39.5 q-39.5 39.5 -39.5 119.5 q0 56 20 87.5 q20 31.5 59.5 46 q39.5 14.5 96.5 17.5 l122 11 l0 30 q0 36 -18 50.5 q-18 14.5 -53 14.5 q-28 0 -64.5 -2 q-36.5 -2 -72 -5 q-35.5 -3 -61.5 -6 l-4 94 q26 6 62.5 12.5 q36.5 6.5 76.5 10.5 q40 4 74 4 q64 0 107 -16 q43 -16 65 -52.5 q22 -36.5 22 -98.5 l0 -229 q2 -14 15 -21.5 q13 -7.5 30 -10.5 l-3 -92 q-24 -1 -47 -1 q-23 0 -39 3 q-23 3 -39.5 12 q-16.5 9 -26.5 19 q-16 -7 -43 -16 q-27 -9 -58.5 -15 q-31.5 -6 -63.5 -6 ZM218 88 q19 0 40 4 q21 4 39.5 9.5 q18.5 5.5 29.5 10.5 l0 115 l-102 -9 q-33 -3 -47.5 -19.5 q-14.5 -16.5 -14.5 -46.5 q0 -30 13.5 -47 q13.5 -17 41.5 -17 Z" /><glyph glyph-name="ae" unicode="æ" d="M181 -11 q-73 0 -112.5 40 q-39.5 40 -39.5 119 q0 61 21 92 q21 31 63.5 44 q42.5 13 106.5 18 l105 8 l0 29 q0 32 -18 46.5 q-18 14.5 -51 14.5 q-29 0 -65.5 -1.5 q-36.5 -1.5 -71 -4 q-34.5 -2.5 -60.5 -5.5 l-4 101 q27 5 64 10.5 q37 5.5 76 9 q39 3.5 72 3.5 q50 0 84 -13 q34 -13 53 -41 q26 29 62 41.5 q36 12.5 81 12.5 q112 0 168.5 -56 q56.5 -56 56.5 -177 l-7 -74 l-313 0 q0 -55 22 -82.5 q22 -27.5 77 -27.5 q30 0 67.5 1.5 q37.5 1.5 73.5 3.5 q36 2 62 4 l3 -95 q-25 -4 -62.5 -9 q-37.5 -5 -79 -8.5 q-41.5 -3.5 -76.5 -3.5 q-51 0 -87 12 q-36 12 -59 34 q-32 -13 -66 -23.5 q-34 -10.5 -70.5 -16.5 q-36.5 -6 -75.5 -6 ZM212 90 q17 0 36.5 3 q19.5 3 36.5 8 q17 5 30.5 9 q13.5 4 19.5 7 q-6 20 -8.5 50 q-2.5 30 -2.5 57 l-102 -8 q-31 -3 -46 -18 q-15 -15 -15 -46 q0 -31 13 -46.5 q13 -15.5 38 -15.5 ZM452 291 l187 0 q0 66 -22 92.5 q-22 26.5 -70 26.5 q-48 0 -71.5 -27.5 q-23.5 -27.5 -23.5 -91.5 Z" /><glyph glyph-name="b" unicode="b" d="M255 -11 q-25 0 -61 2 q-36 2 -73.5 6 q-37.5 4 -66.5 7 l0 703 l134 0 l0 -221 q23 9 60 18 q37 9 69 9 q70 0 111.5 -28.5 q41.5 -28.5 59.5 -84.5 q18 -56 18 -141 q0 -100 -22.5 -159.5 q-22.5 -59.5 -77.5 -85 q-55 -25.5 -151 -25.5 ZM256 101 q49 0 73 17.5 q24 17.5 32.5 52.5 q8.5 35 8.5 86 q0 52 -8 83.5 q-8 31.5 -26.5 46 q-18.5 14.5 -51.5 14.5 q-25 0 -52 -7 q-27 -7 -44 -13 l0 -276 q15 -1 35 -2.5 q20 -1.5 33 -1.5 Z" /><glyph glyph-name="c" unicode="c" d="M260 -11 q-86 0 -134.5 26.5 q-48.5 26.5 -68 85.5 q-19.5 59 -19.5 155 q0 95 22 151.5 q22 56.5 71.5 81 q49.5 24.5 129.5 24.5 q21 0 49 -3 q28 -3 56.5 -7.5 q28.5 -4.5 48.5 -8.5 l-5 -107 q-19 2 -43 3.5 q-24 1.5 -46.5 3 q-22.5 1.5 -36.5 1.5 q-43 0 -67.5 -13.5 q-24.5 -13.5 -34 -44 q-9.5 -30.5 -9.5 -81.5 q0 -55 9 -88 q9 -33 32.5 -47 q23.5 -14 69.5 -14 q14 0 37 1.5 q23 1.5 47.5 3.5 q24.5 2 43.5 3 l4 -107 q-20 -4 -48 -8.5 q-28 -4.5 -56.5 -7.5 q-28.5 -3 -51.5 -3 Z" /><glyph glyph-name="d" unicode="d" d="M224 -11 q-36 0 -66 8.5 q-30 8.5 -52.5 27 q-22.5 18.5 -38 48.5 q-15.5 30 -23.5 73.5 q-8 43.5 -8 101.5 q0 86 21.5 145 q21.5 59 68.5 89.5 q47 30.5 125 30.5 q23 0 54.5 -3.5 q31.5 -3.5 50.5 -6.5 l0 204 l134 0 l0 -707 l-132 0 l-1 29 q-14 -8 -36.5 -17.5 q-22.5 -9.5 -47.5 -16 q-25 -6.5 -49 -6.5 ZM258 101 q18 0 36.5 4 q18.5 4 35 9.5 q16.5 5.5 26.5 10.5 l0 269 q-9 2 -24 3.5 q-15 1.5 -31 3 q-16 1.5 -29 1.5 q-39 0 -60.5 -18 q-21.5 -18 -30.5 -52.5 q-9 -34.5 -9 -83.5 q0 -43 6 -71.5 q6 -28.5 17.5 -45 q11.5 -16.5 27.5 -23.5 q16 -7 35 -7 Z" /><glyph glyph-name="eth" unicode="ð" d="M258 -9 q-110 0 -170 56 q-60 56 -60 169 q0 98 53.5 158.5 q53.5 60.5 161.5 60.5 q23 0 50.5 -4 q27.5 -4 53 -10.5 q25.5 -6.5 41.5 -14.5 q-4 41 -20 76 q-16 35 -51 63.5 q-35 28.5 -93.5 52.5 q-58.5 24 -147.5 43 l17 78 q133 -17 224.5 -59 q91.5 -42 138.5 -117.5 q47 -75.5 47 -193.5 q0 -124 -25 -203 q-25 -79 -78.5 -117 q-53.5 -38 -141.5 -38 ZM258 89 q44 0 72.5 21 q28.5 21 43 69.5 q14.5 48.5 14.5 130.5 q-20 8 -42.5 14.5 q-22.5 6.5 -46.5 10 q-24 3.5 -50 3.5 q-35 0 -58.5 -17.5 q-23.5 -17.5 -35 -45 q-11.5 -27.5 -11.5 -59.5 q0 -59 27 -93 q27 -34 87 -34 ZM153 490 l-46 63 l278 186 l46 -64 l-278 -185 Z" /><glyph glyph-name="dcaron" unicode="&#x10f;" d="M543 467 l33 211 l125 0 l-54 -211 l-104 0 ZM224 -11 q-36 0 -66 8.5 q-30 8.5 -52.5 27 q-22.5 18.5 -38 48.5 q-15.5 30 -23.5 73.5 q-8 43.5 -8 101.5 q0 86 21.5 145 q21.5 59 68.5 89.5 q47 30.5 125 30.5 q23 0 54.5 -3.5 q31.5 -3.5 50.5 -6.5 l0 204 l134 0 l0 -707 l-132 0 l-1 29 q-14 -8 -36.5 -17.5 q-22.5 -9.5 -47.5 -16 q-25 -6.5 -49 -6.5 ZM258 101 q18 0 36.5 4 q18.5 4 35 9.5 q16.5 5.5 26.5 10.5 l0 269 q-9 2 -24 3.5 q-15 1.5 -31 3 q-16 1.5 -29 1.5 q-39 0 -60.5 -18 q-21.5 -18 -30.5 -52.5 q-9 -34.5 -9 -83.5 q0 -43 6 -71.5 q6 -28.5 17.5 -45 q11.5 -16.5 27.5 -23.5 q16 -7 35 -7 Z" /><glyph glyph-name="dcroat" unicode="&#x111;" d="M212 593 l0 82 l306 0 l0 -82 l-306 0 ZM224 -11 q-36 0 -66 8.5 q-30 8.5 -52.5 27 q-22.5 18.5 -38 48.5 q-15.5 30 -23.5 73.5 q-8 43.5 -8 101.5 q0 86 21.5 145 q21.5 59 68.5 89.5 q47 30.5 125 30.5 q23 0 54.5 -3.5 q31.5 -3.5 50.5 -6.5 l0 204 l134 0 l0 -707 l-132 0 l-1 29 q-14 -8 -36.5 -17.5 q-22.5 -9.5 -47.5 -16 q-25 -6.5 -49 -6.5 ZM258 101 q18 0 36.5 4 q18.5 4 35 9.5 q16.5 5.5 26.5 10.5 l0 269 q-9 2 -24 3.5 q-15 1.5 -31 3 q-16 1.5 -29 1.5 q-39 0 -60.5 -18 q-21.5 -18 -30.5 -52.5 q-9 -34.5 -9 -83.5 q0 -43 6 -71.5 q6 -28.5 17.5 -45 q11.5 -16.5 27.5 -23.5 q16 -7 35 -7 Z" /><glyph glyph-name="e" unicode="e" d="M258 -11 q-83 0 -131.5 28 q-48.5 28 -69.5 85 q-21 57 -21 143 q0 93 26.5 152 q26.5 59 77.5 87.5 q51 28.5 126 28.5 q111 0 167.5 -56 q56.5 -56 56.5 -177 l-6 -74 l-314 0 q1 -56 23 -84 q22 -28 76 -28 q31 0 68 1.5 q37 1.5 73.5 3.5 q36.5 2 62.5 4 l3 -93 q-25 -4 -63 -9 q-38 -5 -78.5 -8.5 q-40.5 -3.5 -76.5 -3.5 ZM170 291 l187 0 q0 68 -21.5 95 q-21.5 27 -69.5 27 q-47 0 -71.5 -28 q-24.5 -28 -24.5 -94 Z" /><glyph glyph-name="f" unicode="f" d="M75 0 l0 391 l-50 0 l0 111 l50 0 l0 29 q0 71 13.5 112 q13.5 41 46.5 58 q33 17 89 17 q16 0 38.5 -1.5 q22.5 -1.5 43.5 -3.5 q21 -2 32 -4 l-1 -102 q-16 0 -35.5 0.5 q-19.5 0.5 -33.5 0.5 q-22 0 -35.5 -7 q-13.5 -7 -19 -23 q-5.5 -16 -5.5 -46 l0 -30 l120 0 l0 -111 l-120 0 l0 -391 l-133 0 Z" /><glyph glyph-name="g" unicode="g" d="M276 -229 q-80 0 -133.5 12 q-53.5 12 -80.5 43.5 q-27 31.5 -27 90.5 q0 26 7.5 46.5 q7.5 20.5 24 38.5 q16.5 18 41.5 37 q-14 10 -22.5 29.5 q-8.5 19.5 -8.5 42.5 q0 12 14.5 35.5 q14.5 23.5 28.5 41.5 q-20 9 -38 26.5 q-18 17.5 -29.5 47.5 q-11.5 30 -11.5 77 q0 95 54.5 134.5 q54.5 39.5 155.5 39.5 q26 0 56 -4 q30 -4 48 -8 l163 3 l0 -90 l-76 1 q9 -12 16.5 -30.5 q7.5 -18.5 7.5 -45.5 q0 -69 -23.5 -107 q-23.5 -38 -70.5 -52.5 q-47 -14.5 -119 -14.5 q-8 0 -22 1.5 q-14 1.5 -23 2.5 q-4 -10 -8 -22.5 q-4 -12.5 -4 -17.5 q0 -13 8.5 -20 q8.5 -7 35 -9.5 q26.5 -2.5 80.5 -2.5 q71 0 113.5 -13 q42.5 -13 60.5 -46 q18 -33 18 -93 q0 -89 -62.5 -131.5 q-62.5 -42.5 -173.5 -42.5 ZM269 -130 q62 0 89.5 14.5 q27.5 14.5 27.5 47.5 q0 26 -9.5 38 q-9.5 12 -31.5 15.5 q-22 3.5 -60 3.5 q-10 0 -24 0.5 q-14 0.5 -28.5 1 q-14.5 0.5 -26 1.5 q-11.5 1 -16.5 1 q-22 -15 -30 -27.5 q-8 -12.5 -8 -33.5 q0 -23 11 -36.5 q11 -13.5 36.5 -19.5 q25.5 -6 69.5 -6 ZM252 259 q46 0 65.5 18.5 q19.5 18.5 19.5 61.5 q0 43 -19.5 62 q-19.5 19 -65.5 19 q-44 0 -63.5 -19 q-19.5 -19 -19.5 -62 q0 -43 19.5 -61.5 q19.5 -18.5 63.5 -18.5 Z" /><glyph glyph-name="uni0123" unicode="&#x123;" d="M181 579 l55 211 l104 0 l-33 -211 l-126 0 ZM276 -229 q-80 0 -133.5 12 q-53.5 12 -80.5 43.5 q-27 31.5 -27 90.5 q0 26 7.5 46.5 q7.5 20.5 24 38.5 q16.5 18 41.5 37 q-14 10 -22.5 29.5 q-8.5 19.5 -8.5 42.5 q0 12 14.5 35.5 q14.5 23.5 28.5 41.5 q-20 9 -38 26.5 q-18 17.5 -29.5 47.5 q-11.5 30 -11.5 77 q0 95 54.5 134.5 q54.5 39.5 155.5 39.5 q26 0 56 -4 q30 -4 48 -8 l163 3 l0 -90 l-76 1 q9 -12 16.5 -30.5 q7.5 -18.5 7.5 -45.5 q0 -69 -23.5 -107 q-23.5 -38 -70.5 -52.5 q-47 -14.5 -119 -14.5 q-8 0 -22 1.5 q-14 1.5 -23 2.5 q-4 -10 -8 -22.5 q-4 -12.5 -4 -17.5 q0 -13 8.5 -20 q8.5 -7 35 -9.5 q26.5 -2.5 80.5 -2.5 q71 0 113.5 -13 q42.5 -13 60.5 -46 q18 -33 18 -93 q0 -89 -62.5 -131.5 q-62.5 -42.5 -173.5 -42.5 ZM269 -130 q62 0 89.5 14.5 q27.5 14.5 27.5 47.5 q0 26 -9.5 38 q-9.5 12 -31.5 15.5 q-22 3.5 -60 3.5 q-10 0 -24 0.5 q-14 0.5 -28.5 1 q-14.5 0.5 -26 1.5 q-11.5 1 -16.5 1 q-22 -15 -30 -27.5 q-8 -12.5 -8 -33.5 q0 -23 11 -36.5 q11 -13.5 36.5 -19.5 q25.5 -6 69.5 -6 ZM252 259 q46 0 65.5 18.5 q19.5 18.5 19.5 61.5 q0 43 -19.5 62 q-19.5 19 -65.5 19 q-44 0 -63.5 -19 q-19.5 -19 -19.5 -62 q0 -43 19.5 -61.5 q19.5 -18.5 63.5 -18.5 Z" /><glyph glyph-name="h" unicode="h" d="M55 0 l0 707 l133 0 l0 -223 q25 9 64 19 q39 10 72 10 q70 0 109 -24.5 q39 -24.5 54.5 -79.5 q15.5 -55 15.5 -146 l0 -263 l-134 0 l0 253 q0 52 -6 83.5 q-6 31.5 -22.5 45.5 q-16.5 14 -50.5 14 q-27 0 -55.5 -7 q-28.5 -7 -46.5 -13 l0 -376 l-133 0 Z" /><glyph glyph-name="hbar" unicode="&#x127;" d="M2 565 l0 83 l305 0 l0 -83 l-305 0 ZM55 0 l0 707 l133 0 l0 -223 q25 9 64 19 q39 10 72 10 q70 0 109 -24.5 q39 -24.5 54.5 -79.5 q15.5 -55 15.5 -146 l0 -263 l-134 0 l0 253 q0 52 -6 83.5 q-6 31.5 -22.5 45.5 q-16.5 14 -50.5 14 q-27 0 -55.5 -7 q-28.5 -7 -46.5 -13 l0 -376 l-133 0 Z" /><glyph glyph-name="i" unicode="i" d="M55 0 l0 502 l133 0 l0 -502 l-133 0 ZM55 582 l0 114 l134 0 l0 -114 l-134 0 Z" /><glyph glyph-name="dotlessi" unicode="&#x131;" d="M75 0 l0 502 l133 0 l0 -502 l-133 0 Z" /><glyph glyph-name="j" unicode="j" d="M-6 -222 l-47 102 q35 19 56.5 33.5 q21.5 14.5 32.5 30 q11 15.5 15 36.5 q4 21 4 54 l0 468 l134 0 l0 -466 q0 -57 -8.5 -95.5 q-8.5 -38.5 -30 -66 q-21.5 -27.5 -59.5 -49.5 q-38 -22 -97 -47 ZM55 583 l0 113 l134 0 l0 -113 l-134 0 Z" /><glyph glyph-name="uni0237" unicode="&#x237;" d="M-6 -222 l-47 102 q47 26 70 44.5 q23 18.5 30.5 43 q7.5 24.5 7.5 66.5 l0 468 l134 0 l0 -466 q0 -57 -8.5 -95.5 q-8.5 -38.5 -30 -66 q-21.5 -27.5 -59.5 -49.5 q-38 -22 -97 -47 Z" /><glyph glyph-name="k" unicode="k" d="M55 0 l0 707 l133 0 l0 -394 l59 2 l104 187 l139 0 l-127 -236 l134 -266 l-140 0 l-108 199 l-61 -3 l0 -196 l-133 0 Z" /><glyph glyph-name="uni0137" unicode="&#x137;" d="M126 -276 l33 211 l126 0 l-55 -211 l-104 0 ZM55 0 l0 707 l133 0 l0 -394 l59 2 l104 187 l139 0 l-127 -236 l134 -266 l-140 0 l-108 199 l-61 -3 l0 -196 l-133 0 Z" /><glyph glyph-name="l" unicode="l" d="M59 0 l0 707 l133 0 l0 -707 l-133 0 Z" /><glyph glyph-name="lcaron" unicode="&#x13e;" d="M246 467 l33 211 l125 0 l-55 -211 l-103 0 ZM59 0 l0 707 l133 0 l0 -707 l-133 0 Z" /><glyph glyph-name="lslash" unicode="&#x142;" d="M31 192 l-24 105 l273 168 l24 -105 l-273 -168 ZM87 0 l0 707 l133 0 l0 -707 l-133 0 Z" /><glyph glyph-name="m" unicode="m" d="M55 0 l0 502 l133 0 l0 -32 q23 14 62 28.5 q39 14.5 74 14.5 q46 0 75 -12.5 q29 -12.5 48 -36.5 q18 11 45 22 q27 11 59 19 q32 8 62 8 q74 0 113 -26 q39 -26 54 -81.5 q15 -55.5 15 -144.5 l0 -261 l-133 0 l0 249 q0 52 -5.5 84.5 q-5.5 32.5 -22 47.5 q-16.5 15 -49.5 15 q-29 0 -57 -8 q-28 -8 -44 -16 q5 -21 7.5 -54 q2.5 -33 2.5 -69 l0 -249 l-133 0 l0 247 q0 53 -5.5 86 q-5.5 33 -22.5 48 q-17 15 -49 15 q-28 0 -54.5 -8 q-26.5 -8 -41.5 -16 l0 -372 l-133 0 Z" /><glyph glyph-name="n" unicode="n" d="M55 0 l0 502 l133 0 l0 -32 q16 10 39 19.5 q23 9.5 48.5 16.5 q25.5 7 49.5 7 q70 0 108.5 -24.5 q38.5 -24.5 54.5 -80 q16 -55.5 16 -148.5 l0 -260 l-134 0 l0 253 q0 52 -6 83.5 q-6 31.5 -23 45.5 q-17 14 -50 14 q-18 0 -37.5 -3.5 q-19.5 -3.5 -37 -9.5 q-17.5 -6 -28.5 -12 l0 -371 l-133 0 Z" /><glyph glyph-name="uni0146" unicode="&#x146;" d="M143 -276 l33 211 l125 0 l-55 -211 l-103 0 ZM55 0 l0 502 l133 0 l0 -32 q16 10 39 19.5 q23 9.5 48.5 16.5 q25.5 7 49.5 7 q70 0 108.5 -24.5 q38.5 -24.5 54.5 -80 q16 -55.5 16 -148.5 l0 -260 l-134 0 l0 253 q0 52 -6 83.5 q-6 31.5 -23 45.5 q-17 14 -50 14 q-18 0 -37.5 -3.5 q-19.5 -3.5 -37 -9.5 q-17.5 -6 -28.5 -12 l0 -371 l-133 0 Z" /><glyph glyph-name="eng" unicode="&#x14b;" d="M312 -231 l-48 106 q46 25 68.5 43 q22.5 18 30 41.5 q7.5 23.5 7.5 63.5 l0 228 q0 49 -6 81 q-6 32 -22.5 47.5 q-16.5 15.5 -47.5 15.5 q-18 0 -37.5 -3.5 q-19.5 -3.5 -37.5 -9.5 q-18 -6 -31 -11 l0 -371 l-133 0 l0 502 l133 0 l0 -30 q17 9 40.5 18.5 q23.5 9.5 49.5 16 q26 6.5 48 6.5 q69 0 107.5 -26 q38.5 -26 54.5 -82.5 q16 -56.5 16 -147.5 l0 -230 q0 -58 -8.5 -96.5 q-8.5 -38.5 -28.5 -65.5 q-20 -27 -58 -49 q-38 -22 -97 -47 Z" /><glyph glyph-name="o" unicode="o" d="M271 -11 q-85 0 -136.5 28 q-51.5 28 -74.5 86.5 q-23 58.5 -23 151.5 q0 90 24 146.5 q24 56.5 76 84 q52 27.5 134 27.5 q83 0 134.5 -27.5 q51.5 -27.5 76 -84 q24.5 -56.5 24.5 -146.5 q0 -93 -23 -151.5 q-23 -58.5 -74.5 -86.5 q-51.5 -28 -137.5 -28 ZM271 99 q42 0 63 15.5 q21 15.5 28.5 50 q7.5 34.5 7.5 90.5 q0 55 -9 87.5 q-9 32.5 -30 46.5 q-21 14 -60 14 q-38 0 -59.5 -14 q-21.5 -14 -30.5 -46.5 q-9 -32.5 -9 -87.5 q0 -56 7.5 -90.5 q7.5 -34.5 28.5 -50 q21 -15.5 63 -15.5 Z" /><glyph glyph-name="oslash" unicode="ø" d="M274 96 l-110 12 l188 485 l116 -29 l-194 -468 ZM196 -98 l-114 27 l198 476 l112 -16 l-196 -487 ZM271 -11 q-85 0 -136.5 28 q-51.5 28 -74.5 86.5 q-23 58.5 -23 151.5 q0 90 24 146.5 q24 56.5 76 84 q52 27.5 134 27.5 q83 0 134.5 -27.5 q51.5 -27.5 76 -84 q24.5 -56.5 24.5 -146.5 q0 -93 -23 -151.5 q-23 -58.5 -74.5 -86.5 q-51.5 -28 -137.5 -28 ZM271 99 q42 0 63 15.5 q21 15.5 28.5 50 q7.5 34.5 7.5 90.5 q0 55 -9 87.5 q-9 32.5 -30 46.5 q-21 14 -60 14 q-38 0 -59.5 -14 q-21.5 -14 -30.5 -46.5 q-9 -32.5 -9 -87.5 q0 -56 7.5 -90.5 q7.5 -34.5 28.5 -50 q21 -15.5 63 -15.5 Z" /><glyph glyph-name="oslashacute" unicode="&#x1ff;" d="M274 96 l-110 12 l188 485 l116 -29 l-194 -468 ZM196 -98 l-114 27 l198 476 l112 -16 l-196 -487 ZM209 608 l-58 75 l196 99 l75 -101 l-213 -73 ZM271 -11 q-85 0 -136.5 28 q-51.5 28 -74.5 86.5 q-23 58.5 -23 151.5 q0 90 24 146.5 q24 56.5 76 84 q52 27.5 134 27.5 q83 0 134.5 -27.5 q51.5 -27.5 76 -84 q24.5 -56.5 24.5 -146.5 q0 -93 -23 -151.5 q-23 -58.5 -74.5 -86.5 q-51.5 -28 -137.5 -28 ZM271 99 q42 0 63 15.5 q21 15.5 28.5 50 q7.5 34.5 7.5 90.5 q0 55 -9 87.5 q-9 32.5 -30 46.5 q-21 14 -60 14 q-38 0 -59.5 -14 q-21.5 -14 -30.5 -46.5 q-9 -32.5 -9 -87.5 q0 -56 7.5 -90.5 q7.5 -34.5 28.5 -50 q21 -15.5 63 -15.5 Z" /><glyph glyph-name="oe" unicode="&#x153;" d="M271 -11 q-84 0 -136 28 q-52 28 -75 86.5 q-23 58.5 -23 151.5 q0 90 24 147 q24 57 76.5 84 q52.5 27 133.5 27 q63 0 105 -19 q42 -19 65 -63 q24 45 64.5 63.5 q40.5 18.5 94.5 18.5 q112 0 168.5 -56 q56.5 -56 56.5 -177 l-7 -74 l-313 0 q0 -55 22 -82.5 q22 -27.5 77 -27.5 q30 0 67.5 1.5 q37.5 1.5 73.5 3.5 q36 2 62 4 l3 -95 q-25 -4 -63 -9 q-38 -5 -79 -8.5 q-41 -3.5 -76 -3.5 q-60 0 -97.5 17.5 q-37.5 17.5 -58.5 54.5 q-23 -38 -62.5 -55 q-39.5 -17 -102.5 -17 ZM271 101 q42 0 63 16.5 q21 16.5 28.5 50.5 q7.5 34 7.5 86 q0 80 -23 113 q-23 33 -76 33 q-37 0 -59 -13.5 q-22 -13.5 -31 -45.5 q-9 -32 -9 -86 q0 -54 7.5 -88.5 q7.5 -34.5 29.5 -50 q22 -15.5 62 -15.5 ZM504 291 l188 0 q0 66 -22 92.5 q-22 26.5 -70 26.5 q-48 0 -72 -27.5 q-24 -27.5 -24 -91.5 Z" /><glyph glyph-name="p" unicode="p" d="M55 -211 l0 713 l132 0 l1 -32 q14 9 35.5 19 q21.5 10 46.5 17 q25 7 49 7 q101 0 145 -64.5 q44 -64.5 44 -195.5 q0 -94 -22 -152 q-22 -58 -70.5 -85 q-48.5 -27 -127.5 -27 q-25 0 -54 4 q-29 4 -46 8 l0 -212 l-133 0 ZM267 100 q40 0 63 17 q23 17 32.5 51.5 q9.5 34.5 9.5 87.5 q0 82 -22.5 113.5 q-22.5 31.5 -64.5 31.5 q-16 0 -34 -4 q-18 -4 -35 -10 q-17 -6 -28 -12 l0 -268 q12 -1 34.5 -4 q22.5 -3 44.5 -3 Z" /><glyph glyph-name="thorn" unicode="þ" d="M55 -211 l0 923 l133 0 l0 -226 q24 9 61 18 q37 9 68 9 q70 0 111.5 -27.5 q41.5 -27.5 60 -85 q18.5 -57.5 18.5 -146.5 q0 -94 -21 -152.5 q-21 -58.5 -70.5 -85.5 q-49.5 -27 -133.5 -27 q-20 0 -47.5 3 q-27.5 3 -46.5 6 l0 -209 l-133 0 ZM260 100 q47 0 71 18 q24 18 32 53 q8 35 8 86 q0 52 -8 83.5 q-8 31.5 -27 46 q-19 14.5 -51 14.5 q-25 0 -52.5 -7 q-27.5 -7 -44.5 -13 l0 -276 q15 -2 36 -3.5 q21 -1.5 36 -1.5 Z" /><glyph glyph-name="q" unicode="q" d="M354 -211 l0 227 q-21 -8 -57.5 -17.5 q-36.5 -9.5 -67.5 -9.5 q-70 0 -112.5 28.5 q-42.5 28.5 -61.5 85.5 q-19 57 -19 140 q0 100 25 159.5 q25 59.5 80.5 85 q55.5 25.5 146.5 25.5 q23 0 58.5 -2 q35.5 -2 74 -4.5 q38.5 -2.5 67.5 -5.5 l0 -712 l-134 0 ZM261 102 q26 0 52 6.5 q26 6.5 41 12.5 l0 277 q-13 2 -33 3 q-20 1 -34 1 q-47 0 -72 -17.5 q-25 -17.5 -34 -52.5 q-9 -35 -9 -87 q0 -76 20.5 -109.5 q20.5 -33.5 68.5 -33.5 Z" /><glyph glyph-name="r" unicode="r" d="M55 0 l0 502 l133 0 l0 -59 q17 13 42 27.5 q25 14.5 54.5 27 q29.5 12.5 56.5 16.5 l0 -129 q-26 -4 -55 -13.5 q-29 -9.5 -54.5 -20.5 q-25.5 -11 -43.5 -20 l0 -331 l-133 0 Z" /><glyph glyph-name="uni0157" unicode="&#x157;" d="M30 -276 l33 211 l125 0 l-54 -211 l-104 0 ZM55 0 l0 502 l133 0 l0 -59 q17 13 42 27.5 q25 14.5 54.5 27 q29.5 12.5 56.5 16.5 l0 -129 q-26 -4 -55 -13.5 q-29 -9.5 -54.5 -20.5 q-25.5 -11 -43.5 -20 l0 -331 l-133 0 Z" /><glyph glyph-name="s" unicode="s" d="M236 -11 q-33 0 -70.5 3.5 q-37.5 3.5 -70 8.5 q-32.5 5 -55.5 10 l4 99 q26 -3 58.5 -7 q32.5 -4 64 -6.5 q31.5 -2.5 51.5 -2.5 q30 0 49.5 5 q19.5 5 29.5 16.5 q10 11.5 10 33.5 q0 17 -8.5 26 q-8.5 9 -32 15.5 q-23.5 6.5 -68.5 13.5 q-56 8 -92.5 23 q-36.5 15 -53.5 44.5 q-17 29.5 -17 80.5 q0 62 27 97 q27 35 72 49.5 q45 14.5 98 14.5 q35 0 72 -3.5 q37 -3.5 70 -8.5 q33 -5 55 -10 l-4 -101 q-25 4 -58 7.5 q-33 3.5 -65.5 5.5 q-32.5 2 -54.5 2 q-23 0 -41 -4.5 q-18 -4.5 -27.5 -14.5 q-9.5 -10 -9.5 -30 q0 -14 8 -23 q8 -9 30.5 -15.5 q22.5 -6.5 65.5 -12.5 q62 -9 99 -25 q37 -16 53.5 -46 q16.5 -30 16.5 -81 q0 -91 -53.5 -127.5 q-53.5 -36.5 -152.5 -36.5 Z" /><glyph glyph-name="uni0219" unicode="&#x219;" d="M115 -276 l33 211 l126 0 l-55 -211 l-104 0 ZM236 -11 q-33 0 -70.5 3.5 q-37.5 3.5 -70 8.5 q-32.5 5 -55.5 10 l4 99 q26 -3 58.5 -7 q32.5 -4 64 -6.5 q31.5 -2.5 51.5 -2.5 q30 0 49.5 5 q19.5 5 29.5 16.5 q10 11.5 10 33.5 q0 17 -8.5 26 q-8.5 9 -32 15.5 q-23.5 6.5 -68.5 13.5 q-56 8 -92.5 23 q-36.5 15 -53.5 44.5 q-17 29.5 -17 80.5 q0 62 27 97 q27 35 72 49.5 q45 14.5 98 14.5 q35 0 72 -3.5 q37 -3.5 70 -8.5 q33 -5 55 -10 l-4 -101 q-25 4 -58 7.5 q-33 3.5 -65.5 5.5 q-32.5 2 -54.5 2 q-23 0 -41 -4.5 q-18 -4.5 -27.5 -14.5 q-9.5 -10 -9.5 -30 q0 -14 8 -23 q8 -9 30.5 -15.5 q22.5 -6.5 65.5 -12.5 q62 -9 99 -25 q37 -16 53.5 -46 q16.5 -30 16.5 -81 q0 -91 -53.5 -127.5 q-53.5 -36.5 -152.5 -36.5 Z" /><glyph glyph-name="germandbls" unicode="ß" d="M402 -11 q-42 0 -88 6.5 q-46 6.5 -73 11.5 l4 97 q18 -2 41.5 -4.5 q23.5 -2.5 47 -4 q23.5 -1.5 40.5 -1.5 q52 0 72 18 q20 18 20 54 q0 18 -8 31 q-8 13 -30 26 q-22 13 -65 32 q-40 18 -62 34.5 q-22 16.5 -31.5 36 q-9.5 19.5 -9.5 44.5 q0 38 17 59.5 q17 21.5 53 40.5 q35 20 45.5 35 q10.5 15 10.5 37 q0 32 -19.5 46.5 q-19.5 14.5 -70.5 14.5 q-38 0 -61.5 -8.5 q-23.5 -8.5 -35 -29 q-11.5 -20.5 -11.5 -59.5 l0 -506 l-133 0 l0 509 q0 80 24 125.5 q24 45.5 77.5 64.5 q53.5 19 139.5 19 q82 0 131.5 -16 q49.5 -16 72 -49.5 q22.5 -33.5 22.5 -87.5 q0 -35 -7 -56.5 q-7 -21.5 -23.5 -36 q-16.5 -14.5 -43.5 -28.5 q-37 -17 -48.5 -26 q-11.5 -9 -11.5 -22 q0 -15 16.5 -26.5 q16.5 -11.5 68.5 -35.5 q48 -20 75.5 -40 q27.5 -20 39 -47 q11.5 -27 11.5 -71 q0 -67 -19.5 -108 q-19.5 -41 -62 -60 q-42.5 -19 -115.5 -19 Z" /><glyph glyph-name="t" unicode="t" d="M231 -12 q-55 0 -89 16 q-34 16 -48.5 55.5 q-14.5 39.5 -14.5 110.5 l0 221 l-59 0 l0 111 l59 0 l0 133 l133 0 l0 -133 l128 0 l0 -111 l-128 0 l0 -186 q0 -39 3.5 -61 q3.5 -22 15.5 -31 q12 -9 37 -9 q7 0 21 1 q14 1 28 2 q14 1 23 2 l4 -107 q-24 -4 -57.5 -9 q-33.5 -5 -55.5 -5 Z" /><glyph glyph-name="tbar" unicode="&#x167;" d="M33 234 l0 78 l287 0 l0 -78 l-287 0 ZM231 -12 q-55 0 -89 16 q-34 16 -48.5 55.5 q-14.5 39.5 -14.5 110.5 l0 221 l-59 0 l0 111 l59 0 l0 133 l133 0 l0 -133 l128 0 l0 -111 l-128 0 l0 -186 q0 -39 3.5 -61 q3.5 -22 15.5 -31 q12 -9 37 -9 q7 0 21 1 q14 1 28 2 q14 1 23 2 l4 -107 q-24 -4 -57.5 -9 q-33.5 -5 -55.5 -5 Z" /><glyph glyph-name="tcaron" unicode="&#x165;" d="M347 490 l8 224 l121 0 l-23 -224 l-106 0 ZM231 -12 q-55 0 -89 16 q-34 16 -48.5 55.5 q-14.5 39.5 -14.5 110.5 l0 221 l-59 0 l0 111 l59 0 l0 133 l133 0 l0 -133 l128 0 l0 -111 l-128 0 l0 -186 q0 -39 3.5 -61 q3.5 -22 15.5 -31 q12 -9 37 -9 q7 0 21 1 q14 1 28 2 q14 1 23 2 l4 -107 q-24 -4 -57.5 -9 q-33.5 -5 -55.5 -5 Z" /><glyph glyph-name="uni021B" unicode="&#x21b;" d="M86 -276 l33 211 l126 0 l-55 -211 l-104 0 ZM231 -12 q-55 0 -89 16 q-34 16 -48.5 55.5 q-14.5 39.5 -14.5 110.5 l0 221 l-59 0 l0 111 l59 0 l0 133 l133 0 l0 -133 l128 0 l0 -111 l-128 0 l0 -186 q0 -39 3.5 -61 q3.5 -22 15.5 -31 q12 -9 37 -9 q7 0 21 1 q14 1 28 2 q14 1 23 2 l4 -107 q-24 -4 -57.5 -9 q-33.5 -5 -55.5 -5 Z" /><glyph glyph-name="u" unicode="u" d="M215 -11 q-65 0 -100.5 27.5 q-35.5 27.5 -50 83.5 q-14.5 56 -14.5 141 l0 261 l133 0 l0 -255 q0 -53 5.5 -84 q5.5 -31 22.5 -44 q17 -13 49 -13 q31 0 58 8 q27 8 43 16 l0 372 l133 0 l0 -502 l-132 0 l0 31 q-34 -19 -67.5 -30.5 q-33.5 -11.5 -79.5 -11.5 Z" /><glyph glyph-name="v" unicode="v" d="M134 0 l-119 502 l143 0 l84 -389 l29 0 l86 389 l135 0 l-119 -502 l-239 0 Z" /><glyph glyph-name="w" unicode="w" d="M119 0 l-96 502 l142 0 l65 -389 l15 0 l81 378 l128 0 l84 -378 l15 0 l65 389 l133 0 l-93 -502 l-201 0 l-71 323 l-71 -323 l-196 0 Z" /><glyph glyph-name="x" unicode="x" d="M13 0 l134 250 l-134 252 l144 0 l89 -174 l90 174 l136 0 l-131 -249 l130 -253 l-145 0 l-89 168 l-86 -168 l-138 0 Z" /><glyph glyph-name="y" unicode="y" d="M178 -211 l64 211 l-107 0 l-119 502 l139 0 l89 -389 l26 0 l89 389 l134 0 l-173 -713 l-142 0 Z" /><glyph glyph-name="z" unicode="z" d="M35 0 l0 113 l227 271 l-227 0 l0 118 l402 0 l0 -109 l-229 -275 l230 0 l0 -118 l-403 0 Z" /><glyph glyph-name="ordfeminine" unicode="ª" d="M331 365 q-31 2 -55.5 6.5 q-24.5 4.5 -39.5 15 q-15 10.5 -17 31.5 l0 142 q0 17 -11.5 24 q-11.5 7 -35.5 6 q-19 0 -52.5 -2.5 q-33.5 -2.5 -61.5 -4.5 l-5 59 q31 9 65.5 14.5 q34.5 5.5 67.5 5.5 q62 0 93 -23.5 q31 -23.5 31 -82.5 l0 -114 q5 -6 11.5 -8.5 q6.5 -2.5 13.5 -4.5 l-4 -64 ZM124 364 q-39 0 -62 25.5 q-23 25.5 -23 66.5 q0 81 101 86 l101 5 l0 -54 l-78 -5 q-18 -1 -25 -7.5 q-7 -6.5 -7 -21.5 q0 -30 28 -30 q19 0 42.5 6 q23.5 6 40.5 14 l-3 -45 q-23 -18 -53 -29 q-30 -11 -62 -11 Z" /><glyph glyph-name="ordmasculine" unicode="º" d="M186 364 q-75 0 -111.5 35.5 q-36.5 35.5 -36.5 114.5 q0 78 36.5 113 q36.5 35 111.5 35 q75 0 110.5 -35 q35.5 -35 35.5 -113 q0 -79 -35.5 -114.5 q-35.5 -35.5 -110.5 -35.5 ZM186 441 q29 0 40.5 17 q11.5 17 11.5 56 q0 39 -11.5 55 q-11.5 16 -40.5 16 q-29 0 -41.5 -16 q-12.5 -16 -12.5 -55 q0 -39 12.5 -56 q12.5 -17 41.5 -17 Z" /><glyph glyph-name="pi" unicode="&#x3c0;" d="M518 -2 q-75 0 -117 12.5 q-42 12.5 -59 46.5 q-17 34 -19 97 l0 306 l108 1 l0 -265 q0 -42 6.5 -62.5 q6.5 -20.5 25.5 -26 q19 -5.5 55 -5.5 l0 -104 ZM84 0 l31 458 l113 0 l-28 -458 l-116 0 ZM20 367 l0 119 q17 4 41 6.5 q24 2.5 51.5 5 q27.5 2.5 53.5 2.5 l228 0 q25 0 50.5 2 q25.5 2 48 5.5 q22.5 3.5 36.5 7.5 l0 -119 q-14 -6 -53.5 -11 q-39.5 -5 -96.5 -3 l-19 -2 l-178 0 l-25 -3 q-41 4 -78.5 0 q-37.5 -4 -58.5 -10 Z" /><glyph glyph-name="uni0621" unicode="&#x621;" d="M170 23 q-42 47 -62.5 92 q-20.5 45 -20.5 96 q0 54 20.5 99 q20.5 45 56.5 78 q36 33 83.5 51.5 q47.5 18.5 100.5 18.5 q41 0 80.5 -10.5 q39.5 -10.5 68.5 -30.5 l-60 -97 q-39 22 -84 22 q-39 0 -69 -16.5 q-30 -16.5 -46.5 -45.5 q-16.5 -29 -16.5 -67 q0 -31 11.5 -58 q11.5 -27 37.5 -56 l-100 -76 ZM38 0 l0 116 l507 0 l0 -116 l-507 0 Z" /><glyph glyph-name="uni0627" unicode="&#x627;" d="M90 0 l0 707 l133 0 l0 -707 l-133 0 Z" /><glyph glyph-name="uniFE8E" unicode="&#xfe8e;" d="M223 0 l0 116 l114 0 l0 -116 l-114 0 ZM90 0 l0 707 l133 0 l0 -707 l-133 0 ZM337 0 l0 116 q12 0 16 -15.5 q4 -15.5 4 -42.5 q0 -26 -4 -42 q-4 -16 -16 -16 Z" /><glyph glyph-name="uni066E" unicode="&#x66e;" d="M369 0 q-161 0 -245 62.5 q-84 62.5 -84 185.5 q0 24 3 50.5 q3 26.5 7.5 51 q4.5 24.5 8.5 43.5 q4 19 6 28 l130 -25 q-3 -16 -8 -41 q-5 -25 -9 -52.5 q-4 -27.5 -4 -52.5 q0 -52 22 -81.5 q22 -29.5 67 -41 q45 -11.5 113 -11.5 l267 0 l0 386 l134 0 l0 -502 l-408 0 Z" /><glyph glyph-name="uni067E" unicode="&#x67e;" d="M359 -251 l116 0 l0 -100 l-116 0 l0 100 ZM262 -98 l128 0 l0 -114 l-128 0 l0 114 ZM443 -98 l129 0 l0 -114 l-129 0 l0 114 ZM369 0 q-161 0 -245 62.5 q-84 62.5 -84 185.5 q0 24 3 50.5 q3 26.5 7.5 51 q4.5 24.5 8.5 43.5 q4 19 6 28 l130 -25 q-3 -16 -8 -41 q-5 -25 -9 -52.5 q-4 -27.5 -4 -52.5 q0 -52 22 -81.5 q22 -29.5 67 -41 q45 -11.5 113 -11.5 l267 0 l0 386 l134 0 l0 -502 l-408 0 Z" /><glyph glyph-name="uniFB57" unicode="&#xfb57;" d="M359 -251 l116 0 l0 -100 l-116 0 l0 100 ZM262 -98 l128 0 l0 -114 l-128 0 l0 114 ZM443 -98 l129 0 l0 -114 l-129 0 l0 114 ZM777 0 l0 116 l105 0 l0 -116 l-105 0 ZM369 0 q-161 0 -245 62.5 q-84 62.5 -84 185.5 q0 24 3 50.5 q3 26.5 7.5 51 q4.5 24.5 8.5 43.5 q4 19 6 28 l130 -25 q-3 -16 -8 -41 q-5 -25 -9 -52.5 q-4 -27.5 -4 -52.5 q0 -52 22 -81.5 q22 -29.5 67 -41 q45 -11.5 113 -11.5 l267 0 l0 386 l134 0 l0 -502 l-408 0 ZM882 0 l0 116 q12 0 16 -15.5 q4 -15.5 4 -42.5 q0 -26 -4 -42 q-4 -16 -16 -16 Z" /><glyph glyph-name="uniFB59" unicode="&#xfb59;" d="M133 -232 l116 0 l0 -101 l-116 0 l0 101 ZM36 -80 l129 0 l0 -114 l-129 0 l0 114 ZM218 -80 l129 0 l0 -114 l-129 0 l0 114 ZM292 0 l0 116 l125 0 l0 -116 l-125 0 ZM417 0 l0 116 q12 0 16 -15.5 q4 -15.5 4 -42.5 q0 -26 -4 -42 q-4 -16 -16 -16 ZM0 0 l0 116 l237 0 l-78 -65 l0 451 l133 0 l0 -502 l-292 0 ZM0 0 q-12 0 -16 16 q-4 16 -4 42 q0 27 4 42.5 q4 15.5 16 15.5 l0 -116 Z" /><glyph glyph-name="uniFB58" unicode="&#xfb58;" d="M133 -251 l116 0 l0 -100 l-116 0 l0 100 ZM36 -98 l128 0 l0 -114 l-128 0 l0 114 ZM217 -98 l129 0 l0 -114 l-129 0 l0 114 ZM0 0 l0 116 l237 0 l-78 -65 l0 451 l133 0 l0 -502 l-292 0 ZM0 0 q-12 0 -16 16 q-4 16 -4 42 q0 27 4 42.5 q4 15.5 16 15.5 l0 -116 Z" /><glyph glyph-name="uni062C" unicode="&#x62c;" d="M373 -172 l0 91 l93 0 l0 -91 l-93 0 ZM309 -323 q-81 0 -141.5 26 q-60.5 26 -94 75.5 q-33.5 49.5 -33.5 117.5 q0 69 33.5 118 q33.5 49 94 75.5 q60.5 26.5 142.5 26.5 l108 0 l0 148 q0 60 -38 91 q-38 31 -118 31 q-25 0 -66.5 -4 q-41.5 -4 -92.5 -11 l-12 105 q44 11 91 18.5 q47 7.5 91 7.5 q82 0 144.5 -28.5 q62.5 -28.5 98 -81.5 q35.5 -53 35.5 -128 l0 -264 l-241 0 q-71 0 -103.5 -26 q-32.5 -26 -32.5 -78 q0 -52 32.5 -78 q32.5 -26 102.5 -26 q13 0 29.5 1.5 q16.5 1.5 39.5 3.5 l8 -113 q-17 -3 -37 -5 q-20 -2 -40 -2 Z" /><glyph glyph-name="uniFE9E" unicode="&#xfe9e;" d="M373 -169 l0 92 l93 0 l0 -92 l-93 0 ZM551 0 l0 116 l105 0 l0 -116 l-105 0 ZM656 0 l0 116 q12 0 16 -15.5 q4 -15.5 4 -42.5 q0 -26 -4 -42 q-4 -16 -16 -16 ZM309 -323 q-81 0 -141.5 26 q-60.5 26 -94 75.5 q-33.5 49.5 -33.5 117.5 q0 69 33.5 118 q33.5 49 94 75.5 q60.5 26.5 142.5 26.5 l108 0 l0 148 q0 60 -38 91 q-38 31 -118 31 q-25 0 -66.5 -4 q-41.5 -4 -92.5 -11 l-12 105 q44 11 91 18.5 q47 7.5 91 7.5 q82 0 144.5 -28.5 q62.5 -28.5 98 -81.5 q35.5 -53 35.5 -128 l0 -264 l-241 0 q-71 0 -103.5 -26 q-32.5 -26 -32.5 -78 q0 -52 32.5 -78 q32.5 -26 102.5 -26 q13 0 29.5 1.5 q16.5 1.5 39.5 3.5 l8 -113 q-17 -3 -37 -5 q-20 -2 -40 -2 Z" /><glyph glyph-name="uni0686" unicode="&#x686;" d="M373 -134 l62 0 l0 -57 l-62 0 l0 57 ZM419 -49 l70 0 l0 -63 l-70 0 l0 63 ZM319 -49 l70 0 l0 -63 l-70 0 l0 63 ZM309 -323 q-81 0 -141.5 26 q-60.5 26 -94 75.5 q-33.5 49.5 -33.5 117.5 q0 69 33.5 118 q33.5 49 94 75.5 q60.5 26.5 142.5 26.5 l108 0 l0 148 q0 60 -38 91 q-38 31 -118 31 q-25 0 -66.5 -4 q-41.5 -4 -92.5 -11 l-12 105 q44 11 91 18.5 q47 7.5 91 7.5 q82 0 144.5 -28.5 q62.5 -28.5 98 -81.5 q35.5 -53 35.5 -128 l0 -264 l-241 0 q-71 0 -103.5 -26 q-32.5 -26 -32.5 -78 q0 -52 32.5 -78 q32.5 -26 102.5 -26 q13 0 29.5 1.5 q16.5 1.5 39.5 3.5 l8 -113 q-17 -3 -37 -5 q-20 -2 -40 -2 Z" /><glyph glyph-name="uniFB7B" unicode="&#xfb7b;" d="M373 -134 l62 0 l0 -57 l-62 0 l0 57 ZM419 -49 l70 0 l0 -63 l-70 0 l0 63 ZM319 -49 l70 0 l0 -63 l-70 0 l0 63 ZM551 0 l0 116 l105 0 l0 -116 l-105 0 ZM656 0 l0 116 q12 0 16 -15.5 q4 -15.5 4 -42.5 q0 -26 -4 -42 q-4 -16 -16 -16 ZM309 -323 q-81 0 -141.5 26 q-60.5 26 -94 75.5 q-33.5 49.5 -33.5 117.5 q0 69 33.5 118 q33.5 49 94 75.5 q60.5 26.5 142.5 26.5 l108 0 l0 148 q0 60 -38 91 q-38 31 -118 31 q-25 0 -66.5 -4 q-41.5 -4 -92.5 -11 l-12 105 q44 11 91 18.5 q47 7.5 91 7.5 q82 0 144.5 -28.5 q62.5 -28.5 98 -81.5 q35.5 -53 35.5 -128 l0 -264 l-241 0 q-71 0 -103.5 -26 q-32.5 -26 -32.5 -78 q0 -52 32.5 -78 q32.5 -26 102.5 -26 q13 0 29.5 1.5 q16.5 1.5 39.5 3.5 l8 -113 q-17 -3 -37 -5 q-20 -2 -40 -2 Z" /><glyph glyph-name="uniFB7D" unicode="&#xfb7d;" d="M202 -251 l116 0 l0 -100 l-116 0 l0 100 ZM105 -98 l129 0 l0 -114 l-129 0 l0 114 ZM286 -98 l129 0 l0 -114 l-129 0 l0 114 ZM518 0 l0 116 l106 0 l0 -116 l-106 0 ZM0 0 l0 116 l430 0 l-45 -37 l0 185 q0 60 -37.5 91 q-37.5 31 -118.5 31 q-23 0 -63 -3.5 q-40 -3.5 -87 -10.5 l-13 106 q43 10 87.5 17 q44.5 7 87.5 7 q82 0 144 -28.5 q62 -28.5 97.5 -81.5 q35.5 -53 35.5 -128 l0 -264 l-518 0 ZM0 0 q-12 0 -16 16 q-4 16 -4 42 q0 27 4 42.5 q4 15.5 16 15.5 l0 -116 ZM624 0 l0 116 q11 0 15.5 -15.5 q4.5 -15.5 4.5 -42.5 q0 -26 -4.5 -42 q-4.5 -16 -15.5 -16 Z" /><glyph glyph-name="uniFB7C" unicode="&#xfb7c;" d="M202 -251 l116 0 l0 -100 l-116 0 l0 100 ZM105 -98 l129 0 l0 -114 l-129 0 l0 114 ZM286 -98 l129 0 l0 -114 l-129 0 l0 114 ZM0 0 l0 116 l430 0 l-45 -37 l0 185 q0 60 -37.5 91 q-37.5 31 -118.5 31 q-23 0 -63 -3.5 q-40 -3.5 -87 -10.5 l-13 106 q43 10 87.5 17 q44.5 7 87.5 7 q82 0 144 -28.5 q62 -28.5 97.5 -81.5 q35.5 -53 35.5 -128 l0 -264 l-518 0 ZM0 0 q-12 0 -16 16 q-4 16 -4 42 q0 27 4 42.5 q4 15.5 16 15.5 l0 -116 Z" /><glyph glyph-name="uni062D" unicode="&#x62d;" d="M454 -196 l19 -107 q-45 -9 -85.5 -14.5 q-40.5 -5.5 -78.5 -5.5 q-81 0 -141.5 26 q-60.5 26 -94 75.5 q-33.5 49.5 -33.5 117.5 q0 69 33.5 118 q33.5 49 94 75.5 q60.5 26.5 142.5 26.5 l108 0 l0 -116 l-108 0 q-71 0 -103.5 -26 q-32.5 -26 -32.5 -78 q0 -52 32.5 -78 q32.5 -26 102.5 -26 q25 0 60 3 q35 3 85 9 ZM103 371 l-12 105 q44 11 91 18.5 q47 7.5 91 7.5 q82 0 144.5 -28.5 q62.5 -28.5 98 -81.5 q35.5 -53 35.5 -128 l0 -264 l-133 0 l0 264 q0 60 -38 91 q-38 31 -118 31 q-25 0 -66.5 -4 q-41.5 -4 -92.5 -11 Z" /><glyph glyph-name="uniFEA2" unicode="&#xfea2;" d="M551 0 l0 116 l105 0 l0 -116 l-105 0 ZM454 -196 l19 -107 q-45 -9 -85.5 -14.5 q-40.5 -5.5 -78.5 -5.5 q-81 0 -141.5 26 q-60.5 26 -94 75.5 q-33.5 49.5 -33.5 117.5 q0 69 33.5 118 q33.5 49 94 75.5 q60.5 26.5 142.5 26.5 l108 0 l0 -116 l-108 0 q-71 0 -103.5 -26 q-32.5 -26 -32.5 -78 q0 -52 32.5 -78 q32.5 -26 102.5 -26 q25 0 60 3 q35 3 85 9 ZM103 371 l-12 105 q44 11 91 18.5 q47 7.5 91 7.5 q82 0 144.5 -28.5 q62.5 -28.5 98 -81.5 q35.5 -53 35.5 -128 l0 -264 l-133 0 l0 264 q0 60 -38 91 q-38 31 -118 31 q-25 0 -66.5 -4 q-41.5 -4 -92.5 -11 ZM656 0 l0 116 q12 0 16 -15.5 q4 -15.5 4 -42.5 q0 -26 -4 -42 q-4 -16 -16 -16 Z" /><glyph glyph-name="uniFEA4" unicode="&#xfea4;" d="M518 0 l0 116 l106 0 l0 -116 l-106 0 ZM0 0 l0 116 l430 0 l-45 -37 l0 185 q0 60 -37.5 91 q-37.5 31 -118.5 31 q-23 0 -63 -3.5 q-40 -3.5 -87 -10.5 l-13 106 q43 10 87.5 17 q44.5 7 87.5 7 q82 0 144 -28.5 q62 -28.5 97.5 -81.5 q35.5 -53 35.5 -128 l0 -264 l-518 0 ZM0 0 q-12 0 -16 16 q-4 16 -4 42 q0 27 4 42.5 q4 15.5 16 15.5 l0 -116 ZM624 0 l0 116 q11 0 15.5 -15.5 q4.5 -15.5 4.5 -42.5 q0 -26 -4.5 -42 q-4.5 -16 -15.5 -16 Z" /><glyph glyph-name="uniFEA3" unicode="&#xfea3;" d="M0 0 l0 116 l430 0 l-45 -37 l0 185 q0 60 -37.5 91 q-37.5 31 -118.5 31 q-23 0 -63 -3.5 q-40 -3.5 -87 -10.5 l-13 106 q43 10 87.5 17 q44.5 7 87.5 7 q82 0 144 -28.5 q62 -28.5 97.5 -81.5 q35.5 -53 35.5 -128 l0 -264 l-518 0 ZM0 0 q-12 0 -16 16 q-4 16 -4 42 q0 27 4 42.5 q4 15.5 16 15.5 l0 -116 Z" /><glyph glyph-name="uni062F" unicode="&#x62f;" d="M40 0 l0 116 l363 0 l-91 -79 l0 168 q0 71 -14.5 110 q-14.5 39 -48 55 q-33.5 16 -91.5 16 l-81 0 l0 116 l81 0 q92 0 156.5 -30 q64.5 -30 98 -95.5 q33.5 -65.5 33.5 -171.5 l0 -205 l-406 0 Z" /><glyph glyph-name="uniFEAA" unicode="&#xfeaa;" d="M446 0 l0 116 l105 0 l0 -116 l-105 0 ZM40 0 l0 116 l363 0 l-91 -79 l0 168 q0 71 -14.5 110 q-14.5 39 -48 55 q-33.5 16 -91.5 16 l-81 0 l0 116 l81 0 q92 0 156.5 -30 q64.5 -30 98 -95.5 q33.5 -65.5 33.5 -171.5 l0 -205 l-406 0 ZM551 0 l0 116 q12 0 16 -15.5 q4 -15.5 4 -42.5 q0 -26 -4 -42 q-4 -16 -16 -16 Z" /><glyph glyph-name="uni0631" unicode="&#x631;" d="M38 -248 q-13 0 -28 1 q-15 1 -31 3 l5 114 q16 -1 30.5 -2 q14.5 -1 21.5 -1 q39 0 62.5 31 q23.5 31 23.5 87 l0 517 l134 0 l0 -517 q0 -68 -27.5 -121 q-27.5 -53 -76.5 -82.5 q-49 -29.5 -114 -29.5 Z" /><glyph glyph-name="uniFEAE" unicode="&#xfeae;" d="M232 0 l0 116 l129 0 l0 -116 l-129 0 ZM38 -248 q-13 0 -28 1 q-15 1 -31 3 l5 114 q16 -1 30.5 -2 q14.5 -1 21.5 -1 q39 0 62.5 31 q23.5 31 23.5 87 l0 517 l134 0 l0 -517 q0 -68 -27.5 -121 q-27.5 -53 -76.5 -82.5 q-49 -29.5 -114 -29.5 ZM361 0 l0 116 q12 0 16 -15.5 q4 -15.5 4 -42.5 q0 -26 -4 -42 q-4 -16 -16 -16 Z" /><glyph glyph-name="uni0633" unicode="&#x633;" d="M342 -248 q-87 0 -155.5 31.5 q-68.5 31.5 -107.5 87.5 q-39 56 -39 127 q0 20 3 53 q3 33 8.5 74 q5.5 41 12 83.5 q6.5 42.5 12.5 82.5 l132 -18 q-11 -67 -18.5 -122.5 q-7.5 -55.5 -11.5 -94.5 q-4 -39 -4 -57 q0 -40 20 -69 q20 -29 57.5 -45.5 q37.5 -16.5 90.5 -16.5 q55 0 89 16 q34 16 49.5 44 q15.5 28 15.5 63 l0 409 l134 0 l0 -409 q0 -72 -37.5 -126 q-37.5 -54 -102.5 -83.5 q-65 -29.5 -148 -29.5 ZM628 0 l2 116 l81 0 q32 0 49 9.5 q17 9.5 24 39 q7 29.5 7 88.5 l0 197 l134 0 l0 -197 q0 -89 -23 -145 q-23 -56 -70 -82 q-47 -26 -121 -26 l-83 0 ZM968 0 q-41 0 -81 15.5 q-40 15.5 -75 46.5 l82 85 q19 -16 37.5 -23.5 q18.5 -7.5 36.5 -7.5 l188 0 l-70 -63 l0 222 q0 16 -4 48.5 q-4 32.5 -10 74 q-6 41.5 -14 84.5 l131 20 q7 -36 14 -80.5 q7 -44.5 11.5 -84 q4.5 -39.5 4.5 -62.5 l0 -275 l-251 0 Z" /><glyph glyph-name="uniFEB2" unicode="&#xfeb2;" d="M1219 0 l0 116 l105 0 l0 -116 l-105 0 ZM342 -248 q-87 0 -155.5 31.5 q-68.5 31.5 -107.5 87.5 q-39 56 -39 127 q0 20 3 53 q3 33 8.5 74 q5.5 41 12 83.5 q6.5 42.5 12.5 82.5 l132 -18 q-11 -67 -18.5 -122.5 q-7.5 -55.5 -11.5 -94.5 q-4 -39 -4 -57 q0 -40 20 -69 q20 -29 57.5 -45.5 q37.5 -16.5 90.5 -16.5 q55 0 89 16 q34 16 49.5 44 q15.5 28 15.5 63 l0 409 l134 0 l0 -409 q0 -72 -37.5 -126 q-37.5 -54 -102.5 -83.5 q-65 -29.5 -148 -29.5 ZM628 0 l2 116 l81 0 q32 0 49 9.5 q17 9.5 24 39 q7 29.5 7 88.5 l0 197 l134 0 l0 -197 q0 -89 -23 -145 q-23 -56 -70 -82 q-47 -26 -121 -26 l-83 0 ZM968 0 q-41 0 -81 15.5 q-40 15.5 -75 46.5 l82 85 q19 -16 37.5 -23.5 q18.5 -7.5 36.5 -7.5 l188 0 l-70 -63 l0 222 q0 16 -4 48.5 q-4 32.5 -10 74 q-6 41.5 -14 84.5 l131 20 q7 -36 14 -80.5 q7 -44.5 11.5 -84 q4.5 -39.5 4.5 -62.5 l0 -275 l-251 0 ZM1324 0 l0 116 q12 0 16 -15.5 q4 -15.5 4 -42.5 q0 -26 -4 -42 q-4 -16 -16 -16 Z" /><glyph glyph-name="uniFEB4" unicode="&#xfeb4;" d="M839 0 l0 116 l106 0 l0 -116 l-106 0 ZM588 0 q-41 0 -81.5 15.5 q-40.5 15.5 -74.5 46.5 l82 85 q20 -16 37.5 -23.5 q17.5 -7.5 36.5 -7.5 l187 0 l-69 -63 l0 222 q0 16 -3.5 48.5 q-3.5 32.5 -10 74 q-6.5 41.5 -15.5 84.5 l132 20 q7 -36 13.5 -80.5 q6.5 -44.5 11.5 -84 q5 -39.5 5 -62.5 l0 -275 l-251 0 ZM0 0 l0 116 l146 0 l-30 -31 l0 315 l134 0 l0 -400 l-250 0 ZM250 0 l0 116 l81 0 q32 0 49 9.5 q17 9.5 23.5 39 q6.5 29.5 6.5 88.5 l0 197 l134 0 l0 -197 q0 -89 -22.5 -145 q-22.5 -56 -69.5 -82 q-47 -26 -121 -26 l-81 0 ZM0 0 q-12 0 -16 16 q-4 16 -4 42 q0 27 4 42.5 q4 15.5 16 15.5 l0 -116 ZM945 0 l0 116 q12 0 16 -15.5 q4 -15.5 4 -42.5 q0 -26 -4 -42 q-4 -16 -16 -16 Z" /><glyph glyph-name="uniFEB3" unicode="&#xfeb3;" d="M588 0 q-41 0 -81.5 15.5 q-40.5 15.5 -74.5 46.5 l82 85 q20 -16 37.5 -23.5 q17.5 -7.5 36.5 -7.5 l187 0 l-69 -63 l0 222 q0 16 -3.5 48.5 q-3.5 32.5 -10 74 q-6.5 41.5 -15.5 84.5 l132 20 q7 -36 13.5 -80.5 q6.5 -44.5 11.5 -84 q5 -39.5 5 -62.5 l0 -275 l-251 0 ZM0 0 l0 116 l146 0 l-30 -31 l0 315 l134 0 l0 -400 l-250 0 ZM250 0 l0 116 l81 0 q32 0 49 9.5 q17 9.5 23.5 39 q6.5 29.5 6.5 88.5 l0 197 l134 0 l0 -197 q0 -89 -22.5 -145 q-22.5 -56 -69.5 -82 q-47 -26 -121 -26 l-81 0 ZM0 0 q-12 0 -16 16 q-4 16 -4 42 q0 27 4 42.5 q4 15.5 16 15.5 l0 -116 Z" /><glyph glyph-name="uni0635" unicode="&#x635;" d="M342 -248 q-87 0 -155.5 31.5 q-68.5 31.5 -107.5 87.5 q-39 56 -39 127 q0 20 3 53 q3 33 8.5 74 q5.5 41 12 83.5 q6.5 42.5 12.5 82.5 l132 -18 q-11 -67 -18.5 -122.5 q-7.5 -55.5 -11.5 -94.5 q-4 -39 -4 -57 q0 -40 20 -69 q20 -29 57.5 -45.5 q37.5 -16.5 90.5 -16.5 q55 0 89 16 q34 16 49.5 44 q15.5 28 15.5 63 l0 511 l134 0 l0 -511 q0 -72 -37.5 -126 q-37.5 -54 -102.5 -83.5 q-65 -29.5 -148 -29.5 ZM628 0 l2 116 l496 0 l-113 -98 l0 210 q0 57 -15.5 91.5 q-15.5 34.5 -43.5 50.5 q-28 16 -68 16 q-43 0 -81.5 -17 q-38.5 -17 -71.5 -44 q-33 -27 -61 -58 q-28 -31 -50 -59.5 q-22 -28.5 -38 -48.5 l-31 97 q39 47 70.5 86 q31.5 39 60 69 q28.5 30 59.5 50 q31 20 69 30.5 q38 10.5 88 10.5 q66 0 113 -22.5 q47 -22.5 76.5 -61.5 q29.5 -39 43 -88 q13.5 -49 13.5 -102 l0 -228 l-518 0 Z" /><glyph glyph-name="uniFEBA" unicode="&#xfeba;" d="M1146 0 l0 116 l106 0 l0 -116 l-106 0 ZM342 -248 q-87 0 -155.5 31.5 q-68.5 31.5 -107.5 87.5 q-39 56 -39 127 q0 20 3 53 q3 33 8.5 74 q5.5 41 12 83.5 q6.5 42.5 12.5 82.5 l132 -18 q-11 -67 -18.5 -122.5 q-7.5 -55.5 -11.5 -94.5 q-4 -39 -4 -57 q0 -40 20 -69 q20 -29 57.5 -45.5 q37.5 -16.5 90.5 -16.5 q55 0 89 16 q34 16 49.5 44 q15.5 28 15.5 63 l0 511 l134 0 l0 -511 q0 -72 -37.5 -126 q-37.5 -54 -102.5 -83.5 q-65 -29.5 -148 -29.5 ZM628 0 l2 116 l496 0 l-113 -98 l0 210 q0 57 -15.5 91.5 q-15.5 34.5 -43.5 50.5 q-28 16 -68 16 q-43 0 -81.5 -17 q-38.5 -17 -71.5 -44 q-33 -27 -61 -58 q-28 -31 -50 -59.5 q-22 -28.5 -38 -48.5 l-31 97 q39 47 70.5 86 q31.5 39 60 69 q28.5 30 59.5 50 q31 20 69 30.5 q38 10.5 88 10.5 q66 0 113 -22.5 q47 -22.5 76.5 -61.5 q29.5 -39 43 -88 q13.5 -49 13.5 -102 l0 -228 l-518 0 ZM1252 0 l0 116 q12 0 16 -15.5 q4 -15.5 4 -42.5 q0 -26 -4 -42 q-4 -16 -16 -16 Z" /><glyph glyph-name="uniFEBC" unicode="&#xfebc;" d="M777 0 l0 116 l105 0 l0 -116 l-105 0 ZM0 0 l0 116 l756 0 l-113 -98 l0 210 q0 57 -15 91.5 q-15 34.5 -43.5 50.5 q-28.5 16 -68.5 16 q-43 0 -81.5 -17 q-38.5 -17 -71.5 -44 q-33 -27 -61 -58 q-28 -31 -50 -59.5 q-22 -28.5 -38 -48.5 l-30 97 q39 47 70 86 q31 39 59.5 69 q28.5 30 60 50 q31.5 20 69 30.5 q37.5 10.5 87.5 10.5 q67 0 114 -22.5 q47 -22.5 76.5 -61.5 q29.5 -39 43 -88 q13.5 -49 13.5 -102 l0 -228 l-777 0 ZM126 116 l0 386 l134 0 l0 -386 l-134 0 ZM0 0 q-12 0 -16 16 q-4 16 -4 42 q0 27 4 42.5 q4 15.5 16 15.5 l0 -116 ZM882 0 l0 116 q12 0 16 -15.5 q4 -15.5 4 -42.5 q0 -26 -4 -42 q-4 -16 -16 -16 Z" /><glyph glyph-name="uniFEBB" unicode="&#xfebb;" d="M0 0 l0 116 l756 0 l-113 -98 l0 210 q0 57 -15 91.5 q-15 34.5 -43.5 50.5 q-28.5 16 -68.5 16 q-43 0 -81.5 -17 q-38.5 -17 -71.5 -44 q-33 -27 -61 -58 q-28 -31 -50 -59.5 q-22 -28.5 -38 -48.5 l-30 97 q39 47 70 86 q31 39 59.5 69 q28.5 30 60 50 q31.5 20 69 30.5 q37.5 10.5 87.5 10.5 q67 0 114 -22.5 q47 -22.5 76.5 -61.5 q29.5 -39 43 -88 q13.5 -49 13.5 -102 l0 -228 l-777 0 ZM126 116 l0 386 l134 0 l0 -386 l-134 0 ZM0 0 q-12 0 -16 16 q-4 16 -4 42 q0 27 4 42.5 q4 15.5 16 15.5 l0 -116 Z" /><glyph glyph-name="uni0637" unicode="&#x637;" d="M20 0 l0 116 l698 0 l-113 -98 l0 210 q0 57 -15 91.5 q-15 34.5 -43.5 50.5 q-28.5 16 -68.5 16 q-43 0 -81 -17 q-38 -17 -71.5 -44 q-33.5 -27 -61.5 -58 q-28 -31 -50 -59.5 q-22 -28.5 -38 -48.5 l-30 97 q41 52 76.5 97 q35.5 45 74.5 78.5 q39 33.5 86 52 q47 18.5 109 18.5 q67 0 113.5 -22.5 q46.5 -22.5 76.5 -61.5 q30 -39 43 -88 q13 -49 13 -102 l0 -228 l-718 0 ZM89 116 l0 591 l133 0 l0 -591 l-133 0 Z" /><glyph glyph-name="uniFEC2" unicode="&#xfec2;" d="M738 0 l0 116 l106 0 l0 -116 l-106 0 ZM20 0 l0 116 l698 0 l-113 -98 l0 210 q0 57 -15 91.5 q-15 34.5 -43.5 50.5 q-28.5 16 -68.5 16 q-43 0 -81 -17 q-38 -17 -71.5 -44 q-33.5 -27 -61.5 -58 q-28 -31 -50 -59.5 q-22 -28.5 -38 -48.5 l-30 97 q41 52 76.5 97 q35.5 45 74.5 78.5 q39 33.5 86 52 q47 18.5 109 18.5 q67 0 113.5 -22.5 q46.5 -22.5 76.5 -61.5 q30 -39 43 -88 q13 -49 13 -102 l0 -228 l-718 0 ZM89 116 l0 591 l133 0 l0 -591 l-133 0 ZM844 0 l0 116 q12 0 16 -15.5 q4 -15.5 4 -42.5 q0 -26 -4 -42 q-4 -16 -16 -16 Z" /><glyph glyph-name="uniFEC4" unicode="&#xfec4;" d="M697 0 l0 116 l105 0 l0 -116 l-105 0 ZM0 0 l0 116 l698 0 l-113 -98 l0 210 q0 57 -15 91.5 q-15 34.5 -43.5 50.5 q-28.5 16 -68.5 16 q-43 0 -81 -17 q-38 -17 -71.5 -44 q-33.5 -27 -61.5 -58 q-28 -31 -50 -59.5 q-22 -28.5 -38 -48.5 l-30 97 q41 52 76.5 97 q35.5 45 74.5 78.5 q39 33.5 86 52 q47 18.5 109 18.5 q67 0 113.5 -22.5 q46.5 -22.5 76.5 -61.5 q30 -39 43 -88 q13 -49 13 -102 l0 -228 l-718 0 ZM69 116 l0 591 l133 0 l0 -591 l-133 0 ZM0 0 q-12 0 -16 16 q-4 16 -4 42 q0 27 4 42.5 q4 15.5 16 15.5 l0 -116 ZM802 0 l0 116 q12 0 16 -15.5 q4 -15.5 4 -42.5 q0 -26 -4 -42 q-4 -16 -16 -16 Z" /><glyph glyph-name="uni0639" unicode="&#x639;" d="M309 -323 q-81 0 -141.5 26 q-60.5 26 -94 75.5 q-33.5 49.5 -33.5 117.5 q0 69 33.5 118 q33.5 49 94 75.5 q60.5 26.5 142.5 26.5 l194 0 l0 -116 l-194 0 q-71 0 -103.5 -26 q-32.5 -26 -32.5 -78 q0 -52 32.5 -78 q32.5 -26 102.5 -26 q25 0 60 3 q35 3 85 9 l19 -107 q-45 -9 -85.5 -14.5 q-40.5 -5.5 -78.5 -5.5 ZM192 16 q-51 48 -76.5 102 q-25.5 54 -25.5 115 q0 59 22 108.5 q22 49.5 60 85.5 q38 36 88.5 55.5 q50.5 19.5 106.5 19.5 q30 0 63 -6 q33 -6 63 -16 l-39 -109 q-22 7 -42.5 11 q-20.5 4 -39.5 4 q-45 0 -78.5 -19.5 q-33.5 -19.5 -52 -53.5 q-18.5 -34 -18.5 -78 q0 -40 16.5 -75 q16.5 -35 47.5 -63 l-95 -81 Z" /><glyph glyph-name="uniFECA" unicode="&#xfeca;" d="M454 -195 l19 -108 q-45 -9 -85.5 -14.5 q-40.5 -5.5 -78.5 -5.5 q-81 0 -141.5 26 q-60.5 26 -94 75.5 q-33.5 49.5 -33.5 117.5 q0 61 26 108.5 q26 47.5 74 78.5 q48 31 111 42 l11 8 q29 10 60 26.5 q31 16.5 59.5 39.5 q28.5 23 50.5 50.5 q22 27.5 35.5 58.5 q13.5 31 13.5 64 l0 64 l64 -106 q-52 28 -106.5 42 q-54.5 14 -102.5 14 q-49 0 -103 -14 q-54 -14 -106 -42 l64 106 l0 -64 q0 -31 14.5 -66 q14.5 -35 39.5 -68.5 q25 -33.5 59 -61 q34 -27.5 74 -44 q40 -16.5 82 -16.5 l202 0 l0 -116 l-159 0 q-78 0 -146 25 q-68 25 -123 66.5 q-55 41.5 -94.5 91 q-39.5 49.5 -60.5 99 q-21 49.5 -21 90.5 l0 57 q43 24 91.5 40 q48.5 16 96.5 24.5 q48 8.5 90 8.5 q42 0 90 -8.5 q48 -8.5 96.5 -24.5 q48.5 -16 91.5 -40 l0 -57 q0 -51 -22 -98.5 q-22 -47.5 -59.5 -88.5 q-37.5 -41 -84.5 -74 q-47 -33 -97 -55 q-8 -4 -23 -10.5 q-15 -6.5 -31.5 -13 q-16.5 -6.5 -28.5 -11 q-12 -4.5 -15 -6.5 q-30 -14 -54.5 -41.5 q-24.5 -27.5 -24.5 -78.5 q0 -50 33.5 -76.5 q33.5 -26.5 101.5 -26.5 q24 0 59.5 3.5 q35.5 3.5 85.5 9.5 ZM662 0 l0 116 q12 0 16 -15.5 q4 -15.5 4 -42.5 q0 -26 -4 -42 q-4 -16 -16 -16 Z" /><glyph glyph-name="uniFECC" unicode="&#xfecc;" d="M0 0 l0 116 l212 0 q43 0 83 16.5 q40 16.5 73.5 44 q33.5 27.5 59 61 q25.5 33.5 40 68.5 q14.5 35 14.5 66 l0 64 l64 -106 q-52 28 -106 42 q-54 14 -103 14 q-48 0 -102.5 -14 q-54.5 -14 -105.5 -42 l64 106 l0 -64 q0 -31 14.5 -66 q14.5 -35 39.5 -68.5 q25 -33.5 59 -61 q34 -27.5 74 -44 q40 -16.5 82 -16.5 l206 0 l0 -116 l-164 0 q-78 0 -146 25 q-68 25 -123 66.5 q-55 41.5 -94.5 91 q-39.5 49.5 -60.5 99 q-21 49.5 -21 90.5 l0 57 q43 24 91.5 40 q48.5 16 97 24.5 q48.5 8.5 89.5 8.5 q42 0 90 -8.5 q48 -8.5 96.5 -24.5 q48.5 -16 91.5 -40 l0 -57 q0 -41 -21 -90.5 q-21 -49.5 -60.5 -99 q-39.5 -49.5 -94.5 -91 q-55 -41.5 -123 -66.5 q-68 -25 -146 -25 l-170 0 ZM0 0 q-12 0 -16 16 q-4 16 -4 42 q0 27 4 42.5 q4 15.5 16 15.5 l0 -116 ZM668 0 l0 116 q12 0 16 -15.5 q4 -15.5 4 -42.5 q0 -26 -4 -42 q-4 -16 -16 -16 Z" /><glyph glyph-name="uniFECB" unicode="&#xfecb;" d="M188 16 q-51 48 -76.5 102 q-25.5 54 -25.5 115 q0 59 22 108.5 q22 49.5 60 85.5 q38 36 88.5 55.5 q50.5 19.5 106.5 19.5 q30 0 63 -6 q33 -6 63 -16 l-40 -109 q-21 7 -41.5 11 q-20.5 4 -39.5 4 q-44 0 -78 -19.5 q-34 -19.5 -52.5 -53.5 q-18.5 -34 -18.5 -78 q0 -82 64 -138 l-95 -81 ZM0 0 l0 116 l498 0 l0 -116 l-498 0 ZM0 0 q-12 0 -16 16 q-4 16 -4 42 q0 27 4 42.5 q4 15.5 16 15.5 l0 -116 Z" /><glyph glyph-name="uni06A1" unicode="&#x6a1;" d="M383 0 q-161 0 -245 62.5 q-84 62.5 -84 185.5 q0 24 3 50.5 q3 26.5 7.5 51 q4.5 24.5 8.5 43.5 q4 19 6 28 l130 -25 q-3 -16 -8 -41 q-5 -25 -9 -52.5 q-4 -27.5 -4 -52.5 q0 -52 22 -81.5 q22 -29.5 67 -41 q45 -11.5 113 -11.5 l487 0 l-40 -35 l0 334 l34 -29 l-126 0 q-45 0 -69.5 -11 q-24.5 -11 -35 -40.5 q-10.5 -29.5 -10.5 -83.5 q0 -59 10.5 -87.5 q10.5 -28.5 35 -38 q24.5 -9.5 69.5 -9.5 l0 -104 q-86 0 -140.5 24 q-54.5 24 -81 76.5 q-26.5 52.5 -26.5 138.5 q0 82 26.5 138 q26.5 56 81 84.5 q54.5 28.5 140.5 28.5 l226 0 l0 -502 l-588 0 Z" /><glyph glyph-name="uni066F" unicode="&#x66f;" d="M330 -266 q-82 0 -148 30.5 q-66 30.5 -104 84 q-38 53.5 -38 121.5 q0 21 3.5 55 q3.5 34 9 75 q5.5 41 12 85 q6.5 44 12.5 83 l132 -19 q-10 -66 -18 -121 q-8 -55 -12.5 -94 q-4.5 -39 -4.5 -60 q0 -40 18.5 -67.5 q18.5 -27.5 53.5 -42 q35 -14.5 84 -14.5 l234 0 q73 0 109 29.5 q36 29.5 36 84.5 l0 451 l33 -29 l-126 0 q-44 0 -69 -11 q-25 -11 -35 -40.5 q-10 -29.5 -10 -83.5 q0 -59 10 -87.5 q10 -28.5 35 -38 q25 -9.5 69 -9.5 l93 0 l0 -116 l-93 0 q-85 0 -140 26.5 q-55 26.5 -81.5 82.5 q-26.5 56 -26.5 142 q0 82 26.5 138 q26.5 56 81.5 84.5 q55 28.5 140 28.5 l226 0 l0 -538 q0 -71 -36.5 -122.5 q-36.5 -51.5 -99 -79.5 q-62.5 -28 -142.5 -28 l-234 0 Z" /><glyph glyph-name="uniFEDC" unicode="&#xfedc;" d="M592 0 l0 116 l105 0 l0 -116 l-105 0 ZM0 0 l0 116 l502 0 l-44 -36 l0 136 q0 52 -11 83 q-11 31 -33.5 45 q-22.5 14 -56.5 14 l-219 0 l-83 120 l51 96 q9 17 20 37 q11 20 29 48 q18 28 46 70 l112 -63 q-26 -39 -42 -64.5 q-16 -25.5 -27 -44.5 q-11 -19 -20 -38 l-40 -75 l-20 30 l193 0 q64 0 109 -21 q45 -21 72.5 -58 q27.5 -37 40.5 -83 q13 -46 13 -96 l0 -216 l-592 0 ZM0 0 q-12 0 -16 16 q-4 16 -4 42 q0 27 4 42.5 q4 15.5 16 15.5 l0 -116 ZM697 0 l0 116 q12 0 16 -15.5 q4 -15.5 4 -42.5 q0 -26 -4 -42 q-4 -16 -16 -16 Z" /><glyph glyph-name="uniFEDB" unicode="&#xfedb;" d="M0 0 l0 116 l502 0 l-44 -36 l0 136 q0 52 -11 83 q-11 31 -33.5 45 q-22.5 14 -56.5 14 l-219 0 l-83 120 l51 96 q9 17 20 37 q11 20 29 48 q18 28 46 70 l112 -63 q-26 -39 -42 -64.5 q-16 -25.5 -27 -44.5 q-11 -19 -20 -38 l-40 -75 l-20 30 l193 0 q64 0 109 -21 q45 -21 72.5 -58 q27.5 -37 40.5 -83 q13 -46 13 -96 l0 -216 l-592 0 ZM0 0 q-12 0 -16 16 q-4 16 -4 42 q0 27 4 42.5 q4 15.5 16 15.5 l0 -116 Z" /><glyph glyph-name="uni06A9" unicode="&#x6a9;" d="M369 0 q-161 0 -245 62.5 q-84 62.5 -84 185.5 q0 20 3 44.5 q3 24.5 6.5 48.5 q3.5 24 8 45 q4.5 21 7.5 35 l130 -25 q-3 -16 -7 -35 q-4 -19 -7 -39 q-3 -20 -5 -39 q-2 -19 -2 -33 q0 -52 22 -81.5 q22 -29.5 67 -41 q45 -11.5 113 -11.5 l287 0 l0 100 q0 52 -11.5 83 q-11.5 31 -34 45 q-22.5 14 -55.5 14 l-221 0 l-82 120 l51 96 q9 17 20.5 37 q11.5 20 29 48 q17.5 28 45.5 70 l111 -63 q-25 -39 -41 -64.5 q-16 -25.5 -26.5 -44.5 q-10.5 -19 -20.5 -38 l-24 -45 l158 0 q64 0 108.5 -21 q44.5 -21 72.5 -58 q28 -37 40.5 -83 q12.5 -46 12.5 -96 l0 -216 l-427 0 Z" /><glyph glyph-name="uniFB8F" unicode="&#xfb8f;" d="M796 0 l0 116 l106 0 l0 -116 l-106 0 ZM369 0 q-161 0 -245 62.5 q-84 62.5 -84 185.5 q0 20 3 44.5 q3 24.5 6.5 48.5 q3.5 24 8 45 q4.5 21 7.5 35 l130 -25 q-3 -16 -7 -35 q-4 -19 -7 -39 q-3 -20 -5 -39 q-2 -19 -2 -33 q0 -52 22 -81.5 q22 -29.5 67 -41 q45 -11.5 113 -11.5 l287 0 l0 100 q0 52 -11.5 83 q-11.5 31 -34 45 q-22.5 14 -55.5 14 l-221 0 l-82 120 l51 96 q9 17 20.5 37 q11.5 20 29 48 q17.5 28 45.5 70 l111 -63 q-25 -39 -41 -64.5 q-16 -25.5 -26.5 -44.5 q-10.5 -19 -20.5 -38 l-24 -45 l158 0 q64 0 108.5 -21 q44.5 -21 72.5 -58 q28 -37 40.5 -83 q12.5 -46 12.5 -96 l0 -216 l-427 0 ZM902 0 l0 116 q12 0 16 -15.5 q4 -15.5 4 -42.5 q0 -26 -4 -42 q-4 -16 -16 -16 Z" /><glyph glyph-name="uni06AF" unicode="&#x6af;" d="M235 513 l-48 70 q22 41 39 74.5 q17 33.5 36 64.5 q19 31 43 67 l65 -39 q-20 -32 -36.5 -58 q-16.5 -26 -31.5 -52 q-15 -26 -31.5 -56 q-16.5 -30 -35.5 -71 ZM369 0 q-161 0 -245 62.5 q-84 62.5 -84 185.5 q0 20 3 44.5 q3 24.5 6.5 48.5 q3.5 24 8 45 q4.5 21 7.5 35 l130 -25 q-3 -16 -7 -35 q-4 -19 -7 -39 q-3 -20 -5 -39 q-2 -19 -2 -33 q0 -52 22 -81.5 q22 -29.5 67 -41 q45 -11.5 113 -11.5 l287 0 l0 100 q0 52 -11.5 83 q-11.5 31 -34 45 q-22.5 14 -55.5 14 l-221 0 l-82 120 l51 96 q9 17 20.5 37 q11.5 20 29 48 q17.5 28 45.5 70 l111 -63 q-25 -39 -41 -64.5 q-16 -25.5 -26.5 -44.5 q-10.5 -19 -20.5 -38 l-24 -45 l158 0 q64 0 108.5 -21 q44.5 -21 72.5 -58 q28 -37 40.5 -83 q12.5 -46 12.5 -96 l0 -216 l-427 0 Z" /><glyph glyph-name="uniFB93" unicode="&#xfb93;" d="M235 513 l-48 70 q22 41 39 74.5 q17 33.5 36 64.5 q19 31 43 67 l65 -39 q-20 -32 -36.5 -58 q-16.5 -26 -31.5 -52 q-15 -26 -31.5 -56 q-16.5 -30 -35.5 -71 ZM369 0 q-161 0 -245 62.5 q-84 62.5 -84 185.5 q0 20 3 44.5 q3 24.5 6.5 48.5 q3.5 24 8 45 q4.5 21 7.5 35 l130 -25 q-3 -16 -7 -35 q-4 -19 -7 -39 q-3 -20 -5 -39 q-2 -19 -2 -33 q0 -52 22 -81.5 q22 -29.5 67 -41 q45 -11.5 113 -11.5 l287 0 l0 100 q0 52 -11.5 83 q-11.5 31 -34 45 q-22.5 14 -55.5 14 l-221 0 l-82 120 l51 96 q9 17 20.5 37 q11.5 20 29 48 q17.5 28 45.5 70 l111 -63 q-25 -39 -41 -64.5 q-16 -25.5 -26.5 -44.5 q-10.5 -19 -20.5 -38 l-24 -45 l158 0 q64 0 108.5 -21 q44.5 -21 72.5 -58 q28 -37 40.5 -83 q12.5 -46 12.5 -96 l0 -216 l-427 0 ZM902 0 l0 116 q12 0 16 -15.5 q4 -15.5 4 -42.5 q0 -26 -4 -42 q-4 -16 -16 -16 ZM796 0 l0 116 l106 0 l0 -116 l-106 0 Z" /><glyph glyph-name="uniFB95" unicode="&#xfb95;" d="M656 0 l0 116 l106 0 l0 -116 l-106 0 ZM762 0 l0 116 q12 0 16 -15.5 q4 -15.5 4 -42.5 q0 -26 -4 -42 q-4 -16 -16 -16 ZM87 513 l-47 69 q21 42 38.5 75.5 q17.5 33.5 36 64.5 q18.5 31 42.5 67 l65 -40 q-20 -31 -36.5 -57.5 q-16.5 -26.5 -31.5 -52.5 q-15 -26 -31.5 -56 q-16.5 -30 -35.5 -70 ZM0 0 l0 116 l567 0 l-43 -36 l0 136 q0 52 -11.5 83 q-11.5 31 -34 45 q-22.5 14 -56.5 14 l-219 0 l-83 120 l51 96 q9 17 20 37 q11 20 29 48 q18 28 46 70 l112 -63 q-26 -39 -41.5 -64.5 q-15.5 -25.5 -26.5 -44.5 q-11 -19 -21 -38 l-40 -75 l-20 30 l193 0 q65 0 109.5 -21 q44.5 -21 72.5 -58 q28 -37 40.5 -83 q12.5 -46 12.5 -96 l0 -216 l-657 0 ZM0 0 q-12 0 -16 16 q-4 16 -4 42 q0 27 4 42.5 q4 15.5 16 15.5 l0 -116 Z" /><glyph glyph-name="uniFB94" unicode="&#xfb94;" d="M87 513 l-47 69 q21 42 38.5 75.5 q17.5 33.5 36 64.5 q18.5 31 42.5 67 l65 -40 q-20 -31 -36.5 -57.5 q-16.5 -26.5 -31.5 -52.5 q-15 -26 -31.5 -56 q-16.5 -30 -35.5 -70 ZM0 0 l0 116 l567 0 l-43 -36 l0 136 q0 52 -11.5 83 q-11.5 31 -34 45 q-22.5 14 -56.5 14 l-219 0 l-83 120 l51 96 q9 17 20 37 q11 20 29 48 q18 28 46 70 l112 -63 q-26 -39 -41.5 -64.5 q-15.5 -25.5 -26.5 -44.5 q-11 -19 -21 -38 l-40 -75 l-20 30 l193 0 q65 0 109.5 -21 q44.5 -21 72.5 -58 q28 -37 40.5 -83 q12.5 -46 12.5 -96 l0 -216 l-657 0 ZM0 0 q-12 0 -16 16 q-4 16 -4 42 q0 27 4 42.5 q4 15.5 16 15.5 l0 -116 Z" /><glyph glyph-name="uni0644" unicode="&#x644;" d="M342 -248 q-87 0 -155.5 31.5 q-68.5 31.5 -107.5 87.5 q-39 56 -39 127 q0 20 3 53 q3 33 8.5 74 q5.5 41 12 83.5 q6.5 42.5 12.5 82.5 l132 -18 q-11 -67 -18.5 -122.5 q-7.5 -55.5 -11.5 -94.5 q-4 -39 -4 -57 q0 -40 20 -69 q20 -29 57.5 -45.5 q37.5 -16.5 90.5 -16.5 q55 0 89 16 q34 16 49.5 44 q15.5 28 15.5 63 l0 716 l134 0 l0 -716 q0 -72 -37.5 -126 q-37.5 -54 -102.5 -83.5 q-65 -29.5 -148 -29.5 Z" /><glyph glyph-name="uniFEDE" unicode="&#xfede;" d="M630 0 l0 116 l105 0 l0 -116 l-105 0 ZM342 -248 q-87 0 -155.5 31.5 q-68.5 31.5 -107.5 87.5 q-39 56 -39 127 q0 20 3 53 q3 33 8.5 74 q5.5 41 12 83.5 q6.5 42.5 12.5 82.5 l132 -18 q-11 -67 -18.5 -122.5 q-7.5 -55.5 -11.5 -94.5 q-4 -39 -4 -57 q0 -40 20 -69 q20 -29 57.5 -45.5 q37.5 -16.5 90.5 -16.5 q55 0 89 16 q34 16 49.5 44 q15.5 28 15.5 63 l0 716 l134 0 l0 -716 q0 -72 -37.5 -126 q-37.5 -54 -102.5 -83.5 q-65 -29.5 -148 -29.5 ZM735 0 l0 116 q12 0 16 -15.5 q4 -15.5 4 -42.5 q0 -26 -4 -42 q-4 -16 -16 -16 Z" /><glyph glyph-name="uniFEE0" unicode="&#xfee0;" d="M247 0 l0 116 l105 0 l0 -116 l-105 0 ZM113 0 l0 707 l134 0 l0 -707 l-134 0 ZM0 0 l0 116 l113 0 l0 -116 l-113 0 ZM0 0 q-12 0 -16 16 q-4 16 -4 42 q0 27 4 42.5 q4 15.5 16 15.5 l0 -116 ZM352 0 l0 116 q12 0 16 -15.5 q4 -15.5 4 -42.5 q0 -26 -4 -42 q-4 -16 -16 -16 Z" /><glyph glyph-name="uniFEDF" unicode="&#xfedf;" d="M113 0 l0 707 l134 0 l0 -707 l-134 0 ZM0 0 l0 116 l113 0 l0 -116 l-113 0 ZM0 0 q-12 0 -16 16 q-4 16 -4 42 q0 27 4 42.5 q4 15.5 16 15.5 l0 -116 Z" /><glyph glyph-name="uni0645" unicode="&#x645;" d="M64 -332 q-9 54 -16.5 105 q-7.5 51 -7.5 90 q0 78 30 134.5 q30 56.5 85 87.5 q55 31 130 31 q15 0 37.5 0 q22.5 0 52.5 0 q30 0 67 0 q37 0 81 0 l-61 -58 l0 189 q0 52 -11.5 82.5 q-11.5 30.5 -41 43.5 q-29.5 13 -85.5 13 q-38 0 -77.5 -5.5 q-39.5 -5.5 -62.5 -14.5 l84 78 q-7 -24 -12.5 -60 q-5.5 -36 -8.5 -74.5 q-3 -38.5 -3 -72.5 q0 -37 3 -74.5 q3 -37.5 7.5 -66.5 q4.5 -29 7.5 -40 l-127 -35 q-5 14 -10.5 46 q-5.5 32 -10 75.5 q-4.5 43.5 -4.5 92.5 q0 49 4.5 95.5 q4.5 46.5 11.5 84 q7 37.5 13 60.5 q26 10 77 18.5 q51 8.5 110 8.5 q65 0 111.5 -12.5 q46.5 -12.5 77 -35.5 q30.5 -23 48.5 -54.5 q18 -31.5 25 -70.5 q7 -39 7 -83 l0 -246 q-44 0 -91.5 0 q-47.5 0 -92 0 q-44.5 0 -78 0 q-33.5 0 -48.5 0 q-16 0 -35 -4.5 q-19 -4.5 -36.5 -18 q-17.5 -13.5 -28.5 -41 q-11 -27.5 -11 -73.5 q0 -36 6.5 -84 q6.5 -48 15.5 -111 l-132 0 Z" /><glyph glyph-name="uniFEE2" unicode="&#xfee2;" d="M595 0 l0 116 l106 0 l0 -116 l-106 0 ZM64 -332 q-9 54 -16.5 105 q-7.5 51 -7.5 90 q0 78 30 134.5 q30 56.5 85 87.5 q55 31 130 31 q15 0 37.5 0 q22.5 0 52.5 0 q30 0 67 0 q37 0 81 0 l-61 -58 l0 189 q0 52 -11.5 82.5 q-11.5 30.5 -41 43.5 q-29.5 13 -85.5 13 q-38 0 -77.5 -5.5 q-39.5 -5.5 -62.5 -14.5 l84 78 q-7 -24 -12.5 -60 q-5.5 -36 -8.5 -74.5 q-3 -38.5 -3 -72.5 q0 -37 3 -74.5 q3 -37.5 7.5 -66.5 q4.5 -29 7.5 -40 l-127 -35 q-5 14 -10.5 46 q-5.5 32 -10 75.5 q-4.5 43.5 -4.5 92.5 q0 49 4.5 95.5 q4.5 46.5 11.5 84 q7 37.5 13 60.5 q26 10 77 18.5 q51 8.5 110 8.5 q65 0 111.5 -12.5 q46.5 -12.5 77 -35.5 q30.5 -23 48.5 -54.5 q18 -31.5 25 -70.5 q7 -39 7 -83 l0 -246 q-44 0 -91.5 0 q-47.5 0 -92 0 q-44.5 0 -78 0 q-33.5 0 -48.5 0 q-16 0 -35 -4.5 q-19 -4.5 -36.5 -18 q-17.5 -13.5 -28.5 -41 q-11 -27.5 -11 -73.5 q0 -36 6.5 -84 q6.5 -48 15.5 -111 l-132 0 ZM701 0 l0 116 q11 0 15.5 -15.5 q4.5 -15.5 4.5 -42.5 q0 -26 -4.5 -42 q-4.5 -16 -15.5 -16 Z" /><glyph glyph-name="uniFEE4" unicode="&#xfee4;" d="M591 0 l0 116 l106 0 l0 -116 l-106 0 ZM0 0 l0 116 l519 0 l-61 -52 l0 184 q0 54 -12 84.5 q-12 30.5 -41.5 43 q-29.5 12.5 -81.5 12.5 q-41 0 -80.5 -5.5 q-39.5 -5.5 -61.5 -14.5 l83 78 q-6 -23 -11.5 -58 q-5.5 -35 -9.5 -74.5 q-4 -39.5 -4 -77.5 q0 -35 3.5 -73 q3.5 -38 8 -67 q4.5 -29 7.5 -40 l-127 -35 q-4 14 -10 46 q-6 32 -10.5 76 q-4.5 44 -4.5 93 q0 50 5 96.5 q5 46.5 11.5 84 q6.5 37.5 12.5 60.5 q24 9 75 18 q51 9 113 9 q90 0 149.5 -25 q59.5 -25 89 -81 q29.5 -56 29.5 -151 l0 -247 l-591 0 ZM0 0 q-12 0 -16 16 q-4 16 -4 42 q0 27 4 42.5 q4 15.5 16 15.5 l0 -116 ZM697 0 l0 116 q12 0 16 -15.5 q4 -15.5 4 -42.5 q0 -26 -4 -42 q-4 -16 -16 -16 Z" /><glyph glyph-name="uniFEE3" unicode="&#xfee3;" d="M0 0 l0 116 l519 0 l-61 -52 l0 184 q0 54 -12 84.5 q-12 30.5 -41.5 43 q-29.5 12.5 -81.5 12.5 q-41 0 -80.5 -5.5 q-39.5 -5.5 -61.5 -14.5 l83 78 q-6 -23 -11.5 -58 q-5.5 -35 -9.5 -74.5 q-4 -39.5 -4 -77.5 q0 -35 3.5 -73 q3.5 -38 8 -67 q4.5 -29 7.5 -40 l-127 -35 q-4 14 -10 46 q-6 32 -10.5 76 q-4.5 44 -4.5 93 q0 50 5 96.5 q5 46.5 11.5 84 q6.5 37.5 12.5 60.5 q24 9 75 18 q51 9 113 9 q90 0 149.5 -25 q59.5 -25 89 -81 q29.5 -56 29.5 -151 l0 -247 l-591 0 ZM0 0 q-12 0 -16 16 q-4 16 -4 42 q0 27 4 42.5 q4 15.5 16 15.5 l0 -116 Z" /><glyph glyph-name="uni06BA" unicode="&#x6ba;" d="M342 -248 q-87 0 -155.5 31.5 q-68.5 31.5 -107.5 87.5 q-39 56 -39 127 q0 20 3 53 q3 33 8.5 74 q5.5 41 12 83.5 q6.5 42.5 12.5 82.5 l132 -18 q-11 -67 -18.5 -122.5 q-7.5 -55.5 -11.5 -94.5 q-4 -39 -4 -57 q0 -40 20 -69 q20 -29 57.5 -45.5 q37.5 -16.5 90.5 -16.5 q55 0 89 16 q34 16 49.5 44 q15.5 28 15.5 63 l0 511 l134 0 l0 -511 q0 -72 -37.5 -126 q-37.5 -54 -102.5 -83.5 q-65 -29.5 -148 -29.5 Z" /><glyph glyph-name="uniFB9F" unicode="&#xfb9f;" d="M630 0 l0 116 l105 0 l0 -116 l-105 0 ZM342 -248 q-87 0 -155.5 31.5 q-68.5 31.5 -107.5 87.5 q-39 56 -39 127 q0 20 3 53 q3 33 8.5 74 q5.5 41 12 83.5 q6.5 42.5 12.5 82.5 l132 -18 q-11 -67 -18.5 -122.5 q-7.5 -55.5 -11.5 -94.5 q-4 -39 -4 -57 q0 -40 20 -69 q20 -29 57.5 -45.5 q37.5 -16.5 90.5 -16.5 q55 0 89 16 q34 16 49.5 44 q15.5 28 15.5 63 l0 511 l134 0 l0 -511 q0 -72 -37.5 -126 q-37.5 -54 -102.5 -83.5 q-65 -29.5 -148 -29.5 ZM735 0 l0 116 q12 0 16 -15.5 q4 -15.5 4 -42.5 q0 -26 -4 -42 q-4 -16 -16 -16 Z" /><glyph glyph-name="uni0647" unicode="&#x647;" d="M40 0 l0 227 q0 99 31 159.5 q31 60.5 92 88 q61 27.5 150 27.5 q90 0 151 -27.5 q61 -27.5 92 -88 q31 -60.5 31 -159.5 l0 -227 l-547 0 ZM174 56 l-64 60 l407 0 l-63 -60 l0 168 q0 60 -12 95.5 q-12 35.5 -42.5 51 q-30.5 15.5 -86.5 15.5 q-55 0 -85.5 -15.5 q-30.5 -15.5 -42 -51 q-11.5 -35.5 -11.5 -95.5 l0 -168 Z" /><glyph glyph-name="uniFEEA" unicode="&#xfeea;" d="M288 0 q-85 0 -140 27 q-55 27 -81.5 82 q-26.5 55 -26.5 139 q0 84 26.5 140.5 q26.5 56.5 81.5 85 q55 28.5 140 28.5 l226 0 l0 -439 l-134 0 l0 352 l33 -29 l-125 0 q-41 0 -66 -9.5 q-25 -9.5 -36.5 -39 q-11.5 -29.5 -11.5 -89.5 q0 -57 10.5 -85.5 q10.5 -28.5 35.5 -37.5 q25 -9 68 -9 l331 0 l0 -116 l-331 0 ZM619 0 l0 116 q12 0 16 -15.5 q4 -15.5 4 -42.5 q0 -26 -4 -42 q-4 -16 -16 -16 Z" /><glyph glyph-name="uniFEEC" unicode="&#xfeec;" d="M0 0 l0 116 l521 0 l-73 -71 l0 202 q0 53 -12 83 q-12 30 -41 43 q-29 13 -80 13 q-43 0 -82.5 -5.5 q-39.5 -5.5 -62.5 -14.5 l83 78 q-6 -23 -11 -57.5 q-5 -34.5 -9 -74.5 q-4 -40 -4 -77 q0 -36 3.5 -73 q3.5 -37 8.5 -66 q5 -29 7 -40 l-127 -35 q-4 14 -10.5 46.5 q-6.5 32.5 -10.5 75.5 q-4 43 -4 92 q0 74 10 140 q10 66 19 100 q23 9 74.5 18 q51.5 9 113.5 9 q134 0 201 -57.5 q67 -57.5 67 -198.5 l0 -246 l-581 0 ZM313 -265 q-62 0 -113.5 7 q-51.5 7 -74.5 13 q-9 26 -19 76 q-10 50 -10 106 q0 54 9 99 q9 45 16 62 l124 -42 q-3 -7 -6.5 -28 q-3.5 -21 -6.5 -46.5 q-3 -25.5 -3 -45.5 q0 -23 3 -50 q3 -27 8.5 -52 q5.5 -25 11.5 -42 l-86 75 q22 -7 63.5 -11.5 q41.5 -4.5 85.5 -4.5 q53 0 82 7.5 q29 7.5 40 26 q11 18.5 11 49.5 l0 182 l133 0 l0 -187 q0 -107 -67 -150.5 q-67 -43.5 -201 -43.5 ZM581 0 l0 116 l105 0 l0 -116 l-105 0 ZM686 0 l0 116 q12 0 16 -15.5 q4 -15.5 4 -42.5 q0 -26 -4 -42 q-4 -16 -16 -16 ZM0 0 q-12 0 -16 16 q-4 16 -4 42 q0 27 4 42.5 q4 15.5 16 15.5 l0 -116 Z" /><glyph glyph-name="uniFEEB" unicode="&#xfeeb;" d="M0 0 l0 116 l694 0 l-93 -75 l0 171 q0 86 -22.5 138 q-22.5 52 -71 75.5 q-48.5 23.5 -125.5 23.5 q-37 0 -81 -2.5 q-44 -2.5 -87.5 -6 q-43.5 -3.5 -78.5 -7.5 l-14 90 q34 9 79 19 q45 10 94.5 17 q49.5 7 96.5 7 q65 0 126.5 -17.5 q61.5 -17.5 110.5 -58 q49 -40.5 78 -108.5 q29 -68 29 -170 l0 -212 l-735 0 ZM103 116 l0 50 q0 48 24.5 89.5 q24.5 41.5 67.5 66 q43 24.5 96 24.5 q53 0 95 -24.5 q42 -24.5 66.5 -65.5 q24.5 -41 24.5 -90 l0 -50 l-106 0 l0 50 q0 25 -11 44.5 q-11 19.5 -29 31.5 q-18 12 -40 12 q-22 0 -40.5 -12 q-18.5 -12 -29.5 -31.5 q-11 -19.5 -11 -44.5 l0 -50 l-107 0 ZM0 0 q-12 0 -16 16 q-4 16 -4 42 q0 27 4 42.5 q4 15.5 16 15.5 l0 -116 Z" /><glyph glyph-name="uniFBA7" unicode="&#xfba7;" d="M40 0 l0 251 q0 84 27 140 q27 56 82.5 83.5 q55.5 27.5 138.5 27.5 l226 0 l0 -415 l-31 29 l129 0 l0 -116 l-232 0 l0 453 l63 -67 l-155 0 q-46 0 -71 -10.5 q-25 -10.5 -34 -40 q-9 -29.5 -9 -84.5 l0 -251 l-134 0 ZM612 0 l0 116 q11 0 15.5 -15.5 q4.5 -15.5 4.5 -42.5 q0 -26 -4.5 -42 q-4.5 -16 -15.5 -16 Z" /><glyph glyph-name="uniFBA9" unicode="&#xfba9;" d="M552 -302 q-45 -7 -88.5 -10.5 q-43.5 -3.5 -79.5 -3.5 q-74 0 -126 17.5 q-52 17.5 -83.5 60 q-31.5 42.5 -46 114 q-14.5 71.5 -15.5 178.5 l60 -54 l-173 0 l0 116 l246 0 q3 -99 10 -161.5 q7 -62.5 21.5 -96 q14.5 -33.5 40 -46 q25.5 -12.5 63.5 -12.5 q13 0 32.5 1.5 q19.5 1.5 59.5 5.5 l-54 -70 l0 379 l246 0 l0 -116 l-173 0 l60 60 l0 -362 ZM665 0 l0 116 q12 0 16 -15.5 q4 -15.5 4 -42.5 q0 -26 -4 -42 q-4 -16 -16 -16 ZM0 0 q-12 0 -16 16 q-4 16 -4 42 q0 27 4 42.5 q4 15.5 16 15.5 l0 -116 Z" /><glyph glyph-name="uniFBA8" unicode="&#xfba8;" d="M41 -224 l62 242 l112 0 l-34 -242 l-140 0 ZM0 0 l0 116 l237 0 l-78 -65 l0 451 l133 0 l0 -502 l-292 0 ZM0 0 q-12 0 -16 16 q-4 16 -4 42 q0 27 4 42.5 q4 15.5 16 15.5 l0 -116 Z" /><glyph glyph-name="uni06BE" unicode="&#x6be;" d="M40 0 l0 116 l659 0 l-93 -75 l0 171 q0 86 -22.5 138 q-22.5 52 -70.5 75.5 q-48 23.5 -125 23.5 q-32 0 -68 -1.5 q-36 -1.5 -73 -4 q-37 -2.5 -70 -5.5 q-33 -3 -59 -6 l32 -53 l-24 144 q35 9 79.5 19 q44.5 10 94.5 17 q50 7 97 7 q64 0 125.5 -17.5 q61.5 -17.5 110.5 -58 q49 -40.5 78 -108.5 q29 -68 29 -170 l0 -212 l-700 0 ZM108 116 l0 50 q0 48 25 89.5 q25 41.5 68 66 q43 24.5 95 24.5 q53 0 95 -24.5 q42 -24.5 67 -65.5 q25 -41 25 -90 l0 -50 l-107 0 l0 50 q0 25 -10.5 44.5 q-10.5 19.5 -29 31.5 q-18.5 12 -40.5 12 q-21 0 -39.5 -12 q-18.5 -12 -30 -31.5 q-11.5 -19.5 -11.5 -44.5 l0 -50 l-107 0 Z" /><glyph glyph-name="uniFBAB" unicode="&#xfbab;" d="M740 0 l0 116 l105 0 l0 -116 l-105 0 ZM40 0 l0 116 l659 0 l-93 -75 l0 171 q0 86 -22.5 138 q-22.5 52 -70.5 75.5 q-48 23.5 -125 23.5 q-32 0 -68 -1.5 q-36 -1.5 -73 -4 q-37 -2.5 -70 -5.5 q-33 -3 -59 -6 l32 -53 l-24 144 q35 9 79.5 19 q44.5 10 94.5 17 q50 7 97 7 q64 0 125.5 -17.5 q61.5 -17.5 110.5 -58 q49 -40.5 78 -108.5 q29 -68 29 -170 l0 -212 l-700 0 ZM108 116 l0 50 q0 48 25 89.5 q25 41.5 68 66 q43 24.5 95 24.5 q53 0 95 -24.5 q42 -24.5 67 -65.5 q25 -41 25 -90 l0 -50 l-107 0 l0 50 q0 25 -10.5 44.5 q-10.5 19.5 -29 31.5 q-18.5 12 -40.5 12 q-21 0 -39.5 -12 q-18.5 -12 -30 -31.5 q-11.5 -19.5 -11.5 -44.5 l0 -50 l-107 0 ZM845 0 l0 116 q12 0 16 -15.5 q4 -15.5 4 -42.5 q0 -26 -4 -42 q-4 -16 -16 -16 Z" /><glyph glyph-name="uniFBAD" unicode="&#xfbad;" d="M0 0 l0 116 l37 0 l0 -116 l-37 0 ZM737 0 l0 116 l105 0 l0 -116 l-105 0 ZM37 0 l0 116 l659 0 l-93 -75 l0 171 q0 86 -23 138 q-23 52 -71 75.5 q-48 23.5 -125 23.5 q-31 0 -67.5 -1.5 q-36.5 -1.5 -73 -4 q-36.5 -2.5 -69.5 -5.5 q-33 -3 -59 -6 l32 -53 l-24 144 q34 9 79 19 q45 10 94.5 17 q49.5 7 96.5 7 q65 0 126.5 -17.5 q61.5 -17.5 110.5 -58 q49 -40.5 78 -108.5 q29 -68 29 -170 l0 -212 l-700 0 ZM105 116 l0 50 q0 48 25 89.5 q25 41.5 67.5 66 q42.5 24.5 95.5 24.5 q53 0 95 -24.5 q42 -24.5 66.5 -65.5 q24.5 -41 24.5 -90 l0 -50 l-106 0 l0 50 q0 25 -11 44.5 q-11 19.5 -29 31.5 q-18 12 -40 12 q-22 0 -40.5 -12 q-18.5 -12 -29.5 -31.5 q-11 -19.5 -11 -44.5 l0 -50 l-107 0 ZM842 0 l0 116 q12 0 16 -15.5 q4 -15.5 4 -42.5 q0 -26 -4 -42 q-4 -16 -16 -16 ZM0 0 q-12 0 -16 16 q-4 16 -4 42 q0 27 4 42.5 q4 15.5 16 15.5 l0 -116 Z" /><glyph glyph-name="uni0648" unicode="&#x648;" d="M244 -248 q-37 0 -77.5 5.5 q-40.5 5.5 -86.5 14.5 l20 107 q50 -6 85 -9 q35 -3 59 -3 q72 0 104 26 q32 26 32 78 l0 439 l33 -24 l-125 0 q-41 0 -66 -9.5 q-25 -9.5 -36.5 -39 q-11.5 -29.5 -11.5 -89.5 q0 -57 10.5 -85.5 q10.5 -28.5 35.5 -37.5 q25 -9 68 -9 l92 0 l0 -116 l-92 0 q-85 0 -140 27 q-55 27 -81.5 82 q-26.5 55 -26.5 139 q0 84 26.5 140.5 q26.5 56.5 81.5 85 q55 28.5 140 28.5 l226 0 l0 -531 q0 -68 -33.5 -117.5 q-33.5 -49.5 -94 -75.5 q-60.5 -26 -142.5 -26 Z" /><glyph glyph-name="uniFEEE" unicode="&#xfeee;" d="M514 0 l0 116 l105 0 l0 -116 l-105 0 ZM244 -248 q-37 0 -77.5 5.5 q-40.5 5.5 -86.5 14.5 l20 107 q50 -6 85 -9 q35 -3 59 -3 q72 0 104 26 q32 26 32 78 l0 439 l33 -24 l-125 0 q-41 0 -66 -9.5 q-25 -9.5 -36.5 -39 q-11.5 -29.5 -11.5 -89.5 q0 -57 10.5 -85.5 q10.5 -28.5 35.5 -37.5 q25 -9 68 -9 l92 0 l0 -116 l-92 0 q-85 0 -140 27 q-55 27 -81.5 82 q-26.5 55 -26.5 139 q0 84 26.5 140.5 q26.5 56.5 81.5 85 q55 28.5 140 28.5 l226 0 l0 -531 q0 -68 -33.5 -117.5 q-33.5 -49.5 -94 -75.5 q-60.5 -26 -142.5 -26 ZM619 0 l0 116 q12 0 16 -15.5 q4 -15.5 4 -42.5 q0 -26 -4 -42 q-4 -16 -16 -16 Z" /><glyph glyph-name="uni0649" unicode="&#x649;" d="M345 -248 q-65 0 -120.5 18.5 q-55.5 18.5 -96.5 51 q-41 32.5 -64.5 77 q-23.5 44.5 -23.5 96.5 q0 19 3 49 q3 30 8.5 69 q5.5 39 12.5 83 l132 -18 q-10 -63 -16 -112 q-6 -49 -6 -69 q0 -38 21 -67 q21 -29 59.5 -45.5 q38.5 -16.5 90.5 -16.5 l283 0 q65 0 97 32.5 q32 32.5 32 98.5 q0 33 -11 51.5 q-11 18.5 -39 32 q-28 13.5 -81 29.5 q-60 19 -105 36 q-45 17 -74 37.5 q-29 20.5 -43.5 49.5 q-14.5 29 -14.5 73 q0 66 29 108.5 q29 42.5 83 64 q54 21.5 128 21.5 q34 0 81 -5 q47 -5 125 -16 l-15 -111 q-72 8 -118 12 q-46 4 -78 4 q-55 0 -78.5 -17.5 q-23.5 -17.5 -23.5 -53.5 q0 -27 18.5 -43.5 q18.5 -16.5 51.5 -26.5 q33 -10 74 -23 q73 -22 123 -49 q50 -27 75.5 -68.5 q25.5 -41.5 25.5 -107.5 q0 -72 -32 -127 q-32 -55 -90.5 -86.5 q-58.5 -31.5 -139.5 -31.5 l-283 0 Z" /><glyph glyph-name="uniFEF0" unicode="&#xfef0;" d="M345 -248 q-65 0 -120.5 18.5 q-55.5 18.5 -96.5 51 q-41 32.5 -64.5 77 q-23.5 44.5 -23.5 96.5 q0 19 3 49 q3 30 8.5 69 q5.5 39 12.5 83 l132 -18 q-10 -63 -16 -112 q-6 -49 -6 -69 q0 -38 21 -67 q21 -29 59.5 -45.5 q38.5 -16.5 90.5 -16.5 l283 0 q65 0 97 33 q32 33 32 96 l0 38 l133 0 l0 -38 q0 -72 -32 -127 q-32 -55 -90.5 -86.5 q-58.5 -31.5 -139.5 -31.5 l-283 0 ZM713 0 q-46 0 -88.5 10 q-42.5 10 -80.5 36 l76 96 q16 -11 28.5 -16.5 q12.5 -5.5 28 -7.5 q15.5 -2 36.5 -2 l221 0 l0 -116 l-221 0 ZM934 0 l0 116 q11 0 15.5 -15.5 q4.5 -15.5 4.5 -42.5 q0 -26 -4.5 -42 q-4.5 -16 -15.5 -16 Z" /><glyph glyph-name="uni06D2" unicode="&#x6d2;" d="M314 -244 q-134 0 -204 55 q-70 55 -70 162 l0 67 l91 76 l311 0 q51 0 80.5 12 q29.5 12 41 40 q11.5 28 11.5 77 l0 131 l133 0 l0 -131 q0 -52 -13 -96.5 q-13 -44.5 -43.5 -78 q-30.5 -33.5 -82 -52 q-51.5 -18.5 -127.5 -18.5 l-327 0 l59 57 l0 -84 q0 -35 10.5 -55 q10.5 -20 29.5 -30 q19 -10 44.5 -13 q25.5 -3 55.5 -3 l317 0 l0 -116 l-317 0 Z" /><glyph glyph-name="uniFBAF" unicode="&#xfbaf;" d="M314 -244 q-134 0 -204 55 q-70 55 -70 162 l0 67 l91 76 l604 0 l0 -116 l-620 0 l59 57 l0 -84 q0 -35 10.5 -55 q10.5 -20 29.5 -30 q19 -10 44.5 -13 q25.5 -3 55.5 -3 l317 0 l0 -116 l-317 0 ZM735 0 l0 116 q12 0 16 -15.5 q4 -15.5 4 -42.5 q0 -26 -4 -42 q-4 -16 -16 -16 Z" /><glyph glyph-name="uni0640" unicode="&#x640;" d="M0 0 l0 116 l250 0 l0 -116 l-250 0 ZM250 0 l0 116 q12 0 16 -15.5 q4 -15.5 4 -42.5 q0 -26 -4 -42 q-4 -16 -16 -16 ZM0 0 q-12 0 -16 16 q-4 16 -4 42 q0 27 4 42.5 q4 15.5 16 15.5 l0 -116 Z" /><glyph glyph-name="uniFEFB" unicode="&#xfefb;" d="M40 0 l0 116 l508 0 l-64 -66 l0 657 l134 0 l0 -707 l-578 0 ZM179 116 l0 451 l133 0 l0 -451 l-133 0 Z" /><glyph glyph-name="uniFEFC" unicode="&#xfefc;" d="M618 0 l0 116 l105 0 l0 -116 l-105 0 ZM40 0 l0 116 l508 0 l-64 -66 l0 657 l134 0 l0 -707 l-578 0 ZM179 116 l0 451 l133 0 l0 -451 l-133 0 ZM723 0 l0 116 q12 0 16 -15.5 q4 -15.5 4 -42.5 q0 -26 -4 -42 q-4 -16 -16 -16 Z" /><glyph glyph-name="uniFD0E" unicode="&#xfd0e;" d="M938 0 q-41 0 -81 15.5 q-40 15.5 -75 46.5 l83 85 q19 -16 37 -23.5 q18 -7.5 36 -7.5 l188 0 l-70 -63 l0 222 q0 16 -3.5 48.5 q-3.5 32.5 -9.5 74 q-6 41.5 -15 84.5 l131 20 q7 -36 14 -80.5 q7 -44.5 11.5 -84 q4.5 -39.5 4.5 -62.5 l0 -275 l-251 0 ZM256 286 l0 117 l210 0 l0 -117 l-210 0 ZM466 0 l0 502 l134 0 l0 -502 l-134 0 ZM600 0 l0 116 l81 0 q32 0 49 9.5 q17 9.5 24 39 q7 29.5 7 88.5 l0 197 l134 0 l0 -197 q0 -89 -23 -145 q-23 -56 -70 -82 q-47 -26 -121 -26 l-81 0 ZM38 -248 q-13 0 -28 1 q-15 1 -31 3 l5 114 q16 -1 30.5 -2 q14.5 -1 21.5 -1 q39 0 62.5 31 q23.5 31 23.5 87 l0 517 l134 0 l0 -517 q0 -68 -27.5 -121 q-27.5 -53 -76.5 -82.5 q-49 -29.5 -114 -29.5 Z" /><glyph glyph-name="uniFD2A" unicode="&#xfd2a;" d="M1163 0 l0 116 l106 0 l0 -116 l-106 0 ZM1269 0 l0 116 q11 0 15.5 -15.5 q4.5 -15.5 4.5 -42.5 q0 -26 -4.5 -42 q-4.5 -16 -15.5 -16 ZM938 0 q-41 0 -81 15.5 q-40 15.5 -75 46.5 l83 85 q19 -16 37 -23.5 q18 -7.5 36 -7.5 l188 0 l-70 -63 l0 222 q0 16 -3.5 48.5 q-3.5 32.5 -9.5 74 q-6 41.5 -15 84.5 l131 20 q7 -36 14 -80.5 q7 -44.5 11.5 -84 q4.5 -39.5 4.5 -62.5 l0 -275 l-251 0 ZM256 286 l0 117 l210 0 l0 -117 l-210 0 ZM466 0 l0 502 l134 0 l0 -502 l-134 0 ZM600 0 l0 116 l81 0 q32 0 49 9.5 q17 9.5 24 39 q7 29.5 7 88.5 l0 197 l134 0 l0 -197 q0 -89 -23 -145 q-23 -56 -70 -82 q-47 -26 -121 -26 l-81 0 ZM38 -248 q-13 0 -28 1 q-15 1 -31 3 l5 114 q16 -1 30.5 -2 q14.5 -1 21.5 -1 q39 0 62.5 31 q23.5 31 23.5 87 l0 517 l134 0 l0 -517 q0 -68 -27.5 -121 q-27.5 -53 -76.5 -82.5 q-49 -29.5 -114 -29.5 Z" /><glyph glyph-name="uniFCFB" unicode="&#xfcfb;" d="M345 -248 q-65 0 -120.5 18.5 q-55.5 18.5 -96.5 51 q-41 32.5 -64.5 77 q-23.5 44.5 -23.5 96.5 q0 19 3 49 q3 30 8.5 69 q5.5 39 12.5 83 l132 -18 q-10 -63 -16 -112 q-6 -49 -6 -69 q0 -38 21 -67 q21 -29 59.5 -45.5 q38.5 -16.5 90.5 -16.5 l283 0 q65 0 97 32.5 q32 32.5 32 98.5 q0 33 -11 51.5 q-11 18.5 -39 32 q-28 13.5 -81 29.5 q-60 19 -105 36 q-45 17 -74 37.5 q-29 20.5 -43.5 49.5 q-14.5 29 -14.5 73 q0 66 29 108.5 q29 42.5 83 64 q54 21.5 128 21.5 l-5 -116 q-55 0 -78.5 -17.5 q-23.5 -17.5 -23.5 -53.5 q0 -27 18.5 -43.5 q18.5 -16.5 51.5 -26.5 q33 -10 74 -23 q73 -22 123 -49 q50 -27 75.5 -68.5 q25.5 -41.5 25.5 -107.5 q0 -72 -32 -127 q-32 -55 -90.5 -86.5 q-58.5 -31.5 -139.5 -31.5 l-283 0 ZM624 386 l5 116 l335 0 l0 -116 l-340 0 ZM964 0 l0 502 l133 0 l0 -502 l-133 0 ZM1097 0 l0 116 l81 0 q32 0 49.5 9.5 q17.5 9.5 24 39 q6.5 29.5 6.5 88.5 l0 197 l134 0 l0 -197 q0 -89 -23 -145 q-23 -56 -70 -82 q-47 -26 -121 -26 l-81 0 ZM1435 0 q-41 0 -81 15.5 q-40 15.5 -75 46.5 l83 85 q19 -16 37 -23.5 q18 -7.5 36 -7.5 l188 0 l-70 -63 l0 222 q0 16 -3.5 48.5 q-3.5 32.5 -10 74 q-6.5 41.5 -14.5 84.5 l131 20 q7 -36 14 -80.5 q7 -44.5 11.5 -84 q4.5 -39.5 4.5 -62.5 l0 -275 l-251 0 Z" /><glyph glyph-name="uniFD17" unicode="&#xfd17;" d="M1686 0 l0 116 l106 0 l0 -116 l-106 0 ZM345 -248 q-65 0 -120.5 18.5 q-55.5 18.5 -96.5 51 q-41 32.5 -64.5 77 q-23.5 44.5 -23.5 96.5 q0 19 3 49 q3 30 8.5 69 q5.5 39 12.5 83 l132 -18 q-10 -63 -16 -112 q-6 -49 -6 -69 q0 -38 21 -67 q21 -29 59.5 -45.5 q38.5 -16.5 90.5 -16.5 l283 0 q65 0 97 32.5 q32 32.5 32 98.5 q0 33 -11 51.5 q-11 18.5 -39 32 q-28 13.5 -81 29.5 q-60 19 -105 36 q-45 17 -74 37.5 q-29 20.5 -43.5 49.5 q-14.5 29 -14.5 73 q0 66 29 108.5 q29 42.5 83 64 q54 21.5 128 21.5 l-5 -116 q-55 0 -78.5 -17.5 q-23.5 -17.5 -23.5 -53.5 q0 -27 18.5 -43.5 q18.5 -16.5 51.5 -26.5 q33 -10 74 -23 q73 -22 123 -49 q50 -27 75.5 -68.5 q25.5 -41.5 25.5 -107.5 q0 -72 -32 -127 q-32 -55 -90.5 -86.5 q-58.5 -31.5 -139.5 -31.5 l-283 0 ZM624 386 l5 116 l335 0 l0 -116 l-340 0 ZM964 0 l0 502 l133 0 l0 -502 l-133 0 ZM1097 0 l0 116 l81 0 q32 0 49.5 9.5 q17.5 9.5 24 39 q6.5 29.5 6.5 88.5 l0 197 l134 0 l0 -197 q0 -89 -23 -145 q-23 -56 -70 -82 q-47 -26 -121 -26 l-81 0 ZM1435 0 q-41 0 -81 15.5 q-40 15.5 -75 46.5 l83 85 q19 -16 37 -23.5 q18 -7.5 36 -7.5 l188 0 l-70 -63 l0 222 q0 16 -3.5 48.5 q-3.5 32.5 -10 74 q-6.5 41.5 -14.5 84.5 l131 20 q7 -36 14 -80.5 q7 -44.5 11.5 -84 q4.5 -39.5 4.5 -62.5 l0 -275 l-251 0 ZM1792 0 l0 116 q12 0 16 -15.5 q4 -15.5 4 -42.5 q0 -26 -4 -42 q-4 -16 -16 -16 Z" /><glyph glyph-name="uniFD0F" unicode="&#xfd0f;" d="M600 0 l0 116 l496 0 l-113 -98 l0 210 q0 57 -15 91.5 q-15 34.5 -43 50.5 q-28 16 -69 16 q-43 0 -81.5 -17 q-38.5 -17 -71.5 -44 q-33 -27 -61 -58 q-28 -31 -50 -59.5 q-22 -28.5 -38 -48.5 l-30 97 q38 47 68.5 86 q30.5 39 59.5 69 q29 30 60.5 50 q31.5 20 69.5 30.5 q38 10.5 88 10.5 q67 0 114 -22.5 q47 -22.5 76.5 -61.5 q29.5 -39 43 -88 q13.5 -49 13.5 -102 l0 -228 l-517 0 ZM256 286 l0 117 l210 0 l0 -117 l-210 0 ZM466 0 l0 502 l134 0 l0 -502 l-134 0 ZM38 -248 q-13 0 -28 1 q-15 1 -31 3 l5 114 q16 -1 30.5 -2 q14.5 -1 21.5 -1 q39 0 62.5 31 q23.5 31 23.5 87 l0 517 l134 0 l0 -517 q0 -68 -27.5 -121 q-27.5 -53 -76.5 -82.5 q-49 -29.5 -114 -29.5 Z" /><glyph glyph-name="uniFD2B" unicode="&#xfd2b;" d="M1090 0 l0 116 l105 0 l0 -116 l-105 0 ZM1195 0 l0 116 q12 0 16 -15.5 q4 -15.5 4 -42.5 q0 -26 -4 -42 q-4 -16 -16 -16 ZM600 0 l0 116 l496 0 l-113 -98 l0 210 q0 57 -15 91.5 q-15 34.5 -43 50.5 q-28 16 -69 16 q-43 0 -81.5 -17 q-38.5 -17 -71.5 -44 q-33 -27 -61 -58 q-28 -31 -50 -59.5 q-22 -28.5 -38 -48.5 l-30 97 q38 47 68.5 86 q30.5 39 59.5 69 q29 30 60.5 50 q31.5 20 69.5 30.5 q38 10.5 88 10.5 q67 0 114 -22.5 q47 -22.5 76.5 -61.5 q29.5 -39 43 -88 q13.5 -49 13.5 -102 l0 -228 l-517 0 ZM256 286 l0 117 l210 0 l0 -117 l-210 0 ZM466 0 l0 502 l134 0 l0 -502 l-134 0 ZM38 -248 q-13 0 -28 1 q-15 1 -31 3 l5 114 q16 -1 30.5 -2 q14.5 -1 21.5 -1 q39 0 62.5 31 q23.5 31 23.5 87 l0 517 l134 0 l0 -517 q0 -68 -27.5 -121 q-27.5 -53 -76.5 -82.5 q-49 -29.5 -114 -29.5 Z" /><glyph glyph-name="uniFD05" unicode="&#xfd05;" d="M345 -248 q-65 0 -120.5 18.5 q-55.5 18.5 -96.5 51 q-41 32.5 -64.5 77 q-23.5 44.5 -23.5 96.5 q0 19 3 49 q3 30 8.5 69 q5.5 39 12.5 83 l132 -18 q-10 -63 -16 -112 q-6 -49 -6 -69 q0 -38 21 -67 q21 -29 59.5 -45.5 q38.5 -16.5 90.5 -16.5 l283 0 q65 0 97 32.5 q32 32.5 32 98.5 q0 33 -11 51.5 q-11 18.5 -39 32 q-28 13.5 -81 29.5 q-60 19 -105 36 q-45 17 -74 37.5 q-29 20.5 -43.5 49.5 q-14.5 29 -14.5 73 q0 66 29 108.5 q29 42.5 83 64 q54 21.5 128 21.5 l-5 -116 q-55 0 -78.5 -17.5 q-23.5 -17.5 -23.5 -53.5 q0 -27 18.5 -43.5 q18.5 -16.5 51.5 -26.5 q33 -10 74 -23 q73 -22 123 -49 q50 -27 75.5 -68.5 q25.5 -41.5 25.5 -107.5 q0 -72 -32 -127 q-32 -55 -90.5 -86.5 q-58.5 -31.5 -139.5 -31.5 l-283 0 ZM624 386 l5 116 l335 0 l0 -116 l-340 0 ZM964 0 l0 502 l133 0 l0 -502 l-133 0 ZM1097 0 l0 116 l496 0 l-113 -98 l0 210 q0 57 -15 91.5 q-15 34.5 -43.5 50.5 q-28.5 16 -68.5 16 q-43 0 -81.5 -17 q-38.5 -17 -71.5 -44 q-33 -27 -61 -58 q-28 -31 -50 -59.5 q-22 -28.5 -38 -48.5 l-30 97 q39 47 70 86 q31 39 60 69 q29 30 60 50 q31 20 68.5 30.5 q37.5 10.5 87.5 10.5 q67 0 114 -22.5 q47 -22.5 76.5 -61.5 q29.5 -39 43 -88 q13.5 -49 13.5 -102 l0 -228 l-517 0 Z" /><glyph glyph-name="uniFD21" unicode="&#xfd21;" d="M1614 0 l0 116 l105 0 l0 -116 l-105 0 ZM345 -248 q-65 0 -120.5 18.5 q-55.5 18.5 -96.5 51 q-41 32.5 -64.5 77 q-23.5 44.5 -23.5 96.5 q0 19 3 49 q3 30 8.5 69 q5.5 39 12.5 83 l132 -18 q-10 -63 -16 -112 q-6 -49 -6 -69 q0 -38 21 -67 q21 -29 59.5 -45.5 q38.5 -16.5 90.5 -16.5 l283 0 q65 0 97 32.5 q32 32.5 32 98.5 q0 33 -11 51.5 q-11 18.5 -39 32 q-28 13.5 -81 29.5 q-60 19 -105 36 q-45 17 -74 37.5 q-29 20.5 -43.5 49.5 q-14.5 29 -14.5 73 q0 66 29 108.5 q29 42.5 83 64 q54 21.5 128 21.5 l-5 -116 q-55 0 -78.5 -17.5 q-23.5 -17.5 -23.5 -53.5 q0 -27 18.5 -43.5 q18.5 -16.5 51.5 -26.5 q33 -10 74 -23 q73 -22 123 -49 q50 -27 75.5 -68.5 q25.5 -41.5 25.5 -107.5 q0 -72 -32 -127 q-32 -55 -90.5 -86.5 q-58.5 -31.5 -139.5 -31.5 l-283 0 ZM624 386 l5 116 l335 0 l0 -116 l-340 0 ZM964 0 l0 502 l133 0 l0 -502 l-133 0 ZM1097 0 l0 116 l496 0 l-113 -98 l0 210 q0 57 -15 91.5 q-15 34.5 -43.5 50.5 q-28.5 16 -68.5 16 q-43 0 -81.5 -17 q-38.5 -17 -71.5 -44 q-33 -27 -61 -58 q-28 -31 -50 -59.5 q-22 -28.5 -38 -48.5 l-30 97 q39 47 70 86 q31 39 60 69 q29 30 60 50 q31 20 68.5 30.5 q37.5 10.5 87.5 10.5 q67 0 114 -22.5 q47 -22.5 76.5 -61.5 q29.5 -39 43 -88 q13.5 -49 13.5 -102 l0 -228 l-517 0 ZM1719 0 l0 116 q12 0 16 -15.5 q4 -15.5 4 -42.5 q0 -26 -4 -42 q-4 -16 -16 -16 Z" /><glyph glyph-name="uniFC86" unicode="&#xfc86;" d="M1039 0 l0 116 l106 0 l0 -116 l-106 0 ZM906 0 l0 707 l133 0 l0 -707 l-133 0 ZM792 0 l0 116 l114 0 l0 -116 l-114 0 ZM792 0 q-12 0 -16 16 q-4 16 -4 42 q0 27 4 42.5 q4 15.5 16 15.5 l0 -116 ZM345 -248 q-65 0 -120.5 18.5 q-55.5 18.5 -96.5 51 q-41 32.5 -64.5 77 q-23.5 44.5 -23.5 96.5 q0 19 3 49 q3 30 8.5 69 q5.5 39 12.5 83 l132 -18 q-10 -63 -16 -112 q-6 -49 -6 -69 q0 -38 21 -67 q21 -29 59.5 -45.5 q38.5 -16.5 90.5 -16.5 l283 0 q65 0 97 33 q32 33 32 96 l0 38 l133 0 l0 -38 q0 -72 -32 -127 q-32 -55 -90.5 -86.5 q-58.5 -31.5 -139.5 -31.5 l-283 0 ZM713 0 q-46 0 -88.5 10 q-42.5 10 -80.5 36 l76 96 q16 -11 28.5 -16.5 q12.5 -5.5 28 -7.5 q15.5 -2 36.5 -2 l221 0 l0 -116 l-221 0 ZM934 0 l0 116 q11 0 15.5 -15.5 q4.5 -15.5 4.5 -42.5 q0 -26 -4.5 -42 q-4.5 -16 -15.5 -16 ZM1145 0 l0 116 q12 0 16 -15.5 q4 -15.5 4 -42.5 q0 -26 -4 -42 q-4 -16 -16 -16 Z" /><glyph glyph-name="uniFDF2" unicode="&#xfdf2;" d="M698 0 l0 613 l133 0 l0 -613 l-133 0 ZM592 0 l0 116 l106 0 l0 -116 l-106 0 ZM831 0 l0 116 l98 0 l0 -116 l-98 0 ZM1287 0 l0 707 l133 0 l0 -707 l-133 0 ZM619 0 l0 116 q12 0 16 -15.5 q4 -15.5 4 -42.5 q0 -26 -4 -42 q-4 -16 -16 -16 ZM288 0 q-85 0 -140 27 q-55 27 -81.5 82 q-26.5 55 -26.5 139 q0 84 26.5 140.5 q26.5 56.5 81.5 85 q55 28.5 140 28.5 l226 0 l0 -439 l-134 0 l0 352 l33 -29 l-125 0 q-41 0 -66 -9.5 q-25 -9.5 -36.5 -39 q-11.5 -29.5 -11.5 -89.5 q0 -57 10.5 -85.5 q10.5 -28.5 35.5 -37.5 q25 -9 68 -9 l331 0 l0 -116 l-331 0 ZM900 0 q-12 0 -16 16 q-4 16 -4 42 q0 27 4 42.5 q4 15.5 16 15.5 l0 -116 ZM1013 0 l0 707 l134 0 l0 -707 l-134 0 ZM900 0 l0 116 l113 0 l0 -116 l-113 0 Z" /><glyph glyph-name="zero" unicode="0" d="M278 -11 q-64 0 -111 17.5 q-47 17.5 -77.5 57 q-30.5 39.5 -46 103.5 q-15.5 64 -15.5 157 q0 96 15.5 163 q15.5 67 46.5 107.5 q31 40.5 77.5 58.5 q46.5 18 109.5 18 q65 0 112 -18 q47 -18 77.5 -58.5 q30.5 -40.5 45 -107 q14.5 -66.5 14.5 -163.5 q0 -123 -26.5 -196.5 q-26.5 -73.5 -81.5 -106 q-55 -32.5 -140 -32.5 ZM278 105 q28 0 48.5 9.5 q20.5 9.5 34.5 33.5 q14 24 20.5 67 q6.5 43 6.5 109 q0 70 -6.5 115 q-6.5 45 -19.5 70.5 q-13 25.5 -34 36 q-21 10.5 -50 10.5 q-29 0 -50 -10.5 q-21 -10.5 -34.5 -35.5 q-13.5 -25 -20.5 -70.5 q-7 -45.5 -7 -116.5 q0 -66 7.5 -109 q7.5 -43 21.5 -66.5 q14 -23.5 34.5 -33 q20.5 -9.5 48.5 -9.5 Z" /><glyph glyph-name="one" unicode="1" d="M283 0 l0 512 l-156 -90 l-46 99 l219 139 l119 0 l0 -660 l-136 0 Z" /><glyph glyph-name="two" unicode="2" d="M59 0 l0 108 l151 155 q43 44 74 77.5 q31 33.5 47.5 63.5 q16.5 30 16.5 64 q0 50 -28 67.5 q-28 17.5 -90 17.5 q-25 0 -55 -3 q-30 -3 -57.5 -7 q-27.5 -4 -47.5 -8 l-7 106 q22 6 54.5 13 q32.5 7 71 12.5 q38.5 5.5 75.5 5.5 q108 0 165 -45.5 q57 -45.5 57 -140.5 q0 -52 -14.5 -92 q-14.5 -40 -45 -76.5 q-30.5 -36.5 -80.5 -79.5 l-132 -126 l281 0 l0 -112 l-436 0 Z" /><glyph glyph-name="three" unicode="3" d="M267 -11 q-37 0 -77.5 4 q-40.5 4 -77 10.5 q-36.5 6.5 -60.5 11.5 l6 107 q24 -3 57.5 -7 q33.5 -4 69 -6.5 q35.5 -2.5 65.5 -2.5 q57 0 85 21 q28 21 28 68 q0 32 -12.5 50.5 q-12.5 18.5 -36 27.5 q-23.5 9 -54.5 10 l-136 0 l0 110 l133 0 q23 0 44.5 10 q21.5 10 35 29 q13.5 19 13.5 46 q0 42 -25.5 59.5 q-25.5 17.5 -82.5 17.5 q-30 0 -63 -3 q-33 -3 -63 -6.5 q-30 -3.5 -50 -7.5 l-6 105 q22 6 54 12.5 q32 6.5 68 11 q36 4.5 68 4.5 q85 0 137.5 -17.5 q52.5 -17.5 76.5 -57 q24 -39.5 24 -103.5 q0 -35 -8.5 -59 q-8.5 -24 -22 -41 q-13.5 -17 -27.5 -27.5 q-14 -10.5 -26 -18.5 q30 -14 52 -31 q22 -17 34 -45 q12 -28 12 -75 q0 -75 -26 -120.5 q-26 -45.5 -78 -66 q-52 -20.5 -131 -20.5 Z" /><glyph glyph-name="four" unicode="4" d="M332 0 l0 110 l-300 0 l0 100 l150 450 l154 0 l-167 -435 l163 0 l8 170 l128 2 l0 -172 l61 0 l0 -115 l-61 0 l0 -110 l-136 0 Z" /><glyph glyph-name="five" unicode="5" d="M282 -11 q-38 0 -82 5.5 q-44 5.5 -85 13.5 q-41 8 -70 14 l12 102 q27 -4 64 -9.5 q37 -5.5 76 -8.5 q39 -3 71 -3 q51 0 81 26.5 q30 26.5 30 77.5 q0 35 -12.5 55 q-12.5 20 -36 28.5 q-23.5 8.5 -54.5 8.5 q-24 0 -48 -4.5 q-24 -4.5 -45 -11 q-21 -6.5 -34 -13.5 l-90 14 l16 376 l413 0 l0 -121 l-305 0 l-13 -147 q14 6 35 12.5 q21 6.5 45.5 11.5 q24.5 5 47.5 5 q69 0 117 -19 q48 -19 73.5 -63 q25.5 -44 25.5 -120 q0 -79 -28.5 -129.5 q-28.5 -50.5 -80 -75.5 q-51.5 -25 -123.5 -25 Z" /><glyph glyph-name="six" unicode="6" d="M285 -11 q-129 0 -189 89 q-60 89 -60 251 q0 96 19.5 161.5 q19.5 65.5 55 105 q35.5 39.5 84.5 57.5 q49 18 108 18 q31 0 67.5 -4 q36.5 -4 71.5 -9.5 q35 -5.5 59 -10.5 l-11 -103 q-21 2 -52.5 5 q-31.5 3 -65.5 5.5 q-34 2.5 -65 2.5 q-68 0 -102 -42.5 q-34 -42.5 -36 -121.5 q10 3 25.5 7.5 q15.5 4.5 34 10 q18.5 5.5 37.5 9 q19 3.5 36 3.5 q111 0 166.5 -51.5 q55.5 -51.5 55.5 -161.5 q0 -74 -29 -123 q-29 -49 -82 -73.5 q-53 -24.5 -128 -24.5 ZM285 101 q55 0 82.5 28.5 q27.5 28.5 27.5 80.5 q0 52 -28 76.5 q-28 24.5 -79 24.5 q-21 0 -44 -4 q-23 -4 -43 -10.5 q-20 -6.5 -33 -12.5 q1 -53 12 -94.5 q11 -41.5 36.5 -65 q25.5 -23.5 68.5 -23.5 Z" /><glyph glyph-name="seven" unicode="7" d="M269 -11 l-132 32 l216 488 l0 26 l-287 0 l0 125 l427 0 l0 -149 l-224 -522 Z" /><glyph glyph-name="eight" unicode="8" d="M276 -11 q-67 0 -124.5 16 q-57.5 16 -92.5 56 q-35 40 -35 110 q0 50 12.5 80 q12.5 30 35.5 51 q23 21 55 40 q-48 26 -70 60 q-22 34 -22 96 q0 61 30.5 99 q30.5 38 85 56 q54.5 18 125.5 18 q71 0 126.5 -17 q55.5 -17 87 -55.5 q31.5 -38.5 31.5 -101.5 q0 -64 -22 -96.5 q-22 -32.5 -74 -59.5 q35 -16 58.5 -36.5 q23.5 -20.5 35.5 -50.5 q12 -30 12 -77 q0 -73 -35 -114 q-35 -41 -92.5 -57.5 q-57.5 -16.5 -127.5 -16.5 ZM276 98 q35 0 61.5 8.5 q26.5 8.5 41 29 q14.5 20.5 14.5 56.5 q0 28 -10.5 46.5 q-10.5 18.5 -29 30.5 q-18.5 12 -40.5 19 l-75 0 q-35 -11 -55.5 -34.5 q-20.5 -23.5 -20.5 -64.5 q0 -33 14.5 -53 q14.5 -20 40.5 -29 q26 -9 59 -9 ZM238 389 l75 0 q33 13 52 34 q19 21 19 55 q0 45 -27.5 65 q-27.5 20 -79.5 20 q-51 0 -78 -20 q-27 -20 -27 -64 q0 -35 17 -56 q17 -21 49 -34 Z" /><glyph glyph-name="nine" unicode="9" d="M250 -11 q-30 0 -66.5 4 q-36.5 4 -71 9.5 q-34.5 5.5 -59.5 10.5 l11 104 q21 -3 52.5 -6.5 q31.5 -3.5 65.5 -5.5 q34 -2 64 -2 q71 0 104.5 41 q33.5 41 35.5 124 q-21 -8 -45.5 -15 q-24.5 -7 -48 -11 q-23.5 -4 -42.5 -4 q-108 0 -163.5 51 q-55.5 51 -55.5 160 q0 72 29.5 121.5 q29.5 49.5 83 75 q53.5 25.5 125.5 25.5 q87 0 142.5 -40.5 q55.5 -40.5 81.5 -116.5 q26 -76 26 -183 q0 -99 -19.5 -165 q-19.5 -66 -54.5 -105 q-35 -39 -84.5 -55.5 q-49.5 -16.5 -110.5 -16.5 ZM264 349 q21 0 44 4.5 q23 4.5 44 11 q21 6.5 35 11.5 q-1 55 -12 96 q-11 41 -36.5 64 q-25.5 23 -69.5 23 q-52 0 -80.5 -30 q-28.5 -30 -28.5 -80 q0 -52 26.5 -76 q26.5 -24 77.5 -24 Z" /><glyph glyph-name="uni2070" unicode="&#x2070;" d="M153 394 q-46 0 -76 16.5 q-30 16.5 -44.5 56 q-14.5 39.5 -14.5 105.5 q0 99 33 138.5 q33 39.5 102 39.5 q48 0 77.5 -17 q29.5 -17 43.5 -56 q14 -39 14 -105 q0 -66 -14.5 -105.5 q-14.5 -39.5 -44 -56 q-29.5 -16.5 -76.5 -16.5 ZM153 476 q14 0 22.5 7 q8.5 7 13 28 q4.5 21 4.5 61 q0 40 -4 60.5 q-4 20.5 -12.5 28 q-8.5 7.5 -23.5 7.5 q-14 0 -22.5 -7.5 q-8.5 -7.5 -12.5 -28 q-4 -20.5 -4 -60.5 q0 -40 4 -61 q4 -21 13 -28 q9 -7 22 -7 Z" /><glyph glyph-name="onesuperior" unicode="¹" d="M133 400 l0 232 l-74 -41 l-32 79 l116 74 l90 0 l0 -344 l-100 0 Z" /><glyph glyph-name="twosuperior" unicode="²" d="M35 400 l0 77 l87 85 q24 22 37.5 39.5 q13.5 17.5 13.5 37.5 q0 16 -12 23.5 q-12 7.5 -36 7.5 q-17 0 -42 -2.5 q-25 -2.5 -42 -4.5 l-4 76 q20 4 52 8.5 q32 4.5 59 4.5 q62 0 88.5 -25.5 q26.5 -25.5 26.5 -76.5 q0 -27 -7.5 -46.5 q-7.5 -19.5 -24 -37.5 q-16.5 -18 -41.5 -42 l-45 -42 l118 0 l0 -82 l-228 0 Z" /><glyph glyph-name="threesuperior" unicode="³" d="M152 394 q-29 0 -64 4 q-35 4 -57 8 l4 74 q19 -2 49 -4.5 q30 -2.5 49 -2.5 q25 0 36.5 7 q11.5 7 11.5 26 q0 17 -10.5 24.5 q-10.5 7.5 -29.5 7.5 l-72 0 l0 73 l70 0 q15 0 24.5 9 q9.5 9 9.5 25 q0 26 -46 26 q-19 0 -45.5 -2 q-26.5 -2 -43.5 -4 l-3 74 q22 4 54.5 8 q32.5 4 59.5 4 q61 0 90.5 -23 q29.5 -23 29.5 -73 q0 -29 -10 -46.5 q-10 -17.5 -27 -27.5 q21 -10 32.5 -26 q11.5 -16 11.5 -52 q0 -57 -31 -83 q-31 -26 -93 -26 Z" /><glyph glyph-name="uni2074" unicode="&#x2074;" d="M169 400 l0 48 l-149 0 l0 71 l62 225 l105 0 l-74 -217 l56 0 l3 76 l93 7 l0 -83 l22 0 l0 -79 l-22 0 l0 -48 l-96 0 Z" /><glyph glyph-name="uni2075" unicode="&#x2075;" d="M157 395 q-19 0 -42.5 2.5 q-23.5 2.5 -45.5 6.5 q-22 4 -38 8 l7 69 q21 -3 53 -6.5 q32 -3.5 57 -3.5 q39 0 39 37 q0 19 -9.5 25.5 q-9.5 6.5 -24.5 6.5 q-13 0 -27 -3.5 q-14 -3.5 -22 -7.5 l-66 8 l10 207 l222 0 l0 -81 l-150 0 l-4 -53 q10 4 26.5 8 q16.5 4 31.5 4 q35 0 59 -9.5 q24 -9.5 36.5 -32.5 q12.5 -23 12.5 -66 q0 -64 -32.5 -91.5 q-32.5 -27.5 -92.5 -27.5 Z" /><glyph glyph-name="uni2076" unicode="&#x2076;" d="M157 394 q-70 0 -101 44 q-31 44 -31 129 q0 68 16.5 108 q16.5 40 47.5 57.5 q31 17.5 75 17.5 q22 0 53.5 -4.5 q31.5 -4.5 51.5 -8.5 l-6 -71 q-18 2 -46 4.5 q-28 2.5 -50 2.5 q-27 0 -39.5 -14 q-12.5 -14 -13.5 -45 q0 0 5 2 q6 2 20 6.5 q14 4.5 29 4.5 q60 0 88 -28 q28 -28 28 -86 q0 -60 -35 -89.5 q-35 -29.5 -92 -29.5 ZM156 470 q21 0 29.5 12 q8.5 12 8.5 31 q0 21 -9 31 q-9 10 -28 10 q-10 0 -19.5 -3 q-9.5 -3 -16 -6 q-6.5 -3 -8.5 -5 q1 -34 10 -52 q9 -18 33 -18 Z" /><glyph glyph-name="uni2077" unicode="&#x2077;" d="M160 394 l-94 19 l99 222 l0 18 l-131 0 l0 91 l230 0 l0 -98 l-104 -252 Z" /><glyph glyph-name="uni2078" unicode="&#x2078;" d="M153 394 q-39 0 -69.5 9 q-30.5 9 -48 31 q-17.5 22 -17.5 61 q0 25 6.5 40.5 q6.5 15.5 18.5 25.5 q12 10 27 18 q-22 12 -34 28.5 q-12 16.5 -12 51.5 q0 33 15.5 52.5 q15.5 19.5 44.5 29 q29 9.5 69 9.5 q40 0 69 -8.5 q29 -8.5 45 -28.5 q16 -20 16 -55 q0 -33 -11.5 -50.5 q-11.5 -17.5 -35.5 -29.5 q25 -10 38.5 -27.5 q13.5 -17.5 13.5 -54.5 q0 -39 -17.5 -61.5 q-17.5 -22.5 -48 -31.5 q-30.5 -9 -69.5 -9 ZM153 466 q20 0 30 8.5 q10 8.5 10 27.5 q0 17 -7.5 27.5 q-7.5 10.5 -21.5 15.5 l-22 0 q-13 -5 -21 -16 q-8 -11 -8 -28 q0 -18 10.5 -26.5 q10.5 -8.5 29.5 -8.5 ZM142 609 l22 0 q13 6 19.5 15 q6.5 9 6.5 23 q0 16 -8.5 24 q-8.5 8 -28.5 8 q-20 0 -28.5 -8 q-8.5 -8 -8.5 -24 q0 -14 7 -22.5 q7 -8.5 19 -15.5 Z" /><glyph glyph-name="uni2079" unicode="&#x2079;" d="M144 394 q-24 0 -55.5 4.5 q-31.5 4.5 -53.5 9.5 l7 70 q17 -2 45 -4.5 q28 -2.5 51 -2.5 q29 0 41.5 15.5 q12.5 15.5 13.5 42.5 q-12 -4 -27.5 -7.5 q-15.5 -3.5 -27.5 -3.5 q-55 0 -84.5 28.5 q-29.5 28.5 -29.5 85.5 q0 60 35 89 q35 29 91 29 q70 0 101.5 -44 q31.5 -44 31.5 -133 q0 -65 -16.5 -105 q-16.5 -40 -47 -57 q-30.5 -17 -75.5 -17 ZM150 590 q11 0 24 4 q13 4 20 7 q0 37 -9.5 55 q-9.5 18 -33.5 18 q-19 0 -29 -11 q-10 -11 -10 -30 q0 -20 10 -31.5 q10 -11.5 28 -11.5 Z" /><glyph glyph-name="fraction" unicode="&#x2044;" d="M-100 -21 l-81 40 l358 677 l81 -40 l-358 -677 Z" /><glyph glyph-name="uni066C" unicode="&#x66c;" d="M26 -116 l26 192 l111 0 l-54 -192 l-83 0 Z" /><glyph glyph-name="uni0660" unicode="&#x660;" d="M80 265 l0 130 l141 0 l0 -130 l-141 0 Z" /><glyph glyph-name="uni0661" unicode="&#x661;" d="M110 0 l0 660 l133 0 l0 -660 l-133 0 Z" /><glyph glyph-name="uni0662" unicode="&#x662;" d="M110 0 l0 660 l408 0 l0 -116 l-364 0 l89 78 l0 -622 l-133 0 Z" /><glyph glyph-name="uni0663" unicode="&#x663;" d="M505 301 q-50 0 -95 17.5 q-45 17.5 -74 49.5 l98 79 q15 -16 31.5 -23.5 q16.5 -7.5 39.5 -7.5 q31 0 44.5 17.5 q13.5 17.5 13.5 67.5 l0 159 l133 0 l0 -159 q0 -63 -22.5 -108 q-22.5 -45 -65 -68.5 q-42.5 -23.5 -103.5 -23.5 ZM104 1 l0 659 l134 0 l0 -659 l-134 0 ZM276 301 q-45 0 -87 15 q-42 15 -69 41 l91 84 q14 -13 29 -19 q15 -6 36 -6 q31 0 44.5 17.5 q13.5 17.5 13.5 67.5 l0 159 l133 0 l0 -159 q0 -63 -22.5 -108 q-22.5 -45 -65 -68.5 q-42.5 -23.5 -103.5 -23.5 Z" /><glyph glyph-name="uni0664" unicode="&#x664;" d="M277 275 q-68 0 -121.5 24.5 q-53.5 24.5 -84.5 69.5 q-31 45 -31 106 q0 61 30.5 106 q30.5 45 84 70 q53.5 25 119.5 25 q29 0 63 -5.5 q34 -5.5 65 -12.5 l-11 -109 q-43 5 -70 8 q-27 3 -47 3 q-47 0 -73.5 -22 q-26.5 -22 -26.5 -63 q0 -42 27 -63.5 q27 -21.5 76 -21.5 l0 -115 ZM274 -11 q-66 0 -119.5 25 q-53.5 25 -84 70.5 q-30.5 45.5 -30.5 105.5 q0 60 31 105 q31 45 84.5 70 q53.5 25 121.5 25 l0 -115 q-49 0 -76 -22 q-27 -22 -27 -63 q0 -41 26.5 -63 q26.5 -22 73.5 -22 q20 0 47 3 q27 3 70 7 l11 -109 q-31 -6 -65 -11.5 q-34 -5.5 -63 -5.5 ZM277 275 l0 115 l70 0 l0 -115 l-70 0 Z" /><glyph glyph-name="uni0665" unicode="&#x665;" d="M355 -4 q-56 0 -107 17.5 q-51 17.5 -91.5 52.5 q-40.5 35 -64 86.5 q-23.5 51.5 -23.5 119.5 q0 44 10.5 96 q10.5 52 33 104 q22.5 52 56.5 95.5 q34 43.5 80.5 70 q46.5 26.5 105.5 26.5 q58 0 104.5 -26 q46.5 -26 80.5 -69.5 q34 -43.5 56.5 -95.5 q22.5 -52 33.5 -104.5 q11 -52.5 11 -96.5 q0 -68 -23.5 -119.5 q-23.5 -51.5 -64 -86.5 q-40.5 -35 -92 -52.5 q-51.5 -17.5 -106.5 -17.5 ZM355 112 q47 0 81.5 18.5 q34.5 18.5 52.5 55 q18 36.5 18 90.5 q0 49 -13.5 97.5 q-13.5 48.5 -35.5 88 q-22 39.5 -49.5 63 q-27.5 23.5 -53.5 23.5 q-27 0 -54 -24 q-27 -24 -49.5 -63.5 q-22.5 -39.5 -36 -87.5 q-13.5 -48 -13.5 -97 q0 -53 18 -90 q18 -37 52.5 -55.5 q34.5 -18.5 82.5 -18.5 Z" /><glyph glyph-name="uni0666" unicode="&#x666;" d="M281 0 l0 632 l105 -88 l-356 0 l0 116 l384 0 l0 -660 l-133 0 Z" /><glyph glyph-name="uni0667" unicode="&#x667;" d="M246 0 l-216 660 l136 0 l169 -599 l-89 55 l144 0 l-77 -57 l174 601 l136 0 l-223 -660 l-154 0 Z" /><glyph glyph-name="uni0668" unicode="&#x668;" d="M246 660 l154 0 l223 -660 l-136 0 l-174 601 l77 -57 l-144 0 l89 55 l-169 -599 l-136 0 l216 660 Z" /><glyph glyph-name="uni0669" unicode="&#x669;" d="M334 0 l0 612 l79 -68 l-127 0 q-69 0 -100.5 -26 q-31.5 -26 -31.5 -77 q0 -52 26 -76.5 q26 -24.5 80 -24.5 q20 0 42.5 3 q22.5 3 45.5 9 l31 -113 q-27 -6 -59.5 -10.5 q-32.5 -4.5 -59.5 -4.5 q-80 0 -133.5 30 q-53.5 30 -80 79.5 q-26.5 49.5 -26.5 107.5 q0 67 32.5 116 q32.5 49 92.5 76 q60 27 141 27 l181 0 l0 -660 l-133 0 Z" /><glyph glyph-name="uni06F4" unicode="&#x6f4;" d="M407 282 q-66 0 -120.5 15 q-54.5 15 -94 43 q-39.5 28 -61 69 q-21.5 41 -21.5 91 l0 160 l133 0 l0 -160 q0 -51 41 -76.5 q41 -25.5 123 -25.5 q58 0 92 11 q34 11 49 34 q15 23 15 57 l0 101 l134 0 l0 -101 q0 -68 -34.5 -117 q-34.5 -49 -99.5 -75 q-65 -26 -156 -26 ZM110 0 l0 660 l133 0 l0 -660 l-133 0 ZM427 337 q-61 4 -98 39 q-37 35 -37 92 q0 63 42.5 99 q42.5 36 107.5 36 q20 0 39 -3.5 q19 -3.5 38 -7.5 l-15 -68 q-7 1 -18.5 3 q-11.5 2 -22.5 3.5 q-11 1.5 -18 1.5 q-37 0 -57 -18 q-20 -18 -20 -50 q0 -32 20 -49 q20 -17 58 -17 l-19 -61 Z" /><glyph glyph-name="uni06F5" unicode="&#x6f5;" d="M218 -2 q-24 0 -50.5 13 q-26.5 13 -48.5 39.5 q-22 26.5 -36.5 66.5 q-14.5 40 -14.5 93 q0 65 28.5 125 q28.5 60 82 118 q53.5 58 128.5 113 l59 -62 q-48 -45 -82 -80.5 q-34 -35.5 -55.5 -68.5 q-21.5 -33 -31.5 -69 q-10 -36 -10 -83 q0 -41 14.5 -62 q14.5 -21 33.5 -21 q13 0 23 11.5 q10 11.5 18 27.5 q8 16 16 28.5 q8 12.5 18 13.5 q10 -1 19 -13.5 q9 -12.5 17.5 -28.5 q8.5 -16 18 -27.5 q9.5 -11.5 21.5 -11.5 q15 0 30 21.5 q15 21.5 15 64.5 q0 51 -22 99.5 q-22 48.5 -60 95.5 q-38 47 -86 93 q-48 46 -101 92 l88 96 q49 -42 94 -85 q45 -43 83.5 -88 q38.5 -45 67 -92.5 q28.5 -47.5 44.5 -97.5 q16 -50 16 -104 q0 -47 -10 -83 q-10 -36 -26.5 -61.5 q-16.5 -25.5 -37 -41.5 q-20.5 -16 -41.5 -23.5 q-21 -7.5 -38 -7.5 q-25 0 -41.5 10.5 q-16.5 10.5 -26.5 25 q-10 14.5 -15.5 25.5 q-5.5 11 -8.5 12 q-3 -1 -8 -12 q-5 -11 -15 -25.5 q-10 -14.5 -27 -25 q-17 -10.5 -42 -10.5 Z" /><glyph glyph-name="uni06F6" unicode="&#x6f6;" d="M301 271 q-69 0 -122.5 25 q-53.5 25 -84 70 q-30.5 45 -30.5 106 q0 61 30.5 106 q30.5 45 83.5 70 q53 25 119 25 q21 0 43.5 -2.5 q22.5 -2.5 46 -6.5 q23.5 -4 43.5 -9 l-30 -113 q-30 7 -56.5 11 q-26.5 4 -46.5 4 q-46 0 -73 -22 q-27 -22 -27 -63 q0 -42 27 -63.5 q27 -21.5 77 -21.5 l0 -116 ZM64 0 q0 121 38.5 207.5 q38.5 86.5 106.5 133 q68 46.5 156 46.5 l1 -116 q-49 0 -87.5 -32 q-38.5 -32 -60 -92.5 q-21.5 -60.5 -21.5 -146.5 l-133 0 ZM301 271 l0 116 l71 0 l0 -116 l-71 0 Z" /><glyph glyph-name="uni06F8" unicode="&#x6f8;" d="M246 660 l154 0 l223 -660 l-136 0 l-174 601 l77 -57 l-144 0 l89 55 l-169 -599 l-136 0 l216 660 Z" /><glyph glyph-name="period" unicode="." d="M52 0 l0 148 l139 0 l0 -148 l-139 0 Z" /><glyph glyph-name="comma" unicode="," d="M26 -115 l36 256 l146 0 l-72 -256 l-110 0 Z" /><glyph glyph-name="colon" unicode=":" d="M53 299 l0 148 l139 0 l0 -148 l-139 0 ZM53 0 l0 148 l139 0 l0 -148 l-139 0 Z" /><glyph glyph-name="semicolon" unicode=";" d="M34 -115 l36 256 l147 0 l-73 -256 l-110 0 ZM68 299 l0 148 l139 0 l0 -148 l-139 0 Z" /><glyph glyph-name="ellipsis" unicode="&#x2026;" d="M593 0 l0 148 l140 0 l0 -148 l-140 0 ZM52 0 l0 148 l139 0 l0 -148 l-139 0 ZM322 0 l0 148 l140 0 l0 -148 l-140 0 Z" /><glyph glyph-name="exclam" unicode="!" d="M70 235 l-10 448 l144 0 l-9 -448 l-125 0 ZM63 0 l0 147 l139 0 l0 -147 l-139 0 Z" /><glyph glyph-name="exclamdown" unicode="¡" d="M189 267 l9 -448 l-144 0 l9 448 l126 0 ZM196 502 l0 -147 l-140 0 l0 147 l140 0 Z" /><glyph glyph-name="question" unicode="?" d="M142 208 q-5 10 -11 28.5 q-6 18.5 -6 39.5 q0 24 10 44 q10 20 30 40.5 q20 20.5 50 44.5 q31 25 47 41.5 q16 16.5 21.5 32 q5.5 15.5 5.5 38.5 q0 39 -24.5 56 q-24.5 17 -79.5 17 q-22 0 -49.5 -3 q-27.5 -3 -54 -8 q-26.5 -5 -46.5 -9 l-6 99 q23 7 55 15 q32 8 67 13 q35 5 64 5 q107 0 158.5 -40.5 q51.5 -40.5 51.5 -137.5 q0 -47 -7.5 -76 q-7.5 -29 -27.5 -52 q-20 -23 -56 -52 q-45 -36 -64.5 -59 q-19.5 -23 -20.5 -48 l0 -29 l-107 0 ZM126 1 l0 139 l139 0 l0 -139 l-139 0 Z" /><glyph glyph-name="questiondown" unicode="¿" d="M312 295 q6 -10 11.5 -28 q5.5 -18 5.5 -41 q0 -24 -9.5 -44 q-9.5 -20 -29.5 -40 q-20 -20 -51 -44 q-31 -26 -47 -42.5 q-16 -16.5 -21.5 -32 q-5.5 -15.5 -5.5 -38.5 q0 -39 24.5 -55.5 q24.5 -16.5 79.5 -16.5 q23 0 50.5 3 q27.5 3 54 7.5 q26.5 4.5 45.5 8.5 l6 -99 q-22 -7 -54.5 -14.5 q-32.5 -7.5 -67 -13 q-34.5 -5.5 -64.5 -5.5 q-106 0 -158 40.5 q-52 40.5 -52 138.5 q0 46 7.5 75 q7.5 29 27.5 53 q20 24 56 52 q45 35 64.5 58.5 q19.5 23.5 20.5 48.5 l0 29 l107 0 ZM328 502 l0 -140 l-139 0 l0 140 l139 0 Z" /><glyph glyph-name="bullet" unicode="&#x2022;" d="M88 119 l0 279 l260 0 l0 -279 l-260 0 Z" /><glyph glyph-name="asterisk" unicode="*" d="M221 359 l-35 115 l-96 -74 l-49 66 l99 70 l-98 68 l49 68 l95 -73 l35 116 l79 -27 l-39 -113 l119 3 l0 -84 l-119 3 l39 -114 l-79 -24 Z" /><glyph glyph-name="numbersign" unicode="#" d="M105 0 l1 149 l-89 0 l2 109 l89 0 l0 144 l-89 0 l3 109 l88 0 l1 157 l111 0 l-1 -157 l117 0 l2 157 l110 0 l-1 -157 l90 0 l-3 -109 l-89 0 l0 -144 l89 0 l-2 -109 l-89 0 l-1 -149 l-111 0 l1 149 l-118 0 l-1 -149 l-110 0 ZM218 258 l118 0 l1 144 l-118 0 l-1 -144 Z" /><glyph glyph-name="slash" unicode="/" d="M152 -38 l-126 33 l290 718 l126 -33 l-290 -718 Z" /><glyph glyph-name="backslash" unicode="\" d="M331 -38 l-307 715 l126 35 l307 -715 l-126 -35 Z" /><glyph glyph-name="parenleft" unicode="(" d="M140 -125 q-17 31 -35 77.5 q-18 46.5 -33.5 103 q-15.5 56.5 -25 119 q-9.5 62.5 -9.5 126.5 q0 64 9.5 129 q9.5 65 25 125 q15.5 60 33.5 110.5 q18 50.5 35 84.5 l124 0 q-14 -39 -29.5 -93 q-15.5 -54 -28.5 -115 q-13 -61 -21.5 -123 q-8.5 -62 -8.5 -118 q0 -55 8.5 -114.5 q8.5 -59.5 21.5 -117.5 q13 -58 28.5 -108 q15.5 -50 29.5 -86 l-124 0 Z" /><glyph glyph-name="parenright" unicode=")" d="M149 -123 l-124 0 q14 38 29.5 89 q15.5 51 28.5 110 q13 59 21.5 120 q8.5 61 8.5 116 q0 55 -8.5 116 q-8.5 61 -21.5 121 q-13 60 -28.5 112.5 q-15.5 52.5 -29.5 90.5 l124 0 q17 -33 35 -82 q18 -49 33.5 -107.5 q15.5 -58.5 25 -123 q9.5 -64.5 9.5 -127.5 q0 -64 -9.5 -127.5 q-9.5 -63.5 -25 -121.5 q-15.5 -58 -33.5 -106 q-18 -48 -35 -80 Z" /><glyph glyph-name="braceleft" unicode="{" d="M324 -130 q-58 1 -101 10 q-43 9 -71.5 28.5 q-28.5 19.5 -43 52.5 q-14.5 33 -14.5 83 q0 17 2 38 q2 21 4 41 q2 17 3 31.5 q1 14.5 1 22.5 q0 32 -20 52 q-20 20 -64 32 l0 103 q44 11 64 30.5 q20 19.5 20 50.5 q0 10 -1.5 25.5 q-1.5 15.5 -3.5 33.5 q-1 21 -3 42 q-2 21 -2 36 q0 51 14.5 84.5 q14.5 33.5 43.5 53 q29 19.5 72 28 q43 8.5 100 9.5 l1 -110 q-39 -2 -60.5 -12.5 q-21.5 -10.5 -29 -30.5 q-7.5 -20 -7.5 -51 q0 -13 1 -27 q1 -14 2 -29 q1 -14 1.5 -27 q0.5 -13 0.5 -24 q0 -39 -7.5 -63.5 q-7.5 -24.5 -26 -40 q-18.5 -15.5 -52.5 -27.5 q51 -18 68.5 -46 q17.5 -28 17.5 -83 q0 -11 -0.5 -23 q-0.5 -12 -1.5 -25 q-1 -16 -2 -31.5 q-1 -15.5 -1 -29.5 q0 -30 7.5 -51 q7.5 -21 28.5 -32 q21 -11 60 -14 l0 -110 Z" /><glyph glyph-name="braceright" unicode="}" d="M31 -132 l-1 110 q41 3 61.5 14 q20.5 11 28 31.5 q7.5 20.5 7.5 49.5 q0 15 -1 29.5 q-1 14.5 -2 29.5 q-1 11 -2 22.5 q-1 11.5 -1 21.5 q0 59 18 86.5 q18 27.5 69 45.5 q-34 12 -53 27.5 q-19 15.5 -26.5 40 q-7.5 24.5 -7.5 61.5 q0 11 1 25 q1 14 2 29 q1 16 2 31 q1 15 1 28 q0 31 -8 51 q-8 20 -28.5 31.5 q-20.5 11.5 -60.5 13.5 l0 110 q58 -1 101 -10 q43 -9 72 -28.5 q29 -19.5 43 -52.5 q14 -33 14 -84 q0 -15 -1.5 -36.5 q-1.5 -21.5 -3.5 -42.5 q-1 -17 -2.5 -32.5 q-1.5 -15.5 -1.5 -24.5 q0 -33 19.5 -52.5 q19.5 -19.5 64.5 -30.5 l0 -103 q-44 -12 -64 -31.5 q-20 -19.5 -20 -50.5 q0 -9 1.5 -24 q1.5 -15 2.5 -32 q2 -20 3.5 -41 q1.5 -21 1.5 -37 q0 -51 -14 -84 q-14 -33 -43 -52.5 q-29 -19.5 -72 -28.5 q-43 -9 -100 -10 Z" /><glyph glyph-name="bracketleft" unicode="[" d="M61 -123 l0 872 l241 0 l0 -112 l-106 0 l0 -648 l106 0 l0 -112 l-241 0 Z" /><glyph glyph-name="bracketright" unicode="]" d="M273 -123 l-242 0 l0 112 l107 0 l0 648 l-107 0 l0 112 l242 0 l0 -872 Z" /><glyph glyph-name="hyphen" unicode="-" d="M52 209 l0 114 l302 0 l0 -114 l-302 0 Z" /><glyph glyph-name="uni00AD" unicode="­" d="M52 209 l0 114 l302 0 l0 -114 l-302 0 Z" /><glyph glyph-name="endash" unicode="&#x2013;" d="M52 203 l0 118 l500 0 l0 -118 l-500 0 Z" /><glyph glyph-name="emdash" unicode="&#x2014;" d="M52 203 l0 118 l1000 0 l0 -118 l-1000 0 Z" /><glyph glyph-name="underscore" unicode="_" d="M78 -169 l0 91 l463 0 l0 -91 l-463 0 Z" /><glyph glyph-name="quotesinglbase" unicode="&#x201a;" d="M217 159 l-39 -268 l-149 0 l76 268 l112 0 Z" /><glyph glyph-name="quotedblbase" unicode="&#x201e;" d="M94 28 l-18 -29 l36 0 l12 29 l-30 0 ZM292 28 l-19 -29 l37 0 l11 29 l-29 0 Z" /><glyph glyph-name="quotedblleft" unicode="&#x201c;" d="M405 692 l-35 -244 l-139 0 l69 244 l105 0 ZM208 692 l-35 -244 l-139 0 l69 244 l105 0 Z" /><glyph glyph-name="quotedblright" unicode="&#x201d;" d="M40 450 l35 243 l139 0 l-69 -243 l-105 0 ZM242 450 l34 243 l139 0 l-68 -243 l-105 0 Z" /><glyph glyph-name="quoteleft" unicode="&#x2018;" d="M208 692 l-35 -244 l-139 0 l69 244 l105 0 Z" /><glyph glyph-name="quoteright" unicode="&#x2019;" d="M40 449 l35 244 l139 0 l-69 -244 l-105 0 Z" /><glyph glyph-name="guillemotleft" unicode="«" d="M463 44 l-179 182 l0 46 l180 179 l61 -78 l-120 -122 l120 -129 l-62 -78 ZM212 44 l-179 182 l0 46 l180 179 l61 -78 l-120 -122 l120 -129 l-62 -78 Z" /><glyph glyph-name="guillemotright" unicode="»" d="M361 44 l-61 78 l120 129 l-120 122 l61 78 l179 -177 l0 -46 l-179 -184 ZM109 44 l-61 78 l120 129 l-120 122 l62 78 l179 -177 l0 -46 l-180 -184 Z" /><glyph glyph-name="guilsinglleft" unicode="&#x2039;" d="M212 46 l-179 181 l0 47 l180 178 l61 -78 l-120 -121 l120 -129 l-62 -78 Z" /><glyph glyph-name="guilsinglright" unicode="&#x203a;" d="M109 45 l-61 78 l120 129 l-120 122 l62 78 l179 -177 l0 -46 l-180 -184 Z" /><glyph glyph-name="quotedbl" unicode="&quot;" d="M269 450 l-14 233 l139 0 l-15 -233 l-110 0 ZM60 450 l-14 233 l139 0 l-15 -233 l-110 0 Z" /><glyph glyph-name="quotesingle" unicode="&#39;" d="M60 450 l-14 233 l140 0 l-16 -233 l-110 0 Z" /><glyph glyph-name="uni06D4" unicode="&#x6d4;" d="M52 0 l0 148 l308 0 l0 -148 l-308 0 Z" /><glyph glyph-name="uni060C" unicode="&#x60c;" d="M217 256 l-36 -256 l-146 0 l72 256 l110 0 Z" /><glyph glyph-name="uni061B" unicode="&#x61b;" d="M233 563 l-36 -257 l-147 0 l73 257 l110 0 ZM198 148 l0 -148 l-138 0 l0 148 l138 0 Z" /><glyph glyph-name="uni061F" unicode="&#x61f;" d="M314 208 l-107 0 l-1 29 q0 25 -20 48 q-20 23 -64 59 q-37 29 -56.5 52 q-19.5 23 -27 52 q-7.5 29 -7.5 76 q0 97 51.5 137.5 q51.5 40.5 158.5 40.5 q30 0 64 -5 q34 -5 66.5 -13 q32.5 -8 55.5 -15 l-6 -99 q-20 4 -46.5 9 q-26.5 5 -54 8 q-27.5 3 -49.5 3 q-55 0 -80 -17 q-25 -17 -25 -56 q0 -23 6 -38.5 q6 -15.5 22 -32 q16 -16.5 47 -41.5 q30 -24 50 -44.5 q20 -20.5 30 -40.5 q10 -20 10 -44 q0 -21 -5.5 -39.5 q-5.5 -18.5 -11.5 -28.5 ZM330 1 l-139 0 l0 139 l139 0 l0 -139 Z" /><glyph glyph-name="uniFD3E" unicode="&#xfd3e;" d="M123 -123 q-17 32 -35 80 q-18 48 -33 106 q-15 58 -25 121.5 q-10 63.5 -10 127.5 q0 63 10 127.5 q10 64.5 25 123 q15 58.5 33 107.5 q18 49 35 82 l124 0 q-14 -38 -29.5 -90.5 q-15.5 -52.5 -28.5 -112.5 q-13 -60 -21 -121 q-8 -61 -8 -116 q0 -55 8 -116 q8 -61 21 -120 q13 -59 28.5 -110 q15.5 -51 29.5 -89 l-124 0 Z" /><glyph glyph-name="uniFD3F" unicode="&#xfd3f;" d="M143 -123 l-124 0 q14 38 29.5 89 q15.5 51 28.5 110 q13 59 21 120 q8 61 8 116 q0 55 -8 116 q-8 61 -21 121 q-13 60 -28.5 112.5 q-15.5 52.5 -29.5 90.5 l124 0 q17 -33 35 -82 q18 -49 33 -107.5 q15 -58.5 25 -123 q10 -64.5 10 -127.5 q0 -64 -10 -127.5 q-10 -63.5 -25 -121.5 q-15 -58 -33 -106 q-18 -48 -35 -80 Z" /><glyph glyph-name="Euro" unicode="&#x20ac;" d="M18 374 l0 61 l448 0 l0 -61 l-448 0 ZM18 230 l0 61 l448 0 l0 -61 l-448 0 ZM327 -11 q-77 0 -127 20 q-50 20 -78.5 61.5 q-28.5 41.5 -40 106 q-11.5 64.5 -11.5 153.5 q0 89 11.5 153.5 q11.5 64.5 40.5 105.5 q29 41 79.5 61.5 q50.5 20.5 129.5 20.5 q31 0 66 -4 q35 -4 67.5 -9.5 q32.5 -5.5 55.5 -10.5 l-4 -107 q-20 4 -48.5 7 q-28.5 3 -59 5.5 q-30.5 2.5 -55.5 2.5 q-46 0 -75 -12.5 q-29 -12.5 -44.5 -38.5 q-15.5 -26 -21 -69.5 q-5.5 -43.5 -5.5 -104.5 q0 -62 5.5 -105 q5.5 -43 21 -69.5 q15.5 -26.5 44.5 -38.5 q29 -12 76 -12 q39 0 85.5 4 q46.5 4 77.5 8 l3 -105 q-23 -6 -55 -11 q-32 -5 -68 -8.5 q-36 -3.5 -70 -3.5 Z" /><glyph glyph-name="cent" unicode="¢" d="M267 -83 l0 121 q-66 3 -108.5 23.5 q-42.5 20.5 -62 66.5 q-19.5 46 -19.5 122 q0 76 21 122.5 q21 46.5 63 68.5 q42 22 105 24 l0 120 l65 0 l0 -121 q36 -1 74 -6 q38 -5 61 -10 l-4 -95 q-17 2 -44.5 3 q-27.5 1 -55.5 2 q-28 1 -50 1 q-55 0 -77.5 -25 q-22.5 -25 -22.5 -84 q0 -39 9.5 -62 q9.5 -23 32 -33.5 q22.5 -10.5 62.5 -10.5 q23 0 50 1 q27 1 53 2.5 q26 1.5 44 2.5 l4 -95 q-22 -4 -60 -9 q-38 -5 -76 -6 l0 -123 l-64 0 Z" /><glyph glyph-name="currency" unicode="¤" d="M217 82 q-48 17 -79 54 q-31 37 -41 84.5 q-10 47.5 7 94.5 q17 48 54 79 q37 31 84.5 40.5 q47.5 9.5 94.5 -6.5 q48 -17 79 -54 q31 -37 41 -84.5 q10 -47.5 -7 -95.5 q-17 -47 -54 -78 q-37 -31 -84.5 -40.5 q-47.5 -9.5 -94.5 6.5 ZM100 27 l-50 50 l99 98 l49 -50 l-98 -98 ZM252 160 q26 -6 51 1 q25 7 43.5 25 q18.5 18 24.5 44 q7 26 0 50.5 q-7 24.5 -25.5 43 q-18.5 18.5 -44.5 25.5 q-25 7 -50 -0.5 q-25 -7.5 -43.5 -25.5 q-18.5 -18 -25.5 -44 q-6 -26 1 -50.5 q7 -24.5 25 -43.5 q18 -19 44 -25 ZM149 335 l-99 98 l50 50 l98 -99 l-49 -49 ZM456 27 l-98 98 l49 50 l99 -98 l-50 -50 ZM407 335 l-49 49 l98 99 l50 -50 l-99 -98 Z" /><glyph glyph-name="dollar" unicode="$" d="M219 -124 l35 454 l56 -5 l-35 -449 l-56 0 ZM290 353 l-32 158 l58 267 l32 -153 l-58 -272 ZM284 -11 q-36 0 -80 4.5 q-44 4.5 -84.5 11 q-40.5 6.5 -69.5 11.5 l8 105 q30 -3 69.5 -7.5 q39.5 -4.5 79 -7.5 q39.5 -3 67.5 -3 q55 0 80 21.5 q25 21.5 25 67.5 q0 25 -10.5 39.5 q-10.5 14.5 -36 23.5 q-25.5 9 -71.5 18 q-78 15 -125.5 36.5 q-47.5 21.5 -69 59.5 q-21.5 38 -21.5 103 q0 76 28 119 q28 43 79.5 61.5 q51.5 18.5 122.5 18.5 q32 0 73 -4 q41 -4 81 -9 q40 -5 69 -9 l-7 -107 q-29 3 -67 6.5 q-38 3.5 -75 6 q-37 2.5 -63 2.5 q-54 0 -80 -17.5 q-26 -17.5 -26 -54.5 q0 -28 11.5 -43.5 q11.5 -15.5 38.5 -25 q27 -9.5 75 -20.5 q57 -13 97 -27 q40 -14 65 -34.5 q25 -20.5 36.5 -52.5 q11.5 -32 11.5 -80 q0 -77 -27.5 -124 q-27.5 -47 -79 -68 q-51.5 -21 -124.5 -21 Z" /><glyph glyph-name="florin" unicode="&#x192;" d="M151 -220 q-13 0 -33.5 2 q-20.5 2 -40.5 4 q-20 2 -36 4 l1 97 q9 0 23 -1 q14 -1 28.5 -1 q14.5 0 22.5 0 q31 1 44.5 19 q13.5 18 13.5 63 l5 384 l-63 0 l0 68 l65 0 l1 69 q1 45 7.5 81 q6.5 36 22.5 61 q16 25 44.5 38.5 q28.5 13.5 72.5 13.5 q14 0 34 -1.5 q20 -1.5 41 -3.5 q21 -2 37 -5 l-1 -96 q-11 1 -27 1.5 q-16 0.5 -32 0.5 q-25 0 -40 -9 q-15 -9 -22 -32 q-7 -23 -8 -65 l0 -53 l121 0 l0 -68 l-122 0 l-6 -390 q-1 -68 -15.5 -107.5 q-14.5 -39.5 -47.5 -56.5 q-33 -17 -90 -17 Z" /><glyph glyph-name="sterling" unicode="£" d="M62 0 l0 113 l76 0 l0 228 l-65 0 l0 65 l65 0 l0 49 q0 89 18.5 135 q18.5 46 58 63 q39.5 17 101.5 17 q23 0 51 -3 q28 -3 54.5 -7 q26.5 -4 45.5 -9 l-4 -102 q-16 2 -37.5 4 q-21.5 2 -42.5 3 q-21 1 -35 1 q-35 0 -53.5 -10 q-18.5 -10 -25.5 -33.5 q-7 -23.5 -7 -66.5 l0 -41 l157 0 l0 -65 l-157 0 l0 -228 l129 0 l93 15 l14 -111 l-96 -17 l-340 0 Z" /><glyph glyph-name="yen" unicode="¥" d="M215 0 l0 156 l-160 0 l0 65 l160 0 l0 52 l-13 36 l-147 0 l0 64 l114 0 l-149 286 l145 0 l119 -244 l119 244 l146 0 l-150 -286 l114 0 l0 -64 l-147 0 l-15 -36 l0 -52 l163 0 l0 -65 l-163 0 l0 -156 l-136 0 Z" /><glyph glyph-name="fraction" unicode="&#x2215;" d="M152 -38 l-126 33 l290 718 l126 -33 l-290 -718 Z" /><glyph glyph-name="plus" unicode="+" d="M221 21 l0 175 l-170 0 l0 113 l170 0 l0 172 l113 0 l0 -172 l171 0 l0 -113 l-171 0 l0 -175 l-113 0 Z" /><glyph glyph-name="minus" unicode="&#x2212;" d="M64 196 l0 113 l428 0 l0 -113 l-428 0 Z" /><glyph glyph-name="multiply" unicode="×" d="M131 26 l-78 78 l148 148 l-148 147 l78 77 l147 -148 l147 149 l78 -78 l-148 -147 l148 -148 l-78 -78 l-147 148 l-147 -148 Z" /><glyph glyph-name="divide" unicode="÷" d="M50 198 l0 109 l456 0 l0 -109 l-456 0 ZM215 22 l0 117 l125 0 l0 -117 l-125 0 ZM215 366 l0 117 l125 0 l0 -117 l-125 0 Z" /><glyph glyph-name="equal" unicode="=" d="M62 298 l0 109 l432 0 l0 -109 l-432 0 ZM62 97 l0 110 l432 0 l0 -110 l-432 0 Z" /><glyph glyph-name="notequal" unicode="&#x2260;" d="M198 -29 l-63 25 l236 539 l63 -25 l-236 -539 ZM62 298 l0 109 l432 0 l0 -109 l-432 0 ZM62 97 l0 110 l432 0 l0 -110 l-432 0 Z" /><glyph glyph-name="greater" unicode="&gt;" d="M84 3 l0 139 l298 113 l-298 108 l0 135 l404 -182 l0 -126 l-404 -187 Z" /><glyph glyph-name="less" unicode="&lt;" d="M471 3 l-404 187 l0 126 l404 182 l0 -135 l-298 -108 l298 -113 l0 -139 Z" /><glyph glyph-name="greaterequal" unicode="&#x2265;" d="M73 133 l0 120 l306 79 l-306 71 l0 118 l424 -136 l0 -112 l-424 -140 ZM486 -21 l-405 0 l0 105 l405 0 l0 -105 Z" /><glyph glyph-name="lessequal" unicode="&#x2264;" d="M486 133 l-423 140 l0 112 l423 136 l0 -118 l-305 -71 l305 -79 l0 -120 ZM74 -21 l0 105 l405 0 l0 -105 l-405 0 Z" /><glyph glyph-name="plusminus" unicode="±" d="M221 187 l0 105 l-170 0 l0 108 l170 0 l0 110 l113 0 l0 -110 l171 0 l0 -108 l-171 0 l0 -105 l-113 0 ZM51 19 l0 109 l454 0 l0 -109 l-454 0 Z" /><glyph glyph-name="approxequal" unicode="&#x2248;" d="M382 270 q-20 0 -48 9 q-28 9 -58 21 q-30 12 -55.5 21 q-25.5 9 -40.5 9 q-15 0 -34.5 -7.5 q-19.5 -7.5 -38.5 -18 q-19 -10.5 -32 -20.5 l-11 64 q21 17 54.5 35 q33.5 18 62.5 18 q21 0 48 -9 q27 -9 56 -21 q29 -12 55 -21 q26 -9 43 -9 q13 0 32 7.5 q19 7.5 37.5 18.5 q18.5 11 32.5 20 l11 -64 q-20 -17 -52 -35 q-32 -18 -62 -18 ZM382 83 q-20 0 -48 9 q-28 9 -58 21 q-30 12 -55.5 21 q-25.5 9 -40.5 9 q-15 0 -34.5 -7.5 q-19.5 -7.5 -38.5 -18 q-19 -10.5 -32 -20.5 l-11 64 q21 17 54.5 35 q33.5 18 62.5 18 q21 0 48 -9 q27 -9 56 -21 q29 -12 55 -21 q26 -9 43 -9 q13 0 32 7.5 q19 7.5 37.5 18.5 q18.5 11 32.5 20 l11 -64 q-20 -17 -52 -35 q-32 -18 -62 -18 Z" /><glyph glyph-name="asciitilde" unicode="~" d="M378 172 q-19 0 -46.5 8 q-27.5 8 -56.5 19 q-29 11 -54 19 q-25 8 -40 8 q-16 0 -35.5 -7 q-19.5 -7 -38.5 -17 q-19 -10 -32 -20 l-10 105 q19 17 53 35 q34 18 67 18 q19 0 45.5 -8 q26.5 -8 54.5 -19 q28 -11 53 -19 q25 -8 43 -8 q14 0 32.5 7 q18.5 7 37 17.5 q18.5 10.5 32.5 19.5 l9 -105 q-18 -17 -49.5 -35 q-31.5 -18 -64.5 -18 Z" /><glyph glyph-name="logicalnot" unicode="¬" d="M408 161 l0 157 l-367 0 l0 101 l469 0 l0 -258 l-102 0 Z" /><glyph glyph-name="asciicircum" unicode="^" d="M52 317 l170 347 l140 0 l173 -347 l-132 0 l-110 246 l-109 -246 l-132 0 Z" /><glyph glyph-name="infinity" unicode="&#x221e;" d="M443 123 q-45 0 -78.5 22.5 q-33.5 22.5 -58.5 65 q-25 42.5 -44 100.5 q19 59 44 101 q25 42 59 64.5 q34 22.5 79 22.5 q67 0 99 -49.5 q32 -49.5 32 -138.5 q0 -89 -32 -138.5 q-32 -49.5 -100 -49.5 ZM160 123 q-67 0 -99.5 49.5 q-32.5 49.5 -32.5 138.5 q0 89 32.5 138.5 q32.5 49.5 98.5 49.5 q46 0 79.5 -22.5 q33.5 -22.5 58.5 -64.5 q25 -42 44 -101 q-20 -65 -45 -106.5 q-25 -41.5 -57.5 -61.5 q-32.5 -20 -78.5 -20 ZM169 220 q24 0 38.5 9 q14.5 9 26.5 29 q12 20 26 53 q-13 28 -25 48 q-12 20 -27 31.5 q-15 11.5 -39 11.5 q-17 0 -28.5 -9.5 q-11.5 -9.5 -17.5 -29.5 q-6 -20 -6 -52 q0 -30 6.5 -50.5 q6.5 -20.5 18 -30.5 q11.5 -10 27.5 -10 ZM434 220 q17 0 28 9 q11 9 18 29.5 q7 20.5 7 52.5 q0 32 -6.5 52 q-6.5 20 -18 29.5 q-11.5 9.5 -28.5 9.5 q-23 0 -38.5 -11.5 q-15.5 -11.5 -27 -31.5 q-11.5 -20 -25.5 -48 q14 -28 25.5 -48.5 q11.5 -20.5 27 -31.5 q15.5 -11 38.5 -11 Z" /><glyph glyph-name="integral" unicode="&#x222b;" d="M189 -191 q-13 0 -32 2 q-19 2 -38 4 q-19 2 -34 4 l2 97 q11 0 26 -1 q15 -1 28 -1 q35 0 49.5 16.5 q14.5 16.5 14.5 59.5 l12 562 q2 73 16.5 115.5 q14.5 42.5 46.5 60.5 q32 18 85 18 q15 0 34 -2 q19 -2 38.5 -4 q19.5 -2 33.5 -5 l-2 -96 q-12 1 -28.5 1.5 q-16.5 0.5 -31.5 0.5 q-21 0 -34.5 -8.5 q-13.5 -8.5 -19.5 -28 q-6 -19.5 -6 -53.5 l-13 -561 q-2 -68 -17 -107.5 q-15 -39.5 -46.5 -56.5 q-31.5 -17 -83.5 -17 Z" /><glyph glyph-name="Omega" unicode="&#x2126;" d="M44 -6 l0 112 l100 0 q-14 18 -28.5 46.5 q-14.5 28.5 -27.5 64.5 q-13 36 -21 76.5 q-8 40.5 -8 82.5 q0 97 18 162.5 q18 65.5 66 99 q48 33.5 135 33.5 q88 0 135.5 -33.5 q47.5 -33.5 65.5 -99 q18 -65.5 18 -162.5 q0 -42 -8 -82.5 q-8 -40.5 -21 -76.5 q-13 -36 -28 -64.5 q-15 -28.5 -29 -46.5 l101 0 l0 -112 l-200 0 l0 102 q13 22 26.5 53 q13.5 31 26 67 q12.5 36 20 73 q7.5 37 7.5 71 q0 79 -8 126.5 q-8 47.5 -31.5 68.5 q-23.5 21 -74.5 21 q-51 0 -75 -21 q-24 -21 -31.5 -68.5 q-7.5 -47.5 -7.5 -126.5 q0 -34 7.5 -71 q7.5 -37 20 -73 q12.5 -36 26 -67 q13.5 -31 26.5 -53 l0 -102 l-200 0 Z" /><glyph glyph-name="Delta" unicode="&#x2206;" d="M37 0 l2 46 l132 614 l210 0 l137 -614 l2 -46 l-483 0 ZM180 111 l196 0 l-89 437 l-22 0 l-85 -437 Z" /><glyph glyph-name="product" unicode="&#x220f;" d="M81 -170 l0 815 l-61 0 l0 111 l516 0 l0 -111 l-62 0 l0 -815 l-122 0 l0 815 l-149 0 l0 -815 l-122 0 Z" /><glyph glyph-name="summation" unicode="&#x2211;" d="M33 -170 l0 128 l254 343 l-254 326 l0 129 l498 0 l0 -120 l-385 0 l14 15 l252 -312 l0 -76 l-253 -327 l-13 15 l385 0 l0 -121 l-498 0 Z" /><glyph glyph-name="radical" unicode="&#x221a;" d="M205 -133 l-160 580 l141 0 l109 -478 l-7 0 l189 814 l138 0 l-239 -916 l-171 0 ZM2 333 l0 114 l179 0 l0 -114 l-179 0 Z" /><glyph glyph-name="partialdiff" unicode="&#x2202;" d="M265 -11 q-110 0 -170 58 q-60 58 -60 170 q0 104 57 162 q57 58 160 58 q21 0 44.5 -3.5 q23.5 -3.5 46 -8 q22.5 -4.5 37.5 -9.5 q-5 101 -35 145.5 q-30 44.5 -98 44.5 q-24 0 -54.5 -7 q-30.5 -7 -59 -17 q-28.5 -10 -48.5 -20 l-5 100 q21 11 51 22.5 q30 11.5 64.5 20 q34.5 8.5 66.5 8.5 q86 0 140 -38.5 q54 -38.5 79.5 -119 q25.5 -80.5 25.5 -204.5 q0 -182 -56.5 -272 q-56.5 -90 -185.5 -90 ZM265 96 q59 0 87.5 52 q28.5 52 29.5 161 q-12 5 -32 10 q-20 5 -42.5 8 q-22.5 3 -45.5 3 q-51 0 -76.5 -31.5 q-25.5 -31.5 -25.5 -81.5 q0 -56 26.5 -88.5 q26.5 -32.5 78.5 -32.5 Z" /><glyph glyph-name="percent" unicode="%" d="M229 -37 l-47 12 l188 714 l48 -13 l-189 -713 ZM147 360 q-63 0 -93 37 q-30 37 -30 119 q0 81 30 117 q30 36 93 36 q43 0 70 -15.5 q27 -15.5 40 -49.5 q13 -34 13 -88 q0 -82 -30 -119 q-30 -37 -93 -37 ZM147 433 q14 0 22 7.5 q8 7.5 11.5 26 q3.5 18.5 3.5 49.5 q0 31 -3.5 48.5 q-3.5 17.5 -11.5 25 q-8 7.5 -22 7.5 q-14 0 -22 -7.5 q-8 -7.5 -11 -25 q-3 -17.5 -3 -48.5 q0 -31 3 -49.5 q3 -18.5 11 -26 q8 -7.5 22 -7.5 ZM455 -11 q-64 0 -94 37.5 q-30 37.5 -30 118.5 q0 82 30 118 q30 36 94 36 q42 0 69 -16 q27 -16 40.5 -50 q13.5 -34 13.5 -88 q0 -81 -30.5 -118.5 q-30.5 -37.5 -92.5 -37.5 ZM455 62 q13 0 21.5 7.5 q8.5 7.5 11.5 26 q3 18.5 3 49.5 q0 32 -3 49.5 q-3 17.5 -11 24 q-8 6.5 -22 6.5 q-15 0 -23 -6.5 q-8 -6.5 -11 -24 q-3 -17.5 -3 -49.5 q0 -31 3.5 -49.5 q3.5 -18.5 11.5 -26 q8 -7.5 22 -7.5 Z" /><glyph glyph-name="perthousand" unicode="&#x2030;" d="M739 -11 q-64 0 -94 37.5 q-30 37.5 -30 118.5 q0 82 30.5 118 q30.5 36 93.5 36 q42 0 69.5 -16 q27.5 -16 40.5 -50 q13 -34 13 -88 q0 -81 -30.5 -118.5 q-30.5 -37.5 -92.5 -37.5 ZM739 62 q14 0 22 7.5 q8 7.5 11 26 q3 18.5 3 49.5 q0 32 -3 49.5 q-3 17.5 -11 24 q-8 6.5 -22 6.5 q-14 0 -22 -6.5 q-8 -6.5 -11.5 -24 q-3.5 -17.5 -3.5 -49.5 q0 -31 3.5 -49.5 q3.5 -18.5 11.5 -26 q8 -7.5 22 -7.5 ZM235 -37 l-47 12 l188 714 l48 -13 l-189 -713 ZM153 360 q-63 0 -93 37 q-30 37 -30 119 q0 81 30 117 q30 36 93 36 q43 0 70 -15.5 q27 -15.5 40 -49.5 q13 -34 13 -88 q0 -82 -30 -119 q-30 -37 -93 -37 ZM153 433 q14 0 22 7.5 q8 7.5 11.5 26 q3.5 18.5 3.5 49.5 q0 31 -3.5 48.5 q-3.5 17.5 -11.5 25 q-8 7.5 -22 7.5 q-14 0 -22 -7.5 q-8 -7.5 -11 -25 q-3 -17.5 -3 -48.5 q0 -31 3 -49.5 q3 -18.5 11 -26 q8 -7.5 22 -7.5 ZM461 -11 q-64 0 -94 37.5 q-30 37.5 -30 118.5 q0 82 30 118 q30 36 94 36 q42 0 69 -16 q27 -16 40.5 -50 q13.5 -34 13.5 -88 q0 -81 -30.5 -118.5 q-30.5 -37.5 -92.5 -37.5 ZM461 62 q13 0 21.5 7.5 q8.5 7.5 11.5 26 q3 18.5 3 49.5 q0 32 -3 49.5 q-3 17.5 -11 24 q-8 6.5 -22 6.5 q-15 0 -23 -6.5 q-8 -6.5 -11 -24 q-3 -17.5 -3 -49.5 q0 -31 3.5 -49.5 q3.5 -18.5 11.5 -26 q8 -7.5 22 -7.5 Z" /><glyph glyph-name="lozenge" unicode="&#x25ca;" d="M197 0 l-165 327 l165 333 l163 0 l164 -333 l-164 -327 l-163 0 ZM268 109 l20 0 l104 218 l-104 224 l-20 0 l-104 -224 l104 -218 Z" /><glyph glyph-name="at" unicode="@" d="M509 -209 q-124 0 -213 24 q-89 24 -145.5 78.5 q-56.5 54.5 -83.5 145 q-27 90.5 -27 222.5 q0 127 31.5 216 q31.5 89 93 144 q61.5 55 149 79.5 q87.5 24.5 199.5 24.5 q155 0 254.5 -43.5 q99.5 -43.5 147 -136 q47.5 -92.5 47.5 -236.5 l0 -15 q0 -73 -8 -125 q-8 -52 -23 -85.5 q-15 -33.5 -39 -52.5 q-24 -19 -56 -27 q-32 -8 -72 -8 q-57 0 -91 18 q-34 18 -49 40 q-20 -13 -47.5 -26.5 q-27.5 -13.5 -58 -22 q-30.5 -8.5 -58.5 -8.5 q-42 0 -76.5 11 q-34.5 11 -60 38.5 q-25.5 27.5 -39 76 q-13.5 48.5 -13.5 123.5 q0 86 19 144 q19 58 62 86.5 q43 28.5 114 28.5 q30 0 63 -10 q33 -10 52 -21 l0 20 l134 0 l0 -192 q0 -66 2 -106.5 q2 -40.5 8.5 -60.5 q6.5 -20 19 -27 q12.5 -7 32.5 -7 q18 0 31.5 6.5 q13.5 6.5 22.5 25.5 q9 19 13.5 58 q4.5 39 4.5 103 l0 16 q0 87 -18.5 147 q-18.5 60 -58.5 97 q-40 37 -104 54 q-64 17 -155 17 q-91 0 -159.5 -18.5 q-68.5 -18.5 -114 -61 q-45.5 -42.5 -68.5 -112 q-23 -69.5 -23 -172.5 q0 -108 20.5 -179.5 q20.5 -71.5 63 -113.5 q42.5 -42 111.5 -59 q69 -17 166 -17 q16 0 41 1.5 q25 1.5 53 3.5 q28 2 49 4 l3 -101 q-20 -2 -47.5 -4 q-27.5 -2 -53.5 -3.5 q-26 -1.5 -45 -1.5 ZM482 108 q15 0 34 4.5 q19 4.5 38 12 q19 7.5 35 15.5 q-2 18 -4 41 q-2 23 -3 48 q-1 25 -1 49 l0 101 q-13 5 -34.5 9.5 q-21.5 4.5 -38.5 4.5 q-41 0 -63.5 -15.5 q-22.5 -15.5 -31 -47.5 q-8.5 -32 -8.5 -83 q0 -43 6.5 -70.5 q6.5 -27.5 17 -42.5 q10.5 -15 24.5 -20.5 q14 -5.5 29 -5.5 Z" /><glyph glyph-name="ampersand" unicode="&amp;" d="M288 -11 q-95 0 -152 23 q-57 23 -82.5 69 q-25.5 46 -25.5 117 q0 58 15.5 95.5 q15.5 37.5 46 61 q30.5 23.5 75.5 39.5 q-20 25 -30 45.5 q-10 20.5 -13 43 q-3 22.5 -3 51.5 q0 74 50 117.5 q50 43.5 154 43.5 q63 0 108.5 -17.5 q45.5 -17.5 70 -53.5 q24.5 -36 24.5 -93 q0 -46 -13.5 -77.5 q-13.5 -31.5 -46 -55 q-32.5 -23.5 -90.5 -45.5 l114 -111 q5 13 9.5 33.5 q4.5 20.5 8.5 42 q4 21.5 6 38.5 l116 -3 q-5 -33 -13 -67.5 q-8 -34.5 -17.5 -65.5 q-9.5 -31 -20.5 -55 l104 -96 l-46 -80 l-126 90 q-37 -44 -93 -67 q-56 -23 -130 -23 ZM292 101 q38 0 68 14 q30 14 49 42 l-171 163 q-26 -9 -42.5 -23 q-16.5 -14 -24.5 -33 q-8 -19 -8 -48 q0 -56 30.5 -85.5 q30.5 -29.5 98.5 -29.5 ZM305 419 q30 14 49.5 29 q19.5 15 29 34 q9.5 19 9.5 44 q0 38 -17 55.5 q-17 17.5 -54 17.5 q-35 0 -53.5 -18 q-18.5 -18 -18.5 -56 q0 -19 4 -34 q4 -15 16 -31.5 q12 -16.5 35 -40.5 Z" /><glyph glyph-name="paragraph" unicode="¶" d="M240 0 l0 279 l-7 0 q-58 0 -105 27.5 q-47 27.5 -73.5 74 q-26.5 46.5 -26.5 105.5 q0 60 27 107 q27 47 74 74 q47 27 105 27 l319 0 l0 -114 l-70 0 l0 -580 l-62 0 l-12 385 l-86 0 l-20 -385 l-63 0 Z" /><glyph glyph-name="section" unicode="§" d="M272 -168 q-33 0 -73 4.5 q-40 4.5 -77.5 12 q-37.5 7.5 -64.5 13.5 l11 101 q10 -2 28 -4.5 q18 -2.5 40 -5 q22 -2.5 45 -5 q23 -2.5 43.5 -4.5 q20.5 -2 33.5 -2 q45 0 70.5 16.5 q25.5 16.5 25.5 53.5 q0 24 -13 36 q-13 12 -42.5 20 q-29.5 8 -79.5 18 q-64 12 -103.5 29 q-39.5 17 -57.5 47 q-18 30 -18 80 q0 38 16.5 70.5 q16.5 32.5 36.5 51.5 q-23 21 -31.5 46.5 q-8.5 25.5 -8.5 63.5 q0 68 26.5 108 q26.5 40 75 58 q48.5 18 112.5 18 q31 0 68.5 -4 q37.5 -4 74 -10.5 q36.5 -6.5 62.5 -12.5 l-4 -101 q-29 4 -64.5 8 q-35.5 4 -66.5 6.5 q-31 2.5 -49 2.5 q-57 0 -79.5 -15.5 q-22.5 -15.5 -22.5 -50.5 q0 -24 11.5 -37.5 q11.5 -13.5 39.5 -21.5 q28 -8 75 -18 q65 -12 104.5 -28.5 q39.5 -16.5 58 -45 q18.5 -28.5 18.5 -78.5 q0 -40 -13 -75.5 q-13 -35.5 -31 -57.5 q19 -18 27.5 -39.5 q8.5 -21.5 8.5 -64.5 q0 -51 -15.5 -86 q-15.5 -35 -44 -56.5 q-28.5 -21.5 -67.5 -31 q-39 -9.5 -86 -9.5 ZM346 164 q7 12 12.5 32.5 q5.5 20.5 5.5 39.5 q0 23 -10.5 36 q-10.5 13 -31 20.5 q-20.5 7.5 -51.5 12.5 q-23 5 -42.5 9.5 q-19.5 4.5 -31.5 9.5 q-9 -11 -17 -30 q-8 -19 -8 -37 q0 -32 19.5 -45 q19.5 -13 65.5 -23 q16 -3 33 -7.5 q17 -4.5 32 -9 q15 -4.5 24 -8.5 Z" /><glyph glyph-name="copyright" unicode="©" d="M321 157 q-77 0 -137 37 q-60 37 -95 99.5 q-35 62.5 -35 140.5 q0 79 34.5 141.5 q34.5 62.5 95.5 99.5 q61 37 139 37 q80 0 140.5 -38 q60.5 -38 94 -101 q33.5 -63 33.5 -139 q0 -78 -34 -140.5 q-34 -62.5 -94 -99.5 q-60 -37 -142 -37 ZM328 273 q-44 0 -71 16 q-27 16 -39 52 q-12 36 -12 96 q0 56 12.5 90.5 q12.5 34.5 39.5 50.5 q27 16 72 16 q24 0 46 -4 q22 -4 32 -8 l-5 -67 q-12 2 -32 4.5 q-20 2.5 -37 2.5 q-21 0 -31.5 -9 q-10.5 -9 -14.5 -27.5 q-4 -18.5 -4 -48.5 q0 -45 10.5 -68 q10.5 -23 39.5 -23 q17 0 37 2.5 q20 2.5 32 3.5 l5 -64 q-10 -5 -32 -10 q-22 -5 -48 -5 ZM321 207 q64 0 113 31 q49 31 77 82.5 q28 51.5 28 113.5 q0 62 -28 114 q-28 52 -77.5 83 q-49.5 31 -111.5 31 q-63 0 -111.5 -31 q-48.5 -31 -77 -83 q-28.5 -52 -28.5 -114 q0 -62 28 -113.5 q28 -51.5 77 -82.5 q49 -31 111 -31 Z" /><glyph glyph-name="registered" unicode="®" d="M322 157 q-78 0 -138 37 q-60 37 -95 99.5 q-35 62.5 -35 140.5 q0 79 34.5 141.5 q34.5 62.5 95 99.5 q60.5 37 138.5 37 q81 0 141 -38 q60 -38 94 -101 q34 -63 34 -139 q0 -78 -34 -140.5 q-34 -62.5 -94 -99.5 q-60 -37 -141 -37 ZM322 207 q63 0 112 31 q49 31 77 82.5 q28 51.5 28 113.5 q0 62 -28 114 q-28 52 -77.5 83 q-49.5 31 -111.5 31 q-62 0 -111 -31 q-49 -31 -77.5 -83 q-28.5 -52 -28.5 -114 q0 -62 28.5 -113.5 q28.5 -51.5 78 -82.5 q49.5 -31 110.5 -31 ZM208 280 l0 307 l121 0 q51 0 82 -22 q31 -22 31 -77 q0 -38 -9.5 -59.5 q-9.5 -21.5 -35.5 -35.5 l50 -113 l-78 0 l-41 101 l-46 0 l0 -101 l-74 0 ZM281 438 l46 0 q23 0 33.5 11.5 q10.5 11.5 10.5 33.5 q0 24 -12 35.5 q-12 11.5 -39 11.5 l-39 0 l0 -92 Z" /><glyph glyph-name="trademark" unicode="&#x2122;" d="M300 331 l0 305 l84 0 l57 -188 l60 188 l83 0 l0 -305 l-64 0 l0 204 l-53 -187 l-48 0 l-54 187 l0 -204 l-65 0 ZM147 332 l0 242 l-75 0 l0 62 l200 0 l0 -62 l-56 0 l0 -242 l-69 0 Z" /><glyph glyph-name="degree" unicode="°" d="M278 408 q-64 0 -104.5 39.5 q-40.5 39.5 -40.5 104.5 q0 65 40.5 105 q40.5 40 104.5 40 q64 0 104.5 -40 q40.5 -40 40.5 -104 q0 -66 -40.5 -105.5 q-40.5 -39.5 -104.5 -39.5 ZM278 482 q32 0 51.5 19.5 q19.5 19.5 19.5 50.5 q0 32 -19.5 51.5 q-19.5 19.5 -51.5 19.5 q-31 0 -50 -19.5 q-19 -19.5 -19 -51.5 q0 -31 19 -50.5 q19 -19.5 50 -19.5 Z" /><glyph glyph-name="bar" unicode="|" d="M61 -221 l0 933 l131 0 l0 -933 l-131 0 Z" /><glyph glyph-name="brokenbar" unicode="¦" d="M61 330 l0 382 l132 0 l0 -382 l-132 0 ZM61 -221 l0 382 l132 0 l0 -382 l-132 0 Z" /><glyph glyph-name="dagger" unicode="&#x2020;" d="M186 -121 l-4 500 l-154 0 l0 118 l154 0 l0 186 l135 0 l0 -186 l155 0 l0 -118 l-155 0 l-3 -500 l-128 0 Z" /><glyph glyph-name="daggerdbl" unicode="&#x2021;" d="M198 -121 l0 186 l-155 0 l0 117 l155 0 l0 197 l-155 0 l0 118 l155 0 l0 186 l135 0 l0 -186 l155 0 l0 -118 l-155 0 l0 -197 l155 0 l0 -117 l-155 0 l0 -186 l-135 0 Z" /><glyph glyph-name="uni066A" unicode="&#x66a;" d="M222 -24 l-59 18 l218 694 l59 -19 l-218 -693 ZM401 86 l0 114 l123 0 l0 -114 l-123 0 ZM74 472 l0 115 l122 0 l0 -115 l-122 0 Z" /><glyph glyph-name="uni02BB" unicode="&#x2bb;" d="M208 771 l-36 -256 l-147 0 l73 256 l110 0 Z" /><glyph glyph-name="uni0326" unicode="&#xf6c3;" d="M4 -325 l34 242 l140 0 l-61 -242 l-113 0 Z" /><glyph glyph-name="dieresis" unicode="¨" d="M220 597 l0 115 l109 0 l0 -115 l-109 0 ZM15 597 l0 115 l109 0 l0 -115 l-109 0 Z" /><glyph glyph-name="dotaccent" unicode="&#x2d9;" d="M80 590 l0 114 l119 0 l0 -114 l-119 0 Z" /><glyph glyph-name="grave" unicode="`" d="M229 577 l-213 73 l76 101 l196 -99 l-59 -75 Z" /><glyph glyph-name="acute" unicode="´" d="M83 577 l-58 75 l195 99 l76 -101 l-213 -73 Z" /><glyph glyph-name="hungarumlaut" unicode="&#x2dd;" d="M289 572 l-85 27 l101 151 l108 -27 l-124 -151 ZM85 572 l-85 27 l102 151 l108 -27 l-125 -151 Z" /><glyph glyph-name="circumflex" unicode="&#x2c6;" d="M79 578 l111 151 l93 0 l116 -151 l-110 0 l-50 81 l-49 -81 l-111 0 Z" /><glyph glyph-name="caron" unicode="&#x2c7;" d="M190 578 l-111 151 l110 0 l50 -81 l50 81 l110 0 l-117 -151 l-92 0 Z" /><glyph glyph-name="breve" unicode="&#x2d8;" d="M159 571 q-52 0 -85.5 21 q-33.5 21 -49.5 54.5 q-16 33.5 -18 72.5 l84 4 q2 -30 19.5 -49.5 q17.5 -19.5 49.5 -19.5 q34 0 51.5 19.5 q17.5 19.5 18.5 49.5 l84 -4 q-2 -39 -18 -72.5 q-16 -33.5 -49 -54.5 q-33 -21 -87 -21 Z" /><glyph glyph-name="ring" unicode="&#x2da;" d="M178 541 q-50 0 -83 27.5 q-33 27.5 -33 75.5 q0 47 33 74.5 q33 27.5 83 27.5 q50 0 83 -27.5 q33 -27.5 33 -74.5 q0 -46 -32.5 -74.5 q-32.5 -28.5 -83.5 -28.5 ZM179 601 q19 0 32 12 q13 12 13 31 q0 18 -13 30 q-13 12 -32 12 q-19 0 -32.5 -12 q-13.5 -12 -13.5 -30 q0 -19 13.5 -31 q13.5 -12 32.5 -12 Z" /><glyph glyph-name="tilde" unicode="&#x2dc;" d="M237 587 q-16 0 -36 6.5 q-20 6.5 -40 15.5 q-20 9 -37.5 16 q-17.5 7 -29.5 7 q-14 0 -36.5 -13.5 q-22.5 -13.5 -39.5 -26.5 l-22 75 q17 19 45 38 q28 19 52 19 q18 0 38 -7 q20 -7 39.5 -15.5 q19.5 -8.5 36.5 -15.5 q17 -7 28 -7 q12 0 35 13 q23 13 39 26 l23 -76 q-16 -17 -43 -36 q-27 -19 -52 -19 Z" /><glyph glyph-name="macron" unicode="¯" d="M14 600 l0 93 l296 0 l0 -93 l-296 0 Z" /><glyph glyph-name="cedilla" unicode="¸" d="M265 -223 q-29 0 -57.5 2.5 q-28.5 2.5 -44.5 6.5 l3 60 q6 -1 26.5 -1.5 q20.5 -0.5 32.5 -0.5 q21 0 31 7.5 q10 7.5 10 23.5 q0 17 -10 22.5 q-10 5.5 -31 5.5 l-29 0 l0 102 l54 0 l0 -47 q63 -1 92.5 -16.5 q29.5 -15.5 29.5 -66.5 q0 -52 -28.5 -75 q-28.5 -23 -78.5 -23 Z" /><glyph glyph-name="ogonek" unicode="&#x2db;" d="M308 -212 q-36 0 -63 12 q-27 12 -41 33 q-14 21 -14 51 q0 29 15 54.5 q15 25.5 37.5 45.5 q22.5 20 44.5 33 l101 -11 q-19 -17 -35.5 -35.5 q-16.5 -18.5 -26.5 -36.5 q-10 -18 -10 -32 q0 -14 8 -22.5 q8 -8.5 25 -8.5 q10 0 24 2 q14 2 24 3 l11 -77 q-18 -3 -45.5 -7 q-27.5 -4 -54.5 -4 Z" /><glyph glyph-name="uni0615" unicode="&#x615;" d="M61 469 q0 33 15.5 58 q15.5 25 43 39.5 q27.5 14.5 59.5 14.5 q33 0 60 -14.5 q27 -14.5 43 -39.5 q16 -25 16 -58 l-64 0 q0 22 -15.5 37 q-15.5 15 -39.5 15 q-23 0 -43.5 -15 q-20.5 -15 -20.5 -37 l-54 0 ZM30 410 l0 59 l268 0 l0 -59 l-268 0 ZM61 469 l0 156 l64 0 l0 -156 l-64 0 Z" /><glyph glyph-name="dotabovear" unicode="&#xfbb2;" d="M20 582 l0 114 l134 0 l0 -114 l-134 0 Z" /><glyph glyph-name="threedotsdownabovear" unicode="&#xfbb8;" d="M114 535 l116 0 l0 -100 l-116 0 l0 100 ZM17 688 l129 0 l0 -114 l-129 0 l0 114 ZM199 688 l129 0 l0 -114 l-129 0 l0 114 Z" /><glyph glyph-name="threedotsdownbelowar" unicode="&#xfbb9;" d="M114 -132 l116 0 l0 -100 l-116 0 l0 100 ZM17 21 l129 0 l0 -114 l-129 0 l0 114 ZM199 21 l129 0 l0 -114 l-129 0 l0 114 Z" /><glyph glyph-name="threedotsupabovear" unicode="&#xfbb6;" d="M114 715 l0 100 l116 0 l0 -100 l-116 0 ZM17 562 l0 114 l129 0 l0 -114 l-129 0 ZM199 562 l0 114 l129 0 l0 -114 l-129 0 Z" /><glyph glyph-name="uni0670" unicode="&#x670;" d="M20 461 l0 139 l45 0 l0 -139 l-45 0 Z" /><glyph glyph-name="uni0654" unicode="&#x654;" d="M81 478 q-19 23 -29 44 q-10 21 -10 45 q0 34 18 61.5 q18 27.5 47 43 q29 15.5 64 15.5 q19 0 39 -5 q20 -5 34 -15 l-34 -61 q-9 5 -17.5 6.5 q-8.5 1.5 -17.5 1.5 q-24 0 -37 -12.5 q-13 -12.5 -13 -33.5 q0 -12 5 -23 q5 -11 15 -24 l-64 -43 ZM20 470 l0 73 l242 0 l0 -73 l-242 0 Z" /><glyph glyph-name="uni064C" unicode="&#x64c;" d="M73 543 l-33 35 l7 61 l33 -35 l-7 -61 ZM52 537 l0 45 l84 0 l0 -45 l-84 0 ZM134 537 q-15 69 1 111.5 q16 42.5 72 42.5 q56 0 72 -42.5 q16 -42.5 2 -111.5 l-45 9 q13 57 5 78.5 q-8 21.5 -34 21.5 q-26 0 -33.5 -21.5 q-7.5 -21.5 4.5 -77.5 l-44 -10 ZM58 537 l0 45 l223 0 l0 -45 l-223 0 Z" /><glyph glyph-name="uni064E" unicode="&#x64e;" d="M20 537 l0 45 l222 0 l0 -45 l-222 0 Z" /><glyph glyph-name="uni064F" unicode="&#x64f;" d="M95 537 q-15 69 1 111.5 q16 42.5 72 42.5 q57 0 72.5 -42.5 q15.5 -42.5 1.5 -111.5 l-44 9 q12 57 4 78.5 q-8 21.5 -34 21.5 q-26 0 -33.5 -21.5 q-7.5 -21.5 4.5 -77.5 l-44 -10 ZM20 537 l0 45 l222 0 l0 -45 l-222 0 Z" /><glyph glyph-name="uni0651" unicode="&#x651;" d="M180 423 q-36 0 -55 27.5 q-19 27.5 -19 76.5 l0 34 l45 0 l0 -34 q0 -34 8 -46.5 q8 -12.5 21 -12.5 q21 0 28.5 27 q7.5 27 -2.5 87 l44 9 q14 -79 -3 -123.5 q-17 -44.5 -67 -44.5 ZM76 423 q-49 0 -66.5 44.5 q-17.5 44.5 -3.5 123.5 l45 -9 q-11 -60 -3 -87 q8 -27 28 -27 q14 0 22 12.5 q8 12.5 8 46.5 l0 34 l45 0 l0 -34 q0 -49 -19 -76.5 q-19 -27.5 -56 -27.5 Z" /><glyph glyph-name="uni0652" unicode="&#x652;" d="M106 437 q-27 0 -50 13 q-23 13 -36.5 35.5 q-13.5 22.5 -13.5 48.5 q0 28 13.5 50 q13.5 22 36.5 36 q23 14 50 14 q27 0 49.5 -13.5 q22.5 -13.5 35.5 -36 q13 -22.5 13 -50.5 q0 -40 -29 -68.5 q-29 -28.5 -69 -28.5 ZM106 482 q22 0 37.5 15.5 q15.5 15.5 15.5 36.5 q0 23 -15.5 38.5 q-15.5 15.5 -37.5 15.5 q-23 0 -39 -15.5 q-16 -15.5 -16 -38.5 q0 -21 16 -36.5 q16 -15.5 39 -15.5 Z" /><glyph glyph-name="uni0653" unicode="&#x653;" d="M82 537 l-53 40 l53 79 l77 0 q14 -11 33 -17 q19 -6 39 -6 q20 0 38.5 6 q18.5 6 31.5 17 l42 -30 q-12 -20 -30.5 -37.5 q-18.5 -17.5 -43.5 -28 q-25 -10.5 -58 -10.5 q-24 0 -46 6.5 q-22 6.5 -40 19.5 l-43 -39 Z" /><glyph glyph-name="uni0658" unicode="&#x658;" d="M123 371 q-24 0 -48 9 q-24 9 -39.5 27.5 q-15.5 18.5 -15.5 46.5 q0 6 1 20 q1 14 4 30 l44 -7 q-1 -12 -2.5 -24 q-1.5 -12 -1.5 -19 q0 -16 16 -27 q16 -11 42 -11 q26 0 42 11 q16 11 16 27 q0 9 -1 20 q-1 11 -3 21 l44 9 q3 -16 4 -30 q1 -14 1 -20 q0 -28 -16 -46.5 q-16 -18.5 -39 -27.5 q-23 -9 -48 -9 Z" /><glyph glyph-name="uniF6BE" unicode="&#xf6be;" d="M-4 -226 l-39 74 q46 28 70 49.5 q24 21.5 33 48 q9 26.5 9 71.5 l0 483 l97 0 l0 -484 q0 -50 -8.5 -85.5 q-8.5 -35.5 -28.5 -61.5 q-20 -26 -52.5 -48 q-32.5 -22 -80.5 -47 Z" /></font>
</defs>
</svg>
