<?xml version="1.0" standalone="no"?><!DOCTYPE svg PUBLIC "-//W3C//DTD SVG 1.1//EN" "http://www.w3.org/Graphics/SVG/1.1/DTD/svg11.dtd" ><svg xmlns="http://www.w3.org/2000/svg"><metadata></metadata><defs><font id="3.117;1KTF;Cairo-Black" horiz-adv-x="1893"><font-face font-family="Cairo Black" font-weight="900" font-stretch="normal" units-per-em="1000" panose-1="0 0 0 0 0 0 0 0 0 0" ascent="1303" descent="-571" x-height="0" bbox="-152 -477 1913 1097" underline-thickness="50" underline-position="-100" unicode-range="U+0000-fefc" /><missing-glyph horiz-adv-x="235" d="M21 709 l186 0 l0 -709 l-186 0 l0 709 ZM41 689 l0 -669 l146 0 l0 669 l-146 0 Z" /><glyph glyph-name="A" unicode="A" d="M5 0 l163 677 l287 0 l164 -677 l-179 0 l-30 112 l-202 0 l-28 -112 l-175 0 ZM233 251 l156 0 l-60 285 l-34 0 l-62 -285 Z" /><glyph glyph-name="AE" unicode="Æ" d="M4 0 l174 679 l674 0 l0 -146 l-298 0 l0 -119 l238 0 l0 -141 l-238 0 l0 -127 l298 0 l0 -146 l-471 0 l0 111 l-170 0 l-31 -111 l-176 0 ZM238 254 l142 0 l1 279 l-77 0 l-66 -279 Z" /><glyph glyph-name="B" unicode="B" d="M49 0 l0 677 l285 0 q68 0 120 -16 q52 -16 81.5 -53 q29.5 -37 29.5 -100 q0 -42 -7 -70.5 q-7 -28.5 -23 -50 q-16 -21.5 -45 -39.5 q30 -12 51 -30 q21 -18 32 -47.5 q11 -29.5 11 -79.5 q0 -56 -19 -93 q-19 -37 -52.5 -58.5 q-33.5 -21.5 -77.5 -30.5 q-44 -9 -94 -9 l-292 0 ZM227 125 l99 0 q30 0 49 6.5 q19 6.5 28.5 24.5 q9.5 18 9.5 50 q0 24 -7 39 q-7 15 -19 23 q-12 8 -28 11.5 q-16 3.5 -34 3.5 l-98 0 l0 -158 ZM227 401 l96 0 q42 0 60 20 q18 20 18 60 q0 39 -19.5 56 q-19.5 17 -61.5 17 l-93 0 l0 -153 Z" /><glyph glyph-name="C" unicode="C" d="M307 -12 q-81 0 -134 19 q-53 19 -84 60.5 q-31 41.5 -44 108.5 q-13 67 -13 163 q0 96 13 162.5 q13 66.5 44 108 q31 41.5 85.5 61 q54.5 19.5 138.5 19.5 q31 0 67.5 -4 q36.5 -4 71.5 -10 q35 -6 61 -12 l-5 -139 q-18 3 -46.5 6 q-28.5 3 -58.5 5 q-30 2 -57 2 q-41 0 -67.5 -9.5 q-26.5 -9.5 -41 -32 q-14.5 -22.5 -19.5 -60.5 q-5 -38 -5 -97 q0 -58 5 -96.5 q5 -38.5 19.5 -61 q14.5 -22.5 41 -32 q26.5 -9.5 68.5 -9.5 q40 0 86.5 3.5 q46.5 3.5 76.5 6.5 l3 -138 q-23 -5 -57 -11 q-34 -6 -73 -9.5 q-39 -3.5 -76 -3.5 Z" /><glyph glyph-name="D" unicode="D" d="M49 0 l0 677 l270 0 q83 0 141 -21 q58 -21 93.5 -62.5 q35.5 -41.5 51.5 -103 q16 -61.5 16 -141.5 q0 -81 -15 -145 q-15 -64 -49 -110 q-34 -46 -91 -70 q-57 -24 -140 -24 l-277 0 ZM227 147 l86 0 q42 0 67.5 15 q25.5 15 38.5 42 q13 27 17 64 q4 37 4 81 q0 42 -5 75.5 q-5 33.5 -18 57.5 q-13 24 -38 36 q-25 12 -66 12 l-86 0 l0 -383 Z" /><glyph glyph-name="Eth" unicode="Ð" d="M6 284 l0 116 l318 0 l0 -116 l-318 0 ZM55 0 l0 677 l270 0 q83 0 141 -21 q58 -21 93 -62.5 q35 -41.5 51 -103 q16 -61.5 16 -141.5 q0 -81 -14.5 -145 q-14.5 -64 -49 -110 q-34.5 -46 -91 -70 q-56.5 -24 -140.5 -24 l-276 0 ZM233 147 l86 0 q42 0 67.5 15 q25.5 15 38 42 q12.5 27 17 64 q4.5 37 4.5 81 q0 42 -5 75.5 q-5 33.5 -18 57.5 q-13 24 -38 36 q-25 12 -66 12 l-86 0 l0 -383 Z" /><glyph glyph-name="Dcroat" unicode="&#x110;" d="M6 284 l0 116 l318 0 l0 -116 l-318 0 ZM55 0 l0 677 l270 0 q83 0 141 -21 q58 -21 93 -62.5 q35 -41.5 51 -103 q16 -61.5 16 -141.5 q0 -81 -14.5 -145 q-14.5 -64 -49 -110 q-34.5 -46 -91 -70 q-56.5 -24 -140.5 -24 l-276 0 ZM233 147 l86 0 q42 0 67.5 15 q25.5 15 38 42 q12.5 27 17 64 q4.5 37 4.5 81 q0 42 -5 75.5 q-5 33.5 -18 57.5 q-13 24 -38 36 q-25 12 -66 12 l-86 0 l0 -383 Z" /><glyph glyph-name="E" unicode="E" d="M49 0 l0 677 l474 0 l0 -144 l-296 0 l0 -120 l236 0 l0 -143 l-236 0 l0 -125 l296 0 l0 -145 l-474 0 Z" /><glyph glyph-name="F" unicode="F" d="M49 0 l0 677 l459 0 l0 -147 l-281 0 l0 -164 l224 0 l0 -147 l-224 0 l0 -219 l-178 0 Z" /><glyph glyph-name="G" unicode="G" d="M330 -9 q-91 0 -149 21.5 q-58 21.5 -91 65 q-33 43.5 -46 109 q-13 65.5 -13 152.5 q0 94 15.5 160.5 q15.5 66.5 51 108.5 q35.5 42 92.5 62 q57 20 139 20 q41 0 87 -5 q46 -5 87.5 -12 q41.5 -7 70.5 -15 l-1 -136 q-29 4 -70 7.5 q-41 3.5 -83 6 q-42 2.5 -75 2.5 q-45 0 -71.5 -11 q-26.5 -11 -40 -34.5 q-13.5 -23.5 -18 -61.5 q-4.5 -38 -4.5 -92 q0 -68 9.5 -112.5 q9.5 -44.5 37.5 -66.5 q28 -22 80 -22 q11 0 24 1 q13 1 25.5 2.5 q12.5 1.5 22.5 2.5 l0 106 l-59 0 l-1 130 l227 0 l0 -362 q-25 -4 -58 -9 q-33 -5 -68 -9 q-35 -4 -66.5 -6.5 q-31.5 -2.5 -54.5 -2.5 Z" /><glyph glyph-name="Gdotaccent" unicode="&#x120;" d="M234 753 l0 130 l148 0 l0 -130 l-148 0 ZM330 -9 q-91 0 -149 21.5 q-58 21.5 -91 65 q-33 43.5 -46 109 q-13 65.5 -13 152.5 q0 94 15.5 160.5 q15.5 66.5 51 108.5 q35.5 42 92.5 62 q57 20 139 20 q41 0 87 -5 q46 -5 87.5 -12 q41.5 -7 70.5 -15 l-1 -136 q-29 4 -70 7.5 q-41 3.5 -83 6 q-42 2.5 -75 2.5 q-45 0 -71.5 -11 q-26.5 -11 -40 -34.5 q-13.5 -23.5 -18 -61.5 q-4.5 -38 -4.5 -92 q0 -68 9.5 -112.5 q9.5 -44.5 37.5 -66.5 q28 -22 80 -22 q11 0 24 1 q13 1 25.5 2.5 q12.5 1.5 22.5 2.5 l0 106 l-59 0 l-1 130 l227 0 l0 -362 q-25 -4 -58 -9 q-33 -5 -68 -9 q-35 -4 -66.5 -6.5 q-31.5 -2.5 -54.5 -2.5 Z" /><glyph glyph-name="H" unicode="H" d="M49 0 l0 677 l178 0 l0 -268 l208 0 l0 268 l178 0 l0 -677 l-178 0 l0 262 l-208 0 l0 -262 l-178 0 Z" /><glyph glyph-name="Hbar" unicode="&#x126;" d="M8 485 l0 109 l654 0 l0 -109 l-654 0 ZM52 0 l0 677 l178 0 l0 -268 l208 0 l0 268 l178 0 l0 -677 l-178 0 l0 262 l-208 0 l0 -262 l-178 0 Z" /><glyph glyph-name="I" unicode="I" d="M49 0 l0 677 l178 0 l0 -677 l-178 0 Z" /><glyph glyph-name="Idotaccent" unicode="&#x130;" d="M65 739 l0 130 l147 0 l0 -130 l-147 0 ZM49 0 l0 677 l178 0 l0 -677 l-178 0 Z" /><glyph glyph-name="J" unicode="J" d="M16 -34 l0 148 q21 0 35 5 q14 5 21.5 18 q7.5 13 10.5 39.5 q3 26.5 3 69.5 l0 431 l178 0 l0 -529 q0 -63 -16.5 -99.5 q-16.5 -36.5 -48 -54.5 q-31.5 -18 -77.5 -23 q-46 -5 -106 -5 Z" /><glyph glyph-name="K" unicode="K" d="M49 0 l0 677 l178 0 l0 -266 l66 1 l110 265 l181 0 l-138 -332 l149 -345 l-184 0 l-117 252 l-67 -2 l0 -250 l-178 0 Z" /><glyph glyph-name="uni0136" unicode="&#x136;" d="M191 -269 l28 212 l158 0 l-57 -212 l-129 0 ZM49 0 l0 677 l178 0 l0 -266 l66 1 l110 265 l181 0 l-138 -332 l149 -345 l-184 0 l-117 252 l-67 -2 l0 -250 l-178 0 Z" /><glyph glyph-name="L" unicode="L" d="M49 0 l0 677 l178 0 l0 -530 l248 0 l0 -147 l-426 0 Z" /><glyph glyph-name="Lcaron" unicode="&#x13d;" d="M335 478 l13 223 l158 0 l-40 -223 l-131 0 ZM49 0 l0 677 l178 0 l0 -530 l248 0 l0 -147 l-426 0 Z" /><glyph glyph-name="uni013B" unicode="&#x13b;" d="M157 -269 l28 212 l159 0 l-58 -212 l-129 0 ZM49 0 l0 677 l178 0 l0 -530 l248 0 l0 -147 l-426 0 Z" /><glyph glyph-name="Lslash" unicode="&#x141;" d="M14 179 l-14 140 l329 186 l14 -139 l-329 -187 ZM54 0 l0 677 l178 0 l0 -530 l247 0 l0 -147 l-425 0 Z" /><glyph glyph-name="M" unicode="M" d="M49 0 l0 677 l274 0 l102 -371 l95 371 l281 0 l0 -677 l-178 0 l0 438 l-13 0 l-107 -425 l-157 0 l-106 425 l-13 0 l0 -438 l-178 0 Z" /><glyph glyph-name="N" unicode="N" d="M49 0 l0 677 l200 0 l192 -384 l16 0 l0 384 l178 0 l0 -677 l-200 0 l-191 396 l-17 0 l0 -396 l-178 0 Z" /><glyph glyph-name="uni0145" unicode="&#x145;" d="M256 -269 l27 212 l159 0 l-57 -212 l-129 0 ZM49 0 l0 677 l200 0 l192 -384 l16 0 l0 384 l178 0 l0 -677 l-200 0 l-191 396 l-17 0 l0 -396 l-178 0 Z" /><glyph glyph-name="Eng" unicode="&#x14a;" d="M408 -250 l-46 135 q31 9 50.5 16.5 q19.5 7.5 29.5 18 q10 10.5 13.5 29 q3.5 18.5 3.5 49.5 l0 25 l176 0 l0 -25 q0 -68 -10.5 -110.5 q-10.5 -42.5 -36 -67.5 q-25.5 -25 -69.5 -40 q-44 -15 -111 -30 ZM49 0 l0 677 l200 0 l192 -384 l16 0 l0 384 l178 0 l0 -677 l-200 0 l-191 396 l-17 0 l0 -396 l-178 0 Z" /><glyph glyph-name="O" unicode="O" d="M333 -12 q-109 0 -175.5 37.5 q-66.5 37.5 -97 115 q-30.5 77.5 -30.5 196.5 q0 120 30 198 q30 78 97 116.5 q67 38.5 176 38.5 q110 0 176.5 -38.5 q66.5 -38.5 96.5 -116.5 q30 -78 30 -198 q0 -120 -30 -197.5 q-30 -77.5 -96 -114.5 q-66 -37 -177 -37 ZM333 135 q53 0 79 22.5 q26 22.5 35 68 q9 45.5 9 111.5 q0 67 -9 113 q-9 46 -35 69.5 q-26 23.5 -79 23.5 q-51 0 -77.5 -23.5 q-26.5 -23.5 -35.5 -69.5 q-9 -46 -9 -113 q0 -65 9 -110.5 q9 -45.5 35 -68.5 q26 -23 78 -23 Z" /><glyph glyph-name="Oslash" unicode="Ø" d="M306 396 l26 155 l237 173 l-17 -98 l-246 -230 ZM247 -75 l-159 36 l98 226 l175 -10 l-114 -252 ZM333 -12 q-109 0 -175.5 37.5 q-66.5 37.5 -97 115 q-30.5 77.5 -30.5 196.5 q0 120 30 198 q30 78 97 116.5 q67 38.5 176 38.5 q110 0 176.5 -38.5 q66.5 -38.5 96.5 -116.5 q30 -78 30 -198 q0 -120 -30 -197.5 q-30 -77.5 -96 -114.5 q-66 -37 -177 -37 ZM333 135 q53 0 79 22.5 q26 22.5 35 68 q9 45.5 9 111.5 q0 67 -9 113 q-9 46 -35 69.5 q-26 23.5 -79 23.5 q-51 0 -77.5 -23.5 q-26.5 -23.5 -35.5 -69.5 q-9 -46 -9 -113 q0 -65 9 -110.5 q9 -45.5 35 -68.5 q26 -23 78 -23 Z" /><glyph glyph-name="Oslashacute" unicode="&#x1fe;" d="M306 396 l26 155 l237 173 l-17 -98 l-246 -230 ZM247 -75 l-159 36 l98 226 l175 -10 l-114 -252 ZM363 786 l-120 20 l106 122 l163 -24 l-149 -118 ZM333 -12 q-109 0 -175.5 37.5 q-66.5 37.5 -97 115 q-30.5 77.5 -30.5 196.5 q0 120 30 198 q30 78 97 116.5 q67 38.5 176 38.5 q110 0 176.5 -38.5 q66.5 -38.5 96.5 -116.5 q30 -78 30 -198 q0 -120 -30 -197.5 q-30 -77.5 -96 -114.5 q-66 -37 -177 -37 ZM333 135 q53 0 79 22.5 q26 22.5 35 68 q9 45.5 9 111.5 q0 67 -9 113 q-9 46 -35 69.5 q-26 23.5 -79 23.5 q-51 0 -77.5 -23.5 q-26.5 -23.5 -35.5 -69.5 q-9 -46 -9 -113 q0 -65 9 -110.5 q9 -45.5 35 -68.5 q26 -23 78 -23 Z" /><glyph glyph-name="OE" unicode="&#x152;" d="M301 -12 q-107 0 -166 38.5 q-59 38.5 -82 117 q-23 78.5 -23 199.5 q0 124 24.5 200 q24.5 76 84.5 111 q60 35 168 35 q18 0 47.5 -1.5 q29.5 -1.5 62.5 -4.5 q33 -3 59 -6 l396 0 l0 -144 l-274 0 l0 -120 l214 0 l0 -142 l-214 0 l0 -126 l274 0 l0 -145 l-394 0 q-23 -3 -55 -6 q-32 -3 -64.5 -4.5 q-32.5 -1.5 -57.5 -1.5 ZM347 135 q6 0 15.5 0 q9.5 0 20 0.5 q10.5 0.5 20 1.5 q9.5 1 17.5 1 l0 401 q-5 0 -15.5 1 q-10.5 1 -22.5 1.5 q-12 0.5 -21.5 1 q-9.5 0.5 -14.5 0.5 q-58 0 -88 -19 q-30 -19 -40.5 -63 q-10.5 -44 -10.5 -119 q0 -72 8.5 -118 q8.5 -46 38 -67.5 q29.5 -21.5 93.5 -21.5 Z" /><glyph glyph-name="P" unicode="P" d="M49 0 l0 677 l260 0 q91 0 152 -22.5 q61 -22.5 92 -76 q31 -53.5 31 -148.5 q0 -95 -31 -151 q-31 -56 -92 -80.5 q-61 -24.5 -152 -24.5 l-82 0 l0 -174 l-178 0 ZM227 317 l75 0 q54 0 77.5 27 q23.5 27 23.5 85 q0 59 -23 82.5 q-23 23.5 -78 23.5 l-75 0 l0 -218 Z" /><glyph glyph-name="Thorn" unicode="Þ" d="M49 0 l0 679 l174 0 l0 -85 l84 0 q91 0 151.5 -22.5 q60.5 -22.5 91 -76 q30.5 -53.5 30.5 -148.5 q0 -95 -30.5 -151.5 q-30.5 -56.5 -91 -81.5 q-60.5 -25 -151.5 -25 l-84 0 l0 -89 l-174 0 ZM223 234 l77 0 q56 0 80 28 q24 28 24 84 q0 58 -24 80.5 q-24 22.5 -80 22.5 l-77 0 l0 -215 Z" /><glyph glyph-name="Q" unicode="Q" d="M474 -154 l-95 146 q-10 -2 -22 -3 q-12 -1 -26 -1 q-110 0 -176 37 q-66 37 -95.5 114.5 q-29.5 77.5 -29.5 197.5 q0 121 29.5 199 q29.5 78 95.5 116 q66 38 176 38 q111 0 177.5 -38 q66.5 -38 96 -116 q29.5 -78 29.5 -199 q0 -110 -23.5 -183.5 q-23.5 -73.5 -78.5 -112.5 l82 -126 l-140 -69 ZM331 135 q52 0 78.5 22.5 q26.5 22.5 35.5 68 q9 45.5 9 111.5 q0 66 -9 112 q-9 46 -35.5 70 q-26.5 24 -78.5 24 q-51 0 -77.5 -24 q-26.5 -24 -36.5 -69.5 q-10 -45.5 -10 -112.5 q0 -66 9.5 -111 q9.5 -45 36.5 -68 q27 -23 78 -23 Z" /><glyph glyph-name="R" unicode="R" d="M49 0 l0 677 l273 0 q89 0 148 -20.5 q59 -20.5 88.5 -71 q29.5 -50.5 29.5 -141.5 q0 -73 -23.5 -122 q-23.5 -49 -69.5 -76 l89 -246 l-183 0 l-68 205 l-106 0 l0 -205 l-178 0 ZM227 348 l100 0 q29 0 46.5 12 q17.5 12 25.5 33.5 q8 21.5 8 49.5 q0 46 -20.5 69 q-20.5 23 -64.5 23 l-95 0 l0 -187 Z" /><glyph glyph-name="S" unicode="S" d="M292 -12 q-44 0 -92.5 5 q-48.5 5 -92.5 12.5 q-44 7.5 -74 13.5 l9 137 q32 -3 74.5 -8 q42.5 -5 85.5 -8.5 q43 -3.5 75 -3.5 q46 0 65.5 15.5 q19.5 15.5 19.5 47.5 q0 18 -8 28.5 q-8 10.5 -30.5 18 q-22.5 7.5 -64.5 14.5 q-86 15 -137 38 q-51 23 -73 64.5 q-22 41.5 -22 109.5 q0 86 30.5 133 q30.5 47 86.5 66 q56 19 133 19 q36 0 81.5 -4 q45.5 -4 89 -9 q43.5 -5 75.5 -11 l-7 -140 q-30 3 -70.5 6.5 q-40.5 3.5 -81.5 6.5 q-41 3 -72 3 q-45 0 -65 -12 q-20 -12 -20 -39 q0 -20 9 -31.5 q9 -11.5 31.5 -19 q22.5 -7.5 64.5 -17.5 q65 -14 109 -29 q44 -15 70.5 -37 q26.5 -22 38.5 -56.5 q12 -34.5 12 -88.5 q0 -82 -29 -131.5 q-29 -49.5 -85 -71 q-56 -21.5 -136 -21.5 Z" /><glyph glyph-name="uni0218" unicode="&#x218;" d="M190 -269 l27 212 l159 0 l-58 -212 l-128 0 ZM292 -12 q-44 0 -92.5 5 q-48.5 5 -92.5 12.5 q-44 7.5 -74 13.5 l9 137 q32 -3 74.5 -8 q42.5 -5 85.5 -8.5 q43 -3.5 75 -3.5 q46 0 65.5 15.5 q19.5 15.5 19.5 47.5 q0 18 -8 28.5 q-8 10.5 -30.5 18 q-22.5 7.5 -64.5 14.5 q-86 15 -137 38 q-51 23 -73 64.5 q-22 41.5 -22 109.5 q0 86 30.5 133 q30.5 47 86.5 66 q56 19 133 19 q36 0 81.5 -4 q45.5 -4 89 -9 q43.5 -5 75.5 -11 l-7 -140 q-30 3 -70.5 6.5 q-40.5 3.5 -81.5 6.5 q-41 3 -72 3 q-45 0 -65 -12 q-20 -12 -20 -39 q0 -20 9 -31.5 q9 -11.5 31.5 -19 q22.5 -7.5 64.5 -17.5 q65 -14 109 -29 q44 -15 70.5 -37 q26.5 -22 38.5 -56.5 q12 -34.5 12 -88.5 q0 -82 -29 -131.5 q-29 -49.5 -85 -71 q-56 -21.5 -136 -21.5 Z" /><glyph glyph-name="T" unicode="T" d="M174 0 l0 530 l-164 0 l0 147 l500 0 l0 -147 l-158 0 l0 -530 l-178 0 Z" /><glyph glyph-name="Tbar" unicode="&#x166;" d="M88 228 l0 113 l353 0 l0 -113 l-353 0 ZM175 0 l0 530 l-164 0 l0 147 l500 0 l0 -147 l-158 0 l0 -530 l-178 0 Z" /><glyph glyph-name="uni021A" unicode="&#x21a;" d="M163 -269 l28 212 l159 0 l-58 -212 l-129 0 ZM174 0 l0 530 l-164 0 l0 147 l500 0 l0 -147 l-158 0 l0 -530 l-178 0 Z" /><glyph glyph-name="U" unicode="U" d="M321 -12 q-90 0 -151.5 22.5 q-61.5 22.5 -93 75.5 q-31.5 53 -31.5 144 l0 447 l178 0 l0 -454 q0 -46 24.5 -66.5 q24.5 -20.5 73.5 -20.5 q51 0 75 20.5 q24 20.5 24 66.5 l0 454 l178 0 l0 -445 q0 -90 -31.5 -144 q-31.5 -54 -93 -77 q-61.5 -23 -152.5 -23 Z" /><glyph glyph-name="V" unicode="V" d="M156 0 l-152 677 l188 0 l89 -501 l32 0 l86 501 l188 0 l-148 -677 l-283 0 Z" /><glyph glyph-name="W" unicode="W" d="M115 0 l-100 677 l178 0 l62 -501 l21 0 l79 493 l197 0 l82 -493 l21 0 l54 501 l180 0 l-97 -677 l-270 0 l-70 487 l-2 0 l-70 -487 l-265 0 Z" /><glyph glyph-name="X" unicode="X" d="M1 0 l168 327 l-168 350 l185 0 l100 -222 l112 222 l178 0 l-169 -330 l163 -347 l-186 0 l-99 216 l-101 -216 l-183 0 Z" /><glyph glyph-name="Y" unicode="Y" d="M196 0 l0 238 l-201 439 l191 0 l100 -241 l103 241 l190 0 l-205 -439 l0 -238 l-178 0 Z" /><glyph glyph-name="Z" unicode="Z" d="M28 0 l0 148 l269 364 l0 18 l-269 0 l0 147 l501 0 l0 -154 l-267 -358 l0 -18 l267 0 l0 -147 l-501 0 Z" /><glyph glyph-name="a" unicode="a" d="M190 -12 q-85 0 -127 40 q-42 40 -42 124 q0 60 22.5 92 q22.5 32 65.5 45 q43 13 103 16 l101 7 l0 22 q0 25 -15.5 35 q-15.5 10 -43.5 10 q-30 0 -68 -2 q-38 -2 -74 -5 q-36 -3 -63 -6 l-5 119 q28 7 66.5 14 q38.5 7 80.5 11.5 q42 4.5 79 4.5 q67 0 115.5 -15 q48.5 -15 74 -52 q25.5 -37 25.5 -104 l0 -212 q3 -9 13.5 -15 q10.5 -6 22.5 -8 l-3 -113 q-24 -3 -51 -4.5 q-27 -1.5 -42 0.5 q-30 1 -50 11.5 q-20 10.5 -29 20.5 q-15 -7 -40 -15.5 q-25 -8.5 -55 -14.5 q-30 -6 -61 -6 ZM234 110 q15 0 29.5 3.5 q14.5 3.5 28 8.5 q13.5 5 21.5 9 l0 82 l-73 -7 q-24 -2 -35.5 -14.5 q-11.5 -12.5 -11.5 -34.5 q0 -22 10 -34.5 q10 -12.5 31 -12.5 Z" /><glyph glyph-name="ae" unicode="æ" d="M184 -12 q-76 0 -119.5 40.5 q-43.5 40.5 -43.5 123.5 q0 64 22 95 q22 31 66.5 43.5 q44.5 12.5 110.5 16.5 l89 5 l0 21 q0 23 -15 33 q-15 10 -43 10 q-30 0 -67.5 -1.5 q-37.5 -1.5 -73 -4.5 q-35.5 -3 -60.5 -6 l-5 123 q27 6 65.5 12.5 q38.5 6.5 79.5 11 q41 4.5 77 4.5 q50 0 84.5 -9.5 q34.5 -9.5 54.5 -32.5 q25 22 58.5 32 q33.5 10 76.5 10 q119 0 179.5 -56 q60.5 -56 60.5 -177 l-8 -84 l-303 0 q0 -40 18 -59 q18 -19 60 -19 q31 0 71 1.5 q40 1.5 79 3.5 q39 2 66 4 l4 -116 q-26 -5 -66 -11 q-40 -6 -84.5 -10 q-44.5 -4 -83.5 -4 q-51 0 -86.5 10.5 q-35.5 10.5 -58.5 30.5 q-29 -10 -63 -19.5 q-34 -9.5 -70 -15.5 q-36 -6 -72 -6 ZM228 112 q13 0 26 2.5 q13 2.5 25.5 6 q12.5 3.5 21.5 7 q9 3.5 14 6.5 q-4 15 -5 36 q-1 21 -1 41 l-73 -6 q-23 -2 -35 -13.5 q-12 -11.5 -12 -34.5 q0 -22 10 -33.5 q10 -11.5 29 -11.5 ZM469 299 l141 0 q0 50 -16.5 70.5 q-16.5 20.5 -52.5 20.5 q-37 0 -54 -21.5 q-17 -21.5 -18 -69.5 Z" /><glyph glyph-name="b" unicode="b" d="M265 -12 q-27 0 -67 3 q-40 3 -81.5 7.5 q-41.5 4.5 -73.5 8.5 l0 693 l172 0 l0 -207 q22 7 56.5 14.5 q34.5 7.5 61.5 7.5 q72 0 114.5 -30.5 q42.5 -30.5 60.5 -87 q18 -56.5 18 -137.5 q0 -101 -23.5 -160.5 q-23.5 -59.5 -80.5 -85.5 q-57 -26 -157 -26 ZM267 130 q37 0 54.5 15 q17.5 15 24 43.5 q6.5 28.5 6.5 68.5 q0 44 -6.5 69.5 q-6.5 25.5 -21.5 36.5 q-15 11 -40 11 q-17 0 -36.5 -5 q-19.5 -5 -32.5 -10 l0 -226 q10 -1 25.5 -2 q15.5 -1 26.5 -1 Z" /><glyph glyph-name="c" unicode="c" d="M263 -12 q-91 0 -142.5 26.5 q-51.5 26.5 -72 85.5 q-20.5 59 -20.5 155 q0 98 24 154.5 q24 56.5 75.5 81 q51.5 24.5 135.5 24.5 q24 0 54.5 -3.5 q30.5 -3.5 60.5 -8.5 q30 -5 51 -10 l-6 -137 q-20 2 -45.5 4 q-25.5 2 -49.5 3.5 q-24 1.5 -38 1.5 q-33 0 -52.5 -11 q-19.5 -11 -27.5 -35 q-8 -24 -8 -64 q0 -43 7.5 -68.5 q7.5 -25.5 26.5 -36.5 q19 -11 54 -11 q14 0 38 1.5 q24 1.5 50.5 3.5 q26.5 2 46.5 3 l5 -136 q-20 -5 -49 -10 q-29 -5 -60.5 -9 q-31.5 -4 -57.5 -4 Z" /><glyph glyph-name="d" unicode="d" d="M220 -12 q-41 0 -72.5 10 q-31.5 10 -54 30.5 q-22.5 20.5 -37 51.5 q-14.5 31 -21.5 73.5 q-7 42.5 -7 96.5 q0 84 21 143 q21 59 69 90.5 q48 31.5 127 31.5 q20 0 48.5 -3 q28.5 -3 46.5 -5 l0 193 l172 0 l0 -700 l-170 0 l-1 26 q-13 -8 -33.5 -17 q-20.5 -9 -43 -15 q-22.5 -6 -44.5 -6 ZM270 130 q13 0 26 2.5 q13 2.5 25 6 q12 3.5 19 5.5 l0 224 q-7 2 -18 3 q-11 1 -23 2 q-12 1 -21 1 q-31 0 -47 -15.5 q-16 -15.5 -22.5 -43 q-6.5 -27.5 -6.5 -65.5 q0 -32 4 -55 q4 -23 12.5 -37.5 q8.5 -14.5 21.5 -21 q13 -6.5 30 -6.5 Z" /><glyph glyph-name="eth" unicode="ð" d="M253 -9 q-114 0 -174 55 q-60 55 -60 170 q0 100 53 160.5 q53 60.5 165 60.5 q19 0 44.5 -2 q25.5 -2 49 -7.5 q23.5 -5.5 38.5 -14.5 q-4 39 -19.5 70 q-15.5 31 -49 56 q-33.5 25 -91 45.5 q-57.5 20.5 -146.5 36.5 l18 92 q138 -11 232.5 -49.5 q94.5 -38.5 144 -114.5 q49.5 -76 49.5 -202 q0 -121 -26 -199.5 q-26 -78.5 -82 -117.5 q-56 -39 -146 -39 ZM253 108 q38 0 63 18.5 q25 18.5 38.5 61 q13.5 42.5 13.5 112.5 q-20 8 -39.5 13 q-19.5 5 -39.5 7.5 q-20 2.5 -45 2.5 q-30 0 -49.5 -16 q-19.5 -16 -28 -40 q-8.5 -24 -8.5 -51 q0 -49 21.5 -78.5 q21.5 -29.5 73.5 -29.5 ZM148 470 l-53 75 l290 192 l52 -74 l-289 -193 Z" /><glyph glyph-name="dcaron" unicode="&#x10f;" d="M559 461 l27 213 l159 0 l-57 -213 l-129 0 ZM220 -12 q-41 0 -72.5 10 q-31.5 10 -54 30.5 q-22.5 20.5 -37 51.5 q-14.5 31 -21.5 73.5 q-7 42.5 -7 96.5 q0 84 21 143 q21 59 69 90.5 q48 31.5 127 31.5 q20 0 48.5 -3 q28.5 -3 46.5 -5 l0 193 l172 0 l0 -700 l-170 0 l-1 26 q-13 -8 -33.5 -17 q-20.5 -9 -43 -15 q-22.5 -6 -44.5 -6 ZM270 130 q13 0 26 2.5 q13 2.5 25 6 q12 3.5 19 5.5 l0 224 q-7 2 -18 3 q-11 1 -23 2 q-12 1 -21 1 q-31 0 -47 -15.5 q-16 -15.5 -22.5 -43 q-6.5 -27.5 -6.5 -65.5 q0 -32 4 -55 q4 -23 12.5 -37.5 q8.5 -14.5 21.5 -21 q13 -6.5 30 -6.5 Z" /><glyph glyph-name="dcroat" unicode="&#x111;" d="M231 572 l0 93 l314 0 l0 -93 l-314 0 ZM220 -12 q-41 0 -72.5 10 q-31.5 10 -54 30.5 q-22.5 20.5 -37 51.5 q-14.5 31 -21.5 73.5 q-7 42.5 -7 96.5 q0 84 21 143 q21 59 69 90.5 q48 31.5 127 31.5 q20 0 48.5 -3 q28.5 -3 46.5 -5 l0 193 l172 0 l0 -700 l-170 0 l-1 26 q-13 -8 -33.5 -17 q-20.5 -9 -43 -15 q-22.5 -6 -44.5 -6 ZM270 130 q13 0 26 2.5 q13 2.5 25 6 q12 3.5 19 5.5 l0 224 q-7 2 -18 3 q-11 1 -23 2 q-12 1 -21 1 q-31 0 -47 -15.5 q-16 -15.5 -22.5 -43 q-6.5 -27.5 -6.5 -65.5 q0 -32 4 -55 q4 -23 12.5 -37.5 q8.5 -14.5 21.5 -21 q13 -6.5 30 -6.5 Z" /><glyph glyph-name="e" unicode="e" d="M264 -12 q-88 0 -140 27.5 q-52 27.5 -74.5 84.5 q-22.5 57 -22.5 144 q0 91 26.5 151 q26.5 60 80.5 90 q54 30 137 30 q119 0 179.5 -56 q60.5 -56 60.5 -177 l-8 -84 l-303 0 q1 -40 18 -59.5 q17 -19.5 59 -19.5 q32 0 71.5 1.5 q39.5 1.5 79 3.5 q39.5 2 66.5 4 l4 -115 q-26 -5 -66 -11 q-40 -6 -84 -10 q-44 -4 -84 -4 ZM199 299 l140 0 q0 51 -16 71.5 q-16 20.5 -52 20.5 q-37 0 -54 -21.5 q-17 -21.5 -18 -70.5 Z" /><glyph glyph-name="f" unicode="f" d="M62 0 l0 363 l-40 0 l0 140 l40 0 l0 18 q0 71 14 112.5 q14 41.5 49 60 q35 18.5 96 18.5 q20 0 43.5 -2 q23.5 -2 45 -4.5 q21.5 -2.5 34.5 -4.5 l-1 -128 q-15 0 -30.5 0.5 q-15.5 0.5 -27.5 0.5 q-19 0 -30.5 -5 q-11.5 -5 -16 -15 q-4.5 -10 -4.5 -29 l0 -22 l103 0 l0 -140 l-103 0 l0 -363 l-172 0 Z" /><glyph glyph-name="g" unicode="g" d="M283 -225 q-81 0 -139 11 q-58 11 -88.5 41.5 q-30.5 30.5 -30.5 90.5 q0 25 7 45 q7 20 22 38.5 q15 18.5 40 37.5 q-14 11 -23.5 30.5 q-9.5 19.5 -9.5 42.5 q0 13 17 35.5 q17 22.5 33 39.5 q-20 10 -38 27.5 q-18 17.5 -30 47.5 q-12 30 -12 76 q0 98 56 137.5 q56 39.5 170 39.5 q25 0 55 -3.5 q30 -3.5 49 -8.5 l172 4 l0 -108 l-64 1 q7 -11 12.5 -26.5 q5.5 -15.5 5.5 -35.5 q0 -71 -24.5 -109.5 q-24.5 -38.5 -74 -52.5 q-49.5 -14 -127.5 -14 q-7 0 -20 1 q-13 1 -21 2 q-3 -6 -6 -15 q-3 -9 -3 -13 q0 -9 9.5 -14 q9.5 -5 37 -6.5 q27.5 -1.5 80.5 -1.5 q71 0 112.5 -14 q41.5 -14 59.5 -48 q18 -34 18 -94 q0 -92 -65.5 -138 q-65.5 -46 -179.5 -46 ZM271 -103 q54 0 76 10 q22 10 22 33 q0 17 -8 25.5 q-8 8.5 -26.5 11 q-18.5 2.5 -51.5 2.5 q-10 0 -23.5 0.5 q-13.5 0.5 -26 1 q-12.5 0.5 -22.5 1 q-10 0.5 -15 1.5 q-16 -11 -21 -20 q-5 -9 -5 -25 q0 -15 10.5 -24 q10.5 -9 32.5 -13 q22 -4 58 -4 ZM258 278 q35 0 50 14 q15 14 15 47 q0 33 -15 47.5 q-15 14.5 -50 14.5 q-34 0 -49 -14.5 q-15 -14.5 -15 -47.5 q0 -33 15 -47 q15 -14 49 -14 Z" /><glyph glyph-name="uni0123" unicode="&#x123;" d="M175 572 l58 213 l128 0 l-27 -213 l-159 0 ZM283 -225 q-81 0 -139 11 q-58 11 -88.5 41.5 q-30.5 30.5 -30.5 90.5 q0 25 7 45 q7 20 22 38.5 q15 18.5 40 37.5 q-14 11 -23.5 30.5 q-9.5 19.5 -9.5 42.5 q0 13 17 35.5 q17 22.5 33 39.5 q-20 10 -38 27.5 q-18 17.5 -30 47.5 q-12 30 -12 76 q0 98 56 137.5 q56 39.5 170 39.5 q25 0 55 -3.5 q30 -3.5 49 -8.5 l172 4 l0 -108 l-64 1 q7 -11 12.5 -26.5 q5.5 -15.5 5.5 -35.5 q0 -71 -24.5 -109.5 q-24.5 -38.5 -74 -52.5 q-49.5 -14 -127.5 -14 q-7 0 -20 1 q-13 1 -21 2 q-3 -6 -6 -15 q-3 -9 -3 -13 q0 -9 9.5 -14 q9.5 -5 37 -6.5 q27.5 -1.5 80.5 -1.5 q71 0 112.5 -14 q41.5 -14 59.5 -48 q18 -34 18 -94 q0 -92 -65.5 -138 q-65.5 -46 -179.5 -46 ZM271 -103 q54 0 76 10 q22 10 22 33 q0 17 -8 25.5 q-8 8.5 -26.5 11 q-18.5 2.5 -51.5 2.5 q-10 0 -23.5 0.5 q-13.5 0.5 -26 1 q-12.5 0.5 -22.5 1 q-10 0.5 -15 1.5 q-16 -11 -21 -20 q-5 -9 -5 -25 q0 -15 10.5 -24 q10.5 -9 32.5 -13 q22 -4 58 -4 ZM258 278 q35 0 50 14 q15 14 15 47 q0 33 -15 47.5 q-15 14.5 -50 14.5 q-34 0 -49 -14.5 q-15 -14.5 -15 -47.5 q0 -33 15 -47 q15 -14 49 -14 Z" /><glyph glyph-name="h" unicode="h" d="M44 0 l0 700 l171 0 l0 -209 q24 8 60.5 16 q36.5 8 63.5 8 q71 0 111.5 -24.5 q40.5 -24.5 57.5 -80 q17 -55.5 17 -148.5 l0 -262 l-172 0 l0 247 q0 43 -5 69 q-5 26 -18 38 q-13 12 -39 12 q-19 0 -40.5 -5 q-21.5 -5 -35.5 -9 l0 -352 l-171 0 Z" /><glyph glyph-name="hbar" unicode="&#x127;" d="M-4 556 l0 94 l313 0 l0 -94 l-313 0 ZM44 0 l0 700 l171 0 l0 -209 q24 8 60.5 16 q36.5 8 63.5 8 q71 0 111.5 -24.5 q40.5 -24.5 57.5 -80 q17 -55.5 17 -148.5 l0 -262 l-172 0 l0 247 q0 43 -5 69 q-5 26 -18 38 q-13 12 -39 12 q-19 0 -40.5 -5 q-21.5 -5 -35.5 -9 l0 -352 l-171 0 Z" /><glyph glyph-name="i" unicode="i" d="M44 0 l0 503 l171 0 l0 -503 l-171 0 ZM43 563 l0 131 l173 0 l0 -131 l-173 0 Z" /><glyph glyph-name="dotlessi" unicode="&#x131;" d="M77 0 l0 503 l171 0 l0 -503 l-171 0 Z" /><glyph glyph-name="j" unicode="j" d="M1 -221 l-57 131 q32 17 52 29.5 q20 12.5 30.5 26 q10.5 13.5 14 32.5 q3.5 19 3.5 50 l0 455 l172 0 l0 -451 q0 -65 -9 -107 q-9 -42 -32.5 -70.5 q-23.5 -28.5 -65.5 -50 q-42 -21.5 -108 -45.5 ZM43 564 l0 130 l173 0 l0 -130 l-173 0 Z" /><glyph glyph-name="uni0237" unicode="&#x237;" d="M1 -221 l-57 131 q44 23 65 39 q21 16 28 37.5 q7 21.5 7 61.5 l0 455 l172 0 l0 -451 q0 -65 -9 -107 q-9 -42 -32.5 -70.5 q-23.5 -28.5 -65.5 -50 q-42 -21.5 -108 -45.5 Z" /><glyph glyph-name="k" unicode="k" d="M44 0 l0 700 l171 0 l0 -374 l46 1 l79 176 l174 0 l-103 -239 l110 -264 l-176 0 l-82 177 l-48 -1 l0 -176 l-171 0 Z" /><glyph glyph-name="uni0137" unicode="&#x137;" d="M148 -269 l28 212 l159 0 l-58 -212 l-129 0 ZM44 0 l0 700 l171 0 l0 -374 l46 1 l79 176 l174 0 l-103 -239 l110 -264 l-176 0 l-82 177 l-48 -1 l0 -176 l-171 0 Z" /><glyph glyph-name="l" unicode="l" d="M46 0 l0 700 l172 0 l0 -700 l-172 0 Z" /><glyph glyph-name="lcaron" unicode="&#x13e;" d="M265 461 l28 213 l159 0 l-58 -213 l-129 0 ZM46 0 l0 700 l172 0 l0 -700 l-172 0 Z" /><glyph glyph-name="lslash" unicode="&#x142;" d="M20 166 l-14 140 l284 160 l14 -140 l-284 -160 ZM67 0 l0 700 l172 0 l0 -700 l-172 0 Z" /><glyph glyph-name="m" unicode="m" d="M44 0 l0 503 l171 0 l0 -29 q22 13 59.5 27 q37.5 14 70.5 14 q44 0 72 -12.5 q28 -12.5 46 -34.5 q17 10 43 21 q26 11 56.5 18.5 q30.5 7.5 60.5 7.5 q77 0 118 -27.5 q41 -27.5 56.5 -84 q15.5 -56.5 15.5 -144.5 l0 -259 l-171 0 l0 240 q0 43 -4.5 71 q-4.5 28 -17.5 41.5 q-13 13.5 -37 13.5 q-21 0 -42.5 -5.5 q-21.5 -5.5 -33.5 -11.5 q5 -16 7 -46 q2 -30 2 -61 l0 -242 l-172 0 l0 239 q0 44 -4.5 72 q-4.5 28 -17 41.5 q-12.5 13.5 -36.5 13.5 q-20 0 -40 -5.5 q-20 -5.5 -31 -10.5 l0 -350 l-171 0 Z" /><glyph glyph-name="n" unicode="n" d="M44 0 l0 503 l171 0 l0 -29 q15 9 36 18.5 q21 9.5 44.5 16 q23.5 6.5 44.5 6.5 q71 0 111.5 -24.5 q40.5 -24.5 57.5 -81.5 q17 -57 17 -152 l0 -257 l-173 0 l0 247 q0 43 -5 69 q-5 26 -18 38 q-13 12 -37 12 q-14 0 -28.5 -2.5 q-14.5 -2.5 -27.5 -6.5 q-13 -4 -22 -8 l0 -349 l-171 0 Z" /><glyph glyph-name="uni0146" unicode="&#x146;" d="M158 -269 l28 212 l158 0 l-57 -212 l-129 0 ZM44 0 l0 503 l171 0 l0 -29 q15 9 36 18.5 q21 9.5 44.5 16 q23.5 6.5 44.5 6.5 q71 0 111.5 -24.5 q40.5 -24.5 57.5 -81.5 q17 -57 17 -152 l0 -257 l-173 0 l0 247 q0 43 -5 69 q-5 26 -18 38 q-13 12 -37 12 q-14 0 -28.5 -2.5 q-14.5 -2.5 -27.5 -6.5 q-13 -4 -22 -8 l0 -349 l-171 0 Z" /><glyph glyph-name="eng" unicode="&#x14b;" d="M313 -226 l-59 133 q44 22 65 38 q21 16 27.5 37 q6.5 21 6.5 59 l0 204 q0 42 -5 68.5 q-5 26.5 -18 39 q-13 12.5 -36 12.5 q-13 0 -27.5 -2.5 q-14.5 -2.5 -28 -6.5 q-13.5 -4 -23.5 -8 l0 -348 l-172 0 l0 503 l172 0 l0 -28 q16 9 37.5 18 q21.5 9 45 15.5 q23.5 6.5 43.5 6.5 q70 0 110.5 -25.5 q40.5 -25.5 57.5 -82.5 q17 -57 17 -152 l0 -209 q0 -65 -9 -107 q-9 -42 -32 -70 q-23 -28 -65 -49.5 q-42 -21.5 -107 -45.5 Z" /><glyph glyph-name="o" unicode="o" d="M276 -12 q-86 0 -141 27 q-55 27 -81.5 86 q-26.5 59 -26.5 153 q0 93 27 150 q27 57 82.5 84 q55.5 27 139.5 27 q84 0 139 -27 q55 -27 82 -84 q27 -57 27 -150 q0 -94 -26 -153 q-26 -59 -81 -86 q-55 -27 -141 -27 ZM276 129 q31 0 46.5 12 q15.5 12 21.5 40 q6 28 6 73 q0 46 -7 72 q-7 26 -22.5 37.5 q-15.5 11.5 -44.5 11.5 q-29 0 -45 -11.5 q-16 -11.5 -23 -38 q-7 -26.5 -7 -71.5 q0 -45 6 -73 q6 -28 22 -40 q16 -12 47 -12 Z" /><glyph glyph-name="oslash" unicode="ø" d="M363 238 l-151 7 l121 338 l160 -34 l-130 -311 ZM230 -89 l-157 33 l139 322 l153 -14 l-135 -341 ZM276 -12 q-86 0 -141 27 q-55 27 -81.5 86 q-26.5 59 -26.5 153 q0 93 27 150 q27 57 82.5 84 q55.5 27 139.5 27 q84 0 139 -27 q55 -27 82 -84 q27 -57 27 -150 q0 -94 -26 -153 q-26 -59 -81 -86 q-55 -27 -141 -27 ZM276 129 q31 0 46.5 12 q15.5 12 21.5 40 q6 28 6 73 q0 46 -7 72 q-7 26 -22.5 37.5 q-15.5 11.5 -44.5 11.5 q-29 0 -45 -11.5 q-16 -11.5 -23 -38 q-7 -26.5 -7 -71.5 q0 -45 6 -73 q6 -28 22 -40 q16 -12 47 -12 Z" /><glyph glyph-name="oslashacute" unicode="&#x1ff;" d="M363 238 l-151 7 l121 338 l160 -34 l-130 -311 ZM230 -89 l-157 33 l139 322 l153 -14 l-135 -341 ZM240 620 l-83 91 l180 99 l109 -124 l-206 -66 ZM276 -12 q-86 0 -141 27 q-55 27 -81.5 86 q-26.5 59 -26.5 153 q0 93 27 150 q27 57 82.5 84 q55.5 27 139.5 27 q84 0 139 -27 q55 -27 82 -84 q27 -57 27 -150 q0 -94 -26 -153 q-26 -59 -81 -86 q-55 -27 -141 -27 ZM276 129 q31 0 46.5 12 q15.5 12 21.5 40 q6 28 6 73 q0 46 -7 72 q-7 26 -22.5 37.5 q-15.5 11.5 -44.5 11.5 q-29 0 -45 -11.5 q-16 -11.5 -23 -38 q-7 -26.5 -7 -71.5 q0 -45 6 -73 q6 -28 22 -40 q16 -12 47 -12 Z" /><glyph glyph-name="oe" unicode="&#x153;" d="M276 -12 q-85 0 -140.5 27 q-55.5 27 -82 86 q-26.5 59 -26.5 153 q0 93 27 150 q27 57 82.5 84 q55.5 27 139.5 27 q61 0 101.5 -16 q40.5 -16 63.5 -51 q23 35 61 51 q38 16 92 16 q119 0 179.5 -56 q60.5 -56 60.5 -177 l-8 -84 l-303 0 q0 -40 18 -59 q18 -19 60 -19 q31 0 71 1.5 q40 1.5 79 3.5 q39 2 66 4 l4 -116 q-26 -5 -66 -11 q-40 -6 -84.5 -10 q-44.5 -4 -83.5 -4 q-58 0 -94.5 15 q-36.5 15 -57.5 45 q-23 -31 -61.5 -45.5 q-38.5 -14.5 -97.5 -14.5 ZM276 130 q31 0 46.5 12.5 q15.5 12.5 21.5 40 q6 27.5 6 71.5 q0 66 -17 92.5 q-17 26.5 -57 26.5 q-28 0 -44.5 -11 q-16.5 -11 -23.5 -37 q-7 -26 -7 -71 q0 -45 6 -72.5 q6 -27.5 22.5 -39.5 q16.5 -12 46.5 -12 ZM522 299 l141 0 q0 50 -16.5 70.5 q-16.5 20.5 -52.5 20.5 q-37 0 -54.5 -21.5 q-17.5 -21.5 -17.5 -69.5 Z" /><glyph glyph-name="p" unicode="p" d="M44 -204 l0 707 l169 0 l2 -29 q13 9 32 18.5 q19 9.5 42.5 16 q23.5 6.5 45.5 6.5 q104 0 148 -67 q44 -67 44 -197 q0 -91 -21.5 -149 q-21.5 -58 -69.5 -86 q-48 -28 -128 -28 q-22 0 -49 4.5 q-27 4.5 -44 7.5 l0 -204 l-171 0 ZM274 129 q31 0 48 15 q17 15 24 43.5 q7 28.5 7 68.5 q0 68 -17.5 93 q-17.5 25 -51.5 25 q-10 0 -23 -3 q-13 -3 -25 -7 q-12 -4 -21 -8 l0 -222 q9 -1 25.5 -3 q16.5 -2 33.5 -2 Z" /><glyph glyph-name="thorn" unicode="þ" d="M43 -204 l0 912 l172 0 l0 -215 q23 7 57.5 14.5 q34.5 7.5 60.5 7.5 q72 0 114 -29.5 q42 -29.5 60.5 -88 q18.5 -58.5 18.5 -145.5 q0 -92 -21 -150 q-21 -58 -69.5 -86 q-48.5 -28 -131.5 -28 q-19 0 -45 4 q-26 4 -44 7 l0 -203 l-172 0 ZM270 129 q35 0 52.5 15.5 q17.5 15.5 23.5 44 q6 28.5 6 67.5 q0 45 -6.5 70.5 q-6.5 25.5 -21.5 36.5 q-15 11 -40 11 q-16 0 -36 -5 q-20 -5 -33 -10 l0 -226 q10 -1 26 -2.5 q16 -1.5 29 -1.5 Z" /><glyph glyph-name="q" unicode="q" d="M339 -204 l0 215 q-21 -7 -55 -15 q-34 -8 -61 -8 q-72 0 -115 30.5 q-43 30.5 -61.5 88 q-18.5 57.5 -18.5 137.5 q0 101 26.5 160.5 q26.5 59.5 84.5 85.5 q58 26 150 26 q26 0 65.5 -2.5 q39.5 -2.5 81.5 -5.5 q42 -3 75 -7 l0 -705 l-172 0 ZM272 130 q17 0 36 5 q19 5 31 9 l0 227 q-9 2 -24.5 3 q-15.5 1 -28.5 1 q-34 0 -52.5 -15.5 q-18.5 -15.5 -25 -44 q-6.5 -28.5 -6.5 -68.5 q0 -64 16.5 -90.5 q16.5 -26.5 53.5 -26.5 Z" /><glyph glyph-name="r" unicode="r" d="M44 0 l0 503 l171 0 l0 -54 q16 13 38.5 27.5 q22.5 14.5 47.5 25.5 q25 11 47 14 l0 -163 q-21 -2 -46 -10 q-25 -8 -47.5 -18 q-22.5 -10 -39.5 -18 l0 -307 l-171 0 Z" /><glyph glyph-name="uni0157" unicode="&#x157;" d="M29 -269 l28 212 l158 0 l-57 -212 l-129 0 ZM44 0 l0 503 l171 0 l0 -54 q16 13 38.5 27.5 q22.5 14.5 47.5 25.5 q25 11 47 14 l0 -163 q-21 -2 -46 -10 q-25 -8 -47.5 -18 q-22.5 -10 -39.5 -18 l0 -307 l-171 0 Z" /><glyph glyph-name="s" unicode="s" d="M242 -12 q-41 0 -81.5 4 q-40.5 4 -74 9.5 q-33.5 5.5 -54.5 10.5 l5 121 q26 -3 59.5 -7 q33.5 -4 66 -6.5 q32.5 -2.5 53.5 -2.5 q23 0 37.5 3 q14.5 3 21.5 11 q7 8 7 21 q0 11 -7.5 17 q-7.5 6 -27.5 11 q-20 5 -59 10 q-56 8 -91.5 24.5 q-35.5 16.5 -52 47.5 q-16.5 31 -16.5 82 q0 67 28 104 q28 37 75.5 52 q47.5 15 105.5 15 q40 0 79.5 -3.5 q39.5 -3.5 73 -9 q33.5 -5.5 54.5 -10.5 l-5 -125 q-26 3 -60 6.5 q-34 3.5 -66 5.5 q-32 2 -54 2 q-18 0 -31.5 -3 q-13.5 -3 -20.5 -9.5 q-7 -6.5 -7 -18.5 q0 -9 6.5 -15 q6.5 -6 25.5 -10.5 q19 -4.5 56 -9.5 q61 -8 98 -25 q37 -17 53 -48.5 q16 -31.5 16 -84.5 q0 -93 -55 -131 q-55 -38 -158 -38 Z" /><glyph glyph-name="uni0219" unicode="&#x219;" d="M123 -269 l27 212 l159 0 l-58 -212 l-128 0 ZM242 -12 q-41 0 -81.5 4 q-40.5 4 -74 9.5 q-33.5 5.5 -54.5 10.5 l5 121 q26 -3 59.5 -7 q33.5 -4 66 -6.5 q32.5 -2.5 53.5 -2.5 q23 0 37.5 3 q14.5 3 21.5 11 q7 8 7 21 q0 11 -7.5 17 q-7.5 6 -27.5 11 q-20 5 -59 10 q-56 8 -91.5 24.5 q-35.5 16.5 -52 47.5 q-16.5 31 -16.5 82 q0 67 28 104 q28 37 75.5 52 q47.5 15 105.5 15 q40 0 79.5 -3.5 q39.5 -3.5 73 -9 q33.5 -5.5 54.5 -10.5 l-5 -125 q-26 3 -60 6.5 q-34 3.5 -66 5.5 q-32 2 -54 2 q-18 0 -31.5 -3 q-13.5 -3 -20.5 -9.5 q-7 -6.5 -7 -18.5 q0 -9 6.5 -15 q6.5 -6 25.5 -10.5 q19 -4.5 56 -9.5 q61 -8 98 -25 q37 -17 53 -48.5 q16 -31.5 16 -84.5 q0 -93 -55 -131 q-55 -38 -158 -38 Z" /><glyph glyph-name="germandbls" unicode="ß" d="M444 -12 q-52 0 -102.5 7.5 q-50.5 7.5 -78.5 13.5 l5 118 q17 -2 41 -4.5 q24 -2.5 48.5 -4 q24.5 -1.5 43.5 -1.5 q37 0 53 12.5 q16 12.5 16 36.5 q0 13 -7.5 22.5 q-7.5 9.5 -29 21 q-21.5 11.5 -63.5 28.5 q-38 16 -59.5 32.5 q-21.5 16.5 -30 36 q-8.5 19.5 -8.5 44.5 q0 38 15.5 59 q15.5 21 48.5 43 q34 22 42.5 35 q8.5 13 8.5 29 q0 24 -15 36 q-15 12 -58 12 q-33 0 -55 -6.5 q-22 -6.5 -33 -23.5 q-11 -17 -11 -48 l0 -487 l-171 0 l0 485 q0 87 26.5 136.5 q26.5 49.5 86 70 q59.5 20.5 158.5 20.5 q90 0 144 -17 q54 -17 78.5 -52 q24.5 -35 24.5 -89 q0 -34 -6 -54.5 q-6 -20.5 -21 -34 q-15 -13.5 -42 -27.5 q-37 -19 -48.5 -27.5 q-11.5 -8.5 -11.5 -20.5 q0 -15 16 -25.5 q16 -10.5 67 -31.5 q47 -19 74 -38 q27 -19 37.5 -46.5 q10.5 -27.5 10.5 -72.5 q0 -67 -18.5 -108.5 q-18.5 -41.5 -60.5 -60.5 q-42 -19 -115 -19 Z" /><glyph glyph-name="t" unicode="t" d="M227 -12 q-57 0 -93 15.5 q-36 15.5 -52 55 q-16 39.5 -16 110.5 l0 194 l-50 0 l0 140 l50 0 l0 119 l172 0 l0 -119 l108 0 l0 -140 l-108 0 l0 -152 q0 -29 3 -45.5 q3 -16.5 13 -23 q10 -6.5 30 -6.5 q5 0 17 0.5 q12 0.5 25 1 q13 0.5 19 1.5 l3 -136 q-26 -5 -61.5 -10 q-35.5 -5 -59.5 -5 Z" /><glyph glyph-name="tbar" unicode="&#x167;" d="M24 222 l0 89 l303 0 l0 -89 l-303 0 ZM227 -12 q-57 0 -93 15.5 q-36 15.5 -52 55 q-16 39.5 -16 110.5 l0 194 l-50 0 l0 140 l50 0 l0 119 l172 0 l0 -119 l108 0 l0 -140 l-108 0 l0 -152 q0 -29 3 -45.5 q3 -16.5 13 -23 q10 -6.5 30 -6.5 q5 0 17 0.5 q12 0.5 25 1 q13 0.5 19 1.5 l3 -136 q-26 -5 -61.5 -10 q-35.5 -5 -59.5 -5 Z" /><glyph glyph-name="tcaron" unicode="&#x165;" d="M332 511 l12 216 l152 0 l-38 -216 l-126 0 ZM227 -12 q-57 0 -93 15.5 q-36 15.5 -52 55 q-16 39.5 -16 110.5 l0 194 l-50 0 l0 140 l50 0 l0 119 l172 0 l0 -119 l108 0 l0 -140 l-108 0 l0 -152 q0 -29 3 -45.5 q3 -16.5 13 -23 q10 -6.5 30 -6.5 q5 0 17 0.5 q12 0.5 25 1 q13 0.5 19 1.5 l3 -136 q-26 -5 -61.5 -10 q-35.5 -5 -59.5 -5 Z" /><glyph glyph-name="uni021B" unicode="&#x21b;" d="M79 -269 l28 212 l159 0 l-58 -212 l-129 0 ZM227 -12 q-57 0 -93 15.5 q-36 15.5 -52 55 q-16 39.5 -16 110.5 l0 194 l-50 0 l0 140 l50 0 l0 119 l172 0 l0 -119 l108 0 l0 -140 l-108 0 l0 -152 q0 -29 3 -45.5 q3 -16.5 13 -23 q10 -6.5 30 -6.5 q5 0 17 0.5 q12 0.5 25 1 q13 0.5 19 1.5 l3 -136 q-26 -5 -61.5 -10 q-35.5 -5 -59.5 -5 Z" /><glyph glyph-name="u" unicode="u" d="M209 -12 q-65 0 -102.5 28.5 q-37.5 28.5 -52.5 85 q-15 56.5 -15 140.5 l0 261 l171 0 l0 -251 q0 -44 5 -69 q5 -25 18 -35.5 q13 -10.5 37 -10.5 q22 0 42.5 5.5 q20.5 5.5 33.5 11.5 l0 349 l171 0 l0 -503 l-170 0 l0 28 q-35 -19 -66 -29.5 q-31 -10.5 -72 -10.5 Z" /><glyph glyph-name="v" unicode="v" d="M114 0 l-105 503 l183 0 l64 -359 l22 0 l64 359 l173 0 l-105 -503 l-296 0 Z" /><glyph glyph-name="w" unicode="w" d="M98 0 l-81 503 l187 0 l42 -359 l13 0 l57 347 l160 0 l62 -347 l13 0 l42 359 l171 0 l-75 -503 l-252 0 l-48 278 l-48 -278 l-243 0 Z" /><glyph glyph-name="x" unicode="x" d="M7 0 l119 250 l-119 253 l185 0 l68 -160 l69 160 l172 0 l-114 -250 l112 -253 l-187 0 l-68 150 l-63 -150 l-174 0 Z" /><glyph glyph-name="y" unicode="y" d="M179 -204 l64 204 l-129 0 l-104 503 l181 0 l66 -359 l21 0 l65 359 l172 0 l-149 -707 l-187 0 Z" /><glyph glyph-name="z" unicode="z" d="M30 0 l0 143 l194 210 l-194 0 l0 150 l423 0 l0 -136 l-197 -216 l199 0 l0 -151 l-425 0 Z" /><glyph glyph-name="ordfeminine" unicode="ª" d="M332 373 q-34 1 -62.5 5 q-28.5 4 -45.5 15.5 q-17 11.5 -18 33.5 l0 132 q0 13 -11.5 18.5 q-11.5 5.5 -34.5 4.5 q-18 0 -51 -2.5 q-33 -2.5 -62 -4.5 l-6 66 q33 11 68 17 q35 6 71 6 q66 0 99.5 -24 q33.5 -24 33.5 -86 l0 -98 q5 -5 10.5 -7.5 q5.5 -2.5 11.5 -3.5 l-3 -72 ZM115 370 q-40 0 -63 25.5 q-23 25.5 -23 66.5 q0 81 103 85 l97 5 l1 -59 l-66 -4 q-14 -1 -20 -6.5 q-6 -5.5 -6 -17.5 q0 -22 23 -22 q15 0 34 5 q19 5 33 11 l-5 -47 q-22 -19 -50 -30.5 q-28 -11.5 -58 -11.5 Z" /><glyph glyph-name="ordmasculine" unicode="º" d="M182 370 q-79 0 -116.5 34.5 q-37.5 34.5 -37.5 113.5 q0 77 37.5 111.5 q37.5 34.5 116.5 34.5 q80 0 116.5 -34.5 q36.5 -34.5 36.5 -111.5 q0 -79 -36.5 -113.5 q-36.5 -34.5 -116.5 -34.5 ZM182 457 q24 0 33.5 14 q9.5 14 9.5 47 q0 33 -9.5 46 q-9.5 13 -33.5 13 q-23 0 -33.5 -13.5 q-10.5 -13.5 -10.5 -45.5 q0 -33 10.5 -47 q10.5 -14 33.5 -14 Z" /><glyph glyph-name="pi" unicode="&#x3c0;" d="M516 -1 q-79 0 -126 12.5 q-47 12.5 -67.5 46 q-20.5 33.5 -22.5 96.5 l0 313 l128 1 l0 -243 q0 -46 6.5 -66.5 q6.5 -20.5 25.5 -25.5 q19 -5 56 -5 l0 -129 ZM74 0 l31 466 l139 0 l-29 -466 l-141 0 ZM19 331 l0 155 q19 4 44.5 7 q25.5 3 52.5 5 q27 2 51 2 l223 0 q23 0 49 2 q26 2 50 5 q24 3 40 8 l0 -155 q-15 -6 -53.5 -11 q-38.5 -5 -94.5 -4 l-23 -1 l-170 0 l-26 -2 q-49 2 -87 -2 q-38 -4 -56 -9 Z" /><glyph glyph-name="uni0621" unicode="&#x621;" d="M172 29 q-44 48 -64.5 93 q-20.5 45 -20.5 97 q0 56 22 103 q22 47 60.5 82 q38.5 35 89.5 54.5 q51 19.5 107 19.5 q43 0 86 -11 q43 -11 73 -32 l-71 -124 q-39 21 -81 21 q-34 0 -60 -14 q-26 -14 -40 -38.5 q-14 -24.5 -14 -57.5 q0 -26 10 -49 q10 -23 31 -48 l-128 -96 ZM37 0 l0 146 l537 0 l0 -146 l-537 0 Z" /><glyph glyph-name="uni0627" unicode="&#x627;" d="M86 0 l0 700 l171 0 l0 -700 l-171 0 Z" /><glyph glyph-name="uniFE8E" unicode="&#xfe8e;" d="M257 0 l0 146 l109 0 l0 -146 l-109 0 ZM86 0 l0 700 l171 0 l0 -700 l-171 0 ZM366 0 l0 146 q11 0 15.5 -19.5 q4.5 -19.5 4.5 -52.5 q0 -34 -4.5 -54 q-4.5 -20 -15.5 -20 Z" /><glyph glyph-name="uni066E" unicode="&#x66e;" d="M391 0 q-169 0 -260 70 q-91 70 -91 202 q0 24 3 49.5 q3 25.5 7 49 q4 23.5 8 42 q4 18.5 6 28.5 l167 -33 q-3 -15 -7.5 -38 q-4.5 -23 -8 -48 q-3.5 -25 -3.5 -47 q0 -53 23.5 -81 q23.5 -28 66 -38 q42.5 -10 100.5 -10 l250 0 l0 357 l172 0 l0 -503 l-433 0 Z" /><glyph glyph-name="uni067E" unicode="&#x67e;" d="M373 -271 l146 0 l0 -112 l-146 0 l0 112 ZM258 -104 l164 0 l0 -131 l-164 0 l0 131 ZM470 -104 l164 0 l0 -131 l-164 0 l0 131 ZM391 0 q-169 0 -260 70 q-91 70 -91 202 q0 24 3 49.5 q3 25.5 7 49 q4 23.5 8 42 q4 18.5 6 28.5 l167 -33 q-3 -15 -7.5 -38 q-4.5 -23 -8 -48 q-3.5 -25 -3.5 -47 q0 -53 23.5 -81 q23.5 -28 66 -38 q42.5 -10 100.5 -10 l250 0 l0 357 l172 0 l0 -503 l-433 0 Z" /><glyph glyph-name="uniFB57" unicode="&#xfb57;" d="M373 -271 l146 0 l0 -112 l-146 0 l0 112 ZM258 -104 l164 0 l0 -131 l-164 0 l0 131 ZM470 -104 l164 0 l0 -131 l-164 0 l0 131 ZM824 0 l0 146 l103 0 l0 -146 l-103 0 ZM391 0 q-169 0 -260 70 q-91 70 -91 202 q0 24 3 49.5 q3 25.5 7 49 q4 23.5 8 42 q4 18.5 6 28.5 l167 -33 q-3 -15 -7.5 -38 q-4.5 -23 -8 -48 q-3.5 -25 -3.5 -47 q0 -53 23.5 -81 q23.5 -28 66 -38 q42.5 -10 100.5 -10 l250 0 l0 357 l172 0 l0 -503 l-433 0 ZM927 0 l0 146 q11 0 15.5 -19.5 q4.5 -19.5 4.5 -52.5 q0 -34 -4.5 -54 q-4.5 -20 -15.5 -20 Z" /><glyph glyph-name="uniFB59" unicode="&#xfb59;" d="M148 -261 l146 0 l0 -111 l-146 0 l0 111 ZM34 -94 l163 0 l0 -130 l-163 0 l0 130 ZM246 -94 l164 0 l0 -130 l-164 0 l0 130 ZM366 0 l0 146 l136 0 l0 -146 l-136 0 ZM502 0 l0 146 q11 0 15.5 -19.5 q4.5 -19.5 4.5 -52.5 q0 -34 -4.5 -54 q-4.5 -20 -15.5 -20 ZM0 0 l0 146 l301 0 l-107 -89 l0 446 l172 0 l0 -503 l-366 0 ZM0 0 q-11 0 -15.5 20 q-4.5 20 -4.5 54 q0 33 4.5 52.5 q4.5 19.5 15.5 19.5 l0 -146 Z" /><glyph glyph-name="uniFB58" unicode="&#xfb58;" d="M148 -271 l146 0 l0 -112 l-146 0 l0 112 ZM33 -104 l164 0 l0 -131 l-164 0 l0 131 ZM246 -104 l163 0 l0 -131 l-163 0 l0 131 ZM0 0 l0 146 l301 0 l-107 -89 l0 446 l172 0 l0 -503 l-366 0 ZM0 0 q-11 0 -15.5 20 q-4.5 20 -4.5 54 q0 33 4.5 52.5 q4.5 19.5 15.5 19.5 l0 -146 Z" /><glyph glyph-name="uni062C" unicode="&#x62c;" d="M397 -176 l0 100 l111 0 l0 -100 l-111 0 ZM332 -327 q-87 0 -153 28.5 q-66 28.5 -102.5 82 q-36.5 53.5 -36.5 126.5 q0 73 36.5 126 q36.5 53 102.5 81.5 q66 28.5 153 28.5 l68 0 l0 95 q0 56 -35.5 85.5 q-35.5 29.5 -114.5 29.5 q-23 0 -59.5 -3 q-36.5 -3 -84.5 -10 l-16 133 q48 12 93 19.5 q45 7.5 88 7.5 q87 0 154.5 -32 q67.5 -32 107 -90.5 q39.5 -58.5 39.5 -139.5 l0 -241 l-240 0 q-63 0 -91.5 -22 q-28.5 -22 -28.5 -68 q0 -46 28.5 -68.5 q28.5 -22.5 91.5 -22.5 q9 0 20.5 1 q11.5 1 26.5 2 l4 -145 q-11 -2 -24.5 -3 q-13.5 -1 -26.5 -1 Z" /><glyph glyph-name="uniFE9E" unicode="&#xfe9e;" d="M397 -170 l0 100 l111 0 l0 -100 l-111 0 ZM572 0 l0 146 l104 0 l0 -146 l-104 0 ZM676 0 l0 146 q11 0 15.5 -19.5 q4.5 -19.5 4.5 -53.5 q0 -33 -4.5 -53 q-4.5 -20 -15.5 -20 ZM332 -327 q-87 0 -153 28.5 q-66 28.5 -102.5 82 q-36.5 53.5 -36.5 126.5 q0 73 36.5 126 q36.5 53 102.5 81.5 q66 28.5 153 28.5 l68 0 l0 95 q0 56 -35.5 85.5 q-35.5 29.5 -114.5 29.5 q-23 0 -59.5 -3 q-36.5 -3 -84.5 -10 l-16 133 q48 12 93 19.5 q45 7.5 88 7.5 q87 0 154.5 -32 q67.5 -32 107 -90.5 q39.5 -58.5 39.5 -139.5 l0 -241 l-240 0 q-63 0 -91.5 -22 q-28.5 -22 -28.5 -68 q0 -46 28.5 -68.5 q28.5 -22.5 91.5 -22.5 q9 0 20.5 1 q11.5 1 26.5 2 l4 -145 q-11 -2 -24.5 -3 q-13.5 -1 -26.5 -1 Z" /><glyph glyph-name="uni0686" unicode="&#x686;" d="M402 -132 l75 0 l0 -60 l-75 0 l0 60 ZM453 -45 l84 0 l0 -68 l-84 0 l0 68 ZM343 -45 l83 0 l0 -68 l-83 0 l0 68 ZM332 -327 q-87 0 -153 28.5 q-66 28.5 -102.5 82 q-36.5 53.5 -36.5 126.5 q0 73 36.5 126 q36.5 53 102.5 81.5 q66 28.5 153 28.5 l68 0 l0 95 q0 56 -35.5 85.5 q-35.5 29.5 -114.5 29.5 q-23 0 -59.5 -3 q-36.5 -3 -84.5 -10 l-16 133 q48 12 93 19.5 q45 7.5 88 7.5 q87 0 154.5 -32 q67.5 -32 107 -90.5 q39.5 -58.5 39.5 -139.5 l0 -241 l-240 0 q-63 0 -91.5 -22 q-28.5 -22 -28.5 -68 q0 -46 28.5 -68.5 q28.5 -22.5 91.5 -22.5 q9 0 20.5 1 q11.5 1 26.5 2 l4 -145 q-11 -2 -24.5 -3 q-13.5 -1 -26.5 -1 Z" /><glyph glyph-name="uniFB7B" unicode="&#xfb7b;" d="M402 -132 l75 0 l0 -60 l-75 0 l0 60 ZM453 -45 l84 0 l0 -68 l-84 0 l0 68 ZM343 -45 l83 0 l0 -68 l-83 0 l0 68 ZM572 0 l0 146 l104 0 l0 -146 l-104 0 ZM676 0 l0 146 q11 0 15.5 -19.5 q4.5 -19.5 4.5 -53.5 q0 -33 -4.5 -53 q-4.5 -20 -15.5 -20 ZM332 -327 q-87 0 -153 28.5 q-66 28.5 -102.5 82 q-36.5 53.5 -36.5 126.5 q0 73 36.5 126 q36.5 53 102.5 81.5 q66 28.5 153 28.5 l68 0 l0 95 q0 56 -35.5 85.5 q-35.5 29.5 -114.5 29.5 q-23 0 -59.5 -3 q-36.5 -3 -84.5 -10 l-16 133 q48 12 93 19.5 q45 7.5 88 7.5 q87 0 154.5 -32 q67.5 -32 107 -90.5 q39.5 -58.5 39.5 -139.5 l0 -241 l-240 0 q-63 0 -91.5 -22 q-28.5 -22 -28.5 -68 q0 -46 28.5 -68.5 q28.5 -22.5 91.5 -22.5 q9 0 20.5 1 q11.5 1 26.5 2 l4 -145 q-11 -2 -24.5 -3 q-13.5 -1 -26.5 -1 Z" /><glyph glyph-name="uniFB7D" unicode="&#xfb7d;" d="M193 -271 l146 0 l0 -112 l-146 0 l0 112 ZM79 -104 l163 0 l0 -131 l-163 0 l0 131 ZM291 -104 l164 0 l0 -131 l-164 0 l0 131 ZM534 0 l0 146 l104 0 l0 -146 l-104 0 ZM0 0 l0 146 l422 0 l-60 -46 l0 141 q0 56 -35 85.5 q-35 29.5 -115 29.5 q-20 0 -54 -2.5 q-34 -2.5 -76 -8.5 l-15 135 q43 10 84.5 16.5 q41.5 6.5 82.5 6.5 q86 0 153.5 -32 q67.5 -32 107 -90.5 q39.5 -58.5 39.5 -139.5 l0 -241 l-534 0 ZM0 0 q-11 0 -15.5 20 q-4.5 20 -4.5 53 q0 34 4.5 53.5 q4.5 19.5 15.5 19.5 l0 -146 ZM638 0 l0 146 q11 0 15.5 -19.5 q4.5 -19.5 4.5 -53.5 q0 -33 -4.5 -53 q-4.5 -20 -15.5 -20 Z" /><glyph glyph-name="uniFB7C" unicode="&#xfb7c;" d="M193 -271 l146 0 l0 -112 l-146 0 l0 112 ZM79 -104 l163 0 l0 -131 l-163 0 l0 131 ZM291 -104 l164 0 l0 -131 l-164 0 l0 131 ZM0 0 l0 146 l422 0 l-60 -46 l0 141 q0 56 -35 85.5 q-35 29.5 -115 29.5 q-20 0 -54 -2.5 q-34 -2.5 -76 -8.5 l-15 135 q43 10 84.5 16.5 q41.5 6.5 82.5 6.5 q86 0 153.5 -32 q67.5 -32 107 -90.5 q39.5 -58.5 39.5 -139.5 l0 -241 l-534 0 ZM0 0 q-11 0 -15.5 20 q-4.5 20 -4.5 53 q0 34 4.5 53.5 q4.5 19.5 15.5 19.5 l0 -146 Z" /><glyph glyph-name="uni062D" unicode="&#x62d;" d="M473 -170 l25 -137 q-44 -9 -85.5 -14.5 q-41.5 -5.5 -80.5 -5.5 q-87 0 -153 28.5 q-66 28.5 -102.5 82 q-36.5 53.5 -36.5 126.5 q0 73 36.5 126 q36.5 53 102.5 81.5 q66 28.5 153 28.5 l68 0 l0 -146 l-68 0 q-63 0 -91.5 -22 q-28.5 -22 -28.5 -68 q0 -46 28.5 -68.5 q28.5 -22.5 91.5 -22.5 q24 0 58.5 3 q34.5 3 82.5 8 ZM106 343 l-16 133 q48 12 93 19.5 q45 7.5 88 7.5 q87 0 154.5 -32 q67.5 -32 107 -90.5 q39.5 -58.5 39.5 -139.5 l0 -241 l-172 0 l0 241 q0 56 -35.5 85.5 q-35.5 29.5 -114.5 29.5 q-23 0 -59.5 -3 q-36.5 -3 -84.5 -10 Z" /><glyph glyph-name="uniFEA2" unicode="&#xfea2;" d="M572 0 l0 146 l104 0 l0 -146 l-104 0 ZM473 -170 l25 -137 q-44 -9 -85.5 -14.5 q-41.5 -5.5 -80.5 -5.5 q-87 0 -153 28.5 q-66 28.5 -102.5 82 q-36.5 53.5 -36.5 126.5 q0 73 36.5 126 q36.5 53 102.5 81.5 q66 28.5 153 28.5 l68 0 l0 -146 l-68 0 q-63 0 -91.5 -22 q-28.5 -22 -28.5 -68 q0 -46 28.5 -68.5 q28.5 -22.5 91.5 -22.5 q24 0 58.5 3 q34.5 3 82.5 8 ZM106 343 l-16 133 q48 12 93 19.5 q45 7.5 88 7.5 q87 0 154.5 -32 q67.5 -32 107 -90.5 q39.5 -58.5 39.5 -139.5 l0 -241 l-172 0 l0 241 q0 56 -35.5 85.5 q-35.5 29.5 -114.5 29.5 q-23 0 -59.5 -3 q-36.5 -3 -84.5 -10 ZM676 0 l0 146 q11 0 15.5 -19.5 q4.5 -19.5 4.5 -53.5 q0 -33 -4.5 -53 q-4.5 -20 -15.5 -20 Z" /><glyph glyph-name="uniFEA4" unicode="&#xfea4;" d="M534 0 l0 146 l104 0 l0 -146 l-104 0 ZM0 0 l0 146 l422 0 l-60 -46 l0 141 q0 56 -35 85.5 q-35 29.5 -115 29.5 q-20 0 -54 -2.5 q-34 -2.5 -76 -8.5 l-15 135 q43 10 84.5 16.5 q41.5 6.5 82.5 6.5 q86 0 153.5 -32 q67.5 -32 107 -90.5 q39.5 -58.5 39.5 -139.5 l0 -241 l-534 0 ZM0 0 q-11 0 -15.5 20 q-4.5 20 -4.5 53 q0 34 4.5 53.5 q4.5 19.5 15.5 19.5 l0 -146 ZM638 0 l0 146 q11 0 15.5 -19.5 q4.5 -19.5 4.5 -53.5 q0 -33 -4.5 -53 q-4.5 -20 -15.5 -20 Z" /><glyph glyph-name="uniFEA3" unicode="&#xfea3;" d="M0 0 l0 146 l422 0 l-60 -46 l0 141 q0 56 -35 85.5 q-35 29.5 -115 29.5 q-20 0 -54 -2.5 q-34 -2.5 -76 -8.5 l-15 135 q43 10 84.5 16.5 q41.5 6.5 82.5 6.5 q86 0 153.5 -32 q67.5 -32 107 -90.5 q39.5 -58.5 39.5 -139.5 l0 -241 l-534 0 ZM0 0 q-11 0 -15.5 20 q-4.5 20 -4.5 53 q0 34 4.5 53.5 q4.5 19.5 15.5 19.5 l0 -146 Z" /><glyph glyph-name="uni062F" unicode="&#x62f;" d="M40 0 l0 146 l356 0 l-109 -93 l0 134 q0 68 -13 104.5 q-13 36.5 -43 51 q-30 14.5 -84 14.5 l-81 0 l0 146 l81 0 q101 0 171 -33.5 q70 -33.5 105.5 -103.5 q35.5 -70 35.5 -179 l0 -187 l-419 0 Z" /><glyph glyph-name="uniFEAA" unicode="&#xfeaa;" d="M459 0 l0 146 l104 0 l0 -146 l-104 0 ZM40 0 l0 146 l356 0 l-109 -93 l0 134 q0 68 -13 104.5 q-13 36.5 -43 51 q-30 14.5 -84 14.5 l-81 0 l0 146 l81 0 q101 0 171 -33.5 q70 -33.5 105.5 -103.5 q35.5 -70 35.5 -179 l0 -187 l-419 0 ZM563 0 l0 146 q11 0 15.5 -19.5 q4.5 -19.5 4.5 -53.5 q0 -33 -4.5 -53 q-4.5 -20 -15.5 -20 Z" /><glyph glyph-name="uni0631" unicode="&#x631;" d="M57 -267 q-11 0 -27 1 q-16 1 -34 3 l3 143 q18 0 33.5 -0.5 q15.5 -0.5 22.5 -0.5 q34 0 53.5 27.5 q19.5 27.5 19.5 79.5 l0 517 l172 0 l0 -517 q0 -73 -30.5 -130.5 q-30.5 -57.5 -85 -90 q-54.5 -32.5 -127.5 -32.5 Z" /><glyph glyph-name="uniFEAE" unicode="&#xfeae;" d="M273 0 l0 146 l130 0 l0 -146 l-130 0 ZM57 -267 q-11 0 -27 1 q-16 1 -34 3 l3 143 q18 0 33.5 -0.5 q15.5 -0.5 22.5 -0.5 q34 0 53.5 27.5 q19.5 27.5 19.5 79.5 l0 517 l172 0 l0 -517 q0 -73 -30.5 -130.5 q-30.5 -57.5 -85 -90 q-54.5 -32.5 -127.5 -32.5 ZM403 0 l0 146 q11 0 15.5 -19.5 q4.5 -19.5 4.5 -53.5 q0 -33 -4.5 -53 q-4.5 -20 -15.5 -20 Z" /><glyph glyph-name="uni0633" unicode="&#x633;" d="M356 -248 q-91 0 -163 33.5 q-72 33.5 -112.5 92 q-40.5 58.5 -40.5 131.5 q0 21 3 53 q3 32 8 71 q5 39 11.5 81.5 q6.5 42.5 12.5 82.5 l170 -22 q-11 -66 -18 -119.5 q-7 -53.5 -11 -90 q-4 -36.5 -4 -54.5 q0 -35 16 -60 q16 -25 48.5 -39 q32.5 -14 79.5 -14 q51 0 79 14.5 q28 14.5 39 38.5 q11 24 11 52 l0 397 l172 0 l0 -397 q0 -75 -38.5 -131.5 q-38.5 -56.5 -106.5 -88 q-68 -31.5 -156 -31.5 ZM654 0 l3 146 l60 0 q30 0 46.5 9.5 q16.5 9.5 23 39 q6.5 29.5 6.5 89.5 l0 166 l173 0 l0 -166 q0 -98 -27.5 -161 q-27.5 -63 -82 -93 q-54.5 -30 -139.5 -30 l-63 0 ZM1006 0 q-47 0 -92 17.5 q-45 17.5 -83 50.5 l103 107 q17 -14 35 -21.5 q18 -7.5 37 -7.5 l194 0 l-97 -84 l0 211 q0 15 -4 47 q-4 32 -10 73.5 q-6 41.5 -14 85.5 l169 24 q7 -36 14 -81.5 q7 -45.5 11.5 -85.5 q4.5 -40 4.5 -63 l0 -273 l-268 0 Z" /><glyph glyph-name="uniFEB2" unicode="&#xfeb2;" d="M1274 0 l0 146 l104 0 l0 -146 l-104 0 ZM356 -248 q-91 0 -163 33.5 q-72 33.5 -112.5 92 q-40.5 58.5 -40.5 131.5 q0 21 3 53 q3 32 8 71 q5 39 11.5 81.5 q6.5 42.5 12.5 82.5 l170 -22 q-11 -66 -18 -119.5 q-7 -53.5 -11 -90 q-4 -36.5 -4 -54.5 q0 -35 16 -60 q16 -25 48.5 -39 q32.5 -14 79.5 -14 q51 0 79 14.5 q28 14.5 39 38.5 q11 24 11 52 l0 397 l172 0 l0 -397 q0 -75 -38.5 -131.5 q-38.5 -56.5 -106.5 -88 q-68 -31.5 -156 -31.5 ZM654 0 l3 146 l60 0 q30 0 46.5 9.5 q16.5 9.5 23 39 q6.5 29.5 6.5 89.5 l0 166 l173 0 l0 -166 q0 -98 -27.5 -161 q-27.5 -63 -82 -93 q-54.5 -30 -139.5 -30 l-63 0 ZM1006 0 q-47 0 -92 17.5 q-45 17.5 -83 50.5 l103 107 q17 -14 35 -21.5 q18 -7.5 37 -7.5 l194 0 l-97 -84 l0 211 q0 15 -4 47 q-4 32 -10 73.5 q-6 41.5 -14 85.5 l169 24 q7 -36 14 -81.5 q7 -45.5 11.5 -85.5 q4.5 -40 4.5 -63 l0 -273 l-268 0 ZM1378 0 l0 146 q11 0 15.5 -19.5 q4.5 -19.5 4.5 -53.5 q0 -33 -4.5 -53 q-4.5 -20 -15.5 -20 Z" /><glyph glyph-name="uniFEB4" unicode="&#xfeb4;" d="M900 0 l0 146 l103 0 l0 -146 l-103 0 ZM630 0 q-46 0 -91.5 17.5 q-45.5 17.5 -82.5 50.5 l104 107 q17 -14 34.5 -21.5 q17.5 -7.5 35.5 -7.5 l195 0 l-97 -84 l0 211 q0 15 -3.5 47 q-3.5 32 -10 73.5 q-6.5 41.5 -14.5 85.5 l169 24 q7 -36 14 -81.5 q7 -45.5 12 -85.5 q5 -40 5 -63 l0 -273 l-270 0 ZM0 0 l0 146 l145 0 l-35 -38 l0 292 l172 0 l0 -400 l-282 0 ZM282 0 l0 146 l60 0 q31 0 47 9.5 q16 9.5 22.5 39 q6.5 29.5 6.5 89.5 l0 166 l172 0 l0 -166 q0 -98 -27 -161 q-27 -63 -81.5 -93 q-54.5 -30 -139.5 -30 l-60 0 ZM0 0 q-11 0 -15.5 20 q-4.5 20 -4.5 53 q0 34 4.5 53.5 q4.5 19.5 15.5 19.5 l0 -146 ZM1003 0 l0 146 q11 0 15.5 -19.5 q4.5 -19.5 4.5 -53.5 q0 -33 -4.5 -53 q-4.5 -20 -15.5 -20 Z" /><glyph glyph-name="uniFEB3" unicode="&#xfeb3;" d="M630 0 q-46 0 -91.5 17.5 q-45.5 17.5 -82.5 50.5 l104 107 q17 -14 34.5 -21.5 q17.5 -7.5 35.5 -7.5 l195 0 l-97 -84 l0 211 q0 15 -3.5 47 q-3.5 32 -10 73.5 q-6.5 41.5 -14.5 85.5 l169 24 q7 -36 14 -81.5 q7 -45.5 12 -85.5 q5 -40 5 -63 l0 -273 l-270 0 ZM0 0 l0 146 l145 0 l-35 -38 l0 292 l172 0 l0 -400 l-282 0 ZM282 0 l0 146 l60 0 q31 0 47 9.5 q16 9.5 22.5 39 q6.5 29.5 6.5 89.5 l0 166 l172 0 l0 -166 q0 -98 -27 -161 q-27 -63 -81.5 -93 q-54.5 -30 -139.5 -30 l-60 0 ZM0 0 q-11 0 -15.5 20 q-4.5 20 -4.5 53 q0 34 4.5 53.5 q4.5 19.5 15.5 19.5 l0 -146 Z" /><glyph glyph-name="uni0635" unicode="&#x635;" d="M356 -248 q-91 0 -163 33.5 q-72 33.5 -112.5 92 q-40.5 58.5 -40.5 131.5 q0 21 3 53 q3 32 8 71 q5 39 11.5 81.5 q6.5 42.5 12.5 82.5 l170 -22 q-11 -66 -18 -119.5 q-7 -53.5 -11 -90 q-4 -36.5 -4 -54.5 q0 -35 16 -60 q16 -25 48.5 -39 q32.5 -14 79.5 -14 q51 0 79 14.5 q28 14.5 39 38.5 q11 24 11 52 l0 500 l172 0 l0 -500 q0 -75 -38.5 -131.5 q-38.5 -56.5 -106.5 -88 q-68 -31.5 -156 -31.5 ZM654 0 l3 146 l479 0 l-141 -119 l0 193 q0 52 -13.5 81.5 q-13.5 29.5 -37.5 42.5 q-24 13 -56 13 q-42 0 -81 -19 q-39 -19 -73 -48 q-34 -29 -62.5 -62 q-28.5 -33 -49.5 -61.5 q-21 -28.5 -35 -44.5 l-33 113 q48 59 83 103.5 q35 44.5 64 76 q29 31.5 58.5 51 q29.5 19.5 66 28.5 q36.5 9 86.5 9 q64 0 111.5 -21.5 q47.5 -21.5 80 -60 q32.5 -38.5 48 -90 q15.5 -51.5 15.5 -111.5 l0 -220 l-513 0 Z" /><glyph glyph-name="uniFEBA" unicode="&#xfeba;" d="M1167 0 l0 146 l104 0 l0 -146 l-104 0 ZM356 -248 q-91 0 -163 33.5 q-72 33.5 -112.5 92 q-40.5 58.5 -40.5 131.5 q0 21 3 53 q3 32 8 71 q5 39 11.5 81.5 q6.5 42.5 12.5 82.5 l170 -22 q-11 -66 -18 -119.5 q-7 -53.5 -11 -90 q-4 -36.5 -4 -54.5 q0 -35 16 -60 q16 -25 48.5 -39 q32.5 -14 79.5 -14 q51 0 79 14.5 q28 14.5 39 38.5 q11 24 11 52 l0 500 l172 0 l0 -500 q0 -75 -38.5 -131.5 q-38.5 -56.5 -106.5 -88 q-68 -31.5 -156 -31.5 ZM654 0 l3 146 l479 0 l-141 -119 l0 193 q0 52 -13.5 81.5 q-13.5 29.5 -37.5 42.5 q-24 13 -56 13 q-42 0 -81 -19 q-39 -19 -73 -48 q-34 -29 -62.5 -62 q-28.5 -33 -49.5 -61.5 q-21 -28.5 -35 -44.5 l-33 113 q48 59 83 103.5 q35 44.5 64 76 q29 31.5 58.5 51 q29.5 19.5 66 28.5 q36.5 9 86.5 9 q64 0 111.5 -21.5 q47.5 -21.5 80 -60 q32.5 -38.5 48 -90 q15.5 -51.5 15.5 -111.5 l0 -220 l-513 0 ZM1271 0 l0 146 q11 0 15.5 -19.5 q4.5 -19.5 4.5 -53.5 q0 -33 -4.5 -53 q-4.5 -20 -15.5 -20 Z" /><glyph glyph-name="uniFEBC" unicode="&#xfebc;" d="M799 0 l0 146 l103 0 l0 -146 l-103 0 ZM0 0 l0 146 l767 0 l-141 -119 l0 193 q0 52 -13.5 81.5 q-13.5 29.5 -37.5 42.5 q-24 13 -56 13 q-42 0 -81 -19 q-39 -19 -73 -48 q-34 -29 -62.5 -62 q-28.5 -33 -49.5 -61.5 q-21 -28.5 -35 -44.5 l-33 113 q48 59 83 103.5 q35 44.5 64 76 q29 31.5 59 51 q30 19.5 66 28.5 q36 9 86 9 q64 0 111.5 -21.5 q47.5 -21.5 80 -60 q32.5 -38.5 48.5 -90 q16 -51.5 16 -111.5 l0 -220 l-799 0 ZM116 146 l0 357 l172 0 l0 -357 l-172 0 ZM0 0 q-11 0 -15.5 20 q-4.5 20 -4.5 53 q0 34 4.5 53.5 q4.5 19.5 15.5 19.5 l0 -146 ZM902 0 l0 146 q11 0 15.5 -19.5 q4.5 -19.5 4.5 -53.5 q0 -33 -4.5 -53 q-4.5 -20 -15.5 -20 Z" /><glyph glyph-name="uniFEBB" unicode="&#xfebb;" d="M0 0 l0 146 l767 0 l-141 -119 l0 193 q0 52 -13.5 81.5 q-13.5 29.5 -37.5 42.5 q-24 13 -56 13 q-42 0 -81 -19 q-39 -19 -73 -48 q-34 -29 -62.5 -62 q-28.5 -33 -49.5 -61.5 q-21 -28.5 -35 -44.5 l-33 113 q48 59 83 103.5 q35 44.5 64 76 q29 31.5 59 51 q30 19.5 66 28.5 q36 9 86 9 q64 0 111.5 -21.5 q47.5 -21.5 80 -60 q32.5 -38.5 48.5 -90 q16 -51.5 16 -111.5 l0 -220 l-799 0 ZM116 146 l0 357 l172 0 l0 -357 l-172 0 ZM0 0 q-11 0 -15.5 20 q-4.5 20 -4.5 53 q0 34 4.5 53.5 q4.5 19.5 15.5 19.5 l0 -146 Z" /><glyph glyph-name="uni0637" unicode="&#x637;" d="M20 0 l0 146 l722 0 l-141 -119 l0 193 q0 52 -13.5 81.5 q-13.5 29.5 -37.5 42.5 q-24 13 -56 13 q-42 0 -81 -19 q-39 -19 -73 -48 q-34 -29 -62.5 -62 q-28.5 -33 -50 -61.5 q-21.5 -28.5 -34.5 -44.5 l-33 113 q47 63 85.5 112.5 q38.5 49.5 77.5 84.5 q39 35 85.5 53 q46.5 18 109.5 18 q63 0 111 -21.5 q48 -21.5 80.5 -60 q32.5 -38.5 48 -90 q15.5 -51.5 15.5 -111.5 l0 -220 l-753 0 ZM91 146 l0 554 l172 0 l0 -554 l-172 0 Z" /><glyph glyph-name="uniFEC2" unicode="&#xfec2;" d="M773 0 l0 146 l104 0 l0 -146 l-104 0 ZM20 0 l0 146 l722 0 l-141 -119 l0 193 q0 52 -13.5 81.5 q-13.5 29.5 -37.5 42.5 q-24 13 -56 13 q-42 0 -81 -19 q-39 -19 -73 -48 q-34 -29 -62.5 -62 q-28.5 -33 -50 -61.5 q-21.5 -28.5 -34.5 -44.5 l-33 113 q47 63 85.5 112.5 q38.5 49.5 77.5 84.5 q39 35 85.5 53 q46.5 18 109.5 18 q63 0 111 -21.5 q48 -21.5 80.5 -60 q32.5 -38.5 48 -90 q15.5 -51.5 15.5 -111.5 l0 -220 l-753 0 ZM91 146 l0 554 l172 0 l0 -554 l-172 0 ZM877 0 l0 146 q11 0 15.5 -19.5 q4.5 -19.5 4.5 -53.5 q0 -33 -4.5 -53 q-4.5 -20 -15.5 -20 Z" /><glyph glyph-name="uniFEC4" unicode="&#xfec4;" d="M736 0 l0 146 l103 0 l0 -146 l-103 0 ZM0 0 l0 146 l722 0 l-141 -119 l0 193 q0 52 -13.5 81.5 q-13.5 29.5 -37.5 42.5 q-24 13 -56 13 q-42 0 -81 -19 q-39 -19 -73 -48 q-34 -29 -62.5 -62 q-28.5 -33 -50 -61.5 q-21.5 -28.5 -34.5 -44.5 l-33 113 q47 63 85.5 112.5 q38.5 49.5 77.5 84.5 q39 35 85.5 53 q46.5 18 109.5 18 q63 0 111 -21.5 q48 -21.5 80.5 -60 q32.5 -38.5 48 -90 q15.5 -51.5 15.5 -111.5 l0 -220 l-753 0 ZM71 146 l0 554 l172 0 l0 -554 l-172 0 ZM0 0 q-11 0 -15.5 20 q-4.5 20 -4.5 53 q0 34 4.5 53.5 q4.5 19.5 15.5 19.5 l0 -146 ZM839 0 l0 146 q11 0 15.5 -19.5 q4.5 -19.5 4.5 -53.5 q0 -33 -4.5 -53 q-4.5 -20 -15.5 -20 Z" /><glyph glyph-name="uni0639" unicode="&#x639;" d="M332 -327 q-87 0 -153 28.5 q-66 28.5 -102.5 82 q-36.5 53.5 -36.5 126.5 q0 73 36.5 126 q36.5 53 102.5 81.5 q66 28.5 153 28.5 l188 0 l0 -146 l-188 0 q-63 0 -91.5 -22 q-28.5 -22 -28.5 -68 q0 -46 28.5 -68.5 q28.5 -22.5 91.5 -22.5 q24 0 58.5 3 q34.5 3 82.5 8 l25 -137 q-44 -9 -85.5 -14.5 q-41.5 -5.5 -80.5 -5.5 ZM194 25 q-49 49 -72.5 99 q-23.5 50 -23.5 108 q0 61 23.5 110.5 q23.5 49.5 63.5 86 q40 36.5 92.5 55.5 q52.5 19 109.5 19 q31 0 63 -5.5 q32 -5.5 61 -15.5 l-47 -138 q-19 6 -36 9.5 q-17 3.5 -34 3.5 q-38 0 -66 -16 q-28 -16 -43 -43.5 q-15 -27.5 -15 -63.5 q0 -31 12.5 -58.5 q12.5 -27.5 37.5 -51.5 l-126 -99 Z" /><glyph glyph-name="uniFECA" unicode="&#xfeca;" d="M473 -169 l25 -138 q-44 -9 -85.5 -14.5 q-41.5 -5.5 -80.5 -5.5 q-87 0 -153 28.5 q-66 28.5 -102.5 82 q-36.5 53.5 -36.5 126.5 q0 69 32.5 120.5 q32.5 51.5 91 83 q58.5 31.5 134.5 38.5 l-3 4 q22 6 47 20.5 q25 14.5 47.5 36 q22.5 21.5 40 47.5 q17.5 26 28 55 q10.5 29 10.5 57 l0 67 l79 -135 q-48 25 -100.5 39 q-52.5 14 -98.5 14 q-46 0 -98.5 -14 q-52.5 -14 -100.5 -39 l79 135 l0 -67 q0 -27 11.5 -58 q11.5 -31 30.5 -60.5 q19 -29.5 44.5 -54 q25.5 -24.5 55 -39 q29.5 -14.5 60.5 -14.5 l253 0 l0 -146 l-182 0 q-78 0 -146 25 q-68 25 -123 66.5 q-55 41.5 -94.5 91 q-39.5 49.5 -60.5 99 q-21 49.5 -21 90.5 l0 55 q43 25 95 42 q52 17 103.5 25.5 q51.5 8.5 93.5 8.5 q43 0 94 -8.5 q51 -8.5 103 -25.5 q52 -17 95 -42 l0 -55 q0 -46 -21 -93 q-21 -47 -57.5 -91 q-36.5 -44 -84.5 -80 q-48 -36 -103 -61 q-8 -3 -22 -8.5 q-14 -5.5 -29.5 -11.5 q-15.5 -6 -27 -10 q-11.5 -4 -13.5 -5 q-26 -13 -47.5 -37 q-21.5 -24 -21.5 -69 q0 -41 29.5 -64 q29.5 -23 89.5 -23 q23 0 58 3 q35 3 83 9 ZM683 0 l0 146 q11 0 15.5 -19.5 q4.5 -19.5 4.5 -53.5 q0 -33 -4.5 -53 q-4.5 -20 -15.5 -20 Z" /><glyph glyph-name="uniFECC" unicode="&#xfecc;" d="M0 0 l0 146 l266 0 q31 0 60.5 14.5 q29.5 14.5 55 39 q25.5 24.5 45 54 q19.5 29.5 30.5 60.5 q11 31 11 58 l0 67 l80 -135 q-48 25 -101 39 q-53 14 -99 14 q-45 0 -98 -14 q-53 -14 -101 -39 l80 135 l0 -67 q0 -27 11 -58 q11 -31 30.5 -60.5 q19.5 -29.5 45 -54 q25.5 -24.5 55 -39 q29.5 -14.5 60.5 -14.5 l260 0 l0 -146 l-189 0 q-78 0 -146 25 q-68 25 -123 66.5 q-55 41.5 -94.5 91 q-39.5 49.5 -60.5 99 q-21 49.5 -21 90.5 l0 55 q43 25 94.5 42 q51.5 17 103 25.5 q51.5 8.5 93.5 8.5 q43 0 94.5 -8.5 q51.5 -8.5 103 -25.5 q51.5 -17 94.5 -42 l0 -55 q0 -41 -21 -90.5 q-21 -49.5 -60.5 -99 q-39.5 -49.5 -94.5 -91 q-55 -41.5 -123 -66.5 q-68 -25 -146 -25 l-195 0 ZM0 0 q-11 0 -15.5 20 q-4.5 20 -4.5 53 q0 34 4.5 53.5 q4.5 19.5 15.5 19.5 l0 -146 ZM691 0 l0 146 q11 0 15.5 -19.5 q4.5 -19.5 4.5 -53.5 q0 -33 -4.5 -53 q-4.5 -20 -15.5 -20 Z" /><glyph glyph-name="uniFECB" unicode="&#xfecb;" d="M167 25 q-48 49 -71.5 99 q-23.5 50 -23.5 108 q0 61 23.5 110.5 q23.5 49.5 63.5 86 q40 36.5 92.5 55.5 q52.5 19 109.5 19 q30 0 62.5 -5.5 q32.5 -5.5 61.5 -15.5 l-48 -138 q-18 6 -35 9.5 q-17 3.5 -35 3.5 q-37 0 -65 -16 q-28 -16 -43 -43.5 q-15 -27.5 -15 -63.5 q0 -63 50 -110 l-127 -99 ZM0 0 l0 146 l493 0 l0 -146 l-493 0 ZM0 0 q-11 0 -15.5 20 q-4.5 20 -4.5 53 q0 34 4.5 53.5 q4.5 19.5 15.5 19.5 l0 -146 Z" /><glyph glyph-name="uni06A1" unicode="&#x6a1;" d="M405 0 q-169 0 -260 70 q-91 70 -91 202 q0 24 3 49.5 q3 25.5 7 49 q4 23.5 8 42 q4 18.5 6 28.5 l167 -33 q-3 -15 -7.5 -38 q-4.5 -23 -8 -48 q-3.5 -25 -3.5 -47 q0 -53 23.5 -81 q23.5 -28 66 -38 q42.5 -10 100.5 -10 l431 0 l-32 -28 l0 263 l29 -24 l-96 0 q-35 0 -55 -9.5 q-20 -9.5 -29 -32.5 q-9 -23 -9 -64 q0 -47 9 -69 q9 -22 29 -29 q20 -7 55 -7 l0 -139 q-84 0 -143.5 25 q-59.5 25 -90.5 79 q-31 54 -31 140 q0 80 31 136.5 q31 56.5 90.5 86 q59.5 29.5 143.5 29.5 l239 0 l0 -503 l-582 0 Z" /><glyph glyph-name="uni066F" unicode="&#x66f;" d="M348 -266 q-88 0 -158 33 q-70 33 -110 90 q-40 57 -40 129 q0 20 3 52.5 q3 32.5 8.5 72.5 q5.5 40 11.5 82.5 q6 42.5 12 82.5 l170 -22 q-10 -66 -17.5 -119 q-7.5 -53 -11.5 -90 q-4 -37 -4 -57 q0 -35 15.5 -58.5 q15.5 -23.5 46 -36.5 q30.5 -13 74.5 -13 l237 0 q66 0 94.5 24.5 q28.5 24.5 28.5 74.5 l0 402 l29 -24 l-96 0 q-35 0 -55 -9.5 q-20 -9.5 -29 -32.5 q-9 -23 -9 -64 q0 -47 9 -69 q9 -22 29 -29 q20 -7 55 -7 l67 0 l0 -146 l-67 0 q-84 0 -143 27 q-59 27 -90.5 82.5 q-31.5 55.5 -31.5 141.5 q0 80 31.5 136.5 q31.5 56.5 90.5 86 q59 29.5 143 29.5 l239 0 l0 -524 q0 -72 -37 -127.5 q-37 -55.5 -103.5 -86.5 q-66.5 -31 -154.5 -31 l-237 0 Z" /><glyph glyph-name="uniFEDC" unicode="&#xfedc;" d="M621 0 l0 146 l103 0 l0 -146 l-103 0 ZM0 0 l0 146 l503 0 l-54 -43 l0 107 q0 51 -9 79 q-9 28 -27.5 40 q-18.5 12 -45.5 12 l-221 0 l-100 143 l56 105 q7 13 17 30.5 q10 17.5 27 44.5 q17 27 44 68 l145 -79 q-24 -35 -38.5 -58.5 q-14.5 -23.5 -24 -41 q-9.5 -17.5 -18.5 -34.5 l-32 -61 l-20 29 l165 0 q65 0 112.5 -20.5 q47.5 -20.5 79 -58.5 q31.5 -38 47 -88.5 q15.5 -50.5 15.5 -109.5 l0 -210 l-621 0 ZM0 0 q-11 0 -15.5 20 q-4.5 20 -4.5 53 q0 34 4.5 53.5 q4.5 19.5 15.5 19.5 l0 -146 ZM724 0 l0 146 q11 0 15.5 -19.5 q4.5 -19.5 4.5 -53.5 q0 -33 -4.5 -53 q-4.5 -20 -15.5 -20 Z" /><glyph glyph-name="uniFEDB" unicode="&#xfedb;" d="M0 0 l0 146 l503 0 l-54 -43 l0 107 q0 51 -9 79 q-9 28 -27.5 40 q-18.5 12 -45.5 12 l-221 0 l-100 143 l56 105 q7 13 17 30.5 q10 17.5 27 44.5 q17 27 44 68 l145 -79 q-24 -35 -38.5 -58.5 q-14.5 -23.5 -24 -41 q-9.5 -17.5 -18.5 -34.5 l-32 -61 l-20 29 l165 0 q65 0 112.5 -20.5 q47.5 -20.5 79 -58.5 q31.5 -38 47 -88.5 q15.5 -50.5 15.5 -109.5 l0 -210 l-621 0 ZM0 0 q-11 0 -15.5 20 q-4.5 20 -4.5 53 q0 34 4.5 53.5 q4.5 19.5 15.5 19.5 l0 -146 Z" /><glyph glyph-name="uni06A9" unicode="&#x6a9;" d="M391 0 q-169 0 -260 70 q-91 70 -91 202 q0 22 2.5 46.5 q2.5 24.5 6.5 47 q4 22.5 8 42.5 q4 20 7 33 l167 -33 q-3 -14 -6 -31 q-3 -17 -6 -35 q-3 -18 -5 -35.5 q-2 -17.5 -2 -31.5 q0 -53 23.5 -81 q23.5 -28 66 -38 q42.5 -10 100.5 -10 l283 0 l0 64 q0 51 -9.5 79 q-9.5 28 -27.5 40 q-18 12 -45 12 l-221 0 l-100 143 l56 105 q7 13 17 30.5 q10 17.5 27 44.5 q17 27 44 68 l144 -79 q-23 -35 -37.5 -58.5 q-14.5 -23.5 -24.5 -41 q-10 -17.5 -19 -34.5 l-17 -32 l131 0 q65 0 112.5 -20.5 q47.5 -20.5 79 -58.5 q31.5 -38 47 -88.5 q15.5 -50.5 15.5 -109.5 l0 -210 l-466 0 Z" /><glyph glyph-name="uniFB8F" unicode="&#xfb8f;" d="M857 0 l0 146 l103 0 l0 -146 l-103 0 ZM391 0 q-169 0 -260 70 q-91 70 -91 202 q0 22 2.5 46.5 q2.5 24.5 6.5 47 q4 22.5 8 42.5 q4 20 7 33 l167 -33 q-3 -14 -6 -31 q-3 -17 -6 -35 q-3 -18 -5 -35.5 q-2 -17.5 -2 -31.5 q0 -53 23.5 -81 q23.5 -28 66 -38 q42.5 -10 100.5 -10 l283 0 l0 64 q0 51 -9.5 79 q-9.5 28 -27.5 40 q-18 12 -45 12 l-221 0 l-100 143 l56 105 q7 13 17 30.5 q10 17.5 27 44.5 q17 27 44 68 l144 -79 q-23 -35 -37.5 -58.5 q-14.5 -23.5 -24.5 -41 q-10 -17.5 -19 -34.5 l-17 -32 l131 0 q65 0 112.5 -20.5 q47.5 -20.5 79 -58.5 q31.5 -38 47 -88.5 q15.5 -50.5 15.5 -109.5 l0 -210 l-466 0 ZM960 0 l0 146 q11 0 15.5 -19.5 q4.5 -19.5 4.5 -53.5 q0 -33 -4.5 -53 q-4.5 -20 -15.5 -20 Z" /><glyph glyph-name="uni06AF" unicode="&#x6af;" d="M255 522 l-56 82 q20 41 38 74.5 q18 33.5 35.5 63.5 q17.5 30 37.5 59 l78 -46 q-20 -32 -36 -58 q-16 -26 -31 -52 q-15 -26 -31 -55.5 q-16 -29.5 -35 -67.5 ZM391 0 q-169 0 -260 70 q-91 70 -91 202 q0 22 2.5 46.5 q2.5 24.5 6.5 47 q4 22.5 8 42.5 q4 20 7 33 l167 -33 q-3 -14 -6 -31 q-3 -17 -6 -35 q-3 -18 -5 -35.5 q-2 -17.5 -2 -31.5 q0 -53 23.5 -81 q23.5 -28 66 -38 q42.5 -10 100.5 -10 l283 0 l0 64 q0 51 -9.5 79 q-9.5 28 -27.5 40 q-18 12 -45 12 l-221 0 l-100 143 l56 105 q7 13 17 30.5 q10 17.5 27 44.5 q17 27 44 68 l144 -79 q-23 -35 -37.5 -58.5 q-14.5 -23.5 -24.5 -41 q-10 -17.5 -19 -34.5 l-17 -32 l131 0 q65 0 112.5 -20.5 q47.5 -20.5 79 -58.5 q31.5 -38 47 -88.5 q15.5 -50.5 15.5 -109.5 l0 -210 l-466 0 Z" /><glyph glyph-name="uniFB93" unicode="&#xfb93;" d="M255 522 l-56 82 q20 41 38 74.5 q18 33.5 35.5 63.5 q17.5 30 37.5 59 l78 -46 q-20 -32 -36 -58 q-16 -26 -31 -52 q-15 -26 -31 -55.5 q-16 -29.5 -35 -67.5 ZM391 0 q-169 0 -260 70 q-91 70 -91 202 q0 22 2.5 46.5 q2.5 24.5 6.5 47 q4 22.5 8 42.5 q4 20 7 33 l167 -33 q-3 -14 -6 -31 q-3 -17 -6 -35 q-3 -18 -5 -35.5 q-2 -17.5 -2 -31.5 q0 -53 23.5 -81 q23.5 -28 66 -38 q42.5 -10 100.5 -10 l283 0 l0 64 q0 51 -9.5 79 q-9.5 28 -27.5 40 q-18 12 -45 12 l-221 0 l-100 143 l56 105 q7 13 17 30.5 q10 17.5 27 44.5 q17 27 44 68 l144 -79 q-23 -35 -37.5 -58.5 q-14.5 -23.5 -24.5 -41 q-10 -17.5 -19 -34.5 l-17 -32 l131 0 q65 0 112.5 -20.5 q47.5 -20.5 79 -58.5 q31.5 -38 47 -88.5 q15.5 -50.5 15.5 -109.5 l0 -210 l-466 0 ZM960 0 l0 146 q11 0 15.5 -19.5 q4.5 -19.5 4.5 -53.5 q0 -33 -4.5 -53 q-4.5 -20 -15.5 -20 ZM857 0 l0 146 l103 0 l0 -146 l-103 0 Z" /><glyph glyph-name="uniFB95" unicode="&#xfb95;" d="M695 0 l0 146 l104 0 l0 -146 l-104 0 ZM799 0 l0 146 q11 0 15.5 -19.5 q4.5 -19.5 4.5 -53.5 q0 -33 -4.5 -53 q-4.5 -20 -15.5 -20 ZM88 521 l-56 82 q20 41 38 75 q18 34 35.5 64 q17.5 30 37.5 59 l78 -47 q-20 -31 -36 -57.5 q-16 -26.5 -31 -52.5 q-15 -26 -31 -55.5 q-16 -29.5 -35 -67.5 ZM0 0 l0 146 l578 0 l-53 -43 l0 107 q0 51 -9 79 q-9 28 -27.5 40 q-18.5 12 -45.5 12 l-221 0 l-100 143 l56 105 q7 13 17 30.5 q10 17.5 27 44.5 q17 27 44 68 l144 -79 q-23 -35 -37.5 -58.5 q-14.5 -23.5 -24.5 -41 q-10 -17.5 -19 -34.5 l-32 -61 l-20 29 l166 0 q65 0 112.5 -20.5 q47.5 -20.5 79 -58.5 q31.5 -38 47 -88.5 q15.5 -50.5 15.5 -109.5 l0 -210 l-697 0 ZM0 0 q-11 0 -15.5 20 q-4.5 20 -4.5 53 q0 34 4.5 53.5 q4.5 19.5 15.5 19.5 l0 -146 Z" /><glyph glyph-name="uniFB94" unicode="&#xfb94;" d="M88 521 l-56 82 q20 41 38 75 q18 34 35.5 64 q17.5 30 37.5 59 l78 -47 q-20 -31 -36 -57.5 q-16 -26.5 -31 -52.5 q-15 -26 -31 -55.5 q-16 -29.5 -35 -67.5 ZM0 0 l0 146 l578 0 l-53 -43 l0 107 q0 51 -9 79 q-9 28 -27.5 40 q-18.5 12 -45.5 12 l-221 0 l-100 143 l56 105 q7 13 17 30.5 q10 17.5 27 44.5 q17 27 44 68 l144 -79 q-23 -35 -37.5 -58.5 q-14.5 -23.5 -24.5 -41 q-10 -17.5 -19 -34.5 l-32 -61 l-20 29 l166 0 q65 0 112.5 -20.5 q47.5 -20.5 79 -58.5 q31.5 -38 47 -88.5 q15.5 -50.5 15.5 -109.5 l0 -210 l-697 0 ZM0 0 q-11 0 -15.5 20 q-4.5 20 -4.5 53 q0 34 4.5 53.5 q4.5 19.5 15.5 19.5 l0 -146 Z" /><glyph glyph-name="uni0644" unicode="&#x644;" d="M356 -248 q-91 0 -163 33.5 q-72 33.5 -112.5 92 q-40.5 58.5 -40.5 131.5 q0 21 3 53 q3 32 8 71 q5 39 11.5 81.5 q6.5 42.5 12.5 82.5 l170 -22 q-11 -66 -18 -119.5 q-7 -53.5 -11 -90 q-4 -36.5 -4 -54.5 q0 -35 16 -60 q16 -25 48.5 -39 q32.5 -14 79.5 -14 q51 0 79 14.5 q28 14.5 39 38.5 q11 24 11 52 l0 697 l172 0 l0 -697 q0 -75 -38.5 -131.5 q-38.5 -56.5 -106.5 -88 q-68 -31.5 -156 -31.5 Z" /><glyph glyph-name="uniFEDE" unicode="&#xfede;" d="M657 0 l0 146 l103 0 l0 -146 l-103 0 ZM356 -248 q-91 0 -163 33.5 q-72 33.5 -112.5 92 q-40.5 58.5 -40.5 131.5 q0 21 3 53 q3 32 8 71 q5 39 11.5 81.5 q6.5 42.5 12.5 82.5 l170 -22 q-11 -66 -18 -119.5 q-7 -53.5 -11 -90 q-4 -36.5 -4 -54.5 q0 -35 16 -60 q16 -25 48.5 -39 q32.5 -14 79.5 -14 q51 0 79 14.5 q28 14.5 39 38.5 q11 24 11 52 l0 697 l172 0 l0 -697 q0 -75 -38.5 -131.5 q-38.5 -56.5 -106.5 -88 q-68 -31.5 -156 -31.5 ZM760 0 l0 146 q11 0 15.5 -19.5 q4.5 -19.5 4.5 -53.5 q0 -33 -4.5 -53 q-4.5 -20 -15.5 -20 Z" /><glyph glyph-name="uniFEE0" unicode="&#xfee0;" d="M280 0 l0 146 l104 0 l0 -146 l-104 0 ZM108 0 l0 700 l172 0 l0 -700 l-172 0 ZM0 0 l0 146 l108 0 l0 -146 l-108 0 ZM0 0 q-11 0 -15.5 20 q-4.5 20 -4.5 54 q0 33 4.5 52.5 q4.5 19.5 15.5 19.5 l0 -146 ZM384 0 l0 146 q11 0 15.5 -19.5 q4.5 -19.5 4.5 -52.5 q0 -34 -4.5 -54 q-4.5 -20 -15.5 -20 Z" /><glyph glyph-name="uniFEDF" unicode="&#xfedf;" d="M108 0 l0 700 l172 0 l0 -700 l-172 0 ZM0 0 l0 146 l108 0 l0 -146 l-108 0 ZM0 0 q-11 0 -15.5 20 q-4.5 20 -4.5 54 q0 33 4.5 52.5 q4.5 19.5 15.5 19.5 l0 -146 Z" /><glyph glyph-name="uni0645" unicode="&#x645;" d="M64 -332 q-9 52 -16.5 103 q-7.5 51 -7.5 92 q0 86 35 149.5 q35 63.5 99 98.5 q64 35 149 35 q15 0 29.5 0 q14.5 0 36 0 q21.5 0 52 0 q30.5 0 76.5 0 l-63 -62 l0 165 q0 39 -8 62.5 q-8 23.5 -32 34.5 q-24 11 -72 11 q-35 0 -73.5 -5 q-38.5 -5 -60.5 -14 l108 98 q-6 -24 -11.5 -59 q-5.5 -35 -8.5 -71.5 q-3 -36.5 -3 -65.5 q0 -32 3 -67.5 q3 -35.5 7.5 -63.5 q4.5 -28 6.5 -38 l-164 -45 q-4 15 -10.5 47 q-6.5 32 -10.5 74.5 q-4 42.5 -4 90.5 q0 49 5 95 q5 46 12 83.5 q7 37.5 13 59.5 q28 11 81.5 19 q53.5 8 113.5 8 q75 0 125 -15 q50 -15 81 -41 q31 -26 47 -58.5 q16 -32.5 21.5 -69 q5.5 -36.5 5.5 -72.5 l0 -247 q-46 0 -93 0 q-47 0 -90 0 q-43 0 -74.5 0 q-31.5 0 -45.5 0 q-16 0 -35 -4.5 q-19 -4.5 -36.5 -18 q-17.5 -13.5 -28.5 -41 q-11 -27.5 -11 -73.5 q0 -35 6.5 -82.5 q6.5 -47.5 14.5 -112.5 l-169 0 Z" /><glyph glyph-name="uniFEE2" unicode="&#xfee2;" d="M626 0 l0 146 l103 0 l0 -146 l-103 0 ZM64 -332 q-9 52 -16.5 103 q-7.5 51 -7.5 92 q0 86 35 149.5 q35 63.5 99 98.5 q64 35 149 35 q15 0 29.5 0 q14.5 0 36 0 q21.5 0 52 0 q30.5 0 76.5 0 l-63 -62 l0 165 q0 39 -8 62.5 q-8 23.5 -32 34.5 q-24 11 -72 11 q-35 0 -73.5 -5 q-38.5 -5 -60.5 -14 l108 98 q-6 -24 -11.5 -59 q-5.5 -35 -8.5 -71.5 q-3 -36.5 -3 -65.5 q0 -32 3 -67.5 q3 -35.5 7.5 -63.5 q4.5 -28 6.5 -38 l-164 -45 q-4 15 -10.5 47 q-6.5 32 -10.5 74.5 q-4 42.5 -4 90.5 q0 49 5 95 q5 46 12 83.5 q7 37.5 13 59.5 q28 11 81.5 19 q53.5 8 113.5 8 q75 0 125 -15 q50 -15 81 -41 q31 -26 47 -58.5 q16 -32.5 21.5 -69 q5.5 -36.5 5.5 -72.5 l0 -247 q-46 0 -93 0 q-47 0 -90 0 q-43 0 -74.5 0 q-31.5 0 -45.5 0 q-16 0 -35 -4.5 q-19 -4.5 -36.5 -18 q-17.5 -13.5 -28.5 -41 q-11 -27.5 -11 -73.5 q0 -35 6.5 -82.5 q6.5 -47.5 14.5 -112.5 l-169 0 ZM729 0 l0 146 q11 0 15.5 -19.5 q4.5 -19.5 4.5 -53.5 q0 -33 -4.5 -53 q-4.5 -20 -15.5 -20 Z" /><glyph glyph-name="uniFEE4" unicode="&#xfee4;" d="M608 0 l0 146 l104 0 l0 -146 l-104 0 ZM-1 0 l0 146 l500 0 l-63 -59 l0 163 q0 44 -9 67.5 q-9 23.5 -32 33 q-23 9.5 -66 9.5 q-40 0 -78 -5 q-38 -5 -60 -14 l108 99 q-6 -22 -11.5 -56 q-5.5 -34 -9 -72 q-3.5 -38 -3.5 -73 q0 -30 3 -66 q3 -36 7.5 -64 q4.5 -28 6.5 -38 l-163 -45 q-5 15 -11 47 q-6 32 -10 75 q-4 43 -4 91 q0 50 4.5 96.5 q4.5 46.5 11.5 84 q7 37.5 13 59.5 q25 9 78 18 q53 9 118 9 q94 0 155.5 -25 q61.5 -25 92.5 -81 q31 -56 31 -152 l0 -248 l-609 0 ZM0 0 q-11 0 -15.5 20 q-4.5 20 -4.5 53 q0 34 4.5 53.5 q4.5 19.5 15.5 19.5 l0 -146 ZM712 0 l0 146 q11 0 15.5 -19.5 q4.5 -19.5 4.5 -53.5 q0 -33 -4.5 -53 q-4.5 -20 -15.5 -20 Z" /><glyph glyph-name="uniFEE3" unicode="&#xfee3;" d="M-1 0 l0 146 l500 0 l-63 -59 l0 163 q0 44 -9 67.5 q-9 23.5 -32 33 q-23 9.5 -66 9.5 q-40 0 -78 -5 q-38 -5 -60 -14 l108 99 q-6 -22 -11.5 -56 q-5.5 -34 -9 -72 q-3.5 -38 -3.5 -73 q0 -30 3 -66 q3 -36 7.5 -64 q4.5 -28 6.5 -38 l-163 -45 q-5 15 -11 47 q-6 32 -10 75 q-4 43 -4 91 q0 50 4.5 96.5 q4.5 46.5 11.5 84 q7 37.5 13 59.5 q25 9 78 18 q53 9 118 9 q94 0 155.5 -25 q61.5 -25 92.5 -81 q31 -56 31 -152 l0 -248 l-609 0 ZM0 0 q-11 0 -15.5 20 q-4.5 20 -4.5 53 q0 34 4.5 53.5 q4.5 19.5 15.5 19.5 l0 -146 Z" /><glyph glyph-name="uni06BA" unicode="&#x6ba;" d="M356 -248 q-91 0 -163 33.5 q-72 33.5 -112.5 92 q-40.5 58.5 -40.5 131.5 q0 21 3 53 q3 32 8 71 q5 39 11.5 81.5 q6.5 42.5 12.5 82.5 l170 -22 q-11 -66 -18 -119.5 q-7 -53.5 -11 -90 q-4 -36.5 -4 -54.5 q0 -35 16 -60 q16 -25 48.5 -39 q32.5 -14 79.5 -14 q51 0 79 14.5 q28 14.5 39 38.5 q11 24 11 52 l0 500 l172 0 l0 -500 q0 -75 -38.5 -131.5 q-38.5 -56.5 -106.5 -88 q-68 -31.5 -156 -31.5 Z" /><glyph glyph-name="uniFB9F" unicode="&#xfb9f;" d="M656 0 l0 146 l104 0 l0 -146 l-104 0 ZM356 -248 q-91 0 -163 33.5 q-72 33.5 -112.5 92 q-40.5 58.5 -40.5 131.5 q0 21 3 53 q3 32 8 71 q5 39 11.5 81.5 q6.5 42.5 12.5 82.5 l170 -22 q-11 -66 -18 -119.5 q-7 -53.5 -11 -90 q-4 -36.5 -4 -54.5 q0 -35 16 -60 q16 -25 48.5 -39 q32.5 -14 79.5 -14 q51 0 79 14.5 q28 14.5 39 38.5 q11 24 11 52 l0 500 l172 0 l0 -500 q0 -75 -38.5 -131.5 q-38.5 -56.5 -106.5 -88 q-68 -31.5 -156 -31.5 ZM760 0 l0 146 q11 0 15.5 -19.5 q4.5 -19.5 4.5 -53.5 q0 -33 -4.5 -53 q-4.5 -20 -15.5 -20 Z" /><glyph glyph-name="uni0647" unicode="&#x647;" d="M40 0 l0 219 q0 100 33 162.5 q33 62.5 97 92 q64 29.5 158 29.5 q94 0 158.5 -29.5 q64.5 -29.5 97 -92 q32.5 -62.5 32.5 -162.5 l0 -219 l-576 0 ZM212 69 l-80 77 l392 0 l-80 -77 l0 143 q0 52 -8.5 84 q-8.5 32 -33.5 46.5 q-25 14.5 -74 14.5 q-48 0 -73.5 -14.5 q-25.5 -14.5 -34 -46.5 q-8.5 -32 -8.5 -84 l0 -143 Z" /><glyph glyph-name="uniFEEA" unicode="&#xfeea;" d="M305 0 q-84 0 -143.5 27 q-59.5 27 -90.5 82 q-31 55 -31 138 q0 83 31 140 q31 57 90.5 86.5 q59.5 29.5 143.5 29.5 l239 0 l0 -424 l-172 0 l0 302 l28 -24 l-95 0 q-28 0 -49 -7 q-21 -7 -32.5 -30.5 q-11.5 -23.5 -11.5 -72.5 q0 -46 10 -67.5 q10 -21.5 30.5 -27.5 q20.5 -6 52.5 -6 l343 0 l0 -146 l-343 0 ZM648 0 l0 146 q11 0 15.5 -19.5 q4.5 -19.5 4.5 -53.5 q0 -33 -4.5 -53 q-4.5 -20 -15.5 -20 Z" /><glyph glyph-name="uniFEEC" unicode="&#xfeec;" d="M0 0 l0 146 l499 0 l-70 -69 l0 172 q0 42 -9 65 q-9 23 -32 33 q-23 10 -65 10 q-41 0 -79 -5 q-38 -5 -61 -14 l108 98 q-6 -21 -11 -55 q-5 -34 -8.5 -72 q-3.5 -38 -3.5 -72 q0 -30 3 -65 q3 -35 7.5 -63 q4.5 -28 7.5 -38 l-164 -45 q-5 15 -11 47 q-6 32 -10.5 74.5 q-4.5 42.5 -4.5 89.5 q0 74 10.5 139.5 q10.5 65.5 19.5 99.5 q25 9 78 18 q53 9 119 9 q138 0 208 -57.5 q70 -57.5 70 -198.5 l0 -247 l-601 0 ZM322 -277 q-65 0 -118 7.5 q-53 7.5 -78 14.5 q-9 29 -19.5 84 q-10.5 55 -10.5 118 q0 58 9.5 107.5 q9.5 49.5 16.5 69.5 l161 -51 q-3 -6 -6 -29 q-3 -23 -6 -50.5 q-3 -27.5 -3 -47.5 q0 -25 3 -54.5 q3 -29.5 8.5 -57 q5.5 -27.5 10.5 -45.5 l-109 97 q22 -7 61 -11.5 q39 -4.5 81 -4.5 q43 0 66 6.5 q23 6.5 31.5 23.5 q8.5 17 8.5 47 l0 199 l172 0 l0 -207 q0 -119 -70 -167.5 q-70 -48.5 -209 -48.5 ZM601 0 l0 146 l103 0 l0 -146 l-103 0 ZM704 0 l0 146 q12 0 16 -19.5 q4 -19.5 4 -53.5 q0 -33 -4 -53 q-4 -20 -16 -20 ZM0 0 q-11 0 -15.5 20 q-4.5 20 -4.5 53 q0 34 4.5 53.5 q4.5 19.5 15.5 19.5 l0 -146 Z" /><glyph glyph-name="uniFEEB" unicode="&#xfeeb;" d="M0 0 l0 146 l696 0 l-123 -97 l0 171 q0 81 -18.5 127.5 q-18.5 46.5 -60 66.5 q-41.5 20 -110.5 20 q-37 0 -83 -1.5 q-46 -1.5 -92 -3.5 q-46 -2 -83 -4 l-16 112 q43 10 90.5 20.5 q47.5 10.5 97.5 17.5 q50 7 97 7 q66 0 128 -18 q62 -18 112 -59 q50 -41 80 -111 q30 -70 30 -174 l0 -220 l-745 0 ZM92 146 l0 30 q0 49 25 90 q25 41 69 66 q44 25 96 25 q53 0 96 -25 q43 -25 68 -66 q25 -41 25 -90 l0 -30 l-126 0 l0 30 q0 21 -8.5 37.5 q-8.5 16.5 -23 26 q-14.5 9.5 -31.5 9.5 q-16 0 -31 -9.5 q-15 -9.5 -24 -26 q-9 -16.5 -9 -37.5 l0 -30 l-126 0 ZM0 0 q-11 0 -15.5 20 q-4.5 20 -4.5 53 q0 34 4.5 53.5 q4.5 19.5 15.5 19.5 l0 -146 Z" /><glyph glyph-name="uniFBA7" unicode="&#xfba7;" d="M40 0 l0 251 q0 81 31.5 137.5 q31.5 56.5 91 85.5 q59.5 29 142.5 29 l239 0 l0 -392 l-38 35 l129 0 l0 -146 l-263 0 l0 445 l85 -88 l-152 0 q-37 0 -57.5 -8.5 q-20.5 -8.5 -28 -31.5 q-7.5 -23 -7.5 -66 l0 -251 l-172 0 ZM635 0 l0 146 q11 0 15.5 -19.5 q4.5 -19.5 4.5 -53.5 q0 -33 -4.5 -53 q-4.5 -20 -15.5 -20 Z" /><glyph glyph-name="uniFBA9" unicode="&#xfba9;" d="M609 -299 q-52 -8 -102 -12.5 q-50 -4.5 -95 -4.5 q-79 0 -135.5 17 q-56.5 17 -92 60 q-35.5 43 -52 117.5 q-16.5 74.5 -16.5 188.5 l75 -67 l-191 0 l0 146 l286 0 q2 -97 8.5 -159 q6.5 -62 19.5 -96.5 q13 -34.5 35.5 -47.5 q22.5 -13 57.5 -13 q11 0 28.5 1.5 q17.5 1.5 59.5 5.5 l-58 -68 l0 377 l289 0 l0 -146 l-194 0 l77 78 l0 -377 ZM726 0 l0 146 q11 0 15.5 -19.5 q4.5 -19.5 4.5 -53.5 q0 -33 -4.5 -53 q-4.5 -20 -15.5 -20 ZM0 0 q-11 0 -15.5 20 q-4.5 20 -4.5 53 q0 34 4.5 53.5 q4.5 19.5 15.5 19.5 l0 -146 Z" /><glyph glyph-name="uniFBA8" unicode="&#xfba8;" d="M49 -240 l69 265 l143 0 l-28 -265 l-184 0 ZM0 0 l0 146 l301 0 l-107 -89 l0 446 l172 0 l0 -503 l-366 0 ZM0 0 q-11 0 -15.5 20 q-4.5 20 -4.5 53 q0 34 4.5 53.5 q4.5 19.5 15.5 19.5 l0 -146 Z" /><glyph glyph-name="uni06BE" unicode="&#x6be;" d="M40 0 l0 146 l671 0 l-123 -97 l0 171 q0 81 -18.5 127.5 q-18.5 46.5 -59.5 66.5 q-41 20 -111 20 q-32 0 -71 -1 q-39 -1 -78.5 -2.5 q-39.5 -1.5 -75 -3 q-35.5 -1.5 -61.5 -3.5 l43 -71 l-30 184 q42 10 90 20.5 q48 10.5 98 17.5 q50 7 97 7 q65 0 127.5 -18 q62.5 -18 112.5 -59 q50 -41 79.5 -111 q29.5 -70 29.5 -174 l0 -220 l-720 0 ZM107 146 l0 30 q0 49 25.5 90 q25.5 41 69 66 q43.5 25 96.5 25 q53 0 95.5 -25 q42.5 -25 68 -66 q25.5 -41 25.5 -90 l0 -30 l-127 0 l0 30 q0 21 -8.5 37.5 q-8.5 16.5 -22.5 26 q-14 9.5 -31 9.5 q-17 0 -31.5 -9.5 q-14.5 -9.5 -23.5 -26 q-9 -16.5 -9 -37.5 l0 -30 l-127 0 Z" /><glyph glyph-name="uniFBAB" unicode="&#xfbab;" d="M760 0 l0 146 l103 0 l0 -146 l-103 0 ZM40 0 l0 146 l671 0 l-123 -97 l0 171 q0 81 -18.5 127.5 q-18.5 46.5 -59.5 66.5 q-41 20 -111 20 q-32 0 -71 -1 q-39 -1 -78.5 -2.5 q-39.5 -1.5 -75 -3 q-35.5 -1.5 -61.5 -3.5 l43 -71 l-30 184 q42 10 90 20.5 q48 10.5 98 17.5 q50 7 97 7 q65 0 127.5 -18 q62.5 -18 112.5 -59 q50 -41 79.5 -111 q29.5 -70 29.5 -174 l0 -220 l-720 0 ZM107 146 l0 30 q0 49 25.5 90 q25.5 41 69 66 q43.5 25 96.5 25 q53 0 95.5 -25 q42.5 -25 68 -66 q25.5 -41 25.5 -90 l0 -30 l-127 0 l0 30 q0 21 -8.5 37.5 q-8.5 16.5 -22.5 26 q-14 9.5 -31 9.5 q-17 0 -31.5 -9.5 q-14.5 -9.5 -23.5 -26 q-9 -16.5 -9 -37.5 l0 -30 l-127 0 ZM863 0 l0 146 q12 0 16 -19.5 q4 -19.5 4 -53.5 q0 -33 -4 -53 q-4 -20 -16 -20 Z" /><glyph glyph-name="uniFBAD" unicode="&#xfbad;" d="M0 0 l0 146 l34 0 l0 -146 l-34 0 ZM754 0 l0 146 l104 0 l0 -146 l-104 0 ZM34 0 l0 146 l671 0 l-123 -97 l0 171 q0 81 -18.5 127.5 q-18.5 46.5 -59.5 66.5 q-41 20 -110 20 q-33 0 -72 -1 q-39 -1 -78.5 -2.5 q-39.5 -1.5 -74.5 -3 q-35 -1.5 -61 -3.5 l42 -71 l-30 184 q42 10 90 20.5 q48 10.5 98 17.5 q50 7 97 7 q65 0 127.5 -18 q62.5 -18 112.5 -59 q50 -41 79.5 -111 q29.5 -70 29.5 -174 l0 -220 l-720 0 ZM102 146 l0 30 q0 49 25 90 q25 41 68.5 66 q43.5 25 96.5 25 q53 0 95.5 -25 q42.5 -25 68 -66 q25.5 -41 25.5 -90 l0 -30 l-126 0 l0 30 q0 21 -9 37.5 q-9 16.5 -23 26 q-14 9.5 -31 9.5 q-17 0 -31.5 -9.5 q-14.5 -9.5 -23.5 -26 q-9 -16.5 -9 -37.5 l0 -30 l-126 0 ZM858 0 l0 146 q11 0 15.5 -19.5 q4.5 -19.5 4.5 -53.5 q0 -33 -4.5 -53 q-4.5 -20 -15.5 -20 ZM0 0 q-11 0 -15.5 20 q-4.5 20 -4.5 53 q0 34 4.5 53.5 q4.5 19.5 15.5 19.5 l0 -146 Z" /><glyph glyph-name="uni0648" unicode="&#x648;" d="M252 -267 q-39 0 -80 5.5 q-41 5.5 -86 14.5 l25 137 q49 -6 83.5 -8.5 q34.5 -2.5 57.5 -2.5 q64 0 92 22 q28 22 28 68 l0 409 l28 -21 l-95 0 q-28 0 -49 -7 q-21 -7 -32.5 -30.5 q-11.5 -23.5 -11.5 -72.5 q0 -46 10 -67.5 q10 -21.5 30.5 -27.5 q20.5 -6 52.5 -6 l67 0 l0 -146 l-67 0 q-84 0 -143.5 27 q-59.5 27 -90.5 82 q-31 55 -31 138 q0 83 31 140 q31 57 90.5 86.5 q59.5 29.5 143.5 29.5 l239 0 l0 -534 q0 -72 -36.5 -125.5 q-36.5 -53.5 -102 -82 q-65.5 -28.5 -153.5 -28.5 Z" /><glyph glyph-name="uniFEEE" unicode="&#xfeee;" d="M544 0 l0 146 l104 0 l0 -146 l-104 0 ZM252 -267 q-39 0 -80 5.5 q-41 5.5 -86 14.5 l25 137 q49 -6 83.5 -8.5 q34.5 -2.5 57.5 -2.5 q64 0 92 22 q28 22 28 68 l0 409 l28 -21 l-95 0 q-28 0 -49 -7 q-21 -7 -32.5 -30.5 q-11.5 -23.5 -11.5 -72.5 q0 -46 10 -67.5 q10 -21.5 30.5 -27.5 q20.5 -6 52.5 -6 l67 0 l0 -146 l-67 0 q-84 0 -143.5 27 q-59.5 27 -90.5 82 q-31 55 -31 138 q0 83 31 140 q31 57 90.5 86.5 q59.5 29.5 143.5 29.5 l239 0 l0 -534 q0 -72 -36.5 -125.5 q-36.5 -53.5 -102 -82 q-65.5 -28.5 -153.5 -28.5 ZM648 0 l0 146 q11 0 15.5 -19.5 q4.5 -19.5 4.5 -53.5 q0 -33 -4.5 -53 q-4.5 -20 -15.5 -20 Z" /><glyph glyph-name="uni0649" unicode="&#x649;" d="M365 -248 q-69 0 -128 19.5 q-59 19.5 -103 54.5 q-44 35 -69 81.5 q-25 46.5 -25 101.5 q0 18 3 46.5 q3 28.5 8 65.5 q5 37 12 81 l170 -23 q-10 -60 -15.5 -104.5 q-5.5 -44.5 -5.5 -63.5 q0 -32 18.5 -58 q18.5 -26 53 -40.5 q34.5 -14.5 81.5 -14.5 l283 0 q59 0 85 27 q26 27 26 79 q0 28 -9.5 43.5 q-9.5 15.5 -35 27 q-25.5 11.5 -74.5 26.5 q-68 21 -115.5 40.5 q-47.5 19.5 -76.5 41 q-29 21.5 -43 50 q-14 28.5 -14 69.5 q0 68 32 112.5 q32 44.5 90 66.5 q58 22 135 22 q36 0 84.5 -4.5 q48.5 -4.5 125.5 -14.5 l-18 -144 q-75 8 -120 12.5 q-45 4.5 -77 4.5 q-46 0 -63 -11.5 q-17 -11.5 -17 -34.5 q0 -18 19.5 -30.5 q19.5 -12.5 49.5 -21.5 q30 -9 60 -19 q81 -25 133.5 -55.5 q52.5 -30.5 79 -73.5 q26.5 -43 26.5 -107 q0 -74 -35.5 -130.5 q-35.5 -56.5 -98.5 -89 q-63 -32.5 -149 -32.5 l-283 0 Z" /><glyph glyph-name="uniFEF0" unicode="&#xfef0;" d="M365 -248 q-69 0 -128 19.5 q-59 19.5 -103 54.5 q-44 35 -69 81.5 q-25 46.5 -25 101.5 q0 18 3 46.5 q3 28.5 8 65.5 q5 37 12 81 l170 -23 q-10 -60 -15.5 -104.5 q-5.5 -44.5 -5.5 -63.5 q0 -32 18.5 -58 q18.5 -26 53 -40.5 q34.5 -14.5 81.5 -14.5 l283 0 q59 0 85 27 q26 27 26 78 l0 41 l172 0 l0 -40 q0 -74 -35.5 -130.5 q-35.5 -56.5 -98.5 -89 q-63 -32.5 -149 -32.5 l-283 0 ZM725 0 q-54 0 -101.5 12.5 q-47.5 12.5 -88.5 40.5 l98 121 q17 -11 29.5 -17.5 q12.5 -6.5 27 -8.5 q14.5 -2 35.5 -2 l243 0 l0 -146 l-243 0 ZM968 0 l0 146 q11 0 15.5 -19.5 q4.5 -19.5 4.5 -53.5 q0 -33 -4.5 -53 q-4.5 -20 -15.5 -20 Z" /><glyph glyph-name="uni06D2" unicode="&#x6d2;" d="M333 -258 q-142 0 -217.5 61.5 q-75.5 61.5 -75.5 177.5 l0 74 l109 91 l306 0 q43 0 65 9.5 q22 9.5 30 32.5 q8 23 8 65 l0 140 l172 0 l0 -140 q0 -48 -12.5 -93.5 q-12.5 -45.5 -43 -81.5 q-30.5 -36 -84 -57 q-53.5 -21 -135.5 -21 l-319 0 l76 76 l0 -95 q0 -35 10 -54 q10 -19 27.5 -27 q17.5 -8 39 -9.5 q21.5 -1.5 44.5 -1.5 l319 0 l0 -147 l-319 0 Z" /><glyph glyph-name="uniFBAF" unicode="&#xfbaf;" d="M333 -258 q-142 0 -217.5 61.5 q-75.5 61.5 -75.5 177.5 l0 74 l109 91 l607 0 l0 -146 l-620 0 l76 76 l0 -95 q0 -35 10 -54 q10 -19 27.5 -27 q17.5 -8 39 -9.5 q21.5 -1.5 44.5 -1.5 l319 0 l0 -147 l-319 0 ZM756 0 l0 146 q11 0 15.5 -19.5 q4.5 -19.5 4.5 -53.5 q0 -33 -4.5 -53 q-4.5 -20 -15.5 -20 Z" /><glyph glyph-name="uni0640" unicode="&#x640;" d="M0 0 l0 146 l250 0 l0 -146 l-250 0 ZM250 0 l0 146 q11 0 15.5 -19.5 q4.5 -19.5 4.5 -53.5 q0 -33 -4.5 -53 q-4.5 -20 -15.5 -20 ZM0 0 q-11 0 -15.5 20 q-4.5 20 -4.5 53 q0 34 4.5 53.5 q4.5 19.5 15.5 19.5 l0 -146 Z" /><glyph glyph-name="uniFEFB" unicode="&#xfefb;" d="M40 0 l0 146 l521 0 l-78 -79 l0 633 l172 0 l0 -700 l-615 0 ZM165 146 l0 415 l172 0 l0 -415 l-172 0 Z" /><glyph glyph-name="uniFEFC" unicode="&#xfefc;" d="M655 0 l0 146 l104 0 l0 -146 l-104 0 ZM40 0 l0 146 l521 0 l-78 -79 l0 633 l172 0 l0 -700 l-615 0 ZM165 146 l0 415 l172 0 l0 -415 l-172 0 ZM759 0 l0 146 q11 0 15.5 -19.5 q4.5 -19.5 4.5 -52.5 q0 -34 -4.5 -54 q-4.5 -20 -15.5 -20 Z" /><glyph glyph-name="uniFD0E" unicode="&#xfd0e;" d="M1028 0 q-47 0 -92 17.5 q-45 17.5 -83 50.5 l104 107 q17 -14 34.5 -21.5 q17.5 -7.5 36.5 -7.5 l194 0 l-97 -84 l0 211 q0 15 -3.5 47 q-3.5 32 -10 73.5 q-6.5 41.5 -14.5 85.5 l169 24 q7 -36 14 -81.5 q7 -45.5 11.5 -85.5 q4.5 -40 4.5 -63 l0 -273 l-268 0 ZM300 256 l0 147 l207 0 l0 -147 l-207 0 ZM507 0 l0 503 l172 0 l0 -503 l-172 0 ZM679 0 l0 146 l60 0 q30 0 46.5 9.5 q16.5 9.5 23 39 q6.5 29.5 6.5 89.5 l0 166 l173 0 l0 -166 q0 -98 -27.5 -161 q-27.5 -63 -82 -93 q-54.5 -30 -139.5 -30 l-60 0 ZM57 -267 q-11 0 -27 1 q-16 1 -34 3 l3 143 q18 0 33.5 -0.5 q15.5 -0.5 22.5 -0.5 q34 0 53.5 27.5 q19.5 27.5 19.5 79.5 l0 517 l172 0 l0 -517 q0 -73 -30.5 -130.5 q-30.5 -57.5 -85 -90 q-54.5 -32.5 -127.5 -32.5 Z" /><glyph glyph-name="uniFD2A" unicode="&#xfd2a;" d="M1251 0 l0 146 l104 0 l0 -146 l-104 0 ZM1355 0 l0 146 q11 0 15.5 -19.5 q4.5 -19.5 4.5 -53.5 q0 -33 -4.5 -53 q-4.5 -20 -15.5 -20 ZM1028 0 q-47 0 -92 17.5 q-45 17.5 -83 50.5 l104 107 q17 -14 34.5 -21.5 q17.5 -7.5 36.5 -7.5 l194 0 l-97 -84 l0 211 q0 15 -3.5 47 q-3.5 32 -10 73.5 q-6.5 41.5 -14.5 85.5 l169 24 q7 -36 14 -81.5 q7 -45.5 11.5 -85.5 q4.5 -40 4.5 -63 l0 -273 l-268 0 ZM300 256 l0 147 l207 0 l0 -147 l-207 0 ZM507 0 l0 503 l172 0 l0 -503 l-172 0 ZM679 0 l0 146 l60 0 q30 0 46.5 9.5 q16.5 9.5 23 39 q6.5 29.5 6.5 89.5 l0 166 l173 0 l0 -166 q0 -98 -27.5 -161 q-27.5 -63 -82 -93 q-54.5 -30 -139.5 -30 l-60 0 ZM57 -267 q-11 0 -27 1 q-16 1 -34 3 l3 143 q18 0 33.5 -0.5 q15.5 -0.5 22.5 -0.5 q34 0 53.5 27.5 q19.5 27.5 19.5 79.5 l0 517 l172 0 l0 -517 q0 -73 -30.5 -130.5 q-30.5 -57.5 -85 -90 q-54.5 -32.5 -127.5 -32.5 Z" /><glyph glyph-name="uniFCFB" unicode="&#xfcfb;" d="M365 -248 q-69 0 -128 19.5 q-59 19.5 -103 54.5 q-44 35 -69 81.5 q-25 46.5 -25 101.5 q0 18 3 46.5 q3 28.5 8 65.5 q5 37 12 81 l170 -23 q-10 -60 -15.5 -104.5 q-5.5 -44.5 -5.5 -63.5 q0 -32 18.5 -58 q18.5 -26 53 -40.5 q34.5 -14.5 81.5 -14.5 l283 0 q59 0 85 27 q26 27 26 79 q0 28 -9.5 43.5 q-9.5 15.5 -35 27 q-25.5 11.5 -74.5 26.5 q-68 21 -115.5 40.5 q-47.5 19.5 -76.5 41 q-29 21.5 -43 50 q-14 28.5 -14 69.5 q0 68 32 112.5 q32 44.5 90 66.5 q58 22 135 22 l-5 -146 q-46 0 -63 -11.5 q-17 -11.5 -17 -34.5 q0 -18 19.5 -30.5 q19.5 -12.5 49.5 -21.5 q30 -9 60 -19 q81 -25 133.5 -55.5 q52.5 -30.5 79 -73.5 q26.5 -43 26.5 -107 q0 -74 -35.5 -130.5 q-35.5 -56.5 -98.5 -89 q-63 -32.5 -149 -32.5 l-283 0 ZM643 357 l5 146 l351 0 l0 -146 l-356 0 ZM999 0 l0 503 l172 0 l0 -503 l-172 0 ZM1171 0 l0 146 l60 0 q31 0 47.5 9.5 q16.5 9.5 23 39 q6.5 29.5 6.5 89.5 l0 166 l172 0 l0 -166 q0 -98 -27 -161 q-27 -63 -82 -93 q-55 -30 -140 -30 l-60 0 ZM1520 0 q-46 0 -91.5 17.5 q-45.5 17.5 -83.5 50.5 l104 107 q17 -14 35 -21.5 q18 -7.5 36 -7.5 l194 0 l-97 -84 l0 211 q0 15 -3.5 47 q-3.5 32 -10 73.5 q-6.5 41.5 -14.5 85.5 l170 24 q7 -36 13.5 -81.5 q6.5 -45.5 11.5 -85.5 q5 -40 5 -63 l0 -273 l-269 0 Z" /><glyph glyph-name="uniFD17" unicode="&#xfd17;" d="M1789 0 l0 146 l104 0 l0 -146 l-104 0 ZM365 -248 q-69 0 -128 19.5 q-59 19.5 -103 54.5 q-44 35 -69 81.5 q-25 46.5 -25 101.5 q0 18 3 46.5 q3 28.5 8 65.5 q5 37 12 81 l170 -23 q-10 -60 -15.5 -104.5 q-5.5 -44.5 -5.5 -63.5 q0 -32 18.5 -58 q18.5 -26 53 -40.5 q34.5 -14.5 81.5 -14.5 l283 0 q59 0 85 27 q26 27 26 79 q0 28 -9.5 43.5 q-9.5 15.5 -35 27 q-25.5 11.5 -74.5 26.5 q-68 21 -115.5 40.5 q-47.5 19.5 -76.5 41 q-29 21.5 -43 50 q-14 28.5 -14 69.5 q0 68 32 112.5 q32 44.5 90 66.5 q58 22 135 22 l-5 -146 q-46 0 -63 -11.5 q-17 -11.5 -17 -34.5 q0 -18 19.5 -30.5 q19.5 -12.5 49.5 -21.5 q30 -9 60 -19 q81 -25 133.5 -55.5 q52.5 -30.5 79 -73.5 q26.5 -43 26.5 -107 q0 -74 -35.5 -130.5 q-35.5 -56.5 -98.5 -89 q-63 -32.5 -149 -32.5 l-283 0 ZM643 357 l5 146 l351 0 l0 -146 l-356 0 ZM999 0 l0 503 l172 0 l0 -503 l-172 0 ZM1171 0 l0 146 l60 0 q31 0 47.5 9.5 q16.5 9.5 23 39 q6.5 29.5 6.5 89.5 l0 166 l172 0 l0 -166 q0 -98 -27 -161 q-27 -63 -82 -93 q-55 -30 -140 -30 l-60 0 ZM1520 0 q-46 0 -91.5 17.5 q-45.5 17.5 -83.5 50.5 l104 107 q17 -14 35 -21.5 q18 -7.5 36 -7.5 l194 0 l-97 -84 l0 211 q0 15 -3.5 47 q-3.5 32 -10 73.5 q-6.5 41.5 -14.5 85.5 l170 24 q7 -36 13.5 -81.5 q6.5 -45.5 11.5 -85.5 q5 -40 5 -63 l0 -273 l-269 0 ZM1893 0 l0 146 q11 0 15.5 -19.5 q4.5 -19.5 4.5 -53.5 q0 -33 -4.5 -53 q-4.5 -20 -15.5 -20 Z" /><glyph glyph-name="uniFD0F" unicode="&#xfd0f;" d="M679 0 l0 146 l479 0 l-141 -119 l0 193 q0 52 -13 81.5 q-13 29.5 -37 42.5 q-24 13 -57 13 q-42 0 -81 -19 q-39 -19 -73 -48 q-34 -29 -62.5 -62 q-28.5 -33 -49.5 -61.5 q-21 -28.5 -35 -44.5 l-33 113 q46 59 80.5 103.5 q34.5 44.5 64 76 q29.5 31.5 59.5 51 q30 19.5 67 28.5 q37 9 87 9 q64 0 111.5 -21.5 q47.5 -21.5 80 -60 q32.5 -38.5 48.5 -90 q16 -51.5 16 -111.5 l0 -220 l-511 0 ZM300 256 l0 147 l207 0 l0 -147 l-207 0 ZM507 0 l0 503 l172 0 l0 -503 l-172 0 ZM57 -267 q-11 0 -27 1 q-16 1 -34 3 l3 143 q18 0 33.5 -0.5 q15.5 -0.5 22.5 -0.5 q34 0 53.5 27.5 q19.5 27.5 19.5 79.5 l0 517 l172 0 l0 -517 q0 -73 -30.5 -130.5 q-30.5 -57.5 -85 -90 q-54.5 -32.5 -127.5 -32.5 Z" /><glyph glyph-name="uniFD2B" unicode="&#xfd2b;" d="M1144 0 l0 146 l104 0 l0 -146 l-104 0 ZM1248 0 l0 146 q11 0 15.5 -19.5 q4.5 -19.5 4.5 -53.5 q0 -33 -4.5 -53 q-4.5 -20 -15.5 -20 ZM679 0 l0 146 l479 0 l-141 -119 l0 193 q0 52 -13 81.5 q-13 29.5 -37 42.5 q-24 13 -57 13 q-42 0 -81 -19 q-39 -19 -73 -48 q-34 -29 -62.5 -62 q-28.5 -33 -49.5 -61.5 q-21 -28.5 -35 -44.5 l-33 113 q46 59 80.5 103.5 q34.5 44.5 64 76 q29.5 31.5 59.5 51 q30 19.5 67 28.5 q37 9 87 9 q64 0 111.5 -21.5 q47.5 -21.5 80 -60 q32.5 -38.5 48.5 -90 q16 -51.5 16 -111.5 l0 -220 l-511 0 ZM300 256 l0 147 l207 0 l0 -147 l-207 0 ZM507 0 l0 503 l172 0 l0 -503 l-172 0 ZM57 -267 q-11 0 -27 1 q-16 1 -34 3 l3 143 q18 0 33.5 -0.5 q15.5 -0.5 22.5 -0.5 q34 0 53.5 27.5 q19.5 27.5 19.5 79.5 l0 517 l172 0 l0 -517 q0 -73 -30.5 -130.5 q-30.5 -57.5 -85 -90 q-54.5 -32.5 -127.5 -32.5 Z" /><glyph glyph-name="uniFD05" unicode="&#xfd05;" d="M365 -248 q-69 0 -128 19.5 q-59 19.5 -103 54.5 q-44 35 -69 81.5 q-25 46.5 -25 101.5 q0 18 3 46.5 q3 28.5 8 65.5 q5 37 12 81 l170 -23 q-10 -60 -15.5 -104.5 q-5.5 -44.5 -5.5 -63.5 q0 -32 18.5 -58 q18.5 -26 53 -40.5 q34.5 -14.5 81.5 -14.5 l283 0 q59 0 85 27 q26 27 26 79 q0 28 -9.5 43.5 q-9.5 15.5 -35 27 q-25.5 11.5 -74.5 26.5 q-68 21 -115.5 40.5 q-47.5 19.5 -76.5 41 q-29 21.5 -43 50 q-14 28.5 -14 69.5 q0 68 32 112.5 q32 44.5 90 66.5 q58 22 135 22 l-5 -146 q-46 0 -63 -11.5 q-17 -11.5 -17 -34.5 q0 -18 19.5 -30.5 q19.5 -12.5 49.5 -21.5 q30 -9 60 -19 q81 -25 133.5 -55.5 q52.5 -30.5 79 -73.5 q26.5 -43 26.5 -107 q0 -74 -35.5 -130.5 q-35.5 -56.5 -98.5 -89 q-63 -32.5 -149 -32.5 l-283 0 ZM643 357 l5 146 l351 0 l0 -146 l-356 0 ZM999 0 l0 503 l172 0 l0 -503 l-172 0 ZM1171 0 l0 146 l480 0 l-141 -119 l0 193 q0 52 -13.5 81.5 q-13.5 29.5 -37.5 42.5 q-24 13 -56 13 q-43 0 -81.5 -19 q-38.5 -19 -72.5 -48 q-34 -29 -62.5 -62 q-28.5 -33 -50 -61.5 q-21.5 -28.5 -34.5 -44.5 l-34 113 q49 59 84 103.5 q35 44.5 64 76 q29 31.5 58.5 51 q29.5 19.5 65.5 28.5 q36 9 86 9 q64 0 112 -21.5 q48 -21.5 80 -60 q32 -38.5 48 -90 q16 -51.5 16 -111.5 l0 -220 l-511 0 Z" /><glyph glyph-name="uniFD21" unicode="&#xfd21;" d="M1682 0 l0 146 l103 0 l0 -146 l-103 0 ZM365 -248 q-69 0 -128 19.5 q-59 19.5 -103 54.5 q-44 35 -69 81.5 q-25 46.5 -25 101.5 q0 18 3 46.5 q3 28.5 8 65.5 q5 37 12 81 l170 -23 q-10 -60 -15.5 -104.5 q-5.5 -44.5 -5.5 -63.5 q0 -32 18.5 -58 q18.5 -26 53 -40.5 q34.5 -14.5 81.5 -14.5 l283 0 q59 0 85 27 q26 27 26 79 q0 28 -9.5 43.5 q-9.5 15.5 -35 27 q-25.5 11.5 -74.5 26.5 q-68 21 -115.5 40.5 q-47.5 19.5 -76.5 41 q-29 21.5 -43 50 q-14 28.5 -14 69.5 q0 68 32 112.5 q32 44.5 90 66.5 q58 22 135 22 l-5 -146 q-46 0 -63 -11.5 q-17 -11.5 -17 -34.5 q0 -18 19.5 -30.5 q19.5 -12.5 49.5 -21.5 q30 -9 60 -19 q81 -25 133.5 -55.5 q52.5 -30.5 79 -73.5 q26.5 -43 26.5 -107 q0 -74 -35.5 -130.5 q-35.5 -56.5 -98.5 -89 q-63 -32.5 -149 -32.5 l-283 0 ZM643 357 l5 146 l351 0 l0 -146 l-356 0 ZM999 0 l0 503 l172 0 l0 -503 l-172 0 ZM1171 0 l0 146 l480 0 l-141 -119 l0 193 q0 52 -13.5 81.5 q-13.5 29.5 -37.5 42.5 q-24 13 -56 13 q-43 0 -81.5 -19 q-38.5 -19 -72.5 -48 q-34 -29 -62.5 -62 q-28.5 -33 -50 -61.5 q-21.5 -28.5 -34.5 -44.5 l-34 113 q49 59 84 103.5 q35 44.5 64 76 q29 31.5 58.5 51 q29.5 19.5 65.5 28.5 q36 9 86 9 q64 0 112 -21.5 q48 -21.5 80 -60 q32 -38.5 48 -90 q16 -51.5 16 -111.5 l0 -220 l-511 0 ZM1785 0 l0 146 q12 0 16 -19.5 q4 -19.5 4 -53.5 q0 -33 -4 -53 q-4 -20 -16 -20 Z" /><glyph glyph-name="uniFC86" unicode="&#xfc86;" d="M1105 0 l0 146 l104 0 l0 -146 l-104 0 ZM933 0 l0 700 l172 0 l0 -700 l-172 0 ZM825 0 l0 146 l108 0 l0 -146 l-108 0 ZM825 0 q-11 0 -15.5 20 q-4.5 20 -4.5 53 q0 34 4.5 53.5 q4.5 19.5 15.5 19.5 l0 -146 ZM365 -248 q-69 0 -128 19.5 q-59 19.5 -103 54.5 q-44 35 -69 81.5 q-25 46.5 -25 101.5 q0 18 3 46.5 q3 28.5 8 65.5 q5 37 12 81 l170 -23 q-10 -60 -15.5 -104.5 q-5.5 -44.5 -5.5 -63.5 q0 -32 18.5 -58 q18.5 -26 53 -40.5 q34.5 -14.5 81.5 -14.5 l283 0 q59 0 85 27 q26 27 26 78 l0 41 l172 0 l0 -40 q0 -74 -35.5 -130.5 q-35.5 -56.5 -98.5 -89 q-63 -32.5 -149 -32.5 l-283 0 ZM725 0 q-54 0 -101.5 12.5 q-47.5 12.5 -88.5 40.5 l98 121 q17 -11 29.5 -17.5 q12.5 -6.5 27 -8.5 q14.5 -2 35.5 -2 l243 0 l0 -146 l-243 0 ZM968 0 l0 146 q11 0 15.5 -19.5 q4.5 -19.5 4.5 -53.5 q0 -33 -4.5 -53 q-4.5 -20 -15.5 -20 ZM1209 0 l0 146 q11 0 15.5 -19.5 q4.5 -19.5 4.5 -53.5 q0 -33 -4.5 -53 q-4.5 -20 -15.5 -20 Z" /><glyph glyph-name="uniFDF2" unicode="&#xfdf2;" d="M723 0 l0 598 l172 0 l0 -598 l-172 0 ZM628 0 l0 146 l95 0 l0 -146 l-95 0 ZM895 0 l0 146 l91 0 l0 -146 l-91 0 ZM1381 0 l0 700 l171 0 l0 -700 l-171 0 ZM648 0 l0 146 q11 0 15.5 -19.5 q4.5 -19.5 4.5 -52.5 q0 -34 -4.5 -54 q-4.5 -20 -15.5 -20 ZM305 0 q-84 0 -143.5 27 q-59.5 27 -90.5 82 q-31 55 -31 138 q0 83 31 140 q31 57 90.5 86.5 q59.5 29.5 143.5 29.5 l239 0 l0 -424 l-172 0 l0 302 l28 -24 l-95 0 q-28 0 -49 -7 q-21 -7 -32.5 -30.5 q-11.5 -23.5 -11.5 -72.5 q0 -46 10 -67.5 q10 -21.5 30.5 -27.5 q20.5 -6 52.5 -6 l343 0 l0 -146 l-343 0 ZM965 0 q-11 0 -15.5 20 q-4.5 20 -4.5 54 q0 33 4.5 52.5 q4.5 19.5 15.5 19.5 l0 -146 ZM1073 0 l0 700 l172 0 l0 -700 l-172 0 ZM965 0 l0 146 l108 0 l0 -146 l-108 0 Z" /><glyph glyph-name="zero" unicode="0" d="M276 -12 q-68 0 -116.5 19 q-48.5 19 -79 59.5 q-30.5 40.5 -44.5 105 q-14 64.5 -14 154.5 q0 94 14.5 159.5 q14.5 65.5 45 106.5 q30.5 41 78.5 60.5 q48 19.5 116 19.5 q69 0 117.5 -19.5 q48.5 -19.5 79 -60.5 q30.5 -41 44 -106.5 q13.5 -65.5 13.5 -159.5 q0 -120 -25.5 -195 q-25.5 -75 -81 -109 q-55.5 -34 -147.5 -34 ZM276 135 q20 0 35 7.5 q15 7.5 24.5 28 q9.5 20.5 14 58.5 q4.5 38 4.5 97 q0 62 -4.5 101 q-4.5 39 -13.5 60.5 q-9 21.5 -23.5 29.5 q-14.5 8 -36.5 8 q-21 0 -36 -8 q-15 -8 -24 -29.5 q-9 -21.5 -13.5 -60.5 q-4.5 -39 -4.5 -101 q0 -59 4.5 -97 q4.5 -38 14.5 -58.5 q10 -20.5 24.5 -28 q14.5 -7.5 34.5 -7.5 Z" /><glyph glyph-name="one" unicode="1" d="M265 0 l0 471 l-149 -75 l-52 126 l226 137 l150 0 l0 -659 l-175 0 Z" /><glyph glyph-name="two" unicode="2" d="M52 0 l0 135 l124 125 q45 45 76.5 77.5 q31.5 32.5 48 60.5 q16.5 28 16.5 58 q0 41 -23 54 q-23 13 -78 13 q-24 0 -52.5 -3 q-28.5 -3 -55 -7 q-26.5 -4 -44.5 -8 l-9 134 q23 7 56.5 15 q33.5 8 73 13.5 q39.5 5.5 78.5 5.5 q110 0 170.5 -47.5 q60.5 -47.5 60.5 -144.5 q0 -54 -13.5 -95 q-13.5 -41 -44 -76.5 q-30.5 -35.5 -83.5 -76.5 l-104 -92 l248 0 l0 -141 l-445 0 Z" /><glyph glyph-name="three" unicode="3" d="M259 -12 q-36 0 -76 4 q-40 4 -76.5 10.5 q-36.5 6.5 -61.5 11.5 l6 136 q24 -2 57 -5.5 q33 -3.5 67.5 -6 q34.5 -2.5 60.5 -2.5 q46 0 70 14.5 q24 14.5 24 50.5 q0 24 -9 37 q-9 13 -27.5 19.5 q-18.5 6.5 -44.5 8.5 l-139 0 l0 139 l133 0 q22 0 39 7 q17 7 27.5 20.5 q10.5 13.5 10.5 34.5 q0 31 -23 43.5 q-23 12.5 -69 12.5 q-28 0 -60 -2 q-32 -2 -61 -5 q-29 -3 -50 -6 l-6 133 q24 6 56.5 13 q32.5 7 67.5 11.5 q35 4.5 64 4.5 q90 0 146.5 -17.5 q56.5 -17.5 83 -58 q26.5 -40.5 26.5 -108.5 q0 -32 -6 -54.5 q-6 -22.5 -17 -38.5 q-11 -16 -24 -27.5 q-13 -11.5 -27 -21.5 q27 -15 46 -32.5 q19 -17.5 29.5 -44 q10.5 -26.5 10.5 -68.5 q0 -80 -28 -126.5 q-28 -46.5 -83 -66.5 q-55 -20 -137 -20 Z" /><glyph glyph-name="four" unicode="4" d="M314 0 l0 97 l-288 0 l0 127 l124 435 l200 0 l-151 -416 l115 0 l13 146 l161 4 l0 -150 l46 0 l0 -146 l-46 0 l0 -97 l-174 0 Z" /><glyph glyph-name="five" unicode="5" d="M281 -12 q-37 0 -83.5 6 q-46.5 6 -90 14.5 q-43.5 8.5 -74.5 15.5 l14 128 q28 -4 66.5 -9.5 q38.5 -5.5 78.5 -8.5 q40 -3 72 -3 q40 0 62.5 18 q22.5 18 22.5 53 q0 25 -9 39 q-9 14 -27 20 q-18 6 -43 6 q-19 0 -39.5 -3.5 q-20.5 -3.5 -38 -8 q-17.5 -4.5 -29.5 -10.5 l-115 16 l16 398 l432 0 l0 -154 l-296 0 l-10 -103 q12 4 30.5 9.5 q18.5 5.5 39.5 9.5 q21 4 42 4 q71 0 119.5 -19 q48.5 -19 74 -64 q25.5 -45 25.5 -124 q0 -81 -29.5 -131.5 q-29.5 -50.5 -83 -74.5 q-53.5 -24 -127.5 -24 Z" /><glyph glyph-name="six" unicode="6" d="M285 -12 q-134 0 -195.5 87.5 q-61.5 87.5 -61.5 251.5 q0 99 20 165.5 q20 66.5 56.5 105.5 q36.5 39 86.5 56 q50 17 109 17 q31 0 69.5 -4.5 q38.5 -4.5 75.5 -10.5 q37 -6 63 -13 l-13 -130 q-22 3 -55 6.5 q-33 3.5 -67.5 6 q-34.5 2.5 -65.5 2.5 q-56 0 -83 -32 q-27 -32 -29 -91 q10 4 24 8 q14 4 29.5 8 q15.5 4 30.5 6.5 q15 2.5 28 2.5 q112 0 167 -52.5 q55 -52.5 55 -166.5 q0 -76 -30 -125 q-30 -49 -85 -73.5 q-55 -24.5 -129 -24.5 ZM285 128 q42 0 62.5 22 q20.5 22 20.5 62 q0 41 -21 59.5 q-21 18.5 -60 18.5 q-18 0 -36 -3 q-18 -3 -32.5 -8 q-14.5 -5 -24.5 -9 q1 -43 8.5 -75 q7.5 -32 27.5 -49.5 q20 -17.5 55 -17.5 Z" /><glyph glyph-name="seven" unicode="7" d="M293 -12 l-171 38 l194 447 l0 25 l-257 0 l0 161 l437 0 l0 -179 l-203 -492 Z" /><glyph glyph-name="eight" unicode="8" d="M275 -12 q-68 0 -126.5 16 q-58.5 16 -94 56.5 q-35.5 40.5 -35.5 113.5 q0 48 11 77 q11 29 32 49.5 q21 20.5 53 38.5 q-46 26 -65.5 60 q-19.5 34 -19.5 97 q0 64 32 102.5 q32 38.5 87 56 q55 17.5 126 17.5 q71 0 127 -16.5 q56 -16.5 88.5 -54.5 q32.5 -38 32.5 -106 q0 -63 -19 -96.5 q-19 -33.5 -69 -59.5 q35 -17 56.5 -37 q21.5 -20 31.5 -49.5 q10 -29.5 10 -76.5 q0 -73 -35.5 -114 q-35.5 -41 -94 -57.5 q-58.5 -16.5 -128.5 -16.5 ZM275 123 q26 0 45 6.5 q19 6.5 29 22.5 q10 16 10 43 q0 22 -7.5 37.5 q-7.5 15.5 -20.5 26 q-13 10.5 -29 17.5 l-54 0 q-24 -10 -40 -30 q-16 -20 -16 -52 q0 -26 10.5 -41.5 q10.5 -15.5 29.5 -22.5 q19 -7 43 -7 ZM248 398 l54 0 q22 10 35.5 28 q13.5 18 13.5 44 q0 35 -18.5 51.5 q-18.5 16.5 -57.5 16.5 q-37 0 -55 -16.5 q-18 -16.5 -18 -50.5 q0 -27 12.5 -45 q12.5 -18 33.5 -28 Z" /><glyph glyph-name="nine" unicode="9" d="M252 -12 q-30 0 -68.5 4.5 q-38.5 4.5 -75 11 q-36.5 6.5 -64.5 12.5 l14 131 q22 -3 54.5 -6.5 q32.5 -3.5 68 -6.5 q35.5 -3 65.5 -3 q58 0 84 31.5 q26 31.5 28 92.5 q-18 -7 -38.5 -12.5 q-20.5 -5.5 -39.5 -9 q-19 -3.5 -35 -3.5 q-111 0 -165.5 52.5 q-54.5 52.5 -54.5 165.5 q0 75 30 124.5 q30 49.5 85 74 q55 24.5 128 24.5 q90 0 147 -39 q57 -39 84 -114.5 q27 -75.5 27 -184.5 q0 -101 -20.5 -168 q-20.5 -67 -57 -105.5 q-36.5 -38.5 -86.5 -55 q-50 -16.5 -110 -16.5 ZM265 370 q17 0 35 3 q18 3 34 8 q16 5 25 9 q0 44 -8 75.5 q-8 31.5 -27.5 48.5 q-19.5 17 -55.5 17 q-41 0 -61.5 -23 q-20.5 -23 -20.5 -61 q0 -41 20 -59 q20 -18 59 -18 Z" /><glyph glyph-name="uni2070" unicode="&#x2070;" d="M163 342 q-54 0 -86 18.5 q-32 18.5 -46.5 59.5 q-14.5 41 -14.5 110 q0 102 34 144 q34 42 112 42 q55 0 86.5 -18.5 q31.5 -18.5 45.5 -59 q14 -40.5 14 -108.5 q0 -69 -14 -110 q-14 -41 -46 -59.5 q-32 -18.5 -85 -18.5 ZM163 440 q11 0 17.5 6 q6.5 6 10 25 q3.5 19 3.5 59 q0 39 -3 58 q-3 19 -9.5 25 q-6.5 6 -19.5 6 q-11 0 -18 -6 q-7 -6 -10 -25 q-3 -19 -3 -58 q0 -40 3 -59 q3 -19 10.5 -25 q7.5 -6 18.5 -6 Z" /><glyph glyph-name="onesuperior" unicode="¹" d="M136 346 l0 227 l-78 -38 l-34 100 l127 78 l109 0 l0 -367 l-124 0 Z" /><glyph glyph-name="twosuperior" unicode="²" d="M38 346 l0 92 l88 83 q25 23 38 39 q13 16 13 36 q0 13 -11 20 q-11 7 -36 7 q-19 0 -44 -2 q-25 -2 -41 -4 l-5 88 q21 4 54 9 q33 5 62 5 q68 0 97 -27.5 q29 -27.5 29 -82.5 q0 -29 -8 -49.5 q-8 -20.5 -26.5 -39.5 q-18.5 -19 -47.5 -47 l-33 -30 l112 0 l0 -97 l-241 0 Z" /><glyph glyph-name="threesuperior" unicode="³" d="M160 342 q-32 0 -68 5 q-36 5 -60 9 l3 86 q21 -2 51 -4.5 q30 -2.5 50 -2.5 q22 0 33 5.5 q11 5.5 11 21.5 q0 14 -8.5 20 q-8.5 6 -27.5 7 l-76 0 l0 85 l73 0 q15 0 24 7 q9 7 9 20 q0 23 -45 23 q-19 0 -46 -2 q-27 -2 -44 -4 l-4 85 q23 4 58.5 9 q35.5 5 65.5 5 q65 0 97 -25.5 q32 -25.5 32 -78.5 q0 -29 -9 -46 q-9 -17 -28 -28 q21 -13 32 -29 q11 -16 11 -52 q0 -62 -33 -89 q-33 -27 -101 -27 Z" /><glyph glyph-name="uni2074" unicode="&#x2074;" d="M172 346 l0 48 l-155 0 l0 83 l59 236 l127 0 l-76 -225 l45 0 l2 67 l116 11 l0 -78 l19 0 l0 -94 l-19 0 l0 -48 l-118 0 Z" /><glyph glyph-name="uni2075" unicode="&#x2075;" d="M166 343 q-21 0 -47 3 q-26 3 -50 7.5 q-24 4.5 -43 8.5 l9 82 q23 -4 58 -7.5 q35 -3.5 62 -3.5 q34 0 34 28 q0 14 -8 19.5 q-8 5.5 -23 5.5 q-12 0 -26 -3 q-14 -3 -22 -6 l-75 9 l9 227 l246 0 l0 -97 l-160 0 l-4 -42 q10 4 26.5 7.5 q16.5 3.5 32.5 3.5 q39 0 65 -9.5 q26 -9.5 39.5 -34.5 q13.5 -25 13.5 -72 q0 -70 -36.5 -98 q-36.5 -28 -100.5 -28 Z" /><glyph glyph-name="uni2076" unicode="&#x2076;" d="M165 342 q-76 0 -109 46.5 q-33 46.5 -33 136.5 q0 73 18.5 114.5 q18.5 41.5 52.5 59 q34 17.5 78 17.5 q24 0 58.5 -5.5 q34.5 -5.5 56.5 -10.5 l-7 -81 q-20 2 -50 5 q-30 3 -54 3 q-26 0 -37 -12.5 q-11 -12.5 -12 -38.5 q1 0 4 2 q6 2 19 6 q13 4 28 4 q64 0 95 -28.5 q31 -28.5 31 -92.5 q0 -65 -38.5 -95 q-38.5 -30 -100.5 -30 ZM164 430 q19 0 26.5 10.5 q7.5 10.5 7.5 26.5 q0 19 -8 27 q-8 8 -24 8 q-9 0 -17.5 -2 q-8.5 -2 -14 -4.5 q-5.5 -2.5 -8.5 -3.5 q1 -31 8.5 -46.5 q7.5 -15.5 29.5 -15.5 Z" /><glyph glyph-name="uni2077" unicode="&#x2077;" d="M179 343 l-110 22 l99 222 l0 16 l-131 0 l0 110 l246 0 l0 -112 l-104 -258 Z" /><glyph glyph-name="uni2078" unicode="&#x2078;" d="M162 342 q-41 0 -74 9.5 q-33 9.5 -52.5 32.5 q-19.5 23 -19.5 64 q0 26 6.5 42 q6.5 16 19 26 q12.5 10 29.5 19 q-23 13 -36 30 q-13 17 -13 55 q0 36 17.5 56.5 q17.5 20.5 49.5 30 q32 9.5 73 9.5 q42 0 73.5 -8 q31.5 -8 49.5 -28.5 q18 -20.5 18 -60.5 q0 -36 -12.5 -53.5 q-12.5 -17.5 -37.5 -31.5 q27 -12 41 -29.5 q14 -17.5 14 -56.5 q0 -42 -19.5 -65 q-19.5 -23 -52.5 -32 q-33 -9 -74 -9 ZM162 425 q17 0 25 7.5 q8 7.5 8 24.5 q0 15 -6.5 25 q-6.5 10 -16.5 14 l-19 0 q-10 -4 -17 -14.5 q-7 -10.5 -7 -24.5 q0 -16 8.5 -24 q8.5 -8 24.5 -8 ZM153 571 l19 0 q9 5 14 13.5 q5 8.5 5 20.5 q0 14 -6.5 21.5 q-6.5 7.5 -22.5 7.5 q-16 0 -22.5 -7.5 q-6.5 -7.5 -6.5 -21.5 q0 -12 5.5 -20.5 q5.5 -8.5 14.5 -13.5 Z" /><glyph glyph-name="uni2079" unicode="&#x2079;" d="M154 342 q-25 0 -60 5.5 q-35 5.5 -60 11.5 l8 81 q20 -3 50.5 -5.5 q30.5 -2.5 55.5 -2.5 q26 0 37.5 13 q11.5 13 12.5 37 q-12 -4 -26.5 -7.5 q-14.5 -3.5 -25.5 -3.5 q-60 0 -91 29.5 q-31 29.5 -31 92.5 q0 64 37.5 93.5 q37.5 29.5 98.5 29.5 q75 0 108.5 -46 q33.5 -46 33.5 -139 q0 -71 -18.5 -112.5 q-18.5 -41.5 -51.5 -59 q-33 -17.5 -78 -17.5 ZM159 556 q12 0 23 3.5 q11 3.5 17 5.5 q0 32 -8 47.5 q-8 15.5 -30 15.5 q-18 0 -26.5 -9.5 q-8.5 -9.5 -8.5 -26.5 q0 -17 8.5 -26.5 q8.5 -9.5 24.5 -9.5 Z" /><glyph glyph-name="fraction" unicode="&#x2044;" d="M-43 -37 l-109 50 l335 708 l109 -50 l-335 -708 Z" /><glyph glyph-name="uni066C" unicode="&#x66c;" d="M20 -112 l22 205 l141 0 l-56 -205 l-107 0 Z" /><glyph glyph-name="uni0660" unicode="&#x660;" d="M80 256 l0 154 l176 0 l0 -154 l-176 0 Z" /><glyph glyph-name="uni0661" unicode="&#x661;" d="M106 0 l0 660 l171 0 l0 -660 l-171 0 Z" /><glyph glyph-name="uni0662" unicode="&#x662;" d="M106 0 l0 660 l430 0 l0 -146 l-384 0 l125 103 l0 -617 l-171 0 Z" /><glyph glyph-name="uni0663" unicode="&#x663;" d="M539 283 q-55 0 -106.5 19.5 q-51.5 19.5 -82.5 53.5 l126 100 q14 -15 28 -21 q14 -6 35 -6 q25 0 36 14.5 q11 14.5 11 61.5 l0 155 l172 0 l0 -155 q0 -69 -26.5 -119 q-26.5 -50 -75.5 -76.5 q-49 -26.5 -117 -26.5 ZM99 0 l0 660 l173 0 l0 -660 l-173 0 ZM296 283 q-53 0 -102 18 q-49 18 -80 49 l122 103 q14 -13 27 -18.5 q13 -5.5 32 -5.5 q26 0 37 14.5 q11 14.5 11 61.5 l0 155 l172 0 l0 -155 q0 -69 -26.5 -119 q-26.5 -50 -75.5 -76.5 q-49 -26.5 -117 -26.5 Z" /><glyph glyph-name="uni0664" unicode="&#x664;" d="M284 261 q-71 0 -128 26 q-57 26 -90 73 q-33 47 -33 109 q0 61 33 108 q33 47 89 73 q56 26 125 26 q25 0 60.5 -4.5 q35.5 -4.5 65.5 -10.5 l-6 -138 q-50 3 -76.5 5 q-26.5 2 -43.5 2 q-34 0 -54.5 -15.5 q-20.5 -15.5 -20.5 -45.5 q0 -31 21.5 -46 q21.5 -15 57.5 -15 l0 -147 ZM280 -8 q-69 0 -125 26.5 q-56 26.5 -89 73.5 q-33 47 -33 108 q0 62 33 108.5 q33 46.5 90 73 q57 26.5 128 26.5 l0 -147 q-36 0 -57.5 -15 q-21.5 -15 -21.5 -46 q0 -30 20.5 -45.5 q20.5 -15.5 54.5 -15.5 q17 0 43.5 1.5 q26.5 1.5 76.5 4.5 l6 -137 q-30 -6 -65.5 -11 q-35.5 -5 -60.5 -5 ZM284 261 l0 147 l74 0 l0 -147 l-74 0 Z" /><glyph glyph-name="uni0665" unicode="&#x665;" d="M365 -4 q-57 0 -110.5 17.5 q-53.5 17.5 -96 52.5 q-42.5 35 -67 86.5 q-24.5 51.5 -24.5 119.5 q0 43 11 95.5 q11 52.5 34.5 104.5 q23.5 52 59 95.5 q35.5 43.5 84 70 q48.5 26.5 109.5 26.5 q62 0 110 -26 q48 -26 84 -69.5 q36 -43.5 59 -95.5 q23 -52 34.5 -104.5 q11.5 -52.5 11.5 -96.5 q0 -68 -24.5 -119.5 q-24.5 -51.5 -67 -86.5 q-42.5 -35 -96 -52.5 q-53.5 -17.5 -111.5 -17.5 ZM365 142 q42 0 70 14.5 q28 14.5 42.5 43.5 q14.5 29 14.5 73 q0 44 -12 87 q-12 43 -31 79 q-19 36 -41.5 57.5 q-22.5 21.5 -42.5 21.5 q-19 0 -41.5 -22 q-22.5 -22 -41.5 -58 q-19 -36 -31 -79 q-12 -43 -12 -86 q0 -43 14.5 -72 q14.5 -29 42.5 -44 q28 -15 69 -15 Z" /><glyph glyph-name="uni0666" unicode="&#x666;" d="M275 0 l0 627 l139 -113 l-384 0 l0 146 l417 0 l0 -660 l-172 0 Z" /><glyph glyph-name="uni0667" unicode="&#x667;" d="M242 0 l-216 660 l174 0 l147 -577 l-105 63 l176 0 l-96 -66 l151 580 l174 0 l-223 -660 l-182 0 Z" /><glyph glyph-name="uni0668" unicode="&#x668;" d="M242 660 l182 0 l223 -660 l-174 0 l-151 580 l96 -66 l-176 0 l105 63 l-147 -577 l-174 0 l216 660 Z" /><glyph glyph-name="uni0669" unicode="&#x669;" d="M330 0 l0 592 l93 -78 l-128 0 q-56 0 -79.5 -19.5 q-23.5 -19.5 -23.5 -61.5 q0 -42 18.5 -60 q18.5 -18 60.5 -18 q16 0 35.5 3 q19.5 3 40.5 8 l39 -143 q-26 -6 -58 -10 q-32 -4 -57 -4 q-79 0 -135.5 29.5 q-56.5 29.5 -86 80.5 q-29.5 51 -29.5 114 q0 69 34 120 q34 51 96 79 q62 28 145 28 l207 0 l0 -660 l-172 0 Z" /><glyph glyph-name="uni06F4" unicode="&#x6f4;" d="M431 264 q-70 0 -129.5 16.5 q-59.5 16.5 -103.5 47 q-44 30.5 -68 74.5 q-24 44 -24 98 l0 160 l171 0 l0 -160 q0 -46 39 -67.5 q39 -21.5 115 -21.5 q56 0 87.5 9.5 q31.5 9.5 43.5 29 q12 19.5 12 50.5 l0 101 l173 0 l0 -101 q0 -73 -37.5 -126 q-37.5 -53 -108 -81.5 q-70.5 -28.5 -170.5 -28.5 ZM106 0 l0 660 l171 0 l0 -660 l-171 0 ZM460 343 q-63 2 -102 37.5 q-39 35.5 -39 93.5 q0 63 42 99 q42 36 107 36 q17 0 33.5 -3 q16.5 -3 32.5 -6 l-17 -81 q-6 1 -14.5 2.5 q-8.5 1.5 -16.5 2.5 q-8 1 -13 1 q-32 0 -49 -15 q-17 -15 -17 -43 q0 -27 17 -41.5 q17 -14.5 49 -14.5 l-13 -68 Z" /><glyph glyph-name="uni06F5" unicode="&#x6f5;" d="M246 -3 q-24 0 -55 13.5 q-31 13.5 -59 42 q-28 28.5 -46.5 74 q-18.5 45.5 -18.5 109.5 q0 60 31.5 120.5 q31.5 60.5 90.5 121 q59 60.5 141 118.5 l66 -72 q-48 -47 -82 -82.5 q-34 -35.5 -55.5 -67.5 q-21.5 -32 -31.5 -67 q-10 -35 -10 -81 q0 -36 16.5 -55.5 q16.5 -19.5 39.5 -19.5 q12 0 21 8 q9 8 16.5 19 q7.5 11 14 19.5 q6.5 8.5 13.5 10.5 q7 -2 14 -10.5 q7 -8.5 14.5 -19.5 q7.5 -11 16.5 -19 q9 -8 20 -8 q16 0 33 19.5 q17 19.5 17 57.5 q0 39 -20 80.5 q-20 41.5 -55 86 q-35 44.5 -82 94.5 q-47 50 -103 105 l119 122 q57 -54 104.5 -103 q47.5 -49 84.5 -96 q37 -47 62 -92 q25 -45 38 -90.5 q13 -45.5 13 -93.5 q0 -56 -13 -97 q-13 -41 -34.5 -69.5 q-21.5 -28.5 -46.5 -45.5 q-25 -17 -49 -24.5 q-24 -7.5 -41 -7.5 q-25 0 -41 8 q-16 8 -25.5 19 q-9.5 11 -15.5 20 q-6 9 -10 11 q-5 -2 -10.5 -11 q-5.5 -9 -16 -20 q-10.5 -11 -26.5 -19 q-16 -8 -39 -8 Z" /><glyph glyph-name="uni06F6" unicode="&#x6f6;" d="M313 256 q-71 0 -128 26 q-57 26 -90 73 q-33 47 -33 108 q0 62 32.5 109 q32.5 47 89 73 q56.5 26 125.5 26 q18 0 41.5 -2.5 q23.5 -2.5 48 -6 q24.5 -3.5 42.5 -8.5 l-38 -143 q-25 6 -51 10 q-26 4 -43 4 q-34 0 -54.5 -15.5 q-20.5 -15.5 -20.5 -46.5 q0 -30 21 -45.5 q21 -15.5 58 -15.5 l0 -146 ZM62 0 q0 126 40.5 215.5 q40.5 89.5 111 138 q70.5 48.5 162.5 48.5 l1 -146 q-40 0 -72.5 -30 q-32.5 -30 -51.5 -87 q-19 -57 -19 -139 l-172 0 ZM313 256 l0 146 l74 0 l0 -146 l-74 0 Z" /><glyph glyph-name="uni06F8" unicode="&#x6f8;" d="M242 660 l182 0 l223 -660 l-174 0 l-151 580 l96 -66 l-176 0 l105 63 l-147 -577 l-174 0 l216 660 Z" /><glyph glyph-name="period" unicode="." d="M41 0 l0 170 l177 0 l0 -170 l-177 0 Z" /><glyph glyph-name="comma" unicode="," d="M20 -110 l31 273 l187 0 l-76 -273 l-142 0 Z" /><glyph glyph-name="colon" unicode=":" d="M43 285 l0 169 l177 0 l0 -169 l-177 0 ZM43 0 l0 170 l177 0 l0 -170 l-177 0 Z" /><glyph glyph-name="semicolon" unicode=";" d="M25 -110 l30 273 l188 0 l-76 -273 l-142 0 ZM55 285 l0 169 l177 0 l0 -169 l-177 0 Z" /><glyph glyph-name="ellipsis" unicode="&#x2026;" d="M605 0 l0 170 l177 0 l0 -170 l-177 0 ZM41 0 l0 170 l177 0 l0 -170 l-177 0 ZM323 0 l0 170 l177 0 l0 -170 l-177 0 Z" /><glyph glyph-name="exclam" unicode="!" d="M56 239 l-11 438 l185 0 l-11 -438 l-163 0 ZM49 0 l0 169 l177 0 l0 -169 l-177 0 Z" /><glyph glyph-name="exclamdown" unicode="¡" d="M216 264 l11 -438 l-186 0 l12 438 l163 0 ZM223 503 l0 -168 l-177 0 l0 168 l177 0 Z" /><glyph glyph-name="question" unicode="?" d="M130 212 q-6 10 -13 29.5 q-7 19.5 -7 43.5 q0 24 8.5 42.5 q8.5 18.5 28 38.5 q19.5 20 52.5 45 q27 22 41.5 35.5 q14.5 13.5 19 26.5 q4.5 13 4.5 32 q0 30 -20 43 q-20 13 -67 13 q-22 0 -49.5 -2.5 q-27.5 -2.5 -53 -6.5 q-25.5 -4 -44.5 -8 l-6 124 q24 7 57.5 15 q33.5 8 71 14 q37.5 6 69.5 6 q112 0 164 -43.5 q52 -43.5 52 -147.5 q0 -49 -8 -79 q-8 -30 -27.5 -52 q-19.5 -22 -54.5 -49 q-45 -34 -63 -55 q-18 -21 -19 -41 l0 -24 l-136 0 ZM110 0 l0 157 l177 0 l0 -157 l-177 0 Z" /><glyph glyph-name="questiondown" unicode="¿" d="M332 292 q7 -10 13.5 -29.5 q6.5 -19.5 6.5 -43.5 q0 -24 -8.5 -43 q-8.5 -19 -28 -38.5 q-19.5 -19.5 -52.5 -44.5 q-28 -22 -42 -36 q-14 -14 -18.5 -26.5 q-4.5 -12.5 -4.5 -31.5 q0 -30 20 -43.5 q20 -13.5 66 -13.5 q24 0 51 3 q27 3 53 7 q26 4 43 7 l7 -123 q-23 -8 -57.5 -16 q-34.5 -8 -71.5 -13.5 q-37 -5.5 -69 -5.5 q-112 0 -164.5 43 q-52.5 43 -52.5 148 q0 48 8 78 q8 30 28 53 q20 23 54 48 q46 34 64 55 q18 21 18 41 l1 25 l136 0 ZM352 503 l0 -157 l-177 0 l0 157 l177 0 Z" /><glyph glyph-name="bullet" unicode="&#x2022;" d="M72 128 l0 275 l266 0 l0 -275 l-266 0 Z" /><glyph glyph-name="asterisk" unicode="*" d="M213 351 l-31 108 l-89 -70 l-61 83 l94 63 l-94 62 l61 85 l88 -69 l30 108 l100 -32 l-39 -106 l112 5 l0 -104 l-111 5 l38 -107 l-98 -31 Z" /><glyph glyph-name="numbersign" unicode="#" d="M84 0 l2 134 l-74 0 l4 138 l74 0 l1 116 l-75 0 l5 138 l73 0 l2 143 l138 0 l-2 -143 l94 0 l2 143 l139 0 l-2 -143 l76 0 l-4 -138 l-75 0 l-1 -116 l75 0 l-3 -138 l-75 0 l-2 -134 l-139 0 l2 134 l-94 0 l-2 -134 l-139 0 ZM228 272 l94 0 l1 116 l-94 0 l-1 -116 Z" /><glyph glyph-name="slash" unicode="/" d="M186 -53 l-165 37 l296 732 l164 -38 l-295 -731 Z" /><glyph glyph-name="backslash" unicode="\" d="M325 -53 l-305 729 l165 39 l305 -729 l-165 -39 Z" /><glyph glyph-name="parenleft" unicode="(" d="M129 -125 q-16 29 -34 74 q-18 45 -33 101 q-15 56 -24.5 120 q-9.5 64 -9.5 131 q0 67 9.5 133 q9.5 66 24.5 126 q15 60 33 109 q18 49 34 81 l158 0 q-13 -38 -27.5 -91.5 q-14.5 -53.5 -27 -114 q-12.5 -60.5 -20 -123 q-7.5 -62.5 -7.5 -120.5 q0 -57 7.5 -117 q7.5 -60 20 -117.5 q12.5 -57.5 27 -107 q14.5 -49.5 27.5 -84.5 l-158 0 Z" /><glyph glyph-name="parenright" unicode=")" d="M175 -122 l-157 0 q13 38 27.5 89.5 q14.5 51.5 27 111 q12.5 59.5 20 121.5 q7.5 62 7.5 119 q0 57 -7.5 118 q-7.5 61 -20 120 q-12.5 59 -27 109.5 q-14.5 50.5 -27.5 86.5 l157 0 q17 -30 35 -76.5 q18 -46.5 33 -104 q15 -57.5 24.5 -122 q9.5 -64.5 9.5 -131.5 q0 -67 -9.5 -132 q-9.5 -65 -24.5 -124 q-15 -59 -33 -106 q-18 -47 -35 -79 Z" /><glyph glyph-name="braceleft" unicode="{" d="M332 -132 q-61 1 -109.5 8.5 q-48.5 7.5 -81.5 26 q-33 18.5 -50 52 q-17 33.5 -17 86.5 q0 17 2 39.5 q2 22.5 4 45.5 q2 18 3.5 33.5 q1.5 15.5 1.5 23.5 q0 24 -16.5 40 q-16.5 16 -50.5 25 l0 131 q35 8 51 23 q16 15 16 38 q0 10 -2 26.5 q-2 16.5 -3 35.5 q-2 23 -4 45 q-2 22 -2 37 q0 55 17.5 89 q17.5 34 50.5 52.5 q33 18.5 81 25.5 q48 7 110 8 l0 -140 q-35 -2 -54 -10.5 q-19 -8.5 -25.5 -25.5 q-6.5 -17 -6.5 -45 q0 -13 1 -25.5 q1 -12.5 2 -25.5 q0 -11 0.5 -22.5 q0.5 -11.5 0.5 -22.5 q0 -37 -6 -60 q-6 -23 -22 -37.5 q-16 -14.5 -45 -26.5 q43 -18 58 -44.5 q15 -26.5 15 -77.5 q0 -10 -0.5 -22 q-0.5 -12 -0.5 -25 q-1 -15 -2 -29 q-1 -14 -1 -28 q0 -28 6.5 -45.5 q6.5 -17.5 25 -26.5 q18.5 -9 54.5 -12 l-1 -140 Z" /><glyph glyph-name="braceright" unicode="}" d="M24 -134 l0 139 q36 3 54.5 11.5 q18.5 8.5 24.5 25.5 q6 17 6 45 q0 14 -0.5 26.5 q-0.5 12.5 -1.5 25.5 q-1 10 -1.5 20.5 q-0.5 10.5 -0.5 20.5 q0 57 15.5 82.5 q15.5 25.5 57.5 43.5 q-28 12 -44 26.5 q-16 14.5 -22.5 37.5 q-6.5 23 -6.5 56 q0 11 0.5 24 q0.5 13 1.5 27 q1 15 1.5 29 q0.5 14 0.5 27 q0 28 -6.5 45.5 q-6.5 17.5 -24.5 26.5 q-18 9 -54 11 l0 140 q62 0 110 -7.5 q48 -7.5 81.5 -26 q33.5 -18.5 50.5 -52 q17 -33.5 17 -87.5 q0 -16 -2 -39 q-2 -23 -5 -45 q-1 -18 -2.5 -34.5 q-1.5 -16.5 -1.5 -24.5 q0 -25 16 -41 q16 -16 51 -24 l0 -131 q-35 -8 -51 -23.5 q-16 -15.5 -16 -37.5 q0 -10 1.5 -26 q1.5 -16 3.5 -35 q2 -22 4 -44 q2 -22 2 -37 q0 -56 -17.5 -90 q-17.5 -34 -51 -52 q-33.5 -18 -81 -25.5 q-47.5 -7.5 -109.5 -7.5 Z" /><glyph glyph-name="bracketleft" unicode="[" d="M49 -123 l0 872 l262 0 l0 -142 l-89 0 l0 -588 l89 0 l0 -142 l-262 0 Z" /><glyph glyph-name="bracketright" unicode="]" d="M287 -123 l-262 0 l0 142 l89 0 l0 588 l-89 0 l0 142 l262 0 l0 -872 Z" /><glyph glyph-name="hyphen" unicode="-" d="M42 189 l0 142 l300 0 l0 -142 l-300 0 Z" /><glyph glyph-name="uni00AD" unicode="­" d="M42 189 l0 142 l300 0 l0 -142 l-300 0 Z" /><glyph glyph-name="endash" unicode="&#x2013;" d="M43 183 l0 151 l500 0 l0 -151 l-500 0 Z" /><glyph glyph-name="emdash" unicode="&#x2014;" d="M43 183 l0 151 l1000 0 l0 -151 l-1000 0 Z" /><glyph glyph-name="underscore" unicode="_" d="M62 -176 l0 106 l487 0 l0 -106 l-487 0 Z" /><glyph glyph-name="quotesinglbase" unicode="&#x201a;" d="M240 165 l-32 -273 l-183 0 l76 273 l139 0 Z" /><glyph glyph-name="quotedblbase" unicode="&#x201e;" d="M59 -30 l-2 103 l119 0 l-25 -103 l-92 0 ZM286 -30 l-2 103 l119 0 l-26 -103 l-91 0 Z" /><glyph glyph-name="quotedblleft" unicode="&#x201c;" d="M456 683 l-29 -260 l-178 0 l72 260 l135 0 ZM230 683 l-29 -260 l-178 0 l71 260 l136 0 Z" /><glyph glyph-name="quotedblright" unicode="&#x201d;" d="M31 424 l29 259 l178 0 l-72 -259 l-135 0 ZM260 424 l29 259 l178 0 l-72 -259 l-135 0 Z" /><glyph glyph-name="quoteleft" unicode="&#x2018;" d="M230 683 l-29 -260 l-178 0 l71 260 l136 0 Z" /><glyph glyph-name="quoteright" unicode="&#x2019;" d="M31 423 l29 260 l178 0 l-72 -260 l-135 0 Z" /><glyph glyph-name="guillemotleft" unicode="«" d="M454 30 l-170 202 l0 35 l172 203 l103 -76 l-117 -142 l117 -146 l-105 -76 ZM195 30 l-170 202 l0 35 l172 203 l103 -76 l-118 -142 l118 -146 l-105 -76 Z" /><glyph glyph-name="guillemotright" unicode="»" d="M398 30 l-103 76 l118 146 l-118 142 l104 76 l171 -199 l0 -36 l-172 -205 ZM139 30 l-103 76 l117 146 l-117 142 l104 76 l171 -199 l0 -36 l-172 -205 Z" /><glyph glyph-name="guilsinglleft" unicode="&#x2039;" d="M195 32 l-170 202 l0 36 l172 203 l103 -77 l-118 -141 l118 -146 l-105 -77 Z" /><glyph glyph-name="guilsinglright" unicode="&#x203a;" d="M139 28 l-103 77 l117 146 l-117 142 l104 76 l171 -200 l0 -35 l-172 -206 Z" /><glyph glyph-name="quotedbl" unicode="&quot;" d="M292 437 l-22 240 l182 0 l-22 -240 l-138 0 ZM54 437 l-22 240 l182 0 l-22 -240 l-138 0 Z" /><glyph glyph-name="quotesingle" unicode="&#39;" d="M54 437 l-22 240 l182 0 l-22 -240 l-138 0 Z" /><glyph glyph-name="uni06D4" unicode="&#x6d4;" d="M41 0 l0 170 l360 0 l0 -170 l-360 0 Z" /><glyph glyph-name="uni060C" unicode="&#x60c;" d="M242 273 l-30 -273 l-187 0 l75 273 l142 0 Z" /><glyph glyph-name="uni061B" unicode="&#x61b;" d="M253 565 l-30 -274 l-187 0 l75 274 l142 0 ZM223 170 l0 -170 l-177 0 l0 170 l177 0 Z" /><glyph glyph-name="uni061F" unicode="&#x61f;" d="M333 212 l-136 0 l0 24 q-1 20 -19 41 q-18 21 -63 55 q-35 27 -54.5 49 q-19.5 22 -27.5 52 q-8 30 -8 79 q0 104 52 147.5 q52 43.5 164 43.5 q33 0 70 -6 q37 -6 71 -14 q34 -8 57 -15 l-6 -124 q-18 4 -44 8 q-26 4 -53 6.5 q-27 2.5 -50 2.5 q-47 0 -67 -13 q-20 -13 -20 -43 q0 -19 4.5 -32 q4.5 -13 19 -26.5 q14.5 -13.5 41.5 -35.5 q33 -25 52.5 -45 q19.5 -20 28 -38.5 q8.5 -18.5 8.5 -42.5 q0 -24 -6.5 -43.5 q-6.5 -19.5 -13.5 -29.5 ZM353 0 l-176 0 l0 157 l176 0 l0 -157 Z" /><glyph glyph-name="uniFD3E" unicode="&#xfd3e;" d="M116 -122 q-16 32 -34 79 q-18 47 -33 106 q-15 59 -24.5 124 q-9.5 65 -9.5 132 q0 67 9.5 131.5 q9.5 64.5 24.5 122 q15 57.5 33 104 q18 46.5 34 76.5 l158 0 q-13 -36 -27.5 -86.5 q-14.5 -50.5 -27 -109.5 q-12.5 -59 -20 -120 q-7.5 -61 -7.5 -118 q0 -57 7.5 -119 q7.5 -62 20 -121.5 q12.5 -59.5 27 -111 q14.5 -51.5 27.5 -89.5 l-158 0 Z" /><glyph glyph-name="uniFD3F" unicode="&#xfd3f;" d="M172 -122 l-158 0 q13 38 27.5 89.5 q14.5 51.5 27 111 q12.5 59.5 20 121.5 q7.5 62 7.5 119 q0 57 -7.5 118 q-7.5 61 -20 120 q-12.5 59 -27 109.5 q-14.5 50.5 -27.5 86.5 l158 0 q16 -30 34 -76.5 q18 -46.5 33 -104 q15 -57.5 24.5 -122 q9.5 -64.5 9.5 -131.5 q0 -67 -9.5 -132 q-9.5 -65 -24.5 -124 q-15 -59 -33 -106 q-18 -47 -34 -79 Z" /><glyph glyph-name="Euro" unicode="&#x20ac;" d="M11 371 l0 61 l461 0 l0 -61 l-461 0 ZM11 237 l0 60 l461 0 l0 -60 l-461 0 ZM324 -12 q-79 0 -130.5 18.5 q-51.5 18.5 -81.5 59 q-30 40.5 -42.5 106 q-12.5 65.5 -12.5 158.5 q0 93 12.5 158 q12.5 65 43 105 q30.5 40 83.5 58.5 q53 18.5 134 18.5 q30 0 65.5 -3.5 q35.5 -3.5 69.5 -9.5 q34 -6 60 -11 l-5 -136 q-19 2 -46 5 q-27 3 -56.5 5 q-29.5 2 -54.5 2 q-41 0 -66.5 -9 q-25.5 -9 -39 -30.5 q-13.5 -21.5 -19 -59 q-5.5 -37.5 -5.5 -93.5 q0 -56 5.5 -93.5 q5.5 -37.5 19 -59.5 q13.5 -22 39 -31 q25.5 -9 66.5 -9 q39 0 84 3 q45 3 75 6 l3 -134 q-23 -5 -56.5 -10.5 q-33.5 -5.5 -71 -9.5 q-37.5 -4 -73.5 -4 Z" /><glyph glyph-name="cent" unicode="¢" d="M259 -84 l0 124 q-71 2 -114.5 23.5 q-43.5 21.5 -63 67.5 q-19.5 46 -19.5 121 q0 77 21.5 123 q21.5 46 65.5 67 q44 21 109 24 l0 122 l63 0 l0 -124 q46 -1 89.5 -6 q43.5 -5 69.5 -11 l-4 -118 q-20 1 -49 2 q-29 1 -59.5 2 q-30.5 1 -55.5 1 q-44 0 -61 -19 q-17 -19 -17 -63 q0 -29 7 -47 q7 -18 24.5 -26 q17.5 -8 48.5 -8 q26 0 56 1 q30 1 58.5 2 q28.5 1 48.5 2 l5 -117 q-25 -5 -69 -10.5 q-44 -5.5 -92 -7.5 l0 -125 l-62 0 Z" /><glyph glyph-name="currency" unicode="¤" d="M173 90 q-46 28 -70 74 q-24 46 -23.5 97.5 q0.5 51.5 28.5 96.5 q28 47 74 71 q46 24 97.5 23 q51.5 -1 97.5 -29 q46 -28 70 -73.5 q24 -45.5 23.5 -97.5 q-0.5 -52 -29.5 -97 q-27 -46 -73 -70 q-46 -24 -98 -23.5 q-52 0.5 -97 28.5 ZM92 25 l-47 47 l98 97 l46 -47 l-97 -97 ZM233 174 q22 -10 46.5 -8.5 q24.5 1.5 45 14.5 q20.5 13 31.5 35 q12 22 10.5 46.5 q-1.5 24.5 -14.5 45 q-13 20.5 -36 31.5 q-22 12 -46 10 q-24 -2 -45 -15 q-21 -13 -32 -35 q-11 -22 -9.5 -46.5 q1.5 -24.5 14.5 -45.5 q13 -21 35 -32 ZM143 345 l-98 96 l47 47 l97 -97 l-46 -46 ZM461 25 l-96 97 l46 47 l97 -97 l-47 -47 ZM411 345 l-46 46 l96 97 l47 -47 l-97 -96 Z" /><glyph glyph-name="dollar" unicode="$" d="M231 -123 l20 459 l58 -3 l-20 -456 l-58 0 ZM272 349 l-19 262 l60 153 l18 -258 l-59 -157 ZM286 -12 q-43 0 -90.5 5.5 q-47.5 5.5 -90 12.5 q-42.5 7 -71.5 13 l8 134 q32 -4 73 -8.5 q41 -4.5 83 -8 q42 -3.5 73 -3.5 q44 0 63 15 q19 15 19 46 q0 17 -8 27 q-8 10 -29.5 17 q-21.5 7 -62.5 14 q-84 15 -133 37.5 q-49 22.5 -70 62.5 q-21 40 -21 106 q0 84 29 130 q29 46 83.5 64 q54.5 18 129.5 18 q35 0 79 -3.5 q44 -3.5 86.5 -9 q42.5 -5.5 73.5 -10.5 l-7 -137 q-29 3 -68 7 q-39 4 -79 6.5 q-40 2.5 -70 2.5 q-44 0 -63 -11.5 q-19 -11.5 -19 -38.5 q0 -18 8.5 -29 q8.5 -11 30 -18.5 q21.5 -7.5 62.5 -16.5 q63 -15 106 -29 q43 -14 69 -35.5 q26 -21.5 37.5 -55 q11.5 -33.5 11.5 -85.5 q0 -80 -28.5 -128 q-28.5 -48 -83 -69.5 q-54.5 -21.5 -131.5 -21.5 Z" /><glyph glyph-name="florin" unicode="&#x192;" d="M161 -209 q-13 0 -34.5 1.5 q-21.5 1.5 -43.5 4.5 q-22 3 -40 4 l0 119 q10 0 21.5 -0.5 q11.5 -0.5 22.5 -0.5 q11 0 18 0 q27 2 37 15.5 q10 13.5 11 46.5 l9 360 l-65 0 l0 68 l67 0 l2 80 q2 47 9.5 82.5 q7.5 35.5 25 58.5 q17.5 23 47 35 q29.5 12 73.5 12 q13 0 34.5 -2 q21.5 -2 44.5 -4 q23 -2 40 -5 l-1 -118 q-7 1 -18 1 q-11 0 -22 0 q-26 0 -40 -7 q-14 -7 -20 -29 q-6 -22 -8 -66 l-1 -38 l105 0 l0 -68 l-107 0 l-10 -370 q-1 -68 -15.5 -107.5 q-14.5 -39.5 -48 -56 q-33.5 -16.5 -93.5 -16.5 Z" /><glyph glyph-name="sterling" unicode="£" d="M50 0 l0 143 l70 0 l0 192 l-64 0 l0 62 l64 0 l0 46 q0 94 20 142.5 q20 48.5 64 66.5 q44 18 114 18 q26 0 56 -3.5 q30 -3.5 58 -7.5 q28 -4 48 -9 l-5 -129 q-16 1 -36.5 2.5 q-20.5 1.5 -40 2.5 q-19.5 1 -32.5 1 q-37 0 -56.5 -8.5 q-19.5 -8.5 -26.5 -29 q-7 -20.5 -7 -56.5 l0 -36 l149 0 l0 -62 l-149 0 l0 -192 l114 0 l104 15 l16 -141 l-107 -17 l-353 0 Z" /><glyph glyph-name="yen" unicode="¥" d="M198 0 l0 153 l-145 0 l0 62 l145 0 l0 43 l-18 47 l-127 0 l0 62 l98 0 l-133 291 l184 0 l84 -228 l86 228 l184 0 l-136 -291 l101 0 l0 -62 l-130 0 l-19 -47 l0 -43 l149 0 l0 -62 l-149 0 l0 -153 l-174 0 Z" /><glyph glyph-name="fraction" unicode="&#x2215;" d="M186 -53 l-165 37 l296 732 l164 -38 l-295 -731 Z" /><glyph glyph-name="plus" unicode="+" d="M206 22 l0 160 l-158 0 l0 142 l158 0 l0 158 l141 0 l0 -158 l159 0 l0 -142 l-159 0 l0 -160 l-141 0 Z" /><glyph glyph-name="minus" unicode="&#x2212;" d="M63 182 l0 142 l427 0 l0 -142 l-427 0 Z" /><glyph glyph-name="multiply" unicode="×" d="M138 16 l-97 97 l139 139 l-139 139 l97 97 l138 -139 l139 139 l98 -97 l-140 -139 l140 -138 l-98 -98 l-139 139 l-138 -139 Z" /><glyph glyph-name="divide" unicode="÷" d="M47 186 l0 135 l459 0 l0 -135 l-459 0 ZM198 17 l0 127 l157 0 l0 -127 l-157 0 ZM198 364 l0 126 l157 0 l0 -126 l-157 0 Z" /><glyph glyph-name="equal" unicode="=" d="M61 291 l0 135 l432 0 l0 -135 l-432 0 ZM61 80 l0 135 l432 0 l0 -135 l-432 0 Z" /><glyph glyph-name="notequal" unicode="&#x2260;" d="M198 -29 l-63 25 l236 539 l63 -25 l-236 -539 ZM61 291 l0 135 l432 0 l0 -135 l-432 0 ZM61 80 l0 135 l432 0 l0 -135 l-432 0 Z" /><glyph glyph-name="greater" unicode="&gt;" d="M85 -4 l0 178 l273 84 l-273 75 l0 173 l397 -169 l0 -166 l-397 -175 Z" /><glyph glyph-name="less" unicode="&lt;" d="M467 -4 l-396 175 l0 166 l396 169 l0 -173 l-273 -75 l273 -84 l0 -178 Z" /><glyph glyph-name="greaterequal" unicode="&#x2265;" d="M75 132 l0 148 l287 60 l-287 52 l0 144 l424 -130 l0 -140 l-424 -134 ZM480 -42 l-393 0 l0 128 l393 0 l0 -128 Z" /><glyph glyph-name="lessequal" unicode="&#x2264;" d="M485 132 l-424 134 l0 140 l424 130 l0 -144 l-287 -52 l287 -60 l0 -148 ZM80 -42 l0 128 l393 0 l0 -128 l-393 0 Z" /><glyph glyph-name="plusminus" unicode="±" d="M206 201 l0 90 l-158 0 l0 135 l158 0 l0 99 l141 0 l0 -99 l159 0 l0 -135 l-159 0 l0 -90 l-141 0 ZM48 7 l0 135 l458 0 l0 -135 l-458 0 Z" /><glyph glyph-name="approxequal" unicode="&#x2248;" d="M382 270 q-20 0 -48 9 q-28 9 -58 21 q-30 12 -55.5 21 q-25.5 9 -40.5 9 q-15 0 -34.5 -7.5 q-19.5 -7.5 -38.5 -18 q-19 -10.5 -32 -20.5 l-11 64 q21 17 54.5 35 q33.5 18 62.5 18 q21 0 48 -9 q27 -9 56 -21 q29 -12 55 -21 q26 -9 43 -9 q13 0 32 7.5 q19 7.5 37.5 18.5 q18.5 11 32.5 20 l11 -64 q-20 -17 -52 -35 q-32 -18 -62 -18 ZM382 83 q-20 0 -48 9 q-28 9 -58 21 q-30 12 -55.5 21 q-25.5 9 -40.5 9 q-15 0 -34.5 -7.5 q-19.5 -7.5 -38.5 -18 q-19 -10.5 -32 -20.5 l-11 64 q21 17 54.5 35 q33.5 18 62.5 18 q21 0 48 -9 q27 -9 56 -21 q29 -12 55 -21 q26 -9 43 -9 q13 0 32 7.5 q19 7.5 37.5 18.5 q18.5 11 32.5 20 l11 -64 q-20 -17 -52 -35 q-32 -18 -62 -18 Z" /><glyph glyph-name="asciitilde" unicode="~" d="M375 157 q-18 0 -45.5 7 q-27.5 7 -55.5 17.5 q-28 10.5 -53.5 17.5 q-25.5 7 -39.5 7 q-17 0 -37 -6.5 q-20 -6.5 -39 -16 q-19 -9.5 -32 -19.5 l-10 134 q18 17 52.5 35 q34.5 18 70.5 18 q19 0 45 -7.5 q26 -7.5 53.5 -17.5 q27.5 -10 52 -17.5 q24.5 -7.5 42.5 -7.5 q14 0 32.5 6.5 q18.5 6.5 37.5 16.5 q19 10 32 19 l9 -133 q-17 -17 -48.5 -35 q-31.5 -18 -66.5 -18 Z" /><glyph glyph-name="logicalnot" unicode="¬" d="M398 191 l0 158 l-374 0 l0 123 l497 0 l0 -281 l-123 0 Z" /><glyph glyph-name="asciicircum" unicode="^" d="M50 315 l158 351 l189 0 l161 -351 l-165 0 l-89 234 l-90 -234 l-164 0 Z" /><glyph glyph-name="infinity" unicode="&#x221e;" d="M470 124 q-49 0 -88 25 q-39 25 -67.5 70 q-28.5 45 -48.5 105 q20 60 48.5 105 q28.5 45 67.5 70 q39 25 88 25 q70 0 103.5 -53.5 q33.5 -53.5 33.5 -146.5 q0 -93 -33.5 -146.5 q-33.5 -53.5 -103.5 -53.5 ZM163 124 q-70 0 -103.5 53.5 q-33.5 53.5 -33.5 146.5 q0 93 33.5 146.5 q33.5 53.5 102.5 53.5 q51 0 89.5 -25 q38.5 -25 67 -70 q28.5 -45 48.5 -105 q-20 -64 -49 -108.5 q-29 -44.5 -67 -68 q-38 -23.5 -88 -23.5 ZM173 239 q22 0 37 7.5 q15 7.5 28 26 q13 18.5 27 51.5 q-14 30 -27 48.5 q-13 18.5 -28 27 q-15 8.5 -37 8.5 q-13 0 -24 -7.5 q-11 -7.5 -17.5 -26 q-6.5 -18.5 -6.5 -50.5 q0 -31 7 -50 q7 -19 18 -27 q11 -8 23 -8 ZM460 239 q13 0 23.5 7.5 q10.5 7.5 17.5 26.5 q7 19 7 51 q0 32 -6.5 50.5 q-6.5 18.5 -17.5 26 q-11 7.5 -24 7.5 q-22 0 -37.5 -8.5 q-15.5 -8.5 -28 -27 q-12.5 -18.5 -26.5 -48.5 q14 -30 26.5 -49 q12.5 -19 28 -27.5 q15.5 -8.5 37.5 -8.5 Z" /><glyph glyph-name="integral" unicode="&#x222b;" d="M194 -193 q-12 0 -32.5 2 q-20.5 2 -42 4.5 q-21.5 2.5 -39.5 4.5 l1 119 q10 -1 21.5 -1.5 q11.5 -0.5 22.5 -0.5 q32 1 45 12 q13 11 13 41 l20 546 q3 71 17 112 q14 41 47 58.5 q33 17.5 91 17.5 q14 0 34.5 -2 q20.5 -2 42.5 -4 q22 -2 38 -5 l-1 -118 q-12 1 -25.5 1 q-13.5 0 -25.5 0 q-18 0 -29.5 -6 q-11.5 -6 -16.5 -18.5 q-5 -12.5 -5 -35.5 l-21 -547 q-3 -67 -18 -106.5 q-15 -39.5 -47.5 -56.5 q-32.5 -17 -89.5 -17 Z" /><glyph glyph-name="Omega" unicode="&#x2126;" d="M42 -3 l0 140 l87 0 q-11 13 -23 35 q-12 22 -23 53 q-11 31 -17.5 69 q-6.5 38 -6.5 82 q0 96 17.5 161.5 q17.5 65.5 65 99 q47.5 33.5 135.5 33.5 q89 0 135.5 -33.5 q46.5 -33.5 64 -99 q17.5 -65.5 17.5 -161.5 q0 -44 -6.5 -82 q-6.5 -38 -17.5 -69 q-11 -31 -23 -53 q-12 -22 -24 -35 l88 0 l0 -140 l-202 0 l0 130 q10 17 21 42 q11 25 20.5 56.5 q9.5 31.5 15.5 66 q6 34.5 6 70.5 q0 77 -6 119.5 q-6 42.5 -26 60 q-20 17.5 -63 17.5 q-44 0 -64 -17.5 q-20 -17.5 -26 -60 q-6 -42.5 -6 -119.5 q0 -36 6 -70.5 q6 -34.5 15.5 -66 q9.5 -31.5 20.5 -56.5 q11 -25 21 -42 l0 -130 l-202 0 Z" /><glyph glyph-name="Delta" unicode="&#x2206;" d="M27 0 l2 37 l116 622 l258 0 l124 -623 l3 -36 l-503 0 ZM212 140 l130 0 l-58 378 l-20 0 l-52 -378 Z" /><glyph glyph-name="product" unicode="&#x220f;" d="M68 -175 l0 794 l-54 0 l0 138 l526 0 l0 -138 l-57 0 l0 -794 l-150 0 l0 794 l-114 0 l0 -794 l-151 0 Z" /><glyph glyph-name="summation" unicode="&#x2211;" d="M27 -174 l0 146 l246 324 l-246 313 l0 149 l516 0 l0 -154 l-383 0 l22 41 l252 -303 l0 -89 l-252 -314 l-23 41 l384 0 l0 -154 l-516 0 Z" /><glyph glyph-name="radical" unicode="&#x221a;" d="M212 -131 l-168 579 l181 0 l98 -453 l-19 0 l165 791 l178 0 l-233 -917 l-202 0 ZM1 304 l0 144 l221 0 l0 -144 l-221 0 Z" /><glyph glyph-name="partialdiff" unicode="&#x2202;" d="M263 -12 q-113 0 -174 58.5 q-61 58.5 -61 172.5 q0 106 58 164.5 q58 58.5 163 58.5 q15 0 34.5 -3 q19.5 -3 38 -6.5 q18.5 -3.5 32.5 -6.5 q-6 77 -31 110 q-25 33 -79 33 q-23 0 -53.5 -7 q-30.5 -7 -61 -17 q-30.5 -10 -51.5 -20 l-5 126 q22 12 53 23.5 q31 11.5 66.5 20 q35.5 8.5 67.5 8.5 q89 0 144 -39 q55 -39 81.5 -119 q26.5 -80 26.5 -201 q0 -179 -58.5 -267.5 q-58.5 -88.5 -190.5 -88.5 ZM263 121 q45 0 69 41.5 q24 41.5 25 130.5 q-10 3 -25.5 6.5 q-15.5 3.5 -33.5 6 q-18 2.5 -37 2.5 q-39 0 -58.5 -25 q-19.5 -25 -19.5 -64 q0 -44 20 -71 q20 -27 60 -27 Z" /><glyph glyph-name="percent" unicode="%" d="M247 -50 l-46 11 l176 733 l46 -11 l-176 -733 ZM153 339 q-72 0 -102 39 q-30 39 -30 127 q0 87 30.5 125.5 q30.5 38.5 101.5 38.5 q49 0 78 -17 q29 -17 41.5 -53 q12.5 -36 12.5 -94 q0 -88 -30 -127 q-30 -39 -102 -39 ZM153 427 q11 0 17.5 5.5 q6.5 5.5 9 23 q2.5 17.5 2.5 49.5 q0 33 -2.5 49.5 q-2.5 16.5 -8.5 22 q-6 5.5 -18 5.5 q-11 0 -17.5 -5.5 q-6.5 -5.5 -8.5 -22 q-2 -16.5 -2 -49.5 q0 -32 2.5 -49.5 q2.5 -17.5 9 -23 q6.5 -5.5 16.5 -5.5 ZM477 -11 q-73 0 -103 39 q-30 39 -30 127 q0 87 30.5 125 q30.5 38 102.5 38 q48 0 77 -16.5 q29 -16.5 41.5 -52.5 q12.5 -36 12.5 -95 q0 -87 -30 -126 q-30 -39 -101 -39 ZM477 76 q10 0 16.5 6 q6.5 6 9 23 q2.5 17 2.5 49 q0 33 -2.5 49.5 q-2.5 16.5 -8.5 22 q-6 5.5 -17 5.5 q-12 0 -18.5 -5.5 q-6.5 -5.5 -8.5 -22 q-2 -16.5 -2 -48.5 q0 -33 2.5 -50 q2.5 -17 9 -23 q6.5 -6 17.5 -6 Z" /><glyph glyph-name="perthousand" unicode="&#x2030;" d="M773 -11 q-73 0 -103 39 q-30 39 -30 127 q0 87 31 125 q31 38 102 38 q48 0 77 -16.5 q29 -16.5 41.5 -52.5 q12.5 -36 12.5 -95 q0 -87 -30 -126 q-30 -39 -101 -39 ZM773 76 q10 0 16.5 6 q6.5 6 9 23 q2.5 17 2.5 49 q0 33 -2.5 49.5 q-2.5 16.5 -8.5 22 q-6 5.5 -17 5.5 q-12 0 -18.5 -5.5 q-6.5 -5.5 -8.5 -22 q-2 -16.5 -2 -48.5 q0 -33 2.5 -50 q2.5 -17 9 -23 q6.5 -6 17.5 -6 ZM253 -50 l-46 11 l176 733 l46 -11 l-176 -733 ZM159 339 q-72 0 -102 39 q-30 39 -30 127 q0 87 30.5 125.5 q30.5 38.5 101.5 38.5 q49 0 78 -17 q29 -17 41.5 -53 q12.5 -36 12.5 -94 q0 -88 -30 -127 q-30 -39 -102 -39 ZM159 427 q11 0 17.5 5.5 q6.5 5.5 9 23 q2.5 17.5 2.5 49.5 q0 33 -2.5 49.5 q-2.5 16.5 -8.5 22 q-6 5.5 -18 5.5 q-11 0 -17.5 -5.5 q-6.5 -5.5 -8.5 -22 q-2 -16.5 -2 -49.5 q0 -32 2.5 -49.5 q2.5 -17.5 9 -23 q6.5 -5.5 16.5 -5.5 ZM483 -11 q-73 0 -103 39 q-30 39 -30 127 q0 87 30.5 125 q30.5 38 102.5 38 q48 0 77 -16.5 q29 -16.5 41.5 -52.5 q12.5 -36 12.5 -95 q0 -87 -30 -126 q-30 -39 -101 -39 ZM483 76 q10 0 16.5 6 q6.5 6 9 23 q2.5 17 2.5 49 q0 33 -2.5 49.5 q-2.5 16.5 -8.5 22 q-6 5.5 -17 5.5 q-12 0 -18.5 -5.5 q-6.5 -5.5 -8.5 -22 q-2 -16.5 -2 -48.5 q0 -33 2.5 -50 q2.5 -17 9 -23 q6.5 -6 17.5 -6 Z" /><glyph glyph-name="lozenge" unicode="&#x25ca;" d="M180 0 l-162 326 l162 334 l194 0 l161 -334 l-161 -326 l-194 0 ZM268 137 l18 0 l83 189 l-83 197 l-18 0 l-84 -197 l84 -189 Z" /><glyph glyph-name="at" unicode="@" d="M512 -213 q-133 0 -225 25 q-92 25 -148 81 q-56 56 -81 147 q-25 91 -25 221 q0 130 32.5 219.5 q32.5 89.5 95.5 144 q63 54.5 153 78.5 q90 24 205 24 q158 0 260.5 -42 q102.5 -42 152 -134 q49.5 -92 49.5 -240 l0 -15 q0 -71 -7 -122.5 q-7 -51.5 -23 -85.5 q-16 -34 -41 -54 q-25 -20 -60 -28 q-35 -8 -81 -8 q-59 0 -96.5 15.5 q-37.5 15.5 -58.5 40.5 q-20 -14 -46 -27 q-26 -13 -55.5 -21 q-29.5 -8 -57.5 -8 q-48 0 -84.5 12.5 q-36.5 12.5 -62 41 q-25.5 28.5 -38.5 76 q-13 47.5 -13 117.5 q0 88 20 146 q20 58 62.5 86 q42.5 28 108.5 28 q33 0 65.5 -11.5 q32.5 -11.5 50.5 -22.5 l0 22 l172 0 l0 -192 q0 -55 2.5 -89.5 q2.5 -34.5 8 -52 q5.5 -17.5 16 -23.5 q10.5 -6 26.5 -6 q15 0 26 5.5 q11 5.5 17.5 22.5 q6.5 17 10 50 q3.5 33 3.5 88 l0 16 q0 84 -18 140.5 q-18 56.5 -56.5 90 q-38.5 33.5 -101 47.5 q-62.5 14 -151.5 14 q-88 0 -155 -15.5 q-67 -15.5 -112 -54 q-45 -38.5 -67.5 -105 q-22.5 -66.5 -22.5 -168.5 q0 -107 18.5 -176 q18.5 -69 59.5 -107.5 q41 -38.5 108.5 -53.5 q67.5 -15 163.5 -15 q16 0 41 1.5 q25 1.5 53 4 q28 2.5 49 4.5 l3 -123 q-20 -2 -47.5 -4 q-27.5 -2 -53.5 -3.5 q-26 -1.5 -45 -1.5 ZM490 138 q10 0 24 3 q14 3 29 8.5 q15 5.5 28 11.5 q-2 16 -4 35.5 q-2 19.5 -2.5 40.5 q-0.5 21 -0.5 42 l0 75 q-9 4 -25 7 q-16 3 -29 3 q-31 0 -48.5 -11.5 q-17.5 -11.5 -24 -36.5 q-6.5 -25 -6.5 -68 q0 -34 4.5 -55 q4.5 -21 12 -33.5 q7.5 -12.5 18.5 -17 q11 -4.5 24 -4.5 Z" /><glyph glyph-name="ampersand" unicode="&amp;" d="M288 -12 q-97 0 -156 21 q-59 21 -86 66.5 q-27 45.5 -27 119.5 q0 56 14 93 q14 37 42 60.5 q28 23.5 69 38.5 q-16 21 -24.5 40 q-8.5 19 -11.5 41.5 q-3 22.5 -3 51.5 q0 78 53.5 124 q53.5 46 170.5 46 q66 0 116 -16.5 q50 -16.5 78 -54 q28 -37.5 28 -100.5 q0 -46 -11.5 -76.5 q-11.5 -30.5 -43 -52 q-31.5 -21.5 -92.5 -41.5 l90 -86 q4 10 8 24.5 q4 14.5 7.5 30 q3.5 15.5 4.5 28.5 l144 -5 q-5 -31 -13.5 -62.5 q-8.5 -31.5 -18.5 -60 q-10 -28.5 -21 -52.5 l87 -79 l-46 -99 l-129 75 q-40 -36 -97 -55.5 q-57 -19.5 -132 -19.5 ZM299 130 q25 0 46 8 q21 8 36 25 l-144 132 q-15 -7 -25 -17 q-10 -10 -15 -23.5 q-5 -13.5 -5 -32.5 q0 -45 26 -68.5 q26 -23.5 81 -23.5 ZM316 428 q21 11 35.5 23.5 q14.5 12.5 22 28 q7.5 15.5 7.5 34.5 q0 33 -13 47 q-13 14 -40 14 q-27 0 -41 -15 q-14 -15 -14 -46 q0 -17 3.5 -29.5 q3.5 -12.5 13 -26 q9.5 -13.5 26.5 -30.5 Z" /><glyph glyph-name="paragraph" unicode="¶" d="M248 0 l0 250 l-7 0 q-61 0 -111 29.5 q-50 29.5 -78.5 80 q-28.5 50.5 -28.5 112.5 q0 64 29 114.5 q29 50.5 79 80.5 q50 30 112 30 l312 0 l0 -146 l-70 0 l0 -551 l-58 0 l-19 221 l-67 0 l-34 -221 l-59 0 Z" /><glyph glyph-name="section" unicode="§" d="M291 -180 q-40 0 -85.5 6.5 q-45.5 6.5 -87 15.5 q-41.5 9 -69.5 17 l13 126 q6 -1 25 -4 q19 -3 44 -6.5 q25 -3.5 51.5 -6.5 q26.5 -3 49.5 -5.5 q23 -2.5 38 -2.5 q35 0 56.5 12 q21.5 12 21.5 41 q0 17 -11.5 26 q-11.5 9 -39.5 16.5 q-28 7.5 -79 17.5 q-68 14 -109 31.5 q-41 17.5 -59 48 q-18 30.5 -18 82.5 q0 38 15 68.5 q15 30.5 34 50.5 q-24 24 -30.5 49.5 q-6.5 25.5 -6.5 60.5 q0 76 29 119.5 q29 43.5 81 61.5 q52 18 119 18 q35 0 77.5 -5 q42.5 -5 84 -12.5 q41.5 -7.5 71.5 -15.5 l-5 -126 q-32 4 -71 8.5 q-39 4.5 -73 7 q-34 2.5 -52 2.5 q-52 0 -70.5 -11 q-18.5 -11 -18.5 -37 q0 -18 9.5 -28.5 q9.5 -10.5 34.5 -18 q25 -7.5 72 -16.5 q71 -14 113.5 -31 q42.5 -17 62 -46 q19.5 -29 19.5 -80 q0 -45 -13 -79.5 q-13 -34.5 -31 -54.5 q19 -20 27 -41 q8 -21 8 -66 q0 -56 -17.5 -93.5 q-17.5 -37.5 -49 -59 q-31.5 -21.5 -73 -31 q-41.5 -9.5 -87.5 -9.5 ZM349 176 q6 12 10 27.5 q4 15.5 4 30.5 q0 18 -9 28 q-9 10 -27 16.5 q-18 6.5 -43 10.5 q-19 4 -36 8 q-17 4 -27 8 q-7 -9 -13 -24.5 q-6 -15.5 -6 -29.5 q0 -23 14.5 -32.5 q14.5 -9.5 53.5 -19.5 q13 -3 28.5 -7.5 q15.5 -4.5 30 -8.5 q14.5 -4 20.5 -7 Z" /><glyph glyph-name="copyright" unicode="©" d="M321 154 q-78 0 -139 37 q-61 37 -96 100.5 q-35 63.5 -35 142.5 q0 80 35 143.5 q35 63.5 96.5 100 q61.5 36.5 139.5 36.5 q82 0 143 -38 q61 -38 94.5 -102 q33.5 -64 33.5 -140 q0 -79 -33.5 -142.5 q-33.5 -63.5 -94.5 -100.5 q-61 -37 -144 -37 ZM329 271 q-44 0 -71.5 15.5 q-27.5 15.5 -40.5 52 q-13 36.5 -13 99.5 q0 58 13 92.5 q13 34.5 41 50 q28 15.5 74 15.5 q25 0 46.5 -4.5 q21.5 -4.5 31.5 -9.5 l-5 -75 q-12 2 -32 4.5 q-20 2.5 -37 2.5 q-17 0 -26.5 -8 q-9.5 -8 -13 -24 q-3.5 -16 -3.5 -44 q0 -43 9.5 -63.5 q9.5 -20.5 33.5 -20.5 q17 0 37 2 q20 2 32 3 l5 -72 q-9 -5 -31 -10.5 q-22 -5.5 -50 -5.5 ZM321 208 q63 0 112 31 q49 31 76.5 82 q27.5 51 27.5 113 q0 62 -28 113.5 q-28 51.5 -77 82 q-49 30.5 -111 30.5 q-61 0 -109.5 -30.5 q-48.5 -30.5 -77 -82 q-28.5 -51.5 -28.5 -113.5 q0 -62 28 -113 q28 -51 76.5 -82 q48.5 -31 110.5 -31 Z" /><glyph glyph-name="registered" unicode="®" d="M321 154 q-78 0 -139 37 q-61 37 -96 100.5 q-35 63.5 -35 142.5 q0 80 35 143.5 q35 63.5 96 100 q61 36.5 139 36.5 q83 0 144 -38 q61 -38 94.5 -102 q33.5 -64 33.5 -140 q0 -79 -33.5 -142.5 q-33.5 -63.5 -94.5 -100.5 q-61 -37 -144 -37 ZM321 208 q63 0 112 31 q49 31 76.5 82 q27.5 51 27.5 113 q0 62 -28 113.5 q-28 51.5 -77 82 q-49 30.5 -111 30.5 q-60 0 -109 -30.5 q-49 -30.5 -77.5 -82 q-28.5 -51.5 -28.5 -113.5 q0 -62 28.5 -113 q28.5 -51 77.5 -82 q49 -31 109 -31 ZM205 278 l0 311 l127 0 q51 0 82.5 -23 q31.5 -23 31.5 -79 q0 -38 -9 -59.5 q-9 -21.5 -33 -37.5 l46 -112 l-87 0 l-36 98 l-39 0 l0 -98 l-83 0 ZM287 439 l39 0 q20 0 29.5 11 q9.5 11 9.5 31 q0 22 -10.5 33 q-10.5 11 -33.5 11 l-34 0 l0 -86 Z" /><glyph glyph-name="trademark" unicode="&#x2122;" d="M286 331 l0 308 l92 0 l50 -175 l53 175 l92 0 l0 -308 l-72 0 l0 191 l-45 -172 l-51 0 l-47 172 l0 -191 l-72 0 ZM132 332 l0 238 l-73 0 l0 69 l200 0 l0 -69 l-50 0 l0 -238 l-77 0 Z" /><glyph glyph-name="degree" unicode="°" d="M277 401 q-66 0 -106.5 40 q-40.5 40 -40.5 106 q0 66 40.5 106.5 q40.5 40.5 106.5 40.5 q65 0 106 -40.5 q41 -40.5 41 -106.5 q0 -66 -41 -106 q-41 -40 -106 -40 ZM277 491 q25 0 40.5 15.5 q15.5 15.5 15.5 40.5 q0 25 -15.5 41 q-15.5 16 -40.5 16 q-25 0 -40 -16 q-15 -16 -15 -41 q0 -25 15 -40.5 q15 -15.5 40 -15.5 Z" /><glyph glyph-name="bar" unicode="|" d="M49 -220 l0 928 l169 0 l0 -928 l-169 0 Z" /><glyph glyph-name="brokenbar" unicode="¦" d="M49 320 l0 388 l169 0 l0 -388 l-169 0 ZM49 -220 l0 385 l169 0 l0 -385 l-169 0 Z" /><glyph glyph-name="dagger" unicode="&#x2020;" d="M172 -153 l-2 496 l-147 0 l0 152 l147 0 l0 182 l174 0 l0 -182 l147 0 l0 -152 l-147 0 l-2 -496 l-170 0 Z" /><glyph glyph-name="daggerdbl" unicode="&#x2021;" d="M182 -152 l0 182 l-147 0 l0 152 l147 0 l0 161 l-147 0 l0 152 l147 0 l0 182 l174 0 l0 -182 l147 0 l0 -152 l-147 0 l0 -161 l147 0 l0 -152 l-147 0 l0 -182 l-174 0 Z" /><glyph glyph-name="uni066A" unicode="&#x66a;" d="M235 -27 l-65 20 l225 700 l65 -22 l-225 -698 ZM419 80 l0 128 l144 0 l0 -128 l-144 0 ZM63 457 l0 128 l145 0 l0 -128 l-145 0 Z" /><glyph glyph-name="uni02BB" unicode="&#x2bb;" d="M237 781 l-30 -273 l-187 0 l75 273 l142 0 Z" /><glyph glyph-name="uni0326" unicode="&#xf6c3;" d="M-8 -352 l29 265 l183 0 l-68 -265 l-144 0 Z" /><glyph glyph-name="dieresis" unicode="¨" d="M226 581 l0 132 l132 0 l0 -132 l-132 0 ZM19 581 l0 132 l132 0 l0 -132 l-132 0 Z" /><glyph glyph-name="dotaccent" unicode="&#x2d9;" d="M80 579 l0 130 l148 0 l0 -130 l-148 0 Z" /><glyph glyph-name="grave" unicode="`" d="M235 569 l-206 65 l109 124 l180 -99 l-83 -90 Z" /><glyph glyph-name="acute" unicode="´" d="M108 569 l-83 90 l180 99 l109 -124 l-206 -65 Z" /><glyph glyph-name="hungarumlaut" unicode="&#x2dd;" d="M318 566 l-108 16 l73 158 l144 -16 l-109 -158 ZM107 566 l-107 16 l73 157 l143 -15 l-109 -158 Z" /><glyph glyph-name="circumflex" unicode="&#x2c6;" d="M147 569 l103 157 l120 0 l110 -157 l-132 0 l-35 77 l-33 -77 l-133 0 Z" /><glyph glyph-name="caron" unicode="&#x2c7;" d="M248 569 l-103 157 l132 0 l35 -77 l35 77 l131 0 l-110 -157 l-120 0 Z" /><glyph glyph-name="breve" unicode="&#x2d8;" d="M178 561 q-57 0 -91 22 q-34 22 -49 57 q-15 35 -16 74 l98 7 q2 -26 16 -42.5 q14 -16.5 42 -16.5 q29 0 43.5 17 q14.5 17 15.5 42 l98 -7 q-1 -39 -16 -74 q-15 -35 -48.5 -57 q-33.5 -22 -92.5 -22 Z" /><glyph glyph-name="ring" unicode="&#x2da;" d="M216 542 q-54 0 -88.5 26 q-34.5 26 -34.5 75 q0 49 34.5 75 q34.5 26 88.5 26 q54 0 89 -26 q35 -26 35 -75 q0 -47 -34 -74 q-34 -27 -90 -27 ZM217 609 q16 0 27.5 9 q11.5 9 11.5 25 q0 15 -11.5 24 q-11.5 9 -27.5 9 q-16 0 -27.5 -9 q-11.5 -9 -11.5 -24 q0 -16 11.5 -25 q11.5 -9 27.5 -9 Z" /><glyph glyph-name="tilde" unicode="&#x2dc;" d="M262 570 q-17 0 -37.5 6.5 q-20.5 6.5 -41 15.5 q-20.5 9 -38 15.5 q-17.5 6.5 -29.5 6.5 q-14 0 -37.5 -13.5 q-23.5 -13.5 -39.5 -25.5 l-25 92 q16 20 45 40 q29 20 56 20 q19 0 40 -7 q21 -7 40.5 -15.5 q19.5 -8.5 36 -15 q16.5 -6.5 27.5 -6.5 q13 0 36.5 13 q23.5 13 40.5 26 l26 -94 q-17 -18 -45.5 -38 q-28.5 -20 -54.5 -20 Z" /><glyph glyph-name="macron" unicode="¯" d="M34 584 l0 115 l309 0 l0 -115 l-309 0 Z" /><glyph glyph-name="cedilla" unicode="¸" d="M359 -226 q-32 0 -63 3 q-31 3 -49 6 l3 68 q5 0 23.5 -0.5 q18.5 -0.5 30.5 -0.5 q23 0 31.5 6.5 q8.5 6.5 8.5 20.5 q0 15 -9 19.5 q-9 4.5 -31 4.5 l-20 0 l0 106 l62 0 l0 -45 q68 -1 98.5 -17 q30.5 -16 30.5 -69 q0 -54 -30 -78 q-30 -24 -86 -24 Z" /><glyph glyph-name="ogonek" unicode="&#x2db;" d="M323 -215 q-39 0 -69.5 11 q-30.5 11 -47.5 34 q-17 23 -17 59 q0 33 17 59 q17 26 42 45.5 q25 19.5 49 29.5 l127 -13 q-18 -15 -34.5 -33.5 q-16.5 -18.5 -27.5 -36.5 q-11 -18 -11 -32 q0 -12 7 -19.5 q7 -7.5 22 -7.5 q10 0 24 2 q14 2 23 3 l11 -89 q-17 -3 -48 -7.5 q-31 -4.5 -67 -4.5 Z" /><glyph glyph-name="uni0615" unicode="&#x615;" d="M64 451 q0 35 17 62 q17 27 46.5 43 q29.5 16 64.5 16 q36 0 65.5 -16 q29.5 -16 46.5 -43 q17 -27 17 -62 l-70 0 q0 23 -17 39 q-17 16 -42 16 q-24 0 -45.5 -16 q-21.5 -16 -21.5 -39 l-61 0 ZM33 386 l0 65 l288 0 l0 -65 l-288 0 ZM64 451 l0 167 l71 0 l0 -167 l-71 0 Z" /><glyph glyph-name="dotabovear" unicode="&#xfbb2;" d="M20 563 l0 131 l173 0 l0 -131 l-173 0 Z" /><glyph glyph-name="threedotsdownabovear" unicode="&#xfbb8;" d="M131 540 l146 0 l0 -111 l-146 0 l0 111 ZM17 707 l163 0 l0 -131 l-163 0 l0 131 ZM229 707 l164 0 l0 -131 l-164 0 l0 131 Z" /><glyph glyph-name="threedotsdownbelowar" unicode="&#xfbb9;" d="M131 -116 l146 0 l0 -111 l-146 0 l0 111 ZM17 51 l163 0 l0 -130 l-163 0 l0 130 ZM229 51 l164 0 l0 -130 l-164 0 l0 130 Z" /><glyph glyph-name="threedotsupabovear" unicode="&#xfbb6;" d="M131 710 l0 111 l146 0 l0 -111 l-146 0 ZM17 543 l0 131 l163 0 l0 -131 l-163 0 ZM229 543 l0 131 l164 0 l0 -131 l-164 0 Z" /><glyph glyph-name="uni0670" unicode="&#x670;" d="M20 455 l0 147 l51 0 l0 -147 l-51 0 Z" /><glyph glyph-name="uni0654" unicode="&#x654;" d="M87 468 q-21 25 -32 47.5 q-11 22.5 -11 48.5 q0 38 20 68 q20 30 53 47.5 q33 17.5 73 17.5 q21 0 43.5 -6 q22.5 -6 37.5 -16 l-39 -72 q-10 5 -19.5 6.5 q-9.5 1.5 -18.5 1.5 q-24 0 -37 -12.5 q-13 -12.5 -13 -32.5 q0 -12 4.5 -22.5 q4.5 -10.5 14.5 -21.5 l-76 -54 ZM20 455 l0 85 l273 0 l0 -85 l-273 0 Z" /><glyph glyph-name="uni064C" unicode="&#x64c;" d="M63 537 l-31 66 l28 42 l32 -67 l-29 -41 ZM51 533 l0 51 l95 0 l0 -51 l-95 0 ZM137 533 q-16 75 1.5 121.5 q17.5 46.5 77.5 46.5 q61 0 78.5 -46.5 q17.5 -46.5 1.5 -121.5 l-50 10 q13 61 5 83.5 q-8 22.5 -35 22.5 q-26 0 -34 -22.5 q-8 -22.5 6 -82.5 l-51 -11 ZM56 533 l0 51 l240 0 l0 -51 l-240 0 Z" /><glyph glyph-name="uni064E" unicode="&#x64e;" d="M20 533 l0 51 l239 0 l0 -51 l-239 0 Z" /><glyph glyph-name="uni064F" unicode="&#x64f;" d="M100 533 q-17 75 0.5 121.5 q17.5 46.5 78.5 46.5 q61 0 78 -46.5 q17 -46.5 2 -121.5 l-51 10 q13 61 5 83.5 q-8 22.5 -34 22.5 q-26 0 -34 -22.5 q-8 -22.5 6 -82.5 l-51 -11 ZM19 533 l0 51 l240 0 l0 -51 l-240 0 Z" /><glyph glyph-name="uni0651" unicode="&#x651;" d="M190 419 q-40 0 -60 29 q-20 29 -20 84 l0 35 l51 0 l0 -35 q0 -37 8 -49.5 q8 -12.5 21 -12.5 q19 0 26.5 28.5 q7.5 28.5 -2.5 91.5 l50 9 q15 -85 -4 -132.5 q-19 -47.5 -70 -47.5 ZM81 419 q-52 0 -70.5 47.5 q-18.5 47.5 -3.5 132.5 l50 -9 q-11 -63 -3 -91.5 q8 -28.5 27 -28.5 q13 0 21 12.5 q8 12.5 8 49.5 l0 35 l51 0 l0 -35 q0 -55 -20 -84 q-20 -29 -60 -29 Z" /><glyph glyph-name="uni0652" unicode="&#x652;" d="M111 433 q-29 0 -53.5 14 q-24.5 14 -39 38.5 q-14.5 24.5 -14.5 52.5 q0 30 14.5 54 q14.5 24 39 39 q24.5 15 53.5 15 q30 0 54 -14.5 q24 -14.5 38 -39 q14 -24.5 14 -54.5 q0 -44 -31 -74.5 q-31 -30.5 -75 -30.5 ZM111 484 q23 0 39 16 q16 16 16 38 q0 24 -16 40 q-16 16 -39 16 q-23 0 -39.5 -16 q-16.5 -16 -16.5 -40 q0 -22 16 -38 q16 -16 40 -16 Z" /><glyph glyph-name="uni0653" unicode="&#x653;" d="M101 514 l-68 50 l58 93 l96 0 q16 -11 36.5 -16.5 q20.5 -5.5 42.5 -5.5 q23 0 44 6 q21 6 35 17 l52 -35 q-14 -22 -35.5 -42.5 q-21.5 -20.5 -51 -33.5 q-29.5 -13 -70.5 -13 q-25 0 -48 5.5 q-23 5.5 -42 17.5 l-49 -43 Z" /><glyph glyph-name="uni0658" unicode="&#x658;" d="M129 367 q-28 0 -52.5 10.5 q-24.5 10.5 -40.5 30.5 q-16 20 -16 48 q0 6 1.5 20 q1.5 14 3.5 30 l50 -7 q-1 -14 -2.5 -25.5 q-1.5 -11.5 -1.5 -17.5 q0 -16 16 -27 q16 -11 42 -11 q26 0 42 11 q16 11 16 27 q0 7 -1 18 q-1 11 -3 23 l51 9 q2 -16 3.5 -30 q1.5 -14 1.5 -20 q0 -28 -16 -48 q-16 -20 -40.5 -30.5 q-24.5 -10.5 -53.5 -10.5 Z" /><glyph glyph-name="uniF6BE" unicode="&#xf6be;" d="M6 -228 l-45 85 q44 28 66.5 48.5 q22.5 20.5 31 46 q8.5 25.5 8.5 68.5 l0 480 l112 0 l0 -481 q0 -51 -8.5 -87 q-8.5 -36 -28.5 -62.5 q-20 -26.5 -53.5 -49 q-33.5 -22.5 -82.5 -48.5 Z" /></font>
</defs>
</svg>
