<?xml version="1.0" standalone="no"?><!DOCTYPE svg PUBLIC "-//W3C//DTD SVG 1.1//EN" "http://www.w3.org/Graphics/SVG/1.1/DTD/svg11.dtd" ><svg xmlns="http://www.w3.org/2000/svg"><metadata></metadata><defs><font id="3.603;NONE;Mulish-ExtraBoldItalic" horiz-adv-x="1371"><font-face font-family="Mulish ExtraBold" font-weight="800" font-stretch="normal" units-per-em="1000" panose-1="0 0 0 0 0 0 0 0 0 0" ascent="1005" descent="-250" x-height="0" bbox="-317 -284 1399 1055" underline-thickness="44" underline-position="-85" unicode-range="U+0000-fb02" /><missing-glyph horiz-adv-x="500"  /><glyph glyph-name="A" unicode="A" d="M-51 0 l436 705 l129 0 l216 -705 l-152 0 l-55 196 l55 -43 l-419 0 l69 43 l-116 -196 l-163 0 ZM429 541 l-178 -306 l-21 38 l315 0 l-29 -38 l-83 306 l-4 0 Z" /><glyph glyph-name="AE" unicode="Æ" d="M-71 0 l553 705 l576 0 l-20 -121 l-364 0 l28 20 l-18 -228 l-12 43 l318 0 l-19 -122 l-317 0 l24 10 l-17 -216 l-14 30 l318 0 l-19 -121 l-433 0 l15 192 l24 -39 l-359 0 l55 41 l-146 -194 l-173 0 ZM542 584 l-262 -347 l-8 37 l279 0 l-18 -42 l28 352 l-19 0 Z" /><glyph glyph-name="B" unicode="B" d="M32 0 l112 705 l322 0 q118 0 173.5 -50 q55.5 -50 41.5 -141 q-10 -60 -54 -102.5 q-44 -42.5 -112 -57.5 l2 16 q74 -13 108 -61.5 q34 -48.5 23 -119.5 q-14 -89 -85 -139 q-71 -50 -188 -50 l-343 0 ZM200 116 l169 0 q59 0 92.5 21 q33.5 21 39.5 64 q6 37 -4.5 58 q-10.5 21 -35.5 31 q-25 10 -63 10 l-170 0 l-28 -184 ZM247 415 l150 0 q61 0 92.5 21 q31.5 21 37.5 61 q8 48 -16.5 70.5 q-24.5 22.5 -83.5 22.5 l-152 0 l-28 -175 Z" /><glyph glyph-name="uni0181" unicode="&#x181;" d="M201 0 l95 597 l-24 0 q-48 0 -73.5 -21.5 q-25.5 -21.5 -32.5 -68.5 l-8 -50 l-126 0 l9 55 q15 95 78.5 144 q63.5 49 177.5 49 l338 0 q119 0 174 -50 q55 -50 41 -141 q-9 -60 -53.5 -102.5 q-44.5 -42.5 -111.5 -57.5 l2 16 q74 -13 108 -61.5 q34 -48.5 23 -119.5 q-14 -89 -85.5 -139 q-71.5 -50 -188.5 -50 l-343 0 ZM370 116 l169 0 q58 0 91.5 21 q33.5 21 40.5 64 q6 37 -5 58 q-11 21 -36 31 q-25 10 -63 10 l-169 0 l-28 -184 ZM417 415 l150 0 q60 0 92 21 q32 21 38 61 q7 48 -17 70.5 q-24 22.5 -83 22.5 l-153 0 l-27 -175 Z" /><glyph glyph-name="C" unicode="C" d="M389 -11 q-123 0 -200 49.5 q-77 49.5 -107 135.5 q-30 86 -13 196 q18 110 71.5 187.5 q53.5 77.5 139 118.5 q85.5 41 195.5 40 q69 -1 124.5 -19.5 q55.5 -18.5 92.5 -50.5 l-53 -124 q-41 31 -79.5 44 q-38.5 13 -91.5 13 q-95 0 -157 -56 q-62 -56 -80 -161 q-11 -72 5 -125 q16 -53 59.5 -82 q43.5 -29 113.5 -29 q47 0 93.5 15 q46.5 15 93.5 51 l42 -123 q-50 -38 -114.5 -59 q-64.5 -21 -134.5 -21 Z" /><glyph glyph-name="D" unicode="D" d="M32 0 l112 705 l255 0 q131 0 211.5 -45 q80.5 -45 111 -127.5 q30.5 -82.5 12.5 -196.5 q-27 -167 -136.5 -251.5 q-109.5 -84.5 -289.5 -84.5 l-276 0 ZM208 128 l104 0 q119 0 184.5 53.5 q65.5 53.5 83.5 161.5 q18 122 -31 178.5 q-49 56.5 -168 56.5 l-102 0 l-71 -450 Z" /><glyph glyph-name="uni018A" unicode="&#x18a;" d="M201 0 l95 597 l-24 0 q-48 0 -73.5 -21.5 q-25.5 -21.5 -32.5 -68.5 l-8 -50 l-126 0 l9 55 q15 95 78.5 144 q63.5 49 173.5 49 l275 0 q132 0 212.5 -45 q80.5 -45 111 -127.5 q30.5 -82.5 12.5 -196.5 q-26 -167 -136 -251.5 q-110 -84.5 -290 -84.5 l-277 0 ZM378 128 l103 0 q119 0 185.5 53.5 q66.5 53.5 83.5 161.5 q18 122 -31 178.5 q-49 56.5 -169 56.5 l-101 0 l-71 -450 Z" /><glyph glyph-name="E" unicode="E" d="M32 0 l112 705 l490 0 l-19 -121 l-341 0 l-26 -165 l317 0 l-19 -122 l-317 0 l-28 -176 l340 0 l-19 -121 l-490 0 Z" /><glyph glyph-name="F" unicode="F" d="M32 0 l112 705 l479 0 l-19 -121 l-324 0 l-27 -172 l300 0 l-19 -120 l-300 0 l-46 -292 l-156 0 Z" /><glyph glyph-name="G" unicode="G" d="M397 -11 q-130 0 -209 47.5 q-79 47.5 -108 132.5 q-29 85 -11 198 q18 112 74.5 189.5 q56.5 77.5 146 118.5 q89.5 41 203.5 41 q77 0 132.5 -17 q55.5 -17 92.5 -46 l-54 -121 q-42 27 -80 38 q-38 11 -97 11 q-109 0 -174 -58.5 q-65 -58.5 -82 -166.5 q-17 -111 25 -173 q42 -62 158 -62 q43 0 80.5 7 q37.5 7 78.5 21 l-45 -60 l30 190 l-155 0 l18 111 l284 0 l-55 -345 q-35 -18 -78 -30.5 q-43 -12.5 -88 -19 q-45 -6.5 -87 -6.5 Z" /><glyph glyph-name="H" unicode="H" d="M32 0 l112 705 l156 0 l-45 -283 l323 0 l45 283 l157 0 l-112 -705 l-157 0 l47 293 l-324 0 l-46 -293 l-156 0 Z" /><glyph glyph-name="Hbar" unicode="&#x126;" d="M62 0 l79 506 l-83 0 l17 111 l84 0 l15 88 l156 0 l-15 -88 l323 0 l15 88 l156 0 l-15 -88 l84 0 l-18 -111 l-84 0 l-79 -506 l-156 0 l43 278 l-322 0 l-44 -278 l-156 0 ZM282 407 l323 0 l15 99 l-323 0 l-15 -99 Z" /><glyph glyph-name="I" unicode="I" d="M32 0 l112 705 l156 0 l-112 -705 l-156 0 Z" /><glyph glyph-name="J" unicode="J" d="M26 -187 q-18 0 -42.5 2.5 q-24.5 2.5 -49.5 9.5 l19 122 q19 -7 36.5 -9 q17.5 -2 29.5 -2 q46 0 69.5 26 q23.5 26 32.5 84 l104 659 l156 0 l-106 -672 q-13 -78 -42 -126.5 q-29 -48.5 -79.5 -71 q-50.5 -22.5 -127.5 -22.5 Z" /><glyph glyph-name="K" unicode="K" d="M32 0 l112 705 l156 0 l-49 -307 l2 0 l333 307 l190 0 l-405 -369 l-5 64 l320 -400 l-184 0 l-261 322 l-2 0 l-51 -322 l-156 0 Z" /><glyph glyph-name="L" unicode="L" d="M32 0 l112 705 l156 0 l-92 -574 l318 0 l-20 -131 l-474 0 Z" /><glyph glyph-name="M" unicode="M" d="M33 0 l112 705 l137 0 l157 -550 l-32 0 l333 550 l136 0 l-112 -705 l-142 0 l76 479 l40 0 l-295 -479 l-89 0 l-145 479 l42 0 l-76 -479 l-142 0 Z" /><glyph glyph-name="N" unicode="N" d="M32 0 l112 705 l116 0 l304 -496 l-26 9 l78 487 l145 0 l-112 -705 l-116 0 l-304 496 l26 -9 l-78 -487 l-145 0 Z" /><glyph glyph-name="Eng" unicode="&#x14a;" d="M357 -193 l7 108 l52 5 q38 3 59.5 22 q21.5 19 28.5 56 l9 61 l20 -59 l-304 496 l26 -9 l-78 -487 l-145 0 l112 705 l116 0 l304 -496 l-26 9 l78 487 l145 0 l-110 -692 q-10 -70 -38 -112.5 q-28 -42.5 -78.5 -63.5 q-50.5 -21 -130.5 -27 l-47 -3 Z" /><glyph glyph-name="O" unicode="O" d="M69 370 q18 110 69.5 187.5 q51.5 77.5 132.5 118 q81 40.5 184 40.5 q115 0 188.5 -49.5 q73.5 -49.5 103 -135 q29.5 -85.5 11.5 -195.5 q-17 -110 -69.5 -187.5 q-52.5 -77.5 -133 -118.5 q-80.5 -41 -183.5 -41 q-115 0 -188.5 49.5 q-73.5 49.5 -102.5 135.5 q-29 86 -12 196 ZM231 360 q-12 -76 2 -129 q14 -53 52.5 -81.5 q38.5 -28.5 98.5 -28.5 q89 0 142.5 61 q53.5 61 69.5 164 q12 76 -2.5 129 q-14.5 53 -53 81 q-38.5 28 -99.5 28 q-89 0 -141 -60 q-52 -60 -69 -164 Z" /><glyph glyph-name="Oslash" unicode="Ø" d="M69 370 q18 110 69.5 187.5 q51.5 77.5 132.5 118 q81 40.5 184 40.5 q115 0 188.5 -49.5 q73.5 -49.5 103 -135 q29.5 -85.5 11.5 -195.5 q-17 -110 -69.5 -187.5 q-52.5 -77.5 -133 -118.5 q-80.5 -41 -183.5 -41 q-115 0 -188.5 49.5 q-73.5 49.5 -102.5 135.5 q-29 86 -12 196 ZM231 360 q-12 -76 2 -129 q14 -53 52.5 -81.5 q38.5 -28.5 98.5 -28.5 q89 0 142.5 61 q53.5 61 69.5 164 q12 76 -2.5 129 q-14.5 53 -53 81 q-38.5 28 -99.5 28 q-89 0 -141 -60 q-52 -60 -69 -164 ZM272 64 l-87 -118 l-93 64 l88 118 l59 63 l295 388 l33 64 l88 117 l93 -64 l-88 -117 l-60 -64 l-294 -388 l-34 -63 Z" /><glyph glyph-name="OE" unicode="&#x152;" d="M496 0 l112 705 l481 0 l-19 -121 l-332 0 l-26 -165 l309 0 l-19 -122 l-309 0 l-28 -176 l331 0 l-19 -121 l-481 0 ZM345 -11 q-106 0 -173.5 49.5 q-67.5 49.5 -93.5 135.5 q-26 86 -9 196 q18 110 67.5 187.5 q49.5 77.5 126 118 q76.5 40.5 172.5 40.5 q59 0 105.5 -16 q46.5 -16 73.5 -48 l-26 -160 q-20 48 -57 70 q-37 22 -90 22 q-89 0 -141 -60 q-52 -60 -69 -164 q-12 -75 1 -128.5 q13 -53.5 50 -82 q37 -28.5 95 -28.5 q59 0 97.5 21.5 q38.5 21.5 66.5 57.5 l-23 -149 q-34 -29 -76.5 -45.5 q-42.5 -16.5 -96.5 -16.5 Z" /><glyph glyph-name="P" unicode="P" d="M32 0 l112 705 l314 0 q125 0 181 -62.5 q56 -62.5 39 -168.5 q-9 -59 -42.5 -104.5 q-33.5 -45.5 -90.5 -70.5 q-57 -25 -137 -25 l-177 0 l-43 -274 l-156 0 ZM251 395 l153 0 q57 0 87.5 23 q30.5 23 37.5 67 q8 48 -16.5 73.5 q-24.5 25.5 -81.5 25.5 l-151 0 l-29 -189 Z" /><glyph glyph-name="Thorn" unicode="Þ" d="M32 0 l112 705 l156 0 l-19 -116 l158 0 q126 0 181.5 -62.5 q55.5 -62.5 39.5 -167.5 q-9 -60 -43 -105.5 q-34 -45.5 -90.5 -70.5 q-56.5 -25 -136.5 -25 l-177 0 l-25 -158 l-156 0 ZM232 279 l153 0 q57 0 88 23 q31 23 38 67 q7 49 -17 74 q-24 25 -81 25 l-151 0 l-30 -189 Z" /><glyph glyph-name="Q" unicode="Q" d="M515 -192 q-30 17 -59 46.5 q-29 29.5 -52 66 q-23 36.5 -37 75.5 l130 54 q17 -51 54.5 -93.5 q37.5 -42.5 80.5 -69.5 l-117 -79 ZM69 370 q18 110 69.5 187.5 q51.5 77.5 132.5 118 q81 40.5 184 40.5 q115 0 188.5 -49.5 q73.5 -49.5 103 -135 q29.5 -85.5 11.5 -195.5 q-17 -110 -69.5 -187.5 q-52.5 -77.5 -133 -118.5 q-80.5 -41 -183.5 -41 q-115 0 -188.5 49.5 q-73.5 49.5 -102.5 135.5 q-29 86 -12 196 ZM231 360 q-12 -76 2 -129 q14 -53 52.5 -81.5 q38.5 -28.5 98.5 -28.5 q89 0 142.5 61 q53.5 61 69.5 164 q12 76 -2.5 129 q-14.5 53 -53 81 q-38.5 28 -99.5 28 q-89 0 -141 -60 q-52 -60 -69 -164 Z" /><glyph glyph-name="R" unicode="R" d="M32 0 l112 705 l305 0 q130 0 187.5 -58.5 q57.5 -58.5 40.5 -165.5 q-10 -62 -46 -107.5 q-36 -45.5 -93.5 -70 q-57.5 -24.5 -129.5 -24.5 l4 22 l37 0 q43 0 72 -23.5 q29 -23.5 46 -66.5 l76 -211 l-163 0 l-79 227 q-9 29 -33.5 38.5 q-24.5 9.5 -58.5 9.5 l-78 0 l-43 -275 l-156 0 ZM249 387 l145 0 q59 0 92 24.5 q33 24.5 40 70.5 q8 52 -19.5 77 q-27.5 25 -88.5 25 l-138 0 l-31 -197 Z" /><glyph glyph-name="S" unicode="S" d="M294 -11 q-80 0 -150.5 19 q-70.5 19 -115.5 49 l51 122 q46 -26 103.5 -43.5 q57.5 -17.5 125.5 -17.5 q72 0 105.5 22 q33.5 22 38.5 56 q5 31 -12 50.5 q-17 19.5 -65 26.5 l-110 19 q-92 15 -137.5 69.5 q-45.5 54.5 -32.5 139.5 q10 66 51.5 114 q41.5 48 109.5 74.5 q68 26.5 156 26.5 q69 0 130.5 -17.5 q61.5 -17.5 98.5 -49.5 l-52 -118 q-36 25 -84 40.5 q-48 15.5 -109 15.5 q-65 0 -103 -22 q-38 -22 -45 -61 q-5 -31 12.5 -53 q17.5 -22 67.5 -30 l109 -18 q95 -15 139 -67.5 q44 -52.5 30 -137.5 q-9 -61 -49 -108 q-40 -47 -106 -74 q-66 -27 -157 -27 Z" /><glyph glyph-name="uni1E9E" unicode="&#x1e9e;" d="M415 -11 q-51 0 -94.5 11 q-43.5 11 -84.5 35 l55 110 q27 -18 53.5 -25.5 q26.5 -7.5 58.5 -7.5 q51 0 82 24 q31 24 37 63 q8 49 -18.5 71.5 q-26.5 22.5 -81.5 22.5 l-111 0 l19 119 l72 0 q56 0 90 23.5 q34 23.5 41 66.5 q7 44 -21 67 q-28 23 -86 23 q-84 0 -123 -37 q-39 -37 -52 -113 l-70 -442 l-149 0 l70 444 q21 139 105.5 205.5 q84.5 66.5 237.5 66.5 q132 0 192 -55.5 q60 -55.5 46 -147.5 q-5 -35 -24.5 -67.5 q-19.5 -32.5 -51.5 -57.5 q-32 -25 -79 -38 l3 19 q75 -14 112 -63 q37 -49 23 -133 q-13 -87 -81.5 -135.5 q-68.5 -48.5 -169.5 -48.5 Z" /><glyph glyph-name="uni018F" unicode="&#x18f;" d="M364 -11 q-117 0 -188 48.5 q-71 48.5 -97 132.5 q-26 84 -11 192 l8 51 l550 0 l-19 -119 l-433 0 l49 59 q-13 -79 -2.5 -132 q10.5 -53 46.5 -79.5 q36 -26.5 101 -26.5 q87 0 140.5 55.5 q53.5 55.5 71.5 170.5 q18 117 -24 180 q-42 63 -156 63 q-60 0 -114.5 -15 q-54.5 -15 -109.5 -49 l-45 118 q60 38 132 58 q72 20 160 20 q121 0 197 -48.5 q76 -48.5 106 -133.5 q30 -85 12 -197 q-17 -108 -69 -186 q-52 -78 -130.5 -120 q-78.5 -42 -174.5 -42 Z" /><glyph glyph-name="T" unicode="T" d="M195 0 l92 578 l-224 0 l20 127 l604 0 l-20 -127 l-224 0 l-92 -578 l-156 0 Z" /><glyph glyph-name="U" unicode="U" d="M344 -11 q-96 0 -162.5 34 q-66.5 34 -94.5 102.5 q-28 68.5 -12 174.5 l65 405 l156 0 l-65 -413 q-14 -84 15.5 -127.5 q29.5 -43.5 113.5 -43.5 q75 0 116.5 42 q41.5 42 56.5 131 l65 411 l154 0 l-67 -417 q-16 -100 -57 -166.5 q-41 -66.5 -111.5 -99.5 q-70.5 -33 -172.5 -33 Z" /><glyph glyph-name="V" unicode="V" d="M263 0 l-204 705 l162 0 l151 -564 l-48 0 l329 564 l168 0 l-429 -705 l-129 0 Z" /><glyph glyph-name="W" unicode="W" d="M230 0 l-138 705 l156 0 l91 -544 l-42 0 l282 544 l114 0 l92 -544 l-40 0 l276 544 l157 0 l-364 -705 l-127 0 l-93 501 l21 0 l-257 -501 l-128 0 Z" /><glyph glyph-name="X" unicode="X" d="M-61 0 l357 392 l-5 -69 l-226 382 l176 0 l150 -269 l-50 0 l236 269 l190 0 l-349 -382 l4 69 l234 -392 l-177 0 l-157 279 l52 0 l-246 -279 l-189 0 Z" /><glyph glyph-name="Y" unicode="Y" d="M203 0 l53 335 l17 -89 l-234 459 l173 0 l146 -302 l-32 0 l242 302 l180 0 l-382 -466 l47 96 l-54 -335 l-156 0 Z" /><glyph glyph-name="uni01B3" unicode="&#x1b3;" d="M203 0 l53 335 l17 -89 l-234 459 l173 0 l146 -302 l-32 0 l171 212 q31 39 62 61 q31 22 66.5 31 q35.5 9 79.5 9 q24 0 44 -3.5 q20 -3.5 33 -9.5 l-16 -106 q-10 4 -22 5.5 q-12 1.5 -28 1.5 q-24 0 -46 -10.5 q-22 -10.5 -43 -36.5 l-261 -318 l47 96 l-54 -335 l-156 0 Z" /><glyph glyph-name="Z" unicode="Z" d="M6 0 l18 115 l450 508 l-7 -46 l-370 0 l21 128 l525 0 l-18 -114 l-451 -508 l7 45 l385 0 l-21 -128 l-539 0 Z" /><glyph glyph-name="a" unicode="a" d="M232 -11 q-69 0 -117.5 35 q-48.5 35 -68.5 98.5 q-20 63.5 -7 147.5 q20 123 91 185 q71 62 169 62 q61 0 104.5 -28.5 q43.5 -28.5 52.5 -76.5 l-10 -4 l27 99 l145 0 q-8 -33 -15.5 -66.5 q-7.5 -33.5 -13.5 -65.5 l-59 -375 l-150 0 l16 99 l16 0 q-24 -50 -69.5 -80 q-45.5 -30 -110.5 -30 ZM285 103 q51 0 87 35.5 q36 35.5 48 108.5 q13 82 -14 119 q-27 37 -81 37 q-51 0 -87 -35 q-36 -35 -48 -108 q-13 -82 14 -119.5 q27 -37.5 81 -37.5 Z" /><glyph glyph-name="ae" unicode="æ" d="M207 -11 q-70 0 -113.5 26.5 q-43.5 26.5 -60.5 68 q-17 41.5 -10 85.5 q9 49 43 78.5 q34 29.5 98.5 43 q64.5 13.5 161.5 13.5 l51 0 l-11 -74 l-59 0 q-47 0 -80 -7 q-33 -7 -50.5 -22 q-17.5 -15 -21.5 -39 q-6 -31 13 -51 q19 -20 60 -20 q49 0 81 30 q32 30 40 80 l17 108 q8 49 -16 72 q-24 23 -70 23 q-45 0 -83 -9.5 q-38 -9.5 -84 -32.5 l-37 102 q29 16 66.5 28 q37.5 12 77.5 18.5 q40 6.5 76 6.5 q81 0 124 -24 q43 -24 57 -72 l-41 0 q40 50 89.5 73 q49.5 23 108.5 23 q74 0 123 -33 q49 -33 69 -90 q20 -57 8 -131 l-5 -33 l-348 0 l12 74 l238 0 l-19 -16 q10 64 -12 96 q-22 32 -71 32 q-35 0 -61.5 -16.5 q-26.5 -16.5 -41.5 -46 q-15 -29.5 -21 -65.5 l-6 -39 q-10 -70 22 -108 q32 -38 110 -38 q36 0 70 10.5 q34 10.5 69 33.5 l39 -100 q-41 -29 -92.5 -43.5 q-51.5 -14.5 -106.5 -14.5 q-87 0 -144.5 34.5 q-57.5 34.5 -83.5 98.5 l31 0 q-29 -63 -81.5 -98 q-52.5 -35 -124.5 -35 Z" /><glyph glyph-name="b" unicode="b" d="M333 -11 q-60 0 -103.5 29 q-43.5 29 -52.5 77 l10 4 l-16 -99 l-149 0 l117 736 l151 0 l-52 -324 l-18 -4 q24 50 70 79.5 q46 29.5 110 29.5 q70 0 118 -35 q48 -35 68.5 -97.5 q20.5 -62.5 6.5 -147.5 q-20 -123 -91 -185.5 q-71 -62.5 -169 -62.5 ZM308 103 q52 0 87.5 35.5 q35.5 35.5 46.5 108.5 q13 82 -13.5 119 q-26.5 37 -80.5 37 q-51 0 -87.5 -35 q-36.5 -35 -48.5 -108 q-12 -82 15 -119.5 q27 -37.5 81 -37.5 Z" /><glyph glyph-name="uni0253" unicode="&#x253;" d="M333 -11 q-60 0 -103.5 29 q-43.5 29 -52.5 77 l10 4 l-16 -99 l-149 0 l86 540 q17 106 77.5 156.5 q60.5 50.5 164.5 50.5 q18 0 37.5 -3 q19.5 -3 33.5 -8 l-28 -112 q-12 4 -20 5 q-8 1 -19 1 q-81 0 -96 -92 l-20 -126 l-18 -4 q24 50 70 79.5 q46 29.5 110 29.5 q70 0 118 -35 q48 -35 68.5 -97.5 q20.5 -62.5 6.5 -147.5 q-20 -123 -91 -185.5 q-71 -62.5 -169 -62.5 ZM308 103 q52 0 87.5 35.5 q35.5 35.5 46.5 108.5 q13 82 -13.5 119 q-26.5 37 -80.5 37 q-51 0 -87.5 -35 q-36.5 -35 -48.5 -108 q-12 -82 15 -119.5 q27 -37.5 81 -37.5 Z" /><glyph glyph-name="c" unicode="c" d="M280 -11 q-87 0 -145.5 35.5 q-58.5 35.5 -83.5 99 q-25 63.5 -12 146.5 q20 123 100.5 185 q80.5 62 198.5 62 q47 0 92.5 -13.5 q45.5 -13.5 72.5 -38.5 l-46 -102 q-23 19 -54 29 q-31 10 -60 10 q-58 0 -98 -34.5 q-40 -34.5 -52 -106.5 q-12 -70 17.5 -112.5 q29.5 -42.5 95.5 -42.5 q27 0 59.5 10.5 q32.5 10.5 61.5 32.5 l40 -102 q-30 -26 -81 -42 q-51 -16 -106 -16 Z" /><glyph glyph-name="d" unicode="d" d="M232 -11 q-69 0 -117.5 35 q-48.5 35 -68.5 98.5 q-20 63.5 -7 147.5 q20 123 91 185 q71 62 169 62 q61 0 104.5 -28.5 q43.5 -28.5 52.5 -76.5 l-12 0 l52 324 l151 0 l-117 -736 l-149 0 l16 99 l15 0 q-24 -50 -69.5 -80 q-45.5 -30 -110.5 -30 ZM285 103 q51 0 87 35.5 q36 35.5 48 108.5 q13 82 -14 119 q-27 37 -81 37 q-51 0 -87 -35 q-36 -35 -48 -108 q-13 -82 14 -119.5 q27 -37.5 81 -37.5 Z" /><glyph glyph-name="eth" unicode="ð" d="M272 -11 q-82 0 -139.5 31.5 q-57.5 31.5 -83.5 88.5 q-26 57 -14 130 q10 66 47.5 113.5 q37.5 47.5 95 73 q57.5 25.5 126.5 25.5 q68 0 114.5 -29.5 q46.5 -29.5 58.5 -95.5 l-31 0 q11 70 -11 133 q-22 63 -72 110 l31 0 l-216 -90 l-26 62 l174 72 l-3 -14 q-28 18 -61 31.5 q-33 13.5 -69 21.5 l38 94 q74 -8 131 -32 q57 -24 98 -58 l-27 3 l131 55 l28 -61 l-107 -45 l4 20 q43 -46 66.5 -104 q23.5 -58 29 -121 q5.5 -63 -4.5 -126 q-22 -142 -103.5 -215 q-81.5 -73 -204.5 -73 ZM283 104 q51 0 86 31.5 q35 31.5 43 83.5 q10 56 -15.5 88 q-25.5 32 -80.5 32 q-53 0 -87.5 -30.5 q-34.5 -30.5 -43.5 -84.5 q-9 -57 17 -88.5 q26 -31.5 81 -31.5 Z" /><glyph glyph-name="dcroat" unicode="&#x111;" d="M232 -11 q-69 0 -117.5 34 q-48.5 34 -68.5 94.5 q-20 60.5 -7 141.5 q20 118 91 177.5 q71 59.5 169 59.5 q61 0 104.5 -27.5 q43.5 -27.5 52.5 -74.5 l-12 18 l24 149 l-191 0 l16 104 l192 0 l11 71 l151 0 l-11 -71 l86 0 l-16 -104 l-87 0 l-89 -561 l-149 0 l16 99 l15 -4 q-24 -48 -69.5 -77 q-45.5 -29 -110.5 -29 ZM285 103 q51 0 87 33.5 q36 33.5 48 100.5 q13 75 -14 110 q-27 35 -81 35 q-51 0 -87 -33 q-36 -33 -48 -101 q-13 -74 14 -109.5 q27 -35.5 81 -35.5 Z" /><glyph glyph-name="uni0257" unicode="&#x257;" d="M232 -11 q-69 0 -117.5 35 q-48.5 35 -68.5 98.5 q-20 63.5 -7 147.5 q20 123 91 185 q71 62 169 62 q61 0 104.5 -28.5 q43.5 -28.5 52.5 -76.5 l-12 0 l22 132 q16 104 77.5 153.5 q61.5 49.5 163.5 49.5 q18 0 38.5 -3 q20.5 -3 33.5 -8 l-29 -112 q-11 4 -19.5 5 q-8.5 1 -19.5 1 q-37 0 -62.5 -21.5 q-25.5 -21.5 -33.5 -70.5 l-85 -538 l-149 0 l16 99 l15 0 q-24 -50 -70.5 -80 q-46.5 -30 -109.5 -30 ZM285 103 q51 0 87 35.5 q36 35.5 48 108.5 q13 82 -14 119 q-27 37 -81 37 q-51 0 -87 -35 q-36 -35 -48 -108 q-13 -82 14 -119.5 q27 -37.5 81 -37.5 Z" /><glyph glyph-name="e" unicode="e" d="M292 -11 q-93 0 -154 36 q-61 36 -86 100 q-25 64 -12 148 q12 76 49 130.5 q37 54.5 94.5 84 q57.5 29.5 132.5 29.5 q75 0 124 -33 q49 -33 69.5 -90 q20.5 -57 8.5 -131 l-6 -33 l-354 0 l11 74 l246 0 l-20 -16 q10 64 -12 96 q-22 32 -72 32 q-36 0 -62 -16.5 q-26 -16.5 -42 -46 q-16 -29.5 -21 -65.5 l-6 -39 q-10 -70 21.5 -108 q31.5 -38 111.5 -38 q36 0 70.5 10.5 q34.5 10.5 69.5 33.5 l40 -100 q-41 -29 -93 -43.5 q-52 -14.5 -108 -14.5 Z" /><glyph glyph-name="uni0259" unicode="&#x259;" d="M244 -11 q-79 0 -130.5 33 q-51.5 33 -71.5 90.5 q-20 57.5 -9 130.5 l5 34 l355 0 l-11 -75 l-245 0 l20 17 q-12 -63 10.5 -95.5 q22.5 -32.5 74.5 -32.5 q35 0 60.5 17 q25.5 17 41.5 46 q16 29 22 65 l5 38 q11 71 -21.5 108.5 q-32.5 37.5 -111.5 37.5 q-36 0 -70.5 -9 q-34.5 -9 -70.5 -32 l-37 100 q44 28 96.5 41.5 q52.5 13.5 110.5 13.5 q89 0 148 -35.5 q59 -35.5 84.5 -99.5 q25.5 -64 11.5 -149 q-12 -73 -47.5 -128 q-35.5 -55 -91 -85.5 q-55.5 -30.5 -128.5 -30.5 Z" /><glyph glyph-name="f" unicode="f" d="M60 0 l63 394 l-96 0 l17 113 l139 0 l-49 -39 l13 76 q15 98 75 147 q60 49 167 49 q24 0 47 -3.5 q23 -3.5 41 -11.5 l-19 -116 q-13 5 -27 7.5 q-14 2.5 -31 2.5 q-23 0 -45.5 -8 q-22.5 -8 -38.5 -26.5 q-16 -18.5 -21 -49.5 l-9 -53 l-17 25 l149 0 l-17 -113 l-127 0 l-63 -394 l-151 0 Z" /><glyph glyph-name="g" unicode="g" d="M237 -224 q-72 0 -127 14.5 q-55 14.5 -97 43.5 l40 109 q25 -18 54 -29.5 q29 -11.5 61.5 -17.5 q32.5 -6 65.5 -6 q70 0 106.5 32 q36.5 32 45.5 91 l17 105 l10 0 q-20 -46 -67 -75.5 q-47 -29.5 -110 -29.5 q-68 0 -117 32 q-49 32 -70.5 92.5 q-21.5 60.5 -7.5 144.5 q19 115 89 175 q70 60 171 60 q61 0 104.5 -28.5 q43.5 -28.5 51.5 -75.5 l-7 4 l24 90 l146 0 q-9 -33 -16.5 -66.5 q-7.5 -33.5 -12.5 -65.5 l-55 -345 q-19 -123 -94.5 -188.5 q-75.5 -65.5 -204.5 -65.5 ZM288 126 q54 0 90 35.5 q36 35.5 46 101.5 q10 69 -16 104.5 q-26 35.5 -80 35.5 q-54 0 -90 -35 q-36 -35 -47 -101 q-11 -69 16 -105 q27 -36 81 -36 Z" /><glyph glyph-name="uni01E5" unicode="&#x1e5;" d="M234 -223 q-73 0 -127.5 13.5 q-54.5 13.5 -95.5 43.5 l38 102 q25 -15 55 -27 q30 -12 63 -19 q33 -7 64 -7 q103 0 137 71 l6 -12 l-128 0 l10 63 l145 0 l-22 -27 q2 7 2.5 13 q0.5 6 1.5 12 l23 141 l12 0 q-23 -46 -72.5 -73 q-49.5 -27 -108.5 -27 q-68 0 -116 31.5 q-48 31.5 -68.5 88 q-20.5 56.5 -8.5 132.5 q12 73 47 122 q35 49 88 74 q53 25 116 25 q63 0 107 -27 q44 -27 56 -75 l-8 2 l24 90 l146 0 q-9 -33 -16.5 -66.5 q-7.5 -33.5 -12.5 -65.5 l-54 -344 q-1 -9 -3.5 -19 q-2.5 -10 -4.5 -19 l-12 12 l72 0 l-11 -63 l-81 0 l20 15 q-32 -88 -102.5 -134 q-70.5 -46 -180.5 -46 ZM293 155 q52 0 87.5 31.5 q35.5 31.5 44.5 88.5 q10 63 -17.5 95.5 q-27.5 32.5 -82.5 32.5 q-53 0 -87.5 -31.5 q-34.5 -31.5 -43.5 -89.5 q-10 -63 17.5 -95 q27.5 -32 81.5 -32 Z" /><glyph glyph-name="h" unicode="h" d="M22 0 l117 736 l151 0 l-52 -324 l-15 0 q30 52 79 78.5 q49 26.5 110 26.5 q91 0 129 -54 q38 -54 20 -165 l-47 -298 l-151 0 l47 298 q9 55 -9 78.5 q-18 23.5 -58 23.5 q-51 0 -84 -31 q-33 -31 -41 -83 l-45 -286 l-151 0 Z" /><glyph glyph-name="hbar" unicode="&#x127;" d="M22 0 l88 561 l-88 0 l16 104 l90 0 l11 71 l151 0 l-11 -71 l191 0 l-16 -104 l-193 0 l-26 -164 l-14 0 q30 53 79.5 79.5 q49.5 26.5 109.5 26.5 q90 0 128.5 -54.5 q38.5 -54.5 20.5 -165.5 l-45 -283 l-151 0 l45 284 q9 55 -9 78.5 q-18 23.5 -58 23.5 q-51 0 -83.5 -31.5 q-32.5 -31.5 -41.5 -82.5 l-43 -272 l-151 0 Z" /><glyph glyph-name="i" unicode="i" d="M22 0 l80 507 l151 0 l-80 -507 l-151 0 ZM109 590 l23 141 l163 0 l-23 -141 l-163 0 Z" /><glyph glyph-name="dotlessi" unicode="&#x131;" d="M22 0 l80 507 l151 0 l-80 -507 l-151 0 Z" /><glyph glyph-name="j" unicode="j" d="M-55 -223 q-22 0 -44 3 q-22 3 -41 11 l19 117 q13 -4 26.5 -7 q13.5 -3 28.5 -3 q32 0 55.5 19.5 q23.5 19.5 30.5 67.5 l83 522 l151 0 l-84 -529 q-16 -99 -70.5 -150 q-54.5 -51 -154.5 -51 ZM110 590 l22 141 l163 0 l-23 -141 l-162 0 Z" /><glyph glyph-name="uni0237" unicode="&#x237;" d="M-54 -223 q-22 0 -44 3 q-22 3 -40 11 l18 117 q13 -4 27 -7 q14 -3 28 -3 q33 0 56 19.5 q23 19.5 31 67.5 l82 522 l151 0 l-83 -529 q-16 -99 -70.5 -150 q-54.5 -51 -155.5 -51 Z" /><glyph glyph-name="k" unicode="k" d="M22 0 l117 736 l151 0 l-70 -440 l2 0 l216 211 l185 0 l-281 -270 l0 55 l214 -292 l-179 0 l-167 220 l-2 0 l-35 -220 l-151 0 Z" /><glyph glyph-name="kgreenlandic" unicode="&#x138;" d="M22 0 l80 507 l151 0 l-33 -211 l2 0 l216 211 l185 0 l-281 -270 l0 55 l214 -292 l-179 0 l-167 220 l-2 0 l-35 -220 l-151 0 Z" /><glyph glyph-name="l" unicode="l" d="M22 0 l117 736 l151 0 l-117 -736 l-151 0 Z" /><glyph glyph-name="m" unicode="m" d="M22 0 l59 375 q5 32 8.5 65.5 q3.5 33.5 4.5 66.5 l146 0 l-5 -94 l-12 0 q29 52 74.5 78 q45.5 26 104.5 26 q59 0 96 -28 q37 -28 44 -85 l-19 0 q30 52 82 82.5 q52 30.5 110 30.5 q89 0 125.5 -53.5 q36.5 -53.5 19.5 -167.5 l-48 -296 l-151 0 l48 301 q8 52 -6.5 75.5 q-14.5 23.5 -52.5 23.5 q-46 0 -75 -32 q-29 -32 -38 -88 l-45 -280 l-151 0 l47 301 q9 52 -5 75.5 q-14 23.5 -52 23.5 q-47 0 -76 -32 q-29 -32 -38 -88 l-44 -280 l-151 0 Z" /><glyph glyph-name="n" unicode="n" d="M22 0 l59 375 q5 32 8.5 65.5 q3.5 33.5 4.5 66.5 l146 0 l-5 -94 l-12 -1 q30 52 79 78.5 q49 26.5 110 26.5 q91 0 129 -54 q38 -54 20 -165 l-47 -298 l-151 0 l47 298 q9 55 -9.5 78.5 q-18.5 23.5 -57.5 23.5 q-51 0 -84 -31 q-33 -31 -41 -83 l-45 -286 l-151 0 Z" /><glyph glyph-name="eng" unicode="&#x14b;" d="M22 0 l59 375 q5 32 8.5 65.5 q3.5 33.5 4.5 66.5 l146 0 l-5 -94 l-12 -1 q30 52 79 78.5 q49 26.5 110 26.5 q91 0 129 -54 q38 -54 20 -165 l-50 -318 q-17 -99 -72.5 -151 q-55.5 -52 -158.5 -52 q-23 0 -44 3 q-21 3 -40 11 l19 117 q13 -4 25.5 -7 q12.5 -3 29.5 -3 q34 0 58.5 20.5 q24.5 20.5 32.5 68.5 l49 311 q9 55 -9.5 78.5 q-18.5 23.5 -57.5 23.5 q-51 0 -84 -31 q-33 -31 -41 -83 l-45 -286 l-151 0 Z" /><glyph glyph-name="o" unicode="o" d="M274 -11 q-86 0 -143.5 34 q-57.5 34 -81 97 q-23.5 63 -10.5 150 q13 82 53.5 137 q40.5 55 102.5 82.5 q62 27.5 137 27.5 q87 0 143.5 -33.5 q56.5 -33.5 80 -96.5 q23.5 -63 9.5 -150 q-13 -81 -53.5 -136 q-40.5 -55 -101.5 -83.5 q-61 -28.5 -136 -28.5 ZM282 103 q50 0 85.5 35.5 q35.5 35.5 47.5 108.5 q13 82 -13.5 119 q-26.5 37 -79.5 37 q-50 0 -85 -35 q-35 -35 -47 -108 q-13 -82 13 -119.5 q26 -37.5 79 -37.5 Z" /><glyph glyph-name="oslash" unicode="ø" d="M274 -11 q-86 0 -143.5 34 q-57.5 34 -81 97 q-23.5 63 -10.5 150 q13 82 53.5 137 q40.5 55 102.5 82.5 q62 27.5 137 27.5 q87 0 143.5 -33.5 q56.5 -33.5 80 -96.5 q23.5 -63 9.5 -150 q-13 -81 -53.5 -136 q-40.5 -55 -101.5 -83.5 q-61 -28.5 -136 -28.5 ZM282 103 q59 0 96.5 36 q37.5 36 49.5 110 q13 77 -16 115.5 q-29 38.5 -89 38.5 q-60 0 -97.5 -35.5 q-37.5 -35.5 -48.5 -108.5 q-12 -74 14 -115 q26 -41 91 -41 ZM131 -47 l-66 45 l412 554 l64 -45 l-410 -554 Z" /><glyph glyph-name="oe" unicode="&#x153;" d="M274 -11 q-86 0 -143.5 34 q-57.5 34 -81.5 97 q-24 63 -10 150 q13 82 53.5 137 q40.5 55 102.5 82.5 q62 27.5 137 27.5 q75 0 124.5 -29 q49.5 -29 72.5 -85 l-44 0 q26 39 58 64 q32 25 70.5 37.5 q38.5 12.5 81.5 12.5 q75 0 123 -32.5 q48 -32.5 69 -89 q21 -56.5 10 -130.5 l-6 -35 l-348 0 l11 74 l241 0 l-21 -16 q10 64 -13.5 96 q-23.5 32 -69.5 32 q-35 0 -61.5 -16.5 q-26.5 -16.5 -41.5 -46 q-15 -29.5 -21 -65.5 l-6 -39 q-10 -70 21.5 -108 q31.5 -38 110.5 -38 q36 0 70 10.5 q34 10.5 68 33.5 l40 -100 q-40 -29 -92 -43.5 q-52 -14.5 -107 -14.5 q-82 0 -138 31.5 q-56 31.5 -79 87.5 l43 1 q-35 -58 -92 -89 q-57 -31 -132 -31 ZM282 103 q50 0 85.5 35.5 q35.5 35.5 47.5 108.5 q13 82 -13.5 119 q-26.5 37 -79.5 37 q-50 0 -84.5 -35 q-34.5 -35 -47.5 -108 q-13 -82 13 -119.5 q26 -37.5 79 -37.5 Z" /><glyph glyph-name="p" unicode="p" d="M-12 -216 l93 591 q5 32 8.5 65.5 q3.5 33.5 4.5 66.5 l146 0 l-5 -99 l-15 0 q24 50 70 79.5 q46 29.5 110 29.5 q70 0 118 -35 q48 -35 68.5 -97.5 q20.5 -62.5 6.5 -147.5 q-20 -123 -91 -185.5 q-71 -62.5 -169 -62.5 q-60 0 -103.5 29 q-43.5 29 -52.5 77 l11 0 l-49 -311 l-151 0 ZM308 103 q52 0 87.5 35.5 q35.5 35.5 46.5 108.5 q13 82 -13.5 119 q-26.5 37 -80.5 37 q-51 0 -87.5 -35 q-36.5 -35 -48.5 -108 q-12 -82 15 -119.5 q27 -37.5 81 -37.5 Z" /><glyph glyph-name="thorn" unicode="þ" d="M-12 -216 l151 952 l151 0 l-52 -324 l-18 -4 q24 50 70 79.5 q46 29.5 110 29.5 q70 0 118 -35 q48 -35 68.5 -97.5 q20.5 -62.5 6.5 -147.5 q-20 -123 -91 -185.5 q-71 -62.5 -169 -62.5 q-60 0 -103.5 29 q-43.5 29 -52.5 77 l11 0 l-49 -311 l-151 0 ZM308 103 q52 0 87.5 35.5 q35.5 35.5 46.5 108.5 q13 82 -13.5 119 q-26.5 37 -80.5 37 q-51 0 -87.5 -35 q-36.5 -35 -48.5 -108 q-12 -82 15 -119.5 q27 -37.5 81 -37.5 Z" /><glyph glyph-name="q" unicode="q" d="M345 -216 l49 311 l18 4 q-24 -50 -69.5 -80 q-45.5 -30 -110.5 -30 q-69 0 -117.5 35 q-48.5 35 -68.5 98.5 q-20 63.5 -7 147.5 q20 123 91 185 q71 62 169 62 q61 0 104.5 -28.5 q43.5 -28.5 52.5 -76.5 l-10 -4 l27 99 l145 0 q-8 -33 -15.5 -66.5 q-7.5 -33.5 -13.5 -65.5 l-93 -591 l-151 0 ZM285 103 q51 0 87 35.5 q36 35.5 48 108.5 q13 82 -14 119 q-27 37 -81 37 q-51 0 -87 -35 q-36 -35 -48 -108 q-13 -82 14 -119.5 q27 -37.5 81 -37.5 Z" /><glyph glyph-name="r" unicode="r" d="M21 0 l59 373 q5 33 9 67 q4 34 5 67 l146 0 l-6 -148 l-26 0 q18 54 46.5 89 q28.5 35 65.5 52 q37 17 80 17 q14 0 26.5 -1.5 q12.5 -1.5 23.5 -3.5 l-22 -133 q-18 8 -32.5 10 q-14.5 2 -36.5 2 q-37 0 -67 -15.5 q-30 -15.5 -50.5 -46 q-20.5 -30.5 -27.5 -76.5 l-41 -253 l-152 0 Z" /><glyph glyph-name="s" unicode="s" d="M219 -11 q-65 0 -119 14 q-54 14 -88 38 l42 100 q36 -21 81 -34 q45 -13 91 -13 q43 0 66.5 13.5 q23.5 13.5 27.5 37.5 q3 21 -9 33.5 q-12 12.5 -39 16.5 l-87 14 q-72 12 -102 52 q-30 40 -21 102 q9 49 40.5 83.5 q31.5 34.5 81.5 52.5 q50 18 110 18 q57 0 105.5 -12.5 q48.5 -12.5 80.5 -37.5 l-45 -97 q-27 19 -65.5 31.5 q-38.5 12.5 -75.5 12.5 q-46 0 -69.5 -15.5 q-23.5 -15.5 -27.5 -38.5 q-3 -19 7 -33 q10 -14 37 -18 l88 -14 q74 -12 104.5 -50 q30.5 -38 20.5 -100 q-8 -51 -40.5 -86 q-32.5 -35 -82.5 -52.5 q-50 -17.5 -112 -17.5 Z" /><glyph glyph-name="germandbls" unicode="ß" d="M22 0 l73 462 q23 142 100.5 212.5 q77.5 70.5 220.5 70.5 q72 0 125 -23 q53 -23 78 -67 q25 -44 14 -110 q-5 -34 -24.5 -67.5 q-19.5 -33.5 -59.5 -63.5 q-40 -30 -109 -55 l3 28 q78 -22 129.5 -52 q51.5 -30 74.5 -72.5 q23 -42.5 14 -102.5 q-9 -57 -41.5 -95 q-32.5 -38 -81 -57 q-48.5 -19 -106.5 -19 q-66 0 -111.5 13.5 q-45.5 13.5 -80.5 37.5 l41 99 q35 -20 70.5 -31.5 q35.5 -11.5 73.5 -11.5 q41 0 65 18 q24 18 29 51 q4 28 -12 53 q-16 25 -60 48 q-44 23 -127 43 l18 113 q57 16 89 34.5 q32 18.5 46.5 40.5 q14.5 22 18.5 46 q7 43 -16.5 68 q-23.5 25 -73.5 25 q-62 0 -100.5 -35 q-38.5 -35 -52.5 -118 l-76 -483 l-151 0 Z" /><glyph glyph-name="t" unicode="t" d="M261 -11 q-102 0 -144 52 q-42 52 -27 146 l33 207 l-96 0 l17 113 l96 0 l20 124 l157 37 l-26 -161 l130 0 l-18 -113 l-129 0 l-32 -199 q-7 -47 10.5 -65.5 q17.5 -18.5 50.5 -18.5 q16 0 29 2.5 q13 2.5 28 7.5 l-19 -117 q-21 -8 -41 -11.5 q-20 -3.5 -39 -3.5 Z" /><glyph glyph-name="u" unicode="u" d="M213 -11 q-94 0 -136 55 q-42 55 -26 160 l48 303 l151 0 l-48 -302 q-8 -51 9.5 -74.5 q17.5 -23.5 60.5 -23.5 q49 0 78.5 31.5 q29.5 31.5 38.5 84.5 l45 284 l151 0 l-80 -507 l-147 0 l15 97 l15 0 q-29 -51 -73 -79.5 q-44 -28.5 -102 -28.5 Z" /><glyph glyph-name="v" unicode="v" d="M169 0 l-138 507 l154 0 l86 -368 l-33 0 l208 368 l155 0 l-302 -507 l-130 0 Z" /><glyph glyph-name="w" unicode="w" d="M165 0 l-123 507 l148 0 l77 -365 l-26 0 l193 365 l101 0 l75 -365 l-21 0 l190 365 l151 0 l-283 -507 l-130 0 l-85 374 l61 0 l-198 -374 l-130 0 Z" /><glyph glyph-name="x" unicode="x" d="M-67 0 l287 295 l-2 -67 l-183 279 l170 0 l107 -177 l-54 0 l164 177 l184 0 l-271 -280 l6 69 l193 -296 l-175 0 l-118 190 l56 0 l-179 -190 l-185 0 Z" /><glyph glyph-name="y" unicode="y" d="M-18 -227 l-23 118 q49 9 83 21 q34 12 58 31.5 q24 19.5 43 50.5 l34 59 l-7 -58 l-140 512 l155 0 l86 -367 l-31 0 l205 367 l156 0 l-312 -527 q-35 -57 -69.5 -94.5 q-34.5 -37.5 -71 -59.5 q-36.5 -22 -77.5 -34 q-41 -12 -89 -19 Z" /><glyph glyph-name="uni01B4" unicode="&#x1b4;" d="M-19 -227 l-22 118 q50 9 84 21 q34 12 57.5 31.5 q23.5 19.5 42.5 50.5 l34 59 l-7 -58 l-140 512 l155 0 l86 -367 l-31 0 l138 249 q25 45 53.5 73.5 q28.5 28.5 66 41.5 q37.5 13 90.5 13 q22 0 43 -3.5 q21 -3.5 33 -8.5 l-29 -111 q-10 4 -19.5 5 q-9.5 1 -19.5 1 q-30 0 -54 -15.5 q-24 -15.5 -49 -56.5 l-204 -348 q-35 -57 -69.5 -94.5 q-34.5 -37.5 -71 -59.5 q-36.5 -22 -78 -34 q-41.5 -12 -89.5 -19 Z" /><glyph glyph-name="z" unicode="z" d="M7 0 l16 98 l348 332 l-6 -36 l-295 0 l17 113 l438 0 l-16 -99 l-352 -335 l6 39 l310 0 l-18 -112 l-448 0 Z" /><glyph glyph-name="fi" unicode="&#xfb01;" d="M60 0 l63 394 l-96 0 l17 113 l139 0 l-49 -39 l13 76 q16 98 73.5 147 q57.5 49 155.5 49 q24 0 50 -3 q26 -3 44 -12 l-19 -116 q-12 5 -30 7.5 q-18 2.5 -35 2.5 q-34 0 -59 -19 q-25 -19 -32 -65 l-9 -53 l-17 25 l368 0 l-80 -507 l-151 0 l62 394 l-194 0 l-63 -394 l-151 0 ZM493 590 l22 141 l164 0 l-23 -141 l-163 0 Z" /><glyph glyph-name="ordfeminine" unicode="ª" d="M160 406 q-32 0 -56.5 13 q-24.5 13 -36.5 36.5 q-12 23.5 -8 54.5 q5 30 25.5 47.5 q20.5 17.5 58 25 q37.5 7.5 91.5 7.5 l54 0 l-8 -49 l-58 0 q-63 0 -68 -34 q-2 -17 7.5 -27.5 q9.5 -10.5 31.5 -10.5 q28 0 49.5 19 q21.5 19 27.5 52 l9 58 q3 22 -10 34.5 q-13 12.5 -46 12.5 q-23 0 -52 -6 q-29 -6 -56 -20 l-20 66 q27 14 67 22.5 q40 8.5 75 8.5 q79 0 112 -33.5 q33 -33.5 22 -99.5 l-27 -170 l-90 0 l9 55 l-3 0 q-19 -31 -43.5 -46.5 q-24.5 -15.5 -56.5 -15.5 Z" /><glyph glyph-name="ordmasculine" unicode="º" d="M215 408 q-76 0 -116.5 43 q-40.5 43 -29.5 120 q11 67 57.5 106 q46.5 39 121.5 39 q76 0 117 -42.5 q41 -42.5 29 -119.5 q-10 -66 -57 -106 q-47 -40 -122 -40 ZM219 481 q30 0 51.5 21 q21.5 21 27.5 61 q6 40 -8.5 60.5 q-14.5 20.5 -45.5 20.5 q-30 0 -51 -20 q-21 -20 -27 -61 q-7 -41 7.5 -61.5 q14.5 -20.5 45.5 -20.5 Z" /><glyph glyph-name="uni0411" unicode="&#x411;" d="M32 0 l112 705 l520 0 l-20 -119 l-371 0 l-26 -166 l180 0 q123 0 184 -57 q61 -57 44 -170 q-15 -99 -88.5 -146 q-73.5 -47 -188.5 -47 l-346 0 ZM199 118 l174 0 q63 0 96 22 q33 22 39 68 q8 48 -16.5 71 q-24.5 23 -87.5 23 l-175 0 l-30 -184 Z" /><glyph glyph-name="uni0413" unicode="&#x413;" d="M32 0 l112 705 l493 0 l-21 -126 l-338 0 l-91 -579 l-155 0 Z" /><glyph glyph-name="uni0490" unicode="&#x490;" d="M32 0 l112 705 l359 0 l26 163 l134 0 l-46 -289 l-339 0 l-91 -579 l-155 0 Z" /><glyph glyph-name="uni0414" unicode="&#x414;" d="M-54 -170 l46 290 l73 0 q55 57 94 156 q39 99 62 243 l30 186 l529 0 l-93 -585 l103 0 l-46 -290 l-135 0 l27 170 l-528 0 l-27 -170 l-135 0 ZM224 120 l308 0 l73 466 l-232 0 l-12 -82 q-21 -135 -55.5 -229 q-34.5 -94 -81.5 -155 Z" /><glyph glyph-name="uni0416" unicode="&#x416;" d="M-43 0 l167 254 q44 68 98 105 q54 37 127 49 l-64 -42 l-173 339 l163 0 l149 -309 l-20 17 l80 0 l47 292 l149 0 l-47 -292 l80 0 l-32 -17 l247 309 l176 0 l-281 -339 l-57 42 q66 -12 106 -49 q40 -37 64 -105 l86 -254 l-160 0 l-64 200 q-15 47 -45 67 q-30 20 -80 20 l-60 0 l-45 -287 l-149 0 l45 287 l-60 0 q-49 0 -82.5 -20 q-33.5 -20 -63.5 -67 l-128 -200 l-173 0 Z" /><glyph glyph-name="uni0417" unicode="&#x417;" d="M281 -11 q-89 0 -156 21.5 q-67 21.5 -112 60.5 l50 112 q39 -31 92 -48.5 q53 -17.5 124 -17.5 q75 0 116.5 23.5 q41.5 23.5 48.5 69.5 q7 45 -18.5 66.5 q-25.5 21.5 -83.5 21.5 l-183 0 l19 120 l166 0 q58 0 89 20 q31 20 37 59 q7 43 -22.5 67 q-29.5 24 -101.5 24 q-57 0 -113.5 -16.5 q-56.5 -16.5 -104.5 -48.5 l-44 113 q55 38 129.5 59 q74.5 21 157.5 21 q96 0 155 -26.5 q59 -26.5 83 -72 q24 -45.5 15 -103.5 q-9 -57 -50 -99.5 q-41 -42.5 -115 -59.5 l2 16 q68 -12 105.5 -59 q37.5 -47 24.5 -124 q-9 -58 -46.5 -103 q-37.5 -45 -103.5 -70.5 q-66 -25.5 -160 -25.5 Z" /><glyph glyph-name="uni0418" unicode="&#x418;" d="M32 0 l112 705 l144 0 l-78 -490 l-25 -3 l460 493 l116 0 l-112 -705 l-145 0 l77 490 l25 3 l-460 -493 l-114 0 Z" /><glyph glyph-name="uni048A" unicode="&#x48a;" d="M502 -169 l84 169 l-82 0 l19 122 l255 0 l-146 -291 l-130 0 ZM32 0 l112 705 l144 0 l-78 -490 l-25 -3 l460 493 l116 0 l-112 -705 l-145 0 l77 490 l25 3 l-460 -493 l-114 0 ZM459 760 q-58 0 -98 18.5 q-40 18.5 -64 51.5 q-24 33 -33 75 l77 24 q14 -47 43.5 -68 q29.5 -21 79.5 -21 q51 0 84 22.5 q33 22.5 54 65.5 l70 -23 q-16 -45 -46.5 -77.5 q-30.5 -32.5 -72.5 -50 q-42 -17.5 -94 -17.5 Z" /><glyph glyph-name="uni041A" unicode="&#x41a;" d="M32 0 l112 705 l154 0 l-47 -292 l106 0 l-32 -17 l247 309 l177 0 l-282 -339 l-58 42 q69 -12 108.5 -49 q39.5 -37 62.5 -105 l86 -254 l-160 0 l-63 200 q-15 48 -45.5 67.5 q-30.5 19.5 -80.5 19.5 l-85 0 l-46 -287 l-154 0 Z" /><glyph glyph-name="uni041B" unicode="&#x41b;" d="M54 -18 l-74 112 q48 23 85.5 52.5 q37.5 29.5 65 71.5 q27.5 42 47.5 103 q20 61 34 147 l37 237 l530 0 l-112 -705 l-155 0 l92 579 l-233 0 l-22 -143 q-15 -98 -42 -172 q-27 -74 -64.5 -127 q-37.5 -53 -85 -91 q-47.5 -38 -103.5 -64 Z" /><glyph glyph-name="uni041F" unicode="&#x41f;" d="M32 0 l112 705 l633 0 l-112 -705 l-155 0 l91 579 l-323 0 l-92 -579 l-154 0 Z" /><glyph glyph-name="uni0423" unicode="&#x423;" d="M130 0 l163 239 l0 -45 l-242 511 l160 0 l174 -377 l-29 0 l257 377 l166 0 l-482 -705 l-167 0 Z" /><glyph glyph-name="uni0424" unicode="&#x424;" d="M342 -27 l18 108 l33 -27 l-22 0 q-108 0 -181 38 q-73 38 -104.5 110 q-31.5 72 -15.5 173 q23 142 123.5 214.5 q100.5 72.5 257.5 72.5 l38 0 l-42 -27 l16 102 l155 0 l-16 -102 l-33 27 l22 0 q109 0 182 -38 q73 -38 104.5 -109.5 q31.5 -71.5 14.5 -173.5 q-15 -94 -65.5 -158 q-50.5 -64 -130.5 -96.5 q-80 -32.5 -185 -32.5 l-39 0 l43 27 l-18 -108 l-155 0 ZM371 145 l67 426 l27 -25 l-37 0 q-78 0 -132.5 -42 q-54.5 -42 -70.5 -137 q-10 -68 6 -112 q16 -44 52 -64.5 q36 -20.5 85 -20.5 l38 0 l-35 -25 ZM524 145 l-28 25 l38 0 q51 0 93.5 19 q42.5 19 71 58.5 q28.5 39.5 38.5 101.5 q11 69 -5 112.5 q-16 43.5 -52 64 q-36 20.5 -86 20.5 l-39 0 l36 25 l-67 -426 Z" /><glyph glyph-name="uni0427" unicode="&#x427;" d="M458 0 l41 263 q-28 -11 -69.5 -18 q-41.5 -7 -82.5 -7 q-90 0 -152.5 32.5 q-62.5 32.5 -89 99 q-26.5 66.5 -11.5 166.5 l28 169 l155 0 l-27 -163 q-15 -94 20 -134 q35 -40 121 -40 q33 0 65 6 q32 6 64 19 l50 312 l155 0 l-112 -705 l-155 0 Z" /><glyph glyph-name="uni0426" unicode="&#x426;" d="M606 -170 l26 170 l-600 0 l112 705 l154 0 l-92 -578 l324 0 l92 578 l155 0 l-93 -578 l104 0 l-47 -297 l-135 0 Z" /><glyph glyph-name="uni0428" unicode="&#x428;" d="M32 0 l112 705 l152 0 l-92 -578 l254 0 l92 578 l152 0 l-92 -578 l253 0 l92 578 l152 0 l-112 -705 l-963 0 Z" /><glyph glyph-name="uni0429" unicode="&#x429;" d="M937 -170 l27 170 l-932 0 l112 705 l152 0 l-92 -578 l254 0 l92 578 l152 0 l-92 -578 l253 0 l92 578 l152 0 l-92 -578 l104 0 l-47 -297 l-135 0 Z" /><glyph glyph-name="uni040F" unicode="&#x40f;" d="M253 -170 l28 170 l-249 0 l112 705 l155 0 l-93 -578 l324 0 l92 578 l155 0 l-112 -705 l-249 0 l-27 -170 l-136 0 Z" /><glyph glyph-name="uni042C" unicode="&#x42c;" d="M32 0 l112 705 l155 0 l-46 -285 l174 0 q123 0 184.5 -57 q61.5 -57 43.5 -170 q-15 -99 -88.5 -146 q-73.5 -47 -188.5 -47 l-346 0 ZM205 118 l168 0 q63 0 96 22 q33 22 39 68 q8 48 -16.5 71 q-24.5 23 -87.5 23 l-170 0 l-29 -184 Z" /><glyph glyph-name="uni042A" unicode="&#x42a;" d="M180 0 l91 579 l-208 0 l20 126 l364 0 l-46 -285 l174 0 q123 0 184.5 -57 q61.5 -57 43.5 -170 q-15 -99 -88.5 -146 q-73.5 -47 -188.5 -47 l-346 0 ZM353 118 l168 0 q64 0 96.5 22 q32.5 22 39.5 68 q7 48 -17.5 71 q-24.5 23 -87.5 23 l-169 0 l-30 -184 Z" /><glyph glyph-name="uni042B" unicode="&#x42b;" d="M32 0 l112 705 l155 0 l-46 -285 l144 0 q123 0 184.5 -57 q61.5 -57 43.5 -170 q-15 -99 -88.5 -146 q-73.5 -47 -188.5 -47 l-316 0 ZM205 118 l138 0 q63 0 96 22 q33 22 39 68 q8 48 -16.5 71 q-24.5 23 -87.5 23 l-140 0 l-29 -184 ZM680 0 l112 705 l155 0 l-112 -705 l-155 0 Z" /><glyph glyph-name="uni0409" unicode="&#x409;" d="M54 -18 l-74 112 q48 23 85.5 52.5 q37.5 29.5 65 71.5 q27.5 42 47.5 103 q20 61 34 147 l37 237 l522 0 l-45 -285 l173 0 q123 0 184.5 -57 q61.5 -57 43.5 -170 q-15 -99 -88.5 -146 q-73.5 -47 -187.5 -47 l-347 0 l92 579 l-225 0 l-22 -143 q-15 -98 -42 -172 q-27 -74 -64.5 -127 q-37.5 -53 -85 -91 q-47.5 -38 -103.5 -64 ZM677 118 l169 0 q63 0 95.5 22 q32.5 22 39.5 68 q8 48 -17 71 q-25 23 -88 23 l-169 0 l-30 -184 Z" /><glyph glyph-name="uni040A" unicode="&#x40a;" d="M32 0 l112 705 l154 0 l-45 -284 l324 0 l44 284 l155 0 l-45 -285 l173 0 q124 0 185 -57 q61 -57 44 -170 q-16 -99 -89 -146 q-73 -47 -187 -47 l-348 0 l48 294 l-324 0 l-47 -294 l-154 0 ZM683 118 l169 0 q63 0 95.5 22 q32.5 22 39.5 68 q7 48 -17.5 71 q-24.5 23 -87.5 23 l-169 0 l-30 -184 Z" /><glyph glyph-name="uni0404" unicode="&#x404;" d="M409 -11 q-100 0 -170 29.5 q-70 29.5 -112 81.5 q-42 52 -56.5 121 q-14.5 69 -1.5 149 q18 110 72.5 187.5 q54.5 77.5 143 118.5 q88.5 41 204.5 40 q69 -1 125 -18.5 q56 -17.5 94 -50.5 l-53 -123 q-42 31 -81.5 44 q-39.5 13 -98.5 13 q-96 0 -157.5 -53 q-61.5 -53 -82.5 -149 l-35 40 l354 0 l-19 -120 l-356 0 l50 37 q-9 -97 34.5 -154 q43.5 -57 151.5 -57 q54 0 101.5 15.5 q47.5 15.5 93.5 51.5 l44 -123 q-50 -38 -114 -59 q-64 -21 -131 -21 Z" /><glyph glyph-name="uni042D" unicode="&#x42d;" d="M243 -11 q-69 1 -125.5 19 q-56.5 18 -94.5 50 l53 123 q43 -30 82.5 -43 q39.5 -13 97.5 -13 q97 0 158.5 52.5 q61.5 52.5 82.5 148.5 l39 -27 l-356 0 l19 120 l354 0 l-50 -50 q9 97 -35 154.5 q-44 57.5 -150 57.5 q-54 0 -102 -16 q-48 -16 -94 -52 l-44 123 q56 41 124.5 60.5 q68.5 19.5 135.5 19.5 q93 0 160.5 -29.5 q67.5 -29.5 108 -81 q40.5 -51.5 55 -121 q14.5 -69.5 1.5 -149.5 q-17 -109 -72.5 -187 q-55.5 -78 -143.5 -119 q-88 -41 -204 -40 Z" /><glyph glyph-name="uni040B" unicode="&#x40b;" d="M195 0 l92 578 l-224 0 l20 127 l604 0 l-20 -127 l-224 0 l-25 -157 q29 12 70 18.5 q41 6.5 80 6.5 q145 0 210.5 -76.5 q65.5 -76.5 42.5 -221.5 l-23 -148 l-155 0 l22 142 q16 92 -20.5 133 q-36.5 41 -116.5 41 q-32 0 -65 -5.5 q-33 -5.5 -65 -20.5 l-47 -290 l-156 0 Z" /><glyph glyph-name="uni042E" unicode="&#x42e;" d="M668 -11 q-99 0 -168 38.5 q-69 38.5 -104 107 q-35 68.5 -35 159.5 l-128 0 l-46 -294 l-155 0 l112 705 l155 0 l-46 -285 l124 0 q36 143 135 219.5 q99 76.5 239 76.5 q116 0 189.5 -49 q73.5 -49 103 -134.5 q29.5 -85.5 11.5 -195.5 q-17 -110 -70 -188 q-53 -78 -134 -119 q-81 -41 -183 -41 ZM680 121 q88 0 142 61 q54 61 71 164 q12 76 -2.5 129 q-14.5 53 -53 81 q-38.5 28 -99.5 28 q-90 0 -142 -60 q-52 -60 -68 -164 q-12 -75 1 -128.5 q13 -53.5 51.5 -82 q38.5 -28.5 99.5 -28.5 Z" /><glyph glyph-name="uni042F" unicode="&#x42f;" d="M-18 0 l151 209 q31 42 68.5 64 q37.5 22 80.5 22 l39 0 l-8 -17 q-75 0 -126 27 q-51 27 -73.5 77.5 q-22.5 50.5 -12.5 119.5 q17 102 89 152.5 q72 50.5 192 50.5 l334 0 l-112 -705 l-155 0 l44 273 l-75 0 q-22 0 -39.5 -4.5 q-17.5 -4.5 -31 -15.5 q-13.5 -11 -27.5 -30 l-161 -223 l-177 0 ZM356 384 l155 0 l31 202 l-149 0 q-70 0 -104 -24.5 q-34 -24.5 -41 -71.5 q-8 -52 20 -79 q28 -27 88 -27 Z" /><glyph glyph-name="uni0402" unicode="&#x402;" d="M540 -191 q-37 0 -69.5 5.5 q-32.5 5.5 -56.5 15.5 l34 113 q18 -7 39 -10 q21 -3 44 -3 q52 0 86 33 q34 33 44 95 l14 84 q15 92 -24.5 133 q-39.5 41 -123.5 41 q-34 0 -67 -6.5 q-33 -6.5 -62 -19.5 l-47 -290 l-156 0 l92 578 l-224 0 l20 127 l604 0 l-21 -127 l-223 0 l-25 -157 q27 11 67 18 q40 7 80 7 q150 0 220 -74 q70 -74 45 -224 l-13 -83 q-14 -92 -52 -148.5 q-38 -56.5 -96 -82 q-58 -25.5 -129 -25.5 Z" /><glyph glyph-name="uni0462" unicode="&#x462;" d="M117 0 l82 515 l-177 0 l17 110 l178 0 l12 80 l149 0 l-13 -80 l243 0 l-18 -110 l-243 0 l-15 -95 l174 0 q124 0 185 -57 q61 -57 43 -170 q-15 -99 -88.5 -146 q-73.5 -47 -187.5 -47 l-341 0 ZM285 118 l168 0 q63 0 95.5 22 q32.5 22 39.5 68 q7 48 -17.5 71 q-24.5 23 -87.5 23 l-169 0 l-29 -184 Z" /><glyph glyph-name="uni046A" unicode="&#x46a;" d="M-43 0 l170 259 q49 75 119 114 q70 39 160 39 l43 0 l-14 -34 l-235 327 l807 0 l-341 -327 l-2 34 l39 0 q62 0 106.5 -17.5 q44.5 -17.5 74 -52 q29.5 -34.5 46.5 -83.5 l88 -259 l-160 0 l-65 200 q-10 32 -25 51 q-15 19 -38.5 27.5 q-23.5 8.5 -59.5 8.5 l-56 0 l-45 -287 l-155 0 l46 287 l-57 0 q-54 0 -85.5 -21 q-31.5 -21 -59.5 -66 l-128 -200 l-173 0 ZM554 409 l2 0 l237 228 l-6 -36 l-403 0 l5 36 l165 -228 Z" /><glyph glyph-name="uni0474" unicode="&#x474;" d="M257 0 l-198 705 l162 0 l144 -564 l-48 0 l222 368 q36 59 69.5 99 q33.5 40 71 63.5 q37.5 23.5 85 33.5 q47.5 10 111.5 10 l-7 -125 q-51 0 -84 -13 q-33 -13 -60.5 -44.5 q-27.5 -31.5 -62.5 -87.5 l-277 -445 l-128 0 Z" /><glyph glyph-name="uni0492" unicode="&#x492;" d="M79 0 l46 290 l-96 0 l17 109 l96 0 l49 306 l493 0 l-20 -126 l-339 0 l-28 -180 l183 0 l-18 -109 l-182 0 l-46 -290 l-155 0 Z" /><glyph glyph-name="uni0494" unicode="&#x494;" d="M379 -191 q-31 0 -59 3.5 q-28 3.5 -48 10.5 l12 119 q18 -6 39.5 -9.5 q21.5 -3.5 43.5 -3.5 q52 0 86.5 34 q34.5 34 44.5 96 l13 83 q15 92 -24.5 133 q-39.5 41 -123.5 41 q-34 0 -68 -6.5 q-34 -6.5 -63 -19.5 l-46 -290 l-154 0 l112 705 l500 0 l-21 -126 l-345 0 l-26 -158 q27 11 68 18 q41 7 81 7 q151 0 220.5 -74.5 q69.5 -74.5 45.5 -223.5 l-13 -83 q-14 -90 -53 -146.5 q-39 -56.5 -96 -83 q-57 -26.5 -126 -26.5 Z" /><glyph glyph-name="uni0496" unicode="&#x496;" d="M913 -169 l27 169 l-58 0 l19 122 l193 0 l-46 -291 l-135 0 ZM-43 0 l167 254 q44 68 98 105 q54 37 127 49 l-64 -42 l-173 339 l163 0 l149 -309 l-20 17 l80 0 l47 292 l149 0 l-47 -292 l80 0 l-32 -17 l247 309 l176 0 l-281 -339 l-57 42 q66 -12 106 -49 q40 -37 64 -105 l86 -254 l-160 0 l-64 200 q-15 47 -45 67 q-30 20 -80 20 l-60 0 l-45 -287 l-149 0 l45 287 l-60 0 q-49 0 -82.5 -20 q-33.5 -20 -63.5 -67 l-128 -200 l-173 0 Z" /><glyph glyph-name="uni0498" unicode="&#x498;" d="M189 -169 l38 244 l129 0 l-39 -244 l-128 0 ZM281 -11 q-89 0 -156 21.5 q-67 21.5 -112 60.5 l50 112 q39 -31 92 -48.5 q53 -17.5 124 -17.5 q75 0 116.5 23.5 q41.5 23.5 48.5 69.5 q7 45 -18.5 66.5 q-25.5 21.5 -83.5 21.5 l-183 0 l19 120 l166 0 q58 0 89 20 q31 20 37 59 q7 43 -22.5 67 q-29.5 24 -101.5 24 q-57 0 -113.5 -16.5 q-56.5 -16.5 -104.5 -48.5 l-44 113 q55 38 129.5 59 q74.5 21 157.5 21 q96 0 155 -26.5 q59 -26.5 83 -72 q24 -45.5 15 -103.5 q-9 -57 -50 -99.5 q-41 -42.5 -115 -59.5 l2 16 q68 -12 105.5 -59 q37.5 -47 24.5 -124 q-9 -58 -46.5 -103 q-37.5 -45 -103.5 -70.5 q-66 -25.5 -160 -25.5 Z" /><glyph glyph-name="uni049A" unicode="&#x49a;" d="M555 -169 l27 169 l-57 0 l19 122 l192 0 l-45 -291 l-136 0 ZM32 0 l112 705 l154 0 l-47 -292 l106 0 l-32 -17 l247 309 l177 0 l-282 -339 l-58 42 q69 -12 108.5 -49 q39.5 -37 62.5 -105 l86 -254 l-160 0 l-63 200 q-15 48 -45.5 67.5 q-30.5 19.5 -80.5 19.5 l-85 0 l-46 -287 l-154 0 Z" /><glyph glyph-name="uni049C" unicode="&#x49c;" d="M32 0 l112 705 l155 0 l-47 -292 l56 0 l26 162 l86 0 l-26 -162 l8 0 l235 292 l176 0 l-281 -339 l-58 42 q69 -12 108.5 -49 q39.5 -37 62.5 -105 l87 -254 l-161 0 l-63 200 q-15 48 -45 68.5 q-30 20.5 -81 20.5 l-24 0 l19 12 l-27 -170 l-86 0 l25 158 l-56 0 l-46 -289 l-155 0 Z" /><glyph glyph-name="uni049E" unicode="&#x49e;" d="M94 0 l83 522 l-146 0 l17 102 l146 0 l12 81 l155 0 l-13 -81 l122 0 l-16 -102 l-123 0 l-17 -109 l131 0 l-44 -32 l265 324 l176 0 l-299 -354 l-37 46 q44 -10 78.5 -42.5 q34.5 -32.5 57.5 -100.5 l87 -254 l-162 0 l-63 200 q-14 48 -44.5 67.5 q-30.5 19.5 -80.5 19.5 l-85 0 l-45 -287 l-155 0 Z" /><glyph glyph-name="uni04A0" unicode="&#x4a0;" d="M63 579 l20 126 l362 0 l-20 -126 l-362 0 ZM180 0 l112 705 l154 0 l-47 -292 l106 0 l-32 -17 l247 309 l177 0 l-282 -339 l-58 42 q69 -12 108.5 -49 q39.5 -37 61.5 -105 l87 -254 l-160 0 l-64 200 q-14 48 -44.5 67.5 q-30.5 19.5 -80.5 19.5 l-85 0 l-46 -287 l-154 0 Z" /><glyph glyph-name="uni04A2" unicode="&#x4a2;" d="M623 -169 l27 169 l-114 0 l19 122 l248 0 l-46 -291 l-134 0 ZM32 0 l112 705 l156 0 l-45 -283 l323 0 l45 283 l157 0 l-112 -705 l-157 0 l47 293 l-324 0 l-46 -293 l-156 0 Z" /><glyph glyph-name="uni04A4" unicode="&#x4a4;" d="M32 0 l112 705 l154 0 l-45 -284 l324 0 l45 284 l396 0 l-21 -126 l-241 0 l-91 -579 l-155 0 l47 294 l-324 0 l-47 -294 l-154 0 Z" /><glyph glyph-name="uni0524" unicode="&#x524;" d="M606 -169 l26 169 l-114 0 l19 122 l249 0 l-46 -291 l-134 0 ZM32 0 l112 705 l633 0 l-112 -705 l-155 0 l91 579 l-323 0 l-92 -579 l-154 0 Z" /><glyph glyph-name="uni04A8" unicode="&#x4a8;" d="M380 -11 q-118 0 -193.5 48 q-75.5 48 -105.5 133.5 q-30 85.5 -12 200.5 q18 115 72.5 191.5 q54.5 76.5 138 115 q83.5 38.5 185.5 38.5 q24 0 41 -1.5 q17 -1.5 30 -4.5 l-21 -121 q-14 2 -26.5 3.5 q-12.5 1.5 -24.5 1.5 q-96 0 -157 -61.5 q-61 -61.5 -80 -173.5 q-19 -118 24 -187 q43 -69 149 -69 q78 0 132.5 23 q54.5 23 87.5 70 q33 47 44 120 q9 55 -8 86 q-17 31 -56 31 q-37 0 -63 -31 q-26 -31 -35 -86 q-11 -71 6 -118.5 q17 -47.5 64 -71 q47 -23.5 125 -23.5 q38 0 75 8.5 q37 8.5 76 24.5 l25 -106 q-36 -20 -83.5 -30.5 q-47.5 -10.5 -103.5 -10.5 q-77 0 -141 26 q-64 26 -108 72 q-44 46 -63.5 109 q-19.5 63 -7.5 136 q11 67 44.5 115.5 q33.5 48.5 84.5 74.5 q51 26 113 26 q71 0 118.5 -28.5 q47.5 -28.5 68 -81 q20.5 -52.5 8.5 -123.5 q-11 -69 -49.5 -128 q-38.5 -59 -96.5 -103 q-58 -44 -129 -69.5 q-71 -25.5 -148 -25.5 Z" /><glyph glyph-name="uni04AA" unicode="&#x4aa;" d="M280 -169 l38 244 l130 0 l-39 -244 l-129 0 ZM389 -11 q-123 0 -200 49.5 q-77 49.5 -107 135.5 q-30 86 -13 196 q18 110 71.5 187.5 q53.5 77.5 139 118.5 q85.5 41 195.5 40 q69 -1 124.5 -19.5 q55.5 -18.5 92.5 -50.5 l-53 -124 q-41 31 -79.5 44 q-38.5 13 -91.5 13 q-95 0 -157 -56 q-62 -56 -80 -161 q-11 -72 5 -125 q16 -53 59.5 -82 q43.5 -29 113.5 -29 q47 0 93.5 15 q46.5 15 93.5 51 l42 -123 q-50 -38 -114.5 -59 q-64.5 -21 -134.5 -21 Z" /><glyph glyph-name="uni04AC" unicode="&#x4ac;" d="M291 -170 l28 170 l-124 0 l92 578 l-224 0 l20 127 l604 0 l-20 -127 l-224 0 l-72 -455 l101 0 l-46 -293 l-135 0 Z" /><glyph glyph-name="uni04B2" unicode="&#x4b2;" d="M541 -169 l26 169 l-57 0 l19 122 l193 0 l-46 -291 l-135 0 ZM-61 0 l357 392 l-5 -69 l-226 382 l176 0 l150 -269 l-50 0 l236 269 l190 0 l-349 -382 l4 69 l234 -392 l-177 0 l-157 279 l52 0 l-246 -279 l-189 0 Z" /><glyph glyph-name="uni04B4" unicode="&#x4b4;" d="M754 -170 l28 170 l-602 0 l91 579 l-208 0 l20 126 l546 0 l-21 -126 l-182 0 l-72 -452 l324 0 l92 578 l155 0 l-92 -578 l104 0 l-47 -297 l-136 0 Z" /><glyph glyph-name="uni04B6" unicode="&#x4b6;" d="M552 -169 l27 169 l-114 0 l19 122 l248 0 l-45 -291 l-135 0 ZM458 0 l41 263 q-28 -11 -69.5 -18 q-41.5 -7 -82.5 -7 q-90 0 -152.5 32.5 q-62.5 32.5 -89 99 q-26.5 66.5 -11.5 166.5 l28 169 l155 0 l-27 -163 q-15 -94 20 -134 q35 -40 121 -40 q33 0 65 6 q32 6 64 19 l50 312 l155 0 l-112 -705 l-155 0 Z" /><glyph glyph-name="uni04B8" unicode="&#x4b8;" d="M458 0 l42 263 q-27 -11 -61 -17.5 q-34 -6.5 -64 -6.5 l26 19 l-24 -155 l-88 0 l24 155 l13 -20 q-80 4 -138 36.5 q-58 32.5 -83.5 97 q-25.5 64.5 -10.5 164.5 l28 169 l155 0 l-27 -163 q-13 -81 13.5 -124 q26.5 -43 94.5 -49 l-28 -11 l27 170 l87 0 l-27 -170 l-28 10 q31 0 67.5 6.5 q36.5 6.5 64.5 18.5 l49 312 l155 0 l-112 -705 l-155 0 Z" /><glyph glyph-name="uni04BA" unicode="&#x4ba;" d="M32 0 l112 705 l155 0 l-42 -262 q28 12 70 18.5 q42 6.5 82 6.5 q93 0 155 -33 q62 -33 88 -99 q26 -66 10 -167 l-27 -169 l-155 0 l26 163 q14 93 -20 134 q-34 41 -116 41 q-32 0 -67 -5.5 q-35 -5.5 -67 -19.5 l-49 -313 l-155 0 Z" /><glyph glyph-name="uni0526" unicode="&#x526;" d="M575 -169 l27 169 l-114 0 l19 122 l248 0 l-46 -291 l-134 0 ZM32 0 l112 705 l155 0 l-42 -262 q28 12 70 18.5 q42 6.5 82 6.5 q93 0 155 -33 q62 -33 88 -99 q26 -66 10 -167 l-27 -169 l-155 0 l26 163 q14 93 -20 134 q-34 41 -116 41 q-32 0 -67 -5.5 q-35 -5.5 -67 -19.5 l-49 -313 l-155 0 Z" /><glyph glyph-name="uni04BC" unicode="&#x4bc;" d="M590 -11 q-91 0 -156.5 28 q-65.5 28 -106 75.5 q-40.5 47.5 -58 108.5 q-17.5 61 -12.5 127 l23 -35 l-57 0 q-107 0 -149 51 q-42 51 -27 147 l9 52 l151 0 l-9 -51 q-6 -43 7 -62 q13 -19 55 -19 l31 0 l-28 -36 q18 107 70.5 183 q52.5 76 132.5 117 q80 41 178 41 q115 0 185 -47.5 q70 -47.5 95.5 -132.5 q25.5 -85 5.5 -200 l-6 -44 l-551 0 l43 57 q-10 -65 6 -116.5 q16 -51.5 60.5 -81.5 q44.5 -30 122.5 -30 q60 0 112 16.5 q52 16.5 98 50.5 l43 -118 q-37 -25 -76.5 -43 q-39.5 -18 -86 -28 q-46.5 -10 -105.5 -10 ZM636 590 q-83 0 -140.5 -54.5 q-57.5 -54.5 -76.5 -167.5 l-27 43 l434 0 l-46 -59 q19 120 -13.5 179 q-32.5 59 -130.5 59 Z" /><glyph glyph-name="uni04C3" unicode="&#x4c3;" d="M379 -191 q-31 0 -59 3.5 q-28 3.5 -48 9.5 l12 121 q18 -7 39.5 -10.5 q21.5 -3.5 43.5 -3.5 q53 0 88 33.5 q35 33.5 44 95.5 l8 59 q13 93 -26.5 135.5 q-39.5 42.5 -126.5 42.5 l-121 0 l-47 -295 l-154 0 l112 705 l154 0 l-45 -284 l123 0 l-42 -25 l248 309 l176 0 l-282 -339 l-19 49 q116 -13 172 -84.5 q56 -71.5 34 -207.5 l-9 -58 q-14 -90 -53 -146.5 q-39 -56.5 -96 -83 q-57 -26.5 -126 -26.5 Z" /><glyph glyph-name="uni04C5" unicode="&#x4c5;" d="M517 -169 l85 169 l-82 0 l19 122 l255 0 l-146 -291 l-131 0 ZM54 -18 l-74 112 q48 23 85.5 52.5 q37.5 29.5 65 71.5 q27.5 42 47.5 103 q20 61 34 147 l37 237 l530 0 l-112 -705 l-155 0 l92 579 l-233 0 l-22 -143 q-15 -98 -42 -172 q-27 -74 -64.5 -127 q-37.5 -53 -85 -91 q-47.5 -38 -103.5 -64 Z" /><glyph glyph-name="uni04C7" unicode="&#x4c7;" d="M424 -187 q-17 0 -42 2 q-25 2 -50 7 l19 122 q19 -4 37 -6 q18 -2 30 -2 q45 0 68.5 25.5 q23.5 25.5 31.5 83.5 l40 248 l-324 0 l-46 -293 l-156 0 l112 705 l156 0 l-45 -284 l323 0 l45 284 l157 0 l-106 -659 q-11 -80 -41 -131.5 q-30 -51.5 -81 -76.5 q-51 -25 -128 -25 Z" /><glyph glyph-name="uni04C9" unicode="&#x4c9;" d="M533 -169 l85 169 l-82 0 l19 122 l255 0 l-146 -291 l-131 0 ZM32 0 l112 705 l156 0 l-45 -283 l323 0 l45 283 l157 0 l-112 -705 l-157 0 l47 293 l-324 0 l-46 -293 l-156 0 Z" /><glyph glyph-name="uni04CB" unicode="&#x4cb;" d="M471 -169 l-137 0 l46 291 l195 0 l-19 -122 l-59 0 l-26 -169 ZM458 0 l41 263 q-28 -11 -69.5 -18 q-41.5 -7 -82.5 -7 q-90 0 -152.5 32.5 q-62.5 32.5 -89 99 q-26.5 66.5 -11.5 166.5 l28 169 l155 0 l-27 -163 q-15 -94 20 -134 q35 -40 121 -40 q33 0 65 6 q32 6 64 19 l50 312 l155 0 l-112 -705 l-155 0 Z" /><glyph glyph-name="uni04CD" unicode="&#x4cd;" d="M645 -169 l85 169 l-83 0 l19 122 l255 0 l-145 -291 l-131 0 ZM33 0 l112 705 l137 0 l157 -550 l-32 0 l333 550 l136 0 l-112 -705 l-142 0 l76 479 l40 0 l-295 -479 l-89 0 l-145 479 l42 0 l-76 -479 l-142 0 Z" /><glyph glyph-name="uni04E0" unicode="&#x4e0;" d="M281 -11 q-89 0 -156 21.5 q-67 21.5 -113 60.5 l51 113 q37 -32 90.5 -49.5 q53.5 -17.5 121.5 -17.5 q80 0 121 24 q41 24 48 69 q7 45 -18.5 66.5 q-25.5 21.5 -83.5 21.5 l-150 0 l14 93 l266 223 l-6 -35 l-372 0 l20 126 l526 0 l-17 -107 l-266 -224 l-30 38 l61 0 q113 0 167 -56 q54 -56 37 -161 q-10 -61 -48.5 -107.5 q-38.5 -46.5 -104 -72.5 q-65.5 -26 -158.5 -26 Z" /><glyph glyph-name="uni04E8" unicode="&#x4e8;" d="M145 302 l17 113 l537 0 l-18 -113 l-536 0 ZM69 370 q18 110 69.5 187.5 q51.5 77.5 132.5 118 q81 40.5 184 40.5 q115 0 188.5 -49.5 q73.5 -49.5 103 -135 q29.5 -85.5 11.5 -195.5 q-17 -110 -69.5 -187.5 q-52.5 -77.5 -133 -118.5 q-80.5 -41 -183.5 -41 q-115 0 -188.5 49.5 q-73.5 49.5 -102.5 135.5 q-29 86 -12 196 ZM231 360 q-12 -76 2 -129 q14 -53 52.5 -81.5 q38.5 -28.5 98.5 -28.5 q89 0 142.5 61 q53.5 61 69.5 164 q12 76 -2.5 129 q-14.5 53 -53 81 q-38.5 28 -99.5 28 q-89 0 -141 -60 q-52 -60 -69 -164 Z" /><glyph glyph-name="uni04F6" unicode="&#x4f6;" d="M130 -169 l27 169 l-114 0 l19 122 l248 0 l-45 -291 l-135 0 ZM32 0 l112 705 l493 0 l-21 -126 l-338 0 l-91 -579 l-155 0 Z" /><glyph glyph-name="uni04FA" unicode="&#x4fa;" d="M20 -186 l6 100 l59 5 q52 5 78.5 25.5 q26.5 20.5 32.5 55.5 l-117 0 l46 290 l-96 0 l17 109 l96 0 l49 306 l493 0 l-20 -126 l-339 0 l-28 -180 l183 0 l-18 -109 l-182 0 l-27 -168 l102 0 l-14 -93 q-16 -101 -75 -152 q-59 -51 -171 -59 l-75 -4 Z" /><glyph glyph-name="uni04FC" unicode="&#x4fc;" d="M360 -188 l-4 121 q47 5 71.5 21 q24.5 16 28.5 43 q4 25 -6 49.5 q-10 24.5 -28 55.5 l-100 177 l52 0 l-246 -279 l-189 0 l357 392 l-5 -69 l-226 382 l176 0 l150 -269 l-50 0 l236 269 l190 0 l-349 -382 l4 69 l141 -235 q31 -53 44 -95.5 q13 -42.5 5 -85.5 q-11 -70 -72 -111.5 q-61 -41.5 -180 -52.5 Z" /><glyph glyph-name="uni0510" unicode="&#x510;" d="M305 -11 q-106 0 -170 29 q-64 29 -89 79.5 q-25 50.5 -15 112.5 q11 65 59 109 q48 44 124 56 l-2 -16 q-62 15 -91.5 61.5 q-29.5 46.5 -19.5 113.5 q14 82 89.5 132 q75.5 50 198.5 50 q83 0 147.5 -21 q64.5 -21 106.5 -55 l-50 -113 q-37 29 -89 45 q-52 16 -111 16 q-68 0 -104 -24 q-36 -24 -42 -63 q-6 -42 18.5 -62.5 q24.5 -20.5 75.5 -20.5 l172 0 l-19 -120 l-183 0 q-56 0 -89 -20.5 q-33 -20.5 -39 -59.5 q-8 -49 25.5 -75 q33.5 -26 113.5 -26 q64 0 126 17.5 q62 17.5 109 48.5 l44 -113 q-57 -37 -131 -59 q-74 -22 -165 -22 Z" /><glyph glyph-name="uni0512" unicode="&#x512;" d="M423 -187 q-17 0 -42 2 q-25 2 -50 7 l19 122 q19 -4 37 -6 q18 -2 30 -2 q45 0 69 25.5 q24 25.5 33 83.5 l84 534 l-232 0 l-22 -143 q-15 -98 -42 -172 q-27 -74 -64.5 -127 q-37.5 -53 -85 -91 q-47.5 -38 -103.5 -64 l-74 112 q48 23 85 51.5 q37 28.5 65 70 q28 41.5 48 103 q20 61.5 34 149.5 l37 237 l530 0 l-105 -659 q-14 -86 -43.5 -137 q-29.5 -51 -80 -73.5 q-50.5 -22.5 -127.5 -22.5 Z" /><glyph glyph-name="uni048C" unicode="&#x48c;" d="M106 0 l82 516 l-146 0 l17 109 l146 0 l13 80 l148 0 l-13 -80 l145 0 l-16 -109 l-146 0 l-15 -96 l173 0 q123 0 184.5 -57 q61.5 -57 43.5 -170 q-16 -99 -89 -146 q-73 -47 -187 -47 l-340 0 ZM273 118 l168 0 q63 0 95.5 22 q32.5 22 39.5 68 q7 48 -17.5 71 q-24.5 23 -87.5 23 l-169 0 l-29 -184 Z" /><glyph glyph-name="uni048E" unicode="&#x48e;" d="M32 0 l112 705 l306 0 q129 0 187 -61 q58 -61 40 -180 q-10 -64 -52.5 -115 q-42.5 -51 -110.5 -76 l13 18 l41 -76 l-71 -43 l-53 101 l19 -14 q-14 -2 -29.5 -3 q-15.5 -1 -33.5 -1 l-174 0 l-40 -255 l-154 0 ZM245 374 l150 0 q8 0 19.5 1 q11.5 1 18.5 2 l-36 -15 l-38 73 l68 41 l52 -95 l-24 6 q33 11 51.5 34 q18.5 23 23.5 56 q9 55 -17.5 82 q-26.5 27 -92.5 27 l-141 0 l-34 -212 Z" /><glyph glyph-name="uni0528" unicode="&#x528;" d="M-56 -187 q-18 0 -42.5 2 q-24.5 2 -49.5 7 l19 122 q18 -4 36.5 -6 q18.5 -2 29.5 -2 q46 0 69.5 25 q23.5 25 32.5 84 l104 660 l157 0 l-46 -284 l325 0 l46 284 l155 0 l-112 -705 l-155 0 l47 294 l-326 0 l-40 -248 q-13 -86 -42.5 -137 q-29.5 -51 -80 -73.5 q-50.5 -22.5 -127.5 -22.5 Z" /><glyph glyph-name="uni052E" unicode="&#x52e;" d="M607 -169 l27 169 l-114 0 l19 122 l248 0 l-45 -291 l-135 0 ZM54 -18 l-74 112 q48 23 85.5 52.5 q37.5 29.5 65 71.5 q27.5 42 47.5 103 q20 61 34 147 l37 237 l530 0 l-112 -705 l-155 0 l92 579 l-233 0 l-22 -143 q-15 -98 -42 -172 q-27 -74 -64.5 -127 q-37.5 -53 -85 -91 q-47.5 -38 -103.5 -64 Z" /><glyph glyph-name="uni0431" unicode="&#x431;" d="M291 -11 q-137 0 -200 79 q-63 79 -41 220 l14 83 q22 136 104.5 223 q82.5 87 223.5 114 l191 39 l22 -119 l-207 -40 q-85 -17 -130.5 -66.5 q-45.5 -49.5 -57.5 -122.5 l-10 -61 l-20 0 q17 45 46.5 79 q29.5 34 71.5 54 q42 20 94 20 q65 0 110.5 -31 q45.5 -31 65 -89.5 q19.5 -58.5 7.5 -140.5 q-13 -79 -53.5 -132.5 q-40.5 -53.5 -100 -81 q-59.5 -27.5 -130.5 -27.5 ZM290 102 q53 0 88.5 34.5 q35.5 34.5 46.5 101.5 q11 70 -15.5 105.5 q-26.5 35.5 -80.5 35.5 q-54 0 -89 -34.5 q-35 -34.5 -46 -101.5 q-12 -70 15 -105.5 q27 -35.5 81 -35.5 Z" /><glyph glyph-name="uni0432" unicode="&#x432;" d="M26 0 l80 507 l277 0 q71 0 111.5 -16.5 q40.5 -16.5 55.5 -47 q15 -30.5 8 -73.5 q-7 -46 -43.5 -77.5 q-36.5 -31.5 -89.5 -40.5 l1 15 q64 -5 93 -38.5 q29 -33.5 20 -89.5 q-10 -66 -65 -102.5 q-55 -36.5 -141 -36.5 l-307 0 ZM179 90 l137 0 q39 0 62 14.5 q23 14.5 27 45.5 q5 32 -13 48 q-18 16 -57 16 l-137 0 l-19 -124 ZM213 303 l128 0 q34 0 54.5 15 q20.5 15 23.5 42 q5 29 -11.5 43.5 q-16.5 14.5 -51.5 14.5 l-126 0 l-17 -115 Z" /><glyph glyph-name="uni0433" unicode="&#x433;" d="M26 0 l80 507 l396 0 l-19 -118 l-245 0 l-61 -389 l-151 0 Z" /><glyph glyph-name="uni0491" unicode="&#x491;" d="M26 0 l80 507 l269 0 l17 111 l128 0 l-36 -229 l-247 0 l-62 -389 l-149 0 Z" /><glyph glyph-name="uni0434" unicode="&#x434;" d="M-35 -130 l39 243 l60 0 q34 45 55.5 104 q21.5 59 34.5 148 l23 142 l410 0 l-62 -394 l83 0 l-39 -243 l-127 0 l21 130 l-350 0 l-21 -130 l-127 0 ZM200 112 l184 0 l45 282 l-143 0 l-11 -66 q-9 -59 -28.5 -117.5 q-19.5 -58.5 -46.5 -98.5 Z" /><glyph glyph-name="uni0436" unicode="&#x436;" d="M-52 0 l139 197 q23 29 45.5 50 q22.5 21 47.5 34 q25 13 53 16 l-32 -48 l-147 258 l156 0 l107 -191 l55 0 l30 191 l150 0 l-31 -191 l49 0 l168 191 l166 0 l-225 -258 l-24 48 q26 -3 45.5 -16 q19.5 -13 34.5 -34 q15 -21 28 -50 l76 -197 l-155 0 l-59 149 q-7 20 -17.5 31.5 q-10.5 11.5 -24.5 16 q-14 4.5 -33 4.5 l-47 0 l-31 -201 l-150 0 l32 201 l-47 0 q-20 0 -34 -4.5 q-14 -4.5 -26 -16 q-12 -11.5 -28 -31.5 l-105 -149 l-166 0 Z" /><glyph glyph-name="uni0437" unicode="&#x437;" d="M229 -11 q-68 0 -126.5 15 q-58.5 15 -97.5 45 l46 96 q33 -24 83 -37.5 q50 -13.5 103 -13.5 q57 0 86 14.5 q29 14.5 34 43.5 q5 26 -12.5 40 q-17.5 14 -57.5 14 l-139 0 l16 101 l126 0 q36 0 57 13 q21 13 24 37 q4 26 -17.5 41 q-21.5 15 -79.5 15 q-52 0 -97.5 -11.5 q-45.5 -11.5 -85.5 -32.5 l-33 92 q47 27 110.5 41.5 q63.5 14.5 137.5 14.5 q109 0 161.5 -39 q52.5 -39 41.5 -108 q-7 -45 -43 -77 q-36 -32 -90 -41 l2 15 q63 -5 92 -40 q29 -35 21 -89 q-11 -67 -77.5 -108 q-66.5 -41 -184.5 -41 Z" /><glyph glyph-name="uni0438" unicode="&#x438;" d="M26 0 l80 507 l136 0 l-56 -356 l-36 1 l328 355 l123 0 l-80 -507 l-136 0 l56 356 l36 -1 l-328 -355 l-123 0 Z" /><glyph glyph-name="uni048B" unicode="&#x48b;" d="M389 -130 l66 130 l-69 0 l18 112 l232 0 l-122 -242 l-125 0 ZM26 0 l80 507 l136 0 l-56 -356 l-36 1 l328 355 l123 0 l-80 -507 l-136 0 l56 356 l36 -1 l-328 -355 l-123 0 ZM365 552 q-53 0 -91 19 q-38 19 -59.5 52 q-21.5 33 -28.5 73 l73 24 q13 -46 40.5 -67 q27.5 -21 72.5 -21 q45 0 73 22.5 q28 22.5 47 64.5 l71 -23 q-14 -45 -42.5 -77.5 q-28.5 -32.5 -67.5 -49.5 q-39 -17 -88 -17 Z" /><glyph glyph-name="uni043A" unicode="&#x43a;" d="M26 0 l80 507 l150 0 l-30 -191 l61 0 l167 191 l166 0 l-225 -258 l-24 48 q27 -3 46.5 -16 q19.5 -13 34 -34 q14.5 -21 27.5 -50 l77 -197 l-156 0 l-59 149 q-7 20 -17.5 31.5 q-10.5 11.5 -24 16 q-13.5 4.5 -32.5 4.5 l-59 0 l-33 -201 l-149 0 Z" /><glyph glyph-name="uni043B" unicode="&#x43b;" d="M24 -15 l-31 118 q33 10 57.5 27 q24.5 17 42 44 q17.5 27 29.5 66 q12 39 21 92 l28 175 l425 0 l-80 -507 l-150 0 l63 392 l-140 0 l-12 -78 q-13 -75 -34 -132 q-21 -57 -52 -97 q-31 -40 -72.5 -64.5 q-41.5 -24.5 -94.5 -35.5 Z" /><glyph glyph-name="uni043C" unicode="&#x43c;" d="M26 0 l80 507 l125 0 l121 -282 l210 282 l125 0 l-80 -507 l-133 0 l54 337 l28 0 l-189 -255 l-68 0 l-108 255 l21 0 l-54 -337 l-132 0 Z" /><glyph glyph-name="uni043D" unicode="&#x43d;" d="M26 0 l80 507 l150 0 l-30 -191 l199 0 l30 191 l150 0 l-81 -507 l-149 0 l32 201 l-199 0 l-33 -201 l-149 0 Z" /><glyph glyph-name="uni043F" unicode="&#x43f;" d="M26 0 l80 507 l496 0 l-81 -507 l-149 0 l62 392 l-196 0 l-63 -392 l-149 0 Z" /><glyph glyph-name="uni0442" unicode="&#x442;" d="M136 0 l61 389 l-168 0 l19 118 l486 0 l-19 -118 l-169 0 l-61 -389 l-149 0 Z" /><glyph glyph-name="uni0444" unicode="&#x444;" d="M294 -216 l47 306 l15 0 q-24 -49 -62.5 -75 q-38.5 -26 -85.5 -26 q-63 0 -104 35 q-41 35 -56 97 q-15 62 -2 143 q20 127 81.5 190 q61.5 63 146.5 63 q52 0 87 -26 q35 -26 44 -73 l-11 0 l51 318 l149 0 l-50 -318 l-15 0 q25 47 63.5 73 q38.5 26 85.5 26 q63 0 104 -34.5 q41 -34.5 56.5 -96 q15.5 -61.5 2.5 -142.5 q-20 -126 -82 -190.5 q-62 -64.5 -148 -64.5 q-51 0 -86 26.5 q-35 26.5 -44 74.5 l10 0 l-48 -306 l-149 0 ZM260 101 q41 0 69.5 37.5 q28.5 37.5 40.5 115.5 q12 78 -6.5 115.5 q-18.5 37.5 -60.5 37.5 q-39 0 -67.5 -37.5 q-28.5 -37.5 -41.5 -115.5 q-13 -78 5.5 -115.5 q18.5 -37.5 60.5 -37.5 ZM582 101 q40 0 69 36.5 q29 36.5 41 115.5 q13 77 -6 115.5 q-19 38.5 -61 38.5 q-40 0 -69 -38.5 q-29 -38.5 -41 -115.5 q-12 -79 7 -115.5 q19 -36.5 60 -36.5 Z" /><glyph glyph-name="uni0447" unicode="&#x447;" d="M345 0 l27 172 q-28 -11 -57.5 -16.5 q-29.5 -5.5 -58.5 -5.5 q-68 0 -115 24.5 q-47 24.5 -68 72.5 q-21 48 -9 120 l22 140 l150 0 l-20 -126 q-9 -58 11.5 -84.5 q20.5 -26.5 76.5 -26.5 q24 0 44.5 5 q20.5 5 38.5 15 l34 217 l150 0 l-80 -507 l-146 0 Z" /><glyph glyph-name="uni0446" unicode="&#x446;" d="M445 -130 l21 130 l-440 0 l80 507 l150 0 l-62 -392 l184 0 l62 392 l149 0 l-61 -392 l82 0 l-39 -245 l-126 0 Z" /><glyph glyph-name="uni0448" unicode="&#x448;" d="M26 0 l80 507 l140 0 l-61 -392 l157 0 l62 392 l139 0 l-61 -392 l157 0 l62 392 l140 0 l-80 -507 l-735 0 Z" /><glyph glyph-name="uni0449" unicode="&#x449;" d="M697 -130 l21 130 l-692 0 l80 507 l140 0 l-61 -392 l157 0 l62 392 l139 0 l-61 -392 l157 0 l62 392 l140 0 l-61 -392 l82 0 l-39 -245 l-126 0 Z" /><glyph glyph-name="uni045F" unicode="&#x45f;" d="M188 -130 l21 130 l-183 0 l80 507 l150 0 l-62 -392 l196 0 l62 392 l150 0 l-81 -507 l-184 0 l-21 -130 l-128 0 Z" /><glyph glyph-name="uni044C" unicode="&#x44c;" d="M26 0 l80 507 l150 0 l-26 -163 l113 0 q110 0 156 -47 q46 -47 32 -132 q-13 -84 -74.5 -124.5 q-61.5 -40.5 -158.5 -40.5 l-272 0 ZM191 96 l100 0 q45 0 71 18 q26 18 32 54 q7 42 -13.5 61 q-20.5 19 -67.5 19 l-99 0 l-23 -152 Z" /><glyph glyph-name="uni044A" unicode="&#x44a;" d="M114 0 l61 389 l-146 0 l19 118 l295 0 l-26 -163 l114 0 q109 0 155 -47 q46 -47 32 -132 q-13 -84 -74.5 -124.5 q-61.5 -40.5 -158.5 -40.5 l-271 0 ZM278 96 l101 0 q45 0 71 18 q26 18 32 54 q7 42 -14.5 61 q-21.5 19 -67.5 19 l-98 0 l-24 -152 Z" /><glyph glyph-name="uni044B" unicode="&#x44b;" d="M26 0 l80 507 l150 0 l-26 -163 l113 0 q110 0 156 -47 q46 -47 32 -132 q-13 -84 -74.5 -124.5 q-61.5 -40.5 -158.5 -40.5 l-272 0 ZM191 96 l100 0 q45 0 71 18 q26 18 32 54 q7 42 -13.5 61 q-20.5 19 -67.5 19 l-99 0 l-23 -152 ZM560 0 l80 507 l150 0 l-80 -507 l-150 0 Z" /><glyph glyph-name="uni0459" unicode="&#x459;" d="M24 -15 l-31 118 q33 10 57.5 27 q24.5 17 42 44 q17.5 27 29.5 66 q12 39 21 92 l28 175 l423 0 l-27 -163 l114 0 q109 0 155.5 -47 q46.5 -47 32.5 -132 q-14 -84 -75.5 -124.5 q-61.5 -40.5 -157.5 -40.5 l-270 0 l63 392 l-140 0 l-12 -78 q-12 -75 -33 -132 q-21 -57 -52 -97 q-31 -40 -73 -64.5 q-42 -24.5 -95 -35.5 ZM528 96 l101 0 q45 0 71 18 q26 18 32 54 q7 42 -14 61 q-21 19 -68 19 l-98 0 l-24 -152 Z" /><glyph glyph-name="uni045A" unicode="&#x45a;" d="M26 0 l80 507 l150 0 l-30 -191 l199 0 l31 191 l149 0 l-27 -163 l114 0 q109 0 155.5 -47 q46.5 -47 32.5 -132 q-13 -84 -74.5 -124.5 q-61.5 -40.5 -158.5 -40.5 l-272 0 l32 201 l-199 0 l-33 -201 l-149 0 ZM539 96 l101 0 q45 0 71 18 q26 18 32 54 q7 42 -14 61 q-21 19 -67 19 l-99 0 l-24 -152 Z" /><glyph glyph-name="uni0454" unicode="&#x454;" d="M306 -11 q-93 0 -156 35.5 q-63 35.5 -89.5 99 q-26.5 63.5 -13.5 146.5 q13 83 55.5 137.5 q42.5 54.5 108 82 q65.5 27.5 146.5 27.5 q57 0 103.5 -13.5 q46.5 -13.5 73.5 -38.5 l-43 -96 q-26 22 -59.5 32.5 q-33.5 10.5 -70.5 10.5 q-68 0 -111.5 -34.5 q-43.5 -34.5 -59.5 -98.5 l-11 27 l246 0 l-16 -99 l-247 0 l24 29 q-5 -71 29.5 -106 q34.5 -35 101.5 -35 q38 0 74.5 11 q36.5 11 69.5 35 l37 -94 q-30 -26 -82 -42 q-52 -16 -110 -16 Z" /><glyph glyph-name="uni044D" unicode="&#x44d;" d="M193 -11 q-56 0 -102.5 14 q-46.5 14 -73.5 39 l42 95 q26 -21 59.5 -31.5 q33.5 -10.5 70.5 -10.5 q69 0 112 34 q43 34 60 99 l13 -21 l-247 0 l17 99 l246 0 l-26 -34 q5 70 -29.5 104.5 q-34.5 34.5 -101.5 34.5 q-38 0 -74 -10.5 q-36 -10.5 -69 -34.5 l-31 94 q33 26 85.5 41.5 q52.5 15.5 113.5 15.5 q87 0 146.5 -35.5 q59.5 -35.5 86 -98 q26.5 -62.5 12.5 -146.5 q-13 -82 -55.5 -137 q-42.5 -55 -108 -83 q-65.5 -28 -146.5 -28 Z" /><glyph glyph-name="uni044E" unicode="&#x44e;" d="M523 -11 q-109 0 -171.5 56.5 q-62.5 56.5 -64.5 155.5 l-83 0 l-31 -201 l-147 0 l80 507 l147 0 l-31 -191 l78 0 q31 99 105.5 150 q74.5 51 175.5 51 q87 0 143.5 -33.5 q56.5 -33.5 80 -96.5 q23.5 -63 9.5 -150 q-13 -81 -53 -136 q-40 -55 -101 -83.5 q-61 -28.5 -137 -28.5 ZM532 103 q50 0 85.5 35.5 q35.5 35.5 46.5 108.5 q13 82 -13.5 119 q-26.5 37 -78.5 37 q-51 0 -85.5 -35 q-34.5 -35 -46.5 -108 q-13 -82 13 -119.5 q26 -37.5 79 -37.5 Z" /><glyph glyph-name="uni044F" unicode="&#x44f;" d="M-21 0 l97 132 q26 35 59.5 55 q33.5 20 63.5 20 l30 0 l-6 -12 q-89 0 -130 45.5 q-41 45.5 -30 118.5 q11 68 67.5 108 q56.5 40 150.5 40 l276 0 l-80 -507 l-137 0 l26 168 l-45 0 q-25 0 -46 -13.5 q-21 -13.5 -36 -34.5 l-87 -120 l-173 0 ZM277 264 l104 0 l24 147 l-100 0 q-46 0 -72.5 -19 q-26.5 -19 -30.5 -51 q-6 -37 14.5 -57 q20.5 -20 60.5 -20 Z" /><glyph glyph-name="uni0452" unicode="&#x452;" d="M282 -187 l-31 109 q46 11 71.5 28 q25.5 17 38.5 44 q13 27 20 68 l33 214 q9 56 -9 79 q-18 23 -58 23 q-50 0 -83 -30.5 q-33 -30.5 -41 -82.5 l-42 -265 l-151 0 l88 561 l-88 0 l16 104 l89 0 l12 71 l151 0 l-12 -71 l192 0 l-16 -104 l-193 0 l-27 -170 l-15 -1 q30 53 79 79.5 q49 26.5 110 26.5 q91 0 129 -54.5 q38 -54.5 20 -165.5 l-33 -212 q-11 -69 -37.5 -117.5 q-26.5 -48.5 -77.5 -80 q-51 -31.5 -135 -53.5 Z" /><glyph glyph-name="uni0463" unicode="&#x463;" d="M114 0 l65 409 l-146 0 l15 98 l146 0 l37 229 l150 0 l-37 -229 l172 0 l-15 -98 l-172 0 l-14 -88 l129 0 q95 0 140.5 -43.5 q45.5 -43.5 32.5 -125.5 q-13 -80 -71 -116 q-58 -36 -151 -36 l-281 0 ZM277 87 l106 0 q43 0 68 17.5 q25 17.5 30 53.5 q6 40 -14 57 q-20 17 -61 17 l-106 0 l-23 -145 Z" /><glyph glyph-name="uni046B" unicode="&#x46b;" d="M-52 0 l136 181 q32 44 61.5 70 q29.5 26 64.5 37.5 q35 11.5 84 11.5 l58 0 l-32 -42 l-175 249 l662 0 l-253 -249 l-20 42 l58 0 q50 0 80.5 -12 q30.5 -12 50.5 -38 q20 -26 38 -69 l78 -181 l-155 0 l-60 133 q-10 21 -20 32 q-10 11 -23 16 q-13 5 -33 5 l-47 0 l-30 -186 l-150 0 l30 186 l-48 0 q-19 0 -32.5 -5 q-13.5 -5 -26 -16 q-12.5 -11 -28.5 -32 l-102 -133 l-166 0 ZM438 274 l2 0 l177 180 l-7 -41 l-300 0 l7 41 l121 -180 Z" /><glyph glyph-name="uni0475" unicode="&#x475;" d="M177 0 l-139 507 l154 0 l87 -368 l-33 0 l135 239 q32 56 65 86 q33 30 78 41.5 q45 11.5 112 11.5 l-7 -119 q-32 0 -55.5 -7.5 q-23.5 -7.5 -42 -24.5 q-18.5 -17 -36.5 -48 l-188 -318 l-130 0 Z" /><glyph glyph-name="uni0493" unicode="&#x493;" d="M55 0 l27 176 l-90 0 l17 103 l90 0 l36 228 l396 0 l-19 -117 l-245 0 l-18 -111 l142 0 l-16 -103 l-143 0 l-27 -176 l-150 0 Z" /><glyph glyph-name="uni0495" unicode="&#x495;" d="M285 -187 l-30 109 q46 11 72 28 q26 17 39 44 q13 27 20 68 l8 51 q8 55 -8 78.5 q-16 23.5 -64 23.5 q-55 0 -89 -31 q-34 -31 -41 -83 l-17 -101 l-149 0 l80 507 l396 0 l-17 -104 l-246 0 l-28 -182 l-19 -1 q31 54 81 82.5 q50 28.5 116 28.5 q93 0 132.5 -53.5 q39.5 -53.5 22.5 -158.5 l-9 -56 q-9 -64 -35.5 -112.5 q-26.5 -48.5 -78 -82 q-51.5 -33.5 -136.5 -55.5 Z" /><glyph glyph-name="uni0497" unicode="&#x497;" d="M714 -130 l21 130 l-40 0 l18 112 l169 0 l-39 -242 l-129 0 ZM-52 0 l139 197 q23 29 45.5 50 q22.5 21 47.5 34 q25 13 53 16 l-32 -48 l-147 258 l156 0 l107 -191 l55 0 l30 191 l150 0 l-31 -191 l49 0 l168 191 l166 0 l-225 -258 l-24 48 q26 -3 45.5 -16 q19.5 -13 34.5 -34 q15 -21 28 -50 l76 -197 l-155 0 l-59 149 q-7 20 -17.5 31.5 q-10.5 11.5 -24.5 16 q-14 4.5 -33 4.5 l-47 0 l-31 -201 l-150 0 l32 201 l-47 0 q-20 0 -34 -4.5 q-14 -4.5 -26 -16 q-12 -11.5 -28 -31.5 l-105 -149 l-166 0 Z" /><glyph glyph-name="uni0499" unicode="&#x499;" d="M153 -130 l32 193 l117 0 l-30 -193 l-119 0 ZM229 -11 q-68 0 -126.5 15 q-58.5 15 -97.5 45 l46 96 q33 -24 83 -37.5 q50 -13.5 103 -13.5 q57 0 86 14.5 q29 14.5 34 43.5 q5 26 -12.5 40 q-17.5 14 -57.5 14 l-139 0 l16 101 l126 0 q36 0 57 13 q21 13 24 37 q4 26 -17.5 41 q-21.5 15 -79.5 15 q-52 0 -97.5 -11.5 q-45.5 -11.5 -85.5 -32.5 l-33 92 q47 27 110.5 41.5 q63.5 14.5 137.5 14.5 q109 0 161.5 -39 q52.5 -39 41.5 -108 q-7 -45 -43 -77 q-36 -32 -90 -41 l2 15 q63 -5 92 -40 q29 -35 21 -89 q-11 -67 -77.5 -108 q-66.5 -41 -184.5 -41 Z" /><glyph glyph-name="uni049B" unicode="&#x49b;" d="M430 -130 l21 130 l-40 0 l18 112 l169 0 l-39 -242 l-129 0 ZM26 0 l80 507 l150 0 l-30 -191 l61 0 l167 191 l166 0 l-225 -258 l-24 48 q27 -3 46.5 -16 q19.5 -13 34 -34 q14.5 -21 27.5 -50 l77 -197 l-156 0 l-59 149 q-7 20 -17.5 31.5 q-10.5 11.5 -24 16 q-13.5 4.5 -32.5 4.5 l-59 0 l-33 -201 l-149 0 Z" /><glyph glyph-name="uni049D" unicode="&#x49d;" d="M26 0 l80 507 l150 0 l-30 -191 l48 0 l18 112 l87 0 l-18 -112 l10 0 l167 191 l167 0 l-225 -258 l-25 48 q27 -3 46.5 -16 q19.5 -13 34 -34 q14.5 -21 27.5 -50 l77 -197 l-155 0 l-60 149 q-7 20 -17 31.5 q-10 11.5 -23.5 16 q-13.5 4.5 -33.5 4.5 l-18 0 l13 15 l-21 -137 l-88 0 l19 122 l-48 0 l-33 -201 l-149 0 Z" /><glyph glyph-name="uni049F" unicode="&#x49f;" d="M30 0 l88 561 l-88 0 l16 104 l89 0 l12 71 l151 0 l-12 -71 l192 0 l-16 -104 l-193 0 l-39 -250 l64 0 l158 176 l166 0 l-222 -249 l-17 48 q27 -3 44.5 -14.5 q17.5 -11.5 30.5 -31.5 q13 -20 26 -53 l79 -187 l-155 0 l-60 146 q-8 19 -18.5 30.5 q-10.5 11.5 -24 16 q-13.5 4.5 -32.5 4.5 l-58 0 l-30 -197 l-151 0 Z" /><glyph glyph-name="uni04A1" unicode="&#x4a1;" d="M113 0 l61 389 l-145 0 l19 118 l295 0 l-30 -191 l62 0 l167 191 l167 0 l-225 -258 l-25 48 q26 -3 46 -16 q20 -13 34.5 -34 q14.5 -21 26.5 -50 l77 -197 l-156 0 l-58 149 q-7 20 -17.5 31.5 q-10.5 11.5 -24.5 16 q-14 4.5 -34 4.5 l-58 0 l-32 -201 l-150 0 Z" /><glyph glyph-name="uni04A3" unicode="&#x4a3;" d="M460 -130 l21 130 l-97 0 l18 112 l224 0 l-39 -242 l-127 0 ZM26 0 l80 507 l150 0 l-30 -191 l199 0 l30 191 l150 0 l-81 -507 l-149 0 l32 201 l-199 0 l-33 -201 l-149 0 Z" /><glyph glyph-name="uni04A5" unicode="&#x4a5;" d="M26 0 l80 507 l150 0 l-30 -191 l196 0 l31 191 l357 0 l-19 -118 l-208 0 l-61 -389 l-150 0 l32 201 l-196 0 l-33 -201 l-149 0 Z" /><glyph glyph-name="uni0525" unicode="&#x525;" d="M456 -130 l21 130 l-97 0 l18 112 l224 0 l-39 -242 l-127 0 ZM26 0 l80 507 l496 0 l-81 -507 l-149 0 l62 392 l-196 0 l-63 -392 l-149 0 Z" /><glyph glyph-name="uni04A9" unicode="&#x4a9;" d="M312 -11 q-100 0 -163.5 36 q-63.5 36 -88.5 100.5 q-25 64.5 -12 147.5 q13 81 54.5 135.5 q41.5 54.5 103.5 81.5 q62 27 136 27 q25 0 46.5 -3 q21.5 -3 37.5 -10 l-22 -101 q-10 4 -24.5 6 q-14.5 2 -28.5 2 q-64 0 -107 -41 q-43 -41 -54 -114 q-13 -80 25 -123.5 q38 -43.5 120 -43.5 q92 0 140.5 32 q48.5 32 58.5 97 q7 37 -7 58 q-14 21 -43 21 q-28 0 -46.5 -20.5 q-18.5 -20.5 -23.5 -54.5 q-10 -67 26.5 -100 q36.5 -33 130.5 -33 q35 0 73 8.5 q38 8.5 68 23.5 l14 -102 q-34 -15 -70 -22.5 q-36 -7.5 -78 -7.5 q-67 0 -121.5 19 q-54.5 19 -92 53 q-37.5 34 -54.5 80 q-17 46 -8 101 q7 42 32 76.5 q25 34.5 66 54.5 q41 20 93 20 q53 0 91 -21 q38 -21 56 -60.5 q18 -39.5 9 -94.5 q-7 -47 -38 -88 q-31 -41 -78 -72.5 q-47 -31.5 -104 -49.5 q-57 -18 -117 -18 Z" /><glyph glyph-name="uni04AB" unicode="&#x4ab;" d="M184 -130 l31 193 l118 0 l-31 -193 l-118 0 ZM288 -11 q-88 0 -146.5 35.5 q-58.5 35.5 -83 99 q-24.5 63.5 -11.5 146.5 q20 123 100.5 185 q80.5 62 198.5 62 q46 0 91.5 -13.5 q45.5 -13.5 73.5 -38.5 l-47 -102 q-22 19 -53.5 29 q-31.5 10 -60.5 10 q-57 0 -97.5 -34.5 q-40.5 -34.5 -52.5 -106.5 q-11 -70 18.5 -112.5 q29.5 -42.5 94.5 -42.5 q28 0 60.5 10.5 q32.5 10.5 60.5 32.5 l41 -102 q-30 -26 -81 -42 q-51 -16 -106 -16 Z" /><glyph glyph-name="uni04AD" unicode="&#x4ad;" d="M220 -130 l21 130 l-97 0 l18 112 l224 0 l-39 -242 l-127 0 ZM136 0 l61 389 l-168 0 l19 118 l486 0 l-19 -118 l-169 0 l-61 -389 l-149 0 Z" /><glyph glyph-name="uni04AF" unicode="&#x4af;" d="M129 -216 l38 237 l-133 486 l154 0 l87 -368 l-33 0 l207 368 l154 0 l-286 -481 l-38 -242 l-150 0 Z" /><glyph glyph-name="uni04B1" unicode="&#x4b1;" d="M131 -204 l23 147 l-132 0 l16 104 l134 0 l-4 -30 l-134 490 l153 0 l88 -369 l-33 0 l207 369 l154 0 l-288 -485 l4 25 l133 0 l-16 -104 l-132 0 l-23 -147 l-150 0 Z" /><glyph glyph-name="uni04B3" unicode="&#x4b3;" d="M444 -130 l21 130 l-40 0 l17 112 l169 0 l-38 -242 l-129 0 ZM-59 0 l287 295 l-2 -67 l-183 279 l169 0 l108 -177 l-54 0 l164 177 l184 0 l-271 -280 l6 69 l193 -296 l-175 0 l-118 190 l56 0 l-179 -190 l-185 0 Z" /><glyph glyph-name="uni04B5" unicode="&#x4b5;" d="M565 -130 l21 130 l-473 0 l61 389 l-145 0 l19 118 l422 0 l-19 -118 l-127 0 l-43 -274 l217 0 l62 392 l150 0 l-62 -392 l82 0 l-38 -245 l-127 0 Z" /><glyph glyph-name="uni04B7" unicode="&#x4b7;" d="M427 -130 l21 130 l-97 0 l18 112 l224 0 l-39 -242 l-127 0 ZM345 0 l27 172 q-28 -11 -57.5 -16.5 q-29.5 -5.5 -58.5 -5.5 q-68 0 -115 24.5 q-47 24.5 -68 72.5 q-21 48 -9 120 l22 140 l150 0 l-20 -126 q-9 -58 11.5 -84.5 q20.5 -26.5 76.5 -26.5 q24 0 44.5 5 q20.5 5 38.5 15 l34 217 l150 0 l-80 -507 l-146 0 Z" /><glyph glyph-name="uni04B9" unicode="&#x4b9;" d="M385 0 l28 175 q-24 -9 -49.5 -14.5 q-25.5 -5.5 -48.5 -6.5 l32 23 l-18 -116 l-87 0 l18 116 l22 -24 q-119 0 -177 54.5 q-58 54.5 -41 159.5 l22 140 l150 0 l-20 -128 q-9 -58 14 -82.5 q23 -24.5 74 -27.5 l-32 -16 l22 137 l87 0 l-22 -137 l-21 15 q22 0 46 4.5 q24 4.5 46 14.5 l35 220 l150 0 l-81 -507 l-149 0 Z" /><glyph glyph-name="uni0527" unicode="&#x527;" d="M456 -130 l21 130 l-97 0 l18 112 l224 0 l-39 -242 l-127 0 ZM30 0 l117 736 l151 0 l-52 -324 l-15 0 q30 52 79 78.5 q49 26.5 110 26.5 q91 0 129 -54 q38 -54 20 -165 l-47 -298 l-151 0 l47 298 q9 55 -9 78.5 q-18 23.5 -58 23.5 q-51 0 -84 -31 q-33 -31 -41 -83 l-45 -286 l-151 0 Z" /><glyph glyph-name="uni04BD" unicode="&#x4bd;" d="M433 -11 q-93 0 -152.5 35 q-59.5 35 -85 94.5 q-25.5 59.5 -17.5 131.5 l5 -23 l-25 0 q-82 0 -110.5 35.5 q-28.5 35.5 -18.5 104.5 l6 35 l116 0 l-5 -34 q-7 -36 3.5 -51 q10.5 -15 41.5 -15 l21 0 l-32 -26 q14 75 51 129 q37 54 94.5 83 q57.5 29 130.5 29 q76 0 124.5 -33 q48.5 -33 69.5 -90 q21 -57 8 -131 l-5 -33 l-352 0 l19 23 q-10 -71 21.5 -110.5 q31.5 -39.5 111.5 -39.5 q37 0 71.5 10.5 q34.5 10.5 69.5 33.5 l40 -100 q-42 -29 -93.5 -43.5 q-51.5 -14.5 -107.5 -14.5 ZM451 416 q-52 0 -83.5 -35.5 q-31.5 -35.5 -40.5 -89.5 l-15 13 l243 0 l-19 -16 q10 64 -12.5 96 q-22.5 32 -72.5 32 Z" /><glyph glyph-name="uni04C4" unicode="&#x4c4;" d="M279 -187 l-30 109 q46 11 71.5 27.5 q25.5 16.5 38.5 43 q13 26.5 20 67.5 l4 26 q10 61 -15 88 q-25 27 -81 27 l-79 0 l-33 -201 l-149 0 l80 507 l150 0 l-30 -191 l61 0 l167 191 l166 0 l-225 -258 l-60 62 q75 0 123 -26.5 q48 -26.5 68 -75.5 q20 -49 8 -116 l-5 -32 q-10 -62 -36 -110 q-26 -48 -77.5 -82 q-51.5 -34 -136.5 -56 Z" /><glyph glyph-name="uni04C6" unicode="&#x4c6;" d="M380 -130 l66 130 l-70 0 l18 112 l233 0 l-123 -242 l-124 0 ZM24 -15 l-31 118 q33 10 57.5 27 q24.5 17 42 44 q17.5 27 29.5 66 q12 39 21 92 l28 175 l425 0 l-80 -507 l-150 0 l63 392 l-140 0 l-12 -78 q-13 -75 -34 -132 q-21 -57 -52 -97 q-31 -40 -72.5 -64.5 q-41.5 -24.5 -94.5 -35.5 Z" /><glyph glyph-name="uni04C8" unicode="&#x4c8;" d="M234 -193 l7 108 l50 4 q37 4 57.5 23 q20.5 19 26.5 56 l32 203 l-199 0 l-33 -201 l-149 0 l80 507 l150 0 l-30 -191 l199 0 l31 191 l149 0 l-78 -489 q-11 -70 -38.5 -114 q-27.5 -44 -78 -66 q-50.5 -22 -130.5 -28 l-46 -3 Z" /><glyph glyph-name="uni04CA" unicode="&#x4ca;" d="M388 -130 l66 130 l-70 0 l18 112 l233 0 l-123 -242 l-124 0 ZM26 0 l80 507 l150 0 l-30 -191 l199 0 l30 191 l150 0 l-81 -507 l-149 0 l32 201 l-199 0 l-33 -201 l-149 0 Z" /><glyph glyph-name="uni04CC" unicode="&#x4cc;" d="M369 -130 l-127 0 l33 211 l212 0 l-12 -81 l-85 0 l-21 -130 ZM345 0 l27 172 q-28 -11 -57.5 -16.5 q-29.5 -5.5 -58.5 -5.5 q-68 0 -115 24.5 q-47 24.5 -68 72.5 q-21 48 -9 120 l22 140 l150 0 l-20 -126 q-9 -58 11.5 -84.5 q20.5 -26.5 76.5 -26.5 q24 0 44.5 5 q20.5 5 38.5 15 l34 217 l150 0 l-80 -507 l-146 0 Z" /><glyph glyph-name="uni04CE" unicode="&#x4ce;" d="M478 -130 l66 130 l-69 0 l18 112 l233 0 l-123 -242 l-125 0 ZM26 0 l80 507 l125 0 l121 -282 l210 282 l125 0 l-80 -507 l-133 0 l54 337 l28 0 l-189 -255 l-68 0 l-108 255 l21 0 l-54 -337 l-132 0 Z" /><glyph glyph-name="uni04E1" unicode="&#x4e1;" d="M185 -191 q-73 0 -130.5 16 q-57.5 16 -95.5 46 l43 103 q32 -24 75.5 -37 q43.5 -13 99.5 -13 q66 0 105 26 q39 26 46 74 q9 55 -18 81 q-27 26 -94 26 l-110 0 l12 71 l253 224 l-1 -31 l-318 0 l18 112 l451 0 l-16 -99 l-235 -207 l-48 29 l57 0 q73 0 120 -26 q47 -26 67 -71.5 q20 -45.5 11 -103.5 q-11 -74 -50.5 -123 q-39.5 -49 -101 -73 q-61.5 -24 -140.5 -24 Z" /><glyph glyph-name="uni04E9" unicode="&#x4e9;" d="M282 -11 q-86 0 -143.5 34 q-57.5 34 -81 97 q-23.5 63 -10.5 150 q13 82 53.5 137 q40.5 55 102 82.5 q61.5 27.5 137.5 27.5 q87 0 143.5 -33.5 q56.5 -33.5 80 -96.5 q23.5 -63 9.5 -150 q-13 -81 -53.5 -136 q-40.5 -55 -101.5 -83.5 q-61 -28.5 -136 -28.5 ZM290 103 q59 0 96.5 36 q37.5 36 49.5 110 q13 77 -16 115.5 q-29 38.5 -89 38.5 q-60 0 -98 -35.5 q-38 -35.5 -48 -108.5 q-12 -74 14 -115 q26 -41 91 -41 ZM133 206 l15 96 l340 0 l-14 -96 l-341 0 Z" /><glyph glyph-name="uni04F7" unicode="&#x4f7;" d="M112 -130 l21 130 l-97 0 l18 112 l224 0 l-39 -242 l-127 0 ZM26 0 l80 507 l396 0 l-19 -118 l-245 0 l-61 -389 l-151 0 Z" /><glyph glyph-name="uni04FB" unicode="&#x4fb;" d="M9 -186 l6 101 l64 5 q36 3 53 24 q17 21 22 56 l-99 0 l30 189 l-91 0 l16 98 l90 0 l35 220 l396 0 l-19 -117 l-245 0 l-16 -103 l142 0 l-16 -98 l-142 0 l-17 -106 l84 0 l-9 -54 q-16 -101 -72 -153 q-56 -52 -139 -57 l-73 -5 Z" /><glyph glyph-name="uni04FD" unicode="&#x4fd;" d="M268 -188 l-6 104 q50 4 73 17.5 q23 13.5 28 41.5 q2 17 -6 37 q-8 20 -28 53 l-79 125 l56 0 l-178 -190 l-185 0 l287 295 l-3 -67 l-182 279 l171 0 l106 -177 l-55 0 l164 177 l184 0 l-270 -280 l6 68 l110 -169 q23 -34 36 -60 q13 -26 17 -48 q4 -22 0 -48 q-7 -43 -35 -76 q-28 -33 -80 -54 q-52 -21 -131 -28 Z" /><glyph glyph-name="uni0511" unicode="&#x511;" d="M247 -11 q-123 0 -181.5 43 q-58.5 43 -47.5 120 q8 51 48 83.5 q40 32.5 104 37.5 l-2 -15 q-50 9 -76.5 40 q-26.5 31 -18.5 81 q12 68 77.5 103 q65.5 35 165.5 35 q62 0 118 -14.5 q56 -14.5 94 -39.5 l-41 -93 q-33 19 -75 30.5 q-42 11.5 -91 11.5 q-56 0 -84 -14.5 q-28 -14.5 -32 -41.5 q-3 -23 13 -36 q16 -13 52 -13 l125 0 l-15 -101 l-139 0 q-40 0 -61 -13 q-21 -13 -25 -37 q-5 -31 20 -46.5 q25 -15.5 82 -15.5 q54 0 108 13.5 q54 13.5 94 36.5 l31 -95 q-45 -30 -109 -45 q-64 -15 -134 -15 Z" /><glyph glyph-name="uni0513" unicode="&#x513;" d="M226 -193 l7 108 l50 4 q37 4 57 23 q20 19 26 56 l63 394 l-140 0 l-12 -78 q-12 -75 -33 -132 q-21 -57 -52 -97 q-31 -40 -73 -64.5 q-42 -24.5 -95 -35.5 l-31 118 q33 10 57.5 27 q24.5 17 42 44 q17.5 27 29.5 66 q12 39 21 92 l28 175 l425 0 l-77 -489 q-10 -69 -38 -113.5 q-28 -44.5 -78.5 -66.5 q-50.5 -22 -130.5 -28 l-46 -3 Z" /><glyph glyph-name="uni048F" unicode="&#x48f;" d="M-5 -216 l93 591 q6 32 9 65.5 q3 33.5 4 66.5 l146 0 l-4 -99 l-15 0 q23 50 69.5 79.5 q46.5 29.5 110.5 29.5 q70 0 118 -35 q48 -35 68.5 -97.5 q20.5 -62.5 6.5 -147.5 q-13 -79 -45.5 -130 q-32.5 -51 -84.5 -83 l3 18 l41 -64 l-60 -41 l-46 74 l19 -3 q-20 -10 -42 -14.5 q-22 -4.5 -45 -4.5 q-60 0 -103.5 29 q-43.5 29 -53.5 77 l11 0 l-49 -311 l-151 0 ZM355 403 q-51 0 -87.5 -35 q-36.5 -35 -47.5 -108 q-13 -82 14 -119.5 q27 -37.5 78 -37.5 q29 0 51 12 l-7 -19 l-52 84 l59 40 l51 -82 l-15 1 q19 18 32 43.5 q13 25.5 19 64.5 q13 82 -13.5 119 q-26.5 37 -81.5 37 Z" /><glyph glyph-name="uni0529" unicode="&#x529;" d="M-115 -193 l7 108 l49 4 q38 4 58 23 q20 19 26 56 l81 509 l150 0 l-30 -191 l199 0 l31 191 l149 0 l-81 -507 l-149 0 l32 201 l-199 0 l-29 -183 q-11 -70 -39 -114 q-28 -44 -78.5 -66 q-50.5 -22 -130.5 -28 l-46 -3 Z" /><glyph glyph-name="uni052F" unicode="&#x52f;" d="M452 -130 l21 130 l-97 0 l18 112 l224 0 l-39 -242 l-127 0 ZM24 -15 l-31 118 q33 10 57.5 27 q24.5 17 42 44 q17.5 27 29.5 66 q12 39 21 92 l28 175 l425 0 l-80 -507 l-150 0 l63 392 l-140 0 l-12 -78 q-13 -75 -34 -132 q-21 -57 -52 -97 q-31 -40 -72.5 -64.5 q-41.5 -24.5 -94.5 -35.5 Z" /><glyph glyph-name="uni0394" unicode="&#x394;" d="M-8 0 l14 85 l376 620 l125 0 l180 -620 l-10 -85 l-685 0 ZM423 540 l-268 -459 l6 40 l392 0 l-6 -40 l-122 459 l-2 0 Z" /><glyph glyph-name="Sigma" unicode="&#x3a3;" d="M-21 -180 l18 109 l320 357 l12 -46 l-226 356 l17 109 l542 0 l-20 -127 l-376 0 l-7 32 l196 -307 l-12 -81 l-276 -307 l-1 32 l376 0 l-20 -127 l-543 0 Z" /><glyph glyph-name="uni03A9" unicode="&#x3a9;" d="M-2 0 l20 125 l237 0 l-2 -38 q-93 55 -139 129 q-46 74 -46 155 q0 108 49.5 185.5 q49.5 77.5 136.5 118 q87 40.5 201 40.5 q71 0 132.5 -19.5 q61.5 -19.5 108 -55.5 q46.5 -36 72.5 -86 q26 -50 26 -110 q0 -91 -34.5 -160 q-34.5 -69 -97 -118 q-62.5 -49 -148.5 -79 l1 38 l246 0 l-20 -125 l-320 0 l19 121 q86 48 139 120 q53 72 53 166 q0 54 -21.5 93.5 q-21.5 39.5 -62 61.5 q-40.5 22 -99.5 22 q-71 0 -120 -29 q-49 -29 -74 -80 q-25 -51 -25 -118 q0 -62 27 -122 q27 -60 81 -114 l-19 -121 l-321 0 Z" /><glyph glyph-name="uni03BC" unicode="&#x3bc;" d="M-13 -216 l112 723 l152 0 l-45 -299 q-8 -50 8 -75.5 q16 -25.5 56 -25.5 q49 0 81 34.5 q32 34.5 41 92.5 l41 273 l153 0 l-79 -507 l-153 0 l14 96 l2 0 q-17 -50 -47.5 -78.5 q-30.5 -28.5 -71.5 -28.5 q-31 0 -50 12 q-19 12 -29 34 l0 1 l-29 -252 l-156 0 Z" /><glyph glyph-name="pi" unicode="&#x3c0;" d="M-3 0 q35 74 59.5 138.5 q24.5 64.5 41.5 127 q17 62.5 27 128.5 l-98 0 l18 113 l598 0 l-19 -113 l-95 0 l-29 -186 q-6 -32 -2 -55 q4 -23 22 -36.5 q18 -13.5 56 -16.5 l26 -2 l-21 -107 l-33 2 q-82 6 -129.5 28.5 q-47.5 22.5 -64 71 q-16.5 48.5 -3.5 129.5 l27 172 l-103 0 q-13 -82 -30 -149.5 q-17 -67.5 -39.5 -127 q-22.5 -59.5 -53.5 -117.5 l-155 0 Z" /><glyph glyph-name="zero" unicode="0" d="M271 -11 q-137 0 -190.5 100.5 q-53.5 100.5 -25.5 281.5 q28 178 105 261.5 q77 83.5 200 83.5 q133 0 190 -95 q57 -95 27 -282 q-28 -177 -107.5 -263.5 q-79.5 -86.5 -198.5 -86.5 ZM281 115 q57 0 93.5 55.5 q36.5 55.5 56.5 178.5 q14 90 9.5 143 q-4.5 53 -27.5 75.5 q-23 22.5 -62 22.5 q-57 0 -93 -52.5 q-36 -52.5 -56 -175.5 q-14 -90 -9.5 -144.5 q4.5 -54.5 27.5 -78.5 q23 -24 61 -24 Z" /><glyph glyph-name="one" unicode="1" d="M61 0 l21 128 l160 0 l70 447 l72 -4 l-235 -126 l23 150 l206 110 l111 0 l-92 -577 l150 0 l-20 -128 l-466 0 Z" /><glyph glyph-name="two" unicode="2" d="M33 0 l18 115 l265 239 q47 42 70 74 q23 32 29 66 q8 46 -18 69.5 q-26 23.5 -79 23.5 q-45 0 -91 -15 q-46 -15 -94 -50 l-46 115 q50 37 119.5 58 q69.5 21 137.5 21 q85 0 139 -27 q54 -27 76 -75.5 q22 -48.5 12 -114.5 q-10 -64 -49.5 -117.5 q-39.5 -53.5 -106.5 -110.5 l-212 -183 l0 40 l334 0 l-20 -128 l-484 0 Z" /><glyph glyph-name="three" unicode="3" d="M258 -11 q-73 0 -138 21 q-65 21 -102 58 l54 116 q40 -33 87.5 -49.5 q47.5 -16.5 100.5 -16.5 q60 0 94.5 20.5 q34.5 20.5 41.5 66.5 q13 89 -99 89 l-122 0 l19 123 l104 0 q51 0 84 21.5 q33 21.5 39 62.5 q7 41 -18 63.5 q-25 22.5 -78 22.5 q-52 0 -99 -16 q-47 -16 -92 -50 l-46 115 q50 38 118.5 59 q68.5 21 139.5 21 q124 0 183 -54.5 q59 -54.5 44 -146.5 q-9 -59 -51 -101 q-42 -42 -105 -56 l1 13 q66 -11 100.5 -60 q34.5 -49 23.5 -123 q-16 -98 -91.5 -148.5 q-75.5 -50.5 -192.5 -50.5 Z" /><glyph glyph-name="four" unicode="4" d="M298 0 l21 129 l-306 0 l18 108 l401 468 l128 0 l-74 -459 l97 0 l-19 -117 l-97 0 l-19 -129 l-150 0 ZM337 246 l44 275 l28 0 l-264 -311 l1 36 l191 0 Z" /><glyph glyph-name="five" unicode="5" d="M273 -11 q-46 0 -91 10 q-45 10 -82 27.5 q-37 17.5 -60 41.5 l52 116 q40 -32 87 -49 q47 -17 97 -17 q58 0 94.5 26 q36.5 26 44.5 74 q7 51 -20 80 q-27 29 -81 29 q-38 0 -72 -14 q-34 -14 -64 -43 l-100 0 l69 435 l450 0 l-21 -127 l-304 0 l-30 -192 l-36 0 q30 32 71.5 49 q41.5 17 94.5 17 q64 0 111 -29 q47 -29 69 -83 q22 -54 10 -130 q-10 -66 -47 -115.5 q-37 -49.5 -98 -77.5 q-61 -28 -144 -28 Z" /><glyph glyph-name="six" unicode="6" d="M295 -11 q-93 0 -152 44 q-59 44 -80.5 127.5 q-21.5 83.5 -2.5 202.5 q19 118 68 196.5 q49 78.5 123 117.5 q74 39 166 39 q59 0 111.5 -17 q52.5 -17 88.5 -54 l-55 -116 q-33 30 -71.5 44 q-38.5 14 -81.5 14 q-82 0 -133 -53 q-51 -53 -70 -162 l-10 -65 l-13 0 q23 71 73.5 111 q50.5 40 123.5 40 q62 0 106.5 -30.5 q44.5 -30.5 65.5 -85.5 q21 -55 9 -130 q-11 -72 -48 -121.5 q-37 -49.5 -93 -75.5 q-56 -26 -125 -26 ZM299 110 q53 0 82.5 30 q29.5 30 37.5 79 q9 55 -16.5 87 q-25.5 32 -74.5 32 q-49 0 -80.5 -31 q-31.5 -31 -39.5 -80 q-9 -54 16.5 -85.5 q25.5 -31.5 74.5 -31.5 Z" /><glyph glyph-name="seven" unicode="7" d="M25 0 l437 625 l-3 -50 l-362 0 l22 130 l507 0 l-18 -116 l-407 -589 l-176 0 Z" /><glyph glyph-name="eight" unicode="8" d="M271 -11 q-134 0 -199 59.5 q-65 59.5 -50 159.5 q12 71 64 115 q52 44 124 53 l-3 -26 q-62 14 -93 65.5 q-31 51.5 -21 118.5 q14 88 86.5 135 q72.5 47 190.5 47 q79 0 132 -25.5 q53 -25.5 77.5 -71 q24.5 -45.5 14.5 -105.5 q-11 -68 -56 -112 q-45 -44 -109 -54 l3 24 q46 -8 77.5 -34 q31.5 -26 45 -65.5 q13.5 -39.5 4.5 -90.5 q-15 -94 -91.5 -143.5 q-76.5 -49.5 -196.5 -49.5 ZM278 108 q62 0 98 23.5 q36 23.5 43 70.5 q8 47 -20.5 71 q-28.5 24 -92.5 24 q-62 0 -97.5 -22.5 q-35.5 -22.5 -43.5 -68.5 q-7 -45 21 -71.5 q28 -26.5 92 -26.5 ZM327 416 q52 0 84 22.5 q32 22.5 39 65.5 q6 43 -18 68 q-24 25 -77 25 q-53 0 -84 -23 q-31 -23 -38 -63 q-6 -41 17.5 -68 q23.5 -27 76.5 -27 Z" /><glyph glyph-name="nine" unicode="9" d="M215 -11 q-58 0 -110.5 17.5 q-52.5 17.5 -89.5 54.5 l55 115 q33 -29 71.5 -43.5 q38.5 -14.5 81.5 -14.5 q82 0 134 53.5 q52 53.5 68 161.5 l10 65 l15 0 q-23 -71 -73.5 -111 q-50.5 -40 -124.5 -40 q-60 0 -105.5 30.5 q-45.5 30.5 -66.5 86 q-21 55.5 -9 130.5 q11 72 48 121 q37 49 93.5 75 q56.5 26 125.5 26 q93 0 152 -44 q59 -44 80 -127.5 q21 -83.5 2 -202.5 q-18 -118 -67.5 -196.5 q-49.5 -78.5 -123.5 -117.5 q-74 -39 -166 -39 ZM303 368 q50 0 82 31 q32 31 40 80 q8 53 -17 85 q-25 32 -75 32 q-52 0 -82.5 -30 q-30.5 -30 -37.5 -80 q-9 -54 16.5 -86 q25.5 -32 73.5 -32 Z" /><glyph glyph-name="fraction" unicode="&#x2044;" d="M-89 -11 l-128 0 l539 727 l128 0 l-539 -727 Z" /><glyph glyph-name="period" unicode="." d="M9 0 l25 160 l162 0 l-26 -160 l-161 0 Z" /><glyph glyph-name="comma" unicode="," d="M64 -144 l-51 56 q38 33 55 59.5 q17 26.5 24 64.5 l30 -36 l-113 0 l25 160 l161 0 l-18 -116 q-5 -37 -17 -68.5 q-12 -31.5 -35 -60.5 q-23 -29 -61 -59 Z" /><glyph glyph-name="colon" unicode=":" d="M64 347 l25 160 l162 0 l-26 -160 l-161 0 ZM9 0 l25 160 l161 0 l-25 -160 l-161 0 Z" /><glyph glyph-name="semicolon" unicode=";" d="M59 -144 l-51 47 q41 35 60.5 66 q19.5 31 24.5 67 l27 -36 l-110 0 l25 160 l162 0 l-18 -112 q-9 -57 -35.5 -102.5 q-26.5 -45.5 -84.5 -89.5 ZM64 346 l25 160 l162 0 l-26 -160 l-161 0 Z" /><glyph glyph-name="exclam" unicode="!" d="M80 223 l29 482 l186 0 l-123 -482 l-92 0 ZM9 0 l25 160 l162 0 l-25 -160 l-162 0 Z" /><glyph glyph-name="exclamdown" unicode="¡" d="M-32 -180 l121 464 l91 0 l-26 -464 l-186 0 ZM64 347 l25 160 l162 0 l-25 -160 l-162 0 Z" /><glyph glyph-name="question" unicode="?" d="M166 223 l8 47 q4 29 14.5 54.5 q10.5 25.5 31.5 51.5 q21 26 54 55 q19 17 34 34.5 q15 17.5 25 36.5 q10 19 10 38 q0 24 -19.5 37.5 q-19.5 13.5 -55.5 13.5 q-40 0 -81 -13 q-41 -13 -78 -34 l20 127 q38 21 88.5 33 q50.5 12 94.5 12 q56 0 98 -18.5 q42 -18.5 65.5 -51 q23.5 -32.5 23.5 -76.5 q0 -41 -16.5 -76 q-16.5 -35 -44.5 -63.5 q-28 -28.5 -64 -52.5 q-55 -40 -78 -69 q-23 -29 -30 -56 l-10 -30 l-90 0 ZM94 0 l26 160 l162 0 l-25 -160 l-163 0 Z" /><glyph glyph-name="questiondown" unicode="¿" d="M163 -200 q-54 0 -96.5 18.5 q-42.5 18.5 -66.5 51.5 q-24 33 -24 76 q0 42 17 77 q17 35 45 63.5 q28 28.5 63 52.5 q56 40 77.5 69.5 q21.5 29.5 31.5 54.5 l9 21 l91 0 l-7 -37 q-5 -29 -16 -54.5 q-11 -25.5 -31 -51.5 q-20 -26 -54 -55 q-18 -17 -34 -34.5 q-16 -17.5 -25.5 -36.5 q-9.5 -19 -9.5 -39 q0 -24 19.5 -37.5 q19.5 -13.5 54.5 -13.5 q40 0 81 13.5 q41 13.5 79 33.5 l-20 -126 q-38 -22 -88.5 -34 q-50.5 -12 -95.5 -12 ZM382 507 l-26 -160 l-163 0 l25 160 l164 0 Z" /><glyph glyph-name="periodcentered" unicode="·" d="M41 196 l25 160 l162 0 l-24 -160 l-163 0 Z" /><glyph glyph-name="bullet" unicode="&#x2022;" d="M268 89 q-49 0 -90.5 23.5 q-41.5 23.5 -66.5 64 q-25 40.5 -25 90.5 q0 46 23.5 87 q23.5 41 64.5 66.5 q41 25.5 94 25.5 q49 0 90 -23.5 q41 -23.5 66.5 -63.5 q25.5 -40 25.5 -92 q0 -49 -25 -89.5 q-25 -40.5 -66 -64.5 q-41 -24 -91 -24 Z" /><glyph glyph-name="asterisk" unicode="*" d="M185 345 l-78 57 l102 112 l-140 39 l36 91 l134 -53 l3 145 l97 0 l-20 -144 l142 52 l24 -91 l-147 -39 l85 -112 l-78 -57 l-70 122 l-90 -122 Z" /><glyph glyph-name="numbersign" unicode="#" d="M33 0 l59 166 l-65 0 l15 93 l82 0 l71 195 l-98 0 l14 94 l118 0 l57 157 l101 0 l-57 -157 l111 0 l57 157 l100 0 l-57 -157 l64 0 l-15 -94 l-82 0 l-72 -195 l101 0 l-15 -93 l-119 0 l-59 -166 l-101 0 l59 166 l-109 0 l-58 -166 l-102 0 ZM226 259 l109 0 l71 195 l-110 0 l-70 -195 Z" /><glyph glyph-name="slash" unicode="/" d="M53 -61 l-129 0 l401 816 l128 0 l-400 -816 Z" /><glyph glyph-name="backslash" unicode="\" d="M196 -61 l-143 816 l120 0 l143 -816 l-120 0 Z" /><glyph glyph-name="parenleft" unicode="(" d="M167 -180 q-38 80 -55.5 165 q-17.5 85 -17.5 166 q0 106 27 206.5 q27 100.5 74 189 q47 88.5 107 158.5 l122 0 q-75 -134 -124.5 -286 q-49.5 -152 -49.5 -322 q0 -60 10 -131 q10 -71 26 -146 l-119 0 Z" /><glyph glyph-name="parenright" unicode=")" d="M79 -180 l-122 0 q76 134 125.5 286.5 q49.5 152.5 49.5 321.5 q0 60 -10 131 q-10 71 -27 146 l120 0 q37 -80 54.5 -164.5 q17.5 -84.5 17.5 -166.5 q0 -105 -27 -205.5 q-27 -100.5 -74 -189 q-47 -88.5 -107 -159.5 Z" /><glyph glyph-name="braceleft" unicode="{" d="M231 -180 q-51 0 -84 17.5 q-33 17.5 -46.5 47.5 q-13.5 30 -7.5 68 l28 174 q6 39 -3 56 q-9 17 -44 20 l-42 5 l16 108 l43 5 q35 3 50.5 20 q15.5 17 22.5 56 l28 175 q11 68 47.5 100.5 q36.5 32.5 94.5 32.5 l136 0 l-18 -112 l-65 0 q-19 0 -32.5 -9.5 q-13.5 -9.5 -17.5 -33.5 l-27 -171 q-5 -36 -24.5 -62.5 q-19.5 -26.5 -45 -40.5 q-25.5 -14 -47.5 -14 l-1 4 q23 0 43 -15.5 q20 -15.5 31.5 -42.5 q11.5 -27 5.5 -63 l-26 -170 q-4 -24 5 -33.5 q9 -9.5 29 -9.5 l68 0 l-18 -112 l-99 0 Z" /><glyph glyph-name="braceright" unicode="}" d="M-54 -180 l18 112 l66 0 q19 0 32.5 9.5 q13.5 9.5 17.5 33.5 l26 171 q6 37 25.5 63 q19.5 26 45 40.5 q25.5 14.5 47.5 14.5 l1 -4 q-22 0 -42.5 15 q-20.5 15 -31.5 42.5 q-11 27.5 -6 63.5 l27 169 q4 24 -5.5 33.5 q-9.5 9.5 -29.5 9.5 l-68 0 l17 112 l100 0 q51 0 84 -17.5 q33 -17.5 46.5 -47.5 q13.5 -30 7.5 -68 l-28 -174 q-6 -39 3 -56 q9 -17 44 -20 l42 -4 l-17 -109 l-42 -4 q-34 -4 -50.5 -21 q-16.5 -17 -22.5 -56 l-28 -175 q-11 -68 -48 -100.5 q-37 -32.5 -94 -32.5 l-137 0 Z" /><glyph glyph-name="bracketleft" unicode="[" d="M30 -180 l140 885 l261 0 l-18 -112 l-112 0 l-104 -661 l112 0 l-18 -112 l-261 0 Z" /><glyph glyph-name="bracketright" unicode="]" d="M-52 -180 l17 112 l112 0 l104 661 l-111 0 l18 112 l259 0 l-140 -885 l-259 0 Z" /><glyph glyph-name="hyphen" unicode="-" d="M59 217 l19 118 l314 0 l-18 -118 l-315 0 Z" /><glyph glyph-name="endash" unicode="&#x2013;" d="M-3 232 l14 88 l504 0 l-13 -88 l-505 0 Z" /><glyph glyph-name="emdash" unicode="&#x2014;" d="M-3 232 l14 88 l1009 0 l-13 -88 l-1010 0 Z" /><glyph glyph-name="figuredash" unicode="&#x2012;" d="M60 232 l14 88 l471 0 l-14 -88 l-471 0 Z" /><glyph glyph-name="uni2015" unicode="&#x2015;" d="M-3 232 l14 88 l1009 0 l-13 -88 l-1010 0 Z" /><glyph glyph-name="underscore" unicode="_" d="M-40 -88 l15 88 l475 0 l-14 -88 l-476 0 Z" /><glyph glyph-name="quotesinglbase" unicode="&#x201a;" d="M64 -144 l-51 56 q38 33 55 59.5 q17 26.5 25 64.5 l29 -36 l-113 0 l25 160 l162 0 l-19 -116 q-5 -37 -17 -68.5 q-12 -31.5 -34.5 -60.5 q-22.5 -29 -61.5 -59 Z" /><glyph glyph-name="quoteleft" unicode="&#x2018;" d="M73 409 l19 116 q6 38 17.5 69.5 q11.5 31.5 34.5 60 q23 28.5 61 58.5 l51 -55 q-37 -33 -54.5 -59.5 q-17.5 -26.5 -24.5 -64.5 l-30 36 l113 0 l-25 -161 l-162 0 Z" /><glyph glyph-name="quoteright" unicode="&#x2019;" d="M150 402 l-51 55 q38 33 55 59.5 q17 26.5 24 64.5 l30 -36 l-113 0 l26 160 l162 0 l-19 -115 q-6 -38 -18 -69 q-12 -31 -34.5 -60 q-22.5 -29 -61.5 -59 Z" /><glyph glyph-name="guilsinglleft" unicode="&#x2039;" d="M126 85 l-102 182 l160 184 l132 0 l-164 -192 l95 -174 l-121 0 Z" /><glyph glyph-name="guilsinglright" unicode="&#x203a;" d="M132 85 l-131 0 l163 192 l-95 174 l121 0 l102 -182 l-160 -184 Z" /><glyph glyph-name="quotesingle" unicode="&#39;" d="M102 407 l11 298 l174 0 l-84 -298 l-101 0 Z" /><glyph glyph-name="uni27E8" unicode="&#x27e8;" d="M292 0 l-69 350 l164 355 l66 0 l-166 -361 l66 -344 l-61 0 Z" /><glyph glyph-name="uni27E9" unicode="&#x27e9;" d="M179 0 l166 362 l-66 343 l60 0 l70 -349 l-164 -356 l-66 0 Z" /><glyph glyph-name="uni20B5" unicode="&#x20b5;" d="M228 -115 l21 136 l36 -17 q-85 9 -140.5 59.5 q-55.5 50.5 -76.5 131.5 q-21 81 -6 181 q17 101 60.5 172.5 q43.5 71.5 110 112 q66.5 40.5 148.5 45.5 l-27 -21 l22 135 l119 0 l-22 -134 l-40 23 q42 -2 77 -11 q35 -9 62 -23.5 q27 -14.5 45 -33.5 l-56 -118 q-26 25 -59 37 q-33 12 -73 12 q-88 0 -139.5 -55.5 q-51.5 -55.5 -66.5 -152.5 q-17 -112 19.5 -171.5 q36.5 -59.5 119.5 -59.5 q40 0 76.5 13.5 q36.5 13.5 72.5 44.5 l46 -115 q-24 -24 -61 -41 q-37 -17 -78 -26.5 q-41 -9.5 -77 -12.5 l27 23 l-21 -134 l-119 0 Z" /><glyph glyph-name="cent" unicode="¢" d="M199 -115 l23 145 l23 -32 q-91 19 -137.5 85.5 q-46.5 66.5 -30.5 170.5 q16 99 78.5 161.5 q62.5 62.5 167.5 77.5 l-34 -37 l25 154 l118 0 l-23 -145 l-27 32 q50 -1 92 -14 q42 -13 69 -37 l-47 -102 q-22 19 -53.5 28.5 q-31.5 9.5 -60.5 9.5 q-57 0 -98 -33 q-41 -33 -52 -98 q-7 -42 3.5 -75 q10.5 -33 38.5 -51.5 q28 -18.5 71 -18.5 q28 0 60.5 10.5 q32.5 10.5 60.5 30.5 l40 -101 q-34 -27 -90 -43 q-56 -16 -115 -13 l38 32 l-22 -137 l-118 0 Z" /><glyph glyph-name="colonmonetary" unicode="&#x20a1;" d="M-8 -115 l114 279 l4 -63 q-34 45 -47.5 116.5 q-13.5 71.5 -0.5 158.5 q22 140 98.5 223 q76.5 83 186.5 102 l-30 -30 l61 149 l97 0 l-55 -131 l-4 19 q24 0 53 -3 q29 -3 46 -10 l-26 -14 l59 139 l96 0 l-69 -167 l-23 32 q16 -7 33.5 -17.5 q17.5 -10.5 31.5 -26.5 l-56 -118 q-26 25 -59 37 q-33 12 -73 12 q-88 0 -139.5 -55.5 q-51.5 -55.5 -66.5 -152.5 q-17 -112 19.5 -171.5 q36.5 -59.5 119.5 -59.5 q41 0 77 13.5 q36 13.5 72 44.5 l46 -115 q-24 -24 -58.5 -42 q-34.5 -18 -73 -28 q-38.5 -10 -78.5 -10 q-8 0 -23.5 1 q-15.5 1 -29.5 3 q-14 2 -21 4 l38 11 l-53 -130 l-97 0 l61 148 l8 -19 q-22 8 -45 20.5 q-23 12.5 -40 28.5 l17 -1 l-73 -177 l-97 0 Z" /><glyph glyph-name="currency" unicode="¤" d="M118 -32 l-56 56 l73 75 q-22 31 -34 68.5 q-12 37.5 -12 77.5 q0 41 12 78.5 q12 37.5 34 68.5 l-73 74 l56 57 l74 -75 q30 21 65.5 33 q35.5 12 74.5 12 q39 0 74.5 -11.5 q35.5 -11.5 64.5 -32.5 l74 76 l60 -61 l-75 -75 q22 -31 32.5 -67.5 q10.5 -36.5 10.5 -76.5 q0 -40 -11.5 -77 q-11.5 -37 -32.5 -68 l74 -76 l-56 -55 l-73 75 q-30 -22 -66 -34.5 q-36 -12.5 -76 -12.5 q-39 0 -75.5 12 q-36.5 12 -65.5 33 l-73 -74 ZM332 116 q33 0 61 17.5 q28 17.5 44 47 q16 29.5 16 64.5 q0 36 -16 65.5 q-16 29.5 -44 47 q-28 17.5 -61 17.5 q-33 0 -61 -17.5 q-28 -17.5 -44.5 -47 q-16.5 -29.5 -16.5 -65.5 q0 -35 16 -64.5 q16 -29.5 43.5 -47 q27.5 -17.5 62.5 -17.5 Z" /><glyph glyph-name="dollar" unicode="$" d="M192 -115 l21 133 l29 -24 q-43 3 -88 11.5 q-45 8.5 -84 23.5 q-39 15 -66 36 l58 120 q40 -28 96 -45.5 q56 -17.5 122 -17.5 q66 0 99.5 21.5 q33.5 21.5 37.5 53.5 q5 28 -13.5 47 q-18.5 19 -68.5 28 l-94 20 q-55 13 -95 41 q-40 28 -58 70 q-18 42 -10 95 q11 64 46 108 q35 44 91.5 70 q56.5 26 131.5 33 l-28 -16 l21 127 l119 0 l-21 -127 l-21 18 q52 -4 103 -22 q51 -18 82 -48 l-53 -114 q-32 27 -77.5 41.5 q-45.5 14.5 -97.5 14.5 q-66 0 -103 -23 q-37 -23 -44 -60 q-5 -30 12.5 -48.5 q17.5 -18.5 65.5 -29.5 l94 -20 q100 -21 140.5 -72.5 q40.5 -51.5 27.5 -133.5 q-14 -87 -84 -137.5 q-70 -50.5 -175 -62.5 l24 23 l-21 -134 l-119 0 Z" /><glyph glyph-name="dong" unicode="&#x20ab;" d="M209 -11 q-64 0 -106 33.5 q-42 33.5 -58.5 94 q-16.5 60.5 -3.5 141.5 q20 118 80.5 180.5 q60.5 62.5 150.5 62.5 q53 0 91 -24.5 q38 -24.5 52 -78.5 l-13 0 l25 160 l-139 0 l15 90 l139 0 l14 88 l151 0 l-14 -88 l68 0 l-15 -90 l-68 0 l-88 -558 l-149 0 l15 93 l14 0 q-27 -53 -69 -78.5 q-42 -25.5 -92 -25.5 ZM-1 -156 l14 90 l467 0 l-14 -90 l-467 0 ZM263 103 q43 0 74 33 q31 33 42 102 q13 79 -7.5 114.5 q-20.5 35.5 -64.5 35.5 q-43 0 -74.5 -33 q-31.5 -33 -42.5 -104 q-13 -76 8 -112 q21 -36 65 -36 Z" /><glyph glyph-name="Euro" unicode="&#x20ac;" d="M386 -12 q-77 0 -137.5 29.5 q-60.5 29.5 -96 89.5 q-35.5 60 -39.5 149 l10 -25 l-106 0 l14 86 l100 0 l-25 -19 q3 31 7.5 57.5 q4.5 26.5 11.5 53.5 l19 -20 l-101 0 l14 86 l112 0 l-37 -26 q30 95 78 154 q48 59 112 86.5 q64 27.5 138 27.5 q61 0 108 -19.5 q47 -19.5 67 -48.5 l-53 -110 q-25 25 -55 35.5 q-30 10.5 -67 10.5 q-55 0 -97 -32.5 q-42 -32.5 -68 -99.5 l-16 22 l166 0 l-14 -86 l-182 0 l28 17 q-4 -22 -8.5 -50 q-4.5 -28 -7.5 -50 l-22 11 l180 0 l-14 -86 l-163 0 l28 21 q10 -71 42 -101.5 q32 -30.5 86 -30.5 q36 0 68.5 12.5 q32.5 12.5 68.5 43.5 l43 -108 q-39 -39 -88.5 -59.5 q-49.5 -20.5 -103.5 -20.5 Z" /><glyph glyph-name="florin" unicode="&#x192;" d="M-43 -191 l18 119 l63 0 q32 0 55.5 19 q23.5 19 40.5 64 l143 386 l24 -19 l-132 0 l18 113 l150 0 l-32 -19 l18 52 q31 90 98.5 141 q67.5 51 158.5 51 l67 0 l-19 -119 l-51 0 q-41 0 -65.5 -19.5 q-24.5 -19.5 -41.5 -64.5 l-15 -41 l-18 19 l133 0 l-18 -113 l-150 0 l25 20 l-148 -398 q-34 -89 -98 -140 q-64 -51 -150 -51 l-74 0 Z" /><glyph glyph-name="franc" unicode="&#x20a3;" d="M53 0 l17 113 l-75 0 l15 90 l75 0 l80 502 l468 0 l-19 -121 l-313 0 l-26 -162 l291 0 l-19 -120 l-291 0 l-16 -99 l186 0 l-14 -90 l-186 0 l-18 -113 l-155 0 Z" /><glyph glyph-name="uni20B2" unicode="&#x20b2;" d="M218 -115 l21 140 l45 -25 q-91 11 -149 59 q-58 48 -79 126.5 q-21 78.5 -5 184.5 q25 151 111 236.5 q86 85.5 215 99.5 l-33 -21 l22 135 l119 0 l-22 -135 l-20 24 q31 -2 63.5 -11 q32.5 -9 61 -23.5 q28.5 -14.5 45.5 -34.5 l-61 -113 q-28 26 -63 35.5 q-35 9.5 -70 9.5 q-90 0 -142.5 -56 q-52.5 -56 -67.5 -156 q-18 -113 16 -172 q34 -59 124 -59 q23 0 52 4.5 q29 4.5 57 17.5 l-55 -59 l31 192 l-111 0 l17 105 l241 0 l-53 -340 q-51 -23 -101.5 -36 q-50.5 -13 -93.5 -17 l25 29 l-21 -140 l-119 0 Z" /><glyph glyph-name="uni20B4" unicode="&#x20b4;" d="M275 -11 q-107 0 -164.5 43 q-57.5 43 -46.5 113 q4 24 17 48.5 q13 24.5 41 53.5 l5 -16 l-84 0 l14 86 l162 0 l-46 -11 l111 90 l12 -7 l-228 0 l14 86 l321 0 l-47 -18 q20 18 32 31.5 q12 13.5 18 26 q6 12.5 8 25.5 q4 27 -14.5 39.5 q-18.5 12.5 -59.5 12.5 q-34 0 -76.5 -13 q-42.5 -13 -84.5 -41 l-42 106 q54 35 122.5 53.5 q68.5 18.5 134.5 18.5 q99 0 148.5 -38 q49.5 -38 39.5 -105 q-6 -32 -21 -58 q-15 -26 -48 -57 l-6 17 l81 0 l-13 -86 l-162 0 l32 7 l-109 -91 l-7 12 l234 0 l-14 -86 l-320 0 l47 21 q-21 -18 -32.5 -35.5 q-11.5 -17.5 -14.5 -38.5 q-5 -27 16.5 -45.5 q21.5 -18.5 70.5 -18.5 q46 0 92.5 16.5 q46.5 16.5 82.5 43.5 l47 -108 q-35 -25 -76.5 -42.5 q-41.5 -17.5 -88 -26 q-46.5 -8.5 -98.5 -8.5 Z" /><glyph glyph-name="uni20AD" unicode="&#x20ad;" d="M48 0 l48 307 l-67 0 l15 90 l67 0 l49 308 l151 0 l-48 -300 l2 0 l242 300 l161 0 l-256 -321 l-2 13 l178 0 l-14 -90 l-178 0 l2 11 l159 -318 l-156 0 l-153 302 l-2 0 l-47 -302 l-151 0 Z" /><glyph glyph-name="lira" unicode="&#x20a4;" d="M1 0 l16 103 q39 12 62 31.5 q23 19.5 28 53.5 l7 44 l-77 0 l14 86 l77 0 l11 68 l-77 0 l14 89 l95 0 l-24 -39 l8 53 q17 109 87 168 q70 59 185 59 q64 0 115.5 -17.5 q51.5 -17.5 86.5 -49.5 l-54 -109 q-35 28 -67.5 40.5 q-32.5 12.5 -72.5 12.5 q-56 0 -86 -25.5 q-30 -25.5 -37 -77.5 l-7 -39 l-12 24 l179 0 l-13 -85 l-164 0 l-11 -72 l163 0 l-13 -86 l-164 0 l-4 -28 q-5 -32 -24.5 -53 q-19.5 -21 -46.5 -30 l1 4 l355 0 l-20 -125 l-530 0 Z" /><glyph glyph-name="uni20BA" unicode="&#x20ba;" d="M91 0 l32 207 l-80 -41 l15 94 l81 42 l12 73 l-81 -41 l15 94 l80 41 l38 236 l156 0 l-25 -148 l173 88 l-16 -94 l-171 -89 l-11 -73 l171 89 l-15 -95 l-172 -89 l-26 -166 l70 0 q39 0 58.5 16.5 q19.5 16.5 25.5 56.5 l9 58 l145 0 l-10 -68 q-15 -97 -74 -144 q-59 -47 -166 -47 l-234 0 Z" /><glyph glyph-name="uni20BC" unicode="&#x20bc;" d="M-6 0 l33 207 q26 172 93.5 271.5 q67.5 99.5 195.5 116.5 l-26 -27 l23 137 l118 0 l-22 -137 l-15 27 q81 -17 122.5 -71 q41.5 -54 50 -135.5 q8.5 -81.5 -7.5 -181.5 l-33 -207 l-132 0 l33 207 q21 127 8 190.5 q-13 63.5 -63 76.5 l10 3 l-51 -317 l-92 0 l51 317 l8 -3 q-35 -9 -61.5 -41 q-26.5 -32 -45.5 -88.5 q-19 -56.5 -32 -137.5 l-33 -207 l-132 0 Z" /><glyph glyph-name="uni20A6" unicode="&#x20a6;" d="M61 0 l37 233 l-81 0 l13 86 l81 0 l12 72 l-81 0 l14 86 l80 0 l37 228 l123 0 l99 -488 l-27 3 l77 485 l126 0 l-36 -228 l81 0 l-14 -86 l-80 0 l-12 -72 l80 0 l-13 -86 l-80 0 l-38 -233 l-122 0 l-99 488 l26 -3 l-77 -485 l-126 0 Z" /><glyph glyph-name="peseta" unicode="&#x20a7;" d="M61 0 l67 420 l-80 0 l14 90 l80 0 l31 195 l163 0 q76 0 126 -27.5 q50 -27.5 72.5 -77.5 q22.5 -50 15.5 -119 l-23 29 l93 0 l-13 -90 l-95 0 l32 30 q-14 -81 -49.5 -130.5 q-35.5 -49.5 -85 -72 q-49.5 -22.5 -104.5 -22.5 l-58 0 l-36 -225 l-150 0 ZM257 327 l46 0 q46 0 75.5 27 q29.5 27 39.5 93 q10 62 3.5 95.5 q-6.5 33.5 -25.5 46.5 q-19 13 -50 13 l-47 0 l-42 -275 Z" /><glyph glyph-name="uni20B1" unicode="&#x20b1;" d="M61 0 l54 343 l-80 0 l14 86 l80 0 l11 72 l-80 0 l14 86 l80 0 l19 118 l163 0 q84 0 137 -34 q53 -34 71 -98 l-29 14 l119 0 l-14 -86 l-83 0 l14 9 q1 -20 -3 -43 q-4 -23 -12 -44 l-11 6 l83 0 l-13 -86 l-118 0 l39 15 q-32 -68 -87.5 -100.5 q-55.5 -32.5 -123.5 -32.5 l-58 0 l-36 -225 l-150 0 ZM257 327 l46 0 q46 0 75.5 27 q29.5 27 39.5 93 q9 62 3 95.5 q-6 33.5 -25 46.5 q-19 13 -50 13 l-47 0 l-42 -275 Z" /><glyph glyph-name="uni20BD" unicode="&#x20bd;" d="M61 0 l22 143 l-80 0 l14 85 l80 0 l11 72 l-80 0 l14 86 l80 0 l51 319 l227 0 q88 0 140.5 -27.5 q52.5 -27.5 73 -75.5 q20.5 -48 10.5 -112 q-9 -60 -43.5 -102.5 q-34.5 -42.5 -90 -65 q-55.5 -22.5 -131.5 -22.5 l-96 0 l-11 -72 l152 0 l-13 -85 l-152 0 l-23 -143 l-155 0 ZM275 386 l73 0 q57 0 91.5 23.5 q34.5 23.5 42.5 77.5 q9 56 -18 80.5 q-27 24.5 -84 24.5 l-73 0 l-32 -206 Z" /><glyph glyph-name="uni20B9" unicode="&#x20b9;" d="M355 0 l-113 223 q-13 26 -30 37.5 q-17 11.5 -47 11.5 l-141 0 l17 103 l190 0 q63 0 98.5 25.5 q35.5 25.5 53.5 70.5 l17 -10 l-346 0 l14 85 l346 0 l-23 -14 q-2 42 -29.5 64.5 q-27.5 22.5 -87.5 22.5 l-195 0 l14 86 l559 0 l-14 -86 l-162 0 l7 15 q34 -17 46 -45 q12 -28 10 -64 l-23 21 l111 0 l-14 -85 l-108 0 l30 27 q-11 -64 -47 -111 q-36 -47 -92.5 -72.5 q-56.5 -25.5 -126.5 -25.5 l-6 11 l35 0 q49 0 80 -17.5 q31 -17.5 53 -60.5 l112 -212 l-188 0 Z" /><glyph glyph-name="sterling" unicode="£" d="M1 0 l16 103 q39 12 62 31.5 q23 19.5 28 53.5 l20 120 l-78 0 l14 90 l78 0 l14 91 q18 109 87.5 168 q69.5 59 183.5 59 q64 0 116 -17.5 q52 -17.5 87 -49.5 l-54 -109 q-35 28 -68 40.5 q-33 12.5 -72 12.5 q-56 0 -86 -25.5 q-30 -25.5 -37 -77.5 l-15 -92 l159 0 l-14 -90 l-158 0 l-14 -87 q-7 -39 -27 -64 q-20 -25 -52 -36 l1 4 l359 0 l-20 -125 l-530 0 Z" /><glyph glyph-name="uni20B8" unicode="&#x20b8;" d="M182 0 l73 461 l-212 0 l13 86 l582 0 l-14 -86 l-213 0 l-73 -461 l-156 0 ZM68 619 l14 86 l581 0 l-14 -86 l-581 0 Z" /><glyph glyph-name="uni20AE" unicode="&#x20ae;" d="M182 0 l22 136 l-124 -54 l14 90 l124 54 l12 77 l-124 -54 l14 89 l125 55 l28 185 l-207 0 l21 127 l571 0 l-22 -127 l-207 0 l-17 -113 l124 54 l-15 -90 l-123 -54 l-13 -77 l124 54 l-14 -90 l-123 -54 l-34 -208 l-156 0 Z" /><glyph glyph-name="uni20A9" unicode="&#x20a9;" d="M107 0 l6 234 l-95 0 l13 86 l83 0 l2 72 l-73 0 l14 86 l61 0 l6 227 l108 0 l-29 -527 l-28 0 l164 527 l71 0 l-4 -527 l-28 0 l139 527 l103 0 l-67 -227 l62 0 l-14 -86 l-73 0 l-21 -72 l83 0 l-14 -86 l-94 0 l-69 -234 l-78 0 l-8 545 l39 0 l-181 -545 l-78 0 Z" /><glyph glyph-name="yen" unicode="¥" d="M182 0 l25 159 l-156 0 l13 86 l157 0 l11 72 l-156 0 l13 86 l129 0 l-3 -18 l-166 320 l163 0 l128 -266 l-33 0 l215 266 l173 0 l-269 -320 l3 18 l129 0 l-13 -86 l-157 0 l-12 -72 l157 0 l-13 -86 l-157 0 l-26 -159 l-155 0 Z" /><glyph glyph-name="periodcentered" unicode="&#x2219;" d="M209 188 l26 160 l161 0 l-26 -160 l-161 0 Z" /><glyph glyph-name="uni2052" unicode="&#x2052;" d="M160 -46 l-139 0 l516 793 l139 0 l-516 -793 ZM365 19 l25 160 l161 0 l-25 -160 l-161 0 ZM142 526 l24 160 l162 0 l-25 -160 l-161 0 Z" /><glyph glyph-name="fraction" unicode="&#x2215;" d="M181 -46 l-129 0 l389 793 l129 0 l-389 -793 Z" /><glyph glyph-name="plus" unicode="+" d="M213 40 l31 195 l-193 0 l17 104 l192 0 l30 189 l107 0 l-30 -189 l192 0 l-17 -104 l-191 0 l-31 -195 l-107 0 Z" /><glyph glyph-name="minus" unicode="&#x2212;" d="M51 235 l17 104 l491 0 l-17 -104 l-491 0 Z" /><glyph glyph-name="multiply" unicode="×" d="M138 52 l-71 72 l176 163 l-147 160 l75 73 l148 -161 l175 161 l70 -73 l-176 -161 l147 -162 l-74 -72 l-148 161 l-175 -161 Z" /><glyph glyph-name="divide" unicode="÷" d="M51 235 l17 104 l491 0 l-17 -104 l-491 0 ZM202 34 l19 115 l114 0 l-18 -115 l-115 0 ZM264 425 l18 115 l115 0 l-18 -115 l-115 0 Z" /><glyph glyph-name="equal" unicode="=" d="M67 335 l17 104 l490 0 l-17 -104 l-490 0 ZM36 136 l17 103 l489 0 l-16 -103 l-490 0 Z" /><glyph glyph-name="notequal" unicode="&#x2260;" d="M193 5 l-87 54 l44 77 l-114 0 l17 103 l158 0 l57 96 l-201 0 l17 104 l245 0 l77 130 l88 -54 l-45 -76 l125 0 l-17 -104 l-168 0 l-58 -96 l211 0 l-16 -103 l-256 0 l-77 -131 Z" /><glyph glyph-name="greater" unicode="&gt;" d="M20 31 l19 119 l477 180 l-12 -74 l-420 180 l18 107 l458 -199 l-18 -113 l-522 -200 Z" /><glyph glyph-name="less" unicode="&lt;" d="M509 31 l-458 200 l18 113 l522 199 l-19 -119 l-477 -180 l11 73 l421 -179 l-18 -107 Z" /><glyph glyph-name="greaterequal" unicode="&#x2265;" d="M35 131 l18 111 l484 134 l-10 -73 l-443 135 l17 105 l467 -149 l-19 -114 l-514 -149 ZM15 0 l16 103 l490 0 l-16 -103 l-490 0 Z" /><glyph glyph-name="lessequal" unicode="&#x2264;" d="M524 131 l-465 149 l19 114 l513 149 l-18 -111 l-484 -135 l11 74 l442 -136 l-18 -104 ZM15 0 l16 103 l489 0 l-16 -103 l-489 0 Z" /><glyph glyph-name="plusminus" unicode="±" d="M229 146 l23 141 l-192 0 l17 104 l191 0 l23 141 l107 0 l-23 -141 l191 0 l-16 -104 l-191 0 l-23 -141 l-107 0 ZM15 0 l16 103 l490 0 l-17 -103 l-489 0 Z" /><glyph glyph-name="approxequal" unicode="&#x2248;" d="M430 304 q-32 0 -63 12.5 q-31 12.5 -60 25.5 q-24 13 -45.5 22 q-21.5 9 -39.5 9 q-25 0 -45 -15.5 q-20 -15.5 -35 -44.5 l-70 50 q25 51 59.5 79.5 q34.5 28.5 79.5 28.5 q32 0 64.5 -13 q32.5 -13 60.5 -26 q25 -12 45.5 -21 q20.5 -9 38.5 -9 q25 0 45 15 q20 15 36 45 l70 -52 q-25 -49 -60 -77.5 q-35 -28.5 -81 -28.5 ZM399 103 q-32 0 -63.5 13 q-31.5 13 -59.5 26 q-24 12 -46 21.5 q-22 9.5 -40 9.5 q-25 0 -44.5 -16 q-19.5 -16 -34.5 -45 l-70 50 q25 52 59 80 q34 28 79 28 q33 0 65 -13 q32 -13 61 -26 q25 -12 45 -21 q20 -9 38 -9 q26 0 45.5 15 q19.5 15 35.5 45 l70 -51 q-24 -50 -59.5 -78.5 q-35.5 -28.5 -80.5 -28.5 Z" /><glyph glyph-name="asciitilde" unicode="~" d="M415 204 q-32 0 -63 12.5 q-31 12.5 -60 25.5 q-24 13 -45.5 22 q-21.5 9 -40.5 9 q-25 0 -44.5 -15.5 q-19.5 -15.5 -35.5 -44.5 l-69 50 q24 51 59 79.5 q35 28.5 80 28.5 q33 0 65 -13 q32 -13 60 -26 q25 -12 45.5 -21 q20.5 -9 37.5 -9 q26 0 46 15 q20 15 36 45 l69 -52 q-24 -49 -59.5 -77.5 q-35.5 -28.5 -80.5 -28.5 Z" /><glyph glyph-name="logicalnot" unicode="¬" d="M419 135 l33 201 l-384 0 l17 103 l489 0 l-48 -304 l-107 0 Z" /><glyph glyph-name="asciicircum" unicode="^" d="M25 140 l278 488 l112 0 l124 -488 l-109 0 l-109 447 l73 0 l-252 -447 l-117 0 Z" /><glyph glyph-name="emptyset" unicode="&#x2205;" d="M96 -17 l-54 35 l79 102 q-45 38 -72.5 92.5 q-27.5 54.5 -27.5 118.5 q0 56 22.5 107 q22.5 51 62.5 91 q40 40 94 63 q54 23 118 23 q40 0 79.5 -10.5 q39.5 -10.5 72.5 -30.5 l80 103 l54 -40 l-80 -102 q40 -38 64.5 -90 q24.5 -52 24.5 -114 q0 -58 -23 -109 q-23 -51 -63.5 -90 q-40.5 -39 -94 -61 q-53.5 -22 -114.5 -22 q-38 0 -74.5 10 q-36.5 10 -68.5 26 l-79 -102 ZM170 182 l253 327 q-23 13 -49.5 20 q-26.5 7 -55.5 7 q-60 0 -108.5 -27 q-48.5 -27 -77 -73 q-28.5 -46 -28.5 -105 q0 -44 17.5 -82.5 q17.5 -38.5 48.5 -66.5 ZM318 127 q57 0 105 26 q48 26 77 72.5 q29 46.5 29 105.5 q0 41 -14.5 76.5 q-14.5 35.5 -39.5 63.5 l-252 -324 q22 -9 45.5 -14.5 q23.5 -5.5 49.5 -5.5 Z" /><glyph glyph-name="infinity" unicode="&#x221e;" d="M169 112 q-64 0 -100 39.5 q-36 39.5 -36 108.5 q0 55 19 99 q19 44 56.5 70.5 q37.5 26.5 89.5 26.5 q31 0 62 -16 q31 -16 53 -59 q28 43 62.5 59 q34.5 16 64.5 16 q66 0 101.5 -40 q35.5 -40 35.5 -107 q0 -55 -19 -99.5 q-19 -44.5 -56 -71 q-37 -26.5 -91 -26.5 q-31 0 -62 16 q-31 16 -52 60 q-28 -44 -63 -60 q-35 -16 -65 -16 ZM182 201 q16 0 32.5 8 q16.5 8 31 26.5 q14.5 18.5 26.5 49.5 q-6 31 -17.5 49 q-11.5 18 -26.5 26 q-15 8 -31 8 q-33 0 -53 -28.5 q-20 -28.5 -20 -67.5 q0 -30 15 -50.5 q15 -20.5 43 -20.5 ZM412 201 q34 0 54 28 q20 28 20 67 q0 31 -15.5 51.5 q-15.5 20.5 -43.5 20.5 q-16 0 -32 -8 q-16 -8 -30.5 -26 q-14.5 -18 -26.5 -49 q6 -31 17.5 -49.5 q11.5 -18.5 26 -26.5 q14.5 -8 30.5 -8 Z" /><glyph glyph-name="integral" unicode="&#x222b;" d="M136 -189 q-24 0 -47.5 3 q-23.5 3 -41.5 10 l18 119 q13 -4 26 -6.5 q13 -2.5 26 -2.5 q31 0 53.5 16 q22.5 16 29.5 57 l82 516 q15 91 70 143 q55 52 146 52 q24 0 47 -3 q23 -3 41 -11 l-18 -118 q-12 4 -25.5 6.5 q-13.5 2.5 -26.5 2.5 q-31 0 -53.5 -16.5 q-22.5 -16.5 -29.5 -57.5 l-82 -516 q-14 -90 -68.5 -142 q-54.5 -52 -146.5 -52 Z" /><glyph glyph-name="Omega" unicode="&#x2126;" d="M-15 0 l20 125 l171 0 l-5 -31 q-62 48 -91 111.5 q-29 63.5 -29 137.5 q0 74 20 141 q20 67 58.5 119 q38.5 52 95.5 82.5 q57 30.5 131 30.5 q75 0 128.5 -31.5 q53.5 -31.5 83 -87 q29.5 -55.5 29.5 -128.5 q0 -82 -24 -156 q-24 -74 -72 -131 q-48 -57 -120 -88 l5 31 l170 0 l-20 -125 l-243 0 l19 121 q34 28 59.5 67.5 q25.5 39.5 42.5 86.5 q17 47 25 95.5 q8 48.5 8 92.5 q0 65 -25.5 96.5 q-25.5 31.5 -71.5 31.5 q-30 0 -55.5 -16.5 q-25.5 -16.5 -44.5 -46.5 q-19 -30 -32 -72.5 q-13 -42.5 -17 -95.5 q-3 -42 -0.5 -84.5 q2.5 -42.5 13.5 -81.5 q11 -39 33 -73 l-19 -121 l-243 0 Z" /><glyph glyph-name="Delta" unicode="&#x2206;" d="M-20 0 l16 99 l317 606 l117 0 l125 -606 l-15 -99 l-560 0 ZM347 519 l-222 -438 l6 40 l310 0 l-7 -40 l-85 438 l-2 0 Z" /><glyph glyph-name="product" unicode="&#x220f;" d="M-16 -180 l140 885 l494 0 l-140 -885 l-140 0 l121 764 l-214 0 l-121 -764 l-140 0 Z" /><glyph glyph-name="radical" unicode="&#x221a;" d="M149 -180 l-65 457 l65 -51 l-148 0 l18 112 l179 0 l48 -395 l-21 0 l324 815 l129 0 l-382 -938 l-147 0 Z" /><glyph glyph-name="mu" unicode="µ" d="M-20 -216 l113 723 l151 0 l-45 -304 q-8 -48 7 -72 q15 -24 55 -24 q47 0 77.5 33 q30.5 33 39.5 90 l41 277 l151 0 l-78 -507 l-147 0 l15 96 l2 0 q-17 -50 -46.5 -78.5 q-29.5 -28.5 -69.5 -28.5 q-30 0 -52.5 12.5 q-22.5 12.5 -33.5 34.5 l0 1 l-28 -253 l-152 0 Z" /><glyph glyph-name="partialdiff" unicode="&#x2202;" d="M271 -11 q-75 0 -128 30.5 q-53 30.5 -81 80.5 q-28 50 -28 110 q0 64 21.5 112.5 q21.5 48.5 58 80 q36.5 31.5 81 47 q44.5 15.5 91.5 15.5 q58 0 102.5 -25.5 q44.5 -25.5 58.5 -73.5 l-15 0 q9 60 -4.5 107.5 q-13.5 47.5 -46 81.5 q-32.5 34 -79.5 52.5 q-47 18.5 -107 18.5 l-36 0 l18 113 q18 3 39 4.5 q21 1.5 49 1.5 q66 0 124 -26.5 q58 -26.5 102 -74.5 q44 -48 69 -112 q25 -64 25 -140 q0 -90 -22.5 -164 q-22.5 -74 -64 -127.5 q-41.5 -53.5 -99.5 -82.5 q-58 -29 -128 -29 ZM281 103 q29 0 52 14 q23 14 40 37.5 q17 23.5 26 52.5 q9 29 9 57 q0 44 -26.5 68.5 q-26.5 24.5 -68.5 24.5 q-38 0 -66 -21.5 q-28 -21.5 -43.5 -56.5 q-15.5 -35 -15.5 -75 q0 -45 25 -73 q25 -28 68 -28 Z" /><glyph glyph-name="percent" unicode="%" d="M301 0 l-133 0 l520 705 l134 0 l-521 -705 ZM234 285 q-92 0 -133.5 60.5 q-41.5 60.5 -25.5 165.5 q16 97 72 151 q56 54 137 54 q92 0 133.5 -60 q41.5 -60 24.5 -165 q-15 -96 -70.5 -151 q-55.5 -55 -137.5 -55 ZM241 378 q31 0 51 28 q20 28 30 88 q10 71 -2.5 99 q-12.5 28 -42.5 28 q-31 0 -50.5 -25.5 q-19.5 -25.5 -29.5 -87.5 q-12 -71 0.5 -100.5 q12.5 -29.5 43.5 -29.5 ZM706 -11 q-92 0 -133.5 60.5 q-41.5 60.5 -25.5 166.5 q16 98 71.5 151 q55.5 53 136.5 53 q92 0 134 -59.5 q42 -59.5 25 -164.5 q-16 -97 -70.5 -152 q-54.5 -55 -137.5 -55 ZM713 84 q31 0 51 27.5 q20 27.5 29 88.5 q12 69 -1 98 q-13 29 -43 29 q-31 0 -51 -26 q-20 -26 -30 -88 q-10 -72 2.5 -100.5 q12.5 -28.5 42.5 -28.5 Z" /><glyph glyph-name="perthousand" unicode="&#x2030;" d="M1115 -11 q-92 0 -133.5 60.5 q-41.5 60.5 -24.5 166.5 q15 98 71 151 q56 53 136 53 q92 0 134.5 -59.5 q42.5 -59.5 25.5 -164.5 q-16 -97 -71.5 -152 q-55.5 -55 -137.5 -55 ZM1122 84 q31 0 51 27.5 q20 27.5 30 88.5 q11 69 -2 98 q-13 29 -43 29 q-31 0 -50.5 -26 q-19.5 -26 -29.5 -88 q-11 -72 1.5 -100.5 q12.5 -28.5 42.5 -28.5 ZM168 0 l520 705 l134 0 l-521 -705 l-133 0 ZM234 285 q-92 0 -133.5 60.5 q-41.5 60.5 -25.5 165.5 q16 97 72 151 q56 54 137 54 q92 0 133.5 -60 q41.5 -60 24.5 -165 q-15 -96 -70.5 -151 q-55.5 -55 -137.5 -55 ZM241 378 q31 0 51 28 q20 28 30 88 q10 71 -2.5 99 q-12.5 28 -42.5 28 q-31 0 -50.5 -25.5 q-19.5 -25.5 -29.5 -87.5 q-12 -71 0.5 -100.5 q12.5 -29.5 43.5 -29.5 ZM706 -11 q-92 0 -133.5 60.5 q-41.5 60.5 -25.5 166.5 q16 98 71.5 151 q55.5 53 136.5 53 q92 0 134 -59.5 q42 -59.5 25 -164.5 q-16 -97 -70.5 -152 q-54.5 -55 -137.5 -55 ZM713 84 q31 0 51 27.5 q20 27.5 29 88.5 q12 69 -1 98 q-13 29 -43 29 q-31 0 -51 -26 q-20 -26 -30 -88 q-10 -72 2.5 -100.5 q12.5 -28.5 42.5 -28.5 Z" /><glyph glyph-name="lozenge" unicode="&#x25ca;" d="M171 -200 l-120 497 l272 461 l116 0 l119 -495 l-271 -463 l-116 0 ZM245 -66 l198 345 l-78 345 l-200 -344 l80 -346 Z" /><glyph glyph-name="uniF8FF" unicode="&#xf8ff;" d="M158 1 l71 225 l-191 144 l237 0 l74 225 l77 -225 l238 0 l-192 -144 l71 -225 l-194 135 l-191 -135 ZM284 199 l28 0 l0 87 l-5 -2 l34 -64 l23 0 l35 64 l-5 2 l0 -87 l28 0 l0 131 l-27 0 l-45 -86 l7 0 l-46 86 l-27 0 l0 -131 Z" /><glyph glyph-name="at" unicode="@" d="M500 -166 q-97 0 -177.5 30.5 q-80.5 30.5 -139 88 q-58.5 57.5 -91 136.5 q-32.5 79 -32.5 176 q0 102 33 185 q33 83 94 142.5 q61 59.5 145.5 91.5 q84.5 32 186.5 32 q90 0 163.5 -26.5 q73.5 -26.5 127 -76 q53.5 -49.5 82.5 -119 q29 -69.5 29 -154.5 q0 -86 -26 -149.5 q-26 -63.5 -71.5 -97.5 q-45.5 -34 -103.5 -34 q-62 0 -97.5 33 q-35.5 33 -40.5 93 l38 19 q-25 -73 -71 -109 q-46 -36 -102 -36 q-82 0 -126.5 51 q-44.5 51 -44.5 139 q0 73 27 130 q27 57 75.5 89.5 q48.5 32.5 109.5 32.5 q53 0 86.5 -26 q33.5 -26 46.5 -78 l-21 0 l18 94 l109 0 l-41 -231 q-3 -18 -4.5 -32.5 q-1.5 -14.5 -1.5 -25.5 q0 -30 11.5 -43.5 q11.5 -13.5 35.5 -13.5 q28 0 51.5 24 q23.5 24 37.5 69 q14 45 14 102 q0 69 -21.5 122 q-21.5 53 -62 90 q-40.5 37 -98 56 q-57.5 19 -130.5 19 q-80 0 -146 -25.5 q-66 -25.5 -112.5 -72.5 q-46.5 -47 -72.5 -114 q-26 -67 -26 -150 q0 -106 42 -183 q42 -77 118.5 -118 q76.5 -41 178.5 -41 q72 0 131.5 19.5 q59.5 19.5 104.5 55.5 l44 -77 q-47 -41 -119.5 -64 q-72.5 -23 -160.5 -23 ZM470 151 q34 0 60.5 21 q26.5 21 41 59.5 q14.5 38.5 14.5 88.5 q0 43 -18.5 65.5 q-18.5 22.5 -58.5 22.5 q-34 0 -61 -20 q-27 -20 -42 -55 q-15 -35 -15 -83 q0 -48 20.5 -73.5 q20.5 -25.5 58.5 -25.5 Z" /><glyph glyph-name="ampersand" unicode="&amp;" d="M620 -11 q-44 13 -85 39 q-41 26 -73 58 l39 -1 q-45 -44 -111 -70 q-66 -26 -138 -26 q-80 0 -136.5 26 q-56.5 26 -82.5 72.5 q-26 46.5 -16 109.5 q10 61 55.5 106 q45.5 45 117.5 81 l43 22 l-32 -28 q-34 39 -47.5 83.5 q-13.5 44.5 -6.5 90.5 q7 46 34.5 83 q27.5 37 75.5 59 q48 22 116 22 q58 0 100 -20 q42 -20 61.5 -58 q19.5 -38 11.5 -91 q-5 -35 -26 -68 q-21 -33 -58.5 -62.5 q-37.5 -29.5 -93.5 -55.5 l5 30 l139 -164 l-29 0 q32 41 54.5 93 q22.5 52 34.5 109 l128 0 q-16 -82 -50 -155.5 q-34 -73.5 -84 -130.5 l-4 34 q24 -28 54 -48 q30 -20 68 -32 l-64 -108 ZM276 105 q44 0 81 16 q37 16 71 47 l-15 -33 l-174 201 l66 -2 l-34 -18 q-46 -23 -71.5 -48.5 q-25.5 -25.5 -32.5 -62.5 q-6 -45 21.5 -72.5 q27.5 -27.5 87.5 -27.5 ZM367 616 q-34 0 -55.5 -19 q-21.5 -19 -25.5 -47 q-3 -21 0 -38 q3 -17 14.5 -34.5 q11.5 -17.5 31.5 -42.5 l-32 -1 q62 28 92.5 54 q30.5 26 35.5 60 q6 32 -11.5 50 q-17.5 18 -49.5 18 Z" /><glyph glyph-name="paragraph" unicode="¶" d="M187 -180 l70 442 q-57 0 -100.5 25.5 q-43.5 25.5 -67 69 q-23.5 43.5 -23.5 98.5 q0 75 33.5 131.5 q33.5 56.5 92 87.5 q58.5 31 133.5 31 l325 0 l-140 -885 l-106 0 l123 777 l-111 0 l-123 -777 l-106 0 Z" /><glyph glyph-name="section" unicode="§" d="M232 -191 q-63 0 -123 17.5 q-60 17.5 -111 50.5 l49 97 q23 -18 53 -32 q30 -14 63 -21.5 q33 -7.5 64 -7.5 q47 0 75 21.5 q28 21.5 28 57.5 q0 27 -13.5 44 q-13.5 17 -43.5 33 l-123 67 q-55 30 -83.5 69.5 q-28.5 39.5 -28.5 85.5 q0 55 25 95 q25 40 75 68 l-5 -14 q-9 17 -14 35.5 q-5 18.5 -5 40.5 q0 64 33 108.5 q33 44.5 88 68 q55 23.5 122 23.5 q56 0 111 -15.5 q55 -15.5 101 -47.5 l-42 -95 q-35 24 -80.5 39 q-45.5 15 -86.5 15 q-46 0 -74 -21.5 q-28 -21.5 -28 -58.5 q0 -27 13.5 -44 q13.5 -17 43.5 -34 l122 -66 q56 -31 84.5 -70 q28.5 -39 28.5 -85 q0 -55 -26.5 -95.5 q-26.5 -40.5 -75.5 -69.5 l3 22 q12 -18 17.5 -37.5 q5.5 -19.5 5.5 -41.5 q0 -65 -33 -110.5 q-33 -45.5 -87.5 -68.5 q-54.5 -23 -121.5 -23 ZM171 319 q0 -26 17.5 -46.5 q17.5 -20.5 49.5 -38.5 l113 -59 q16 -11 29.5 -20 q13.5 -9 22.5 -20 l-16 -1 q16 18 23 36.5 q7 18.5 7 35.5 q0 25 -17.5 45.5 q-17.5 20.5 -50.5 39.5 l-112 58 q-16 10 -29 19.5 q-13 9.5 -23 20.5 l19 7 q-18 -19 -25.5 -39 q-7.5 -20 -7.5 -38 Z" /><glyph glyph-name="copyright" unicode="©" d="M428 -11 q-76 0 -142.5 28 q-66.5 28 -116 77 q-49.5 49 -77 115.5 q-27.5 66.5 -27.5 143.5 q0 77 27.5 143 q27.5 66 77 115 q49.5 49 115.5 77 q66 28 144 28 q77 0 143 -28 q66 -28 115 -77 q49 -49 76.5 -115 q27.5 -66 27.5 -143 q0 -77 -27.5 -143.5 q-27.5 -66.5 -76.5 -115.5 q-49 -49 -115 -77 q-66 -28 -144 -28 ZM449 137 q-102 0 -162 58.5 q-60 58.5 -60 158.5 q0 100 60 157 q60 57 162 57 q40 0 80 -12 q40 -12 65 -33 l-35 -89 q-20 18 -45.5 27.5 q-25.5 9.5 -53.5 9.5 q-49 0 -77.5 -31 q-28.5 -31 -28.5 -87 q0 -55 28.5 -86.5 q28.5 -31.5 77.5 -31.5 q28 0 53.5 9.5 q25.5 9.5 45.5 27.5 l35 -89 q-25 -21 -65.5 -33.5 q-40.5 -12.5 -79.5 -12.5 ZM429 48 q65 0 119.5 23 q54.5 23 95.5 64.5 q41 41.5 63 97 q22 55.5 22 120.5 q0 65 -22 120.5 q-22 55.5 -63 96.5 q-41 41 -95.5 64 q-54.5 23 -119.5 23 q-66 0 -121 -23 q-55 -23 -95.5 -64 q-40.5 -41 -63 -96.5 q-22.5 -55.5 -22.5 -120.5 q0 -65 22.5 -120.5 q22.5 -55.5 63 -97 q40.5 -41.5 96 -64.5 q55.5 -23 120.5 -23 Z" /><glyph glyph-name="registered" unicode="®" d="M428 -11 q-76 0 -142.5 28 q-66.5 28 -116 77 q-49.5 49 -77 115.5 q-27.5 66.5 -27.5 143.5 q0 77 27.5 143 q27.5 66 77 115 q49.5 49 115.5 77 q66 28 144 28 q77 0 143 -28 q66 -28 115 -77 q49 -49 76.5 -115 q27.5 -66 27.5 -143 q0 -77 -27.5 -143.5 q-27.5 -66.5 -76.5 -115.5 q-49 -49 -115 -77 q-66 -28 -144 -28 ZM429 48 q65 0 119.5 23 q54.5 23 95.5 64.5 q41 41.5 63 97 q22 55.5 22 120.5 q0 65 -22 120.5 q-22 55.5 -63 96.5 q-41 41 -95.5 64 q-54.5 23 -119.5 23 q-66 0 -121 -23 q-55 -23 -95.5 -64 q-40.5 -41 -63 -96.5 q-22.5 -55.5 -22.5 -120.5 q0 -65 22.5 -120.5 q22.5 -55.5 63 -97 q40.5 -41.5 96 -64.5 q55.5 -23 120.5 -23 ZM266 142 l0 423 l191 0 q72 0 110.5 -35.5 q38.5 -35.5 38.5 -90.5 q0 -58 -37.5 -88.5 q-37.5 -30.5 -105.5 -30.5 l28 11 q34 0 54.5 -16.5 q20.5 -16.5 32.5 -65.5 l32 -107 l-114 0 l-35 122 q-6 20 -18 27 q-12 7 -30 7 l-50 0 l18 12 l0 -168 l-115 0 ZM379 381 l61 0 q30 0 44.5 12 q14.5 12 14.5 39 q0 27 -14.5 39 q-14.5 12 -44.5 12 l-61 0 l0 -102 Z" /><glyph glyph-name="trademark" unicode="&#x2122;" d="M136 284 l49 311 l-116 0 l17 110 l369 0 l-17 -110 l-117 0 l-49 -311 l-136 0 ZM446 284 l67 421 l102 0 l98 -238 l-22 0 l176 238 l109 0 l-67 -421 l-116 0 l41 256 l18 0 l-134 -180 l-58 0 l-74 180 l16 0 l-41 -256 l-115 0 Z" /><glyph glyph-name="degree" unicode="°" d="M242 398 q-47 0 -83.5 20.5 q-36.5 20.5 -57.5 56.5 q-21 36 -21 81 q0 45 21 81 q21 36 58 56.5 q37 20.5 83 20.5 q47 0 83 -20.5 q36 -20.5 57 -56 q21 -35.5 21 -81.5 q0 -45 -21 -81 q-21 -36 -57 -56.5 q-36 -20.5 -83 -20.5 ZM242 479 q32 0 52.5 22 q20.5 22 20.5 55 q0 33 -20.5 55 q-20.5 22 -52.5 22 q-32 0 -53 -22 q-21 -22 -21 -55 q0 -33 21 -55 q21 -22 53 -22 Z" /><glyph glyph-name="minute" unicode="&#x2032;" d="M102 407 l11 298 l174 0 l-84 -298 l-101 0 Z" /><glyph glyph-name="bar" unicode="|" d="M2 -180 l140 885 l151 0 l-140 -885 l-151 0 Z" /><glyph glyph-name="brokenbar" unicode="¦" d="M89 372 l53 333 l151 0 l-53 -333 l-151 0 ZM2 -180 l53 334 l151 0 l-53 -334 l-151 0 Z" /><glyph glyph-name="dagger" unicode="&#x2020;" d="M109 157 l54 338 l-103 0 l15 97 l103 0 l18 113 l110 0 l-17 -113 l104 0 l-16 -97 l-104 0 l-53 -338 l-111 0 Z" /><glyph glyph-name="uni2113" unicode="&#x2113;" d="M299 -11 q-76 0 -115 44 q-39 44 -28 118 l13 82 l11 -29 l-78 -62 l-40 53 l116 94 l40 251 q13 83 59 129.5 q46 46.5 119 46.5 q54 0 90.5 -29 q36.5 -29 36.5 -79 q0 -54 -23 -102 q-23 -48 -61.5 -92.5 q-38.5 -44.5 -87.5 -90.5 l-33 -31 l-19 -113 q-4 -31 6 -53.5 q10 -22.5 39 -22.5 q18 0 37 8 q19 8 44 28 l33 -90 q-32 -29 -75 -44.5 q-43 -15.5 -84 -15.5 ZM334 402 q5 4 9 8 q4 4 7 7 q35 36 61 81 q26 45 26 84 q0 34 -27 34 q-20 0 -32.5 -15 q-12.5 -15 -17.5 -39 l-26 -160 Z" /><glyph glyph-name="daggerdbl" unicode="&#x2021;" d="M109 155 l18 114 l-106 0 l16 95 l105 0 l21 133 l-106 0 l16 97 l105 0 l18 111 l112 0 l-18 -111 l105 0 l-15 -97 l-106 0 l-20 -133 l105 0 l-15 -95 l-106 0 l-18 -114 l-111 0 Z" /><glyph glyph-name="estimated" unicode="&#x212e;" d="M468 -5 q-95 0 -169 28 q-74 28 -125 77 q-51 49 -77.5 112 q-26.5 63 -26.5 133 q0 70 27 135.5 q27 65.5 78.5 117 q51.5 51.5 124.5 82 q73 30.5 166 30.5 q115 0 191.5 -33 q76.5 -33 122 -88.5 q45.5 -55.5 65 -122.5 q19.5 -67 19.5 -135 l-643 0 q-5 0 -5 -6 l0 -172 q0 -7 1.5 -15.5 q1.5 -8.5 5.5 -13.5 q40 -48 102 -72.5 q62 -24.5 140 -24.5 q85 0 146.5 29 q61.5 29 112.5 78 l71 0 q-39 -47 -83.5 -78 q-44.5 -31 -103 -46 q-58.5 -15 -140.5 -15 ZM221 362 l492 0 q5 0 5 6 l0 188 q0 14 -10 26 q-34 41 -78 61.5 q-44 20.5 -88 28 q-44 7.5 -79 7.5 q-58 0 -121.5 -21 q-63.5 -21 -116.5 -74 q-9 -9 -9 -27 l0 -189 q0 -6 5 -6 Z" /><glyph glyph-name="uni2116" unicode="&#x2116;" d="M32 0 l112 705 l115 0 l301 -500 l-28 0 l80 500 l144 0 l-112 -705 l-114 0 l-302 500 l28 0 l-80 -500 l-144 0 ZM790 243 l15 92 l304 0 l-14 -92 l-305 0 ZM977 408 q-42 0 -76 15.5 q-34 15.5 -54 44.5 q-20 29 -20 68 q0 52 23 92.5 q23 40.5 64.5 64 q41.5 23.5 93.5 23.5 q43 0 77 -17 q34 -17 53.5 -47.5 q19.5 -30.5 19.5 -70.5 q0 -52 -23.5 -91 q-23.5 -39 -64.5 -60.5 q-41 -21.5 -93 -21.5 ZM982 481 q26 0 43.5 14.5 q17.5 14.5 26.5 38 q9 23.5 9 49.5 q0 61 -57 61 q-27 0 -45 -16 q-18 -16 -26 -39.5 q-8 -23.5 -8 -48.5 q0 -30 15 -44.5 q15 -14.5 42 -14.5 Z" /><glyph glyph-name="uni02BC" unicode="&#x2bc;" d="M254 564 l-50 36 q23 19 32.5 39 q9.5 20 11.5 40 l30 -17 l-105 0 l18 115 l149 0 l-12 -73 q-6 -42 -21.5 -76 q-15.5 -34 -52.5 -64 Z" /><glyph glyph-name="uni02BB" unicode="&#x2bb;" d="M224 562 l12 78 q7 44 24.5 76.5 q17.5 32.5 59.5 60.5 l45 -40 q-25 -19 -35.5 -37.5 q-10.5 -18.5 -14.5 -41.5 l-28 18 l104 0 l-18 -114 l-149 0 Z" /><glyph glyph-name="uni02C9" unicode="&#x2c9;" d="M144 611 l13 85 l326 0 l-13 -85 l-326 0 Z" /><glyph glyph-name="uni02CB" unicode="&#x2cb;" d="M275 555 l-141 205 l143 0 l97 -205 l-99 0 Z" /><glyph glyph-name="uni02BF" unicode="&#x2bf;" d="M299 550 q-42 4 -68 31.5 q-26 27.5 -26 66.5 q0 35 18 62 q18 27 47.5 42.5 q29.5 15.5 63.5 13.5 l-10 -60 q-23 0 -38.5 -16 q-15.5 -16 -15.5 -39 q0 -17 10.5 -28.5 q10.5 -11.5 28.5 -13.5 l-10 -59 Z" /><glyph glyph-name="uni02BE" unicode="&#x2be;" d="M297 550 l10 60 q22 0 37.5 16 q15.5 16 15.5 39 q0 17 -10 28.5 q-10 11.5 -28 12.5 l10 60 q42 -4 67.5 -31.5 q25.5 -27.5 25.5 -66.5 q0 -34 -18 -61.5 q-18 -27.5 -47 -42.5 q-29 -15 -63 -14 Z" /><glyph glyph-name="uni02CA" unicode="&#x2ca;" d="M248 555 l128 205 l147 0 l-175 -205 l-100 0 Z" /><glyph glyph-name="uni02CC" unicode="&#x2cc;" d="M121 -270 l32 205 l93 0 l-32 -205 l-93 0 Z" /><glyph glyph-name="uni02C8" unicode="&#x2c8;" d="M258 593 l32 205 l93 0 l-32 -205 l-93 0 Z" /><glyph glyph-name="uni0308" unicode="&#x308;" d="M87 590 l19 132 l132 0 l-20 -132 l-131 0 ZM-111 590 l20 132 l132 0 l-20 -132 l-132 0 Z" /><glyph glyph-name="uni0307" unicode="&#x307;" d="M-17 590 l21 133 l141 0 l-21 -133 l-141 0 Z" /><glyph glyph-name="gravecomb" unicode="&#x300;" d="M25 555 l-142 205 l143 0 l98 -205 l-99 0 Z" /><glyph glyph-name="acutecomb" unicode="&#x301;" d="M-2 555 l132 205 l148 0 l-180 -205 l-100 0 Z" /><glyph glyph-name="uni030B" unicode="&#x30b;" d="M87 555 l65 205 l123 0 l-110 -205 l-78 0 ZM-75 555 l66 205 l123 0 l-110 -205 l-79 0 Z" /><glyph glyph-name="uni0302" unicode="&#x302;" d="M-128 555 l132 205 l128 0 l91 -205 l-93 0 l-68 123 l-96 -123 l-94 0 Z" /><glyph glyph-name="uni030C" unicode="&#x30c;" d="M-4 555 l-91 205 l93 0 l68 -123 l96 123 l93 0 l-131 -205 l-128 0 Z" /><glyph glyph-name="uni0306" unicode="&#x306;" d="M63 552 q-50 0 -87 24 q-37 24 -55.5 68 q-18.5 44 -15.5 103 l84 8 q-2 -56 19.5 -85.5 q21.5 -29.5 60.5 -29.5 q40 0 66 29.5 q26 29.5 34 85.5 l82 -8 q-6 -59 -31 -103 q-25 -44 -65 -68 q-40 -24 -92 -24 Z" /><glyph glyph-name="uni030A" unicode="&#x30a;" d="M69 545 q-37 0 -67 16.5 q-30 16.5 -47 46 q-17 29.5 -17 64.5 q0 36 17 64.5 q17 28.5 47 45 q30 16.5 66 16.5 q38 0 67.5 -16.5 q29.5 -16.5 46.5 -45.5 q17 -29 17 -65 q0 -35 -17 -64 q-17 -29 -46.5 -45.5 q-29.5 -16.5 -66.5 -16.5 ZM68 610 q27 0 44.5 17.5 q17.5 17.5 17.5 43.5 q0 28 -17 44.5 q-17 16.5 -44 16.5 q-26 0 -43.5 -16.5 q-17.5 -16.5 -17.5 -43.5 q0 -27 17 -44.5 q17 -17.5 43 -17.5 Z" /><glyph glyph-name="tildecomb" unicode="&#x303;" d="M-77 581 l-71 4 q9 76 45.5 116.5 q36.5 40.5 90.5 40.5 q28 0 46.5 -10 q18.5 -10 34.5 -23 q15 -11 29.5 -19 q14.5 -8 32.5 -8 q49 0 65 64 l72 -4 q-10 -76 -46.5 -116.5 q-36.5 -40.5 -89.5 -40.5 q-28 0 -48 11 q-20 11 -36 23 q-14 10 -28 18 q-14 8 -31 8 q-50 0 -66 -64 Z" /><glyph glyph-name="uni0304" unicode="&#x304;" d="M-106 611 l13 85 l326 0 l-13 -85 l-326 0 Z" /><glyph glyph-name="hookabovecomb" unicode="&#x309;" d="M16 555 l3 23 q3 20 13 33 q10 13 21.5 23 q11.5 10 19.5 19.5 q8 9.5 8 22.5 q0 11 -9.5 16 q-9.5 5 -26.5 5 q-16 0 -30.5 -3.5 q-14.5 -3.5 -30.5 -11.5 l-17 61 q25 13 54.5 19 q29.5 6 64.5 6 q51 0 79 -18 q28 -18 28 -50 q0 -27 -11.5 -43.5 q-11.5 -16.5 -27.5 -28.5 q-16 -12 -29.5 -24 q-13.5 -12 -17.5 -32 l-3 -17 l-88 0 Z" /><glyph glyph-name="uni030F" unicode="&#x30f;" d="M106 555 l-73 205 l122 0 l29 -205 l-78 0 ZM-55 555 l-73 205 l122 0 l30 -205 l-79 0 Z" /><glyph glyph-name="uni0311" unicode="&#x311;" d="M-42 552 l-82 7 q6 60 31.5 104 q25.5 44 65 68 q39.5 24 91.5 24 q51 0 87.5 -24.5 q36.5 -24.5 55.5 -68.5 q19 -44 15 -103 l-84 -7 q2 55 -19 84.5 q-21 29.5 -61 29.5 q-39 0 -65.5 -29.5 q-26.5 -29.5 -34.5 -84.5 Z" /><glyph glyph-name="uni0312" unicode="&#x312;" d="M-27 562 l13 81 q8 45 24.5 76.5 q16.5 31.5 59.5 57.5 l43 -41 q-24 -17 -33.5 -35.5 q-9.5 -18.5 -14.5 -42.5 l-28 18 l105 0 l-19 -114 l-150 0 Z" /><glyph glyph-name="uni031B" unicode="&#x31b;" d="M119 418 l-84 55 l2 18 q32 0 52 8.5 q20 8.5 32.5 30.5 q12.5 22 19.5 62 l3 24 l132 0 l-8 -44 q-10 -63 -48.5 -105 q-38.5 -42 -100.5 -49 Z" /><glyph glyph-name="dotbelowcomb" unicode="&#x323;" d="M-145 -214 l22 133 l140 0 l-22 -133 l-140 0 Z" /><glyph glyph-name="uni0324" unicode="&#x324;" d="M-39 -199 l21 132 l131 0 l-21 -132 l-131 0 ZM-236 -199 l21 132 l131 0 l-21 -132 l-131 0 Z" /><glyph glyph-name="uni0326" unicode="&#x326;" d="M-74 -284 l-44 41 q25 18 34.5 36 q9.5 18 13.5 42 l29 -18 l-105 0 l19 114 l149 0 l-13 -80 q-7 -45 -23.5 -76.5 q-16.5 -31.5 -59.5 -58.5 Z" /><glyph glyph-name="uni0327" unicode="&#x327;" d="M-71 -197 q-30 0 -58.5 6 q-28.5 6 -48.5 16 l26 64 q17 -8 35.5 -13 q18.5 -5 38.5 -5 q27 0 40.5 7 q13.5 7 13.5 21 q0 9 -8.5 13.5 q-8.5 4.5 -26.5 4.5 q-8 0 -17 -0.5 q-9 -0.5 -22 -4.5 l-18 20 l27 88 l75 0 l-24 -76 l-35 14 q12 4 24 6 q12 2 22 2 q42 0 65.5 -17.5 q23.5 -17.5 23.5 -50.5 q0 -43 -38 -69 q-38 -26 -95 -26 Z" /><glyph glyph-name="uni0328" unicode="&#x328;" d="M-91 -197 q-54 0 -82.5 26.5 q-28.5 26.5 -28.5 70.5 q0 49 33 87.5 q33 38.5 83 57.5 l38 -45 q-33 -13 -48 -34 q-15 -21 -15 -41 q0 -20 14 -32.5 q14 -12.5 36 -12.5 q14 0 26.5 3 q12.5 3 27.5 8 l12 -71 q-28 -8 -49.5 -12.5 q-21.5 -4.5 -46.5 -4.5 Z" /><glyph glyph-name="uni032E" unicode="&#x32e;" d="M-61 -215 q-76 0 -121.5 42 q-45.5 42 -40.5 113 l83 8 q0 -35 22 -56 q22 -21 61 -21 q40 0 65.5 21 q25.5 21 31.5 56 l83 -8 q-7 -71 -57 -113 q-50 -42 -127 -42 Z" /><glyph glyph-name="uni0331" unicode="&#x331;" d="M-230 -170 l14 85 l326 0 l-14 -85 l-326 0 Z" /><glyph glyph-name="uni0335" unicode="&#x335;" d="M-167 534 l17 104 l422 0 l-16 -104 l-423 0 Z" /><glyph glyph-name="uni0337" unicode="&#x337;" d="M-133 219 l-48 105 l358 174 l48 -106 l-358 -173 Z" /><glyph glyph-name="uni0338" unicode="&#x338;" d="M-34 -52 l-65 45 l412 554 l64 -45 l-411 -554 Z" /></font>
</defs>
</svg>
