<?xml version="1.0" standalone="no"?><!DOCTYPE svg PUBLIC "-//W3C//DTD SVG 1.1//EN" "http://www.w3.org/Graphics/SVG/1.1/DTD/svg11.dtd" ><svg xmlns="http://www.w3.org/2000/svg"><metadata></metadata><defs><font id="3.603;NONE;Mulish-ExtraLightItalic" horiz-adv-x="1324"><font-face font-family="Mulish ExtraLight" font-weight="250" font-stretch="normal" units-per-em="1000" panose-1="0 0 0 0 0 0 0 0 0 0" ascent="1005" descent="-250" x-height="0" bbox="-279 -270 1326 1036" underline-thickness="44" underline-position="-85" unicode-range="U+0000-fb02" /><missing-glyph horiz-adv-x="500"  /><glyph glyph-name="A" unicode="A" d="M-6 0 l415 705 l41 0 l197 -705 l-43 0 l-57 204 l22 -9 l-437 0 l29 9 l-119 -204 l-48 0 ZM422 649 l-246 -421 l-21 6 l403 0 l-17 -6 l-117 421 l-2 0 Z" /><glyph glyph-name="AE" unicode="Æ" d="M-26 0 l535 705 l502 0 l-7 -39 l-419 0 l24 24 l-20 -324 l-16 11 l365 0 l-6 -39 l-354 0 l9 10 l-20 -328 l-4 19 l342 0 l-6 -39 l-376 0 l12 198 l24 -3 l-398 0 l24 12 l-158 -207 l-53 0 ZM529 665 l-332 -441 l-10 10 l359 0 l-8 -9 l27 440 l-36 0 Z" /><glyph glyph-name="B" unicode="B" d="M57 0 l112 705 l267 0 q104 0 154.5 -48.5 q50.5 -48.5 36.5 -140.5 q-12 -72 -59 -112.5 q-47 -40.5 -121 -54.5 l2 14 q77 -7 114.5 -56 q37.5 -49 25.5 -126 q-15 -94 -81.5 -137.5 q-66.5 -43.5 -179.5 -43.5 l-271 0 ZM105 39 l228 0 q86 0 143.5 33 q57.5 33 68.5 106 q10 60 -8 94.5 q-18 34.5 -56 49.5 q-38 15 -91 15 l-238 0 l-47 -298 ZM159 376 l213 0 q93 0 146.5 36 q53.5 36 63.5 99 q12 78 -26 116.5 q-38 38.5 -119 38.5 l-233 0 l-45 -290 Z" /><glyph glyph-name="uni0181" unicode="&#x181;" d="M163 0 l105 666 l-39 0 q-64 0 -98.5 -28.5 q-34.5 -28.5 -44.5 -88.5 l-7 -43 l-40 0 l7 45 q13 78 61 116 q48 38 140 38 l295 0 q104 0 155 -48.5 q51 -48.5 36 -140.5 q-12 -72 -59 -112.5 q-47 -40.5 -121 -54.5 l2 14 q77 -7 114.5 -56 q37.5 -49 25.5 -126 q-15 -94 -82 -137.5 q-67 -43.5 -180 -43.5 l-270 0 ZM211 39 l228 0 q86 0 143 33 q57 33 69 106 q10 60 -8 94.5 q-18 34.5 -56 49.5 q-38 15 -91 15 l-238 0 l-47 -298 ZM265 376 l213 0 q93 0 146.5 36 q53.5 36 63.5 99 q12 78 -26 116.5 q-38 38.5 -119 38.5 l-233 0 l-45 -290 Z" /><glyph glyph-name="C" unicode="C" d="M363 -8 q-111 0 -178.5 46 q-67.5 46 -92 129.5 q-24.5 83.5 -7.5 195.5 q18 112 67 190 q49 78 124.5 119 q75.5 41 173.5 41 q74 0 129 -22 q55 -22 95 -66 l-23 -36 q-44 46 -91.5 64.5 q-47.5 18.5 -112.5 18.5 q-131 0 -212.5 -83.5 q-81.5 -83.5 -105.5 -235.5 q-15 -96 4.5 -168 q19.5 -72 76.5 -112 q57 -40 153 -40 q61 0 118 21 q57 21 104 68 l22 -34 q-45 -47 -110.5 -71.5 q-65.5 -24.5 -133.5 -24.5 Z" /><glyph glyph-name="D" unicode="D" d="M57 0 l112 705 l209 0 q119 0 191.5 -42.5 q72.5 -42.5 100 -123.5 q27.5 -81 9.5 -196 q-28 -173 -132.5 -258 q-104.5 -85 -275.5 -85 l-214 0 ZM105 39 l168 0 q158 0 248 77 q90 77 115 237 q25 157 -40.5 235 q-65.5 78 -223.5 78 l-168 0 l-99 -627 Z" /><glyph glyph-name="uni018A" unicode="&#x18a;" d="M163 0 l105 666 l-39 0 q-64 0 -98.5 -28.5 q-34.5 -28.5 -44.5 -88.5 l-7 -43 l-40 0 l7 45 q13 78 60.5 116 q47.5 38 131.5 38 l246 0 q119 0 192 -42.5 q73 -42.5 100.5 -123.5 q27.5 -81 8.5 -196 q-28 -173 -132.5 -258 q-104.5 -85 -275.5 -85 l-214 0 ZM211 39 l168 0 q158 0 248 77 q90 77 115 237 q25 157 -40.5 235 q-65.5 78 -223.5 78 l-168 0 l-99 -627 Z" /><glyph glyph-name="E" unicode="E" d="M57 0 l112 705 l428 0 l-7 -39 l-386 0 l-45 -289 l364 0 l-6 -39 l-364 0 l-48 -299 l386 0 l-6 -39 l-428 0 Z" /><glyph glyph-name="F" unicode="F" d="M57 0 l112 705 l418 0 l-7 -39 l-376 0 l-45 -289 l355 0 l-6 -39 l-355 0 l-54 -338 l-42 0 Z" /><glyph glyph-name="G" unicode="G" d="M372 -8 q-116 0 -185.5 45 q-69.5 45 -94 128.5 q-24.5 83.5 -6.5 197.5 q18 112 67.5 190 q49.5 78 127.5 119 q78 41 179 41 q78 0 130 -22 q52 -22 90 -62 l-24 -37 q-40 42 -84.5 61 q-44.5 19 -114.5 19 q-133 0 -218.5 -84 q-85.5 -84 -109.5 -236 q-24 -150 34 -234.5 q58 -84.5 208 -84.5 q57 0 108 11 q51 11 99 33 l-18 -39 l44 280 l-194 0 l7 39 l234 0 l-50 -313 q-27 -16 -66 -27.5 q-39 -11.5 -81.5 -18 q-42.5 -6.5 -81.5 -6.5 Z" /><glyph glyph-name="H" unicode="H" d="M57 0 l112 705 l42 0 l-52 -328 l481 0 l52 328 l42 0 l-112 -705 l-42 0 l54 338 l-481 0 l-54 -338 l-42 0 Z" /><glyph glyph-name="Hbar" unicode="&#x126;" d="M62 0 l83 527 l-98 0 l6 38 l98 0 l23 140 l42 0 l-23 -140 l479 0 l23 140 l42 0 l-23 -140 l98 0 l-6 -38 l-98 0 l-83 -527 l-42 0 l54 338 l-479 0 l-54 -338 l-42 0 ZM164 377 l479 0 l23 150 l-479 0 l-23 -150 Z" /><glyph glyph-name="I" unicode="I" d="M57 0 l112 705 l42 0 l-112 -705 l-42 0 Z" /><glyph glyph-name="J" unicode="J" d="M1 -186 q-16 0 -33.5 2 q-17.5 2 -35.5 9 l6 39 q18 -7 33.5 -9.5 q15.5 -2.5 29.5 -2.5 q46 0 76 30 q30 30 40 94 l116 729 l42 0 l-116 -731 q-8 -50 -28.5 -86 q-20.5 -36 -53 -55 q-32.5 -19 -76.5 -19 Z" /><glyph glyph-name="K" unicode="K" d="M57 0 l112 705 l42 0 l-52 -328 l2 0 l414 328 l65 0 l-462 -362 l0 30 l381 -373 l-61 0 l-343 338 l-2 0 l-54 -338 l-42 0 Z" /><glyph glyph-name="L" unicode="L" d="M57 0 l112 705 l42 0 l-106 -666 l378 0 l-6 -39 l-420 0 Z" /><glyph glyph-name="M" unicode="M" d="M57 0 l112 705 l37 0 l195 -688 l-28 0 l414 688 l36 0 l-112 -705 l-39 0 l105 664 l27 0 l-402 -664 l-32 0 l-191 665 l22 0 l-105 -665 l-39 0 Z" /><glyph glyph-name="N" unicode="N" d="M57 0 l112 705 l36 0 l381 -663 l-16 0 l105 663 l39 0 l-112 -705 l-35 0 l-381 663 l15 0 l-105 -663 l-39 0 Z" /><glyph glyph-name="Eng" unicode="&#x14a;" d="M380 -193 l3 38 l44 3 q55 4 89 37 q34 33 44 93 l7 48 l0 -26 l-381 663 l15 0 l-105 -663 l-39 0 l112 705 l36 0 l381 -663 l-16 0 l105 663 l39 0 l-115 -726 q-8 -51 -31.5 -88 q-23.5 -37 -59 -57.5 q-35.5 -20.5 -82.5 -23.5 l-46 -3 Z" /><glyph glyph-name="O" unicode="O" d="M86 363 q18 112 66.5 190 q48.5 78 123.5 119 q75 41 171 41 q100 0 163.5 -46.5 q63.5 -46.5 88 -130 q24.5 -83.5 6.5 -194.5 q-17 -111 -66 -189.5 q-49 -78.5 -124 -119.5 q-75 -41 -172 -41 q-99 0 -162.5 46 q-63.5 46 -87.5 129.5 q-24 83.5 -7 195.5 ZM129 353 q-16 -99 4.5 -170.5 q20.5 -71.5 74.5 -110.5 q54 -39 138 -39 q130 0 211 84 q81 84 105 235 q16 98 -5 170 q-21 72 -74.5 111 q-53.5 39 -137.5 39 q-130 0 -210.5 -83.5 q-80.5 -83.5 -105.5 -235.5 Z" /><glyph glyph-name="Oslash" unicode="Ø" d="M86 363 q18 112 66.5 190 q48.5 78 123.5 119 q75 41 171 41 q100 0 163.5 -46.5 q63.5 -46.5 88 -130 q24.5 -83.5 6.5 -194.5 q-17 -111 -66 -189.5 q-49 -78.5 -124 -119.5 q-75 -41 -172 -41 q-99 0 -162.5 46 q-63.5 46 -87.5 129.5 q-24 83.5 -7 195.5 ZM129 353 q-16 -99 4.5 -170.5 q20.5 -71.5 74.5 -110.5 q54 -39 138 -39 q130 0 211 84 q81 84 105 235 q16 98 -5 170 q-21 72 -74.5 111 q-53.5 39 -137.5 39 q-130 0 -210.5 -83.5 q-80.5 -83.5 -105.5 -235.5 ZM198 54 l-58 -78 l-30 22 l58 79 l17 22 l392 530 l16 22 l59 78 l30 -22 l-59 -79 l-16 -22 l-392 -530 l-17 -22 Z" /><glyph glyph-name="OE" unicode="&#x152;" d="M532 0 l112 705 l428 0 l-7 -39 l-386 0 l-45 -289 l366 0 l-6 -39 l-366 0 l-48 -299 l386 0 l-6 -39 l-428 0 ZM343 -8 q-102 0 -165 46.5 q-63 46.5 -86 130 q-23 83.5 -6 194.5 q18 112 66.5 190 q48.5 78 123.5 119 q75 41 171 41 q65 0 118 -22 q53 -22 87 -68 l-10 -58 q-26 50 -76.5 78.5 q-50.5 28.5 -120.5 28.5 q-130 0 -211 -83.5 q-81 -83.5 -105 -235.5 q-15 -97 3.5 -169 q18.5 -72 72 -111.5 q53.5 -39.5 139.5 -39.5 q71 0 129.5 27.5 q58.5 27.5 101.5 80.5 l-10 -66 q-46 -42 -101 -62.5 q-55 -20.5 -121 -20.5 Z" /><glyph glyph-name="P" unicode="P" d="M57 0 l112 705 l258 0 q110 0 161.5 -53.5 q51.5 -53.5 35.5 -150.5 q-9 -61 -42 -102 q-33 -41 -84.5 -61.5 q-51.5 -20.5 -117.5 -20.5 l-231 0 l-50 -317 l-42 0 ZM155 356 l219 0 q89 0 141.5 37 q52.5 37 64.5 112 q13 79 -27 120 q-40 41 -129 41 l-220 0 l-49 -310 Z" /><glyph glyph-name="Thorn" unicode="Þ" d="M57 0 l112 705 l42 0 l-23 -146 l216 0 q110 0 161 -53.5 q51 -53.5 36 -150.5 q-9 -61 -42 -102 q-33 -41 -84.5 -61.5 q-51.5 -20.5 -117.5 -20.5 l-231 0 l-27 -171 l-42 0 ZM132 210 l219 0 q89 0 141.5 37 q52.5 37 64.5 112 q13 79 -27 120 q-40 41 -129 41 l-220 0 l-49 -310 Z" /><glyph glyph-name="Q" unicode="Q" d="M501 -191 q-24 20 -49 51 q-25 31 -46 67.5 q-21 36.5 -35 73.5 l48 11 q19 -52 51 -95 q32 -43 66 -75 l-35 -33 ZM86 363 q18 112 66.5 190 q48.5 78 123.5 119 q75 41 171 41 q100 0 163.5 -46.5 q63.5 -46.5 88 -130 q24.5 -83.5 6.5 -194.5 q-17 -111 -66 -189.5 q-49 -78.5 -124 -119.5 q-75 -41 -172 -41 q-99 0 -162.5 46 q-63.5 46 -87.5 129.5 q-24 83.5 -7 195.5 ZM129 353 q-16 -99 4.5 -170.5 q20.5 -71.5 74.5 -110.5 q54 -39 138 -39 q130 0 211 84 q81 84 105 235 q16 98 -5 170 q-21 72 -74.5 111 q-53.5 39 -137.5 39 q-130 0 -210.5 -83.5 q-80.5 -83.5 -105.5 -235.5 Z" /><glyph glyph-name="R" unicode="R" d="M57 0 l112 705 l265 0 q110 0 161.5 -53 q51.5 -53 36.5 -148 q-9 -56 -42 -95.5 q-33 -39.5 -83 -59.5 q-50 -20 -110 -20 l8 8 l8 0 q40 0 67.5 -19 q27.5 -19 40.5 -66 l71 -252 l-45 0 l-65 236 q-15 54 -49.5 70 q-34.5 16 -95.5 16 l-187 0 l-51 -322 l-42 0 ZM156 361 l234 0 q85 0 136 39 q51 39 62 109 q12 77 -29 117 q-41 40 -131 40 l-224 0 l-48 -305 Z" /><glyph glyph-name="S" unicode="S" d="M280 -8 q-86 0 -149 21.5 q-63 21.5 -106 53.5 l24 36 q50 -34 101 -52 q51 -18 130 -18 q96 0 152 39 q56 39 66 102 q10 59 -21 94 q-31 35 -114 46 l-86 12 q-101 14 -142 65.5 q-41 51.5 -28 130.5 q9 55 44.5 98 q35.5 43 93.5 68 q58 25 134 25 q74 0 131 -22.5 q57 -22.5 94 -56.5 l-22 -36 q-42 37 -91 55.5 q-49 18.5 -116 18.5 q-93 0 -153.5 -42.5 q-60.5 -42.5 -71.5 -112.5 q-10 -64 21 -101.5 q31 -37.5 114 -48.5 l87 -12 q101 -13 141.5 -59 q40.5 -46 27.5 -127 q-8 -50 -42.5 -90.5 q-34.5 -40.5 -90.5 -63.5 q-56 -23 -128 -23 Z" /><glyph glyph-name="uni1E9E" unicode="&#x1e9e;" d="M354 -8 q-58 0 -106 17 q-48 17 -79 46 l25 33 q35 -29 74 -42.5 q39 -13.5 88 -13.5 q86 0 137.5 38.5 q51.5 38.5 61.5 105.5 q13 80 -27 119.5 q-40 39.5 -135 39.5 l-143 0 l6 39 l115 0 q82 0 135.5 38.5 q53.5 38.5 64.5 111.5 q11 73 -27 111 q-38 38 -132 38 q-112 0 -167.5 -52 q-55.5 -52 -72.5 -158 l-73 -463 l-42 0 l74 470 q20 123 89 183 q69 60 193 60 q110 0 163 -50.5 q53 -50.5 39 -143.5 q-6 -40 -29 -75 q-23 -35 -57.5 -59.5 q-34.5 -24.5 -77.5 -32.5 l2 14 q78 -10 119 -58 q41 -48 27 -140 q-13 -80 -78 -128 q-65 -48 -167 -48 Z" /><glyph glyph-name="uni018F" unicode="&#x18f;" d="M327 -8 q-104 0 -163.5 44 q-59.5 44 -78.5 124 q-19 80 -2 188 l5 28 l560 0 l-7 -39 l-528 0 l15 16 q-15 -103 -2.5 -174.5 q12.5 -71.5 61.5 -108.5 q49 -37 142 -37 q125 0 205 83 q80 83 105 238 q24 152 -34 235 q-58 83 -192 83 q-77 0 -132 -19.5 q-55 -19.5 -113 -66.5 l-20 35 q56 47 120.5 69.5 q64.5 22.5 145.5 22.5 q103 0 169.5 -43.5 q66.5 -43.5 92.5 -126 q26 -82.5 7 -199.5 q-17 -108 -64.5 -187 q-47.5 -79 -121 -122 q-73.5 -43 -170.5 -43 Z" /><glyph glyph-name="T" unicode="T" d="M232 0 l105 666 l-262 0 l7 39 l566 0 l-7 -39 l-262 0 l-105 -666 l-42 0 Z" /><glyph glyph-name="U" unicode="U" d="M328 -8 q-90 0 -146.5 31.5 q-56.5 31.5 -78.5 93.5 q-22 62 -8 153 l69 435 l42 0 l-68 -429 q-19 -122 25 -182.5 q44 -60.5 168 -60.5 q107 0 173.5 55.5 q66.5 55.5 87.5 187.5 l68 429 l42 0 l-69 -435 q-15 -98 -55.5 -159.5 q-40.5 -61.5 -103.5 -90 q-63 -28.5 -146 -28.5 Z" /><glyph glyph-name="V" unicode="V" d="M274 0 l-190 705 l42 0 l184 -681 l-20 0 l400 681 l47 0 l-417 -705 l-46 0 Z" /><glyph glyph-name="W" unicode="W" d="M245 0 l-131 705 l42 0 l126 -686 l-30 0 l352 686 l39 0 l124 -686 l-27 0 l348 686 l46 0 l-358 -705 l-44 0 l-121 672 l20 0 l-344 -672 l-42 0 Z" /><glyph glyph-name="X" unicode="X" d="M-18 0 l332 367 l2 -10 l-204 348 l48 0 l185 -318 l-12 0 l283 318 l55 0 l-313 -348 l-3 10 l215 -367 l-48 0 l-199 342 l22 0 l-308 -342 l-55 0 Z" /><glyph glyph-name="Y" unicode="Y" d="M232 0 l52 326 l5 -38 l-216 417 l46 0 l192 -378 l-15 0 l312 378 l50 0 l-348 -417 l16 38 l-52 -326 l-42 0 Z" /><glyph glyph-name="uni01B3" unicode="&#x1b3;" d="M232 0 l52 326 l5 -38 l-216 417 l46 0 l192 -378 l-15 0 l261 316 q21 25 41.5 40 q20.5 15 43 22 q22.5 7 48.5 7 q19 0 29.5 -1.5 q10.5 -1.5 23.5 -6.5 l-6 -37 q-10 4 -21.5 6 q-11.5 2 -25.5 2 q-27 0 -52 -11.5 q-25 -11.5 -49 -40.5 l-279 -335 l16 38 l-52 -326 l-42 0 Z" /><glyph glyph-name="Z" unicode="Z" d="M2 0 l5 31 l554 658 l-4 -23 l-450 0 l7 39 l494 0 l-5 -31 l-555 -658 l3 23 l461 0 l-6 -39 l-504 0 Z" /><glyph glyph-name="a" unicode="a" d="M240 -8 q-69 0 -115.5 31 q-46.5 31 -65 91 q-18.5 60 -4.5 146 q20 120 89 184 q69 64 167 64 q70 0 115.5 -37 q45.5 -37 55.5 -102 l-12 0 l31 131 l41 0 q-7 -28 -14 -55 q-7 -27 -11 -53 l-62 -392 l-42 0 l21 131 l14 0 q-28 -65 -81 -102 q-53 -37 -127 -37 ZM244 31 q80 0 137.5 56.5 q57.5 56.5 74.5 162.5 q17 106 -24 162.5 q-41 56.5 -125 56.5 q-80 0 -136.5 -56.5 q-56.5 -56.5 -73.5 -162.5 q-17 -106 22.5 -162.5 q39.5 -56.5 124.5 -56.5 Z" /><glyph glyph-name="ae" unicode="æ" d="M210 -8 q-53 0 -90.5 20.5 q-37.5 20.5 -54.5 56.5 q-17 36 -9 82 q10 56 51 85.5 q41 29.5 109.5 40.5 q68.5 11 158.5 11 l52 0 l-5 -37 l-50 0 q-80 0 -138 -8 q-58 -8 -92 -31 q-34 -23 -41 -68 q-8 -51 22.5 -82.5 q30.5 -31.5 91.5 -31.5 q76 0 127 50 q51 50 64 129 l19 119 q12 75 -18.5 108 q-30.5 33 -87.5 33 q-52 0 -95.5 -13 q-43.5 -13 -90.5 -43 l-19 34 q29 20 61.5 33.5 q32.5 13.5 68 20.5 q35.5 7 71.5 7 q81 0 117.5 -37.5 q36.5 -37.5 34.5 -104.5 l-18 0 q32 67 91.5 104.5 q59.5 37.5 130.5 37.5 q64 0 106 -28.5 q42 -28.5 59.5 -80 q17.5 -51.5 7.5 -120.5 l-4 -27 l-399 0 l6 38 l377 0 l-17 -13 q13 92 -22 142.5 q-35 50.5 -118 50.5 q-59 0 -103 -27 q-44 -27 -71 -73.5 q-27 -46.5 -35 -106.5 l-2 -15 q-14 -105 29 -161 q43 -56 134 -56 q45 0 89.5 15 q44.5 15 81.5 51 l22 -33 q-36 -34 -89.5 -53 q-53.5 -19 -104.5 -19 q-90 0 -141.5 44.5 q-51.5 44.5 -61.5 126.5 l17 0 q-26 -80 -83.5 -125.5 q-57.5 -45.5 -138.5 -45.5 Z" /><glyph glyph-name="b" unicode="b" d="M272 -8 q-70 0 -115 37 q-45 37 -56 102 l10 0 l-21 -131 l-42 0 l117 736 l42 0 l-58 -367 l-14 0 q28 65 81 102 q53 37 127 37 q70 0 116 -31 q46 -31 64.5 -91 q18.5 -60 4.5 -146 q-19 -120 -88.5 -184 q-69.5 -64 -167.5 -64 ZM276 31 q80 0 136.5 56.5 q56.5 56.5 73.5 162.5 q17 106 -22.5 162.5 q-39.5 56.5 -124.5 56.5 q-79 0 -137 -56.5 q-58 -56.5 -75 -162.5 q-16 -106 24.5 -162.5 q40.5 -56.5 124.5 -56.5 Z" /><glyph glyph-name="uni0253" unicode="&#x253;" d="M272 -8 q-70 0 -115 37 q-45 37 -56 102 l10 0 l-21 -131 l-42 0 l94 594 q12 74 53 112 q41 38 117 38 q14 0 25.5 -1.5 q11.5 -1.5 21.5 -5.5 l-12 -37 q-13 4 -20.5 5 q-7.5 1 -18.5 1 q-105 0 -123 -110 l-36 -227 l-14 0 q28 65 81 102 q53 37 127 37 q70 0 116 -31 q46 -31 64.5 -91 q18.5 -60 4.5 -146 q-19 -120 -88.5 -184 q-69.5 -64 -167.5 -64 ZM276 31 q80 0 136.5 56.5 q56.5 56.5 73.5 162.5 q17 106 -22.5 162.5 q-39.5 56.5 -124.5 56.5 q-79 0 -137 -56.5 q-58 -56.5 -75 -162.5 q-16 -106 24.5 -162.5 q40.5 -56.5 124.5 -56.5 Z" /><glyph glyph-name="c" unicode="c" d="M246 -8 q-69 0 -117 31 q-48 31 -68 91 q-20 60 -6 146 q20 120 88.5 184 q68.5 64 168.5 64 q48 0 89 -16 q41 -16 67 -48 l-23 -30 q-29 29 -63.5 42 q-34.5 13 -67.5 13 q-85 0 -142.5 -56 q-57.5 -56 -74.5 -160 q-17 -108 24.5 -165 q41.5 -57 125.5 -57 q39 0 80 14.5 q41 14.5 76 48.5 l21 -33 q-32 -33 -82.5 -51 q-50.5 -18 -95.5 -18 Z" /><glyph glyph-name="d" unicode="d" d="M240 -8 q-69 0 -115.5 31 q-46.5 31 -65 91 q-18.5 60 -4.5 146 q20 120 89 184 q69 64 167 64 q70 0 115.5 -37 q45.5 -37 55.5 -102 l-10 0 l58 367 l42 0 l-117 -736 l-42 0 l21 131 l14 0 q-28 -65 -81 -102 q-53 -37 -127 -37 ZM244 31 q80 0 137.5 56.5 q57.5 56.5 74.5 162.5 q17 106 -24 162.5 q-41 56.5 -125 56.5 q-80 0 -136.5 -56.5 q-56.5 -56.5 -73.5 -162.5 q-17 -106 22.5 -162.5 q39.5 -56.5 124.5 -56.5 Z" /><glyph glyph-name="eth" unicode="ð" d="M241 -8 q-68 0 -115 29.5 q-47 29.5 -66.5 84.5 q-19.5 55 -7.5 131 q11 67 44.5 118 q33.5 51 86.5 79.5 q53 28.5 120 28.5 q78 0 127.5 -42.5 q49.5 -42.5 54.5 -127.5 l-19 0 q16 98 -6 185.5 q-22 87.5 -86 148.5 l18 -1 l-207 -79 l-13 31 l187 72 l1 -12 q-27 23 -60.5 40.5 q-33.5 17.5 -72.5 29.5 l15 33 q48 -15 87.5 -36.5 q39.5 -21.5 70.5 -48.5 l-17 3 l121 46 l13 -31 l-103 -40 l0 9 q42 -45 66 -104 q24 -59 30 -127.5 q6 -68.5 -6 -145.5 q-21 -132 -88 -203 q-67 -71 -175 -71 ZM241 31 q83 0 140.5 52.5 q57.5 52.5 71.5 143.5 q14 92 -26 144 q-40 52 -123 52 q-83 0 -139 -50 q-56 -50 -72 -146 q-15 -93 26.5 -144.5 q41.5 -51.5 121.5 -51.5 Z" /><glyph glyph-name="dcroat" unicode="&#x111;" d="M240 -8 q-69 0 -115.5 31 q-46.5 31 -65 91 q-18.5 60 -4.5 146 q20 120 89 184 q69 64 167 64 q70 0 115.5 -37 q45.5 -37 55.5 -102 l-10 0 l36 225 l-197 0 l6 37 l196 0 l17 105 l42 0 l-17 -105 l98 0 l-6 -37 l-98 0 l-94 -594 l-42 0 l21 131 l14 0 q-28 -65 -81 -102 q-53 -37 -127 -37 ZM244 31 q80 0 137.5 56.5 q57.5 56.5 74.5 162.5 q17 106 -24 162.5 q-41 56.5 -125 56.5 q-80 0 -136.5 -56.5 q-56.5 -56.5 -73.5 -162.5 q-17 -106 22.5 -162.5 q39.5 -56.5 124.5 -56.5 Z" /><glyph glyph-name="uni0257" unicode="&#x257;" d="M240 -8 q-69 0 -115.5 31 q-46.5 31 -65 91 q-18.5 60 -4.5 146 q20 120 89 184 q69 64 167 64 q70 0 115.5 -37 q45.5 -37 55.5 -102 l-10 0 l36 225 q13 78 55.5 114 q42.5 36 113.5 36 q12 0 23 -1.5 q11 -1.5 24 -5.5 l-12 -37 q-13 4 -21 5 q-8 1 -18 1 q-55 0 -85.5 -30 q-30.5 -30 -38.5 -83 l-94 -593 l-42 0 l21 131 l14 0 q-28 -65 -81 -102 q-53 -37 -127 -37 ZM244 31 q80 0 137.5 56.5 q57.5 56.5 74.5 162.5 q17 106 -24 162.5 q-41 56.5 -125 56.5 q-80 0 -136.5 -56.5 q-56.5 -56.5 -73.5 -162.5 q-17 -106 22.5 -162.5 q39.5 -56.5 124.5 -56.5 Z" /><glyph glyph-name="e" unicode="e" d="M263 -8 q-78 0 -129 32.5 q-51 32.5 -71 93.5 q-20 61 -7 146 q13 78 48 132.5 q35 54.5 89 83 q54 28.5 123 28.5 q66 0 109 -28.5 q43 -28.5 61 -80 q18 -51.5 8 -120.5 l-4 -27 l-409 0 l6 38 l387 0 l-17 -13 q13 92 -23 142.5 q-36 50.5 -122 50.5 q-62 0 -107 -27 q-45 -27 -72 -73.5 q-27 -46.5 -35 -106.5 l-2 -15 q-14 -105 29.5 -161 q43.5 -56 138.5 -56 q47 0 93 15 q46 15 83 51 l22 -33 q-39 -34 -91.5 -53 q-52.5 -19 -107.5 -19 Z" /><glyph glyph-name="uni0259" unicode="&#x259;" d="M230 -8 q-69 0 -113.5 28.5 q-44.5 28.5 -62.5 80.5 q-18 52 -8 120 l4 27 l409 0 l-6 -38 l-387 0 l21 13 q-16 -91 20 -142 q36 -51 127 -51 q59 0 103 27 q44 27 70.5 74 q26.5 47 34.5 106 l2 15 q14 105 -29.5 161 q-43.5 56 -138.5 56 q-46 0 -92 -15 q-46 -15 -84 -51 l-22 33 q39 36 91.5 54 q52.5 18 107.5 18 q78 0 129 -32.5 q51 -32.5 71.5 -93.5 q20.5 -61 6.5 -146 q-12 -77 -47 -132 q-35 -55 -87.5 -83.5 q-52.5 -28.5 -119.5 -28.5 Z" /><glyph glyph-name="f" unicode="f" d="M68 0 l73 464 l-100 0 l6 36 l110 0 l-12 -11 l16 99 q12 73 55.5 112.5 q43.5 39.5 112.5 39.5 q17 0 35.5 -3.5 q18.5 -3.5 28.5 -8.5 l-6 -40 q-10 5 -26.5 9 q-16.5 4 -35.5 4 q-35 0 -60.5 -15 q-25.5 -15 -41.5 -43.5 q-16 -28.5 -23 -71.5 l-13 -85 l-6 14 l155 0 l-6 -36 l-147 0 l-73 -464 l-42 0 Z" /><glyph glyph-name="g" unicode="g" d="M223 -223 q-59 0 -109.5 17.5 q-50.5 17.5 -87.5 52.5 l22 34 q29 -24 56 -38 q27 -14 57.5 -20.5 q30.5 -6.5 68.5 -6.5 q78 0 125 42.5 q47 42.5 60 121.5 l27 171 l12 0 q-26 -66 -82 -103 q-56 -37 -127 -37 q-69 0 -115.5 33 q-46.5 33 -65.5 91.5 q-19 58.5 -7 134.5 q18 114 87.5 176 q69.5 62 169.5 62 q72 0 118 -37 q46 -37 54 -104 l-8 13 l28 120 l41 0 q-7 -28 -14 -55 q-7 -27 -11 -53 l-64 -405 q-16 -104 -75.5 -157 q-59.5 -53 -159.5 -53 ZM246 50 q83 0 140 55.5 q57 55.5 73 154.5 q16 99 -24 154 q-40 55 -123 55 q-83 0 -140.5 -55 q-57.5 -55 -73.5 -154 q-16 -99 24.5 -154.5 q40.5 -55.5 123.5 -55.5 Z" /><glyph glyph-name="uni01E5" unicode="&#x1e5;" d="M223 -223 q-61 0 -110.5 17.5 q-49.5 17.5 -86.5 52.5 l22 34 q29 -24 56 -38 q27 -14 57.5 -20.5 q30.5 -6.5 68.5 -6.5 q125 0 168 105 l7 -8 l-134 0 l6 36 l139 0 l-9 -6 q2 9 4.5 18 q2.5 9 3.5 19 l27 171 l12 0 q-26 -66 -82 -103 q-56 -37 -127 -37 q-69 0 -115.5 33 q-46.5 33 -65.5 91.5 q-19 58.5 -7 134.5 q12 76 47.5 129 q35.5 53 89.5 81 q54 28 120 28 q72 0 118 -37 q46 -37 54 -104 l-8 13 l28 120 l41 0 q-7 -28 -14 -55 q-7 -27 -11 -53 l-64 -405 q-2 -12 -4.5 -23.5 q-2.5 -11.5 -5.5 -22.5 l-6 8 l87 0 l-6 -36 l-92 0 l9 7 q-25 -71 -80 -107 q-55 -36 -137 -36 ZM246 50 q83 0 140 55.5 q57 55.5 73 154.5 q16 99 -24 154 q-40 55 -123 55 q-83 0 -140.5 -55 q-57.5 -55 -73.5 -154 q-16 -99 24.5 -154.5 q40.5 -55.5 123.5 -55.5 Z" /><glyph glyph-name="h" unicode="h" d="M48 0 l117 736 l42 0 l-57 -357 l-14 0 q30 63 84.5 96 q54.5 33 125.5 33 q93 0 128 -52 q35 -52 20 -146 l-49 -310 l-42 0 l49 308 q14 87 -14 124 q-28 37 -100 37 q-82 0 -135.5 -49 q-53.5 -49 -66.5 -130 l-46 -290 l-42 0 Z" /><glyph glyph-name="hbar" unicode="&#x127;" d="M48 0 l94 594 l-99 0 l6 37 l99 0 l17 105 l42 0 l-17 -105 l204 0 l-6 -37 l-204 0 l-34 -215 l-14 0 q30 63 84.5 96 q54.5 33 125.5 33 q93 0 128 -52 q35 -52 20 -146 l-49 -310 l-42 0 l49 308 q14 87 -14 124 q-28 37 -100 37 q-82 0 -135.5 -49 q-53.5 -49 -66.5 -130 l-46 -290 l-42 0 Z" /><glyph glyph-name="i" unicode="i" d="M48 0 l79 500 l42 0 l-79 -500 l-42 0 ZM137 631 l10 63 l64 0 l-10 -63 l-64 0 Z" /><glyph glyph-name="dotlessi" unicode="&#x131;" d="M48 0 l79 500 l42 0 l-79 -500 l-42 0 Z" /><glyph glyph-name="j" unicode="j" d="M-66 -218 q-10 0 -28.5 2.5 q-18.5 2.5 -29.5 8.5 l7 40 q11 -4 27 -8 q16 -4 29 -4 q47 0 73 31 q26 31 36 97 l87 551 l42 0 l-89 -560 q-12 -78 -51.5 -118 q-39.5 -40 -102.5 -40 ZM145 631 l10 63 l64 0 l-10 -63 l-64 0 Z" /><glyph glyph-name="uni0237" unicode="&#x237;" d="M-66 -218 q-10 0 -28.5 3.5 q-18.5 3.5 -29.5 7.5 l7 40 q11 -4 27 -8 q16 -4 29 -4 q47 0 73 31 q26 31 36 97 l87 551 l42 0 l-89 -560 q-12 -78 -51.5 -118 q-39.5 -40 -102.5 -40 Z" /><glyph glyph-name="k" unicode="k" d="M48 0 l117 736 l42 0 l-74 -467 l2 0 l291 231 l62 0 l-330 -259 l0 33 l284 -274 l-57 0 l-254 245 l-2 0 l-39 -245 l-42 0 Z" /><glyph glyph-name="kgreenlandic" unicode="&#x138;" d="M48 0 l79 500 l42 0 l-36 -231 l2 0 l291 231 l62 0 l-330 -259 l0 33 l284 -274 l-57 0 l-254 245 l-2 0 l-39 -245 l-42 0 Z" /><glyph glyph-name="l" unicode="l" d="M48 0 l117 736 l42 0 l-117 -736 l-42 0 Z" /><glyph glyph-name="m" unicode="m" d="M48 0 l62 392 q4 26 6 53 q2 27 3 55 l41 0 l-10 -120 l-14 0 q29 63 77.5 95.5 q48.5 32.5 111.5 32.5 q65 0 101.5 -33 q36.5 -33 36.5 -96 l-12 0 q25 57 77 93 q52 36 119 36 q80 0 117 -48 q37 -48 20 -152 l-49 -308 l-42 0 l50 314 q13 81 -11 118 q-24 37 -90 37 q-73 0 -122 -49 q-49 -49 -62 -132 l-46 -288 l-42 0 l50 314 q13 81 -10.5 118 q-23.5 37 -90.5 37 q-73 0 -121.5 -49 q-48.5 -49 -61.5 -132 l-46 -288 l-42 0 Z" /><glyph glyph-name="n" unicode="n" d="M48 0 l62 392 q4 26 6 53 q2 27 3 55 l41 0 l-10 -120 l-14 -1 q30 63 84.5 96 q54.5 33 125.5 33 q93 0 128 -52 q35 -52 20 -146 l-49 -310 l-42 0 l49 308 q14 87 -14 124 q-28 37 -100 37 q-82 0 -135.5 -49 q-53.5 -49 -66.5 -130 l-46 -290 l-42 0 Z" /><glyph glyph-name="eng" unicode="&#x14b;" d="M48 0 l62 392 q4 26 6 53 q2 27 3 55 l41 0 l-10 -120 l-14 -1 q30 63 84.5 96 q54.5 33 125.5 33 q93 0 128 -52 q35 -52 20 -146 l-58 -364 q-13 -78 -56.5 -121 q-43.5 -43 -112.5 -43 q-16 0 -31.5 3.5 q-15.5 3.5 -26.5 7.5 l7 40 q11 -4 23.5 -8 q12.5 -4 31.5 -4 q54 0 84.5 34 q30.5 34 40.5 100 l56 353 q14 87 -14 124 q-28 37 -100 37 q-82 0 -135.5 -49 q-53.5 -49 -66.5 -130 l-46 -290 l-42 0 Z" /><glyph glyph-name="o" unicode="o" d="M240 -8 q-69 0 -115.5 31 q-46.5 31 -64.5 91 q-18 60 -5 146 q13 80 48.5 135.5 q35.5 55.5 88.5 84 q53 28.5 119 28.5 q70 0 116 -31 q46 -31 65 -91 q19 -60 5 -146 q-13 -80 -49 -135.5 q-36 -55.5 -89 -84 q-53 -28.5 -119 -28.5 ZM244 31 q80 0 137.5 56.5 q57.5 56.5 74.5 162.5 q17 106 -24 162.5 q-41 56.5 -125 56.5 q-80 0 -136.5 -56.5 q-56.5 -56.5 -73.5 -162.5 q-17 -106 22.5 -162.5 q39.5 -56.5 124.5 -56.5 Z" /><glyph glyph-name="oslash" unicode="ø" d="M240 -8 q-69 0 -115.5 31 q-46.5 31 -64.5 91 q-18 60 -5 146 q13 80 48.5 135.5 q35.5 55.5 88.5 84 q53 28.5 119 28.5 q70 0 116 -31 q46 -31 65 -91 q19 -60 5 -146 q-13 -80 -49 -135.5 q-36 -55.5 -89 -84 q-53 -28.5 -119 -28.5 ZM244 31 q80 0 137.5 56.5 q57.5 56.5 74.5 162.5 q17 106 -24 162.5 q-41 56.5 -125 56.5 q-80 0 -136.5 -56.5 q-56.5 -56.5 -73.5 -162.5 q-17 -106 22.5 -162.5 q39.5 -56.5 124.5 -56.5 ZM102 -24 l-29 23 l381 524 l28 -22 l-380 -525 Z" /><glyph glyph-name="oe" unicode="&#x153;" d="M240 -8 q-69 0 -115.5 31 q-46.5 31 -65 91 q-18.5 60 -4.5 146 q13 80 48.5 135.5 q35.5 55.5 88.5 84 q53 28.5 119 28.5 q84 0 132 -46 q48 -46 53 -131 l-17 0 q21 62 58.5 101 q37.5 39 84 57.5 q46.5 18.5 93.5 18.5 q64 0 105.5 -28 q41.5 -28 59 -78 q17.5 -50 9.5 -117 l-4 -33 l-404 0 l6 38 l382 0 l-18 -13 q13 92 -22 142.5 q-35 50.5 -118 50.5 q-59 0 -103 -27 q-44 -27 -71 -73.5 q-27 -46.5 -35 -106.5 l-2 -15 q-14 -105 29 -161 q43 -56 134 -56 q44 0 89 15 q45 15 82 51 l22 -33 q-36 -34 -89.5 -53 q-53.5 -19 -104.5 -19 q-90 0 -141.5 44.5 q-51.5 44.5 -61.5 126.5 l16 3 q-32 -84 -92 -129 q-60 -45 -143 -45 ZM244 31 q80 0 138 56.5 q58 56.5 74 162.5 q17 106 -24 162.5 q-41 56.5 -125 56.5 q-80 0 -136.5 -56.5 q-56.5 -56.5 -73.5 -162.5 q-17 -106 22.5 -162.5 q39.5 -56.5 124.5 -56.5 Z" /><glyph glyph-name="p" unicode="p" d="M14 -216 l96 608 q4 26 6 53 q2 27 3 55 l41 0 l-11 -131 l-14 0 q28 65 81 102 q53 37 127 37 q70 0 116 -31 q46 -31 64.5 -91 q18.5 -60 4.5 -146 q-19 -120 -88.5 -184 q-69.5 -64 -167.5 -64 q-70 0 -115 37 q-45 37 -56 102 l10 0 l-55 -347 l-42 0 ZM276 31 q80 0 136.5 56.5 q56.5 56.5 73.5 162.5 q17 106 -22.5 162.5 q-39.5 56.5 -124.5 56.5 q-79 0 -137 -56.5 q-58 -56.5 -75 -162.5 q-16 -106 24.5 -162.5 q40.5 -56.5 124.5 -56.5 Z" /><glyph glyph-name="thorn" unicode="þ" d="M14 -216 l151 952 l42 0 l-58 -367 l-14 0 q28 65 81 102 q53 37 127 37 q70 0 116 -31 q46 -31 64.5 -91 q18.5 -60 4.5 -146 q-19 -120 -88.5 -184 q-69.5 -64 -167.5 -64 q-70 0 -115 37 q-45 37 -56 102 l10 0 l-55 -347 l-42 0 ZM276 31 q80 0 136.5 56.5 q56.5 56.5 73.5 162.5 q17 106 -22.5 162.5 q-39.5 56.5 -124.5 56.5 q-79 0 -137 -56.5 q-58 -56.5 -75 -162.5 q-16 -106 24.5 -162.5 q40.5 -56.5 124.5 -56.5 Z" /><glyph glyph-name="q" unicode="q" d="M379 -216 l55 347 l14 0 q-28 -65 -81 -102 q-53 -37 -127 -37 q-69 0 -115.5 31 q-46.5 31 -65 91 q-18.5 60 -4.5 146 q20 120 89 184 q69 64 167 64 q70 0 115.5 -37 q45.5 -37 55.5 -102 l-12 0 l31 131 l41 0 q-7 -28 -14 -55 q-7 -27 -11 -53 l-96 -608 l-42 0 ZM244 31 q80 0 137.5 56.5 q57.5 56.5 74.5 162.5 q17 106 -24 162.5 q-41 56.5 -125 56.5 q-80 0 -136.5 -56.5 q-56.5 -56.5 -73.5 -162.5 q-17 -106 22.5 -162.5 q39.5 -56.5 124.5 -56.5 Z" /><glyph glyph-name="r" unicode="r" d="M46 0 l61 386 q5 28 8 57 q3 29 4 57 l41 0 l-9 -109 l-10 -1 q16 40 45 66 q29 26 65.5 39 q36.5 13 72.5 13 q12 0 23 -1 q11 -1 22 -4 l-9 -39 q-9 3 -20.5 4 q-11.5 1 -24.5 1 q-49 0 -86.5 -21.5 q-37.5 -21.5 -60.5 -55.5 q-23 -34 -29 -72 l-51 -320 l-42 0 Z" /><glyph glyph-name="s" unicode="s" d="M209 -8 q-52 0 -99.5 16.5 q-47.5 16.5 -74.5 42.5 l22 34 q32 -26 71 -40 q39 -14 85 -14 q66 0 106 25.5 q40 25.5 47 67.5 q6 38 -14 62.5 q-20 24.5 -71 32.5 l-64 11 q-75 12 -103.5 51.5 q-28.5 39.5 -19.5 95.5 q7 41 33.5 70 q26.5 29 67.5 45 q41 16 90 16 q54 0 96.5 -16 q42.5 -16 64.5 -39 l-23 -34 q-26 24 -61 37 q-35 13 -77 13 q-64 0 -102 -27.5 q-38 -27.5 -45 -69.5 q-6 -39 11.5 -64.5 q17.5 -25.5 63.5 -33.5 l67 -12 q77 -13 107.5 -49 q30.5 -36 21.5 -90 q-6 -38 -31.5 -68 q-25.5 -30 -68.5 -46.5 q-43 -16.5 -100 -16.5 Z" /><glyph glyph-name="germandbls" unicode="ß" d="M48 0 l81 510 q18 116 78 173 q60 57 162 57 q57 0 95 -19.5 q38 -19.5 55 -56.5 q17 -37 8 -91 q-6 -41 -29 -79 q-23 -38 -67 -71 q-44 -33 -115 -60 l-1 11 q91 -26 144 -60 q53 -34 73.5 -76.5 q20.5 -42.5 11.5 -95.5 q-7 -44 -33 -78 q-26 -34 -68 -53 q-42 -19 -98 -19 q-53 0 -97.5 15.5 q-44.5 15.5 -70.5 40.5 l20 34 q33 -25 69 -38 q36 -13 81 -13 q64 0 105 31 q41 31 50 89 q6 40 -10.5 73.5 q-16.5 33.5 -68.5 63.5 q-52 30 -151 58 l6 38 q74 28 118 58 q44 30 65.5 63.5 q21.5 33.5 26.5 69.5 q10 61 -20.5 94 q-30.5 33 -99.5 33 q-87 0 -134.5 -47.5 q-47.5 -47.5 -62.5 -142.5 l-81 -512 l-42 0 Z" /><glyph glyph-name="t" unicode="t" d="M203 -8 q-68 0 -96 38.5 q-28 38.5 -16 117.5 l50 316 l-100 0 l6 36 l100 0 l23 143 l44 16 l-25 -159 l152 0 l-6 -36 l-152 0 l-48 -305 q-10 -66 5.5 -97 q15.5 -31 61.5 -31 q20 0 36.5 4 q16.5 4 28.5 9 l-6 -40 q-12 -5 -26 -8.5 q-14 -3.5 -32 -3.5 Z" /><glyph glyph-name="u" unicode="u" d="M229 -8 q-85 0 -127.5 47 q-42.5 47 -26.5 153 l49 308 l42 0 l-48 -303 q-13 -88 14.5 -127 q27.5 -39 97.5 -39 q79 0 130.5 50 q51.5 50 64.5 133 l45 286 l42 0 l-79 -500 l-41 0 l19 122 l15 0 q-28 -62 -80.5 -96 q-52.5 -34 -116.5 -34 Z" /><glyph glyph-name="v" unicode="v" d="M196 0 l-133 500 l46 0 l124 -484 l-24 0 l277 484 l49 0 l-291 -500 l-48 0 Z" /><glyph glyph-name="w" unicode="w" d="M178 0 l-97 500 l45 0 l90 -486 l-26 0 l251 486 l52 0 l94 -486 l-27 0 l246 486 l48 0 l-256 -500 l-50 0 l-95 491 l30 0 l-254 -491 l-51 0 Z" /><glyph glyph-name="x" unicode="x" d="M-12 0 l259 271 l0 -26 l-165 255 l49 0 l140 -221 l-15 0 l209 221 l55 0 l-241 -252 l0 19 l171 -267 l-50 0 l-148 235 l15 0 l-224 -235 l-55 0 Z" /><glyph glyph-name="y" unicode="y" d="M-14 -227 l-9 39 q49 11 82.5 27.5 q33.5 16.5 59 42.5 q25.5 26 48.5 65 l35 60 l-2 -21 l-137 514 l46 0 l125 -484 l-23 0 l274 484 l50 0 l-321 -554 q-25 -43 -50.5 -72.5 q-25.5 -29.5 -53 -49.5 q-27.5 -20 -58 -32 q-30.5 -12 -66.5 -19 Z" /><glyph glyph-name="uni01B4" unicode="&#x1b4;" d="M-16 -227 l-6 39 q49 11 82.5 27.5 q33.5 16.5 58.5 42.5 q25 26 48 65 l35 60 l-2 -21 l-137 514 l46 0 l125 -484 l-23 0 l220 390 q21 37 42.5 59 q21.5 22 47.5 32.5 q26 10.5 59 10.5 q16 0 27 -1.5 q11 -1.5 22 -5.5 l-12 -37 q-8 3 -18.5 4.5 q-10.5 1.5 -18.5 1.5 q-35 0 -58.5 -18 q-23.5 -18 -55.5 -71 l-252 -435 q-25 -43 -50.5 -72.5 q-25.5 -29.5 -53 -49.5 q-27.5 -20 -59 -32 q-31.5 -12 -67.5 -19 Z" /><glyph glyph-name="z" unicode="z" d="M11 0 l5 30 l425 447 l-2 -13 l-355 0 l6 36 l401 0 l-5 -30 l-426 -448 l2 14 l368 0 l-6 -36 l-413 0 Z" /><glyph glyph-name="fi" unicode="&#xfb01;" d="M68 0 l73 464 l-100 0 l6 36 l110 0 l-12 -11 l16 99 q12 73 55.5 112.5 q43.5 39.5 112.5 39.5 q17 0 35.5 -3.5 q18.5 -3.5 28.5 -8.5 l-6 -40 q-10 5 -26.5 9 q-16.5 4 -35.5 4 q-53 0 -83.5 -33 q-30.5 -33 -41.5 -97 l-13 -85 l-6 14 l297 0 l-79 -500 l-42 0 l73 464 l-247 0 l-73 -464 l-42 0 ZM445 631 l10 63 l65 0 l-10 -63 l-65 0 Z" /><glyph glyph-name="ordfeminine" unicode="ª" d="M160 413 q-33 0 -55 12 q-22 12 -32 32.5 q-10 20.5 -6 46.5 q5 32 25.5 49.5 q20.5 17.5 50.5 24.5 q30 7 63 7 l88 0 l-5 -29 l-86 0 q-92 0 -100 -52 q-4 -26 10 -43 q14 -17 51 -17 q45 0 77.5 28 q32.5 28 40.5 77 l9 57 q6 38 -11 57 q-17 19 -58 19 q-27 0 -55 -7.5 q-28 -7.5 -51 -22.5 l-12 29 q26 16 58.5 24 q32.5 8 63.5 8 q55 0 81 -28.5 q26 -28.5 16 -89.5 l-28 -177 l-33 0 l8 53 l-2 0 q-19 -31 -46 -44.5 q-27 -13.5 -62 -13.5 Z" /><glyph glyph-name="ordmasculine" unicode="º" d="M194 413 q-61 0 -94.5 40 q-33.5 40 -22.5 115 q11 71 54 108 q43 37 101 37 q61 0 95 -39.5 q34 -39.5 22 -115.5 q-11 -70 -54 -107.5 q-43 -37.5 -101 -37.5 ZM196 444 q45 0 77 30.5 q32 30.5 41 88.5 q9 58 -13.5 88.5 q-22.5 30.5 -70.5 30.5 q-45 0 -77 -30.5 q-32 -30.5 -41 -88.5 q-9 -58 13.5 -88.5 q22.5 -30.5 70.5 -30.5 Z" /><glyph glyph-name="uni0411" unicode="&#x411;" d="M57 0 l112 705 l449 0 l-7 -39 l-407 0 l-45 -287 l234 0 q114 0 168.5 -49.5 q54.5 -49.5 38.5 -148.5 q-13 -88 -80 -134.5 q-67 -46.5 -172 -46.5 l-291 0 ZM105 39 l238 0 q96 0 148.5 35.5 q52.5 35.5 65.5 113.5 q12 78 -28 115 q-40 37 -136 37 l-240 0 l-48 -301 Z" /><glyph glyph-name="uni0413" unicode="&#x413;" d="M57 0 l112 705 l431 0 l-7 -39 l-389 0 l-105 -666 l-42 0 Z" /><glyph glyph-name="uni0490" unicode="&#x490;" d="M57 0 l112 705 l390 0 l24 150 l41 0 l-30 -189 l-390 0 l-105 -666 l-42 0 Z" /><glyph glyph-name="uni0414" unicode="&#x414;" d="M-45 -150 l30 189 l71 0 q70 71 116.5 188.5 q46.5 117.5 74.5 295.5 l29 182 l454 0 l-106 -666 l104 0 l-30 -189 l-41 0 l24 150 l-661 0 l-24 -150 l-41 0 ZM110 39 l472 0 l99 627 l-372 0 l-22 -141 q-28 -177 -70.5 -293 q-42.5 -116 -106.5 -193 Z" /><glyph glyph-name="uni0416" unicode="&#x416;" d="M-25 0 l157 239 q41 63 90 97.5 q49 34.5 113 39.5 l-14 -17 l-190 346 l46 0 l186 -342 l-16 15 l131 0 l52 327 l42 0 l-52 -327 l133 0 l-28 -15 l297 342 l52 0 l-300 -346 l-11 17 q49 -4 89.5 -39 q40.5 -35 62.5 -98 l83 -239 l-41 0 l-72 210 q-24 70 -63 99.5 q-39 29.5 -101 29.5 l-107 0 l-54 -339 l-42 0 l54 339 l-107 0 q-64 0 -112.5 -30 q-48.5 -30 -92.5 -99 l-136 -210 l-49 0 Z" /><glyph glyph-name="uni0417" unicode="&#x417;" d="M293 -8 q-89 0 -157 26 q-68 26 -104 70 l23 35 q47 -46 105 -68 q58 -22 140 -22 q107 0 165.5 39 q58.5 39 70.5 113 q12 79 -30.5 115.5 q-42.5 36.5 -138.5 36.5 l-179 0 l7 39 l166 0 q98 0 149.5 37.5 q51.5 37.5 62.5 106.5 q11 73 -35 112.5 q-46 39.5 -147 39.5 q-71 0 -134.5 -21 q-63.5 -21 -122.5 -65 l-21 35 q59 46 131 69 q72 23 148 23 q81 0 134 -23.5 q53 -23.5 76.5 -67 q23.5 -43.5 13.5 -105.5 q-10 -63 -55 -108 q-45 -45 -123 -59 l2 12 q76 -8 114 -55 q38 -47 25 -125 q-10 -61 -45 -103.5 q-35 -42.5 -95 -64.5 q-60 -22 -146 -22 Z" /><glyph glyph-name="uni0418" unicode="&#x418;" d="M57 0 l112 705 l39 0 l-105 -665 l-23 3 l598 662 l36 0 l-112 -705 l-39 0 l105 665 l20 -4 l-597 -661 l-34 0 Z" /><glyph glyph-name="uni048A" unicode="&#x48a;" d="M580 -150 l76 150 l-93 0 l6 39 l144 0 l-95 -189 l-38 0 ZM57 0 l112 705 l39 0 l-105 -665 l-23 3 l598 662 l36 0 l-112 -705 l-39 0 l105 665 l20 -4 l-597 -661 l-34 0 ZM448 760 q-35 0 -69.5 12 q-34.5 12 -61.5 39.5 q-27 27.5 -41 72.5 l34 14 q17 -52 51.5 -77 q34.5 -25 86.5 -25 q53 0 90.5 21.5 q37.5 21.5 75.5 79.5 l31 -13 q-27 -49 -59.5 -76 q-32.5 -27 -67.5 -37.5 q-35 -10.5 -70 -10.5 Z" /><glyph glyph-name="uni041A" unicode="&#x41a;" d="M57 0 l112 705 l41 0 l-52 -327 l164 0 l-26 -15 l296 342 l52 0 l-300 -346 l-12 17 q57 -6 94 -40 q37 -34 59 -97 l83 -239 l-41 0 l-71 210 q-23 70 -63 99.5 q-40 29.5 -102 29.5 l-139 0 l-54 -339 l-41 0 Z" /><glyph glyph-name="uni041B" unicode="&#x41b;" d="M-2 -13 l-16 36 q45 21 84 51.5 q39 30.5 71 82 q32 51.5 58.5 133.5 q26.5 82 45.5 205 l33 210 l454 0 l-112 -705 l-42 0 l106 666 l-373 0 l-29 -182 q-19 -118 -44.5 -202 q-25.5 -84 -59.5 -140.5 q-34 -56.5 -78 -93.5 q-44 -37 -98 -61 Z" /><glyph glyph-name="uni041F" unicode="&#x41f;" d="M57 0 l112 705 l565 0 l-112 -705 l-42 0 l105 666 l-482 0 l-105 -666 l-41 0 Z" /><glyph glyph-name="uni0423" unicode="&#x423;" d="M177 0 l156 223 l0 -25 l-251 507 l45 0 l230 -466 l-12 0 l322 466 l48 0 l-489 -705 l-49 0 Z" /><glyph glyph-name="uni0424" unicode="&#x424;" d="M354 -20 l14 91 l12 -14 l-26 0 q-100 0 -164.5 40 q-64.5 40 -90.5 110 q-26 70 -12 161 q22 139 115 214.5 q93 75.5 237 75.5 l36 0 l-16 -14 l14 86 l42 0 l-14 -86 l-12 14 l26 0 q103 0 167 -39 q64 -39 89.5 -108.5 q25.5 -69.5 10.5 -162.5 q-14 -91 -62 -156 q-48 -65 -122 -100 q-74 -35 -168 -35 l-36 0 l16 14 l-14 -91 l-42 0 ZM370 82 l87 551 l12 -14 l-37 0 q-122 0 -201 -65.5 q-79 -65.5 -99 -190.5 q-13 -83 9 -143 q22 -60 75 -92 q53 -32 133 -32 l37 0 l-16 -14 ZM412 82 l-12 14 l37 0 q80 0 143.5 31 q63.5 31 104.5 88 q41 57 53 136 q14 86 -8 145.5 q-22 59.5 -75 91 q-53 31.5 -135 31.5 l-37 0 l16 14 l-87 -551 Z" /><glyph glyph-name="uni0427" unicode="&#x427;" d="M495 0 l50 318 q-39 -21 -92 -31.5 q-53 -10.5 -107 -10.5 q-93 0 -150 31.5 q-57 31.5 -78.5 94 q-21.5 62.5 -7.5 155.5 l24 148 l42 0 l-23 -142 q-22 -133 28 -189.5 q50 -56.5 167 -56.5 q54 0 105.5 11 q51.5 11 99.5 36 l54 341 l42 0 l-112 -705 l-42 0 Z" /><glyph glyph-name="uni0426" unicode="&#x426;" d="M660 -150 l24 150 l-627 0 l112 705 l41 0 l-106 -666 l482 0 l106 666 l42 0 l-106 -666 l103 0 l-30 -189 l-41 0 Z" /><glyph glyph-name="uni0428" unicode="&#x428;" d="M57 0 l112 705 l42 0 l-106 -666 l374 0 l106 666 l42 0 l-106 -666 l374 0 l106 666 l42 0 l-112 -705 l-874 0 Z" /><glyph glyph-name="uni0429" unicode="&#x429;" d="M969 -150 l24 150 l-936 0 l112 705 l42 0 l-106 -666 l374 0 l106 666 l42 0 l-106 -666 l374 0 l106 666 l42 0 l-106 -666 l103 0 l-30 -189 l-41 0 Z" /><glyph glyph-name="uni040F" unicode="&#x40f;" d="M295 -150 l24 150 l-262 0 l112 705 l42 0 l-106 -666 l481 0 l106 666 l42 0 l-112 -705 l-262 0 l-24 -150 l-41 0 Z" /><glyph glyph-name="uni042C" unicode="&#x42c;" d="M57 0 l112 705 l42 0 l-52 -326 l234 0 q114 0 168.5 -49.5 q54.5 -49.5 38.5 -148.5 q-13 -88 -80 -134.5 q-67 -46.5 -172 -46.5 l-291 0 ZM105 39 l238 0 q96 0 148.5 35.5 q52.5 35.5 65.5 113.5 q12 78 -28 115 q-40 37 -136 37 l-240 0 l-48 -301 Z" /><glyph glyph-name="uni042A" unicode="&#x42a;" d="M200 0 l105 666 l-230 0 l7 39 l272 0 l-52 -326 l234 0 q114 0 168 -49.5 q54 -49.5 39 -148.5 q-13 -88 -80 -134.5 q-67 -46.5 -172 -46.5 l-291 0 ZM248 39 l238 0 q96 0 149 35.5 q53 35.5 65 113.5 q12 78 -28 115 q-40 37 -136 37 l-240 0 l-48 -301 Z" /><glyph glyph-name="uni042B" unicode="&#x42b;" d="M57 0 l112 705 l42 0 l-52 -326 l204 0 q114 0 168 -49.5 q54 -49.5 39 -148.5 q-13 -88 -80 -134.5 q-67 -46.5 -172 -46.5 l-261 0 ZM105 39 l208 0 q96 0 149 35.5 q53 35.5 65 113.5 q12 78 -28 115 q-40 37 -136 37 l-210 0 l-48 -301 ZM654 0 l112 705 l42 0 l-112 -705 l-42 0 Z" /><glyph glyph-name="uni0409" unicode="&#x409;" d="M-2 -13 l-16 36 q45 21 84 51.5 q39 30.5 71 82 q32 51.5 58.5 133.5 q26.5 82 45.5 205 l33 210 l433 0 l-52 -326 l234 0 q114 0 168 -49.5 q54 -49.5 39 -148.5 q-13 -88 -80 -134.5 q-67 -46.5 -172 -46.5 l-291 0 l105 666 l-351 0 l-29 -182 q-19 -118 -44.5 -202 q-25.5 -84 -59.5 -140.5 q-34 -56.5 -78 -93.5 q-44 -37 -98 -61 ZM601 39 l238 0 q96 0 149 35.5 q53 35.5 65 113.5 q12 78 -28 115 q-40 37 -136 37 l-240 0 l-48 -301 Z" /><glyph glyph-name="uni040A" unicode="&#x40a;" d="M57 0 l112 705 l41 0 l-52 -328 l481 0 l52 328 l42 0 l-52 -326 l234 0 q114 0 168 -49.5 q54 -49.5 39 -148.5 q-13 -88 -80 -134.5 q-67 -46.5 -172 -46.5 l-291 0 l54 339 l-481 0 l-54 -339 l-41 0 ZM627 39 l238 0 q96 0 149 35.5 q53 35.5 65 113.5 q12 78 -28 115 q-40 37 -136 37 l-240 0 l-48 -301 Z" /><glyph glyph-name="uni0404" unicode="&#x404;" d="M363 -8 q-84 0 -143 26.5 q-59 26.5 -93.5 75 q-34.5 48.5 -44.5 117 q-10 68.5 3 152.5 q18 112 67 190 q49 78 124.5 119 q75.5 41 173.5 41 q74 0 129 -22.5 q55 -22.5 95 -66.5 l-23 -35 q-44 46 -89.5 64.5 q-45.5 18.5 -114.5 18.5 q-133 0 -212 -83 q-79 -83 -105 -227 l-15 16 l416 0 l-6 -40 l-417 0 l20 9 q-22 -148 38 -231 q60 -83 197 -83 q61 0 118 21.5 q57 21.5 104 68.5 l22 -35 q-45 -47 -110.5 -71.5 q-65.5 -24.5 -133.5 -24.5 Z" /><glyph glyph-name="uni042D" unicode="&#x42d;" d="M266 -8 q-73 0 -128 22.5 q-55 22.5 -96 66.5 l23 35 q44 -46 89.5 -64.5 q45.5 -18.5 114.5 -18.5 q134 0 213 83 q79 83 105 227 l17 -5 l-417 0 l6 40 l416 0 l-20 -20 q22 148 -38 231 q-60 83 -194 83 q-61 0 -118.5 -21.5 q-57.5 -21.5 -107.5 -68.5 l-22 35 q48 47 114 71.5 q66 24.5 134 24.5 q82 0 140.5 -26.5 q58.5 -26.5 93 -75 q34.5 -48.5 45 -117 q10.5 -68.5 -3.5 -152.5 q-18 -111 -67 -189.5 q-49 -78.5 -125 -119.5 q-76 -41 -174 -41 Z" /><glyph glyph-name="uni040B" unicode="&#x40b;" d="M232 0 l105 666 l-262 0 l7 39 l566 0 l-7 -39 l-262 0 l-44 -279 q40 21 94.5 31.5 q54.5 10.5 104.5 10.5 q137 0 198 -70.5 q61 -70.5 38 -210.5 l-23 -148 l-42 0 l22 142 q20 127 -28.5 187 q-48.5 60 -166.5 60 q-53 0 -104.5 -10 q-51.5 -10 -99.5 -36 l-54 -343 l-42 0 Z" /><glyph glyph-name="uni042E" unicode="&#x42e;" d="M595 -8 q-94 0 -157 41.5 q-63 41.5 -89.5 119 q-26.5 77.5 -13.5 185.5 l-182 0 l-54 -338 l-42 0 l112 705 l42 0 l-52 -328 l181 0 q30 164 125 250 q95 86 234 86 q100 0 163.5 -46 q63.5 -46 88.5 -129 q25 -83 7 -194 q-18 -112 -68.5 -190.5 q-50.5 -78.5 -126 -120 q-75.5 -41.5 -168.5 -41.5 ZM596 33 q125 0 209.5 84 q84.5 84 108.5 236 q16 98 -5 169.5 q-21 71.5 -74.5 110.5 q-53.5 39 -137.5 39 q-130 0 -211 -83.5 q-81 -83.5 -105 -235.5 q-15 -97 4 -169 q19 -72 72 -111.5 q53 -39.5 139 -39.5 Z" /><glyph glyph-name="uni042F" unicode="&#x42f;" d="M4 0 l174 242 q32 45 65 65.5 q33 20.5 73 20.5 l18 0 l-29 -12 q-66 0 -111.5 23.5 q-45.5 23.5 -65.5 69 q-20 45.5 -10 110.5 q14 88 78.5 137 q64.5 49 176.5 49 l275 0 l-112 -705 l-42 0 l49 312 l-156 0 q-40 0 -69 -7 q-29 -7 -52.5 -25.5 q-23.5 -18.5 -48.5 -53.5 l-162 -226 l-51 0 ZM321 351 l229 0 l50 316 l-219 0 q-102 0 -155 -39.5 q-53 -39.5 -65 -115.5 q-13 -80 28 -120.5 q41 -40.5 132 -40.5 Z" /><glyph glyph-name="uni0402" unicode="&#x402;" d="M511 -188 q-33 0 -62 6 q-29 6 -48 15 l13 37 q19 -10 43.5 -14.5 q24.5 -4.5 54.5 -4.5 q75 0 121 47 q46 47 61 143 l16 101 q20 125 -25.5 185.5 q-45.5 60.5 -164.5 60.5 q-56 0 -103.5 -11.5 q-47.5 -11.5 -88.5 -34.5 l-54 -342 l-42 0 l105 666 l-262 0 l7 39 l566 0 l-7 -39 l-262 0 l-44 -279 q35 20 86.5 31 q51.5 11 104.5 11 q133 0 191.5 -70.5 q58.5 -70.5 35.5 -210.5 l-17 -107 q-11 -75 -39.5 -126 q-28.5 -51 -74.5 -77 q-46 -26 -111 -26 Z" /><glyph glyph-name="uni0462" unicode="&#x462;" d="M120 0 l87 548 l-180 0 l6 39 l180 0 l19 118 l42 0 l-19 -118 l248 0 l-6 -39 l-248 0 l-27 -169 l234 0 q114 0 168 -49.5 q54 -49.5 39 -148.5 q-13 -88 -80 -134.5 q-67 -46.5 -172 -46.5 l-291 0 ZM168 39 l238 0 q96 0 149 35.5 q53 35.5 65 113.5 q12 78 -28 115 q-40 37 -136 37 l-240 0 l-48 -301 Z" /><glyph glyph-name="uni046A" unicode="&#x46a;" d="M-25 0 l157 239 q44 68 98 103.5 q54 35.5 141 35.5 l82 0 l-7 -13 l-250 340 l686 0 l-358 -340 l-3 13 l72 0 q63 0 101.5 -17 q38.5 -17 61 -48.5 q22.5 -31.5 36.5 -73.5 l83 -239 l-41 0 l-72 210 q-17 52 -39.5 79.5 q-22.5 27.5 -52.5 38.5 q-30 11 -71 11 l-97 0 l-54 -339 l-42 0 l54 339 l-96 0 q-64 0 -112 -30 q-48 -30 -92 -99 l-136 -210 l-49 0 ZM484 382 l2 0 l324 312 l-4 -27 l-552 0 l4 27 l226 -312 Z" /><glyph glyph-name="uni0474" unicode="&#x474;" d="M274 0 l-190 705 l42 0 l184 -681 l-20 0 l299 510 q31 53 58.5 87.5 q27.5 34.5 56 54.5 q28.5 20 62.5 28.5 q34 8.5 78 8.5 l-1 -36 q-46 0 -80 -12.5 q-34 -12.5 -63.5 -44 q-29.5 -31.5 -63.5 -87.5 l-316 -533 l-46 0 Z" /><glyph glyph-name="uni0492" unicode="&#x492;" d="M90 0 l54 338 l-103 0 l6 38 l103 0 l52 329 l431 0 l-7 -39 l-389 0 l-45 -290 l196 0 l-6 -38 l-196 0 l-54 -338 l-42 0 Z" /><glyph glyph-name="uni0494" unicode="&#x494;" d="M331 -188 q-27 0 -54 4.5 q-27 4.5 -43 11.5 l7 40 q18 -9 42 -13.5 q24 -4.5 54 -4.5 q74 0 120.5 48 q46.5 48 62.5 144 l15 100 q20 126 -25.5 186 q-45.5 60 -164.5 60 q-56 0 -104 -11.5 q-48 -11.5 -89 -34.5 l-54 -342 l-41 0 l112 705 l427 0 l-7 -39 l-386 0 l-44 -279 q35 20 86.5 31 q51.5 11 105.5 11 q137 0 192.5 -72 q55.5 -72 34.5 -209 l-16 -105 q-12 -80 -43 -131.5 q-31 -51.5 -78 -75.5 q-47 -24 -110 -24 Z" /><glyph glyph-name="uni0496" unicode="&#x496;" d="M895 -150 l24 150 l-43 0 l6 39 l84 0 l-30 -189 l-41 0 ZM-25 0 l157 239 q41 63 90 97.5 q49 34.5 113 39.5 l-14 -17 l-190 346 l46 0 l186 -342 l-16 15 l131 0 l52 327 l42 0 l-52 -327 l133 0 l-28 -15 l297 342 l52 0 l-300 -346 l-11 17 q49 -4 89.5 -39 q40.5 -35 62.5 -98 l83 -239 l-41 0 l-72 210 q-24 70 -63 99.5 q-39 29.5 -101 29.5 l-107 0 l-54 -339 l-42 0 l54 339 l-107 0 q-64 0 -112.5 -30 q-48.5 -30 -92.5 -99 l-136 -210 l-49 0 Z" /><glyph glyph-name="uni0498" unicode="&#x498;" d="M243 -150 l26 163 l44 0 l-26 -163 l-44 0 ZM293 -8 q-89 0 -157 26 q-68 26 -104 70 l23 35 q47 -46 105 -68 q58 -22 140 -22 q107 0 165.5 39 q58.5 39 70.5 113 q12 79 -30.5 115.5 q-42.5 36.5 -138.5 36.5 l-179 0 l7 39 l166 0 q98 0 149.5 37.5 q51.5 37.5 62.5 106.5 q11 73 -35 112.5 q-46 39.5 -147 39.5 q-71 0 -134.5 -21 q-63.5 -21 -122.5 -65 l-21 35 q59 46 131 69 q72 23 148 23 q81 0 134 -23.5 q53 -23.5 76.5 -67 q23.5 -43.5 13.5 -105.5 q-10 -63 -55 -108 q-45 -45 -123 -59 l2 12 q76 -8 114 -55 q38 -47 25 -125 q-10 -61 -45 -103.5 q-35 -42.5 -95 -64.5 q-60 -22 -146 -22 Z" /><glyph glyph-name="uni049A" unicode="&#x49a;" d="M562 -150 l24 150 l-43 0 l6 39 l84 0 l-30 -189 l-41 0 ZM57 0 l112 705 l41 0 l-52 -327 l164 0 l-26 -15 l296 342 l52 0 l-300 -346 l-12 17 q57 -6 94 -40 q37 -34 59 -97 l83 -239 l-41 0 l-71 210 q-23 70 -63 99.5 q-40 29.5 -102 29.5 l-139 0 l-54 -339 l-41 0 Z" /><glyph glyph-name="uni049C" unicode="&#x49c;" d="M57 0 l112 705 l42 0 l-52 -327 l85 0 l27 171 l36 0 l-27 -171 l37 0 l283 327 l52 0 l-300 -346 l-12 17 q59 -7 96 -40 q37 -33 59 -97 l83 -239 l-41 0 l-71 210 q-23 70 -63.5 99.5 q-40.5 29.5 -102.5 29.5 l-34 0 l9 8 l-28 -179 l-36 0 l27 171 l-85 0 l-54 -339 l-42 0 Z" /><glyph glyph-name="uni049E" unicode="&#x49e;" d="M92 0 l88 552 l-146 0 l6 38 l146 0 l18 115 l41 0 l-18 -115 l157 0 l-6 -38 l-157 0 l-28 -174 l164 0 l-26 -15 l296 342 l52 0 l-300 -346 l-12 17 q57 -4 94 -39 q37 -35 59 -98 l83 -239 l-41 0 l-71 210 q-23 70 -63 99.5 q-40 29.5 -102 29.5 l-139 0 l-54 -339 l-41 0 Z" /><glyph glyph-name="uni04A0" unicode="&#x4a0;" d="M75 667 l6 38 l270 0 l-6 -38 l-270 0 ZM198 0 l112 705 l41 0 l-52 -327 l164 0 l-26 -15 l296 342 l52 0 l-300 -346 l-12 17 q57 -6 94 -40 q37 -34 59 -97 l83 -239 l-41 0 l-71 210 q-23 70 -63 99.5 q-40 29.5 -102 29.5 l-139 0 l-54 -339 l-41 0 Z" /><glyph glyph-name="uni04A2" unicode="&#x4a2;" d="M679 -150 l24 150 l-104 0 l6 39 l145 0 l-30 -189 l-41 0 ZM57 0 l112 705 l42 0 l-52 -328 l481 0 l52 328 l42 0 l-112 -705 l-42 0 l54 338 l-481 0 l-54 -338 l-42 0 Z" /><glyph glyph-name="uni04A4" unicode="&#x4a4;" d="M57 0 l112 705 l41 0 l-52 -328 l483 0 l52 328 l318 0 l-7 -39 l-277 0 l-105 -666 l-41 0 l54 339 l-483 0 l-54 -339 l-41 0 Z" /><glyph glyph-name="uni0524" unicode="&#x524;" d="M661 -150 l24 150 l-104 0 l6 39 l145 0 l-30 -189 l-41 0 ZM57 0 l112 705 l565 0 l-112 -705 l-42 0 l105 666 l-482 0 l-105 -666 l-41 0 Z" /><glyph glyph-name="uni04A8" unicode="&#x4a8;" d="M354 -8 q-103 0 -169 44.5 q-66 44.5 -91.5 127.5 q-25.5 83 -7.5 198 q18 112 67.5 190 q49.5 78 124 119.5 q74.5 41.5 165.5 41.5 q25 0 43.5 -2 q18.5 -2 30.5 -5 l-7 -42 q-17 3 -35 4.5 q-18 1.5 -33 1.5 q-122 0 -205.5 -82.5 q-83.5 -82.5 -107.5 -234.5 q-24 -152 35 -236 q59 -84 192 -84 q82 0 152.5 36.5 q70.5 36.5 118.5 104 q48 67.5 62 159.5 q14 88 -18 136 q-32 48 -100 48 q-66 0 -111.5 -48 q-45.5 -48 -59.5 -136 q-14 -94 12 -161 q26 -67 84.5 -103 q58.5 -36 139.5 -36 q44 0 77 8 q33 8 63 24 l6 -42 q-28 -16 -64.5 -23.5 q-36.5 -7.5 -83.5 -7.5 q-71 0 -127.5 24.5 q-56.5 24.5 -94 70.5 q-37.5 46 -52.5 111 q-15 65 -2 146 q11 67 40 115.5 q29 48.5 74 75 q45 26.5 102 26.5 q61 0 100.5 -28.5 q39.5 -28.5 55 -79.5 q15.5 -51 3.5 -121 q-12 -76 -45.5 -138.5 q-33.5 -62.5 -84 -107.5 q-50.5 -45 -114 -69.5 q-63.5 -24.5 -135.5 -24.5 Z" /><glyph glyph-name="uni04AA" unicode="&#x4aa;" d="M302 -150 l26 163 l44 0 l-26 -163 l-44 0 ZM363 -8 q-111 0 -178.5 46 q-67.5 46 -92 129.5 q-24.5 83.5 -7.5 195.5 q18 112 67 190 q49 78 124.5 119 q75.5 41 173.5 41 q74 0 129 -22 q55 -22 95 -66 l-23 -36 q-44 46 -91.5 64.5 q-47.5 18.5 -112.5 18.5 q-131 0 -212.5 -83.5 q-81.5 -83.5 -105.5 -235.5 q-15 -96 4.5 -168 q19.5 -72 76.5 -112 q57 -40 153 -40 q61 0 118 21 q57 21 104 68 l22 -34 q-45 -47 -110.5 -71.5 q-65.5 -24.5 -133.5 -24.5 Z" /><glyph glyph-name="uni04AC" unicode="&#x4ac;" d="M312 -150 l24 150 l-104 0 l105 666 l-262 0 l7 39 l566 0 l-7 -39 l-262 0 l-99 -627 l103 0 l-30 -189 l-41 0 Z" /><glyph glyph-name="uni04B2" unicode="&#x4b2;" d="M558 -150 l24 150 l-43 0 l6 39 l84 0 l-30 -189 l-41 0 ZM-18 0 l332 367 l2 -10 l-204 348 l48 0 l185 -318 l-12 0 l283 318 l55 0 l-313 -348 l-3 10 l215 -367 l-48 0 l-199 342 l22 0 l-308 -342 l-55 0 Z" /><glyph glyph-name="uni04B4" unicode="&#x4b4;" d="M803 -150 l24 150 l-627 0 l105 666 l-230 0 l7 39 l501 0 l-7 -39 l-230 0 l-99 -627 l482 0 l106 666 l42 0 l-106 -666 l103 0 l-30 -189 l-41 0 Z" /><glyph glyph-name="uni04B6" unicode="&#x4b6;" d="M575 -150 l24 150 l-104 0 l6 39 l145 0 l-30 -189 l-41 0 ZM495 0 l50 318 q-39 -21 -92 -31.5 q-53 -10.5 -107 -10.5 q-93 0 -150 31.5 q-57 31.5 -78.5 94 q-21.5 62.5 -7.5 155.5 l24 148 l42 0 l-23 -142 q-22 -133 28 -189.5 q50 -56.5 167 -56.5 q54 0 105.5 11 q51.5 11 99.5 36 l54 341 l42 0 l-112 -705 l-42 0 Z" /><glyph glyph-name="uni04B8" unicode="&#x4b8;" d="M496 0 l50 318 q-40 -20 -95 -31 q-55 -11 -109 -11 l12 10 l-27 -170 l-39 0 l27 170 l10 -10 q-82 5 -135 36 q-53 31 -73.5 92 q-20.5 61 -6.5 153 l24 148 l42 0 l-23 -142 q-21 -130 26 -185.5 q47 -55.5 153 -60.5 l-13 -10 l30 191 l39 0 l-30 -191 l-10 10 q53 0 105.5 11 q52.5 11 100.5 36 l54 341 l41 0 l-112 -705 l-41 0 Z" /><glyph glyph-name="uni04BA" unicode="&#x4ba;" d="M57 0 l112 705 l42 0 l-51 -318 q40 21 95 31.5 q55 10.5 107 10.5 q90 0 147 -31.5 q57 -31.5 79 -94 q22 -62.5 7 -155.5 l-23 -148 l-42 0 l22 142 q20 127 -29 187 q-49 60 -166 60 q-53 0 -104.5 -10 q-51.5 -10 -99.5 -36 l-54 -343 l-42 0 Z" /><glyph glyph-name="uni0526" unicode="&#x526;" d="M610 -150 l24 150 l-104 0 l6 39 l145 0 l-30 -189 l-41 0 ZM57 0 l112 705 l42 0 l-51 -318 q40 21 95 31.5 q55 10.5 107 10.5 q90 0 147 -31.5 q57 -31.5 79 -94 q22 -62.5 7 -155.5 l-23 -148 l-42 0 l22 142 q20 127 -29 187 q-49 60 -166 60 q-53 0 -104.5 -10 q-51.5 -10 -99.5 -36 l-54 -343 l-42 0 Z" /><glyph glyph-name="uni04BC" unicode="&#x4bc;" d="M506 -8 q-82 0 -140.5 24.5 q-58.5 24.5 -94.5 70.5 q-36 46 -48.5 109 q-12.5 63 -3.5 139 l14 -7 l-32 0 q-91 0 -123 38.5 q-32 38.5 -19 116.5 l10 59 l41 0 l-9 -56 q-10 -62 12 -89.5 q22 -27.5 93 -27.5 l26 0 l-8 -4 q19 113 67.5 190.5 q48.5 77.5 121.5 117.5 q73 40 167 40 q108 0 168 -44 q60 -44 78 -124 q18 -80 -2 -188 l-5 -28 l-561 0 l7 12 q-14 -99 9 -167.5 q23 -68.5 81.5 -104.5 q58.5 -36 150.5 -36 q65 0 122.5 21 q57.5 21 104.5 68 l22 -34 q-29 -31 -69 -52.5 q-40 -21.5 -86 -32.5 q-46 -11 -94 -11 ZM578 672 q-128 0 -207.5 -84.5 q-79.5 -84.5 -103.5 -236.5 l-3 17 l529 0 l-14 -16 q27 155 -18 237.5 q-45 82.5 -183 82.5 Z" /><glyph glyph-name="uni04C3" unicode="&#x4c3;" d="M331 -188 q-27 0 -54 4 q-27 4 -43 11 l7 42 q18 -10 42 -14.5 q24 -4.5 54 -4.5 q75 0 121.5 47.5 q46.5 47.5 61.5 143.5 l8 51 q20 131 -30 189 q-50 58 -177 58 l-169 0 l-54 -339 l-41 0 l112 705 l41 0 l-52 -327 l163 0 l-28 -15 l297 342 l52 0 l-300 -346 l1 18 q129 -1 189.5 -70 q60.5 -69 38.5 -209 l-9 -57 q-12 -79 -43 -130 q-31 -51 -78 -75 q-47 -24 -110 -24 Z" /><glyph glyph-name="uni04C5" unicode="&#x4c5;" d="M591 -150 l76 150 l-93 0 l6 39 l144 0 l-95 -189 l-38 0 ZM-2 -13 l-16 36 q45 21 84 51.5 q39 30.5 71 82 q32 51.5 58.5 133.5 q26.5 82 45.5 205 l33 210 l454 0 l-112 -705 l-42 0 l106 666 l-373 0 l-29 -182 q-19 -118 -44.5 -202 q-25.5 -84 -59.5 -140.5 q-34 -56.5 -78 -93.5 q-44 -37 -98 -61 Z" /><glyph glyph-name="uni04C7" unicode="&#x4c7;" d="M460 -186 q-16 0 -33.5 2 q-17.5 2 -35.5 6 l6 39 q18 -4 33.5 -6.5 q15.5 -2.5 29.5 -2.5 q46 0 76 29 q30 29 40 93 l58 364 l-481 0 l-54 -338 l-42 0 l112 705 l42 0 l-52 -328 l481 0 l52 328 l42 0 l-116 -731 q-9 -55 -29.5 -90.5 q-20.5 -35.5 -52.5 -52.5 q-32 -17 -76 -17 Z" /><glyph glyph-name="uni04C9" unicode="&#x4c9;" d="M616 -150 l76 150 l-93 0 l6 39 l144 0 l-95 -189 l-38 0 ZM57 0 l112 705 l42 0 l-52 -328 l481 0 l52 328 l42 0 l-112 -705 l-42 0 l54 338 l-481 0 l-54 -338 l-42 0 Z" /><glyph glyph-name="uni04CB" unicode="&#x4cb;" d="M418 -150 l-42 0 l30 189 l106 0 l-6 -39 l-64 0 l-24 -150 ZM495 0 l50 318 q-39 -21 -92 -31.5 q-53 -10.5 -107 -10.5 q-93 0 -150 31.5 q-57 31.5 -78.5 94 q-21.5 62.5 -7.5 155.5 l24 148 l42 0 l-23 -142 q-22 -133 28 -189.5 q50 -56.5 167 -56.5 q54 0 105.5 11 q51.5 11 99.5 36 l54 341 l42 0 l-112 -705 l-42 0 Z" /><glyph glyph-name="uni04CD" unicode="&#x4cd;" d="M709 -150 l76 150 l-93 0 l6 39 l144 0 l-95 -189 l-38 0 ZM57 0 l112 705 l37 0 l195 -688 l-28 0 l414 688 l36 0 l-112 -705 l-39 0 l105 664 l27 0 l-402 -664 l-32 0 l-191 665 l22 0 l-105 -665 l-39 0 Z" /><glyph glyph-name="uni04E0" unicode="&#x4e0;" d="M291 -8 q-89 0 -157.5 26 q-68.5 26 -105.5 70 l25 36 q45 -46 103.5 -68.5 q58.5 -22.5 136.5 -22.5 q116 0 173.5 40 q57.5 40 69.5 115 q12 77 -29.5 113 q-41.5 36 -135.5 36 l-119 0 l6 36 l327 314 l-4 -21 l-453 0 l7 39 l500 0 l-5 -31 l-327 -313 l4 15 l72 0 q104 0 160.5 -47 q56.5 -47 39.5 -149 q-9 -59 -44.5 -101 q-35.5 -42 -96 -64.5 q-60.5 -22.5 -147.5 -22.5 Z" /><glyph glyph-name="uni04E8" unicode="&#x4e8;" d="M100 339 l6 38 l596 0 l-6 -38 l-596 0 ZM86 363 q18 112 66.5 190 q48.5 78 123.5 119 q75 41 171 41 q100 0 163.5 -46.5 q63.5 -46.5 88 -130 q24.5 -83.5 6.5 -194.5 q-17 -111 -66 -189.5 q-49 -78.5 -124 -119.5 q-75 -41 -172 -41 q-99 0 -162.5 46 q-63.5 46 -87.5 129.5 q-24 83.5 -7 195.5 ZM129 353 q-16 -99 4.5 -170.5 q20.5 -71.5 74.5 -110.5 q54 -39 138 -39 q130 0 211 84 q81 84 105 235 q16 98 -5 170 q-21 72 -74.5 111 q-53.5 39 -137.5 39 q-130 0 -210.5 -83.5 q-80.5 -83.5 -105.5 -235.5 Z" /><glyph glyph-name="uni04F6" unicode="&#x4f6;" d="M139 -150 l24 150 l-104 0 l6 39 l145 0 l-30 -189 l-41 0 ZM57 0 l112 705 l431 0 l-7 -39 l-389 0 l-105 -666 l-42 0 Z" /><glyph glyph-name="uni04FA" unicode="&#x4fa;" d="M27 -180 l2 37 l37 3 q62 5 91 38.5 q29 33.5 39 101.5 l-106 0 l54 338 l-103 0 l6 38 l103 0 l52 329 l431 0 l-7 -39 l-389 0 l-45 -290 l196 0 l-6 -38 l-196 0 l-48 -299 l103 0 l-6 -39 q-13 -87 -56 -130 q-43 -43 -117 -48 l-35 -2 Z" /><glyph glyph-name="uni04FC" unicode="&#x4fc;" d="M357 -183 l-5 36 q71 8 108 33.5 q37 25.5 44 68.5 q7 43 -11.5 85.5 q-18.5 42.5 -46.5 90.5 l-123 211 l22 0 l-308 -342 l-55 0 l332 367 l2 -10 l-204 348 l48 0 l185 -318 l-12 0 l283 318 l55 0 l-313 -348 l-3 10 l132 -226 q29 -49 47 -93 q18 -44 10 -97 q-8 -53 -54 -88 q-46 -35 -133 -46 Z" /><glyph glyph-name="uni0510" unicode="&#x510;" d="M302 -8 q-90 0 -146 26.5 q-56 26.5 -78.5 74 q-22.5 47.5 -13.5 108.5 q12 74 64 116 q52 42 131 50 l-2 -13 q-67 13 -100.5 59 q-33.5 46 -22.5 121 q13 80 83 129.5 q70 49.5 185 49.5 q81 0 143.5 -21.5 q62.5 -21.5 102.5 -59.5 l-23 -35 q-43 38 -99.5 56.5 q-56.5 18.5 -125.5 18.5 q-97 0 -154.5 -39.5 q-57.5 -39.5 -68.5 -110.5 q-11 -70 31.5 -108 q42.5 -38 134.5 -38 l165 0 l-7 -39 l-179 0 q-93 0 -147.5 -34.5 q-54.5 -34.5 -64.5 -99.5 q-13 -80 33 -125 q46 -45 161 -45 q84 0 149 21.5 q65 21.5 125 67.5 l20 -36 q-49 -42 -125 -68 q-76 -26 -171 -26 Z" /><glyph glyph-name="uni0512" unicode="&#x512;" d="M454 -186 q-16 0 -33.5 2 q-17.5 2 -35.5 6 l6 39 q18 -4 33.5 -6.5 q15.5 -2.5 29.5 -2.5 q46 0 76 28.5 q30 28.5 40 92.5 l109 693 l-372 0 l-29 -182 q-19 -118 -44.5 -202 q-25.5 -84 -59.5 -140.5 q-34 -56.5 -78 -93.5 q-44 -37 -98 -61 l-16 36 q45 21 84 51.5 q39 30.5 71 82 q32 51.5 58.5 133.5 q26.5 82 45.5 205 l33 210 l454 0 l-116 -731 q-9 -55 -29.5 -90.5 q-20.5 -35.5 -52.5 -52.5 q-32 -17 -76 -17 Z" /><glyph glyph-name="uni048C" unicode="&#x48c;" d="M109 0 l87 549 l-149 0 l6 38 l149 0 l19 118 l42 0 l-19 -118 l148 0 l-6 -38 l-148 0 l-27 -170 l234 0 q114 0 168 -49.5 q54 -49.5 39 -148.5 q-13 -88 -80 -134.5 q-67 -46.5 -172 -46.5 l-291 0 ZM157 39 l238 0 q96 0 149 35.5 q53 35.5 65 113.5 q12 78 -28 115 q-40 37 -136 37 l-240 0 l-48 -301 Z" /><glyph glyph-name="uni048E" unicode="&#x48e;" d="M57 0 l112 705 l248 0 q123 0 173 -53 q50 -53 34 -156 q-10 -66 -50 -114 q-40 -48 -102 -70 l-1 14 l48 -92 l-30 -17 l-54 102 l12 -15 q-19 -3 -41 -5 q-22 -2 -49 -2 l-212 0 l-47 -297 l-41 0 ZM151 336 l211 0 q15 0 34 1 q19 1 32 5 l0 -10 l-45 89 l30 17 l53 -101 l-12 12 q55 17 86 54.5 q31 37.5 40 93.5 q14 85 -23 127.5 q-37 42.5 -138 42.5 l-215 0 l-53 -331 Z" /><glyph glyph-name="uni0528" unicode="&#x528;" d="M-62 -186 q-16 0 -33.5 2 q-17.5 2 -35.5 6 l6 39 q18 -4 33.5 -6.5 q15.5 -2.5 29.5 -2.5 q46 0 76.5 27.5 q30.5 27.5 40.5 94.5 l116 731 l41 0 l-52 -328 l481 0 l52 328 l41 0 l-112 -705 l-41 0 l54 339 l-481 0 l-58 -365 q-9 -55 -29.5 -90.5 q-20.5 -35.5 -52.5 -52.5 q-32 -17 -76 -17 Z" /><glyph glyph-name="uni052E" unicode="&#x52e;" d="M654 -150 l24 150 l-104 0 l6 39 l145 0 l-30 -189 l-41 0 ZM-2 -13 l-16 36 q45 21 84 51.5 q39 30.5 71 82 q32 51.5 58.5 133.5 q26.5 82 45.5 205 l33 210 l454 0 l-112 -705 l-42 0 l106 666 l-373 0 l-29 -182 q-19 -118 -44.5 -202 q-25.5 -84 -59.5 -140.5 q-34 -56.5 -78 -93.5 q-44 -37 -98 -61 Z" /><glyph glyph-name="uni0431" unicode="&#x431;" d="M242 -8 q-105 0 -155 70 q-50 70 -29 203 l19 120 q18 113 81.5 194 q63.5 81 183.5 113 l190 51 l10 -41 l-177 -47 q-112 -30 -169 -94 q-57 -64 -74 -165 l-5 -29 l-12 0 q21 46 52.5 77.5 q31.5 31.5 71 47.5 q39.5 16 84.5 16 q70 0 117 -31 q47 -31 65.5 -91 q18.5 -60 4.5 -146 q-13 -80 -49 -135.5 q-36 -55.5 -89.5 -84 q-53.5 -28.5 -119.5 -28.5 ZM246 31 q80 0 138.5 56.5 q58.5 56.5 74.5 162.5 q17 106 -24 162.5 q-41 56.5 -126 56.5 q-81 0 -137.5 -56.5 q-56.5 -56.5 -73.5 -162.5 q-17 -106 23 -162.5 q40 -56.5 125 -56.5 Z" /><glyph glyph-name="uni0432" unicode="&#x432;" d="M48 0 l79 500 l214 0 q55 0 90.5 -15 q35.5 -15 50.5 -44.5 q15 -29.5 8 -75.5 q-7 -46 -45.5 -79 q-38.5 -33 -93.5 -37 l-1 11 q60 0 93.5 -35 q33.5 -35 24.5 -92 q-11 -68 -62 -100.5 q-51 -32.5 -132 -32.5 l-226 0 ZM96 36 l188 0 q61 0 97.5 24 q36.5 24 44.5 76 q8 49 -21 74.5 q-29 25.5 -90 25.5 l-188 0 l-31 -200 ZM133 272 l179 0 q57 0 92.5 25.5 q35.5 25.5 42.5 70.5 q8 46 -19 71 q-27 25 -86 25 l-179 0 l-30 -192 Z" /><glyph glyph-name="uni0433" unicode="&#x433;" d="M48 0 l79 500 l325 0 l-6 -36 l-283 0 l-73 -464 l-42 0 Z" /><glyph glyph-name="uni0491" unicode="&#x491;" d="M48 0 l79 500 l286 0 l19 118 l38 0 l-24 -154 l-283 0 l-73 -464 l-42 0 Z" /><glyph glyph-name="uni0434" unicode="&#x434;" d="M-34 -130 l26 166 l50 0 q50 56 80.5 133 q30.5 77 46.5 178 l24 153 l321 0 l-73 -464 l76 0 l-26 -166 l-38 0 l21 130 l-449 0 l-21 -130 l-38 0 ZM93 36 l307 0 l67 428 l-239 0 l-18 -116 q-14 -90 -43.5 -172 q-29.5 -82 -73.5 -140 Z" /><glyph glyph-name="uni0436" unicode="&#x436;" d="M-35 0 l128 164 q34 44 58 67 q24 23 46.5 33 q22.5 10 52.5 13 l-16 -12 l-158 235 l46 0 l148 -223 l99 0 l35 223 l42 0 l-35 -223 l94 0 l218 223 l54 0 l-232 -235 l-17 12 q27 -3 46 -13 q19 -10 36 -33 q17 -23 37 -67 l75 -164 l-42 0 l-73 159 q-15 33 -30.5 51 q-15.5 18 -37 25 q-21.5 7 -55.5 7 l-79 0 l-38 -242 l-42 0 l38 242 l-80 0 q-34 0 -56.5 -7 q-22.5 -7 -42.5 -24.5 q-20 -17.5 -46 -51.5 l-122 -159 l-51 0 Z" /><glyph glyph-name="uni0437" unicode="&#x437;" d="M203 -8 q-61 0 -111.5 18.5 q-50.5 18.5 -76.5 51.5 l22 35 q31 -34 73.5 -50.5 q42.5 -16.5 93.5 -16.5 q81 0 122 27.5 q41 27.5 48 77.5 q8 49 -21 74.5 q-29 25.5 -91 25.5 l-107 0 l6 38 l99 0 q55 0 92 26 q37 26 44 72 q7 46 -23 72.5 q-30 26.5 -98 26.5 q-52 0 -98 -14 q-46 -14 -91 -43 l-21 33 q47 32 100 47 q53 15 113 15 q87 0 129 -37 q42 -37 31 -105 q-7 -46 -45.5 -79.5 q-38.5 -33.5 -92.5 -38.5 l2 11 q59 -1 91.5 -37 q32.5 -36 23.5 -92 q-10 -61 -61.5 -99.5 q-51.5 -38.5 -152.5 -38.5 Z" /><glyph glyph-name="uni0438" unicode="&#x438;" d="M48 0 l79 500 l39 0 l-74 -468 l-23 2 l422 466 l38 0 l-79 -500 l-39 0 l74 468 l24 -2 l-423 -466 l-38 0 Z" /><glyph glyph-name="uni048B" unicode="&#x48b;" d="M408 -130 l70 130 l-67 0 l6 37 l119 0 l-89 -167 l-39 0 ZM48 0 l79 500 l39 0 l-74 -468 l-23 2 l422 466 l38 0 l-79 -500 l-39 0 l74 468 l24 -2 l-423 -466 l-38 0 ZM339 547 q-31 0 -62 12 q-31 12 -55.5 39.5 q-24.5 27.5 -36.5 72.5 l33 14 q14 -52 45.5 -77 q31.5 -25 76.5 -25 q46 0 78 21.5 q32 21.5 64 79.5 l32 -13 q-23 -49 -52 -76 q-29 -27 -60 -37.5 q-31 -10.5 -63 -10.5 Z" /><glyph glyph-name="uni043A" unicode="&#x43a;" d="M48 0 l79 500 l42 0 l-35 -223 l110 0 l217 223 l53 0 l-229 -235 l-19 12 q29 -3 47.5 -13 q18.5 -10 34.5 -33 q16 -23 36 -67 l76 -164 l-43 0 l-73 159 q-15 33 -30.5 51 q-15.5 18 -37 25 q-21.5 7 -55.5 7 l-93 0 l-38 -242 l-42 0 Z" /><glyph glyph-name="uni043B" unicode="&#x43b;" d="M6 -9 l-16 35 q41 20 69.5 46.5 q28.5 26.5 48.5 66.5 q20 40 35.5 100 q15.5 60 29.5 146 l19 115 l327 0 l-79 -500 l-42 0 l73 464 l-244 0 l-13 -80 q-15 -93 -32.5 -158.5 q-17.5 -65.5 -41.5 -110 q-24 -44.5 -56.5 -74 q-32.5 -29.5 -77.5 -50.5 Z" /><glyph glyph-name="uni043C" unicode="&#x43c;" d="M48 0 l79 500 l36 0 l143 -368 l260 368 l35 0 l-79 -500 l-38 0 l72 454 l22 0 l-265 -374 l-26 0 l-147 375 l18 0 l-72 -455 l-38 0 Z" /><glyph glyph-name="uni043D" unicode="&#x43d;" d="M48 0 l79 500 l42 0 l-35 -222 l320 0 l35 222 l42 0 l-79 -500 l-42 0 l38 241 l-320 0 l-38 -241 l-42 0 Z" /><glyph glyph-name="uni043F" unicode="&#x43f;" d="M48 0 l79 500 l401 0 l-79 -500 l-42 0 l73 464 l-317 0 l-73 -464 l-42 0 Z" /><glyph glyph-name="uni0442" unicode="&#x442;" d="M154 0 l73 464 l-191 0 l6 36 l424 0 l-6 -36 l-191 0 l-73 -464 l-42 0 Z" /><glyph glyph-name="uni0444" unicode="&#x444;" d="M294 -216 l54 340 l11 0 q-25 -63 -66.5 -97.5 q-41.5 -34.5 -98.5 -34.5 q-55 0 -89.5 33.5 q-34.5 33.5 -46.5 93.5 q-12 60 1 141 q19 119 74 183.5 q55 64.5 134 64.5 q57 0 90 -34.5 q33 -34.5 40 -97.5 l-9 0 l57 360 l42 0 l-57 -360 l-12 0 q26 63 67.5 97.5 q41.5 34.5 96.5 34.5 q56 0 91 -33 q35 -33 47.5 -93.5 q12.5 -60.5 -1.5 -141.5 q-19 -118 -74.5 -183 q-55.5 -65 -135.5 -65 q-55 0 -88.5 34.5 q-33.5 34.5 -40.5 97.5 l10 0 l-54 -340 l-42 0 ZM199 30 q65 0 109 57 q44 57 61 163 q16 104 -11 162 q-27 58 -90 58 q-63 0 -108 -58 q-45 -58 -61 -162 q-17 -106 10 -163 q27 -57 90 -57 ZM508 30 q63 0 108.5 57 q45.5 57 62.5 163 q16 104 -11.5 162 q-27.5 58 -90.5 58 q-65 0 -108.5 -58 q-43.5 -58 -59.5 -162 q-17 -106 9.5 -163 q26.5 -57 89.5 -57 Z" /><glyph glyph-name="uni0447" unicode="&#x447;" d="M374 0 l35 221 q-33 -20 -72 -31 q-39 -11 -83 -11 q-63 0 -104.5 21 q-41.5 21 -57.5 63.5 q-16 42.5 -6 106.5 l20 130 l42 0 l-20 -128 q-13 -81 20 -117.5 q33 -36.5 113 -36.5 q45 0 81 10 q36 10 73 34 l38 238 l42 0 l-79 -500 l-42 0 Z" /><glyph glyph-name="uni0446" unicode="&#x446;" d="M457 -130 l21 130 l-430 0 l79 500 l42 0 l-73 -464 l307 0 l73 464 l41 0 l-73 -464 l76 0 l-26 -166 l-37 0 Z" /><glyph glyph-name="uni0448" unicode="&#x448;" d="M48 0 l79 500 l42 0 l-73 -464 l243 0 l73 464 l42 0 l-73 -464 l243 0 l73 464 l43 0 l-79 -500 l-613 0 Z" /><glyph glyph-name="uni0449" unicode="&#x449;" d="M679 -130 l21 130 l-652 0 l79 500 l42 0 l-73 -464 l243 0 l73 464 l42 0 l-73 -464 l243 0 l73 464 l43 0 l-73 -464 l75 0 l-26 -166 l-37 0 Z" /><glyph glyph-name="uni045F" unicode="&#x45f;" d="M208 -130 l21 130 l-181 0 l79 500 l42 0 l-73 -464 l317 0 l73 464 l42 0 l-79 -500 l-182 0 l-21 -130 l-38 0 Z" /><glyph glyph-name="uni044C" unicode="&#x44c;" d="M48 0 l79 500 l42 0 l-30 -191 l165 0 q95 0 136.5 -42.5 q41.5 -42.5 29.5 -119.5 q-12 -76 -64.5 -111.5 q-52.5 -35.5 -144.5 -35.5 l-213 0 ZM96 36 l170 0 q70 0 110.5 26.5 q40.5 26.5 50.5 87.5 q10 65 -22 94 q-32 29 -102 29 l-170 0 l-37 -237 Z" /><glyph glyph-name="uni044A" unicode="&#x44a;" d="M128 0 l74 464 l-166 0 l6 36 l207 0 l-30 -191 l165 0 q95 0 136.5 -42.5 q41.5 -42.5 29.5 -119.5 q-12 -76 -64.5 -111.5 q-52.5 -35.5 -144.5 -35.5 l-213 0 ZM176 36 l170 0 q70 0 111 26.5 q41 26.5 50 87.5 q10 65 -22 94 q-32 29 -102 29 l-170 0 l-37 -237 Z" /><glyph glyph-name="uni044B" unicode="&#x44b;" d="M48 0 l79 500 l42 0 l-30 -191 l165 0 q95 0 136.5 -42.5 q41.5 -42.5 29.5 -119.5 q-12 -76 -64.5 -111.5 q-52.5 -35.5 -144.5 -35.5 l-213 0 ZM96 36 l170 0 q70 0 111 26.5 q41 26.5 50 87.5 q10 65 -22 94 q-32 29 -102 29 l-170 0 l-37 -237 ZM535 0 l79 500 l41 0 l-79 -500 l-41 0 Z" /><glyph glyph-name="uni0459" unicode="&#x459;" d="M6 -9 l-16 35 q41 20 69.5 46.5 q28.5 26.5 48.5 66.5 q20 40 35.5 100 q15.5 60 29.5 146 l19 115 l327 0 l-30 -191 l165 0 q95 0 136.5 -42.5 q41.5 -42.5 29.5 -119.5 q-12 -76 -64.5 -111.5 q-52.5 -35.5 -144.5 -35.5 l-213 0 l74 464 l-245 0 l-13 -80 q-15 -93 -32.5 -158.5 q-17.5 -65.5 -41.5 -110 q-24 -44.5 -56.5 -74 q-32.5 -29.5 -77.5 -50.5 ZM446 36 l170 0 q70 0 111 26.5 q41 26.5 50 87.5 q10 65 -22 94 q-32 29 -102 29 l-170 0 l-37 -237 Z" /><glyph glyph-name="uni045A" unicode="&#x45a;" d="M48 0 l79 500 l42 0 l-35 -222 l321 0 l35 222 l41 0 l-30 -191 l165 0 q95 0 136.5 -42.5 q41.5 -42.5 29.5 -119.5 q-12 -76 -64.5 -111.5 q-52.5 -35.5 -144.5 -35.5 l-212 0 l38 241 l-321 0 l-38 -241 l-42 0 ZM458 36 l170 0 q70 0 111 26.5 q41 26.5 50 87.5 q10 65 -22 94 q-32 29 -102 29 l-170 0 l-37 -237 Z" /><glyph glyph-name="uni0454" unicode="&#x454;" d="M254 -8 q-72 0 -121 31 q-49 31 -69 91 q-20 60 -6 146 q13 80 48.5 135.5 q35.5 55.5 90 84 q54.5 28.5 123.5 28.5 q52 0 93.5 -16 q41.5 -16 67.5 -48 l-23 -30 q-29 29 -64 42 q-35 13 -72 13 q-91 0 -148 -57 q-57 -57 -71 -149 l-6 12 l279 0 l-7 -39 l-280 0 l10 13 q-13 -104 26.5 -161 q39.5 -57 129.5 -57 q43 0 84.5 14.5 q41.5 14.5 76.5 48.5 l21 -33 q-31 -33 -82.5 -51 q-51.5 -18 -100.5 -18 Z" /><glyph glyph-name="uni044D" unicode="&#x44d;" d="M182 -8 q-52 0 -93.5 16.5 q-41.5 16.5 -67.5 47.5 l23 30 q29 -29 64 -42 q35 -13 72 -13 q91 0 148 57 q57 57 71 149 l10 -1 l-279 0 l7 39 l280 0 l-14 -24 q14 104 -26 161 q-40 57 -130 57 q-42 0 -83.5 -14.5 q-41.5 -14.5 -76.5 -48.5 l-21 33 q32 33 83.5 51 q51.5 18 100.5 18 q71 0 119.5 -31 q48.5 -31 68.5 -91 q20 -60 6 -146 q-13 -80 -48.5 -135.5 q-35.5 -55.5 -89.5 -84 q-54 -28.5 -124 -28.5 Z" /><glyph glyph-name="uni044E" unicode="&#x44e;" d="M430 -8 q-100 0 -152 65 q-52 65 -36 184 l-115 0 l-38 -241 l-41 0 l79 500 l41 0 l-35 -222 l115 0 q24 111 90.5 170.5 q66.5 59.5 162.5 59.5 q70 0 116.5 -31 q46.5 -31 65 -91 q18.5 -60 4.5 -146 q-13 -80 -49 -135.5 q-36 -55.5 -89 -84 q-53 -28.5 -119 -28.5 ZM434 31 q80 0 138 56.5 q58 56.5 74 162.5 q17 106 -24 162.5 q-41 56.5 -125 56.5 q-80 0 -136.5 -56.5 q-56.5 -56.5 -73.5 -162.5 q-17 -106 22.5 -162.5 q39.5 -56.5 124.5 -56.5 Z" /><glyph glyph-name="uni044F" unicode="&#x44f;" d="M8 0 l109 149 q24 33 53 51.5 q29 18.5 53 18.5 l17 0 l-12 -7 q-72 0 -111.5 40 q-39.5 40 -28.5 115 q10 61 56.5 97 q46.5 36 136.5 36 l201 0 l-79 -500 l-42 0 l33 208 l-102 0 q-44 0 -77 -19.5 q-33 -19.5 -57 -52.5 l-99 -136 l-51 0 ZM237 244 l163 0 l35 221 l-152 0 q-71 0 -108 -28 q-37 -28 -44 -72 q-10 -61 20.5 -91 q30.5 -30 85.5 -30 Z" /><glyph glyph-name="uni0452" unicode="&#x452;" d="M241 -185 l-6 37 q61 12 96.5 36.5 q35.5 24.5 54.5 64 q19 39.5 28 96.5 l41 259 q14 87 -14 124 q-28 37 -100 37 q-81 0 -135 -49 q-54 -49 -67 -130 l-46 -290 l-42 0 l94 594 l-99 0 l6 37 l99 0 l17 105 l42 0 l-17 -105 l204 0 l-6 -37 l-204 0 l-34 -215 l-14 0 q30 63 84.5 96 q54.5 33 125.5 33 q93 0 128 -52 q35 -52 20 -146 l-41 -257 q-12 -78 -36 -125.5 q-24 -47.5 -67 -73 q-43 -25.5 -112 -39.5 Z" /><glyph glyph-name="uni0463" unicode="&#x463;" d="M129 0 l73 462 l-166 0 l6 38 l166 0 l38 236 l42 0 l-38 -236 l166 0 l-6 -38 l-166 0 l-24 -153 l165 0 q95 0 136.5 -42.5 q41.5 -42.5 29.5 -119.5 q-12 -76 -64.5 -111.5 q-52.5 -35.5 -144.5 -35.5 l-213 0 ZM177 36 l170 0 q70 0 111 26.5 q41 26.5 50 87.5 q10 65 -22 94 q-32 29 -102 29 l-170 0 l-37 -237 Z" /><glyph glyph-name="uni046B" unicode="&#x46b;" d="M-35 0 l128 164 q34 44 59.5 68.5 q25.5 24.5 54 34.5 q28.5 10 69.5 10 l83 0 l-2 -7 l-164 230 l462 0 l-235 -230 l-1 7 l84 0 q40 0 64.5 -10 q24.5 -10 42 -34.5 q17.5 -24.5 37.5 -68.5 l75 -164 l-42 0 l-73 159 q-15 34 -31 51.5 q-16 17.5 -37.5 24.5 q-21.5 7 -55.5 7 l-79 0 l-38 -242 l-42 0 l38 242 l-79 0 q-33 0 -56 -7 q-23 -7 -43 -24.5 q-20 -17.5 -46 -51.5 l-122 -159 l-51 0 ZM388 292 l2 0 l188 187 l-3 -15 l-320 0 l3 15 l130 -187 Z" /><glyph glyph-name="uni0475" unicode="&#x475;" d="M199 0 l-133 500 l46 0 l124 -484 l-24 0 l219 383 q24 42 48.5 65.5 q24.5 23.5 54.5 33.5 q30 10 70 10 l-1 -35 q-33 -1 -56 -10 q-23 -9 -41.5 -29.5 q-18.5 -20.5 -39.5 -56.5 l-219 -377 l-48 0 Z" /><glyph glyph-name="uni0493" unicode="&#x493;" d="M69 0 l37 234 l-104 0 l6 36 l104 0 l36 230 l324 0 l-6 -36 l-283 0 l-30 -194 l156 0 l-6 -36 l-156 0 l-37 -234 l-41 0 Z" /><glyph glyph-name="uni0495" unicode="&#x495;" d="M240 -185 l-2 37 q61 12 96.5 37 q35.5 25 53.5 64.5 q18 39.5 27 96.5 l13 84 q14 87 -14.5 124 q-28.5 37 -103.5 37 q-82 0 -135.5 -49 q-53.5 -49 -66.5 -130 l-18 -116 l-42 0 l79 500 l325 0 l-6 -39 l-283 0 l-40 -254 l-15 -2 q30 63 84.5 96 q54.5 33 125.5 33 q96 0 132 -52 q36 -52 21 -144 l-14 -87 q-11 -72 -34.5 -119.5 q-23.5 -47.5 -67 -75 q-43.5 -27.5 -115.5 -41.5 Z" /><glyph glyph-name="uni0497" unicode="&#x497;" d="M696 -130 l21 130 l-37 0 l6 37 l76 0 l-27 -167 l-39 0 ZM-35 0 l128 164 q34 44 58 67 q24 23 46.5 33 q22.5 10 52.5 13 l-16 -12 l-158 235 l46 0 l148 -223 l99 0 l35 223 l42 0 l-35 -223 l94 0 l218 223 l54 0 l-232 -235 l-17 12 q27 -3 46 -13 q19 -10 36 -33 q17 -23 37 -67 l75 -164 l-42 0 l-73 159 q-15 33 -30.5 51 q-15.5 18 -37 25 q-21.5 7 -55.5 7 l-79 0 l-38 -242 l-42 0 l38 242 l-80 0 q-34 0 -56.5 -7 q-22.5 -7 -42.5 -24.5 q-20 -17.5 -46 -51.5 l-122 -159 l-51 0 Z" /><glyph glyph-name="uni0499" unicode="&#x499;" d="M159 -130 l25 154 l40 0 l-25 -154 l-40 0 ZM203 -8 q-61 0 -111.5 18.5 q-50.5 18.5 -76.5 51.5 l22 35 q31 -34 73.5 -50.5 q42.5 -16.5 93.5 -16.5 q81 0 122 27.5 q41 27.5 48 77.5 q8 49 -21 74.5 q-29 25.5 -91 25.5 l-107 0 l6 38 l99 0 q55 0 92 26 q37 26 44 72 q7 46 -23 72.5 q-30 26.5 -98 26.5 q-52 0 -98 -14 q-46 -14 -91 -43 l-21 33 q47 32 100 47 q53 15 113 15 q87 0 129 -37 q42 -37 31 -105 q-7 -46 -45.5 -79.5 q-38.5 -33.5 -92.5 -38.5 l2 11 q59 -1 91.5 -37 q32.5 -36 23.5 -92 q-10 -61 -61.5 -99.5 q-51.5 -38.5 -152.5 -38.5 Z" /><glyph glyph-name="uni049B" unicode="&#x49b;" d="M434 -130 l21 130 l-37 0 l6 37 l76 0 l-27 -167 l-39 0 ZM48 0 l79 500 l42 0 l-35 -223 l110 0 l217 223 l53 0 l-229 -235 l-19 12 q29 -3 47.5 -13 q18.5 -10 34.5 -33 q16 -23 36 -67 l76 -164 l-43 0 l-73 159 q-15 33 -30.5 51 q-15.5 18 -37 25 q-21.5 7 -55.5 7 l-93 0 l-38 -242 l-42 0 Z" /><glyph glyph-name="uni049D" unicode="&#x49d;" d="M48 0 l79 500 l42 0 l-35 -223 l60 0 l19 119 l36 0 l-19 -119 l14 0 l217 223 l53 0 l-229 -235 l-20 12 q29 -3 47.5 -13 q18.5 -10 35 -33 q16.5 -23 36.5 -67 l76 -164 l-43 0 l-73 159 q-15 32 -30 50 q-15 18 -36.5 25.5 q-21.5 7.5 -56.5 7.5 l-14 0 l19 10 l-22 -138 l-36 0 l20 128 l-60 0 l-38 -242 l-42 0 Z" /><glyph glyph-name="uni049F" unicode="&#x49f;" d="M51 0 l94 594 l-99 0 l6 37 l99 0 l17 105 l42 0 l-17 -105 l204 0 l-6 -37 l-204 0 l-50 -317 l110 0 l217 223 l53 0 l-229 -235 l-19 12 q29 -3 47.5 -13 q18.5 -10 34.5 -33 q16 -23 36 -67 l76 -164 l-43 0 l-73 159 q-15 33 -30.5 51 q-15.5 18 -37 25 q-21.5 7 -55.5 7 l-93 0 l-38 -242 l-42 0 Z" /><glyph glyph-name="uni04A1" unicode="&#x4a1;" d="M129 0 l73 464 l-166 0 l6 36 l208 0 l-35 -223 l110 0 l217 223 l53 0 l-229 -235 l-20 12 q29 -3 48 -13 q19 -10 35 -33 q16 -23 36 -67 l76 -164 l-43 0 l-73 159 q-15 33 -30.5 51 q-15.5 18 -37 25 q-21.5 7 -55.5 7 l-93 0 l-38 -242 l-42 0 Z" /><glyph glyph-name="uni04A3" unicode="&#x4a3;" d="M470 -130 l21 130 l-80 0 l6 37 l118 0 l-27 -167 l-38 0 ZM48 0 l79 500 l42 0 l-35 -222 l320 0 l35 222 l42 0 l-79 -500 l-42 0 l38 241 l-320 0 l-38 -241 l-42 0 Z" /><glyph glyph-name="uni04A5" unicode="&#x4a5;" d="M48 0 l79 500 l42 0 l-35 -222 l313 0 l35 222 l286 0 l-6 -36 l-244 0 l-73 -464 l-42 0 l38 241 l-313 0 l-38 -241 l-42 0 Z" /><glyph glyph-name="uni0525" unicode="&#x525;" d="M467 -130 l21 130 l-80 0 l6 37 l118 0 l-27 -167 l-38 0 ZM48 0 l79 500 l401 0 l-79 -500 l-42 0 l73 464 l-317 0 l-73 -464 l-42 0 Z" /><glyph glyph-name="uni04A9" unicode="&#x4a9;" d="M261 -8 q-77 0 -126.5 34 q-49.5 34 -69.5 95 q-20 61 -7 143 q13 78 48.5 132.5 q35.5 54.5 89.5 83 q54 28.5 120 28.5 q36 0 65.5 -6 q29.5 -6 45.5 -17 l-13 -36 q-18 11 -45.5 16 q-27.5 5 -52.5 5 q-87 0 -144 -58 q-57 -58 -73 -158 q-17 -108 27 -166 q44 -58 134 -58 q93 0 154 51.5 q61 51.5 74 139.5 q9 58 -11.5 90.5 q-20.5 32.5 -62.5 32.5 q-43 0 -73.5 -32 q-30.5 -32 -38.5 -88 q-14 -97 32.5 -145.5 q46.5 -48.5 135.5 -48.5 q24 0 51.5 7 q27.5 7 52.5 20 l11 -35 q-28 -15 -58 -22.5 q-30 -7.5 -62 -7.5 q-54 0 -95.5 17 q-41.5 17 -68.5 48.5 q-27 31.5 -37 75.5 q-10 44 -2 97 q7 45 28 79 q21 34 53 53.5 q32 19.5 72 19.5 q42 0 70 -20 q28 -20 39.5 -57 q11.5 -37 3.5 -89 q-8 -50 -32 -91.5 q-24 -41.5 -60 -71 q-36 -29.5 -81 -45.5 q-45 -16 -94 -16 Z" /><glyph glyph-name="uni04AB" unicode="&#x4ab;" d="M200 -130 l25 154 l40 0 l-25 -154 l-40 0 ZM249 -8 q-69 0 -117 31 q-48 31 -68 91 q-20 60 -6 146 q20 120 88.5 184 q68.5 64 168.5 64 q48 0 89 -16 q41 -16 67 -48 l-23 -30 q-29 29 -63.5 42 q-34.5 13 -67.5 13 q-85 0 -142.5 -56 q-57.5 -56 -74.5 -160 q-17 -108 24.5 -165 q41.5 -57 125.5 -57 q39 0 80 14.5 q41 14.5 76 48.5 l21 -33 q-32 -33 -82.5 -51 q-50.5 -18 -95.5 -18 Z" /><glyph glyph-name="uni04AD" unicode="&#x4ad;" d="M214 -130 l21 130 l-80 0 l6 37 l118 0 l-27 -167 l-38 0 ZM154 0 l73 464 l-191 0 l6 36 l424 0 l-6 -36 l-191 0 l-73 -464 l-42 0 Z" /><glyph glyph-name="uni04AF" unicode="&#x4af;" d="M168 -216 l33 208 l-135 508 l45 0 l125 -484 l-24 0 l277 484 l49 0 l-295 -507 l-32 -209 l-43 0 Z" /><glyph glyph-name="uni04B1" unicode="&#x4b1;" d="M174 -180 l23 144 l-122 0 l6 36 l126 0 l-3 -17 l-138 517 l46 0 l124 -484 l-24 0 l277 484 l49 0 l-300 -517 l2 17 l127 0 l-6 -36 l-122 0 l-23 -144 l-42 0 Z" /><glyph glyph-name="uni04B3" unicode="&#x4b3;" d="M417 -130 l21 130 l-37 0 l6 37 l76 0 l-27 -167 l-39 0 ZM-9 0 l259 271 l0 -26 l-165 255 l49 0 l140 -221 l-15 0 l209 221 l55 0 l-241 -252 l0 19 l171 -267 l-50 0 l-148 235 l15 0 l-224 -235 l-55 0 Z" /><glyph glyph-name="uni04B5" unicode="&#x4b5;" d="M543 -130 l21 130 l-435 0 l73 464 l-166 0 l6 36 l385 0 l-6 -36 l-178 0 l-67 -428 l313 0 l73 464 l42 0 l-73 -464 l76 0 l-26 -166 l-38 0 Z" /><glyph glyph-name="uni04B7" unicode="&#x4b7;" d="M434 -130 l21 130 l-80 0 l6 37 l118 0 l-27 -167 l-38 0 ZM374 0 l35 221 q-33 -20 -72 -31 q-39 -11 -83 -11 q-63 0 -104.5 21 q-41.5 21 -57.5 63.5 q-16 42.5 -6 106.5 l20 130 l42 0 l-20 -128 q-13 -81 20 -117.5 q33 -36.5 113 -36.5 q45 0 81 10 q36 10 73 34 l38 238 l42 0 l-79 -500 l-42 0 Z" /><glyph glyph-name="uni04B9" unicode="&#x4b9;" d="M374 0 l35 220 q-33 -19 -71 -29.5 q-38 -10.5 -74 -11.5 l10 11 l-18 -117 l-36 0 l18 117 l14 -11 q-94 0 -138 47.5 q-44 47.5 -28 143.5 l20 130 l42 0 l-20 -129 q-13 -79 19.5 -116 q32.5 -37 108.5 -37 l-15 -8 l23 142 l36 0 l-23 -142 l-10 8 q40 1 75.5 11 q35.5 10 72.5 32 l38 239 l42 0 l-79 -500 l-42 0 Z" /><glyph glyph-name="uni0527" unicode="&#x527;" d="M466 -130 l21 130 l-80 0 l6 37 l118 0 l-27 -167 l-38 0 ZM51 0 l117 736 l42 0 l-57 -357 l-14 0 q30 63 84.5 96 q54.5 33 125.5 33 q93 0 128 -52 q35 -52 20 -146 l-49 -310 l-42 0 l49 308 q14 87 -14 124 q-28 37 -100 37 q-82 0 -135.5 -49 q-53.5 -49 -66.5 -130 l-46 -290 l-42 0 Z" /><glyph glyph-name="uni04BD" unicode="&#x4bd;" d="M359 -8 q-78 0 -128.5 32.5 q-50.5 32.5 -71 92.5 q-20.5 60 -8.5 141 l3 -6 l-14 0 q-60 0 -84.5 32 q-24.5 32 -15.5 90 l6 39 l40 0 l-7 -40 q-7 -42 8 -62.5 q15 -20.5 59 -20.5 l31 0 l-23 -13 q15 74 50 125.5 q35 51.5 87.5 78.5 q52.5 27 120.5 27 q66 0 109 -28.5 q43 -28.5 61 -80 q18 -51.5 8 -120.5 l-4 -27 l-403 0 l10 6 q-16 -106 25.5 -166.5 q41.5 -60.5 141.5 -60.5 q47 0 93 15 q46 15 83 51 l22 -33 q-39 -34 -91.5 -53 q-52.5 -19 -107.5 -19 ZM408 470 q-88 0 -143 -54.5 q-55 -54.5 -69 -142.5 l-7 17 l381 0 l-17 -13 q13 92 -23 142.5 q-36 50.5 -122 50.5 Z" /><glyph glyph-name="uni04C4" unicode="&#x4c4;" d="M225 -185 l-3 37 q61 12 96 36 q35 24 52.5 62 q17.5 38 26.5 92 l6 36 q14 86 -19.5 125 q-33.5 39 -113.5 39 l-142 0 l-38 -242 l-42 0 l79 500 l42 0 l-35 -223 l110 0 l217 223 l51 0 l-227 -235 l-13 13 q64 0 106.5 -20.5 q42.5 -20.5 60.5 -64 q18 -43.5 7 -111.5 l-6 -37 q-10 -66 -33.5 -112 q-23.5 -46 -67 -75 q-43.5 -29 -114.5 -43 Z" /><glyph glyph-name="uni04C6" unicode="&#x4c6;" d="M396 -130 l70 130 l-67 0 l6 37 l119 0 l-89 -167 l-39 0 ZM6 -9 l-16 35 q41 20 69.5 46.5 q28.5 26.5 48.5 66.5 q20 40 35.5 100 q15.5 60 29.5 146 l19 115 l327 0 l-79 -500 l-42 0 l73 464 l-244 0 l-13 -80 q-15 -93 -32.5 -158.5 q-17.5 -65.5 -41.5 -110 q-24 -44.5 -56.5 -74 q-32.5 -29.5 -77.5 -50.5 Z" /><glyph glyph-name="uni04C8" unicode="&#x4c8;" d="M231 -193 l3 38 l44 3 q53 4 86.5 37 q33.5 33 43.5 93 l41 263 l-321 0 l-38 -241 l-42 0 l79 500 l42 0 l-35 -222 l321 0 l35 222 l41 0 l-82 -521 q-9 -56 -32 -92.5 q-23 -36.5 -58.5 -55 q-35.5 -18.5 -82.5 -21.5 l-45 -3 Z" /><glyph glyph-name="uni04CA" unicode="&#x4ca;" d="M408 -130 l70 130 l-67 0 l6 37 l119 0 l-89 -167 l-39 0 ZM48 0 l79 500 l42 0 l-35 -222 l320 0 l35 222 l42 0 l-79 -500 l-42 0 l38 241 l-320 0 l-38 -241 l-42 0 Z" /><glyph glyph-name="uni04CC" unicode="&#x4cc;" d="M314 -130 l-38 0 l27 166 l98 0 l-6 -36 l-60 0 l-21 -130 ZM374 0 l35 221 q-33 -20 -72 -31 q-39 -11 -83 -11 q-63 0 -104.5 21 q-41.5 21 -57.5 63.5 q-16 42.5 -6 106.5 l20 130 l42 0 l-20 -128 q-13 -81 20 -117.5 q33 -36.5 113 -36.5 q45 0 81 10 q36 10 73 34 l38 238 l42 0 l-79 -500 l-42 0 Z" /><glyph glyph-name="uni04CE" unicode="&#x4ce;" d="M481 -130 l70 130 l-67 0 l6 37 l119 0 l-89 -167 l-39 0 ZM48 0 l79 500 l36 0 l143 -368 l260 368 l35 0 l-79 -500 l-38 0 l72 454 l22 0 l-265 -374 l-26 0 l-147 375 l18 0 l-72 -455 l-38 0 Z" /><glyph glyph-name="uni04E1" unicode="&#x4e1;" d="M164 -188 q-64 0 -115.5 17 q-51.5 17 -80.5 47 l21 34 q32 -31 75 -45.5 q43 -14.5 101 -14.5 q91 0 143.5 43 q52.5 43 64.5 119 q13 81 -25 122.5 q-38 41.5 -121 41.5 l-109 0 l4 23 l287 276 l-2 -14 l-336 0 l6 39 l385 0 l-4 -29 l-289 -278 l2 21 l57 0 q71 0 116 -24 q45 -24 63.5 -69.5 q18.5 -45.5 8.5 -108.5 q-9 -61 -40 -106 q-31 -45 -84 -69.5 q-53 -24.5 -128 -24.5 Z" /><glyph glyph-name="uni04E9" unicode="&#x4e9;" d="M243 -8 q-69 0 -115.5 31 q-46.5 31 -64.5 91 q-18 60 -5 146 q13 80 48.5 135.5 q35.5 55.5 88.5 84 q53 28.5 119 28.5 q70 0 116 -31 q46 -31 65 -91 q19 -60 5 -146 q-13 -80 -49 -135.5 q-36 -55.5 -89 -84 q-53 -28.5 -119 -28.5 ZM247 31 q80 0 137.5 56.5 q57.5 56.5 74.5 162.5 q17 106 -24 162.5 q-41 56.5 -125 56.5 q-80 0 -136.5 -56.5 q-56.5 -56.5 -73.5 -162.5 q-17 -106 22.5 -162.5 q39.5 -56.5 124.5 -56.5 ZM75 232 l5 36 l405 0 l-5 -36 l-405 0 Z" /><glyph glyph-name="uni04F7" unicode="&#x4f7;" d="M108 -130 l21 130 l-80 0 l6 37 l118 0 l-27 -167 l-38 0 ZM48 0 l79 500 l325 0 l-6 -36 l-283 0 l-73 -464 l-42 0 Z" /><glyph glyph-name="uni04FB" unicode="&#x4fb;" d="M4 -180 l4 37 l35 4 q47 5 73.5 38 q26.5 33 36.5 101 l-84 0 l37 234 l-104 0 l6 36 l104 0 l36 230 l324 0 l-6 -36 l-282 0 l-30 -194 l155 0 l-6 -36 l-155 0 l-31 -198 l80 0 l-6 -36 q-13 -87 -53 -129.5 q-40 -42.5 -99 -47.5 l-35 -3 Z" /><glyph glyph-name="uni04FD" unicode="&#x4fd;" d="M268 -183 l-4 35 q60 8 93.5 30.5 q33.5 22.5 40.5 65.5 q5 31 -9 63 q-14 32 -50 90 l-84 134 l15 0 l-224 -235 l-55 0 l259 271 l0 -26 l-165 255 l49 0 l140 -221 l-15 0 l209 221 l55 0 l-241 -252 l0 19 l90 -141 q27 -41 43 -70.5 q16 -29.5 22.5 -54.5 q6.5 -25 2.5 -53 q-6 -38 -29 -66 q-23 -28 -59.5 -44 q-36.5 -16 -83.5 -21 Z" /><glyph glyph-name="uni0511" unicode="&#x511;" d="M215 -8 q-103 0 -146 41 q-43 41 -33 107 q9 55 51 88.5 q42 33.5 103 34.5 l-3 -11 q-50 4 -78 37 q-28 33 -19 86 q10 64 64.5 98.5 q54.5 34.5 137.5 34.5 q49 0 94.5 -14 q45.5 -14 82.5 -43 l-21 -32 q-34 26 -76 38.5 q-42 12.5 -86 12.5 q-64 0 -105.5 -27 q-41.5 -27 -49.5 -74 q-7 -46 21 -71 q28 -25 83 -25 l99 0 l-6 -38 l-107 0 q-61 0 -97 -24 q-36 -24 -43 -68 q-9 -55 23.5 -83.5 q32.5 -28.5 112.5 -28.5 q54 0 101 15.5 q47 15.5 88 47.5 l19 -32 q-36 -33 -92 -51.5 q-56 -18.5 -118 -18.5 Z" /><glyph glyph-name="uni0513" unicode="&#x513;" d="M219 -193 l3 38 l44 3 q53 4 86 37 q33 33 43 93 l76 486 l-244 0 l-13 -80 q-15 -93 -32.5 -158.5 q-17.5 -65.5 -41.5 -110 q-24 -44.5 -56.5 -74 q-32.5 -29.5 -77.5 -50.5 l-16 35 q41 20 69.5 46.5 q28.5 26.5 48.5 66.5 q20 40 35.5 100 q15.5 60 29.5 146 l19 115 l327 0 l-82 -521 q-8 -53 -31 -90 q-23 -37 -59 -56.5 q-36 -19.5 -83 -22.5 l-45 -3 Z" /><glyph glyph-name="uni048F" unicode="&#x48f;" d="M16 -216 l96 608 q4 26 6 53 q2 27 3 55 l41 0 l-11 -131 l-14 0 q28 65 81 102 q53 37 127 37 q70 0 116 -31 q46 -31 64.5 -91 q18.5 -60 4.5 -146 q-11 -70 -39 -119.5 q-28 -49.5 -72 -82.5 l0 11 l40 -62 l-29 -21 l-39 61 l7 -2 q-28 -18 -58.5 -25.5 q-30.5 -7.5 -65.5 -7.5 q-70 0 -115 37 q-45 37 -56 102 l10 0 l-55 -347 l-42 0 ZM341 469 q-79 0 -137 -56.5 q-58 -56.5 -75 -162.5 q-16 -106 24.5 -162.5 q40.5 -56.5 124.5 -56.5 q56 0 99 28 l-2 -7 l-41 63 l30 21 l45 -72 l-10 10 q34 27 56.5 71 q22.5 44 32.5 105 q17 106 -22.5 162.5 q-39.5 56.5 -124.5 56.5 Z" /><glyph glyph-name="uni0529" unicode="&#x529;" d="M-131 -193 l3 38 l44 3 q53 4 86 37 q33 33 43 93 l82 522 l42 0 l-35 -222 l321 0 l35 222 l41 0 l-79 -500 l-41 0 l38 241 l-321 0 l-41 -262 q-8 -56 -31 -92.5 q-23 -36.5 -59 -55 q-36 -18.5 -83 -21.5 l-45 -3 Z" /><glyph glyph-name="uni052F" unicode="&#x52f;" d="M458 -130 l21 130 l-80 0 l6 37 l118 0 l-27 -167 l-38 0 ZM6 -9 l-16 35 q41 20 69.5 46.5 q28.5 26.5 48.5 66.5 q20 40 35.5 100 q15.5 60 29.5 146 l19 115 l327 0 l-79 -500 l-42 0 l73 464 l-244 0 l-13 -80 q-15 -93 -32.5 -158.5 q-17.5 -65.5 -41.5 -110 q-24 -44.5 -56.5 -74 q-32.5 -29.5 -77.5 -50.5 Z" /><glyph glyph-name="uni0394" unicode="&#x394;" d="M-5 0 l5 29 l397 676 l40 0 l183 -676 l-5 -29 l-620 0 ZM410 647 l-376 -639 l5 31 l550 0 l-5 -31 l-172 639 l-2 0 Z" /><glyph glyph-name="Sigma" unicode="&#x3a3;" d="M-17 -180 l5 31 l354 422 l3 -21 l-227 422 l5 31 l490 0 l-6 -39 l-445 0 l-1 15 l217 -402 l-6 -33 l-340 -402 l2 15 l445 0 l-6 -39 l-490 0 Z" /><glyph glyph-name="uni03A9" unicode="&#x3a9;" d="M-2 0 l6 38 l240 0 l0 -16 q-87 74 -130 157 q-43 83 -43 172 q0 106 42 187.5 q42 81.5 121 128 q79 46.5 188 46.5 q68 0 123 -21 q55 -21 94 -59 q39 -38 60 -89 q21 -51 21 -112 q0 -95 -36 -173 q-36 -78 -100 -137.5 q-64 -59.5 -150 -99.5 l0 16 l240 0 l-6 -38 l-274 0 l6 36 q126 68 200.5 165.5 q74.5 97.5 74.5 230.5 q0 70 -30.5 124 q-30.5 54 -88 85 q-57.5 31 -137.5 31 q-96 0 -163.5 -41.5 q-67.5 -41.5 -103.5 -113.5 q-36 -72 -36 -164 q0 -84 40 -163.5 q40 -79.5 122 -153.5 l-6 -36 l-274 0 Z" /><glyph glyph-name="uni03BC" unicode="&#x3bc;" d="M13 -216 l111 716 l42 0 l-47 -306 q-13 -84 15.5 -123.5 q28.5 -39.5 93.5 -39.5 q86 0 136.5 53 q50.5 53 63.5 141 l42 275 l42 0 l-77 -500 l-41 0 l19 121 l11 0 q-25 -59 -75.5 -94 q-50.5 -35 -121.5 -35 q-50 0 -85.5 19 q-35.5 19 -49.5 56 l8 2 l-45 -285 l-42 0 Z" /><glyph glyph-name="pi" unicode="&#x3c0;" d="M-5 0 q34 60 61.5 132 q27.5 72 49.5 155 q22 83 36 177 l-104 0 l6 36 l524 0 l-6 -36 l-131 0 l-44 -285 q-7 -46 2.5 -77 q9.5 -31 37 -47.5 q27.5 -16.5 73.5 -19.5 l30 -2 l-4 -39 l-38 2 q-56 3 -91 25 q-35 22 -47.5 62 q-12.5 40 -3.5 98 l43 283 l-205 0 q-15 -98 -36.5 -181.5 q-21.5 -83.5 -47.5 -153.5 q-26 -70 -58 -129 l-47 0 Z" /><glyph glyph-name="zero" unicode="0" d="M266 -8 q-121 0 -169 96 q-48 96 -20 274 q29 180 103 265.5 q74 85.5 187 85.5 q121 0 168.5 -95.5 q47.5 -95.5 18.5 -274.5 q-28 -179 -102 -265 q-74 -86 -186 -86 ZM267 33 q96 0 157 75 q61 75 87 245 q17 109 6.5 179.5 q-10.5 70.5 -48.5 105 q-38 34.5 -104 34.5 q-97 0 -157.5 -74.5 q-60.5 -74.5 -86.5 -244.5 q-17 -108 -6.5 -179 q10.5 -71 48.5 -106 q38 -35 104 -35 Z" /><glyph glyph-name="one" unicode="1" d="M102 0 l6 39 l169 0 l100 628 l27 0 l-200 -118 l7 47 l183 109 l31 0 l-106 -666 l159 0 l-6 -39 l-370 0 Z" /><glyph glyph-name="two" unicode="2" d="M54 0 l5 32 l320 293 q57 53 89 98 q32 45 42 104 q11 71 -26 108 q-37 37 -117 37 q-64 0 -118 -20 q-54 -20 -106 -63 l-20 36 q45 40 111 64 q66 24 130 24 q66 0 111.5 -22 q45.5 -22 66.5 -64.5 q21 -42.5 11 -103.5 q-10 -64 -47.5 -117.5 q-37.5 -53.5 -103.5 -113.5 l-296 -267 l-2 14 l403 0 l-6 -39 l-447 0 Z" /><glyph glyph-name="three" unicode="3" d="M269 -8 q-69 0 -129.5 22.5 q-60.5 22.5 -99.5 65.5 l24 36 q45 -44 96.5 -63.5 q51.5 -19.5 112.5 -19.5 q85 0 137.5 36 q52.5 36 64.5 115 q24 155 -168 155 l-99 0 l6 39 l97 0 q80 0 134.5 41 q54.5 41 66.5 115 q11 67 -28 102.5 q-39 35.5 -119 35.5 q-63 0 -117 -20 q-54 -20 -106 -65 l-19 36 q47 44 111 67 q64 23 133 23 q98 0 149.5 -48 q51.5 -48 37.5 -138 q-9 -59 -54 -107.5 q-45 -48.5 -113 -65.5 l1 10 q75 -13 108.5 -63 q33.5 -50 21.5 -127 q-13 -88 -80 -135 q-67 -47 -169 -47 Z" /><glyph glyph-name="four" unicode="4" d="M373 0 l26 166 l-355 0 l6 33 l442 506 l35 0 l-80 -500 l115 0 l-6 -39 l-115 0 l-26 -166 l-42 0 ZM405 205 l72 450 l25 0 l-404 -462 l-4 12 l311 0 Z" /><glyph glyph-name="five" unicode="5" d="M285 -8 q-45 0 -86.5 10 q-41.5 10 -76.5 30 q-35 20 -61 48 l21 36 q44 -43 95 -63 q51 -20 111 -20 q84 0 141 44.5 q57 44.5 70 131.5 q13 81 -26 133 q-39 52 -123 52 q-59 0 -108 -24 q-49 -24 -89 -76 l-38 0 l65 411 l400 0 l-7 -39 l-357 0 l-52 -330 l-16 0 q36 49 90.5 74 q54.5 25 111.5 25 q68 0 115 -28 q47 -28 68 -80 q21 -52 9 -124 q-10 -68 -45.5 -115 q-35.5 -47 -89.5 -71.5 q-54 -24.5 -122 -24.5 Z" /><glyph glyph-name="six" unicode="6" d="M287 -8 q-77 0 -131 37 q-54 37 -75 116 q-21 79 -1 206 q20 124 65 204 q45 80 112.5 119 q67.5 39 152.5 39 q58 0 108.5 -21 q50.5 -21 78.5 -61 l-26 -31 q-34 39 -74.5 55.5 q-40.5 16.5 -89.5 16.5 q-112 0 -184.5 -79.5 q-72.5 -79.5 -101.5 -252.5 l-18 -110 l-8 0 q23 94 86 149 q63 55 159 55 q69 0 117 -29 q48 -29 69.5 -81.5 q21.5 -52.5 9.5 -124.5 q-9 -60 -40.5 -106.5 q-31.5 -46.5 -83.5 -73.5 q-52 -27 -125 -27 ZM285 33 q95 0 145.5 47 q50.5 47 62.5 123 q14 88 -29.5 139 q-43.5 51 -124.5 51 q-85 0 -141.5 -50 q-56.5 -50 -69.5 -129 q-13 -80 30.5 -130.5 q43.5 -50.5 126.5 -50.5 Z" /><glyph glyph-name="seven" unicode="7" d="M92 0 l463 694 l-1 -28 l-413 0 l7 39 l448 0 l-5 -31 l-448 -674 l-51 0 Z" /><glyph glyph-name="eight" unicode="8" d="M266 -8 q-122 0 -178 55.5 q-56 55.5 -42 146.5 q12 75 63 118 q51 43 129 53 l-1 -9 q-67 15 -98.5 66 q-31.5 51 -21.5 115 q13 80 76 128 q63 48 176 48 q72 0 120.5 -24.5 q48.5 -24.5 69.5 -68.5 q21 -44 12 -103 q-10 -64 -54.5 -107.5 q-44.5 -43.5 -115.5 -57.5 l1 9 q49 -9 81 -33 q32 -24 45.5 -62 q13.5 -38 4.5 -89 q-14 -89 -82.5 -137 q-68.5 -48 -184.5 -48 ZM269 32 q99 0 154 38 q55 38 67 115 q13 77 -31 114.5 q-44 37.5 -146 37.5 q-102 0 -156.5 -36.5 q-54.5 -36.5 -66.5 -109.5 q-12 -74 31.5 -116.5 q43.5 -42.5 147.5 -42.5 ZM320 377 q89 0 142 35 q53 35 65 108 q11 74 -30 113.5 q-41 39.5 -131 39.5 q-93 0 -144 -37.5 q-51 -37.5 -61 -101.5 q-10 -68 30 -112.5 q40 -44.5 129 -44.5 Z" /><glyph glyph-name="nine" unicode="9" d="M223 -8 q-58 0 -108 21 q-50 21 -79 61 l26 31 q34 -39 74.5 -55.5 q40.5 -16.5 89.5 -16.5 q112 0 185 80 q73 80 101 252 l18 110 l8 0 q-22 -94 -85.5 -149 q-63.5 -55 -159.5 -55 q-68 0 -116 29 q-48 29 -69.5 82 q-21.5 53 -10.5 124 q10 60 41.5 107 q31.5 47 84.5 73.5 q53 26.5 125 26.5 q78 0 131 -37 q53 -37 73.5 -116 q20.5 -79 0.5 -206 q-19 -123 -64.5 -203.5 q-45.5 -80.5 -113 -119.5 q-67.5 -39 -152.5 -39 ZM294 312 q86 0 142 50 q56 50 69 129 q13 80 -29.5 130.5 q-42.5 50.5 -125.5 50.5 q-94 0 -146 -46.5 q-52 -46.5 -64 -123.5 q-13 -88 30 -139 q43 -51 124 -51 Z" /><glyph glyph-name="fraction" unicode="&#x2044;" d="M-151 -8 l-46 0 l540 721 l46 0 l-540 -721 Z" /><glyph glyph-name="period" unicode="." d="M31 0 l11 70 l69 0 l-11 -70 l-69 0 Z" /><glyph glyph-name="comma" unicode="," d="M44 -98 l-23 24 q25 24 32 42.5 q7 18.5 10 37.5 l18 -6 l-51 0 l11 70 l69 0 l-10 -61 q-3 -21 -9 -39.5 q-6 -18.5 -16.5 -34.5 q-10.5 -16 -30.5 -33 Z" /><glyph glyph-name="colon" unicode=":" d="M99 430 l11 70 l69 0 l-11 -70 l-69 0 ZM30 0 l11 70 l69 0 l-11 -70 l-69 0 Z" /><glyph glyph-name="semicolon" unicode=";" d="M44 -98 l-23 20 q26 24 34.5 44.5 q8.5 20.5 11.5 39.5 l9 -6 l-42 0 l11 70 l69 0 l-9 -61 q-4 -31 -18 -57.5 q-14 -26.5 -43 -49.5 ZM99 430 l11 70 l69 0 l-11 -70 l-69 0 Z" /><glyph glyph-name="exclam" unicode="!" d="M78 162 l73 543 l53 0 l-99 -543 l-27 0 ZM31 0 l11 70 l69 0 l-11 -70 l-69 0 Z" /><glyph glyph-name="exclamdown" unicode="¡" d="M10 -180 l96 519 l27 0 l-70 -519 l-53 0 ZM99 430 l11 70 l69 0 l-11 -70 l-69 0 Z" /><glyph glyph-name="question" unicode="?" d="M159 162 l3 20 q6 36 19 68 q13 32 40 67.5 q27 35.5 73 79.5 q24 23 49 52 q25 29 41.5 62.5 q16.5 33.5 16.5 70.5 q0 43 -32 66.5 q-32 23.5 -88 23.5 q-40 0 -75.5 -9 q-35.5 -9 -68.5 -26 l7 46 q33 16 70 23 q37 7 73 7 q49 0 84.5 -15.5 q35.5 -15.5 54.5 -43.5 q19 -28 19 -67 q0 -45 -19.5 -84 q-19.5 -39 -48.5 -71.5 q-29 -32.5 -58 -61.5 q-59 -58 -86.5 -99 q-27.5 -41 -38.5 -87 l-5 -22 l-30 0 ZM113 0 l11 70 l69 0 l-11 -70 l-69 0 Z" /><glyph glyph-name="questiondown" unicode="¿" d="M145 -213 q-49 0 -84.5 15.5 q-35.5 15.5 -54.5 44 q-19 28.5 -19 66.5 q0 46 19.5 84.5 q19.5 38.5 48.5 71.5 q29 33 58 61 q59 58 87 99 q28 41 38 87 l5 22 l30 0 l-3 -20 q-5 -35 -18.5 -67.5 q-13.5 -32.5 -40.5 -67.5 q-27 -35 -73 -80 q-24 -23 -48.5 -52 q-24.5 -29 -41.5 -62.5 q-17 -33.5 -17 -70.5 q0 -43 32 -66.5 q32 -23.5 88 -23.5 q41 0 76 9.5 q35 9.5 68 25.5 l-7 -46 q-33 -16 -70 -23 q-37 -7 -73 -7 ZM319 500 l-11 -70 l-69 0 l11 70 l69 0 Z" /><glyph glyph-name="periodcentered" unicode="·" d="M70 238 l11 70 l70 0 l-11 -70 l-70 0 Z" /><glyph glyph-name="bullet" unicode="&#x2022;" d="M265 88 q-49 0 -90 23.5 q-41 23.5 -65.5 63.5 q-24.5 40 -24.5 90 q0 46 23 86.5 q23 40.5 64 66 q41 25.5 93 25.5 q48 0 89.5 -23 q41.5 -23 66.5 -63.5 q25 -40.5 25 -91.5 q0 -49 -24.5 -89 q-24.5 -40 -65.5 -64 q-41 -24 -91 -24 Z" /><glyph glyph-name="asterisk" unicode="*" d="M168 377 l-32 23 l113 135 l-159 51 l14 37 l156 -56 l10 169 l41 0 l-17 -170 l164 57 l10 -37 l-166 -52 l92 -134 l-32 -23 l-84 141 l-110 -141 Z" /><glyph glyph-name="numbersign" unicode="#" d="M53 0 l69 191 l-109 0 l7 40 l116 0 l91 251 l-147 0 l6 40 l155 0 l66 183 l42 0 l-65 -183 l183 0 l65 183 l44 0 l-66 -183 l109 0 l-6 -40 l-117 0 l-91 -251 l148 0 l-7 -40 l-155 0 l-69 -191 l-44 0 l69 191 l-182 0 l-68 -191 l-44 0 ZM179 231 l183 0 l91 251 l-183 0 l-91 -251 Z" /><glyph glyph-name="slash" unicode="/" d="M-27 -52 l-42 0 l385 796 l42 0 l-385 -796 Z" /><glyph glyph-name="backslash" unicode="\" d="M192 -52 l-135 796 l40 0 l135 -796 l-40 0 Z" /><glyph glyph-name="parenleft" unicode="(" d="M134 -180 q-19 71 -29.5 141.5 q-10.5 70.5 -10.5 140.5 q0 114 24 222.5 q24 108.5 66.5 205.5 q42.5 97 95.5 175 l45 0 q-80 -129 -133.5 -281.5 q-53.5 -152.5 -53.5 -323.5 q0 -66 9 -137.5 q9 -71.5 25 -142.5 l-38 0 Z" /><glyph glyph-name="parenright" unicode=")" d="M7 -180 l-45 0 q80 129 133.5 281.5 q53.5 152.5 53.5 323.5 q0 66 -8.5 137.5 q-8.5 71.5 -25.5 142.5 l38 0 q19 -71 29.5 -141.5 q10.5 -70.5 10.5 -140.5 q0 -113 -24 -222 q-24 -109 -66 -206 q-42 -97 -96 -175 Z" /><glyph glyph-name="braceleft" unicode="{" d="M186 -180 q-36 0 -58 9.5 q-22 9.5 -29.5 29 q-7.5 19.5 -3.5 47.5 l40 256 q6 41 -7 60.5 q-13 19.5 -57 21.5 l-21 1 l5 36 l23 1 q44 2 63 21.5 q19 19.5 26 60.5 l41 255 q7 41 31 63.5 q24 22.5 67 22.5 l84 0 l-6 -37 l-81 0 q-23 0 -36 -12 q-13 -12 -17 -35 l-41 -260 q-5 -36 -22 -58 q-17 -22 -39 -32 q-22 -10 -42 -10 l0 4 q20 0 38.5 -10 q18.5 -10 28.5 -31.5 q10 -21.5 4 -58.5 l-40 -261 q-4 -22 4.5 -34.5 q8.5 -12.5 32.5 -12.5 l82 0 l-6 -37 l-64 0 Z" /><glyph glyph-name="braceright" unicode="}" d="M-64 -180 l5 37 l81 0 q23 0 36.5 12.5 q13.5 12.5 17.5 34.5 l41 260 q6 37 22.5 58.5 q16.5 21.5 38.5 31.5 q22 10 42 10 l0 -4 q-20 0 -38.5 10 q-18.5 10 -28 32 q-9.5 22 -4.5 58 l40 261 q4 23 -5 35 q-9 12 -32 12 l-82 0 l6 37 l64 0 q37 0 58.5 -9.5 q21.5 -9.5 29.5 -28.5 q8 -19 3 -48 l-40 -256 q-6 -41 7.5 -60.5 q13.5 -19.5 56.5 -21.5 l20 -1 l-5 -36 l-22 -1 q-44 -2 -63 -21.5 q-19 -19.5 -26 -60.5 l-41 -255 q-7 -41 -31 -63.5 q-24 -22.5 -67 -22.5 l-84 0 Z" /><glyph glyph-name="bracketleft" unicode="[" d="M41 -180 l140 885 l170 0 l-6 -37 l-128 0 l-128 -811 l128 0 l-6 -37 l-170 0 Z" /><glyph glyph-name="bracketright" unicode="]" d="M-64 -180 l5 37 l128 0 l128 811 l-127 0 l6 37 l169 0 l-140 -885 l-169 0 Z" /><glyph glyph-name="hyphen" unicode="-" d="M76 254 l6 38 l268 0 l-6 -38 l-268 0 Z" /><glyph glyph-name="endash" unicode="&#x2013;" d="M1 257 l5 33 l505 0 l-5 -33 l-505 0 Z" /><glyph glyph-name="emdash" unicode="&#x2014;" d="M1 257 l5 33 l1010 0 l-5 -33 l-1010 0 Z" /><glyph glyph-name="figuredash" unicode="&#x2012;" d="M75 257 l5 33 l452 0 l-5 -33 l-452 0 Z" /><glyph glyph-name="uni2015" unicode="&#x2015;" d="M1 257 l5 33 l1010 0 l-5 -33 l-1010 0 Z" /><glyph glyph-name="underscore" unicode="_" d="M-41 -33 l5 33 l497 0 l-5 -33 l-497 0 Z" /><glyph glyph-name="quotesinglbase" unicode="&#x201a;" d="M45 -98 l-23 24 q25 24 32 42.5 q7 18.5 10 37.5 l18 -6 l-51 0 l11 70 l69 0 l-10 -61 q-3 -21 -9 -39.5 q-6 -18.5 -16.5 -34.5 q-10.5 -16 -30.5 -33 Z" /><glyph glyph-name="quoteleft" unicode="&#x2018;" d="M116 542 l10 61 q4 22 9.5 40 q5.5 18 16.5 34.5 q11 16.5 30 32.5 l23 -24 q-25 -24 -32 -42 q-7 -18 -10 -38 l-18 6 l51 0 l-11 -70 l-69 0 Z" /><glyph glyph-name="quoteright" unicode="&#x2019;" d="M145 537 l-23 24 q25 24 32 42.5 q7 18.5 10 37.5 l18 -6 l-51 0 l11 70 l69 0 l-10 -61 q-3 -21 -9 -39.5 q-6 -18.5 -16.5 -34.5 q-10.5 -16 -30.5 -33 Z" /><glyph glyph-name="guilsinglleft" unicode="&#x2039;" d="M132 89 l-101 178 l160 180 l50 0 l-161 -186 l97 -172 l-45 0 Z" /><glyph glyph-name="guilsinglright" unicode="&#x203a;" d="M67 89 l-50 0 l161 186 l-97 172 l45 0 l101 -178 l-160 -180 Z" /><glyph glyph-name="quotesingle" unicode="&#39;" d="M118 440 l29 265 l52 0 l-53 -265 l-28 0 Z" /><glyph glyph-name="uni27E8" unicode="&#x27e8;" d="M308 0 l-73 350 l156 355 l36 0 l-156 -357 l70 -348 l-33 0 Z" /><glyph glyph-name="uni27E9" unicode="&#x27e9;" d="M205 0 l156 357 l-70 348 l33 0 l74 -350 l-157 -355 l-36 0 Z" /><glyph glyph-name="uni20B5" unicode="&#x20b5;" d="M275 -115 l20 127 l11 -16 q-89 4 -143 50 q-54 46 -72 127.5 q-18 81.5 -1 189.5 q18 111 63 188 q45 77 113 117.5 q68 40.5 153 40.5 l-16 -16 l20 127 l40 0 l-20 -128 l-10 17 q30 0 65 -8.5 q35 -8.5 67.5 -27 q32.5 -18.5 54.5 -49.5 l-26 -35 q-28 40 -72 59.5 q-44 19.5 -102 19.5 q-117 0 -190 -82.5 q-73 -82.5 -96 -227.5 q-25 -153 23.5 -237 q48.5 -84 162.5 -84 q58 0 108.5 20.5 q50.5 20.5 93.5 66.5 l21 -33 q-31 -36 -69.5 -56.5 q-38.5 -20.5 -78 -29 q-39.5 -8.5 -75.5 -9.5 l15 16 l-20 -127 l-40 0 Z" /><glyph glyph-name="cent" unicode="¢" d="M238 -115 l19 123 l8 -14 q-91 9 -137.5 72.5 q-46.5 63.5 -26.5 183.5 q20 115 85 173.5 q65 58.5 157 64.5 l-13 -20 l22 136 l40 0 l-22 -136 l-5 19 q44 0 84 -15.5 q40 -15.5 65 -45.5 l-23 -29 q-29 28 -63.5 40 q-34.5 12 -67.5 12 q-85 0 -142.5 -53.5 q-57.5 -53.5 -74.5 -152.5 q-11 -69 4 -116 q15 -47 52.5 -71.5 q37.5 -24.5 93.5 -24.5 q39 0 80 14 q41 14 76 46 l21 -33 q-32 -31 -83.5 -48.5 q-51.5 -17.5 -102.5 -17.5 l13 16 l-19 -123 l-40 0 Z" /><glyph glyph-name="colonmonetary" unicode="&#x20a1;" d="M33 -115 l98 218 l3 -26 q-34 44 -47 115.5 q-13 71.5 3 170.5 q27 170 114.5 257 q87.5 87 209.5 89 l-14 -9 l54 120 l43 0 l-56 -123 l-4 11 q30 -1 60 -8 q30 -7 51 -18 l-10 -6 l65 144 l43 0 l-74 -164 l-7 17 q12 -7 27 -18.5 q15 -11.5 28 -30.5 l-26 -35 q-28 40 -72 59.5 q-44 19.5 -102 19.5 q-117 0 -190 -82.5 q-73 -82.5 -96 -227.5 q-25 -153 23.5 -237 q48.5 -84 162.5 -84 q58 0 108.5 20 q50.5 20 93.5 67 l21 -33 q-31 -36 -70.5 -56.5 q-39.5 -20.5 -79 -29.5 q-39.5 -9 -72.5 -9 q-9 0 -19.5 0.5 q-10.5 0.5 -19 1.5 q-8.5 1 -13.5 2 l11 9 l-55 -124 l-43 0 l57 127 l7 -7 q-26 5 -53.5 21 q-27.5 16 -44.5 35 l9 5 l-81 -181 l-43 0 Z" /><glyph glyph-name="currency" unicode="¤" d="M109 -22 l-35 36 l74 76 q-24 32 -38 72 q-14 40 -14 83 q0 44 13.5 84 q13.5 40 38.5 71 l-74 76 l35 36 l74 -76 q31 27 70.5 42 q39.5 15 82.5 15 q43 0 81.5 -14.5 q38.5 -14.5 69.5 -40.5 l71 74 l36 -36 l-73 -73 q26 -33 40.5 -73 q14.5 -40 14.5 -85 q0 -45 -14.5 -85 q-14.5 -40 -40.5 -72 l73 -74 l-36 -36 l-72 74 q-31 -26 -69 -40.5 q-38 -14.5 -81 -14.5 q-43 0 -82 15 q-39 15 -71 41 l-74 -75 ZM335 40 q54 0 97.5 27.5 q43.5 27.5 69 74 q25.5 46.5 25.5 103.5 q0 57 -25.5 103.5 q-25.5 46.5 -69 74.5 q-43.5 28 -97.5 27 q-53 0 -96.5 -27.5 q-43.5 -27.5 -69.5 -74 q-26 -46.5 -26 -103.5 q0 -57 26 -103.5 q26 -46.5 69.5 -74 q43.5 -27.5 96.5 -27.5 Z" /><glyph glyph-name="dollar" unicode="$" d="M232 -115 l19 124 l11 -13 q-42 2 -85.5 10.5 q-43.5 8.5 -81.5 25 q-38 16.5 -66 41.5 l25 33 q42 -33 92.5 -51 q50.5 -18 132.5 -18 q88 0 141 39 q53 39 63 100 q9 56 -21.5 90 q-30.5 34 -108.5 47 l-92 16 q-57 10 -92.5 35.5 q-35.5 25.5 -48.5 65.5 q-13 40 -5 92 q9 57 43.5 98.5 q34.5 41.5 88.5 64.5 q54 23 120 24 l-7 -13 l20 124 l40 0 l-20 -124 l-5 12 q51 -1 100.5 -21.5 q49.5 -20.5 84.5 -58.5 l-26 -34 q-34 37 -79.5 55.5 q-45.5 18.5 -107.5 18.5 q-85 0 -143 -40.5 q-58 -40.5 -69 -111.5 q-10 -60 17.5 -97 q27.5 -37 97.5 -49 l92 -16 q93 -16 134 -62 q41 -46 29 -121 q-12 -76 -78 -123.5 q-66 -47.5 -171 -51.5 l16 14 l-20 -125 l-40 0 Z" /><glyph glyph-name="dong" unicode="&#x20ab;" d="M243 -8 q-63 0 -105 31 q-42 31 -59 89.5 q-17 58.5 -4 139.5 q19 115 80.5 177.5 q61.5 62.5 154.5 62.5 q65 0 105.5 -35.5 q40.5 -35.5 50.5 -98.5 l-11 0 l35 225 l-156 0 l6 36 l156 0 l19 117 l42 0 l-19 -117 l78 0 l-6 -36 l-78 0 l-92 -583 l-42 0 l20 126 l12 0 q-24 -63 -73 -98.5 q-49 -35.5 -114 -35.5 ZM27 -127 l6 36 l393 0 l-6 -36 l-393 0 ZM245 31 q74 0 125 54.5 q51 54.5 67 156.5 q16 100 -18 155.5 q-34 55.5 -108 55.5 q-75 0 -126.5 -53 q-51.5 -53 -68.5 -158 q-14 -94 19 -152.5 q33 -58.5 110 -58.5 Z" /><glyph glyph-name="Euro" unicode="&#x20ac;" d="M365 -8 q-81 0 -133 33 q-52 33 -76.5 95.5 q-24.5 62.5 -24.5 148.5 l7 -9 l-123 0 l6 36 l120 0 l-10 -9 q2 27 8.5 65.5 q6.5 38.5 11.5 64.5 l8 -7 l-120 0 l6 36 l126 0 l-15 -10 q26 92 69 153.5 q43 61.5 102 92.5 q59 31 132 31 q61 0 108 -21.5 q47 -21.5 76 -63.5 l-27 -35 q-25 40 -66 59.5 q-41 19.5 -95 19.5 q-88 0 -153.5 -59 q-65.5 -59 -100.5 -175 l-15 8 l205 0 l-6 -36 l-202 0 l14 8 q-7 -26 -13.5 -64.5 q-6.5 -38.5 -7.5 -69.5 l-11 12 l202 0 l-6 -36 l-197 0 l10 7 q-1 -119 47 -176.5 q48 -57.5 143 -57.5 q54 0 101.5 21 q47.5 21 87.5 68 l21 -35 q-45 -49 -100.5 -72 q-55.5 -23 -108.5 -23 Z" /><glyph glyph-name="florin" unicode="&#x192;" d="M-21 -188 l6 37 l39 0 q50 0 85.5 25.5 q35.5 25.5 60.5 91.5 l179 485 l10 -3 l-141 0 l6 36 l146 0 l-12 -12 l39 108 q22 59 67.5 96 q45.5 37 119.5 37 l38 0 l-6 -39 l-38 0 q-51 0 -85.5 -24 q-34.5 -24 -60.5 -92 l-31 -86 l-7 12 l143 0 l-6 -36 l-154 0 l17 5 l-190 -509 q-22 -58 -67 -95 q-45 -37 -119 -37 l-39 0 Z" /><glyph glyph-name="franc" unicode="&#x20a3;" d="M87 0 l25 159 l-76 0 l6 36 l76 0 l81 510 l414 0 l-7 -39 l-372 0 l-44 -279 l352 0 l-6 -39 l-352 0 l-24 -153 l227 0 l-6 -36 l-227 0 l-25 -159 l-42 0 Z" /><glyph glyph-name="uni20B2" unicode="&#x20b2;" d="M264 -115 l21 136 l10 -24 q-85 6 -139.5 49.5 q-54.5 43.5 -74.5 123 q-20 79.5 -2 193.5 q26 166 114 255.5 q88 89.5 215 90.5 l-16 -16 l20 127 l40 0 l-20 -128 l-10 17 q30 0 65 -8.5 q35 -8.5 67.5 -26 q32.5 -17.5 54.5 -45.5 l-26 -32 q-28 34 -72 52.5 q-44 18.5 -102 18.5 q-114 0 -189 -83 q-75 -83 -98 -232 q-24 -149 27 -232.5 q51 -83.5 170 -83.5 q41 0 88.5 10.5 q47.5 10.5 82.5 32.5 l-20 -39 l44 275 l-164 0 l6 39 l204 0 l-48 -306 q-26 -19 -78.5 -33.5 q-52.5 -14.5 -117.5 -19.5 l9 25 l-21 -136 l-40 0 Z" /><glyph glyph-name="uni20B4" unicode="&#x20b4;" d="M247 -8 q-91 0 -140.5 40 q-49.5 40 -39.5 108 q6 37 28.5 67.5 q22.5 30.5 63.5 61.5 l-3 -9 l-76 0 l6 36 l126 0 l-28 -8 l186 130 l-1 -8 l-265 0 l6 36 l323 0 l-31 -7 q44 32 68 54 q24 22 35 42.5 q11 20.5 15 45.5 q7 44 -24 67.5 q-31 23.5 -97 23.5 q-63 0 -115.5 -19 q-52.5 -19 -105.5 -60 l-21 36 q50 42 112.5 63 q62.5 21 132.5 21 q81 0 126.5 -35.5 q45.5 -35.5 36.5 -95.5 q-7 -39 -31.5 -72 q-24.5 -33 -76.5 -73 l3 9 l88 0 l-6 -36 l-140 0 l27 6 l-182 -128 l1 8 l276 0 l-6 -36 l-335 0 l29 3 q-47 -31 -71.5 -61.5 q-24.5 -30.5 -29.5 -62.5 q-8 -49 27.5 -77.5 q35.5 -28.5 111.5 -28.5 q62 0 120.5 21.5 q58.5 21.5 110.5 64.5 l18 -35 q-25 -25 -65 -46 q-40 -21 -88 -33.5 q-48 -12.5 -99 -12.5 Z" /><glyph glyph-name="uni20AD" unicode="&#x20ad;" d="M87 0 l53 335 l-113 0 l6 36 l113 0 l53 334 l42 0 l-53 -334 l2 0 l391 334 l58 0 l-396 -339 l1 5 l311 0 l-6 -36 l-320 0 l1 7 l297 -342 l-51 0 l-292 335 l-2 0 l-53 -335 l-42 0 Z" /><glyph glyph-name="lira" unicode="&#x20a4;" d="M9 0 l5 33 q57 23 93.5 54.5 q36.5 31.5 43.5 79.5 l15 94 l-116 0 l6 36 l116 0 l18 114 l-116 0 l6 36 l123 0 l-8 -5 l13 80 q16 97 73.5 144 q57.5 47 151.5 47 q59 0 105 -18.5 q46 -18.5 77 -56.5 l-24 -32 q-30 32 -65.5 49 q-35.5 17 -93.5 17 q-78 0 -124 -38 q-46 -38 -59 -120 l-12 -72 l-5 5 l204 0 l-6 -36 l-198 0 l-18 -114 l198 0 l-6 -36 l-198 0 l-12 -75 q-10 -64 -42.5 -100 q-32.5 -36 -77.5 -53 l1 6 l448 0 l-6 -39 l-510 0 Z" /><glyph glyph-name="uni20BA" unicode="&#x20ba;" d="M142 0 l43 274 l-123 -63 l7 41 l123 63 l18 114 l-123 -62 l7 43 l123 62 l37 233 l42 0 l-34 -211 l212 108 l-6 -42 l-212 -108 l-18 -114 l212 108 l-7 -42 l-212 -108 l-41 -257 l142 0 q74 0 111.5 30 q37.5 30 47.5 98 l9 53 l40 0 l-9 -56 q-13 -85 -63 -124.5 q-50 -39.5 -143 -39.5 l-183 0 Z" /><glyph glyph-name="uni20BC" unicode="&#x20bc;" d="M33 0 l32 200 q29 180 95 282 q66 102 185 108 l-14 -14 l21 129 l40 0 l-21 -129 l-10 14 q79 -4 119 -53 q40 -49 48.5 -135.5 q8.5 -86.5 -9.5 -201.5 l-32 -200 l-41 0 l32 200 q28 173 0 261 q-28 88 -119 89 l10 9 l-64 -399 l-40 0 l64 399 l6 -9 q-60 -1 -105.5 -44.5 q-45.5 -43.5 -76 -122 q-30.5 -78.5 -47.5 -183.5 l-32 -200 l-41 0 Z" /><glyph glyph-name="uni20A6" unicode="&#x20a6;" d="M75 0 l41 259 l-101 0 l6 36 l101 0 l18 114 l-101 0 l5 36 l101 0 l42 260 l38 0 l208 -659 l-18 10 l103 649 l39 0 l-42 -260 l101 0 l-5 -36 l-101 0 l-18 -114 l101 0 l-6 -36 l-101 0 l-41 -259 l-37 0 l-208 659 l17 -10 l-103 -649 l-39 0 Z" /><glyph glyph-name="peseta" unicode="&#x20a7;" d="M75 0 l74 467 l-101 0 l6 36 l101 0 l32 202 l152 0 q72 0 119 -23.5 q47 -23.5 68 -69.5 q21 -46 14 -114 l-13 5 l99 0 l-6 -36 l-99 0 l16 8 q-12 -66 -45 -113 q-33 -47 -85 -72 q-52 -25 -123 -25 l-125 0 l-42 -265 l-42 0 ZM165 304 l112 0 q96 0 150.5 44.5 q54.5 44.5 67.5 127.5 q11 66 -3.5 108 q-14.5 42 -53.5 62 q-39 20 -104 20 l-112 0 l-57 -362 Z" /><glyph glyph-name="uni20B1" unicode="&#x20b1;" d="M75 0 l62 391 l-101 0 l6 37 l101 0 l18 114 l-101 0 l6 36 l101 0 l20 127 l152 0 q89 0 138 -34 q49 -34 61 -102 l-12 9 l112 0 l-6 -36 l-105 0 l15 4 q2 -31 -3.5 -64 q-5.5 -33 -16.5 -62 l-12 8 l104 0 l-6 -37 l-111 0 l17 9 q-30 -64 -88 -99.5 q-58 -35.5 -142 -35.5 l-125 0 l-42 -265 l-42 0 ZM165 304 l112 0 q96 0 150.5 44.5 q54.5 44.5 67.5 127.5 q10 66 -4 108 q-14 42 -53 62 q-39 20 -104 20 l-112 0 l-57 -362 Z" /><glyph glyph-name="uni20BD" unicode="&#x20bd;" d="M75 0 l25 156 l-101 0 l5 36 l101 0 l18 114 l-101 0 l6 36 l101 0 l58 363 l212 0 q77 0 126.5 -24.5 q49.5 -24.5 69.5 -70 q20 -45.5 10 -110.5 q-10 -64 -43.5 -107 q-33.5 -43 -84.5 -65 q-51 -22 -112 -22 l-200 0 l-18 -114 l189 0 l-5 -36 l-189 0 l-25 -156 l-42 0 ZM171 342 l183 0 q90 0 143 38.5 q53 38.5 67 124.5 q13 79 -27.5 120 q-40.5 41 -132.5 41 l-182 0 l-51 -324 Z" /><glyph glyph-name="uni20B9" unicode="&#x20b9;" d="M428 0 l-111 226 q-25 50 -54.5 69 q-29.5 19 -87.5 19 l-144 0 l6 39 l210 0 q102 0 157.5 43 q55.5 43 65.5 128 l8 -7 l-415 0 l6 36 l415 0 l-13 -10 q2 62 -40 94 q-42 32 -124 32 l-220 0 l6 36 l557 0 l-6 -36 l-233 0 l13 10 q47 -20 69 -55 q22 -35 20 -82 l-10 11 l123 0 l-6 -36 l-120 0 l12 8 q-6 -64 -39.5 -111 q-33.5 -47 -86.5 -72 q-53 -25 -121 -25 l-19 8 l6 0 q32 0 57.5 -18.5 q25.5 -18.5 47.5 -65.5 l119 -241 l-48 0 Z" /><glyph glyph-name="sterling" unicode="£" d="M9 0 l5 33 q57 23 93.5 54.5 q36.5 31.5 43.5 79.5 l27 169 l-116 0 l6 36 l116 0 l24 150 q16 97 73.5 144 q57.5 47 151.5 47 q59 0 105 -18.5 q46 -18.5 77 -56.5 l-24 -32 q-30 32 -65.5 49 q-35.5 17 -93.5 17 q-78 0 -123.5 -38 q-45.5 -38 -59.5 -120 l-23 -142 l199 0 l-6 -36 l-199 0 l-24 -150 q-10 -64 -42.5 -100 q-32.5 -36 -77.5 -53 l1 6 l448 0 l-6 -39 l-510 0 Z" /><glyph glyph-name="uni20B8" unicode="&#x20b8;" d="M239 0 l82 519 l-261 0 l6 36 l564 0 l-6 -36 l-261 0 l-82 -519 l-42 0 ZM84 669 l6 36 l564 0 l-6 -36 l-564 0 Z" /><glyph glyph-name="uni20AE" unicode="&#x20ae;" d="M239 0 l37 232 l-168 -87 l6 40 l168 87 l20 124 l-168 -87 l6 40 l168 87 l36 230 l-261 0 l7 39 l564 0 l-7 -39 l-261 0 l-32 -205 l168 87 l-7 -40 l-167 -87 l-20 -124 l168 87 l-7 -40 l-167 -87 l-41 -257 l-42 0 Z" /><glyph glyph-name="uni20A9" unicode="&#x20a9;" d="M114 0 l6 262 l-105 0 l6 36 l101 0 l3 114 l-86 0 l6 36 l81 0 l8 257 l38 0 l-26 -687 l-14 0 l222 687 l34 0 l4 -687 l-14 0 l193 687 l39 0 l-74 -257 l81 0 l-6 -36 l-86 0 l-33 -114 l101 0 l-6 -36 l-105 0 l-76 -262 l-46 0 l-6 669 l24 0 l-218 -669 l-46 0 Z" /><glyph glyph-name="yen" unicode="¥" d="M239 0 l30 189 l-203 0 l6 36 l203 0 l18 114 l-203 0 l5 36 l179 0 l-1 -7 l-196 337 l47 0 l198 -343 l-15 0 l307 343 l53 0 l-302 -337 l1 7 l177 0 l-5 -36 l-203 0 l-18 -114 l203 0 l-6 -36 l-203 0 l-30 -189 l-42 0 Z" /><glyph glyph-name="periodcentered" unicode="&#x2219;" d="M262 230 l11 70 l69 0 l-11 -70 l-69 0 Z" /><glyph glyph-name="uni2052" unicode="&#x2052;" d="M146 -52 l-42 0 l383 796 l42 0 l-383 -796 ZM369 55 l11 70 l69 0 l-11 -70 l-69 0 ZM183 580 l11 70 l69 0 l-11 -70 l-69 0 Z" /><glyph glyph-name="fraction" unicode="&#x2215;" d="M131 -52 l-42 0 l384 796 l42 0 l-384 -796 Z" /><glyph glyph-name="plus" unicode="+" d="M247 40 l36 227 l-229 0 l6 39 l229 0 l35 222 l40 0 l-35 -222 l227 0 l-6 -39 l-227 0 l-36 -227 l-40 0 Z" /><glyph glyph-name="minus" unicode="&#x2212;" d="M54 267 l6 39 l496 0 l-6 -39 l-496 0 Z" /><glyph glyph-name="multiply" unicode="×" d="M91 49 l-28 28 l226 209 l-186 204 l28 28 l188 -206 l224 206 l28 -28 l-226 -208 l186 -205 l-28 -28 l-188 206 l-224 -206 Z" /><glyph glyph-name="divide" unicode="÷" d="M54 267 l6 39 l496 0 l-6 -39 l-496 0 ZM227 51 l12 70 l70 0 l-12 -70 l-70 0 ZM291 452 l11 70 l70 0 l-11 -70 l-70 0 Z" /><glyph glyph-name="equal" unicode="=" d="M70 367 l6 39 l495 0 l-6 -39 l-495 0 ZM39 168 l6 39 l495 0 l-6 -39 l-495 0 Z" /><glyph glyph-name="notequal" unicode="&#x2260;" d="M172 29 l-32 22 l68 117 l-169 0 l6 39 l185 0 l93 160 l-253 0 l6 39 l270 0 l80 139 l32 -22 l-68 -117 l181 0 l-6 -39 l-197 0 l-93 -160 l265 0 l-6 -39 l-282 0 l-80 -139 Z" /><glyph glyph-name="greater" unicode="&gt;" d="M19 37 l7 46 l501 217 l-4 -22 l-432 218 l7 41 l458 -232 l-6 -36 l-531 -232 Z" /><glyph glyph-name="less" unicode="&lt;" d="M512 37 l-458 232 l6 36 l531 232 l-7 -46 l-501 -218 l4 22 l432 -217 l-7 -41 Z" /><glyph glyph-name="greaterequal" unicode="&#x2265;" d="M29 107 l7 47 l487 179 l-4 -22 l-429 179 l7 43 l464 -195 l-6 -36 l-526 -195 ZM12 0 l6 39 l495 0 l-6 -39 l-495 0 Z" /><glyph glyph-name="lessequal" unicode="&#x2264;" d="M523 107 l-463 195 l6 36 l525 195 l-7 -47 l-486 -179 l4 22 l428 -179 l-7 -43 ZM12 0 l6 39 l494 0 l-6 -39 l-494 0 Z" /><glyph glyph-name="plusminus" unicode="±" d="M260 117 l29 186 l-229 0 l6 39 l230 0 l29 186 l40 0 l-29 -186 l223 0 l-4 -39 l-226 0 l-29 -186 l-40 0 ZM12 0 l6 39 l495 0 l-6 -39 l-495 0 Z" /><glyph glyph-name="approxequal" unicode="&#x2248;" d="M440 324 q-36 0 -68.5 15 q-32.5 15 -60.5 31 q-28 17 -52.5 29 q-24.5 12 -49.5 12 q-37 0 -62.5 -21 q-25.5 -21 -42.5 -48 l-33 19 q27 44 58.5 66.5 q31.5 22.5 76.5 22.5 q36 0 70 -15 q34 -15 62 -32 q28 -16 51 -28 q23 -12 48 -12 q38 0 63.5 21 q25.5 21 41.5 48 l33 -19 q-27 -43 -57.5 -66 q-30.5 -23 -77.5 -23 ZM408 124 q-36 0 -68.5 15 q-32.5 15 -60.5 31 q-28 17 -52.5 29 q-24.5 12 -49.5 12 q-37 0 -62.5 -21 q-25.5 -21 -42.5 -48 l-33 19 q27 44 58.5 66.5 q31.5 22.5 76.5 22.5 q36 0 70 -15 q34 -15 62 -32 q28 -16 51 -28 q23 -12 48 -12 q38 0 63.5 21 q25.5 21 41.5 48 l33 -19 q-27 -43 -58.5 -66 q-31.5 -23 -76.5 -23 Z" /><glyph glyph-name="asciitilde" unicode="~" d="M423 224 q-36 0 -68.5 15 q-32.5 15 -60.5 31 q-28 17 -52.5 29 q-24.5 12 -49.5 12 q-37 0 -62.5 -21 q-25.5 -21 -42.5 -48 l-33 19 q27 44 58.5 66.5 q31.5 22.5 76.5 22.5 q36 0 70 -15 q34 -15 62 -32 q28 -16 51 -28 q23 -12 48 -12 q38 0 63.5 21 q25.5 21 41.5 48 l33 -19 q-27 -43 -58.5 -66 q-31.5 -23 -76.5 -23 Z" /><glyph glyph-name="logicalnot" unicode="¬" d="M493 157 l34 213 l-456 0 l6 39 l496 0 l-40 -252 l-40 0 Z" /><glyph glyph-name="asciicircum" unicode="^" d="M29 140 l312 488 l36 0 l158 -488 l-39 0 l-150 459 l22 0 l-294 -459 l-45 0 Z" /><glyph glyph-name="emptyset" unicode="&#x2205;" d="M89 -28 l-44 29 l76 102 q-47 38 -75.5 93 q-28.5 55 -28.5 121 q0 56 22.5 107 q22.5 51 62.5 91 q40 40 94 63 q54 23 118 23 q42 0 83 -11.5 q41 -11.5 76 -33.5 l76 100 l43 -32 l-76 -100 q42 -37 67.5 -90.5 q25.5 -53.5 25.5 -116.5 q0 -58 -23 -109 q-23 -51 -63.5 -90 q-40.5 -39 -94 -61 q-53.5 -22 -114.5 -22 q-40 0 -78 10.5 q-38 10.5 -71 28.5 l-76 -102 ZM148 138 l297 383 q-28 17 -61 26.5 q-33 9.5 -70 9.5 q-69 0 -124.5 -31.5 q-55.5 -31.5 -88 -85.5 q-32.5 -54 -32.5 -123 q0 -53 21 -99.5 q21 -46.5 58 -79.5 ZM314 76 q66 0 121.5 31 q55.5 31 89 85.5 q33.5 54.5 33.5 124.5 q0 50 -19 94 q-19 44 -51 77 l-296 -381 q26 -14 57 -22.5 q31 -8.5 65 -8.5 Z" /><glyph glyph-name="infinity" unicode="&#x221e;" d="M162 161 q-54 0 -84.5 33 q-30.5 33 -30.5 77 q0 36 17 67 q17 31 48 50 q31 19 72 19 q33 0 68 -20 q35 -20 56 -62 q26 42 66 62 q40 20 73 20 q56 0 86.5 -33 q30.5 -33 30.5 -77 q0 -35 -17 -66.5 q-17 -31.5 -48.5 -50.5 q-31.5 -19 -73.5 -19 q-33 0 -67 20 q-34 20 -54 62 q-27 -42 -68 -62 q-41 -20 -74 -20 ZM164 197 q17 0 37.5 6 q20.5 6 43 24.5 q22.5 18.5 43.5 57.5 q-14 38 -33 56.5 q-19 18.5 -38.5 24 q-19.5 5.5 -36.5 5.5 q-40 0 -66 -28.5 q-26 -28.5 -26 -68.5 q0 -32 20 -54.5 q20 -22.5 56 -22.5 ZM429 197 q42 0 68 28.5 q26 28.5 26 68.5 q0 32 -20 54.5 q-20 22.5 -58 22.5 q-17 0 -37 -5.5 q-20 -5.5 -41.5 -24 q-21.5 -18.5 -42.5 -56.5 q14 -39 32 -57.5 q18 -18.5 37 -24.5 q19 -6 36 -6 Z" /><glyph glyph-name="integral" unicode="&#x222b;" d="M150 -184 q-16 0 -34.5 4 q-18.5 4 -29.5 8 l6 40 q11 -4 27 -8.5 q16 -4.5 35 -4.5 q36 0 58.5 20 q22.5 20 29.5 69 l103 654 q10 62 46 92 q36 30 88 30 q16 0 35 -3.5 q19 -3.5 29 -8.5 l-6 -40 q-9 4 -25.5 8.5 q-16.5 4.5 -36.5 4.5 q-36 0 -58.5 -20.5 q-22.5 -20.5 -30.5 -69.5 l-103 -653 q-10 -62 -46 -92 q-36 -30 -87 -30 Z" /><glyph glyph-name="Omega" unicode="&#x2126;" d="M3 0 l6 38 l184 0 l-2 -16 q-58 69 -90.5 141.5 q-32.5 72.5 -32.5 157.5 q0 74 19.5 143.5 q19.5 69.5 57 126 q37.5 56.5 92 89.5 q54.5 33 123.5 33 q71 0 120 -30.5 q49 -30.5 74.5 -85 q25.5 -54.5 25.5 -125.5 q0 -92 -28 -177.5 q-28 -85.5 -81 -156 q-53 -70.5 -129 -116.5 l2 16 l181 0 l-6 -38 l-207 0 l6 36 q53 39 93.5 88 q40.5 49 68 105.5 q27.5 56.5 41.5 118.5 q14 62 14 128 q0 90 -44.5 143 q-44.5 53 -132.5 53 q-60 0 -106 -31 q-46 -31 -76.5 -83 q-30.5 -52 -46.5 -115 q-16 -63 -16 -126 q0 -49 11.5 -95 q11.5 -46 34.5 -91.5 q23 -45.5 58 -94.5 l-6 -36 l-208 0 Z" /><glyph glyph-name="Delta" unicode="&#x2206;" d="M-4 0 l5 29 l351 676 l40 0 l137 -676 l-5 -29 l-528 0 ZM364 649 l-331 -641 l5 31 l462 0 l-5 -31 l-129 641 l-2 0 Z" /><glyph glyph-name="product" unicode="&#x220f;" d="M-21 -180 l140 885 l504 0 l-140 -885 l-42 0 l134 846 l-420 0 l-134 -846 l-42 0 Z" /><glyph glyph-name="radical" unicode="&#x221a;" d="M197 -180 l-101 455 l25 -11 l-116 0 l6 39 l123 0 l97 -460 l-28 0 l430 915 l46 0 l-446 -938 l-36 0 Z" /><glyph glyph-name="mu" unicode="µ" d="M13 -216 l111 716 l42 0 l-47 -306 q-13 -84 15.5 -123.5 q28.5 -39.5 93.5 -39.5 q84 0 134 53 q50 53 63 141 l42 275 l42 0 l-77 -500 l-41 0 l19 121 l11 0 q-25 -59 -75.5 -94 q-50.5 -35 -118.5 -35 q-50 0 -86.5 19 q-36.5 19 -53.5 56 l8 2 l-40 -285 l-42 0 Z" /><glyph glyph-name="partialdiff" unicode="&#x2202;" d="M275 -8 q-59 0 -107.5 24 q-48.5 24 -77 69.5 q-28.5 45.5 -28.5 108.5 q0 59 18.5 109.5 q18.5 50.5 52.5 89.5 q34 39 82 60.5 q48 21.5 108 21.5 q75 0 129 -33 q54 -33 69 -98 l-11 0 q9 73 0 138 q-9 65 -37.5 114.5 q-28.5 49.5 -79 78 q-50.5 28.5 -123.5 28.5 l-52 0 l5 32 q13 2 26.5 3.5 q13.5 1.5 31.5 1.5 q67 0 118.5 -24.5 q51.5 -24.5 86 -68.5 q34.5 -44 52.5 -103 q18 -59 18 -128 q0 -114 -23.5 -194.5 q-23.5 -80.5 -64 -131.5 q-40.5 -51 -90.5 -74.5 q-50 -23.5 -103 -23.5 ZM275 31 q48 0 89 21.5 q41 21.5 71 58 q30 36.5 47 82.5 q17 46 17 95 q0 69 -48 108.5 q-48 39.5 -125 39.5 q-68 0 -117.5 -31.5 q-49.5 -31.5 -76.5 -85 q-27 -53.5 -27 -120.5 q0 -74 45 -121 q45 -47 125 -47 Z" /><glyph glyph-name="percent" unicode="%" d="M237 0 l-46 0 l530 705 l46 0 l-530 -705 ZM242 281 q-78 0 -118.5 58.5 q-40.5 58.5 -23.5 167.5 q15 95 65.5 150 q50.5 55 126.5 55 q78 0 118 -58.5 q40 -58.5 23 -166.5 q-15 -96 -64.5 -151 q-49.5 -55 -126.5 -55 ZM242 318 q59 0 98 45.5 q39 45.5 53 133.5 q14 85 -14.5 131.5 q-28.5 46.5 -87.5 46.5 q-58 0 -96.5 -45.5 q-38.5 -45.5 -52.5 -132.5 q-13 -85 14.5 -132 q27.5 -47 85.5 -47 ZM666 -8 q-78 0 -118.5 58.5 q-40.5 58.5 -22.5 167.5 q15 95 65 150 q50 55 126 55 q78 0 118.5 -58.5 q40.5 -58.5 23.5 -166.5 q-16 -96 -65.5 -151 q-49.5 -55 -126.5 -55 ZM667 29 q59 0 97.5 45.5 q38.5 45.5 52.5 133.5 q14 85 -14.5 131.5 q-28.5 46.5 -87.5 46.5 q-58 0 -96.5 -45.5 q-38.5 -45.5 -52.5 -132.5 q-13 -85 15 -132 q28 -47 86 -47 Z" /><glyph glyph-name="perthousand" unicode="&#x2030;" d="M1064 -8 q-78 0 -118 58.5 q-40 58.5 -23 167.5 q15 95 65 150 q50 55 126 55 q78 0 119 -58.5 q41 -58.5 23 -166.5 q-16 -96 -65.5 -151 q-49.5 -55 -126.5 -55 ZM1065 29 q59 0 97.5 45.5 q38.5 45.5 52.5 133.5 q14 85 -14.5 131.5 q-28.5 46.5 -87.5 46.5 q-58 0 -96.5 -45.5 q-38.5 -45.5 -52.5 -132.5 q-13 -85 15 -132 q28 -47 86 -47 ZM191 0 l530 705 l46 0 l-530 -705 l-46 0 ZM242 281 q-78 0 -118.5 58.5 q-40.5 58.5 -23.5 167.5 q15 95 65.5 150 q50.5 55 126.5 55 q78 0 118 -58.5 q40 -58.5 23 -166.5 q-15 -96 -64.5 -151 q-49.5 -55 -126.5 -55 ZM242 318 q59 0 98 45.5 q39 45.5 53 133.5 q14 85 -14.5 131.5 q-28.5 46.5 -87.5 46.5 q-58 0 -96.5 -45.5 q-38.5 -45.5 -52.5 -132.5 q-13 -85 14.5 -132 q27.5 -47 85.5 -47 ZM666 -8 q-78 0 -118 58.5 q-40 58.5 -23 167.5 q15 95 65 150 q50 55 126 55 q78 0 119 -58.5 q41 -58.5 23 -166.5 q-16 -96 -65.5 -151 q-49.5 -55 -126.5 -55 ZM667 29 q59 0 97.5 45.5 q38.5 45.5 52.5 133.5 q14 85 -14.5 131.5 q-28.5 46.5 -87.5 46.5 q-58 0 -96.5 -45.5 q-38.5 -45.5 -52.5 -132.5 q-13 -85 15 -132 q28 -47 86 -47 Z" /><glyph glyph-name="lozenge" unicode="&#x25ca;" d="M210 -200 l-155 489 l306 469 l36 0 l155 -487 l-306 -471 l-36 0 ZM233 -153 l277 428 l-136 436 l-277 -427 l136 -437 Z" /><glyph glyph-name="uniF8FF" unicode="&#xf8ff;" d="M158 1 l71 225 l-191 144 l237 0 l74 225 l77 -225 l238 0 l-192 -144 l71 -225 l-194 135 l-191 -135 ZM284 199 l28 0 l0 87 l-5 -2 l34 -64 l23 0 l35 64 l-5 2 l0 -87 l28 0 l0 131 l-27 0 l-45 -86 l7 0 l-46 86 l-27 0 l0 -131 Z" /><glyph glyph-name="at" unicode="@" d="M508 -162 q-95 0 -173.5 30.5 q-78.5 30.5 -136 87.5 q-57.5 57 -88.5 138 q-31 81 -31 183 q0 96 33 176 q33 80 92.5 138.5 q59.5 58.5 139.5 90 q80 31.5 174 31.5 q85 0 157 -26.5 q72 -26.5 125.5 -75.5 q53.5 -49 83.5 -116 q30 -67 30 -149 q0 -87 -27 -151.5 q-27 -64.5 -72.5 -100 q-45.5 -35.5 -102.5 -35.5 q-58 0 -86 35.5 q-28 35.5 -18 93.5 l8 -19 q-26 -52 -71.5 -81 q-45.5 -29 -93.5 -29 q-75 0 -116.5 47 q-41.5 47 -41.5 130 q0 74 28.5 132 q28.5 58 78 91 q49.5 33 111.5 33 q56 0 91.5 -27.5 q35.5 -27.5 44.5 -75.5 l-7 0 l16 95 l42 0 l-47 -275 q-2 -11 -3 -21.5 q-1 -10.5 -1 -19.5 q0 -36 17 -54 q17 -18 51 -18 q43 0 79 31 q36 31 58.5 87.5 q22.5 56.5 22.5 131.5 q0 72 -27 132.5 q-27 60.5 -76 104 q-49 43.5 -114 67.5 q-65 24 -141 24 q-85 0 -157.5 -28.5 q-72.5 -28.5 -126 -81.5 q-53.5 -53 -83 -125.5 q-29.5 -72.5 -29.5 -161.5 q0 -125 49 -214.5 q49 -89.5 136 -137.5 q87 -48 202 -48 q86 0 154.5 28.5 q68.5 28.5 110.5 79.5 l27 -32 q-49 -55 -124.5 -85 q-75.5 -30 -167.5 -30 ZM452 98 q50 0 89.5 30 q39.5 30 62.5 82 q23 52 23 117 q0 64 -28.5 95 q-28.5 31 -87.5 31 q-49 0 -89 -28 q-40 -28 -63 -77 q-23 -49 -23 -112 q0 -67 30.5 -102.5 q30.5 -35.5 85.5 -35.5 Z" /><glyph glyph-name="ampersand" unicode="&amp;" d="M605 -8 q-43 26 -75 58.5 q-32 32.5 -51 59.5 l17 0 q-52 -56 -117 -87 q-65 -31 -136 -31 q-69 0 -114.5 23.5 q-45.5 23.5 -65 64.5 q-19.5 41 -11.5 93 q10 62 55.5 106.5 q45.5 44.5 120.5 90.5 l50 31 l-7 -8 q-41 56 -57 97 q-16 41 -8 92 q6 37 27.5 66.5 q21.5 29.5 57.5 47 q36 17.5 84 17.5 q41 0 73.5 -16.5 q32.5 -16.5 49.5 -46.5 q17 -30 10 -73 q-5 -33 -23.5 -63.5 q-18.5 -30.5 -57 -62.5 q-38.5 -32 -106.5 -72 l-3 17 l172 -236 l-6 0 q32 42 58 106.5 q26 64.5 39 137.5 l42 0 q-16 -84 -46 -154.5 q-30 -70.5 -67 -123.5 l-7 18 q20 -28 53.5 -61.5 q33.5 -33.5 73.5 -57.5 l-25 -33 ZM245 31 q69 0 125.5 28.5 q56.5 28.5 101.5 82.5 l-2 -18 l-185 249 l16 -4 l-51 -32 q-71 -44 -109.5 -79 q-38.5 -35 -46.5 -86 q-10 -65 28.5 -103 q38.5 -38 122.5 -38 ZM375 674 q-52 0 -86 -27.5 q-34 -27.5 -41 -68.5 q-4 -29 -1 -52 q3 -23 17 -48.5 q14 -25.5 42 -64.5 l-10 -4 q85 50 124 87.5 q39 37.5 46 79.5 q8 44 -17.5 71 q-25.5 27 -73.5 27 Z" /><glyph glyph-name="paragraph" unicode="¶" d="M179 -180 l81 515 q-52 0 -89 21 q-37 21 -57 57.5 q-20 36.5 -20 80.5 q0 63 28 110.5 q28 47.5 77.5 74 q49.5 26.5 113.5 26.5 l231 0 l-140 -885 l-42 0 l134 847 l-141 0 l-134 -847 l-42 0 Z" /><glyph glyph-name="section" unicode="§" d="M184 -188 q-70 0 -120.5 17.5 q-50.5 17.5 -82.5 48.5 l24 33 q21 -21 47.5 -34 q26.5 -13 59 -19.5 q32.5 -6.5 71.5 -6.5 q81 0 126.5 42.5 q45.5 42.5 45.5 102.5 q0 46 -21 71.5 q-21 25.5 -68 54.5 l-91 56 q-58 36 -89.5 74.5 q-31.5 38.5 -31.5 82.5 q0 39 22 77 q22 38 62 66 l-2 -10 q-6 16 -8.5 31.5 q-2.5 15.5 -2.5 31.5 q0 53 29 94 q29 41 78 64.5 q49 23.5 109 23.5 q57 0 105.5 -16 q48.5 -16 80.5 -52 l-22 -32 q-25 29 -70 45 q-45 16 -93 16 q-82 0 -127.5 -42.5 q-45.5 -42.5 -45.5 -102.5 q0 -46 20 -73.5 q20 -27.5 69 -56.5 l87 -52 q62 -37 93 -75 q31 -38 31 -82 q0 -39 -21.5 -77.5 q-21.5 -38.5 -62.5 -65.5 l2 11 q7 -15 9.5 -31 q2.5 -16 2.5 -33 q0 -53 -29 -94 q-29 -41 -77.5 -64.5 q-48.5 -23.5 -108.5 -23.5 ZM96 340 q0 -37 26.5 -66 q26.5 -29 76.5 -61 l77 -49 q35 -22 61 -42.5 q26 -20.5 41 -45.5 l-9 3 q29 23 44 52 q15 29 15 54 q0 37 -27 65.5 q-27 28.5 -80 61.5 l-72 45 q-34 22 -60.5 43 q-26.5 21 -41.5 46 l8 -1 q-29 -22 -44 -50.5 q-15 -28.5 -15 -54.5 Z" /><glyph glyph-name="copyright" unicode="©" d="M429 -8 q-76 0 -142 27.5 q-66 27.5 -115 76.5 q-49 49 -76.5 115 q-27.5 66 -27.5 142 q0 77 27.5 142.5 q27.5 65.5 76.5 114 q49 48.5 114.5 76 q65.5 27.5 142.5 27.5 q77 0 142.5 -27.5 q65.5 -27.5 114 -76 q48.5 -48.5 76 -114 q27.5 -65.5 27.5 -142.5 q0 -76 -27.5 -142 q-27.5 -66 -76 -115 q-48.5 -49 -114 -76.5 q-65.5 -27.5 -142.5 -27.5 ZM438 137 q-94 0 -147 60.5 q-53 60.5 -53 158.5 q0 98 53 155 q53 57 147 57 q40 0 78 -15.5 q38 -15.5 63 -41.5 l-18 -32 q-29 28 -61.5 39.5 q-32.5 11.5 -62.5 11.5 q-74 0 -116 -46 q-42 -46 -42 -129 q0 -82 42 -131 q42 -49 116 -49 q30 0 62.5 12 q32.5 12 61.5 40 l18 -33 q-25 -26 -64 -41.5 q-39 -15.5 -77 -15.5 ZM429 28 q68 0 127 24.5 q59 24.5 103 69 q44 44.5 68.5 103.5 q24.5 59 24.5 128 q0 69 -24.5 128 q-24.5 59 -68.5 103 q-44 44 -103 68.5 q-59 24.5 -127 24.5 q-69 0 -128 -24.5 q-59 -24.5 -103 -68.5 q-44 -44 -68.5 -103 q-24.5 -59 -24.5 -128 q0 -69 24.5 -128 q24.5 -59 68.5 -103.5 q44 -44.5 103 -69 q59 -24.5 128 -24.5 Z" /><glyph glyph-name="registered" unicode="®" d="M429 -8 q-76 0 -142 27.5 q-66 27.5 -115 76.5 q-49 49 -76.5 115 q-27.5 66 -27.5 142 q0 77 27.5 142.5 q27.5 65.5 76.5 114 q49 48.5 114.5 76 q65.5 27.5 142.5 27.5 q77 0 142.5 -27.5 q65.5 -27.5 114 -76 q48.5 -48.5 76 -114 q27.5 -65.5 27.5 -142.5 q0 -76 -27.5 -142 q-27.5 -66 -76 -115 q-48.5 -49 -114 -76.5 q-65.5 -27.5 -142.5 -27.5 ZM429 28 q68 0 127 24.5 q59 24.5 103 69 q44 44.5 68.5 103.5 q24.5 59 24.5 128 q0 69 -24.5 128 q-24.5 59 -68.5 103 q-44 44 -103 68.5 q-59 24.5 -127 24.5 q-69 0 -128 -24.5 q-59 -24.5 -103 -68.5 q-44 -44 -68.5 -103 q-24.5 -59 -24.5 -128 q0 -69 24.5 -128 q24.5 -59 68.5 -103.5 q44 -44.5 103 -69 q59 -24.5 128 -24.5 ZM294 142 l0 421 l162 0 q65 0 100 -31 q35 -31 35 -89 q0 -57 -35.5 -87.5 q-35.5 -30.5 -100.5 -30.5 l3 9 q29 0 49.5 -12 q20.5 -12 32.5 -41 l57 -139 l-43 0 l-56 134 q-12 28 -33.5 37.5 q-21.5 9.5 -52.5 9.5 l-88 0 l11 9 l0 -190 l-41 0 ZM335 360 l116 0 q50 0 74.5 20 q24.5 20 24.5 63 q0 42 -24 62.5 q-24 20.5 -75 20.5 l-116 0 l0 -166 Z" /><glyph glyph-name="trademark" unicode="&#x2122;" d="M160 284 l61 385 l-151 0 l6 36 l342 0 l-6 -36 l-151 0 l-61 -385 l-40 0 ZM419 284 l67 421 l31 0 l122 -328 l-19 0 l226 328 l37 0 l-67 -421 l-39 0 l58 364 l16 0 l-208 -301 l-30 0 l-115 301 l18 0 l-58 -364 l-39 0 Z" /><glyph glyph-name="degree" unicode="°" d="M233 426 q-40 0 -72 19 q-32 19 -50.5 51 q-18.5 32 -18.5 72 q0 40 18.5 72 q18.5 32 50.5 51 q32 19 72 19 q40 0 71 -18.5 q31 -18.5 49.5 -50.5 q18.5 -32 18.5 -73 q0 -40 -18.5 -72.5 q-18.5 -32.5 -49.5 -51 q-31 -18.5 -71 -18.5 ZM233 466 q44 0 70.5 28.5 q26.5 28.5 26.5 73.5 q0 45 -26.5 73.5 q-26.5 28.5 -70.5 28.5 q-43 0 -70.5 -28.5 q-27.5 -28.5 -27.5 -73.5 q0 -45 27.5 -73.5 q27.5 -28.5 70.5 -28.5 Z" /><glyph glyph-name="minute" unicode="&#x2032;" d="M118 440 l29 265 l52 0 l-53 -265 l-28 0 Z" /><glyph glyph-name="bar" unicode="|" d="M34 -180 l140 885 l42 0 l-140 -885 l-42 0 Z" /><glyph glyph-name="brokenbar" unicode="¦" d="M121 372 l53 333 l42 0 l-53 -333 l-42 0 ZM34 -180 l53 333 l42 0 l-53 -333 l-42 0 Z" /><glyph glyph-name="dagger" unicode="&#x2020;" d="M121 157 l63 396 l-116 0 l5 32 l116 0 l19 120 l34 0 l-19 -120 l116 0 l-5 -32 l-116 0 l-63 -396 l-34 0 Z" /><glyph glyph-name="uni2113" unicode="&#x2113;" d="M278 -8 q-50 0 -71.5 32 q-21.5 32 -12.5 76 l29 183 l10 -3 l-82 -87 l-22 24 l101 109 l42 267 q8 53 36 86.5 q28 33.5 74 33.5 q30 0 52 -19 q22 -19 22 -57 q0 -49 -22.5 -97.5 q-22.5 -48.5 -58 -95.5 q-35.5 -47 -75.5 -94 l-32 -37 l-33 -205 q-4 -36 3.5 -57 q7.5 -21 41.5 -21 q20 0 42.5 9.5 q22.5 9.5 54.5 40.5 l18 -30 q-28 -31 -58 -44.5 q-30 -13.5 -59 -13.5 ZM278 377 q5 7 11 13.5 q6 6.5 11 13.5 q46 55 80.5 115.5 q34.5 60.5 34.5 115.5 q0 40 -33 40 q-28 0 -46 -23.5 q-18 -23.5 -24 -61.5 l-34 -213 Z" /><glyph glyph-name="daggerdbl" unicode="&#x2021;" d="M121 157 l19 120 l-116 0 l5 32 l116 0 l39 244 l-116 0 l5 32 l116 0 l19 120 l34 0 l-19 -120 l116 0 l-5 -32 l-116 0 l-39 -244 l116 0 l-5 -32 l-116 0 l-19 -120 l-34 0 Z" /><glyph glyph-name="estimated" unicode="&#x212e;" d="M467 -5 q-95 0 -169 28 q-74 28 -125 77 q-51 49 -77.5 112 q-26.5 63 -26.5 133 q0 70 27 135.5 q27 65.5 78.5 117 q51.5 51.5 124.5 82 q73 30.5 166 30.5 q115 0 191.5 -33 q76.5 -33 122 -88.5 q45.5 -55.5 65 -122.5 q19.5 -67 19.5 -135 l-643 0 q-5 0 -5 -6 l0 -172 q0 -7 1.5 -15.5 q1.5 -8.5 5.5 -13.5 q40 -48 102 -72.5 q62 -24.5 140 -24.5 q85 0 146.5 29 q61.5 29 112.5 78 l71 0 q-39 -47 -83.5 -78 q-44.5 -31 -103 -46 q-58.5 -15 -140.5 -15 ZM220 362 l492 0 q5 0 5 6 l0 188 q0 14 -10 26 q-34 41 -78 61.5 q-44 20.5 -88 28 q-44 7.5 -79 7.5 q-58 0 -121.5 -21 q-63.5 -21 -116.5 -74 q-9 -9 -9 -27 l0 -189 q0 -6 5 -6 Z" /><glyph glyph-name="uni2116" unicode="&#x2116;" d="M57 0 l112 705 l35 0 l383 -663 l-18 0 l105 663 l39 0 l-112 -705 l-34 0 l-383 663 l17 0 l-105 -663 l-39 0 ZM776 271 l6 36 l264 0 l-6 -36 l-264 0 ZM937 413 q-35 0 -63 15.5 q-28 15.5 -43.5 43 q-15.5 27.5 -15.5 63.5 q0 48 19.5 88.5 q19.5 40.5 55 65 q35.5 24.5 82.5 24.5 q36 0 63.5 -16 q27.5 -16 43 -44 q15.5 -28 15.5 -65 q0 -50 -20.5 -90 q-20.5 -40 -56 -62.5 q-35.5 -22.5 -80.5 -22.5 ZM938 444 q39 0 66 21 q27 21 40.5 55 q13.5 34 13.5 73 q0 89 -87 89 q-39 0 -66 -21.5 q-27 -21.5 -40.5 -55.5 q-13.5 -34 -13.5 -73 q0 -43 23 -65.5 q23 -22.5 64 -22.5 Z" /><glyph glyph-name="uni02BC" unicode="&#x2bc;" d="M192 575 l-23 20 q25 24 34 44.5 q9 20.5 12 39.5 l18 -6 l-51 0 l11 70 l69 0 l-10 -61 q-5 -32 -18 -57 q-13 -25 -42 -50 Z" /><glyph glyph-name="uni02BB" unicode="&#x2bb;" d="M265 570 l8 54 q5 34 22 64.5 q17 30.5 44 54.5 l23 -20 q-28 -26 -38.5 -48 q-10.5 -22 -14.5 -47 l-14 7 l50 0 l-10 -65 l-70 0 Z" /><glyph glyph-name="uni02C9" unicode="&#x2c9;" d="M170 633 l6 38 l280 0 l-6 -38 l-280 0 Z" /><glyph glyph-name="uni02CB" unicode="&#x2cb;" d="M329 549 l-140 200 l53 0 l123 -200 l-36 0 Z" /><glyph glyph-name="uni02BF" unicode="&#x2bf;" d="M299 556 q-38 2 -60.5 27 q-22.5 25 -22.5 59 q0 30 16 54 q16 24 42 37.5 q26 13.5 56 11.5 l-6 -36 q-28 2 -48 -17 q-20 -19 -20 -48 q0 -22 13 -36.5 q13 -14.5 36 -16.5 l-6 -35 Z" /><glyph glyph-name="uni02BE" unicode="&#x2be;" d="M298 556 l6 36 q28 -1 47.5 18 q19.5 19 19.5 47 q0 23 -13 37.5 q-13 14.5 -36 15.5 l6 35 q38 -2 60.5 -26.5 q22.5 -24.5 22.5 -59.5 q0 -30 -15.5 -54 q-15.5 -24 -41.5 -37.5 q-26 -13.5 -56 -11.5 Z" /><glyph glyph-name="uni02CA" unicode="&#x2ca;" d="M279 549 l122 200 l54 0 l-140 -200 l-36 0 Z" /><glyph glyph-name="uni02CC" unicode="&#x2cc;" d="M146 -270 l31 198 l42 0 l-31 -198 l-42 0 Z" /><glyph glyph-name="uni02C8" unicode="&#x2c8;" d="M283 596 l31 198 l42 0 l-31 -198 l-42 0 Z" /><glyph glyph-name="uni0308" unicode="&#x308;" d="M108 620 l9 60 l61 0 l-9 -60 l-61 0 ZM-53 620 l9 60 l61 0 l-9 -60 l-61 0 Z" /><glyph glyph-name="uni0307" unicode="&#x307;" d="M26 619 l10 63 l64 0 l-10 -63 l-64 0 Z" /><glyph glyph-name="gravecomb" unicode="&#x300;" d="M79 549 l-140 200 l53 0 l123 -200 l-36 0 Z" /><glyph glyph-name="acutecomb" unicode="&#x301;" d="M29 549 l135 200 l55 0 l-154 -200 l-36 0 Z" /><glyph glyph-name="uni030B" unicode="&#x30b;" d="M88 549 l76 200 l48 0 l-97 -200 l-27 0 ZM-21 549 l76 200 l48 0 l-97 -200 l-27 0 Z" /><glyph glyph-name="uni0302" unicode="&#x302;" d="M-86 549 l131 200 l48 0 l87 -200 l-34 0 l-79 161 l-117 -161 l-36 0 Z" /><glyph glyph-name="uni030C" unicode="&#x30c;" d="M33 549 l-87 200 l34 0 l79 -161 l117 161 l36 0 l-131 -200 l-48 0 Z" /><glyph glyph-name="uni0306" unicode="&#x306;" d="M62 547 q-41 0 -71.5 22.5 q-30.5 22.5 -46 64.5 q-15.5 42 -12.5 100 l33 4 q-4 -74 22.5 -114.5 q26.5 -40.5 75.5 -40.5 q50 0 82 40.5 q32 40.5 42 114.5 l33 -4 q-8 -58 -29.5 -100 q-21.5 -42 -54 -64.5 q-32.5 -22.5 -74.5 -22.5 Z" /><glyph glyph-name="uni030A" unicode="&#x30a;" d="M66 547 q-31 0 -56.5 15 q-25.5 15 -40.5 40 q-15 25 -15 55 q0 31 15 55.5 q15 24.5 40.5 39.5 q25.5 15 56.5 15 q32 0 57 -15 q25 -15 40 -39.5 q15 -24.5 15 -55.5 q0 -30 -15 -55 q-15 -25 -40 -40 q-25 -15 -57 -15 ZM66 579 q35 0 56.5 22.5 q21.5 22.5 21.5 55.5 q0 33 -21.5 55.5 q-21.5 22.5 -56.5 22.5 q-34 0 -56 -22.5 q-22 -22.5 -22 -55.5 q0 -33 22 -55.5 q22 -22.5 56 -22.5 Z" /><glyph glyph-name="tildecomb" unicode="&#x303;" d="M-81 595 l-32 2 q11 58 37.5 89.5 q26.5 31.5 66.5 31.5 q26 0 43.5 -15 q17.5 -15 32.5 -32 q14 -15 27.5 -26.5 q13.5 -11.5 29.5 -11.5 q52 0 71 87 l32 -2 q-10 -58 -37 -89.5 q-27 -31.5 -66 -31.5 q-25 0 -43.5 15 q-18.5 15 -33.5 32 q-13 15 -26.5 26.5 q-13.5 11.5 -30.5 11.5 q-52 0 -71 -87 Z" /><glyph glyph-name="uni0304" unicode="&#x304;" d="M-80 633 l6 38 l280 0 l-6 -38 l-280 0 Z" /><glyph glyph-name="hookabovecomb" unicode="&#x309;" d="M41 549 l3 20 q4 24 16 40 q12 16 26.5 28.5 q14.5 12.5 25 24.5 q10.5 12 10.5 28 q0 14 -11.5 21 q-11.5 7 -37.5 7 q-15 0 -31 -3.5 q-16 -3.5 -36 -12.5 l-6 32 q17 11 37.5 15.5 q20.5 4.5 42.5 4.5 q40 0 61.5 -15.5 q21.5 -15.5 21.5 -43.5 q0 -27 -11 -42.5 q-11 -15.5 -26 -26.5 q-15 -11 -28 -24.5 q-13 -13.5 -18 -37.5 l-3 -15 l-36 0 Z" /><glyph glyph-name="uni030F" unicode="&#x30f;" d="M102 549 l-61 200 l47 0 l41 -200 l-27 0 ZM-7 549 l-61 200 l47 0 l41 -200 l-27 0 Z" /><glyph glyph-name="uni0311" unicode="&#x311;" d="M-64 547 l-33 4 q9 59 30 100.5 q21 41.5 54 64 q33 22.5 74 22.5 q42 0 72 -22.5 q30 -22.5 45.5 -64 q15.5 -41.5 12.5 -100.5 l-33 -4 q5 74 -21.5 114.5 q-26.5 40.5 -76.5 40.5 q-49 0 -81.5 -40.5 q-32.5 -40.5 -42.5 -114.5 Z" /><glyph glyph-name="uni0312" unicode="&#x312;" d="M15 570 l10 61 q6 36 20.5 64 q14.5 28 41.5 48 l20 -22 q-27 -23 -35 -43.5 q-8 -20.5 -13 -49.5 l-13 7 l50 0 l-11 -65 l-70 0 Z" /><glyph glyph-name="uni031B" unicode="&#x31b;" d="M46 446 l-14 13 l4 25 q49 1 77 15 q28 14 42 40.5 q14 26.5 20 64.5 l2 12 l40 0 l-4 -27 q-10 -69 -52.5 -104.5 q-42.5 -35.5 -114.5 -38.5 Z" /><glyph glyph-name="dotbelowcomb" unicode="&#x323;" d="M-99 -172 l10 63 l64 0 l-10 -63 l-64 0 Z" /><glyph glyph-name="uni0324" unicode="&#x324;" d="M-18 -171 l10 60 l61 0 l-10 -60 l-61 0 ZM-179 -171 l10 60 l61 0 l-10 -60 l-61 0 Z" /><glyph glyph-name="uni0326" unicode="&#x326;" d="M-94 -259 l-20 22 q27 23 35 44 q8 21 13 49 l13 -7 l-50 0 l11 65 l70 0 l-10 -61 q-6 -36 -20.5 -64 q-14.5 -28 -41.5 -48 Z" /><glyph glyph-name="uni0327" unicode="&#x327;" d="M-63 -190 q-23 0 -43.5 5 q-20.5 5 -33.5 13 l12 34 q18 -9 33 -12.5 q15 -3.5 39 -3.5 q28 0 47 11.5 q19 11.5 19 33.5 q0 14 -9 22 q-9 8 -26 8 q-11 0 -23 -2 q-12 -2 -30 -8 l-13 13 l31 96 l38 0 l-25 -75 l-18 2 q13 3 24.5 5 q11.5 2 21.5 2 q29 0 49 -15.5 q20 -15.5 20 -44.5 q0 -37 -32 -60.5 q-32 -23.5 -81 -23.5 Z" /><glyph glyph-name="uni0328" unicode="&#x328;" d="M-77 -190 q-43 0 -66 24.5 q-23 24.5 -23 62.5 q0 44 28.5 79.5 q28.5 35.5 72.5 54.5 l18 -31 q-40 -16 -60 -43 q-20 -27 -20 -56 q0 -25 13.5 -40 q13.5 -15 41.5 -15 q12 0 25.5 3 q13.5 3 28.5 10 l9 -34 q-10 -5 -29 -10 q-19 -5 -39 -5 Z" /><glyph glyph-name="uni032E" unicode="&#x32e;" d="M-62 -215 q-62 0 -99 39 q-37 39 -34 108 l33 4 q-4 -55 24 -85 q28 -30 77 -30 q50 0 81 30 q31 30 40 85 l33 -4 q-10 -69 -51.5 -108 q-41.5 -39 -103.5 -39 Z" /><glyph glyph-name="uni0331" unicode="&#x331;" d="M-203 -148 l6 38 l280 0 l-6 -38 l-280 0 Z" /><glyph glyph-name="uni0335" unicode="&#x335;" d="M-125 522 l6 36 l334 0 l-6 -36 l-334 0 Z" /><glyph glyph-name="uni0337" unicode="&#x337;" d="M-96 283 l-17 35 l240 113 l17 -36 l-240 -112 Z" /><glyph glyph-name="uni0338" unicode="&#x338;" d="M237 -29 l-29 23 l381 524 l28 -22 l-380 -525 Z" /></font>
</defs>
</svg>
