<?xml version="1.0" standalone="no"?><!DOCTYPE svg PUBLIC "-//W3C//DTD SVG 1.1//EN" "http://www.w3.org/Graphics/SVG/1.1/DTD/svg11.dtd" ><svg xmlns="http://www.w3.org/2000/svg"><metadata></metadata><defs><font id="3.603;NONE;Mulish-Medium" horiz-adv-x="1343"><font-face font-family="Mulish Medium" font-weight="500" font-stretch="normal" units-per-em="1000" panose-1="0 0 0 0 0 0 0 0 0 0" ascent="1005" descent="-250" x-height="0" bbox="-256 -270 1299 1045" underline-thickness="44" underline-position="-85" unicode-range="U+0000-fb02" /><missing-glyph horiz-adv-x="500"  /><glyph glyph-name="A" unicode="A" d="M14 0 l312 705 l81 0 l317 -705 l-96 0 l-87 200 l40 -24 l-429 0 l44 24 l-87 -200 l-95 0 ZM365 601 l-156 -370 l-24 21 l363 0 l-19 -21 l-160 370 l-4 0 Z" /><glyph glyph-name="AE" unicode="Æ" d="M-6 0 l433 705 l533 0 l0 -76 l-394 0 l22 23 l25 -281 l-18 25 l344 0 l0 -76 l-338 0 l15 10 l25 -278 l-12 24 l331 0 l0 -76 l-401 0 l-17 196 l26 -20 l-381 0 l31 25 l-122 -201 l-102 0 ZM473 628 l-238 -398 l-10 22 l323 0 l-8 -24 l-36 400 l-31 0 Z" /><glyph glyph-name="B" unicode="B" d="M86 0 l0 705 l287 0 q114 0 175 -48 q61 -48 61 -135 q0 -66 -39.5 -110 q-39.5 -44 -107.5 -59 l0 15 q78 -9 121.5 -54 q43.5 -45 43.5 -119 q0 -94 -63 -144.5 q-63 -50.5 -178 -50.5 l-300 0 ZM176 74 l201 0 q74 0 116.5 28.5 q42.5 28.5 42.5 94.5 q0 67 -42.5 95 q-42.5 28 -116.5 28 l-201 0 l0 -246 ZM176 394 l184 0 q79 0 118 30.5 q39 30.5 39 88.5 q0 58 -39 88.5 q-39 30.5 -118 30.5 l-184 0 l0 -238 Z" /><glyph glyph-name="uni0181" unicode="&#x181;" d="M220 0 l0 635 l-32 0 q-57 0 -83.5 -25.5 q-26.5 -25.5 -26.5 -79.5 l0 -46 l-79 0 l0 49 q0 87 48.5 129.5 q48.5 42.5 149.5 42.5 l311 0 q113 0 174 -48 q61 -48 61 -135 q0 -66 -39 -110 q-39 -44 -107 -59 l0 15 q77 -9 120.5 -54.5 q43.5 -45.5 43.5 -118.5 q0 -94 -63 -144.5 q-63 -50.5 -178 -50.5 l-300 0 ZM311 74 l200 0 q80 0 119.5 30 q39.5 30 39.5 93 q0 62 -39 92.5 q-39 30.5 -120 30.5 l-200 0 l0 -246 ZM311 394 l183 0 q78 0 117.5 30.5 q39.5 30.5 39.5 88.5 q0 58 -39.5 88.5 q-39.5 30.5 -117.5 30.5 l-183 0 l0 -238 Z" /><glyph glyph-name="C" unicode="C" d="M397 -9 q-106 0 -181.5 44 q-75.5 44 -115.5 125.5 q-40 81.5 -40 192.5 q0 111 40 192 q40 81 115.5 125 q75.5 44 181.5 44 q76 0 135 -22.5 q59 -22.5 103 -65.5 l-34 -75 q-48 42 -94.5 60.5 q-46.5 18.5 -107.5 18.5 q-117 0 -179 -72 q-62 -72 -62 -205 q0 -133 62 -205.5 q62 -72.5 179 -72.5 q61 0 107.5 18.5 q46.5 18.5 94.5 60.5 l34 -74 q-44 -43 -103.5 -66 q-59.5 -23 -134.5 -23 Z" /><glyph glyph-name="D" unicode="D" d="M86 0 l0 705 l239 0 q118 0 199.5 -41 q81.5 -41 123.5 -119.5 q42 -78.5 42 -191.5 q0 -113 -42 -192 q-42 -79 -123.5 -120 q-81.5 -41 -199.5 -41 l-239 0 ZM179 79 l139 0 q141 0 209 68 q68 68 68 206 q0 138 -68 205.5 q-68 67.5 -209 67.5 l-139 0 l0 -547 Z" /><glyph glyph-name="uni018A" unicode="&#x18a;" d="M220 0 l0 635 l-32 0 q-57 0 -83.5 -25.5 q-26.5 -25.5 -26.5 -79.5 l0 -46 l-79 0 l0 49 q0 87 48 129.5 q48 42.5 144 42.5 l269 0 q175 0 270 -90.5 q95 -90.5 95 -261.5 q0 -171 -95 -262 q-95 -91 -270 -91 l-240 0 ZM313 79 l140 0 q140 0 208.5 68 q68.5 68 68.5 206 q0 138 -68.5 205.5 q-68.5 67.5 -208.5 67.5 l-140 0 l0 -547 Z" /><glyph glyph-name="E" unicode="E" d="M86 0 l0 705 l456 0 l0 -76 l-366 0 l0 -233 l343 0 l0 -76 l-343 0 l0 -244 l366 0 l0 -76 l-456 0 Z" /><glyph glyph-name="F" unicode="F" d="M86 0 l0 705 l446 0 l0 -76 l-353 0 l0 -236 l330 0 l0 -76 l-330 0 l0 -317 l-93 0 Z" /><glyph glyph-name="G" unicode="G" d="M413 -9 q-116 0 -195 43.5 q-79 43.5 -118.5 124.5 q-39.5 81 -39.5 193 q0 112 42 193 q42 81 120.5 125 q78.5 44 188.5 44 q77 0 134 -22 q57 -22 102 -64 l-35 -74 q-32 28 -62 45 q-30 17 -62.5 24.5 q-32.5 7.5 -76.5 7.5 q-123 0 -188 -73 q-65 -73 -65 -207 q0 -136 63 -207 q63 -71 196 -71 q47 0 92 9 q45 9 86 26 l-19 -47 l0 239 l-177 0 l0 72 l257 0 l0 -330 q-45 -23 -111 -37 q-66 -14 -132 -14 Z" /><glyph glyph-name="H" unicode="H" d="M86 0 l0 705 l93 0 l0 -308 l410 0 l0 308 l94 0 l0 -705 l-94 0 l0 318 l-410 0 l0 -318 l-93 0 Z" /><glyph glyph-name="Hbar" unicode="&#x126;" d="M102 0 l0 518 l-92 0 l0 71 l92 0 l0 116 l93 0 l0 -116 l409 0 l0 116 l93 0 l0 -116 l92 0 l0 -71 l-92 0 l0 -518 l-93 0 l0 311 l-409 0 l0 -311 l-93 0 ZM195 391 l409 0 l0 127 l-409 0 l0 -127 Z" /><glyph glyph-name="I" unicode="I" d="M86 0 l0 705 l93 0 l0 -705 l-93 0 Z" /><glyph glyph-name="J" unicode="J" d="M82 -187 q-17 0 -38 2 q-21 2 -43 7 l0 76 q19 -4 36 -6 q17 -2 29 -2 q46 0 68.5 28 q22.5 28 22.5 89 l0 698 l94 0 l0 -699 q0 -63 -18 -106 q-18 -43 -55 -65 q-37 -22 -96 -22 Z" /><glyph glyph-name="K" unicode="K" d="M86 0 l0 705 l93 0 l0 -319 l2 0 l331 319 l117 0 l-384 -365 l1 45 l410 -385 l-121 0 l-354 331 l-2 0 l0 -331 l-93 0 Z" /><glyph glyph-name="L" unicode="L" d="M86 0 l0 705 l93 0 l0 -625 l351 0 l0 -80 l-444 0 Z" /><glyph glyph-name="M" unicode="M" d="M86 0 l0 705 l82 0 l278 -626 l-30 0 l278 626 l81 0 l0 -705 l-85 0 l0 581 l31 0 l-261 -581 l-59 0 l-261 581 l31 0 l0 -581 l-85 0 Z" /><glyph glyph-name="N" unicode="N" d="M86 0 l0 705 l72 0 l442 -584 l-24 0 l0 584 l87 0 l0 -705 l-71 0 l-442 584 l23 0 l0 -584 l-87 0 Z" /><glyph glyph-name="Eng" unicode="&#x14a;" d="M441 -193 l-7 69 l48 4 q46 4 70 30.5 q24 26.5 24 76.5 l0 54 l16 -41 l-442 584 l23 0 l0 -584 l-87 0 l0 705 l72 0 l442 -584 l-24 0 l0 584 l87 0 l0 -708 q0 -59 -19 -99.5 q-19 -40.5 -58 -62 q-39 -21.5 -100 -25.5 l-45 -3 Z" /><glyph glyph-name="O" unicode="O" d="M60 353 q0 111 39 192 q39 81 112.5 125 q73.5 44 175.5 44 q101 0 174.5 -44 q73.5 -44 113.5 -125 q40 -81 40 -191 q0 -111 -40 -192.5 q-40 -81.5 -113.5 -126 q-73.5 -44.5 -174.5 -44.5 q-102 0 -175 44.5 q-73 44.5 -112.5 126 q-39.5 81.5 -39.5 191.5 ZM158 353 q0 -132 58 -206 q58 -74 171 -74 q109 0 169.5 73.5 q60.5 73.5 60.5 206.5 q0 133 -60 206 q-60 73 -170 73 q-113 0 -171 -73 q-58 -73 -58 -206 Z" /><glyph glyph-name="Oslash" unicode="Ø" d="M60 353 q0 111 39 192 q39 81 112.5 125 q73.5 44 175.5 44 q101 0 174.5 -44 q73.5 -44 113.5 -125 q40 -81 40 -191 q0 -111 -40 -192.5 q-40 -81.5 -113.5 -126 q-73.5 -44.5 -174.5 -44.5 q-102 0 -175 44.5 q-73 44.5 -112.5 126 q-39.5 81.5 -39.5 191.5 ZM158 353 q0 -132 58 -206 q58 -74 171 -74 q109 0 169.5 73.5 q60.5 73.5 60.5 206.5 q0 133 -60 206 q-60 73 -170 73 q-113 0 -171 -73 q-58 -73 -58 -206 ZM254 47 l-56 -97 l-62 37 l56 96 l29 41 l289 494 l17 41 l56 96 l63 -37 l-56 -96 l-30 -41 l-288 -494 l-18 -40 Z" /><glyph glyph-name="OE" unicode="&#x152;" d="M556 0 l0 705 l452 0 l0 -76 l-362 0 l0 -233 l340 0 l0 -76 l-340 0 l0 -244 l362 0 l0 -76 l-452 0 ZM381 -9 q-100 0 -172 44.5 q-72 44.5 -110.5 126 q-38.5 81.5 -38.5 191.5 q0 111 38 192 q38 81 110 125 q72 44 173 44 q56 0 105 -12.5 q49 -12.5 85 -44.5 l0 -104 q-29 43 -75 61 q-46 18 -109 18 q-113 0 -171 -73 q-58 -73 -58 -206 q0 -132 58 -206 q58 -74 171 -74 q64 0 111.5 21 q47.5 21 76.5 66 l0 -102 q-24 -22 -54.5 -37 q-30.5 -15 -66 -22.5 q-35.5 -7.5 -73.5 -7.5 Z" /><glyph glyph-name="P" unicode="P" d="M86 0 l0 705 l292 0 q113 0 173 -54 q60 -54 60 -149 q0 -95 -60 -149.5 q-60 -54.5 -173 -54.5 l-199 0 l0 -298 l-93 0 ZM179 374 l190 0 q74 0 112 33.5 q38 33.5 38 94.5 q0 61 -38 94 q-38 33 -112 33 l-190 0 l0 -255 Z" /><glyph glyph-name="Thorn" unicode="Þ" d="M86 0 l0 705 l93 0 l0 -132 l197 0 q112 0 173.5 -54 q61.5 -54 61.5 -150 q0 -94 -61.5 -149 q-61.5 -55 -173.5 -55 l-197 0 l0 -165 l-93 0 ZM179 241 l191 0 q73 0 111 33.5 q38 33.5 38 94.5 q0 61 -38 94.5 q-38 33.5 -111 33.5 l-191 0 l0 -256 Z" /><glyph glyph-name="Q" unicode="Q" d="M577 -192 q-29 19 -60.5 49 q-31.5 30 -59 67 q-27.5 37 -47.5 75 l79 30 q26 -52 67.5 -94.5 q41.5 -42.5 84.5 -72.5 l-64 -54 ZM60 353 q0 111 39 192 q39 81 112.5 125 q73.5 44 175.5 44 q101 0 174.5 -44 q73.5 -44 113.5 -125 q40 -81 40 -191 q0 -111 -40 -192.5 q-40 -81.5 -113.5 -126 q-73.5 -44.5 -174.5 -44.5 q-102 0 -175 44.5 q-73 44.5 -112.5 126 q-39.5 81.5 -39.5 191.5 ZM158 353 q0 -132 58 -206 q58 -74 171 -74 q109 0 169.5 73.5 q60.5 73.5 60.5 206.5 q0 133 -60 206 q-60 73 -170 73 q-113 0 -171 -73 q-58 -73 -58 -206 Z" /><glyph glyph-name="R" unicode="R" d="M86 0 l0 705 l292 0 q113 0 174.5 -53 q61.5 -53 61.5 -148 q0 -63 -28 -107 q-28 -44 -78.5 -67 q-50.5 -23 -117.5 -23 l17 14 l24 0 q41 0 73 -20.5 q32 -20.5 53 -66.5 l100 -234 l-103 0 l-97 232 q-17 43 -49.5 56 q-32.5 13 -81.5 13 l-147 0 l0 -301 l-93 0 ZM179 373 l185 0 q77 0 117.5 33 q40.5 33 40.5 96 q0 62 -40.5 94.5 q-40.5 32.5 -117.5 32.5 l-185 0 l0 -256 Z" /><glyph glyph-name="S" unicode="S" d="M319 -9 q-85 0 -153 22 q-68 22 -118 62 l32 74 q35 -26 71 -43.5 q36 -17.5 77.5 -26 q41.5 -8.5 90.5 -8.5 q87 0 128.5 31.5 q41.5 31.5 41.5 83.5 q0 45 -29 69 q-29 24 -101 38 l-107 22 q-97 20 -144.5 65.5 q-47.5 45.5 -47.5 123.5 q0 63 33.5 110.5 q33.5 47.5 93 73.5 q59.5 26 139.5 26 q74 0 137 -22 q63 -22 106 -65 l-32 -71 q-45 41 -96.5 59.5 q-51.5 18.5 -116.5 18.5 q-79 0 -125 -34 q-46 -34 -46 -92 q0 -46 29 -72.5 q29 -26.5 96 -40.5 l107 -21 q102 -20 149.5 -63 q47.5 -43 47.5 -119 q0 -60 -32 -105.5 q-32 -45.5 -91 -70.5 q-59 -25 -140 -25 Z" /><glyph glyph-name="uni1E9E" unicode="&#x1e9e;" d="M413 -9 q-55 0 -100.5 14.5 q-45.5 14.5 -84.5 46.5 l33 69 q35 -29 68 -41 q33 -12 77 -12 q70 0 107.5 33.5 q37.5 33.5 37.5 92.5 q0 60 -40 91 q-40 31 -124 31 l-119 0 l0 75 l95 0 q70 0 109.5 32 q39.5 32 39.5 91 q0 60 -38 91 q-38 31 -117 31 q-99 0 -140 -44.5 q-41 -44.5 -41 -135.5 l0 -456 l-90 0 l0 458 q0 127 68 191.5 q68 64.5 209 64.5 q117 0 178.5 -50 q61.5 -50 61.5 -137 q0 -64 -35.5 -111 q-35.5 -47 -97.5 -62 l0 15 q78 -8 125.5 -55.5 q47.5 -47.5 47.5 -125.5 q0 -94 -60.5 -145.5 q-60.5 -51.5 -169.5 -51.5 Z" /><glyph glyph-name="uni018F" unicode="&#x18f;" d="M375 -9 q-112 0 -181 45.5 q-69 45.5 -101.5 127 q-32.5 81.5 -32.5 190.5 l0 39 l556 0 l0 -75 l-485 0 l24 35 q0 -92 20.5 -155 q20.5 -63 68.5 -95.5 q48 -32.5 127 -32.5 q110 0 168.5 73.5 q58.5 73.5 58.5 210.5 q0 134 -63 206 q-63 72 -189 72 q-46 0 -84 -8 q-38 -8 -70.5 -25.5 q-32.5 -17.5 -67.5 -45.5 l-35 72 q50 44 114.5 66.5 q64.5 22.5 152.5 22.5 q107 0 182.5 -43 q75.5 -43 115 -124 q39.5 -81 39.5 -194 q0 -111 -38.5 -192.5 q-38.5 -81.5 -110 -125.5 q-71.5 -44 -169.5 -44 Z" /><glyph glyph-name="T" unicode="T" d="M255 0 l0 626 l-244 0 l0 79 l583 0 l0 -79 l-245 0 l0 -626 l-94 0 Z" /><glyph glyph-name="U" unicode="U" d="M367 -9 q-145 0 -215.5 73.5 q-70.5 73.5 -70.5 216.5 l0 424 l94 0 l0 -421 q0 -105 46 -158 q46 -53 146 -53 q96 0 144.5 53 q48.5 53 48.5 158 l0 421 l92 0 l0 -424 q0 -143 -72 -216.5 q-72 -73.5 -213 -73.5 Z" /><glyph glyph-name="V" unicode="V" d="M309 0 l-309 705 l101 0 l269 -628 l-34 0 l270 628 l97 0 l-311 -705 l-83 0 Z" /><glyph glyph-name="W" unicode="W" d="M279 0 l-247 705 l98 0 l209 -622 l-36 0 l222 622 l73 0 l208 -622 l-32 0 l216 622 l92 0 l-249 -705 l-81 0 l-203 595 l21 0 l-211 -595 l-80 0 Z" /><glyph glyph-name="X" unicode="X" d="M5 0 l284 378 l0 -36 l-272 363 l110 0 l217 -296 l-29 0 l214 296 l111 0 l-272 -363 l0 36 l284 -378 l-111 0 l-230 314 l35 0 l-231 -314 l-110 0 Z" /><glyph glyph-name="Y" unicode="Y" d="M259 0 l0 330 l20 -61 l-294 436 l108 0 l226 -344 l-23 0 l226 344 l105 0 l-294 -436 l19 61 l0 -330 l-93 0 Z" /><glyph glyph-name="uni01B3" unicode="&#x1b3;" d="M259 0 l0 364 l20 -61 l-294 402 l108 0 l226 -310 l-22 0 l167 236 q30 43 67.5 63 q37.5 20 85.5 20 q19 0 34.5 -2.5 q15.5 -2.5 28.5 -8.5 l0 -67 q-10 4 -22.5 5.5 q-12.5 1.5 -26.5 1.5 q-26 0 -48.5 -11 q-22.5 -11 -42.5 -39 l-207 -290 l19 61 l0 -364 l-93 0 Z" /><glyph glyph-name="Z" unicode="Z" d="M44 0 l0 69 l419 590 l0 -33 l-419 0 l0 79 l508 0 l0 -68 l-420 -591 l0 33 l432 0 l0 -79 l-520 0 Z" /><glyph glyph-name="a" unicode="a" d="M268 -9 q-66 0 -116 31 q-50 31 -78 90 q-28 59 -28 140 q0 81 28 139.5 q28 58.5 78 89.5 q50 31 116 31 q67 0 116.5 -33.5 q49.5 -33.5 65.5 -91.5 l-12 0 l11 116 l88 0 q-3 -30 -5.5 -60 q-2.5 -30 -2.5 -59 l0 -384 l-91 0 l0 115 l11 0 q-16 -57 -65.5 -90.5 q-49.5 -33.5 -115.5 -33.5 ZM289 63 q68 0 109 48 q41 48 41 141 q0 93 -41 140 q-41 47 -109 47 q-68 0 -109.5 -47 q-41.5 -47 -41.5 -140 q0 -93 41 -141 q41 -48 110 -48 Z" /><glyph glyph-name="ae" unicode="æ" d="M239 -9 q-54 0 -95.5 21 q-41.5 21 -64.5 56 q-23 35 -23 78 q0 58 26.5 91.5 q26.5 33.5 90.5 47.5 q64 14 174 14 l50 0 l0 -54 l-50 0 q-80 0 -124.5 -8.5 q-44.5 -8.5 -63 -29 q-18.5 -20.5 -18.5 -57.5 q0 -40 29.5 -66 q29.5 -26 79.5 -26 q40 0 71 18 q31 18 49 51.5 q18 33.5 18 77.5 l0 121 q0 60 -28 87 q-28 27 -85 27 q-46 0 -86 -12 q-40 -12 -82 -39 l-30 66 q39 27 92 42 q53 15 108 15 q77 0 120.5 -30.5 q43.5 -30.5 58.5 -90.5 l-26 0 q30 59 79 90 q49 31 116 31 q98 0 154.5 -63.5 q56.5 -63.5 56.5 -175.5 l0 -29 l-373 0 l0 55 l311 0 l-17 -15 q0 76 -34.5 119 q-34.5 43 -98.5 43 q-69 0 -109 -45 q-40 -45 -40 -133 l0 -7 q0 -95 42.5 -146.5 q42.5 -51.5 124.5 -51.5 q43 0 82 13.5 q39 13.5 75 43.5 l30 -63 q-34 -32 -85 -49 q-51 -17 -104 -17 q-89 0 -146.5 39.5 q-57.5 39.5 -81.5 114.5 l23 0 q-16 -73 -68 -113.5 q-52 -40.5 -128 -40.5 Z" /><glyph glyph-name="b" unicode="b" d="M337 -9 q-67 0 -116 33.5 q-49 33.5 -65 92.5 l11 0 l0 -117 l-91 0 l0 736 l91 0 l0 -348 l-11 0 q17 58 65.5 91 q48.5 33 115.5 33 q67 0 117 -31.5 q50 -31.5 77.5 -89.5 q27.5 -58 27.5 -140 q0 -81 -27.5 -139.5 q-27.5 -58.5 -78 -89.5 q-50.5 -31 -116.5 -31 ZM316 63 q68 0 109.5 47.5 q41.5 47.5 41.5 140.5 q0 93 -41.5 140.5 q-41.5 47.5 -109.5 47.5 q-69 0 -109.5 -47 q-40.5 -47 -40.5 -140 q0 -93 40.5 -141 q40.5 -48 109.5 -48 Z" /><glyph glyph-name="uni0253" unicode="&#x253;" d="M338 -9 q-67 0 -116.5 33.5 q-49.5 33.5 -65.5 92.5 l11 0 l0 -117 l-91 0 l0 570 q0 84 46 129.5 q46 45.5 132 45.5 q16 0 31.5 -2 q15.5 -2 27.5 -7 l-11 -70 q-12 4 -20.5 5 q-8.5 1 -19.5 1 q-47 0 -71 -26.5 q-24 -26.5 -24 -75.5 l0 -182 l-11 0 q17 58 66 91 q49 33 116 33 q67 0 116.5 -31 q49.5 -31 77 -89.5 q27.5 -58.5 27.5 -139.5 q0 -81 -27.5 -140 q-27.5 -59 -77.5 -90 q-50 -31 -116 -31 ZM317 63 q68 0 109 48 q41 48 41 141 q0 93 -41 140 q-41 47 -109 47 q-69 0 -110 -47 q-41 -47 -41 -140 q0 -93 41 -141 q41 -48 110 -48 Z" /><glyph glyph-name="c" unicode="c" d="M292 -9 q-75 0 -130 31.5 q-55 31.5 -85.5 91 q-30.5 59.5 -30.5 141.5 q0 81 31 138.5 q31 57.5 86 88 q55 30.5 129 30.5 q49 0 95 -16.5 q46 -16.5 75 -47.5 l-31 -64 q-29 28 -64 41.5 q-35 13.5 -69 13.5 q-74 0 -116 -47.5 q-42 -47.5 -42 -137.5 q0 -91 42 -140 q42 -49 116 -49 q33 0 68 13 q35 13 65 41 l31 -63 q-30 -32 -76.5 -48.5 q-46.5 -16.5 -93.5 -16.5 Z" /><glyph glyph-name="d" unicode="d" d="M268 -9 q-66 0 -116 31 q-50 31 -78 90 q-28 59 -28 140 q0 81 28 139.5 q28 58.5 78 89.5 q50 31 116 31 q66 0 115.5 -33 q49.5 -33 66.5 -91 l-12 0 l0 348 l91 0 l0 -736 l-90 0 l0 117 l11 0 q-16 -59 -65.5 -92.5 q-49.5 -33.5 -116.5 -33.5 ZM289 63 q68 0 109.5 48 q41.5 48 41.5 141 q0 93 -41.5 140 q-41.5 47 -109.5 47 q-68 0 -109.5 -47 q-41.5 -47 -41.5 -140 q0 -93 41.5 -141 q41.5 -48 109.5 -48 Z" /><glyph glyph-name="eth" unicode="ð" d="M287 -9 q-72 0 -126.5 29 q-54.5 29 -84.5 82 q-30 53 -30 123 q0 70 29.5 122.5 q29.5 52.5 82.5 81.5 q53 29 124 29 q74 0 122 -37 q48 -37 69 -113 l-24 0 q0 85 -34.5 162 q-34.5 77 -101.5 131 l21 -3 l-197 -84 l-21 47 l170 72 l-2 -13 q-30 22 -65.5 37.5 q-35.5 15.5 -76.5 25.5 l18 60 q61 -12 112 -34.5 q51 -22.5 91 -52.5 l-20 3 l118 50 l21 -47 l-99 -42 l4 17 q51 -45 83.5 -101.5 q32.5 -56.5 48.5 -121 q16 -64.5 16 -133.5 q0 -93 -29 -158 q-29 -65 -84 -98.5 q-55 -33.5 -135 -33.5 ZM288 64 q70 0 110.5 43 q40.5 43 40.5 118 q0 75 -40 117.5 q-40 42.5 -110 42.5 q-70 0 -110.5 -42.5 q-40.5 -42.5 -40.5 -117.5 q0 -76 40 -118.5 q40 -42.5 110 -42.5 Z" /><glyph glyph-name="dcroat" unicode="&#x111;" d="M268 -9 q-66 0 -116 30.5 q-50 30.5 -78 88.5 q-28 58 -28 137 q0 80 28 137 q28 57 78 88 q50 31 116 31 q66 0 115 -33.5 q49 -33.5 65 -89.5 l-11 0 l0 199 l-193 0 l0 67 l193 0 l0 90 l91 0 l0 -90 l94 0 l0 -67 l-94 0 l0 -579 l-90 0 l0 116 l11 0 q-17 -58 -65.5 -91.5 q-48.5 -33.5 -115.5 -33.5 ZM289 63 q67 0 108.5 47 q41.5 47 41.5 137 q0 90 -41.5 136.5 q-41.5 46.5 -108.5 46.5 q-68 0 -109.5 -46.5 q-41.5 -46.5 -41.5 -136.5 q0 -90 41.5 -137 q41.5 -47 109.5 -47 Z" /><glyph glyph-name="uni0257" unicode="&#x257;" d="M268 -9 q-67 0 -116.5 31 q-49.5 31 -77.5 90 q-28 59 -28 140 q0 81 28 139.5 q28 58.5 77.5 89.5 q49.5 31 116.5 31 q67 0 116 -33 q49 -33 65 -91 l-11 0 l0 184 q0 54 20 93 q20 39 59.5 59.5 q39.5 20.5 98.5 20.5 q15 0 30.5 -2 q15.5 -2 28.5 -7 l-11 -70 q-13 4 -21.5 5 q-8.5 1 -18.5 1 q-45 0 -70 -25 q-25 -25 -25 -77 l0 -570 l-90 0 l0 117 l11 0 q-17 -59 -66 -92.5 q-49 -33.5 -116 -33.5 ZM289 63 q68 0 109 48 q41 48 41 141 q0 93 -41 140 q-41 47 -109 47 q-69 0 -110 -47 q-41 -47 -41 -140 q0 -93 41 -141 q41 -48 110 -48 Z" /><glyph glyph-name="e" unicode="e" d="M305 -9 q-120 0 -189.5 69 q-69.5 69 -69.5 190 q0 80 30.5 138.5 q30.5 58.5 84.5 91 q54 32.5 126 32.5 q69 0 117 -29.5 q48 -29.5 73 -83.5 q25 -54 25 -128 l0 -30 l-385 0 l0 54 l323 0 l-17 -13 q0 78 -34.5 121 q-34.5 43 -101.5 43 q-73 0 -113 -50.5 q-40 -50.5 -40 -137.5 l0 -9 q0 -92 45.5 -139 q45.5 -47 126.5 -47 q45 0 84 13 q39 13 75 43 l30 -63 q-34 -31 -84.5 -48 q-50.5 -17 -105.5 -17 Z" /><glyph glyph-name="uni0259" unicode="&#x259;" d="M258 -9 q-101 0 -157.5 63 q-56.5 63 -56.5 172 l0 35 l384 0 l0 -55 l-323 0 l17 15 q0 -77 35 -120 q35 -43 102 -43 q73 0 112.5 49.5 q39.5 49.5 39.5 131.5 l0 12 q0 95 -45 141.5 q-45 46.5 -130 46.5 q-41 0 -80 -12.5 q-39 -12.5 -75 -42.5 l-27 64 q33 32 84 48 q51 16 109 16 q78 0 134 -31 q56 -31 87 -89 q31 -58 31 -139 q0 -79 -30 -137.5 q-30 -58.5 -84 -91.5 q-54 -33 -127 -33 Z" /><glyph glyph-name="f" unicode="f" d="M104 0 l0 433 l-98 0 l0 70 l123 0 l-25 -23 l0 81 q0 88 44 133.5 q44 45.5 128 45.5 q20 0 42.5 -3 q22.5 -3 37.5 -10 l0 -74 q-12 5 -30 8 q-18 3 -35 3 q-30 0 -52 -12 q-22 -12 -33 -35.5 q-11 -23.5 -11 -61.5 l0 -71 l-14 19 l153 0 l0 -70 l-139 0 l0 -433 l-91 0 Z" /><glyph glyph-name="g" unicode="g" d="M300 -224 q-66 0 -121 16 q-55 16 -99 49 l24 67 q31 -21 61 -34 q30 -13 62.5 -19 q32.5 -6 67.5 -6 q74 0 111 38 q37 38 37 108 l0 141 l10 0 q-16 -57 -65.5 -90.5 q-49.5 -33.5 -116.5 -33.5 q-68 0 -118.5 30.5 q-50.5 30.5 -78.5 87 q-28 56.5 -28 132.5 q0 77 28 133 q28 56 78.5 86.5 q50.5 30.5 118.5 30.5 q67 0 116 -33 q49 -33 65 -91 l-9 9 l9 106 l88 0 q-3 -30 -5.5 -60 q-2.5 -30 -2.5 -59 l0 -378 q0 -112 -58.5 -171 q-58.5 -59 -173.5 -59 ZM291 84 q69 0 110 47 q41 47 41 131 q0 85 -41 131 q-41 46 -110 46 q-70 0 -111.5 -46 q-41.5 -46 -41.5 -131 q0 -84 41.5 -131 q41.5 -47 111.5 -47 Z" /><glyph glyph-name="uni01E5" unicode="&#x1e5;" d="M300 -223 q-67 0 -121.5 15.5 q-54.5 15.5 -99.5 48.5 l24 68 q31 -21 61 -35 q30 -14 63 -21 q33 -7 68 -7 q114 0 140 90 l8 -10 l-132 0 l0 48 l142 0 l-12 -15 q1 8 1.5 15.5 q0.5 7.5 0.5 15.5 l0 158 l10 0 q-16 -57 -66 -89.5 q-50 -32.5 -116 -32.5 q-68 0 -118.5 29.5 q-50.5 29.5 -78.5 84.5 q-28 55 -28 129 q0 75 28 129.5 q28 54.5 78.5 84 q50.5 29.5 118.5 29.5 q66 0 115.5 -32.5 q49.5 -32.5 65.5 -90.5 l-14 -1 l11 115 l88 0 q-3 -30 -5.5 -60 q-2.5 -30 -2.5 -59 l2 -377 q0 -11 0 -22 q0 -11 -2 -21 l-10 10 l81 0 l0 -48 l-87 0 l12 11 q-16 -79 -73 -119.5 q-57 -40.5 -152 -40.5 ZM290 97 q70 0 110.5 45 q40.5 45 40.5 126 q0 82 -40.5 126.5 q-40.5 44.5 -110.5 44.5 q-70 0 -111 -44.5 q-41 -44.5 -41 -126.5 q0 -82 41 -126.5 q41 -44.5 111 -44.5 Z" /><glyph glyph-name="h" unicode="h" d="M76 0 l0 736 l91 0 l0 -342 l-13 0 q22 58 71 88 q49 30 113 30 q91 0 134.5 -49 q43.5 -49 43.5 -148 l0 -315 l-91 0 l0 310 q0 67 -26 97.5 q-26 30.5 -85 30.5 q-66 0 -106.5 -41 q-40.5 -41 -40.5 -109 l0 -288 l-91 0 Z" /><glyph glyph-name="hbar" unicode="&#x127;" d="M76 0 l0 579 l-94 0 l0 67 l94 0 l0 90 l91 0 l0 -90 l199 0 l0 -67 l-199 0 l0 -191 l-13 0 q22 57 71 87.5 q49 30.5 113 30.5 q90 0 134 -49 q44 -49 44 -149 l0 -308 l-91 0 l0 303 q0 68 -26.5 98 q-26.5 30 -84.5 30 q-66 0 -106.5 -40.5 q-40.5 -40.5 -40.5 -108.5 l0 -282 l-91 0 Z" /><glyph glyph-name="i" unicode="i" d="M76 0 l0 503 l91 0 l0 -503 l-91 0 ZM68 613 l0 98 l108 0 l0 -98 l-108 0 Z" /><glyph glyph-name="dotlessi" unicode="&#x131;" d="M76 0 l0 503 l91 0 l0 -503 l-91 0 Z" /><glyph glyph-name="j" unicode="j" d="M14 -220 q-15 0 -36.5 3 q-21.5 3 -35.5 9 l0 75 q12 -4 28 -7.5 q16 -3.5 29 -3.5 q41 0 61.5 25.5 q20.5 25.5 20.5 83.5 l0 538 l91 0 l0 -546 q0 -87 -39 -132 q-39 -45 -119 -45 ZM72 613 l0 98 l108 0 l0 -98 l-108 0 Z" /><glyph glyph-name="uni0237" unicode="&#x237;" d="M15 -220 q-15 0 -36.5 3 q-21.5 3 -35.5 9 l0 75 q12 -4 27.5 -7.5 q15.5 -3.5 29.5 -3.5 q40 0 61 25.5 q21 25.5 21 83.5 l0 538 l91 0 l0 -546 q0 -87 -39 -132 q-39 -45 -119 -45 Z" /><glyph glyph-name="k" unicode="k" d="M76 0 l0 736 l91 0 l0 -455 l2 0 l227 222 l113 0 l-270 -264 l1 43 l293 -282 l-116 0 l-248 234 l-2 0 l0 -234 l-91 0 Z" /><glyph glyph-name="kgreenlandic" unicode="&#x138;" d="M76 0 l0 503 l91 0 l0 -222 l2 0 l227 222 l113 0 l-270 -264 l1 43 l293 -282 l-116 0 l-248 234 l-2 0 l0 -234 l-91 0 Z" /><glyph glyph-name="l" unicode="l" d="M76 0 l0 736 l91 0 l0 -736 l-91 0 Z" /><glyph glyph-name="m" unicode="m" d="M76 0 l0 384 q0 29 -2 59 q-2 30 -6 60 l88 0 l10 -108 l-12 0 q20 56 64 86.5 q44 30.5 105 30.5 q62 0 102 -29.5 q40 -29.5 54 -92.5 l-15 0 q19 56 67 89 q48 33 112 33 q83 0 125 -48.5 q42 -48.5 42 -150.5 l0 -313 l-91 0 l0 308 q0 69 -24 99.5 q-24 30.5 -76 30.5 q-61 0 -96 -41.5 q-35 -41.5 -35 -112.5 l0 -284 l-91 0 l0 308 q0 69 -23.5 99.5 q-23.5 30.5 -76.5 30.5 q-61 0 -95.5 -41.5 q-34.5 -41.5 -34.5 -112.5 l0 -284 l-91 0 Z" /><glyph glyph-name="n" unicode="n" d="M76 0 l0 384 q0 29 -2 59 q-2 30 -6 60 l88 0 l10 -108 l-12 0 q23 57 71 87 q48 30 112 30 q89 0 134 -48.5 q45 -48.5 45 -150.5 l0 -313 l-91 0 l0 308 q0 69 -27 99.5 q-27 30.5 -84 30.5 q-68 0 -107.5 -41 q-39.5 -41 -39.5 -111 l0 -286 l-91 0 Z" /><glyph glyph-name="eng" unicode="&#x14b;" d="M76 0 l0 384 q0 29 -2 59 q-2 30 -6 60 l88 0 l10 -108 l-12 0 q23 57 71.5 87 q48.5 30 111.5 30 q89 0 134 -48.5 q45 -48.5 45 -150.5 l0 -352 q0 -87 -41.5 -134 q-41.5 -47 -126.5 -47 q-19 0 -38 3 q-19 3 -34 9 l0 75 q13 -4 26 -7.5 q13 -3.5 31 -3.5 q45 0 68.5 27.5 q23.5 27.5 23.5 85.5 l0 339 q0 69 -26.5 99.5 q-26.5 30.5 -83.5 30.5 q-68 0 -108 -41 q-40 -41 -40 -111 l0 -286 l-91 0 Z" /><glyph glyph-name="o" unicode="o" d="M288 -9 q-74 0 -128 31.5 q-54 31.5 -84 90 q-30 58.5 -30 139.5 q0 80 30 138.5 q30 58.5 84 90 q54 31.5 128 31.5 q74 0 128.5 -31.5 q54.5 -31.5 84 -90 q29.5 -58.5 29.5 -138.5 q0 -81 -29.5 -139.5 q-29.5 -58.5 -84 -90 q-54.5 -31.5 -128.5 -31.5 ZM288 63 q68 0 109 48 q41 48 41 141 q0 93 -41 140 q-41 47 -109 47 q-69 0 -109.5 -47 q-40.5 -47 -40.5 -140 q0 -93 40.5 -141 q40.5 -48 109.5 -48 Z" /><glyph glyph-name="oslash" unicode="ø" d="M288 -9 q-74 0 -128 31.5 q-54 31.5 -84 90 q-30 58.5 -30 139.5 q0 80 30 138.5 q30 58.5 84 90 q54 31.5 128 31.5 q74 0 128.5 -31.5 q54.5 -31.5 84 -90 q29.5 -58.5 29.5 -138.5 q0 -81 -29.5 -139.5 q-29.5 -58.5 -84 -90 q-54.5 -31.5 -128.5 -31.5 ZM288 63 q73 0 114.5 49 q41.5 49 41.5 140 q0 91 -41.5 139 q-41.5 48 -114.5 48 q-73 0 -114.5 -48 q-41.5 -48 -41.5 -139 q0 -91 41.5 -140 q41.5 -49 114.5 -49 ZM150 -42 l-47 29 l324 558 l48 -29 l-325 -558 Z" /><glyph glyph-name="oe" unicode="&#x153;" d="M288 -9 q-74 0 -128.5 31.5 q-54.5 31.5 -84 90.5 q-29.5 59 -29.5 139 q0 81 29.5 139.5 q29.5 58.5 84 89.5 q54.5 31 128.5 31 q77 0 130.5 -38.5 q53.5 -38.5 78.5 -110.5 l-26 0 q25 72 79 110.5 q54 38.5 129 38.5 q98 0 154.5 -64 q56.5 -64 56.5 -175 l0 -31 l-379 0 l0 54 l318 0 l-18 -12 q0 76 -34.5 119 q-34.5 43 -99.5 43 q-71 0 -109.5 -50.5 q-38.5 -50.5 -38.5 -136.5 l0 -6 q0 -95 43.5 -142.5 q43.5 -47.5 126.5 -47.5 q42 0 80 14 q38 14 73 42 l31 -63 q-22 -21 -52.5 -36 q-30.5 -15 -64 -22 q-33.5 -7 -64.5 -7 q-90 0 -148 38.5 q-58 38.5 -83 111.5 l25 0 q-24 -73 -77.5 -111.5 q-53.5 -38.5 -130.5 -38.5 ZM289 63 q68 0 109 48 q41 48 41 141 q0 92 -41 139.5 q-41 47.5 -109 47.5 q-69 0 -110 -47.5 q-41 -47.5 -41 -139.5 q0 -93 41 -141 q41 -48 110 -48 Z" /><glyph glyph-name="p" unicode="p" d="M76 -216 l0 600 q0 29 -2 59 q-2 30 -6 60 l88 0 l11 -116 l-11 0 q15 58 64 91.5 q49 33.5 117 33.5 q67 0 117 -31 q50 -31 77.5 -89.5 q27.5 -58.5 27.5 -139.5 q0 -81 -27.5 -140 q-27.5 -59 -77.5 -90 q-50 -31 -117 -31 q-67 0 -115.5 33.5 q-48.5 33.5 -65.5 90.5 l11 0 l0 -331 l-91 0 ZM316 63 q69 0 110 48 q41 48 41 141 q0 93 -41 140 q-41 47 -110 47 q-69 0 -109.5 -47 q-40.5 -47 -40.5 -140 q0 -93 40.5 -141 q40.5 -48 109.5 -48 Z" /><glyph glyph-name="thorn" unicode="þ" d="M76 -216 l0 952 l91 0 l0 -349 l-11 0 q15 58 64.5 91.5 q49.5 33.5 116.5 33.5 q67 0 117 -31 q50 -31 77.5 -89.5 q27.5 -58.5 27.5 -139.5 q0 -81 -27.5 -140 q-27.5 -59 -77 -90 q-49.5 -31 -116.5 -31 q-68 0 -116.5 33.5 q-48.5 33.5 -65.5 90.5 l11 0 l0 -331 l-91 0 ZM317 63 q68 0 109 48 q41 48 41 141 q0 93 -41 140 q-41 47 -109 47 q-69 0 -110 -47 q-41 -47 -41 -140 q0 -93 41 -141 q41 -48 110 -48 Z" /><glyph glyph-name="q" unicode="q" d="M438 -216 l0 331 l11 0 q-16 -57 -65.5 -90.5 q-49.5 -33.5 -115.5 -33.5 q-66 0 -116 31 q-50 31 -78 90 q-28 59 -28 140 q0 81 28 139.5 q28 58.5 78 89.5 q50 31 116 31 q67 0 116.5 -33.5 q49.5 -33.5 65.5 -91.5 l-12 0 l11 116 l88 0 q-3 -30 -5.5 -60 q-2.5 -30 -2.5 -59 l0 -600 l-91 0 ZM289 63 q68 0 109 48 q41 48 41 141 q0 93 -41 140 q-41 47 -109 47 q-68 0 -109.5 -47 q-41.5 -47 -41.5 -140 q0 -93 41 -141 q41 -48 110 -48 Z" /><glyph glyph-name="r" unicode="r" d="M75 0 l0 380 q0 30 -1.5 61.5 q-1.5 31.5 -5.5 61.5 l88 0 l11 -126 l-15 -1 q10 46 34.5 76.5 q24.5 30.5 59 45 q34.5 14.5 71.5 14.5 q16 0 27 -1 q11 -1 22 -5 l-2 -81 q-15 6 -27.5 7.5 q-12.5 1.5 -30.5 1.5 q-44 0 -75.5 -20 q-31.5 -20 -48 -53 q-16.5 -33 -16.5 -71 l0 -290 l-91 0 Z" /><glyph glyph-name="s" unicode="s" d="M246 -9 q-61 0 -113.5 16 q-52.5 16 -86.5 46 l29 63 q37 -28 81.5 -42.5 q44.5 -14.5 91.5 -14.5 q57 0 86.5 21 q29.5 21 29.5 56 q0 28 -19 45 q-19 17 -60 25 l-95 19 q-64 15 -96.5 48.5 q-32.5 33.5 -32.5 86.5 q0 44 24 78.5 q24 34.5 68.5 54 q44.5 19.5 104.5 19.5 q55 0 102.5 -16 q47.5 -16 78.5 -47 l-30 -61 q-31 27 -69.5 41.5 q-38.5 14.5 -78.5 14.5 q-58 0 -86 -22.5 q-28 -22.5 -28 -58.5 q0 -27 17 -44.5 q17 -17.5 55 -26.5 l95 -19 q67 -14 101 -46 q34 -32 34 -85 q0 -47 -25.5 -81 q-25.5 -34 -71 -52 q-45.5 -18 -106.5 -18 Z" /><glyph glyph-name="germandbls" unicode="ß" d="M76 0 l0 489 q0 124 61.5 188.5 q61.5 64.5 184.5 64.5 q64 0 109.5 -20.5 q45.5 -20.5 70.5 -58.5 q25 -38 25 -92 q0 -65 -37.5 -117.5 q-37.5 -52.5 -135.5 -90.5 l0 17 q91 -24 148 -55.5 q57 -31.5 84 -71.5 q27 -40 27 -93 q0 -52 -24.5 -90 q-24.5 -38 -69.5 -58.5 q-45 -20.5 -106 -20.5 q-39 0 -72 7 q-33 7 -60.5 20.5 q-27.5 13.5 -50.5 33.5 l27 63 q38 -28 75 -41 q37 -13 81 -13 q53 0 82 25 q29 25 29 71 q0 35 -21 65 q-21 30 -73.5 56.5 q-52.5 26.5 -148.5 50.5 l0 72 q61 23 96 48.5 q35 25.5 49.5 55 q14.5 29.5 14.5 64.5 q0 47 -31 74.5 q-31 27.5 -88 27.5 q-80 0 -117.5 -42.5 q-37.5 -42.5 -37.5 -129.5 l0 -499 l-91 0 Z" /><glyph glyph-name="t" unicode="t" d="M264 -9 q-79 0 -119.5 43.5 q-40.5 43.5 -40.5 131.5 l0 267 l-98 0 l0 70 l98 0 l0 135 l91 25 l0 -160 l142 0 l0 -70 l-142 0 l0 -259 q0 -58 20.5 -82.5 q20.5 -24.5 59.5 -24.5 q20 0 34.5 3.5 q14.5 3.5 26.5 8.5 l0 -75 q-15 -6 -34.5 -9.5 q-19.5 -3.5 -37.5 -3.5 Z" /><glyph glyph-name="u" unicode="u" d="M255 -9 q-91 0 -136.5 49 q-45.5 49 -45.5 151 l0 312 l91 0 l0 -310 q0 -66 27 -97 q27 -31 84 -31 q62 0 100.5 41.5 q38.5 41.5 38.5 110.5 l0 286 l91 0 l0 -503 l-88 0 l0 111 l13 0 q-21 -57 -67 -88.5 q-46 -31.5 -108 -31.5 Z" /><glyph glyph-name="v" unicode="v" d="M224 0 l-215 503 l98 0 l175 -432 l-28 0 l178 432 l93 0 l-216 -503 l-85 0 Z" /><glyph glyph-name="w" unicode="w" d="M212 0 l-188 503 l95 0 l152 -431 l-26 0 l156 431 l74 0 l155 -431 l-25 0 l153 431 l91 0 l-189 -503 l-86 0 l-160 438 l44 0 l-159 -438 l-87 0 Z" /><glyph glyph-name="x" unicode="x" d="M6 0 l228 282 l0 -45 l-215 266 l109 0 l157 -201 l-33 0 l157 201 l108 0 l-212 -264 l0 41 l225 -280 l-110 0 l-168 215 l33 0 l-170 -215 l-109 0 Z" /><glyph glyph-name="y" unicode="y" d="M59 -227 l-21 74 q47 11 78 25.5 q31 14.5 52 37.5 q21 23 37 58 l25 60 l-2 -38 l-219 513 l98 0 l175 -431 l-26 0 l175 431 l94 0 l-231 -542 q-21 -49 -45.5 -82 q-24.5 -33 -53 -54 q-28.5 -21 -62.5 -33 q-34 -12 -74 -19 Z" /><glyph glyph-name="uni01B4" unicode="&#x1b4;" d="M59 -227 l-21 74 q47 11 78 25.5 q31 14.5 52 37.5 q21 23 37 58 l25 60 l-2 -38 l-219 513 l98 0 l175 -431 l-26 0 l132 326 q24 58 60 86 q36 28 97 28 q19 0 35 -2.5 q16 -2.5 29 -6.5 l-12 -70 q-10 3 -20 4.5 q-10 1.5 -19 1.5 q-32 0 -53.5 -17 q-21.5 -17 -42.5 -65 l-168 -396 q-21 -49 -45.5 -82 q-24.5 -33 -53 -54 q-28.5 -21 -62.5 -33 q-34 -12 -74 -19 Z" /><glyph glyph-name="z" unicode="z" d="M49 0 l0 61 l334 395 l0 -23 l-334 0 l0 70 l418 0 l0 -61 l-336 -397 l-1 25 l348 0 l0 -70 l-429 0 Z" /><glyph glyph-name="fi" unicode="&#xfb01;" d="M104 0 l0 433 l-98 0 l0 70 l123 0 l-25 -23 l0 81 q0 88 43.5 133.5 q43.5 45.5 125.5 45.5 q20 0 42.5 -3 q22.5 -3 37.5 -10 l0 -74 q-12 5 -30 8 q-18 3 -35 3 q-45 0 -69 -26.5 q-24 -26.5 -24 -82.5 l0 -71 l-14 19 l329 0 l0 -503 l-91 0 l0 433 l-224 0 l0 -433 l-91 0 ZM410 613 l0 98 l108 0 l0 -98 l-108 0 Z" /><glyph glyph-name="ordfeminine" unicode="ª" d="M133 410 q-48 0 -79 26 q-31 26 -31 66 q0 45 41.5 65 q41.5 20 115.5 20 l58 0 l0 -37 l-56 0 q-49 0 -72.5 -11.5 q-23.5 -11.5 -23.5 -35.5 q0 -20 14.5 -34 q14.5 -14 47.5 -14 q36 0 59 24 q23 24 23 66 l0 57 q0 33 -17.5 48 q-17.5 15 -53.5 15 q-26 0 -54 -6.5 q-28 -6.5 -52 -21.5 l-16 46 q24 16 58.5 23.5 q34.5 7.5 66.5 7.5 q129 0 129 -114 l0 -184 l-59 0 l0 54 l-2 0 q-16 -31 -39 -45.5 q-23 -14.5 -58 -14.5 Z" /><glyph glyph-name="ordmasculine" unicode="º" d="M172 411 q-43 0 -76.5 18.5 q-33.5 18.5 -53 53 q-19.5 34.5 -19.5 80.5 q0 46 19.5 80 q19.5 34 53 52.5 q33.5 18.5 77.5 18.5 q43 0 76.5 -18.5 q33.5 -18.5 53 -52.5 q19.5 -34 19.5 -80 q0 -46 -19.5 -80.5 q-19.5 -34.5 -53 -53 q-33.5 -18.5 -77.5 -18.5 ZM172 461 q40 0 63 26 q23 26 23 76 q0 50 -23 76 q-23 26 -63 26 q-39 0 -62 -26 q-23 -26 -23 -76 q0 -50 23.5 -76 q23.5 -26 61.5 -26 Z" /><glyph glyph-name="uni0411" unicode="&#x411;" d="M86 0 l0 705 l481 0 l0 -75 l-391 0 l0 -233 l219 0 q114 0 177.5 -49.5 q63.5 -49.5 63.5 -147.5 q0 -98 -63.5 -149 q-63.5 -51 -177.5 -51 l-309 0 ZM176 74 l209 0 q82 0 120.5 31 q38.5 31 38.5 94 q0 63 -38.5 93.5 q-38.5 30.5 -120.5 30.5 l-209 0 l0 -249 Z" /><glyph glyph-name="uni0413" unicode="&#x413;" d="M86 0 l0 705 l459 0 l0 -78 l-366 0 l0 -627 l-93 0 Z" /><glyph glyph-name="uni0490" unicode="&#x490;" d="M86 0 l0 705 l376 0 l0 156 l83 0 l0 -234 l-366 0 l0 -627 l-93 0 Z" /><glyph glyph-name="uni0414" unicode="&#x414;" d="M16 -159 l0 235 l72 0 q54 64 79.5 174 q25.5 110 25.5 273 l0 182 l487 0 l0 -629 l104 0 l0 -235 l-83 0 l0 159 l-601 0 l0 -159 l-84 0 ZM184 76 l404 0 l0 554 l-309 0 l0 -114 q0 -159 -23 -264.5 q-23 -105.5 -72 -175.5 Z" /><glyph glyph-name="uni0416" unicode="&#x416;" d="M9 0 l123 246 q33 65 78 101 q45 36 110 43 l-34 -28 l-237 343 l103 0 l222 -327 l-23 16 l108 0 l0 311 l89 0 l0 -311 l110 0 l-25 -16 l222 327 l103 0 l-237 -343 l-34 28 q65 -7 109.5 -43 q44.5 -36 76.5 -101 l124 -246 l-100 0 l-101 206 q-29 59 -67 84.5 q-38 25.5 -95 25.5 l-86 0 l0 -316 l-89 0 l0 316 l-86 0 q-58 0 -96.5 -25.5 q-38.5 -25.5 -66.5 -84.5 l-100 -206 l-101 0 Z" /><glyph glyph-name="uni0417" unicode="&#x417;" d="M318 -9 q-91 0 -162.5 24 q-71.5 24 -118.5 65 l33 71 q48 -40 107 -60 q59 -20 136 -20 q98 0 144 32.5 q46 32.5 46 95.5 q0 62 -39.5 91 q-39.5 29 -120.5 29 l-178 0 l0 76 l163 0 q78 0 118 30 q40 30 40 88 q0 56 -43 88.5 q-43 32.5 -129 32.5 q-65 0 -122.5 -19 q-57.5 -19 -104.5 -59 l-33 71 q47 43 118 65 q71 22 149 22 q127 0 192 -52 q65 -52 65 -139 q0 -66 -39.5 -110.5 q-39.5 -44.5 -106.5 -58.5 l0 14 q76 -10 119.5 -55 q43.5 -45 43.5 -119 q0 -62 -30.5 -108 q-30.5 -46 -92 -70.5 q-61.5 -24.5 -154.5 -24.5 Z" /><glyph glyph-name="uni0418" unicode="&#x418;" d="M86 0 l0 705 l86 0 l0 -586 l-23 0 l442 586 l72 0 l0 -705 l-87 0 l0 586 l23 0 l-443 -586 l-70 0 Z" /><glyph glyph-name="uni048A" unicode="&#x48a;" d="M610 -159 l55 159 l-89 0 l0 76 l195 0 l-81 -235 l-80 0 ZM86 0 l0 705 l86 0 l0 -586 l-23 0 l442 586 l72 0 l0 -705 l-87 0 l0 586 l23 0 l-443 -586 l-70 0 ZM376 760 q-47 0 -87 15 q-40 15 -68 45 q-28 30 -42 73 l51 19 q20 -50 55.5 -73.5 q35.5 -23.5 89.5 -23.5 q55 0 90 22 q35 22 60 74 l50 -18 q-27 -71 -79.5 -102 q-52.5 -31 -119.5 -31 Z" /><glyph glyph-name="uni041A" unicode="&#x41a;" d="M86 0 l0 705 l92 0 l0 -311 l138 0 l-25 -16 l221 327 l105 0 l-238 -343 l-34 28 q64 -7 108.5 -43 q44.5 -36 78.5 -101 l123 -246 l-101 0 l-100 206 q-29 60 -67 85 q-38 25 -95 25 l-114 0 l0 -316 l-92 0 Z" /><glyph glyph-name="uni041B" unicode="&#x41b;" d="M61 -15 l-45 71 q42 22 75 53 q33 31 55 79 q22 48 33.5 122 q11.5 74 11.5 182 l0 213 l488 0 l0 -705 l-93 0 l0 627 l-309 0 l0 -158 q0 -107 -14 -187 q-14 -80 -41.5 -137.5 q-27.5 -57.5 -68 -96 q-40.5 -38.5 -92.5 -63.5 Z" /><glyph glyph-name="uni041F" unicode="&#x41f;" d="M86 0 l0 705 l595 0 l0 -705 l-92 0 l0 627 l-411 0 l0 -627 l-92 0 Z" /><glyph glyph-name="uni0423" unicode="&#x423;" d="M200 0 l122 230 l2 -34 l-328 509 l101 0 l273 -426 l-20 0 l225 426 l97 0 l-374 -705 l-98 0 Z" /><glyph glyph-name="uni0424" unicode="&#x424;" d="M392 -23 l0 99 l24 -20 l-27 0 q-102 0 -176 36.5 q-74 36.5 -113.5 104 q-39.5 67.5 -39.5 161.5 q0 143 86 222.5 q86 79.5 243 79.5 l27 0 l-24 -20 l0 93 l93 0 l0 -93 l-25 20 l27 0 q158 0 244 -79.5 q86 -79.5 86 -222.5 q0 -94 -39.5 -161.5 q-39.5 -67.5 -113.5 -104 q-74 -36.5 -177 -36.5 l-27 0 l25 20 l0 -99 l-93 0 ZM392 110 l0 495 l22 -18 l-37 0 q-102 0 -161.5 -59 q-59.5 -59 -59.5 -170 q0 -72 27.5 -123.5 q27.5 -51.5 77.5 -78.5 q50 -27 116 -27 l37 0 l-22 -19 ZM485 110 l-23 19 l38 0 q66 0 116 27 q50 27 77.5 78.5 q27.5 51.5 27.5 123.5 q0 111 -59.5 170 q-59.5 59 -161.5 59 l-38 0 l23 18 l0 -495 Z" /><glyph glyph-name="uni0427" unicode="&#x427;" d="M518 0 l0 293 q-31 -16 -79.5 -25 q-48.5 -9 -96.5 -9 q-139 0 -212 72 q-73 72 -73 217 l0 157 l92 0 l0 -151 q0 -112 50.5 -163 q50.5 -51 151.5 -51 q45 0 87.5 8.5 q42.5 8.5 79.5 28.5 l0 328 l93 0 l0 -705 l-93 0 Z" /><glyph glyph-name="uni0426" unicode="&#x426;" d="M701 -159 l0 159 l-615 0 l0 705 l92 0 l0 -626 l411 0 l0 626 l92 0 l0 -626 l103 0 l0 -238 l-83 0 Z" /><glyph glyph-name="uni0428" unicode="&#x428;" d="M86 0 l0 705 l91 0 l0 -626 l320 0 l0 626 l92 0 l0 -626 l319 0 l0 626 l92 0 l0 -705 l-914 0 Z" /><glyph glyph-name="uni0429" unicode="&#x429;" d="M1020 -159 l0 159 l-934 0 l0 705 l91 0 l0 -626 l320 0 l0 626 l92 0 l0 -626 l319 0 l0 626 l92 0 l0 -626 l103 0 l0 -238 l-83 0 Z" /><glyph glyph-name="uni040F" unicode="&#x40f;" d="M342 -159 l0 159 l-256 0 l0 705 l93 0 l0 -626 l410 0 l0 626 l92 0 l0 -705 l-256 0 l0 -159 l-83 0 Z" /><glyph glyph-name="uni042C" unicode="&#x42c;" d="M86 0 l0 705 l93 0 l0 -308 l216 0 q114 0 177.5 -49.5 q63.5 -49.5 63.5 -147.5 q0 -98 -63.5 -149 q-63.5 -51 -177.5 -51 l-309 0 ZM179 74 l206 0 q82 0 120.5 31 q38.5 31 38.5 94 q0 63 -38.5 93.5 q-38.5 30.5 -120.5 30.5 l-206 0 l0 -249 Z" /><glyph glyph-name="uni042A" unicode="&#x42a;" d="M231 0 l0 627 l-220 0 l0 78 l313 0 l0 -308 l216 0 q115 0 178 -49.5 q63 -49.5 63 -147.5 q0 -98 -63 -149 q-63 -51 -178 -51 l-309 0 ZM324 74 l207 0 q81 0 120 31 q39 31 39 94 q0 63 -39 93.5 q-39 30.5 -120 30.5 l-207 0 l0 -249 Z" /><glyph glyph-name="uni042B" unicode="&#x42b;" d="M86 0 l0 705 l93 0 l0 -308 l185 0 q114 0 177.5 -49.5 q63.5 -49.5 63.5 -147.5 q0 -98 -63.5 -149 q-63.5 -51 -177.5 -51 l-278 0 ZM179 74 l175 0 q82 0 120.5 31 q38.5 31 38.5 94 q0 63 -38.5 93.5 q-38.5 30.5 -120.5 30.5 l-175 0 l0 -249 ZM706 0 l0 705 l93 0 l0 -705 l-93 0 Z" /><glyph glyph-name="uni0409" unicode="&#x409;" d="M61 -15 l-45 71 q42 22 75 53 q33 31 55 79 q22 48 33.5 122 q11.5 74 11.5 182 l0 213 l473 0 l0 -308 l216 0 q115 0 178 -49.5 q63 -49.5 63 -147.5 q0 -98 -63 -149 q-63 -51 -178 -51 l-309 0 l0 627 l-294 0 l0 -158 q0 -107 -14 -187 q-14 -80 -41.5 -137.5 q-27.5 -57.5 -68 -96 q-40.5 -38.5 -92.5 -63.5 ZM664 74 l207 0 q81 0 120 31 q39 31 39 94 q0 63 -39 93.5 q-39 30.5 -120 30.5 l-207 0 l0 -249 Z" /><glyph glyph-name="uni040A" unicode="&#x40a;" d="M86 0 l0 705 l92 0 l0 -308 l410 0 l0 308 l92 0 l0 -308 l216 0 q115 0 178.5 -49.5 q63.5 -49.5 63.5 -147.5 q0 -98 -63.5 -149 q-63.5 -51 -178.5 -51 l-308 0 l0 319 l-410 0 l0 -319 l-92 0 ZM680 74 l207 0 q81 0 120 31 q39 31 39 94 q0 63 -39 93.5 q-39 30.5 -120 30.5 l-207 0 l0 -249 Z" /><glyph glyph-name="uni0404" unicode="&#x404;" d="M400 -9 q-108 0 -184 44 q-76 44 -116 125.5 q-40 81.5 -40 192.5 q0 111 40 192 q40 81 116 125 q76 44 184 44 q75 0 136.5 -23 q61.5 -23 105.5 -67 l-34 -74 q-47 42 -95.5 61.5 q-48.5 19.5 -110.5 19.5 q-117 0 -178.5 -69 q-61.5 -69 -65.5 -192 l-28 26 l389 0 l0 -76 l-390 0 l28 22 q4 -128 66 -198 q62 -70 179 -70 q62 0 110.5 19.5 q48.5 19.5 95.5 61.5 l34 -74 q-44 -43 -105.5 -66.5 q-61.5 -23.5 -136.5 -23.5 Z" /><glyph glyph-name="uni042D" unicode="&#x42d;" d="M291 -9 q-74 0 -135.5 23.5 q-61.5 23.5 -105.5 66.5 l34 74 q48 -42 96 -61.5 q48 -19.5 110 -19.5 q117 0 179.5 70 q62.5 70 64.5 198 l29 -22 l-390 0 l0 76 l388 0 l-27 -26 q-4 123 -65.5 192 q-61.5 69 -176.5 69 q-62 0 -110.5 -19 q-48.5 -19 -97.5 -62 l-34 74 q46 44 107.5 67 q61.5 23 136.5 23 q107 0 182.5 -44 q75.5 -44 115 -125 q39.5 -81 39.5 -192 q0 -111 -39.5 -192.5 q-39.5 -81.5 -115.5 -125.5 q-76 -44 -185 -44 Z" /><glyph glyph-name="uni040B" unicode="&#x40b;" d="M255 0 l0 626 l-244 0 l0 79 l583 0 l0 -79 l-245 0 l0 -224 q32 17 79.5 26 q47.5 9 95.5 9 q140 0 213 -72 q73 -72 73 -217 l0 -148 l-93 0 l0 142 q0 112 -51 163.5 q-51 51.5 -151 51.5 q-44 0 -86 -8.5 q-42 -8.5 -80 -29.5 l0 -319 l-94 0 Z" /><glyph glyph-name="uni042E" unicode="&#x42e;" d="M660 -9 q-94 0 -164.5 40 q-70.5 40 -112 113.5 q-41.5 73.5 -48.5 174.5 l-156 0 l0 -319 l-93 0 l0 705 l93 0 l0 -309 l157 0 q9 99 50.5 170 q41.5 71 111 109.5 q69.5 38.5 162.5 38.5 q101 0 174.5 -44 q73.5 -44 113.5 -125 q40 -81 40 -192 q0 -111 -40 -192.5 q-40 -81.5 -114 -125.5 q-74 -44 -174 -44 ZM660 72 q110 0 170.5 74 q60.5 74 60.5 207 q0 133 -60.5 206.5 q-60.5 73.5 -170.5 73.5 q-109 0 -169.5 -73.5 q-60.5 -73.5 -60.5 -206.5 q0 -133 60.5 -207 q60.5 -74 169.5 -74 Z" /><glyph glyph-name="uni042F" unicode="&#x42f;" d="M37 0 l128 227 q24 44 54.5 64 q30.5 20 71.5 20 l27 0 l-4 -14 q-116 0 -180 53.5 q-64 53.5 -64 150.5 q0 98 62.5 151 q62.5 53 179.5 53 l295 0 l0 -705 l-93 0 l0 294 l-119 0 q-49 0 -78 -14 q-29 -14 -52 -55 l-126 -225 l-102 0 ZM326 366 l188 0 l0 264 l-188 0 q-165 0 -165 -132 q0 -132 165 -132 Z" /><glyph glyph-name="uni0402" unicode="&#x402;" d="M587 -189 q-35 0 -66.5 5.5 q-31.5 5.5 -53.5 15.5 l18 70 q19 -8 43 -12 q24 -4 51 -4 q65 0 99 41 q34 41 34 122 l0 93 q0 110 -51 162 q-51 52 -154 52 q-46 0 -85.5 -9.5 q-39.5 -9.5 -72.5 -27.5 l0 -319 l-94 0 l0 626 l-244 0 l0 79 l583 0 l0 -79 l-245 0 l0 -224 q28 16 73.5 25.5 q45.5 9.5 93.5 9.5 q142 0 215.5 -72 q73.5 -72 73.5 -217 l0 -96 q0 -78 -26 -132 q-26 -54 -74.5 -81.5 q-48.5 -27.5 -117.5 -27.5 Z" /><glyph glyph-name="uni0462" unicode="&#x462;" d="M159 0 l0 533 l-179 0 l0 71 l179 0 l0 101 l90 0 l0 -101 l245 0 l0 -71 l-245 0 l0 -136 l216 0 q114 0 177.5 -49.5 q63.5 -49.5 63.5 -147.5 q0 -98 -63.5 -149 q-63.5 -51 -177.5 -51 l-306 0 ZM249 74 l207 0 q81 0 120 31 q39 31 39 94 q0 63 -39 93.5 q-39 30.5 -120 30.5 l-207 0 l0 -249 Z" /><glyph glyph-name="uni046A" unicode="&#x46a;" d="M9 0 l124 248 q23 44 54.5 76.5 q31.5 32.5 76.5 50.5 q45 18 108 18 l57 0 l-6 -22 l-297 334 l740 0 l-297 -334 l-6 22 l57 0 q63 0 108 -18 q45 -18 76.5 -50.5 q31.5 -32.5 53.5 -76.5 l124 -248 l-100 0 l-101 206 q-29 58 -65.5 84 q-36.5 26 -94.5 26 l-79 0 l0 -316 l-92 0 l0 316 l-78 0 q-59 0 -95.5 -26 q-36.5 -26 -65.5 -84 l-102 -206 l-100 0 ZM495 394 l2 0 l241 275 l0 -32 l-485 0 l0 32 l242 -275 Z" /><glyph glyph-name="uni0474" unicode="&#x474;" d="M306 0 l-306 705 l101 0 l266 -628 l-34 0 l195 446 q23 53 47 90 q24 37 53 59 q29 22 67 32 q38 10 90 10 l8 -76 q-48 0 -79.5 -13 q-31.5 -13 -55.5 -44.5 q-24 -31.5 -49 -87.5 l-219 -493 l-84 0 Z" /><glyph glyph-name="uni0492" unicode="&#x492;" d="M125 0 l0 317 l-100 0 l0 70 l100 0 l0 318 l459 0 l0 -78 l-366 0 l0 -240 l190 0 l0 -70 l-190 0 l0 -317 l-93 0 Z" /><glyph glyph-name="uni0494" unicode="&#x494;" d="M420 -189 q-29 0 -57 3.5 q-28 3.5 -47 10.5 l0 77 q19 -8 42.5 -12.5 q23.5 -4.5 50.5 -4.5 q64 0 98.5 42 q34.5 42 34.5 123 l0 92 q0 111 -50.5 162.5 q-50.5 51.5 -154.5 51.5 q-46 0 -86 -9.5 q-40 -9.5 -73 -27.5 l0 -319 l-92 0 l0 705 l460 0 l0 -78 l-368 0 l0 -225 q28 16 74 25.5 q46 9.5 95 9.5 q142 0 215 -72 q73 -72 73 -217 l0 -95 q0 -78 -26 -132 q-26 -54 -74 -82 q-48 -28 -115 -28 Z" /><glyph glyph-name="uni0496" unicode="&#x496;" d="M967 -159 l0 159 l-49 0 l0 76 l133 0 l0 -235 l-84 0 ZM9 0 l123 246 q33 65 78 101 q45 36 110 43 l-34 -28 l-237 343 l103 0 l222 -327 l-23 16 l108 0 l0 311 l89 0 l0 -311 l110 0 l-25 -16 l222 327 l103 0 l-237 -343 l-34 28 q65 -7 109.5 -43 q44.5 -36 76.5 -101 l124 -246 l-100 0 l-101 206 q-29 59 -67 84.5 q-38 25.5 -95 25.5 l-86 0 l0 -316 l-89 0 l0 316 l-86 0 q-58 0 -96.5 -25.5 q-38.5 -25.5 -66.5 -84.5 l-100 -206 l-101 0 Z" /><glyph glyph-name="uni0498" unicode="&#x498;" d="M283 -159 l0 200 l82 0 l0 -200 l-82 0 ZM318 -9 q-91 0 -162.5 24 q-71.5 24 -118.5 65 l33 71 q48 -40 107 -60 q59 -20 136 -20 q98 0 144 32.5 q46 32.5 46 95.5 q0 62 -39.5 91 q-39.5 29 -120.5 29 l-178 0 l0 76 l163 0 q78 0 118 30 q40 30 40 88 q0 56 -43 88.5 q-43 32.5 -129 32.5 q-65 0 -122.5 -19 q-57.5 -19 -104.5 -59 l-33 71 q47 43 118 65 q71 22 149 22 q127 0 192 -52 q65 -52 65 -139 q0 -66 -39.5 -110.5 q-39.5 -44.5 -106.5 -58.5 l0 14 q76 -10 119.5 -55 q43.5 -45 43.5 -119 q0 -62 -30.5 -108 q-30.5 -46 -92 -70.5 q-61.5 -24.5 -154.5 -24.5 Z" /><glyph glyph-name="uni049A" unicode="&#x49a;" d="M623 -159 l0 159 l-49 0 l0 76 l133 0 l0 -235 l-84 0 ZM86 0 l0 705 l92 0 l0 -311 l138 0 l-25 -16 l221 327 l105 0 l-238 -343 l-34 28 q64 -7 108.5 -43 q44.5 -36 78.5 -101 l123 -246 l-101 0 l-100 206 q-29 60 -67 85 q-38 25 -95 25 l-114 0 l0 -316 l-92 0 Z" /><glyph glyph-name="uni049C" unicode="&#x49c;" d="M86 0 l0 705 l93 0 l0 -311 l72 0 l0 167 l58 0 l0 -167 l27 0 l211 311 l103 0 l-236 -343 l-35 28 q64 -7 109 -43 q45 -36 78 -101 l124 -246 l-102 0 l-100 206 q-28 60 -66.5 85.5 q-38.5 25.5 -94.5 25.5 l-30 0 l12 9 l0 -175 l-58 0 l0 166 l-72 0 l0 -317 l-93 0 Z" /><glyph glyph-name="uni049E" unicode="&#x49e;" d="M133 0 l0 538 l-145 0 l0 67 l145 0 l0 100 l92 0 l0 -100 l142 0 l0 -67 l-142 0 l0 -144 l149 0 l-29 -23 l229 334 l104 0 l-244 -350 l-26 30 q53 -7 95 -40.5 q42 -33.5 75 -98.5 l124 -246 l-101 0 l-100 206 q-28 60 -66.5 85 q-38.5 25 -94.5 25 l-115 0 l0 -316 l-92 0 Z" /><glyph glyph-name="uni04A0" unicode="&#x4a0;" d="M11 627 l0 78 l311 0 l0 -78 l-311 0 ZM230 0 l0 705 l92 0 l0 -311 l138 0 l-25 -16 l221 327 l105 0 l-238 -343 l-34 28 q64 -7 108.5 -43 q44.5 -36 77.5 -101 l124 -246 l-101 0 l-100 206 q-29 60 -67 85 q-38 25 -95 25 l-114 0 l0 -316 l-92 0 Z" /><glyph glyph-name="uni04A2" unicode="&#x4a2;" d="M719 -159 l0 159 l-108 0 l0 76 l191 0 l0 -235 l-83 0 ZM86 0 l0 705 l93 0 l0 -308 l410 0 l0 308 l94 0 l0 -705 l-94 0 l0 318 l-410 0 l0 -318 l-93 0 Z" /><glyph glyph-name="uni04A4" unicode="&#x4a4;" d="M86 0 l0 705 l92 0 l0 -308 l411 0 l0 308 l353 0 l0 -78 l-261 0 l0 -627 l-92 0 l0 319 l-411 0 l0 -319 l-92 0 Z" /><glyph glyph-name="uni0524" unicode="&#x524;" d="M701 -159 l0 159 l-108 0 l0 76 l191 0 l0 -235 l-83 0 ZM86 0 l0 705 l595 0 l0 -705 l-92 0 l0 627 l-411 0 l0 -627 l-92 0 Z" /><glyph glyph-name="uni04A8" unicode="&#x4a8;" d="M399 -9 q-106 0 -181.5 43 q-75.5 43 -116.5 123.5 q-41 80.5 -41 192.5 q0 115 40.5 196.5 q40.5 81.5 115.5 124.5 q75 43 180 43 q22 0 40 -1.5 q18 -1.5 31 -4.5 l-11 -77 q-17 2 -31.5 3.5 q-14.5 1.5 -27.5 1.5 q-114 0 -177 -73.5 q-63 -73.5 -63 -209.5 q0 -139 63 -214 q63 -75 183 -75 q85 0 143.5 31.5 q58.5 31.5 89 90 q30.5 58.5 30.5 139.5 q0 74 -31 114 q-31 40 -85 40 q-53 0 -84 -40 q-31 -40 -31 -114 q0 -81 30.5 -139.5 q30.5 -58.5 89 -90 q58.5 -31.5 143.5 -31.5 q37 0 70.5 8.5 q33.5 8.5 64.5 24.5 l23 -71 q-29 -18 -69 -26.5 q-40 -8.5 -90 -8.5 q-76 0 -139.5 24.5 q-63.5 24.5 -110.5 70 q-47 45.5 -72.5 107 q-25.5 61.5 -25.5 134.5 q0 71 25 122 q25 51 70 78.5 q45 27.5 106 27.5 q62 0 107 -27.5 q45 -27.5 69.5 -78.5 q24.5 -51 24.5 -122 q0 -72 -26 -133.5 q-26 -61.5 -73 -107 q-47 -45.5 -111 -70.5 q-64 -25 -142 -25 Z" /><glyph glyph-name="uni04AA" unicode="&#x4aa;" d="M358 -159 l0 200 l82 0 l0 -200 l-82 0 ZM397 -9 q-106 0 -181.5 44 q-75.5 44 -115.5 125.5 q-40 81.5 -40 192.5 q0 111 40 192 q40 81 115.5 125 q75.5 44 181.5 44 q76 0 135 -22.5 q59 -22.5 103 -65.5 l-34 -75 q-48 42 -94.5 60.5 q-46.5 18.5 -107.5 18.5 q-117 0 -179 -72 q-62 -72 -62 -205 q0 -133 62 -205.5 q62 -72.5 179 -72.5 q61 0 107.5 18.5 q46.5 18.5 94.5 60.5 l34 -74 q-44 -43 -103.5 -66 q-59.5 -23 -134.5 -23 Z" /><glyph glyph-name="uni04AC" unicode="&#x4ac;" d="M368 -159 l0 159 l-113 0 l0 626 l-244 0 l0 79 l583 0 l0 -79 l-245 0 l0 -549 l102 0 l0 -236 l-83 0 Z" /><glyph glyph-name="uni04B2" unicode="&#x4b2;" d="M616 -159 l0 159 l-50 0 l0 76 l133 0 l0 -235 l-83 0 ZM5 0 l284 378 l0 -36 l-272 363 l110 0 l217 -296 l-29 0 l214 296 l111 0 l-272 -363 l0 36 l284 -378 l-111 0 l-230 314 l35 0 l-231 -314 l-110 0 Z" /><glyph glyph-name="uni04B4" unicode="&#x4b4;" d="M846 -159 l0 159 l-615 0 l0 627 l-220 0 l0 78 l521 0 l0 -78 l-209 0 l0 -548 l411 0 l0 626 l93 0 l0 -626 l103 0 l0 -238 l-84 0 Z" /><glyph glyph-name="uni04B6" unicode="&#x4b6;" d="M630 -159 l0 159 l-109 0 l0 76 l192 0 l0 -235 l-83 0 ZM518 0 l0 293 q-31 -16 -79.5 -25 q-48.5 -9 -96.5 -9 q-139 0 -212 72 q-73 72 -73 217 l0 157 l92 0 l0 -151 q0 -112 50.5 -163 q50.5 -51 151.5 -51 q45 0 87.5 8.5 q42.5 8.5 79.5 28.5 l0 328 l93 0 l0 -705 l-93 0 Z" /><glyph glyph-name="uni04B8" unicode="&#x4b8;" d="M519 0 l0 293 q-32 -16 -76 -25 q-44 -9 -87 -9 l16 15 l0 -164 l-61 0 l0 164 l14 -15 q-129 6 -198.5 75.5 q-69.5 69.5 -69.5 213.5 l0 157 l92 0 l0 -151 q0 -106 46 -157 q46 -51 135 -56 l-19 -11 l0 182 l61 0 l0 -182 l-19 10 q43 0 87 9 q44 9 79 28 l0 328 l92 0 l0 -705 l-92 0 Z" /><glyph glyph-name="uni04BA" unicode="&#x4ba;" d="M86 0 l0 705 l93 0 l0 -293 q31 17 79 26 q48 9 96 9 q140 0 213 -72 q73 -72 73 -218 l0 -157 l-92 0 l0 151 q0 112 -51 163.5 q-51 51.5 -152 51.5 q-44 0 -86.5 -8 q-42.5 -8 -79.5 -29 l0 -329 l-93 0 Z" /><glyph glyph-name="uni0526" unicode="&#x526;" d="M660 -159 l0 159 l-109 0 l0 76 l192 0 l0 -235 l-83 0 ZM86 0 l0 705 l93 0 l0 -293 q31 17 79 26 q48 9 96 9 q140 0 213 -72 q73 -72 73 -218 l0 -157 l-92 0 l0 151 q0 112 -51 163.5 q-51 51.5 -152 51.5 q-44 0 -86.5 -8 q-42.5 -8 -79.5 -29 l0 -329 l-93 0 Z" /><glyph glyph-name="uni04BC" unicode="&#x4bc;" d="M568 -9 q-160 0 -249 91 q-89 91 -94 250 l21 -20 l-43 0 q-93 0 -138.5 44.5 q-45.5 44.5 -45.5 130.5 l0 56 l90 0 l0 -54 q0 -54 24.5 -77.5 q24.5 -23.5 76.5 -23.5 l28 0 l-13 -18 q3 107 42.5 184 q39.5 77 110 118.5 q70.5 41.5 165.5 41.5 q112 0 181 -45 q69 -45 101.5 -127 q32.5 -82 32.5 -191 l0 -39 l-556 0 l18 33 q1 -132 65 -202 q64 -70 193 -70 q49 0 84.5 8 q35.5 8 66 26 q30.5 18 65.5 46 l35 -73 q-35 -29 -72.5 -49 q-37.5 -20 -83 -30 q-45.5 -10 -105.5 -10 ZM546 635 q-108 0 -166.5 -71.5 q-58.5 -71.5 -59.5 -204.5 l-18 28 l485 0 l-24 -35 q0 92 -21 155.5 q-21 63.5 -68.5 95.5 q-47.5 32 -127.5 32 Z" /><glyph glyph-name="uni04C3" unicode="&#x4c3;" d="M420 -189 q-29 0 -57 3.5 q-28 3.5 -47 10.5 l0 77 q19 -8 42.5 -12.5 q23.5 -4.5 50.5 -4.5 q65 0 99 41.5 q34 41.5 34 122.5 l0 54 q0 114 -53.5 165.5 q-53.5 51.5 -163.5 51.5 l-147 0 l0 -320 l-92 0 l0 705 l92 0 l0 -308 l145 0 l-28 -19 l222 327 l103 0 l-237 -343 l-12 32 q130 -6 197 -76.5 q67 -70.5 67 -208.5 l0 -57 q0 -78 -26 -132 q-26 -54 -74 -81.5 q-48 -27.5 -115 -27.5 Z" /><glyph glyph-name="uni04C5" unicode="&#x4c5;" d="M624 -159 l54 159 l-88 0 l0 76 l194 0 l-81 -235 l-79 0 ZM61 -15 l-45 71 q42 22 75 53 q33 31 55 79 q22 48 33.5 122 q11.5 74 11.5 182 l0 213 l488 0 l0 -705 l-93 0 l0 627 l-309 0 l0 -158 q0 -107 -14 -187 q-14 -80 -41.5 -137.5 q-27.5 -57.5 -68 -96 q-40.5 -38.5 -92.5 -63.5 Z" /><glyph glyph-name="uni04C7" unicode="&#x4c7;" d="M513 -187 q-17 0 -38 2 q-21 2 -43 7 l0 76 q20 -4 36.5 -6 q16.5 -2 29.5 -2 q46 0 68.5 27.5 q22.5 27.5 22.5 88.5 l0 312 l-410 0 l0 -318 l-93 0 l0 705 l93 0 l0 -308 l410 0 l0 308 l94 0 l0 -699 q0 -63 -18 -106 q-18 -43 -55.5 -65 q-37.5 -22 -96.5 -22 Z" /><glyph glyph-name="uni04C9" unicode="&#x4c9;" d="M645 -159 l54 159 l-88 0 l0 76 l194 0 l-81 -235 l-79 0 ZM86 0 l0 705 l93 0 l0 -308 l410 0 l0 308 l94 0 l0 -705 l-94 0 l0 318 l-410 0 l0 -318 l-93 0 Z" /><glyph glyph-name="uni04CB" unicode="&#x4cb;" d="M507 -159 l-85 0 l0 235 l146 0 l0 -76 l-61 0 l0 -159 ZM518 0 l0 293 q-31 -16 -79.5 -25 q-48.5 -9 -96.5 -9 q-139 0 -212 72 q-73 72 -73 217 l0 157 l92 0 l0 -151 q0 -112 50.5 -163 q50.5 -51 151.5 -51 q45 0 87.5 8.5 q42.5 8.5 79.5 28.5 l0 328 l93 0 l0 -705 l-93 0 Z" /><glyph glyph-name="uni04CD" unicode="&#x4cd;" d="M746 -159 l54 159 l-88 0 l0 76 l194 0 l-81 -235 l-79 0 ZM86 0 l0 705 l82 0 l278 -626 l-30 0 l278 626 l81 0 l0 -705 l-85 0 l0 581 l31 0 l-261 -581 l-59 0 l-261 581 l31 0 l0 -581 l-85 0 Z" /><glyph glyph-name="uni04E0" unicode="&#x4e0;" d="M318 -9 q-91 0 -163 24 q-72 24 -118 65 l35 71 q48 -40 108 -60 q60 -20 133 -20 q98 0 144 32.5 q46 32.5 46 94.5 q0 63 -42 92 q-42 29 -135 29 l-112 0 l0 62 l263 274 l0 -28 l-424 0 l0 78 l512 0 l0 -65 l-263 -273 l-12 26 l60 0 q116 0 180.5 -49 q64.5 -49 64.5 -143 q0 -99 -69 -154.5 q-69 -55.5 -208 -55.5 Z" /><glyph glyph-name="uni04E8" unicode="&#x4e8;" d="M109 322 l0 72 l569 0 l0 -72 l-569 0 ZM60 353 q0 111 39 192 q39 81 112.5 125 q73.5 44 175.5 44 q101 0 174.5 -44 q73.5 -44 113.5 -125 q40 -81 40 -191 q0 -111 -40 -192.5 q-40 -81.5 -113.5 -126 q-73.5 -44.5 -174.5 -44.5 q-102 0 -175 44.5 q-73 44.5 -112.5 126 q-39.5 81.5 -39.5 191.5 ZM158 353 q0 -132 58 -206 q58 -74 171 -74 q109 0 169.5 73.5 q60.5 73.5 60.5 206.5 q0 133 -60 206 q-60 73 -170 73 q-113 0 -171 -73 q-58 -73 -58 -206 Z" /><glyph glyph-name="uni04F6" unicode="&#x4f6;" d="M201 -159 l0 159 l-109 0 l0 76 l192 0 l0 -235 l-83 0 ZM86 0 l0 705 l459 0 l0 -78 l-366 0 l0 -627 l-93 0 Z" /><glyph glyph-name="uni04FA" unicode="&#x4fa;" d="M94 -183 l-7 65 l46 5 q56 5 79.5 32.5 q23.5 27.5 23.5 80.5 l-111 0 l0 317 l-100 0 l0 70 l100 0 l0 318 l459 0 l0 -78 l-366 0 l0 -240 l190 0 l0 -70 l-190 0 l0 -241 l102 0 l0 -63 q0 -93 -42.5 -140 q-42.5 -47 -132.5 -53 l-51 -3 Z" /><glyph glyph-name="uni04FC" unicode="&#x4fc;" d="M408 -185 l-5 74 q60 7 87.5 29.5 q27.5 22.5 27.5 67.5 q0 25 -16.5 58 q-16.5 33 -46.5 74 l-144 196 l35 0 l-231 -314 l-110 0 l284 378 l0 -36 l-272 363 l110 0 l217 -296 l-29 0 l214 296 l111 0 l-272 -363 l0 36 l170 -227 q39 -51 57 -92 q18 -41 18 -77 q0 -73 -50 -115 q-50 -42 -155 -52 Z" /><glyph glyph-name="uni0510" unicode="&#x510;" d="M333 -9 q-93 0 -154.5 24.5 q-61.5 24.5 -92 70.5 q-30.5 46 -30.5 108 q0 74 43.5 119 q43.5 45 119.5 55 l0 -14 q-67 14 -106.5 58.5 q-39.5 44.5 -39.5 110.5 q0 58 30.5 101 q30.5 43 88.5 66.5 q58 23.5 142 23.5 q79 0 147.5 -22 q68.5 -22 115.5 -65 l-33 -71 q-46 40 -103.5 59 q-57.5 19 -123.5 19 q-85 0 -128 -32.5 q-43 -32.5 -43 -88.5 q0 -58 40 -88 q40 -30 117 -30 l163 0 l0 -76 l-178 0 q-80 0 -120.5 -29 q-40.5 -29 -40.5 -91 q0 -63 46.5 -95.5 q46.5 -32.5 144.5 -32.5 q77 0 136 20 q59 20 107 60 l33 -71 q-46 -41 -118 -65 q-72 -24 -163 -24 Z" /><glyph glyph-name="uni0512" unicode="&#x512;" d="M509 -187 q-16 0 -37 2 q-21 2 -43 7 l0 76 q19 -4 35.5 -6 q16.5 -2 30.5 -2 q45 0 68 27 q23 27 23 88 l0 622 l-309 0 l0 -158 q0 -107 -14 -187 q-14 -80 -41.5 -137.5 q-27.5 -57.5 -68 -96 q-40.5 -38.5 -92.5 -63.5 l-45 71 q42 22 75 53 q33 31 55 79 q22 48 33.5 122 q11.5 74 11.5 182 l0 213 l488 0 l0 -699 q0 -63 -18 -106 q-18 -43 -55.5 -65 q-37.5 -22 -96.5 -22 Z" /><glyph glyph-name="uni048C" unicode="&#x48c;" d="M148 0 l0 534 l-148 0 l0 70 l148 0 l0 101 l89 0 l0 -101 l147 0 l0 -70 l-147 0 l0 -137 l215 0 q114 0 178 -49.5 q64 -49.5 64 -147.5 q0 -98 -64 -149 q-64 -51 -178 -51 l-304 0 ZM237 74 l205 0 q82 0 122 31 q40 31 40 94 q0 63 -40 93.5 q-40 30.5 -122 30.5 l-205 0 l0 -249 Z" /><glyph glyph-name="uni048E" unicode="&#x48e;" d="M86 0 l0 705 l286 0 q117 0 178 -55.5 q61 -55.5 61 -157.5 q0 -73 -33 -123.5 q-33 -50.5 -94 -71.5 l4 15 l58 -84 l-48 -33 l-69 102 l20 -11 q-16 -4 -35 -6 q-19 -2 -42 -2 l-194 0 l0 -278 l-92 0 ZM178 353 l183 0 q12 0 27 1 q15 1 26 4 l-17 -13 l-55 81 l46 31 l68 -98 l-19 6 q83 29 83 127 q0 138 -162 138 l-180 0 l0 -277 Z" /><glyph glyph-name="uni0528" unicode="&#x528;" d="M10 -187 q-17 0 -38 2 q-21 2 -43 7 l0 76 q19 -4 36 -6 q17 -2 30 -2 q46 0 69 27.5 q23 27.5 23 88.5 l0 699 l93 0 l0 -308 l410 0 l0 308 l93 0 l0 -705 l-93 0 l0 319 l-410 0 l0 -313 q0 -63 -18 -106 q-18 -43 -55.5 -65 q-37.5 -22 -96.5 -22 Z" /><glyph glyph-name="uni052E" unicode="&#x52e;" d="M699 -159 l0 159 l-109 0 l0 76 l191 0 l0 -235 l-82 0 ZM61 -15 l-45 71 q42 22 75 53 q33 31 55 79 q22 48 33.5 122 q11.5 74 11.5 182 l0 213 l488 0 l0 -705 l-93 0 l0 627 l-309 0 l0 -158 q0 -107 -14 -187 q-14 -80 -41.5 -137.5 q-27.5 -57.5 -68 -96 q-40.5 -38.5 -92.5 -63.5 Z" /><glyph glyph-name="uni0431" unicode="&#x431;" d="M297 -9 q-113 0 -179 71 q-66 71 -66 208 l0 87 q0 140 59 226 q59 86 183 116 l184 46 l27 -74 l-204 -49 q-55 -13 -91 -47 q-36 -34 -53.5 -80 q-17.5 -46 -17.5 -98 l0 -43 l-14 0 q12 45 38.5 78 q26.5 33 66.5 50.5 q40 17.5 88 17.5 q65 0 114 -30 q49 -30 76.5 -86.5 q27.5 -56.5 27.5 -134.5 q0 -80 -29.5 -138 q-29.5 -58 -83.5 -89 q-54 -31 -126 -31 ZM294 63 q70 0 110.5 46 q40.5 46 40.5 137 q0 89 -40.5 136 q-40.5 47 -110.5 47 q-70 0 -110.5 -46 q-40.5 -46 -40.5 -131 q0 -95 40.5 -142 q40.5 -47 110.5 -47 Z" /><glyph glyph-name="uni0432" unicode="&#x432;" d="M78 0 l0 503 l248 0 q89 0 132.5 -34 q43.5 -34 43.5 -98 q0 -48 -33 -80.5 q-33 -32.5 -86 -39.5 l0 13 q63 -2 99.5 -36.5 q36.5 -34.5 36.5 -88.5 q0 -64 -48.5 -101.5 q-48.5 -37.5 -135.5 -37.5 l-257 0 ZM164 60 l165 0 q51 0 78 21.5 q27 21.5 27 61.5 q0 41 -27 62 q-27 21 -78 21 l-165 0 l0 -166 ZM164 286 l154 0 q47 0 73 21 q26 21 26 58 q0 38 -26 58 q-26 20 -73 20 l-154 0 l0 -157 Z" /><glyph glyph-name="uni0433" unicode="&#x433;" d="M78 0 l0 503 l357 0 l0 -73 l-266 0 l0 -430 l-91 0 Z" /><glyph glyph-name="uni0491" unicode="&#x491;" d="M78 0 l0 503 l279 0 l0 115 l78 0 l0 -188 l-267 0 l0 -430 l-90 0 Z" /><glyph glyph-name="uni0434" unicode="&#x434;" d="M26 -130 l0 201 l55 0 q34 51 49.5 120 q15.5 69 15.5 164 l0 148 l361 0 l0 -432 l80 0 l0 -201 l-78 0 l0 130 l-404 0 l0 -130 l-79 0 ZM167 70 l255 0 l0 363 l-196 0 l0 -94 q0 -76 -15 -147.5 q-15 -71.5 -44 -121.5 Z" /><glyph glyph-name="uni0436" unicode="&#x436;" d="M0 0 l104 179 q23 37 42 59 q19 22 40.5 33.5 q21.5 11.5 50.5 14.5 l-22 -28 l-191 245 l100 0 l163 -208 l77 0 l0 208 l90 0 l0 -208 l76 0 l162 208 l101 0 l-191 -245 l-23 28 q29 -3 50.5 -14.5 q21.5 -11.5 41.5 -33.5 q20 -22 42 -59 l104 -179 l-97 0 l-91 155 q-16 27 -31 42 q-15 15 -33.5 21 q-18.5 6 -46.5 6 l-64 0 l0 -224 l-90 0 l0 224 l-65 0 q-28 0 -46.5 -6 q-18.5 -6 -33 -21 q-14.5 -15 -31.5 -42 l-90 -155 l-98 0 Z" /><glyph glyph-name="uni0437" unicode="&#x437;" d="M249 -9 q-66 0 -123 17 q-57 17 -94 48 l30 63 q37 -30 84 -45 q47 -15 102 -15 q72 0 104.5 21.5 q32.5 21.5 32.5 62.5 q0 39 -27 59 q-27 20 -79 20 l-122 0 l0 66 l111 0 q47 0 73.5 20.5 q26.5 20.5 26.5 56.5 q0 37 -30 58.5 q-30 21.5 -92 21.5 q-52 0 -95 -13.5 q-43 -13.5 -82 -40.5 l-29 59 q41 32 96 47 q55 15 120 15 q95 0 145.5 -36.5 q50.5 -36.5 50.5 -103.5 q0 -47 -32 -80.5 q-32 -33.5 -85 -40.5 l0 13 q60 -3 97 -36.5 q37 -33.5 37 -88.5 q0 -67 -56 -107.5 q-56 -40.5 -164 -40.5 Z" /><glyph glyph-name="uni0438" unicode="&#x438;" d="M78 0 l0 503 l83 0 l0 -417 l-27 0 l312 417 l76 0 l0 -503 l-83 0 l0 418 l28 0 l-313 -418 l-76 0 Z" /><glyph glyph-name="uni048B" unicode="&#x48b;" d="M461 -130 l47 130 l-68 0 l0 71 l170 0 l-72 -201 l-77 0 ZM78 0 l0 503 l83 0 l0 -417 l-27 0 l312 417 l76 0 l0 -503 l-83 0 l0 418 l28 0 l-313 -418 l-76 0 ZM300 549 q-43 0 -79 15 q-36 15 -61.5 43.5 q-25.5 28.5 -38.5 71.5 l52 19 q17 -48 48.5 -70.5 q31.5 -22.5 78.5 -22.5 q48 0 79 21 q31 21 53 71 l49 -18 q-25 -68 -72 -99 q-47 -31 -109 -31 Z" /><glyph glyph-name="uni043A" unicode="&#x43a;" d="M78 0 l0 503 l90 0 l0 -208 l91 0 l162 208 l99 0 l-188 -245 l-24 28 q29 -3 50 -14.5 q21 -11.5 40.5 -33.5 q19.5 -22 42.5 -59 l104 -179 l-98 0 l-91 155 q-15 27 -30 42 q-15 15 -33.5 21 q-18.5 6 -46.5 6 l-78 0 l0 -224 l-90 0 Z" /><glyph glyph-name="uni043B" unicode="&#x43b;" d="M54 -12 l-32 71 q35 16 58.5 38.5 q23.5 22.5 37 57.5 q13.5 35 19.5 87 q6 52 6 126 l0 135 l371 0 l0 -503 l-90 0 l0 432 l-197 0 l0 -66 q0 -116 -17.5 -191.5 q-17.5 -75.5 -55 -119.5 q-37.5 -44 -100.5 -67 Z" /><glyph glyph-name="uni043C" unicode="&#x43c;" d="M78 0 l0 503 l76 0 l185 -329 l186 329 l75 0 l0 -503 l-80 0 l0 401 l22 0 l-180 -320 l-45 0 l-180 321 l21 0 l0 -402 l-80 0 Z" /><glyph glyph-name="uni043D" unicode="&#x43d;" d="M78 0 l0 503 l90 0 l0 -208 l266 0 l0 208 l90 0 l0 -503 l-90 0 l0 223 l-266 0 l0 -223 l-90 0 Z" /><glyph glyph-name="uni043F" unicode="&#x43f;" d="M78 0 l0 503 l443 0 l0 -503 l-90 0 l0 432 l-263 0 l0 -432 l-90 0 Z" /><glyph glyph-name="uni0442" unicode="&#x442;" d="M186 0 l0 430 l-181 0 l0 73 l452 0 l0 -73 l-181 0 l0 -430 l-90 0 Z" /><glyph glyph-name="uni0444" unicode="&#x444;" d="M368 -216 l0 325 l10 0 q-15 -57 -52.5 -87.5 q-37.5 -30.5 -91.5 -30.5 q-54 0 -95.5 32 q-41.5 32 -64.5 90.5 q-23 58.5 -23 138.5 q0 80 22.5 138.5 q22.5 58.5 64 90 q41.5 31.5 96.5 31.5 q54 0 91.5 -30.5 q37.5 -30.5 52.5 -86.5 l-10 0 l0 341 l90 0 l0 -341 l-10 0 q16 56 53 86.5 q37 30.5 91 30.5 q55 0 96.5 -31.5 q41.5 -31.5 64 -90 q22.5 -58.5 22.5 -138.5 q0 -80 -22.5 -138.5 q-22.5 -58.5 -63.5 -90.5 q-41 -32 -97 -32 q-53 0 -90.5 30.5 q-37.5 30.5 -53.5 87.5 l10 0 l0 -325 l-90 0 ZM256 62 q53 0 83.5 48 q30.5 48 30.5 142 q0 92 -31 141 q-31 49 -83 49 q-53 0 -83.5 -49 q-30.5 -49 -30.5 -141 q0 -94 30.5 -142 q30.5 -48 83.5 -48 ZM570 62 q53 0 84 48 q31 48 31 142 q0 92 -31 141 q-31 49 -84 49 q-53 0 -83 -49 q-30 -49 -30 -141 q0 -94 30 -142 q30 -48 83 -48 Z" /><glyph glyph-name="uni0447" unicode="&#x447;" d="M401 0 l0 199 q-29 -16 -62 -24.5 q-33 -8.5 -70 -8.5 q-108 0 -159.5 50.5 q-51.5 50.5 -51.5 152.5 l0 134 l90 0 l0 -127 q0 -71 32.5 -102.5 q32.5 -31.5 101.5 -31.5 q35 0 63 7.5 q28 7.5 54 24.5 l0 229 l91 0 l0 -503 l-89 0 Z" /><glyph glyph-name="uni0446" unicode="&#x446;" d="M513 -130 l0 130 l-435 0 l0 503 l90 0 l0 -432 l252 0 l0 432 l90 0 l0 -432 l80 0 l0 -201 l-77 0 Z" /><glyph glyph-name="uni0448" unicode="&#x448;" d="M78 0 l0 503 l86 0 l0 -432 l205 0 l0 432 l86 0 l0 -432 l204 0 l0 432 l87 0 l0 -503 l-668 0 Z" /><glyph glyph-name="uni0449" unicode="&#x449;" d="M748 -130 l0 130 l-670 0 l0 503 l86 0 l0 -432 l205 0 l0 432 l86 0 l0 -432 l204 0 l0 432 l87 0 l0 -432 l79 0 l0 -201 l-77 0 Z" /><glyph glyph-name="uni045F" unicode="&#x45f;" d="M260 -130 l0 130 l-182 0 l0 503 l90 0 l0 -432 l263 0 l0 432 l90 0 l0 -503 l-183 0 l0 -130 l-78 0 Z" /><glyph glyph-name="uni044C" unicode="&#x44c;" d="M78 0 l0 503 l90 0 l0 -178 l148 0 q98 0 147.5 -41.5 q49.5 -41.5 49.5 -119.5 q0 -50 -23 -87 q-23 -37 -67 -57 q-44 -20 -107 -20 l-238 0 ZM168 63 l138 0 q59 0 90 24.5 q31 24.5 31 75.5 q0 51 -30.5 75 q-30.5 24 -90.5 24 l-138 0 l0 -199 Z" /><glyph glyph-name="uni044A" unicode="&#x44a;" d="M162 0 l0 430 l-157 0 l0 73 l247 0 l0 -178 l147 0 q98 0 148 -41.5 q50 -41.5 50 -119.5 q0 -50 -23 -87 q-23 -37 -67 -57 q-44 -20 -108 -20 l-237 0 ZM252 63 l138 0 q58 0 89.5 24.5 q31.5 24.5 31.5 75.5 q0 51 -31 75 q-31 24 -90 24 l-138 0 l0 -199 Z" /><glyph glyph-name="uni044B" unicode="&#x44b;" d="M78 0 l0 503 l90 0 l0 -178 l148 0 q98 0 147.5 -41.5 q49.5 -41.5 49.5 -119.5 q0 -50 -23 -87 q-23 -37 -67 -57 q-44 -20 -107 -20 l-238 0 ZM168 63 l138 0 q60 0 90.5 24.5 q30.5 24.5 30.5 75.5 q0 51 -30.5 75 q-30.5 24 -90.5 24 l-138 0 l0 -199 ZM586 0 l0 503 l90 0 l0 -503 l-90 0 Z" /><glyph glyph-name="uni0459" unicode="&#x459;" d="M54 -12 l-32 71 q35 16 58.5 38.5 q23.5 22.5 37 57.5 q13.5 35 19.5 87 q6 52 6 126 l0 135 l369 0 l0 -178 l148 0 q98 0 148 -41.5 q50 -41.5 50 -119.5 q0 -50 -23 -87 q-23 -37 -67.5 -57 q-44.5 -20 -107.5 -20 l-236 0 l0 432 l-197 0 l0 -66 q0 -116 -17.5 -191.5 q-17.5 -75.5 -55 -119.5 q-37.5 -44 -100.5 -67 ZM512 63 l139 0 q58 0 89 24.5 q31 24.5 31 75.5 q0 51 -30.5 75 q-30.5 24 -89.5 24 l-139 0 l0 -199 Z" /><glyph glyph-name="uni045A" unicode="&#x45a;" d="M78 0 l0 503 l90 0 l0 -208 l267 0 l0 208 l89 0 l0 -178 l148 0 q98 0 147.5 -41.5 q49.5 -41.5 49.5 -119.5 q0 -50 -22.5 -87 q-22.5 -37 -67 -57 q-44.5 -20 -107.5 -20 l-237 0 l0 223 l-267 0 l0 -223 l-90 0 ZM524 63 l139 0 q59 0 89.5 24.5 q30.5 24.5 30.5 75.5 q0 51 -30.5 75 q-30.5 24 -89.5 24 l-139 0 l0 -199 Z" /><glyph glyph-name="uni0454" unicode="&#x454;" d="M301 -9 q-76 0 -132 31.5 q-56 31.5 -86.5 91 q-30.5 59.5 -30.5 141.5 q0 81 31 138.5 q31 57.5 87.5 88 q56.5 30.5 133.5 30.5 q54 0 103.5 -17.5 q49.5 -17.5 77.5 -47.5 l-30 -60 q-30 29 -69.5 43 q-39.5 14 -78.5 14 q-55 0 -92 -22 q-37 -22 -56 -61 q-19 -39 -22 -91 l-11 19 l264 0 l0 -66 l-264 0 l11 20 q4 -89 47.5 -136 q43.5 -47 122.5 -47 q39 0 78.5 14 q39.5 14 69.5 42 l30 -59 q-29 -32 -79.5 -49 q-50.5 -17 -104.5 -17 Z" /><glyph glyph-name="uni044D" unicode="&#x44d;" d="M224 -9 q-55 0 -105.5 17.5 q-50.5 17.5 -78.5 48.5 l30 60 q29 -28 68.5 -42.5 q39.5 -14.5 79.5 -14.5 q77 0 121.5 47 q44.5 47 47.5 135 l11 -19 l-264 0 l0 66 l265 0 l-12 -19 q-3 52 -22 91 q-19 39 -55 61 q-36 22 -92 22 q-39 0 -78.5 -14 q-39.5 -14 -69.5 -43 l-30 60 q31 30 81.5 47.5 q50.5 17.5 103.5 17.5 q76 0 132 -30.5 q56 -30.5 86 -88.5 q30 -58 30 -140 q0 -81 -30.5 -140.5 q-30.5 -59.5 -86.5 -90.5 q-56 -31 -132 -31 Z" /><glyph glyph-name="uni044E" unicode="&#x44e;" d="M504 -9 q-103 0 -166.5 61.5 q-63.5 61.5 -72.5 170.5 l-98 0 l0 -223 l-89 0 l0 503 l89 0 l0 -208 l99 0 q13 102 76 159.5 q63 57.5 162 57.5 q74 0 128.5 -31 q54.5 -31 84.5 -89.5 q30 -58.5 30 -139.5 q0 -81 -30 -139.5 q-30 -58.5 -84.5 -90 q-54.5 -31.5 -128.5 -31.5 ZM504 63 q69 0 110 47.5 q41 47.5 41 141.5 q0 93 -41 140.5 q-41 47.5 -110 47.5 q-69 0 -110 -47.5 q-41 -47.5 -41 -140.5 q0 -94 41 -141.5 q41 -47.5 110 -47.5 Z" /><glyph glyph-name="uni044F" unicode="&#x44f;" d="M38 0 l79 137 q19 33 48 53.5 q29 20.5 61 20.5 l16 0 l-1 -9 q-85 0 -133 38.5 q-48 38.5 -48 111.5 q0 72 47 111.5 q47 39.5 140 39.5 l229 0 l0 -503 l-84 0 l0 190 l-72 0 q-39 0 -67 -19.5 q-28 -19.5 -46 -51.5 l-68 -119 l-101 0 ZM263 253 l129 0 l0 188 l-129 0 q-59 0 -87.5 -25 q-28.5 -25 -28.5 -69 q0 -45 28.5 -69.5 q28.5 -24.5 87.5 -24.5 Z" /><glyph glyph-name="uni0452" unicode="&#x452;" d="M327 -186 l-26 69 q52 12 80 33 q28 21 39 55 q11 34 11 84 l0 244 q0 70 -28 99.5 q-28 29.5 -84 29.5 q-67 0 -106.5 -40.5 q-39.5 -40.5 -39.5 -108.5 l0 -279 l-91 0 l0 579 l-95 0 l0 67 l95 0 l0 90 l91 0 l0 -90 l199 0 l0 -67 l-199 0 l0 -190 l-12 0 q21 54 69.5 84 q48.5 30 110.5 30 q90 0 135.5 -48.5 q45.5 -48.5 45.5 -150.5 l0 -246 q0 -66 -18 -114.5 q-18 -48.5 -60 -80.5 q-42 -32 -117 -49 Z" /><glyph glyph-name="uni0463" unicode="&#x463;" d="M162 0 l0 438 l-157 0 l0 65 l157 0 l0 233 l90 0 l0 -233 l168 0 l0 -65 l-168 0 l0 -124 l152 0 q94 0 143.5 -40 q49.5 -40 49.5 -116 q0 -76 -50 -117 q-50 -41 -143 -41 l-242 0 ZM252 59 l140 0 q58 0 88.5 24.5 q30.5 24.5 30.5 74.5 q0 50 -30.5 73.5 q-30.5 23.5 -88.5 23.5 l-140 0 l0 -196 Z" /><glyph glyph-name="uni046B" unicode="&#x46b;" d="M0 0 l104 172 q27 44 50 69 q23 25 52 36 q29 11 73 11 l72 0 l-12 -23 l-207 238 l552 0 l-206 -238 l-13 23 l73 0 q45 0 74 -11 q29 -11 52 -36.5 q23 -25.5 49 -68.5 l103 -172 l-97 0 l-91 147 q-16 28 -31 43 q-15 15 -33 21 q-18 6 -46 6 l-65 0 l0 -217 l-90 0 l0 217 l-65 0 q-27 0 -45.5 -6 q-18.5 -6 -33 -21 q-14.5 -15 -31.5 -43 l-91 -147 l-97 0 ZM408 284 l2 0 l154 184 l0 -27 l-312 0 l0 27 l156 -184 Z" /><glyph glyph-name="uni0475" unicode="&#x475;" d="M229 0 l-215 503 l98 0 l175 -432 l-28 0 l131 318 q19 47 42.5 74 q23.5 27 58.5 38 q35 11 87 11 l7 -73 q-49 0 -75 -19.5 q-26 -19.5 -47 -69.5 l-150 -350 l-84 0 Z" /><glyph glyph-name="uni0493" unicode="&#x493;" d="M103 0 l0 208 l-98 0 l0 66 l98 0 l0 229 l356 0 l0 -72 l-266 0 l0 -157 l150 0 l0 -66 l-150 0 l0 -208 l-90 0 Z" /><glyph glyph-name="uni0495" unicode="&#x495;" d="M330 -186 l-26 69 q53 12 80.5 33.5 q27.5 21.5 38 55 q10.5 33.5 10.5 83.5 l0 70 q0 71 -26.5 102.5 q-26.5 31.5 -87.5 31.5 q-68 0 -109.5 -41 q-41.5 -41 -41.5 -109 l0 -109 l-90 0 l0 503 l357 0 l0 -68 l-267 0 l0 -222 l-15 -1 q22 57 72 89 q50 32 117 32 q91 0 136 -50 q45 -50 45 -153 l0 -72 q0 -66 -17 -114.5 q-17 -48.5 -59 -80.5 q-42 -32 -117 -49 Z" /><glyph glyph-name="uni0497" unicode="&#x497;" d="M764 -130 l0 130 l-38 0 l0 71 l118 0 l0 -201 l-80 0 ZM0 0 l104 179 q23 37 42 59 q19 22 40.5 33.5 q21.5 11.5 50.5 14.5 l-22 -28 l-191 245 l100 0 l163 -208 l77 0 l0 208 l90 0 l0 -208 l76 0 l162 208 l101 0 l-191 -245 l-23 28 q29 -3 50.5 -14.5 q21.5 -11.5 41.5 -33.5 q20 -22 42 -59 l104 -179 l-97 0 l-91 155 q-16 27 -31 42 q-15 15 -33.5 21 q-18.5 6 -46.5 6 l-64 0 l0 -224 l-90 0 l0 224 l-65 0 q-28 0 -46.5 -6 q-18.5 -6 -33 -21 q-14.5 -15 -31.5 -42 l-90 -155 l-98 0 Z" /><glyph glyph-name="uni0499" unicode="&#x499;" d="M218 -130 l0 172 l75 0 l0 -172 l-75 0 ZM249 -9 q-66 0 -123 17 q-57 17 -94 48 l30 63 q37 -30 84 -45 q47 -15 102 -15 q72 0 104.5 21.5 q32.5 21.5 32.5 62.5 q0 39 -27 59 q-27 20 -79 20 l-122 0 l0 66 l111 0 q47 0 73.5 20.5 q26.5 20.5 26.5 56.5 q0 37 -30 58.5 q-30 21.5 -92 21.5 q-52 0 -95 -13.5 q-43 -13.5 -82 -40.5 l-29 59 q41 32 96 47 q55 15 120 15 q95 0 145.5 -36.5 q50.5 -36.5 50.5 -103.5 q0 -47 -32 -80.5 q-32 -33.5 -85 -40.5 l0 13 q60 -3 97 -36.5 q37 -33.5 37 -88.5 q0 -67 -56 -107.5 q-56 -40.5 -164 -40.5 Z" /><glyph glyph-name="uni049B" unicode="&#x49b;" d="M492 -130 l0 130 l-38 0 l0 71 l118 0 l0 -201 l-80 0 ZM78 0 l0 503 l90 0 l0 -208 l91 0 l162 208 l99 0 l-188 -245 l-24 28 q29 -3 50 -14.5 q21 -11.5 40.5 -33.5 q19.5 -22 42.5 -59 l104 -179 l-98 0 l-91 155 q-15 27 -30 42 q-15 15 -33.5 21 q-18.5 6 -46.5 6 l-78 0 l0 -224 l-90 0 Z" /><glyph glyph-name="uni049D" unicode="&#x49d;" d="M78 0 l0 503 l90 0 l0 -208 l56 0 l0 115 l59 0 l0 -115 l14 0 l161 208 l100 0 l-188 -245 l-25 28 q28 -3 49.5 -14.5 q21.5 -11.5 41.5 -33.5 q20 -22 43 -59 l104 -179 l-98 0 l-91 155 q-16 27 -31 42 q-15 15 -33.5 21 q-18.5 6 -45.5 6 l-16 0 l15 12 l0 -138 l-59 0 l0 126 l-56 0 l0 -224 l-90 0 Z" /><glyph glyph-name="uni049F" unicode="&#x49f;" d="M82 0 l0 579 l-95 0 l0 67 l95 0 l0 90 l91 0 l0 -90 l199 0 l0 -67 l-199 0 l0 -287 l91 0 l159 202 l100 0 l-188 -241 l-20 28 q28 -3 48 -13.5 q20 -10.5 39 -32.5 q19 -22 42 -60 l105 -175 l-98 0 l-91 153 q-16 27 -31 42 q-15 15 -33 21 q-18 6 -46 6 l-77 0 l0 -222 l-91 0 Z" /><glyph glyph-name="uni04A1" unicode="&#x4a1;" d="M162 0 l0 430 l-157 0 l0 73 l247 0 l0 -208 l91 0 l162 208 l99 0 l-188 -245 l-24 28 q29 -3 50 -14.5 q21 -11.5 40.5 -33.5 q19.5 -22 42.5 -59 l104 -179 l-98 0 l-91 155 q-16 27 -31 42 q-15 15 -33.5 21 q-18.5 6 -45.5 6 l-78 0 l0 -224 l-90 0 Z" /><glyph glyph-name="uni04A3" unicode="&#x4a3;" d="M527 -130 l0 130 l-88 0 l0 71 l166 0 l0 -201 l-78 0 ZM78 0 l0 503 l90 0 l0 -208 l266 0 l0 208 l90 0 l0 -503 l-90 0 l0 223 l-266 0 l0 -223 l-90 0 Z" /><glyph glyph-name="uni04A5" unicode="&#x4a5;" d="M78 0 l0 503 l90 0 l0 -208 l261 0 l0 208 l318 0 l0 -73 l-227 0 l0 -430 l-91 0 l0 223 l-261 0 l0 -223 l-90 0 Z" /><glyph glyph-name="uni0525" unicode="&#x525;" d="M523 -130 l0 130 l-87 0 l0 71 l165 0 l0 -201 l-78 0 ZM78 0 l0 503 l443 0 l0 -503 l-90 0 l0 432 l-263 0 l0 -432 l-90 0 Z" /><glyph glyph-name="uni04A9" unicode="&#x4a9;" d="M322 -9 q-128 0 -199 70.5 q-71 70.5 -71 193.5 q0 79 30.5 137 q30.5 58 85.5 89 q55 31 129 31 q31 0 58 -5 q27 -5 45 -15 l-19 -65 q-15 8 -37 12 q-22 4 -46 4 q-73 0 -115 -50 q-42 -50 -42 -138 q0 -95 49 -146.5 q49 -51.5 136 -51.5 q92 0 140 43.5 q48 43.5 48 119.5 q0 48 -20.5 75.5 q-20.5 27.5 -57.5 27.5 q-35 0 -56.5 -27.5 q-21.5 -27.5 -21.5 -75.5 q0 -53 22 -90 q22 -37 64.5 -55 q42.5 -18 102.5 -18 q33 0 62.5 7.5 q29.5 7.5 54.5 21.5 l18 -65 q-57 -30 -130 -30 q-57 0 -106.5 17 q-49.5 17 -85.5 48 q-36 31 -56.5 74 q-20.5 43 -20.5 92 q0 76 42 120.5 q42 44.5 111 44.5 q70 0 111.5 -44.5 q41.5 -44.5 41.5 -120.5 q0 -50 -20.5 -93 q-20.5 -43 -57.5 -73.5 q-37 -30.5 -85 -47.5 q-48 -17 -104 -17 Z" /><glyph glyph-name="uni04AB" unicode="&#x4ab;" d="M254 -130 l0 172 l75 0 l0 -172 l-75 0 ZM298 -9 q-75 0 -130.5 31.5 q-55.5 31.5 -85.5 91 q-30 59.5 -30 141.5 q0 81 30.5 138.5 q30.5 57.5 85.5 88 q55 30.5 130 30.5 q48 0 94 -16.5 q46 -16.5 76 -47.5 l-31 -64 q-29 28 -64 41.5 q-35 13.5 -69 13.5 q-75 0 -117 -47.5 q-42 -47.5 -42 -137.5 q0 -91 42 -140 q42 -49 117 -49 q32 0 67.5 13 q35.5 13 65.5 41 l31 -63 q-31 -32 -77 -48.5 q-46 -16.5 -93 -16.5 Z" /><glyph glyph-name="uni04AD" unicode="&#x4ad;" d="M278 -130 l0 130 l-88 0 l0 71 l166 0 l0 -201 l-78 0 ZM186 0 l0 430 l-181 0 l0 73 l452 0 l0 -73 l-181 0 l0 -430 l-90 0 Z" /><glyph glyph-name="uni04AF" unicode="&#x4af;" d="M223 -216 l0 221 l-213 498 l97 0 l176 -432 l-28 0 l178 432 l93 0 l-213 -494 l0 -225 l-90 0 Z" /><glyph glyph-name="uni04B1" unicode="&#x4b1;" d="M223 -191 l0 146 l-127 0 l0 66 l130 0 l0 -23 l-216 505 l97 0 l176 -432 l-28 0 l178 432 l93 0 l-215 -501 l-1 19 l130 0 l0 -66 l-127 0 l0 -146 l-90 0 Z" /><glyph glyph-name="uni04B3" unicode="&#x4b3;" d="M490 -130 l0 130 l-38 0 l0 71 l118 0 l0 -201 l-80 0 ZM12 0 l227 282 l0 -45 l-215 266 l109 0 l157 -201 l-32 0 l156 201 l109 0 l-213 -264 l0 41 l226 -280 l-110 0 l-169 215 l33 0 l-170 -215 l-108 0 Z" /><glyph glyph-name="uni04B5" unicode="&#x4b5;" d="M614 -130 l0 130 l-452 0 l0 430 l-157 0 l0 73 l402 0 l0 -73 l-155 0 l0 -359 l270 0 l0 432 l90 0 l0 -432 l80 0 l0 -201 l-78 0 Z" /><glyph glyph-name="uni04B7" unicode="&#x4b7;" d="M492 -130 l0 130 l-88 0 l0 71 l166 0 l0 -201 l-78 0 ZM401 0 l0 199 q-29 -16 -62 -24.5 q-33 -8.5 -70 -8.5 q-108 0 -159.5 50.5 q-51.5 50.5 -51.5 152.5 l0 134 l90 0 l0 -127 q0 -71 32.5 -102.5 q32.5 -31.5 101.5 -31.5 q35 0 63 7.5 q28 7.5 54 24.5 l0 229 l91 0 l0 -503 l-89 0 Z" /><glyph glyph-name="uni04B9" unicode="&#x4b9;" d="M419 0 l0 200 q-27 -14 -58 -22.5 q-31 -8.5 -59 -9.5 l16 16 l0 -116 l-59 0 l0 116 l20 -17 q-112 0 -166.5 51 q-54.5 51 -54.5 151 l0 134 l90 0 l0 -128 q0 -70 33 -101.5 q33 -31.5 98 -32.5 l-20 -12 l0 140 l59 0 l0 -140 l-17 11 q32 1 61 8.5 q29 7.5 57 24.5 l0 230 l90 0 l0 -503 l-90 0 Z" /><glyph glyph-name="uni0527" unicode="&#x527;" d="M523 -130 l0 130 l-88 0 l0 71 l166 0 l0 -201 l-78 0 ZM82 0 l0 736 l91 0 l0 -342 l-14 0 q22 58 71.5 88 q49.5 30 113.5 30 q90 0 134 -49 q44 -49 44 -148 l0 -315 l-91 0 l0 310 q0 67 -26.5 97.5 q-26.5 30.5 -85.5 30.5 q-66 0 -106 -41 q-40 -41 -40 -109 l0 -288 l-91 0 Z" /><glyph glyph-name="uni04BD" unicode="&#x4bd;" d="M421 -9 q-120 0 -190 69.5 q-70 69.5 -69 196.5 l8 -16 l-19 0 q-70 0 -102 33.5 q-32 33.5 -32 96.5 l0 37 l75 0 l0 -37 q0 -39 15 -57.5 q15 -18.5 53 -18.5 l27 0 l-25 -26 q4 74 35.5 128.5 q31.5 54.5 84 84.5 q52.5 30 121.5 30 q70 0 117.5 -29.5 q47.5 -29.5 72.5 -83.5 q25 -54 25 -128 l0 -30 l-379 0 l11 18 q-1 -99 43.5 -147.5 q44.5 -48.5 128.5 -48.5 q45 0 84 13 q39 13 75 43 l30 -63 q-34 -31 -84.5 -48 q-50.5 -17 -105.5 -17 ZM403 446 q-48 0 -81.5 -22.5 q-33.5 -22.5 -51 -61.5 q-17.5 -39 -19.5 -90 l-12 23 l317 0 l-17 -13 q0 78 -34.5 121 q-34.5 43 -101.5 43 Z" /><glyph glyph-name="uni04C4" unicode="&#x4c4;" d="M319 -186 l-26 69 q53 12 80.5 33 q27.5 21 38 54.5 q10.5 33.5 10.5 81.5 l0 30 q0 74 -35.5 108 q-35.5 34 -104.5 34 l-114 0 l0 -224 l-90 0 l0 503 l90 0 l0 -208 l91 0 l162 208 l99 0 l-191 -245 l-35 35 q102 0 160 -51.5 q58 -51.5 58 -154.5 l0 -34 q0 -64 -17 -111 q-17 -47 -59 -79 q-42 -32 -117 -49 Z" /><glyph glyph-name="uni04C6" unicode="&#x4c6;" d="M450 -130 l47 130 l-68 0 l0 71 l170 0 l-72 -201 l-77 0 ZM54 -12 l-32 71 q35 16 58.5 38.5 q23.5 22.5 37 57.5 q13.5 35 19.5 87 q6 52 6 126 l0 135 l371 0 l0 -503 l-90 0 l0 432 l-197 0 l0 -66 q0 -116 -17.5 -191.5 q-17.5 -75.5 -55 -119.5 q-37.5 -44 -100.5 -67 Z" /><glyph glyph-name="uni04C8" unicode="&#x4c8;" d="M303 -193 l-6 69 l46 4 q46 4 69 30.5 q23 26.5 23 76.5 l0 236 l-267 0 l0 -223 l-90 0 l0 503 l90 0 l0 -208 l267 0 l0 208 l89 0 l0 -506 q0 -59 -18 -99 q-18 -40 -57 -62 q-39 -22 -101 -26 l-45 -3 Z" /><glyph glyph-name="uni04CA" unicode="&#x4ca;" d="M460 -130 l47 130 l-68 0 l0 71 l171 0 l-72 -201 l-78 0 ZM78 0 l0 503 l90 0 l0 -208 l266 0 l0 208 l90 0 l0 -503 l-90 0 l0 223 l-266 0 l0 -223 l-90 0 Z" /><glyph glyph-name="uni04CC" unicode="&#x4cc;" d="M399 -130 l-78 0 l0 186 l149 0 l0 -56 l-71 0 l0 -130 ZM401 0 l0 199 q-29 -16 -62 -24.5 q-33 -8.5 -70 -8.5 q-108 0 -159.5 50.5 q-51.5 50.5 -51.5 152.5 l0 134 l90 0 l0 -127 q0 -71 32.5 -102.5 q32.5 -31.5 101.5 -31.5 q35 0 63 7.5 q28 7.5 54 24.5 l0 229 l91 0 l0 -503 l-89 0 Z" /><glyph glyph-name="uni04CE" unicode="&#x4ce;" d="M541 -130 l47 130 l-68 0 l0 71 l170 0 l-72 -201 l-77 0 ZM78 0 l0 503 l76 0 l185 -329 l186 329 l75 0 l0 -503 l-80 0 l0 401 l22 0 l-180 -320 l-45 0 l-180 321 l21 0 l0 -402 l-80 0 Z" /><glyph glyph-name="uni04E1" unicode="&#x4e1;" d="M234 -189 q-68 0 -124.5 16.5 q-56.5 16.5 -94.5 46.5 l30 65 q37 -28 82 -42 q45 -14 99 -14 q82 0 123 36.5 q41 36.5 41 106.5 q0 63 -40.5 96.5 q-40.5 33.5 -116.5 33.5 l-105 0 l0 44 l236 253 l0 -22 l-330 0 l0 72 l415 0 l0 -60 l-230 -246 l-22 24 l61 0 q105 0 164 -50 q59 -50 59 -141 q0 -68 -29.5 -117 q-29.5 -49 -85 -75.5 q-55.5 -26.5 -132.5 -26.5 Z" /><glyph glyph-name="uni04E9" unicode="&#x4e9;" d="M293 -9 q-74 0 -128 31.5 q-54 31.5 -83.5 90 q-29.5 58.5 -29.5 139.5 q0 80 29.5 138.5 q29.5 58.5 84 90 q54.5 31.5 127.5 31.5 q74 0 128.5 -31.5 q54.5 -31.5 84.5 -90 q30 -58.5 30 -138.5 q0 -81 -30 -139.5 q-30 -58.5 -84.5 -90 q-54.5 -31.5 -128.5 -31.5 ZM293 63 q73 0 114.5 49 q41.5 49 41.5 140 q0 91 -41.5 139 q-41.5 48 -114.5 48 q-73 0 -114 -48 q-41 -48 -41 -139 q0 -91 41 -140 q41 -49 114 -49 ZM106 221 l0 62 l376 0 l0 -62 l-376 0 Z" /><glyph glyph-name="uni04F7" unicode="&#x4f7;" d="M171 -130 l0 130 l-88 0 l0 71 l166 0 l0 -201 l-78 0 ZM78 0 l0 503 l357 0 l0 -73 l-266 0 l0 -430 l-91 0 Z" /><glyph glyph-name="uni04FB" unicode="&#x4fb;" d="M75 -183 l-5 66 l47 5 q42 3 59.5 31 q17.5 28 17.5 81 l-91 0 l0 214 l-98 0 l0 64 l98 0 l0 225 l356 0 l0 -72 l-265 0 l0 -153 l149 0 l0 -64 l-149 0 l0 -157 l81 0 l0 -44 q0 -93 -39.5 -140 q-39.5 -47 -108.5 -52 l-52 -4 Z" /><glyph glyph-name="uni04FD" unicode="&#x4fd;" d="M336 -185 l-15 66 q54 6 80.5 24.5 q26.5 18.5 26.5 54.5 q0 25 -15.5 51.5 q-15.5 26.5 -52.5 72.5 l-103 132 l32 0 l-171 -216 l-106 0 l226 282 l0 -45 l-214 266 l108 0 l157 -201 l-31 0 l156 201 l107 0 l-212 -264 l0 40 l124 -153 q31 -38 49.5 -66 q18.5 -28 26.5 -51.5 q8 -23.5 8 -50.5 q0 -40 -20 -70.5 q-20 -30.5 -60 -49 q-40 -18.5 -101 -23.5 Z" /><glyph glyph-name="uni0511" unicode="&#x511;" d="M264 -9 q-108 0 -164 40.5 q-56 40.5 -56 107.5 q0 55 37.5 88.5 q37.5 33.5 97.5 36.5 l-1 -13 q-52 7 -84 40 q-32 33 -32 81 q0 67 55.5 103.5 q55.5 36.5 148.5 36.5 q59 0 112.5 -15 q53.5 -15 94.5 -47 l-29 -60 q-38 27 -80.5 40.5 q-42.5 13.5 -90.5 13.5 q-62 0 -94 -21.5 q-32 -21.5 -32 -59.5 q0 -35 25.5 -55 q25.5 -20 71.5 -20 l112 0 l0 -66 l-121 0 q-52 0 -79 -19.5 q-27 -19.5 -27 -58.5 q0 -40 32.5 -62.5 q32.5 -22.5 103.5 -22.5 q54 0 102 15 q48 15 84 44 l29 -62 q-35 -31 -92 -48 q-57 -17 -124 -17 Z" /><glyph glyph-name="uni0513" unicode="&#x513;" d="M293 -193 l-6 69 l45 4 q46 4 69 30.5 q23 26.5 23 76.5 l0 445 l-197 0 l0 -66 q0 -116 -17.5 -191.5 q-17.5 -75.5 -55 -119.5 q-37.5 -44 -100.5 -67 l-32 71 q35 16 58.5 38.5 q23.5 22.5 37 57.5 q13.5 35 19.5 87 q6 52 6 126 l0 135 l371 0 l0 -506 q0 -59 -18.5 -99 q-18.5 -40 -57.5 -62 q-39 -22 -100 -26 l-45 -3 Z" /><glyph glyph-name="uni048F" unicode="&#x48f;" d="M82 -216 l0 600 q0 29 -2.5 59 q-2.5 30 -5.5 60 l87 0 l11 -116 l-12 0 q17 58 66 91.5 q49 33.5 116 33.5 q67 0 116.5 -31 q49.5 -31 77.5 -89.5 q28 -58.5 28 -139.5 q0 -75 -23.5 -131 q-23.5 -56 -66.5 -88 l4 14 l51 -63 l-41 -31 l-53 67 l15 -1 q-45 -28 -108 -28 q-67 0 -116 33.5 q-49 33.5 -65 90.5 l12 0 l0 -331 l-91 0 ZM321 439 q-68 0 -109 -47 q-41 -47 -41 -140 q0 -93 41 -141.5 q41 -48.5 109 -47.5 q45 2 77 21 l-3 -12 l-58 73 l41 30 l60 -77 l-15 6 q49 47 49 148 q0 93 -41 140 q-41 47 -110 47 Z" /><glyph glyph-name="uni0529" unicode="&#x529;" d="M-53 -193 l-6 69 l45 4 q46 4 69 30.5 q23 26.5 23 76.5 l0 516 l90 0 l0 -208 l267 0 l0 208 l89 0 l0 -503 l-89 0 l0 223 l-267 0 l0 -226 q0 -59 -18.5 -99 q-18.5 -40 -57.5 -62 q-39 -22 -100 -26 l-45 -3 Z" /><glyph glyph-name="uni052F" unicode="&#x52f;" d="M517 -130 l0 130 l-88 0 l0 71 l166 0 l0 -201 l-78 0 ZM54 -12 l-32 71 q35 16 58.5 38.5 q23.5 22.5 37 57.5 q13.5 35 19.5 87 q6 52 6 126 l0 135 l371 0 l0 -503 l-90 0 l0 432 l-197 0 l0 -66 q0 -116 -17.5 -191.5 q-17.5 -75.5 -55 -119.5 q-37.5 -44 -100.5 -67 Z" /><glyph glyph-name="uni0394" unicode="&#x394;" d="M34 0 l0 55 l293 650 l78 0 l293 -650 l0 -55 l-664 0 ZM365 602 l-247 -561 l0 35 l497 0 l0 -35 l-248 561 l-2 0 Z" /><glyph glyph-name="Sigma" unicode="&#x3a3;" d="M51 -180 l0 66 l279 393 l0 -32 l-279 392 l0 66 l510 0 l0 -79 l-410 0 l0 23 l254 -359 l0 -55 l-254 -359 l0 23 l410 0 l0 -79 l-510 0 Z" /><glyph glyph-name="uni03A9" unicode="&#x3a9;" d="M39 0 l0 77 l243 0 l0 -23 q-118 64 -173.5 149.5 q-55.5 85.5 -55.5 195.5 q0 98 42 168.5 q42 70.5 119.5 108.5 q77.5 38 181.5 38 q76 0 139 -21.5 q63 -21.5 108.5 -62.5 q45.5 -41 70 -99 q24.5 -58 24.5 -132 q0 -110 -55.5 -195.5 q-55.5 -85.5 -173.5 -149.5 l0 23 l244 0 l0 -77 l-301 0 l0 74 q99 66 144 144 q45 78 45 171 q0 117 -65.5 180 q-65.5 63 -179.5 63 q-118 0 -182 -63.5 q-64 -63.5 -64 -179.5 q0 -93 45.5 -171 q45.5 -78 143.5 -144 l0 -74 l-300 0 Z" /><glyph glyph-name="uni03BC" unicode="&#x3bc;" d="M73 -216 l0 719 l91 0 l0 -310 q0 -66 27 -97 q27 -31 83 -31 q63 0 101.5 41.5 q38.5 41.5 38.5 110.5 l0 286 l91 0 l0 -503 l-88 0 l0 111 l7 0 q-16 -57 -57 -88.5 q-41 -31.5 -94 -31.5 q-44 0 -75 15.5 q-31 15.5 -49 56.5 l10 0 l5 -279 l-91 0 Z" /><glyph glyph-name="pi" unicode="&#x3c0;" d="M35 0 q23 66 38.5 134.5 q15.5 68.5 24 142.5 q8.5 74 9.5 156 l-102 0 l0 70 l557 0 l0 -70 l-115 0 l0 -251 q0 -53 26 -81 q26 -28 80 -33 l41 -3 l-7 -72 l-47 3 q-49 3 -84 16 q-35 13 -57 37 q-22 24 -32.5 59 q-10.5 35 -10.5 82 l0 243 l-159 0 q-1 -91 -8.5 -167.5 q-7.5 -76.5 -22.5 -142 q-15 -65.5 -36 -123.5 l-95 0 Z" /><glyph glyph-name="zero" unicode="0" d="M300 -9 q-121 0 -186 93.5 q-65 93.5 -65 268.5 q0 178 65 269.5 q65 91.5 186 91.5 q122 0 186.5 -91.5 q64.5 -91.5 64.5 -268.5 q0 -176 -65 -269.5 q-65 -93.5 -186 -93.5 ZM300 70 q80 0 119.5 69 q39.5 69 39.5 215 q0 146 -39.5 213.5 q-39.5 67.5 -119.5 67.5 q-79 0 -119 -67.5 q-40 -67.5 -40 -213.5 q0 -146 40 -215 q40 -69 119 -69 Z" /><glyph glyph-name="one" unicode="1" d="M124 0 l0 79 l165 0 l0 547 l47 0 l-197 -122 l0 91 l176 110 l67 0 l0 -626 l155 0 l0 -79 l-413 0 Z" /><glyph glyph-name="two" unicode="2" d="M85 0 l0 69 l246 258 q48 49 71.5 94 q23.5 45 23.5 93 q0 59 -36.5 89.5 q-36.5 30.5 -106.5 30.5 q-54 0 -101.5 -19.5 q-47.5 -19.5 -90.5 -59.5 l-33 71 q41 40 103.5 64 q62.5 24 131.5 24 q108 0 167 -49.5 q59 -49.5 59 -141.5 q0 -67 -32.5 -127.5 q-32.5 -60.5 -95.5 -124.5 l-215 -218 l0 26 l372 0 l0 -79 l-463 0 Z" /><glyph glyph-name="three" unicode="3" d="M295 -9 q-72 0 -137.5 22 q-65.5 22 -109.5 62 l33 72 q49 -40 101 -58 q52 -18 110 -18 q77 0 117 32.5 q40 32.5 40 93.5 q0 60 -40.5 91 q-40.5 31 -118.5 31 l-108 0 l0 77 l101 0 q66 0 106 34 q40 34 40 93 q0 54 -36.5 82.5 q-36.5 28.5 -103.5 28.5 q-113 0 -196 -79 l-33 71 q42 42 104 65 q62 23 131 23 q105 0 165 -48 q60 -48 60 -134 q0 -65 -36.5 -111.5 q-36.5 -46.5 -99.5 -61.5 l0 11 q74 -13 115 -60.5 q41 -47.5 41 -118.5 q0 -93 -65.5 -146.5 q-65.5 -53.5 -179.5 -53.5 Z" /><glyph glyph-name="four" unicode="4" d="M379 0 l0 149 l-331 0 l0 67 l346 489 l76 0 l0 -482 l106 0 l0 -74 l-106 0 l0 -149 l-91 0 ZM379 223 l0 372 l23 0 l-279 -394 l0 22 l256 0 Z" /><glyph glyph-name="five" unicode="5" d="M312 -9 q-46 0 -90.5 10 q-44.5 10 -83.5 28.5 q-39 18.5 -68 45.5 l33 72 q49 -39 100 -57.5 q51 -18.5 107 -18.5 q74 0 116 39 q42 39 42 104 q0 67 -40 108.5 q-40 41.5 -111 41.5 q-49 0 -88.5 -19.5 q-39.5 -19.5 -69.5 -61.5 l-66 0 l0 422 l423 0 l0 -79 l-333 0 l0 -267 l-24 0 q27 40 73.5 62 q46.5 22 104.5 22 q68 0 117.5 -28 q49.5 -28 77 -78.5 q27.5 -50.5 27.5 -117.5 q0 -67 -30 -118.5 q-30 -51.5 -85.5 -80.5 q-55.5 -29 -131.5 -29 Z" /><glyph glyph-name="six" unicode="6" d="M323 -9 q-129 0 -199 91 q-70 91 -70 254 q0 122 35.5 206 q35.5 84 101.5 128 q66 44 158 44 q56 0 112 -22 q56 -22 93 -61 l-34 -72 q-37 38 -81.5 56.5 q-44.5 18.5 -90.5 18.5 q-99 0 -151.5 -70.5 q-52.5 -70.5 -52.5 -209.5 l0 -89 l-10 0 q7 56 34.5 96 q27.5 40 71 62 q43.5 22 98.5 22 q63 0 112 -29 q49 -29 77 -79 q28 -50 28 -116 q0 -66 -30 -118.5 q-30 -52.5 -82 -82 q-52 -29.5 -120 -29.5 ZM318 68 q44 0 77.5 19 q33.5 19 52 53 q18.5 34 18.5 78 q0 44 -18.5 78 q-18.5 34 -52 53 q-33.5 19 -77.5 19 q-44 0 -77.5 -19 q-33.5 -19 -52.5 -53 q-19 -34 -19 -78 q0 -44 19 -78 q19 -34 52.5 -53 q33.5 -19 77.5 -19 Z" /><glyph glyph-name="seven" unicode="7" d="M106 0 l347 663 l0 -38 l-390 0 l0 80 l475 0 l0 -69 l-329 -636 l-103 0 Z" /><glyph glyph-name="eight" unicode="8" d="M300 -9 q-122 0 -189 52 q-67 52 -67 145 q0 73 45.5 121.5 q45.5 48.5 118.5 58.5 l0 -16 q-67 14 -106.5 61 q-39.5 47 -39.5 113 q0 88 63.5 138 q63.5 50 174.5 50 q112 0 175.5 -50 q63.5 -50 63.5 -138 q0 -66 -37.5 -114 q-37.5 -48 -103.5 -60 l0 16 q73 -10 115.5 -58.5 q42.5 -48.5 42.5 -121.5 q0 -93 -66.5 -145 q-66.5 -52 -189.5 -52 ZM300 66 q85 0 126.5 32 q41.5 32 41.5 95 q0 64 -41.5 95 q-41.5 31 -126.5 31 q-84 0 -126 -31 q-42 -31 -42 -95 q0 -63 42 -95 q42 -32 126 -32 ZM300 395 q73 0 111.5 32.5 q38.5 32.5 38.5 90.5 q0 57 -38.5 89 q-38.5 32 -111.5 32 q-72 0 -111 -32 q-39 -32 -39 -89 q0 -58 39 -90.5 q39 -32.5 111 -32.5 Z" /><glyph glyph-name="nine" unicode="9" d="M252 -9 q-56 0 -112 23 q-56 23 -93 61 l34 71 q37 -37 81.5 -56 q44.5 -19 90.5 -19 q98 0 151 70.5 q53 70.5 53 209.5 l0 89 l10 0 q-6 -55 -34.5 -95.5 q-28.5 -40.5 -71.5 -62.5 q-43 -22 -98 -22 q-63 0 -112 29 q-49 29 -77 79.5 q-28 50.5 -28 115.5 q0 67 29.5 119 q29.5 52 81.5 81.5 q52 29.5 120 29.5 q130 0 200 -90.5 q70 -90.5 70 -254.5 q0 -121 -35.5 -205.5 q-35.5 -84.5 -101.5 -128.5 q-66 -44 -158 -44 ZM283 337 q44 0 77.5 19 q33.5 19 52.5 53 q19 34 19 78 q0 45 -19 78.5 q-19 33.5 -52.5 53 q-33.5 19.5 -77.5 19.5 q-44 0 -77.5 -19.5 q-33.5 -19.5 -52 -53 q-18.5 -33.5 -18.5 -78.5 q0 -44 18.5 -78 q18.5 -34 52 -53 q33.5 -19 77.5 -19 Z" /><glyph glyph-name="fraction" unicode="&#x2044;" d="M-84 -9 l-81 0 l428 723 l80 0 l-427 -723 Z" /><glyph glyph-name="period" unicode="." d="M61 0 l0 111 l111 0 l0 -111 l-111 0 Z" /><glyph glyph-name="comma" unicode="," d="M107 -119 l-41 32 q28 29 38 54.5 q10 25.5 10 52.5 l20 -20 l-73 0 l0 111 l111 0 l0 -77 q0 -43 -14 -79.5 q-14 -36.5 -51 -73.5 Z" /><glyph glyph-name="colon" unicode=":" d="M61 393 l0 110 l111 0 l0 -110 l-111 0 ZM61 0 l0 111 l111 0 l0 -111 l-111 0 Z" /><glyph glyph-name="semicolon" unicode=";" d="M107 -119 l-41 32 q28 29 38 54.5 q10 25.5 10 52.5 l26 -20 l-79 0 l0 111 l111 0 l0 -77 q0 -43 -14 -79.5 q-14 -36.5 -51 -73.5 ZM61 393 l0 110 l111 0 l0 -110 l-111 0 Z" /><glyph glyph-name="exclam" unicode="!" d="M88 190 l-28 515 l113 0 l-29 -515 l-56 0 ZM61 0 l0 111 l111 0 l0 -111 l-111 0 Z" /><glyph glyph-name="exclamdown" unicode="¡" d="M60 -180 l28 494 l56 0 l29 -494 l-113 0 ZM61 393 l0 110 l111 0 l0 -110 l-111 0 Z" /><glyph glyph-name="question" unicode="?" d="M172 190 l0 32 q0 49 19 92.5 q19 43.5 68 97.5 q38 41 53 72.5 q15 31.5 15 63.5 q0 41 -30 64 q-30 23 -82 23 q-39 0 -75.5 -10.5 q-36.5 -10.5 -69.5 -29.5 l0 83 q33 17 74 26.5 q41 9.5 81 9.5 q58 0 102 -18 q44 -18 68.5 -52.5 q24.5 -34.5 24.5 -86.5 q0 -32 -10.5 -62 q-10.5 -30 -31 -59 q-20.5 -29 -53.5 -62 q-49 -49 -68.5 -85 q-19.5 -36 -24.5 -74 l-3 -25 l-57 0 ZM145 0 l0 111 l111 0 l0 -111 l-111 0 Z" /><glyph glyph-name="questiondown" unicode="¿" d="M226 -208 q-57 0 -101 19 q-44 19 -69 54.5 q-25 35.5 -25 85.5 q0 33 9 61 q9 28 30 57 q21 29 56 64 q50 49 69.5 85 q19.5 36 23.5 74 l3 21 l57 0 l0 -28 q0 -49 -19 -92.5 q-19 -43.5 -67 -97.5 q-38 -41 -53.5 -72 q-15.5 -31 -15.5 -64 q0 -42 30 -65 q30 -23 82 -23 q39 0 75.5 11 q36.5 11 69.5 30 l0 -83 q-33 -17 -73.5 -27 q-40.5 -10 -81.5 -10 ZM307 503 l0 -111 l-111 0 l0 111 l111 0 Z" /><glyph glyph-name="periodcentered" unicode="·" d="M62 219 l0 111 l112 0 l0 -111 l-112 0 Z" /><glyph glyph-name="bullet" unicode="&#x2022;" d="M265 89 q-49 0 -91 23.5 q-42 23.5 -67 64.5 q-25 41 -25 91 q0 46 23.5 87 q23.5 41 65 66.5 q41.5 25.5 94.5 25.5 q49 0 90 -23.5 q41 -23.5 66.5 -63.5 q25.5 -40 25.5 -92 q0 -49 -24.5 -90 q-24.5 -41 -66 -65 q-41.5 -24 -91.5 -24 Z" /><glyph glyph-name="asterisk" unicode="*" d="M139 360 l-54 41 l96 123 l-151 45 l22 65 l146 -55 l-5 157 l69 0 l-6 -157 l149 55 l20 -65 l-151 -44 l97 -124 l-56 -41 l-87 132 l-89 -132 Z" /><glyph glyph-name="numbersign" unicode="#" d="M84 0 l36 180 l-89 0 l0 63 l101 0 l46 227 l-126 0 l0 64 l139 0 l35 171 l68 0 l-34 -171 l151 0 l35 171 l69 0 l-35 -171 l89 0 l0 -64 l-102 0 l-46 -227 l127 0 l0 -63 l-139 0 l-36 -180 l-70 0 l37 180 l-151 0 l-35 -180 l-70 0 ZM201 243 l151 0 l46 227 l-151 0 l-46 -227 Z" /><glyph glyph-name="slash" unicode="/" d="M54 -56 l-77 0 l261 805 l78 0 l-262 -805 Z" /><glyph glyph-name="backslash" unicode="\" d="M238 -56 l-261 805 l77 0 l262 -805 l-78 0 Z" /><glyph glyph-name="parenleft" unicode="(" d="M226 -180 q-43 74 -70.5 145.5 q-27.5 71.5 -40 145 q-12.5 73.5 -12.5 152.5 q0 80 12.5 153 q12.5 73 40 144 q27.5 71 70.5 145 l74 0 q-51 -113 -77 -222.5 q-26 -109.5 -26 -219.5 q0 -110 26 -220 q26 -110 77 -223 l-74 0 Z" /><glyph glyph-name="parenright" unicode=")" d="M101 -180 l-75 0 q51 113 77.5 223 q26.5 110 26.5 220 q0 109 -26.5 219 q-26.5 110 -77.5 223 l75 0 q43 -74 70.5 -145.5 q27.5 -71.5 40 -144.5 q12.5 -73 12.5 -152 q0 -80 -12.5 -153 q-12.5 -73 -40 -144.5 q-27.5 -71.5 -70.5 -145.5 Z" /><glyph glyph-name="braceleft" unicode="{" d="M253 -180 q-51 0 -78 27.5 q-27 27.5 -27 79.5 l0 219 q0 41 -16.5 59.5 q-16.5 18.5 -55.5 20.5 l-31 2 l0 69 l31 2 q39 3 55.5 21 q16.5 18 16.5 59 l0 219 q0 52 27 79.5 q27 27.5 78 27.5 l102 0 l0 -71 l-73 0 q-23 0 -33.5 -11 q-10.5 -11 -10.5 -34 l0 -220 q0 -30 -13 -55 q-13 -25 -34.5 -39.5 q-21.5 -14.5 -47.5 -14.5 l0 4 q26 0 47.5 -14 q21.5 -14 34.5 -38.5 q13 -24.5 13 -55.5 l0 -220 q0 -22 10.5 -33.5 q10.5 -11.5 33.5 -11.5 l73 0 l0 -71 l-102 0 Z" /><glyph glyph-name="braceright" unicode="}" d="M9 -180 l0 71 l72 0 q23 0 34 11.5 q11 11.5 11 33.5 l0 220 q0 31 12.5 55.5 q12.5 24.5 34 39 q21.5 14.5 48.5 14.5 l0 -4 q-27 0 -48.5 14 q-21.5 14 -34 39 q-12.5 25 -12.5 55 l0 220 q0 23 -11 34 q-11 11 -34 11 l-72 0 l0 71 l101 0 q52 0 79 -27.5 q27 -27.5 27 -79.5 l0 -219 q0 -41 16 -59.5 q16 -18.5 55 -20.5 l32 -2 l0 -69 l-32 -2 q-39 -2 -55 -20 q-16 -18 -16 -60 l0 -219 q0 -52 -27 -79.5 q-27 -27.5 -79 -27.5 l-101 0 Z" /><glyph glyph-name="bracketleft" unicode="[" d="M105 -180 l0 885 l211 0 l0 -71 l-121 0 l0 -743 l121 0 l0 -71 l-211 0 Z" /><glyph glyph-name="bracketright" unicode="]" d="M10 -180 l0 71 l120 0 l0 743 l-120 0 l0 71 l210 0 l0 -885 l-210 0 Z" /><glyph glyph-name="hyphen" unicode="-" d="M71 237 l0 74 l289 0 l0 -74 l-289 0 Z" /><glyph glyph-name="endash" unicode="&#x2013;" d="M0 246 l0 58 l505 0 l0 -58 l-505 0 Z" /><glyph glyph-name="emdash" unicode="&#x2014;" d="M0 246 l0 58 l1010 0 l0 -58 l-1010 0 Z" /><glyph glyph-name="figuredash" unicode="&#x2012;" d="M69 246 l0 58 l462 0 l0 -58 l-462 0 Z" /><glyph glyph-name="uni2015" unicode="&#x2015;" d="M0 246 l0 58 l1010 0 l0 -58 l-1010 0 Z" /><glyph glyph-name="underscore" unicode="_" d="M9 -58 l0 58 l487 0 l0 -58 l-487 0 Z" /><glyph glyph-name="quotesinglbase" unicode="&#x201a;" d="M108 -119 l-41 32 q26 27 37 51 q11 24 11 56 l26 -20 l-79 0 l0 111 l111 0 l0 -77 q0 -46 -15 -82.5 q-15 -36.5 -50 -70.5 Z" /><glyph glyph-name="quoteleft" unicode="&#x2018;" d="M61 482 l0 76 q0 43 14.5 80.5 q14.5 37.5 50.5 73.5 l41 -33 q-28 -29 -38 -53.5 q-10 -24.5 -10 -51.5 l-25 19 l78 0 l0 -111 l-111 0 Z" /><glyph glyph-name="quoteright" unicode="&#x2019;" d="M108 476 l-41 32 q28 29 38 54.5 q10 25.5 10 51.5 l26 -19 l-79 0 l0 110 l111 0 l0 -76 q0 -43 -14 -80 q-14 -37 -51 -73 Z" /><glyph glyph-name="guilsinglleft" unicode="&#x2039;" d="M155 87 l-129 181 l129 181 l78 0 l-119 -181 l119 -181 l-78 0 Z" /><glyph glyph-name="guilsinglright" unicode="&#x203a;" d="M114 87 l-78 0 l119 181 l-119 181 l79 0 l128 -181 l-129 -181 Z" /><glyph glyph-name="quotesingle" unicode="&#39;" d="M83 425 l-23 280 l107 0 l-23 -280 l-61 0 Z" /><glyph glyph-name="uni27E8" unicode="&#x27e8;" d="M337 0 l-123 353 l123 352 l49 0 l-121 -352 l121 -353 l-49 0 Z" /><glyph glyph-name="uni27E9" unicode="&#x27e9;" d="M214 0 l122 353 l-122 352 l49 0 l123 -352 l-123 -353 l-49 0 Z" /><glyph glyph-name="uni20B5" unicode="&#x20b5;" d="M312 -115 l0 131 l21 -19 q-85 5 -146.5 49.5 q-61.5 44.5 -94.5 122.5 q-33 78 -33 184 q0 106 33 184 q33 78 94.5 122 q61.5 44 146.5 49 l-21 -19 l0 131 l75 0 l0 -130 l-17 19 q32 -1 68 -10.5 q36 -9.5 69.5 -28 q33.5 -18.5 59.5 -49.5 l-35 -73 q-34 42 -77 59.5 q-43 17.5 -93 17.5 q-100 0 -152.5 -71.5 q-52.5 -71.5 -52.5 -200.5 q0 -129 52.5 -201 q52.5 -72 152.5 -72 q50 0 93 17.5 q43 17.5 77 59.5 l35 -72 q-26 -31 -59.5 -50 q-33.5 -19 -69.5 -28 q-36 -9 -68 -11 l17 19 l0 -130 l-75 0 Z" /><glyph glyph-name="cent" unicode="¢" d="M278 -115 l0 133 l19 -23 q-63 7 -109.5 40 q-46.5 33 -72.5 87 q-26 54 -26 122 q0 66 26 118.5 q26 52.5 72.5 86.5 q46.5 34 108.5 42 l-18 -28 l0 144 l76 0 l0 -140 l-19 26 q48 0 95.5 -16.5 q47.5 -16.5 75.5 -46.5 l-29 -64 q-29 26 -65 40 q-36 14 -74 14 q-72 0 -114 -48.5 q-42 -48.5 -42 -126.5 q0 -80 41.5 -128.5 q41.5 -48.5 113.5 -48.5 q38 0 74.5 14 q36.5 14 65.5 40 l29 -64 q-30 -29 -76.5 -46.5 q-46.5 -17.5 -96.5 -19.5 l21 22 l0 -129 l-76 0 Z" /><glyph glyph-name="colonmonetary" unicode="&#x20a1;" d="M73 -115 l64 235 l5 -32 q-39 44 -61 111 q-22 67 -22 154 q0 104 31 179.5 q31 75.5 88.5 119.5 q57.5 44 133.5 52 l-18 -17 l36 133 l67 0 l-35 -127 l-6 16 q27 -1 57.5 -6.5 q30.5 -5.5 50.5 -15.5 l-15 -9 l39 142 l67 0 l-45 -165 l-12 20 q15 -7 33.5 -21 q18.5 -14 35.5 -33 l-35 -73 q-34 42 -77.5 59.5 q-43.5 17.5 -93.5 17.5 q-99 0 -151.5 -71.5 q-52.5 -71.5 -52.5 -200.5 q0 -132 53.5 -202.5 q53.5 -70.5 150.5 -70.5 q50 0 93.5 17.5 q43.5 17.5 77.5 59.5 l35 -72 q-38 -43 -93.5 -66 q-55.5 -23 -118.5 -23 q-26 0 -44 3 l22 13 l-35 -127 l-67 0 l37 136 l7 -15 q-25 5 -53.5 19.5 q-28.5 14.5 -46.5 31.5 l14 7 l-49 -179 l-67 0 Z" /><glyph glyph-name="currency" unicode="¤" d="M79 -27 l-45 46 l74 75 q-23 32 -36 70.5 q-13 38.5 -13 80.5 q0 43 12.5 81.5 q12.5 38.5 36.5 69.5 l-74 76 l45 45 l74 -76 q30 25 68 38.5 q38 13.5 79 13.5 q41 0 78 -13 q37 -13 68 -37 l72 75 l46 -47 l-73 -74 q24 -32 36.5 -70.5 q12.5 -38.5 12.5 -81.5 q0 -43 -13 -81.5 q-13 -38.5 -37 -70.5 l74 -74 l-45 -45 l-73 74 q-30 -24 -67 -37.5 q-37 -13.5 -79 -13.5 q-41 0 -79 14 q-38 14 -69 37 l-73 -75 ZM299 74 q45 0 81.5 23 q36.5 23 58 62 q21.5 39 21.5 86 q0 48 -21.5 86.5 q-21.5 38.5 -58 62 q-36.5 23.5 -81.5 22.5 q-44 0 -80.5 -23 q-36.5 -23 -58 -61.5 q-21.5 -38.5 -21.5 -86.5 q0 -47 21.5 -86 q21.5 -39 58 -62 q36.5 -23 80.5 -23 Z" /><glyph glyph-name="dollar" unicode="$" d="M272 -115 l0 128 l19 -18 q-72 1 -136 21.5 q-64 20.5 -112 61.5 l32 74 q48 -38 101.5 -57.5 q53.5 -19.5 124.5 -19.5 q83 0 123 32 q40 32 40 82 q0 41 -29 65.5 q-29 24.5 -96 38.5 l-102 22 q-91 20 -135 66 q-44 46 -44 121 q0 58 28.5 104 q28.5 46 80 73 q51.5 27 119.5 30 l-14 -14 l0 125 l76 0 l0 -125 l-16 14 q55 -2 110 -23 q55 -21 93 -62 l-31 -71 q-39 40 -88 58.5 q-49 18.5 -109 18.5 q-73 0 -116.5 -34.5 q-43.5 -34.5 -43.5 -90.5 q0 -44 27 -70 q27 -26 89 -40 l102 -21 q97 -20 143.5 -63.5 q46.5 -43.5 46.5 -116.5 q0 -57 -28.5 -100 q-28.5 -43 -79 -68 q-50.5 -25 -116.5 -30 l17 18 l0 -129 l-76 0 Z" /><glyph glyph-name="dong" unicode="&#x20ab;" d="M261 -9 q-62 0 -107.5 31.5 q-45.5 31.5 -69.5 88.5 q-24 57 -24 134 q0 76 24 132.5 q24 56.5 69.5 87.5 q45.5 31 107.5 31 q60 0 102.5 -30.5 q42.5 -30.5 60.5 -89.5 l-13 0 l0 196 l-148 0 l0 60 l148 0 l0 104 l91 0 l0 -104 l74 0 l0 -60 l-74 0 l0 -572 l-89 0 l0 111 l11 0 q-18 -58 -60.5 -89 q-42.5 -31 -102.5 -31 ZM76 -140 l0 60 l426 0 l0 -60 l-426 0 ZM282 63 q60 0 95.5 45.5 q35.5 45.5 35.5 134.5 q0 88 -35 134.5 q-35 46.5 -96 46.5 q-61 0 -96.5 -46.5 q-35.5 -46.5 -35.5 -134.5 q0 -89 35 -134.5 q35 -45.5 97 -45.5 Z" /><glyph glyph-name="Euro" unicode="&#x20ac;" d="M387 -9 q-71 0 -127.5 31.5 q-56.5 31.5 -92.5 92.5 q-36 61 -49 148 l14 -16 l-115 0 l0 58 l111 0 l-14 -13 q-2 29 -2 62 q0 33 3 59 l14 -12 l-112 0 l0 58 l120 0 l-19 -17 q13 88 49 148.5 q36 60.5 92.5 92 q56.5 31.5 127.5 31.5 q60 0 111.5 -21.5 q51.5 -21.5 86.5 -66.5 l-33 -67 q-33 40 -72 57 q-39 17 -86 17 q-71 0 -118 -46.5 q-47 -46.5 -63 -141.5 l-18 14 l187 0 l0 -58 l-193 0 l19 12 q-3 -25 -3 -58.5 q0 -33.5 3 -60.5 l-18 11 l192 0 l0 -58 l-182 0 l13 14 q16 -96 63 -142.5 q47 -46.5 118 -46.5 q47 0 86 17 q39 17 72 57 l33 -67 q-35 -45 -86.5 -66.5 q-51.5 -21.5 -111.5 -21.5 Z" /><glyph glyph-name="florin" unicode="&#x192;" d="M39 -189 l0 73 l50 0 q42 0 68.5 23 q26.5 23 38.5 79 l94 441 l17 -10 l-137 0 l0 70 l148 0 l-19 -15 l15 70 q16 83 65 127.5 q49 44.5 130 44.5 l51 0 l0 -75 l-44 0 q-46 0 -73 -22 q-27 -22 -39 -79 l-14 -66 l-14 15 l139 0 l0 -70 l-153 0 l19 11 l-96 -446 q-17 -82 -64.5 -126.5 q-47.5 -44.5 -126.5 -44.5 l-55 0 Z" /><glyph glyph-name="franc" unicode="&#x20a3;" d="M112 0 l0 138 l-76 0 l0 61 l76 0 l0 506 l438 0 l0 -76 l-346 0 l0 -226 l325 0 l0 -76 l-325 0 l0 -128 l209 0 l0 -61 l-209 0 l0 -138 l-92 0 Z" /><glyph glyph-name="uni20B2" unicode="&#x20b2;" d="M301 -115 l0 138 l21 -26 q-84 5 -145.5 49.5 q-61.5 44.5 -94.5 122.5 q-33 78 -33 184 q0 106 33 184 q33 78 94.5 122 q61.5 44 145.5 49 l-21 -19 l0 131 l76 0 l0 -131 l-18 20 q33 -1 69 -10.5 q36 -9.5 69 -28 q33 -18.5 59 -49.5 l-34 -73 q-35 42 -78.5 59.5 q-43.5 17.5 -93.5 17.5 q-100 0 -153 -71.5 q-53 -71.5 -53 -200.5 q0 -131 53 -203 q53 -72 153 -72 q33 0 71.5 8 q38.5 8 73.5 26 l-25 -48 l0 238 l-139 0 l0 68 l220 0 l0 -321 q-39 -21 -88.5 -35 q-49.5 -14 -98.5 -18 l13 27 l0 -138 l-76 0 Z" /><glyph glyph-name="uni20B4" unicode="&#x20b4;" d="M288 -9 q-96 0 -150 39.5 q-54 39.5 -54 108.5 q0 31 13.5 60.5 q13.5 29.5 43.5 59.5 l3 -12 l-80 0 l0 58 l143 0 l-34 -9 l135 112 l5 -7 l-249 0 l0 58 l323 0 l-37 -12 q30 26 46 44 q16 18 22.5 35 q6.5 17 6.5 38 q0 35 -29 53.5 q-29 18.5 -84 18.5 q-50 0 -95 -17 q-45 -17 -88 -54 l-32 68 q49 41 111 61 q62 20 130 20 q87 0 134.5 -34.5 q47.5 -34.5 47.5 -98.5 q0 -36 -15.5 -67.5 q-15.5 -31.5 -52.5 -67.5 l-4 13 l85 0 l0 -58 l-150 0 l28 6 l-132 -111 l-3 9 l257 0 l0 -58 l-328 0 l35 11 q-62 -50 -62 -108 q0 -37 33.5 -58.5 q33.5 -21.5 97.5 -21.5 q55 0 104.5 19.5 q49.5 19.5 89.5 57.5 l32 -68 q-41 -41 -105.5 -64.5 q-64.5 -23.5 -141.5 -23.5 Z" /><glyph glyph-name="uni20AD" unicode="&#x20ad;" d="M109 0 l0 323 l-92 0 l0 60 l92 0 l0 322 l91 0 l0 -319 l2 0 l279 319 l99 0 l-285 -331 l0 9 l254 0 l0 -60 l-253 0 l0 8 l285 -331 l-101 0 l-278 320 l-2 0 l0 -320 l-91 0 Z" /><glyph glyph-name="lira" unicode="&#x20a4;" d="M45 0 l0 64 q46 19 72.5 45 q26.5 26 26.5 67 l0 72 l-99 0 l0 58 l99 0 l0 94 l-99 0 l0 59 l111 0 l-12 -19 l0 67 q0 66 24.5 112 q24.5 46 74.5 70.5 q50 24.5 126 24.5 q59 0 111.5 -20 q52.5 -20 90.5 -57 l-36 -70 q-38 36 -76.5 53 q-38.5 17 -89.5 17 q-67 0 -99.5 -32 q-32.5 -32 -32.5 -95 l0 -64 l-10 13 l193 0 l0 -57 l-183 0 l0 -96 l183 0 l0 -58 l-183 0 l0 -54 q0 -50 -22 -79 q-22 -29 -57 -42 l0 5 l406 0 l0 -78 l-519 0 Z" /><glyph glyph-name="uni20BA" unicode="&#x20ba;" d="M159 0 l0 244 l-95 -53 l0 65 l95 53 l0 96 l-95 -53 l0 66 l95 53 l0 234 l93 0 l0 -183 l178 99 l0 -65 l-178 -99 l0 -96 l178 99 l0 -65 l-178 -100 l0 -216 l110 0 q58 0 83.5 24 q25.5 24 25.5 79 l0 56 l88 0 l0 -62 q0 -90 -47.5 -133 q-47.5 -43 -146.5 -43 l-206 0 Z" /><glyph glyph-name="uni20BC" unicode="&#x20bc;" d="M55 0 l0 203 q0 81 12 150 q12 69 38.5 120.5 q26.5 51.5 69.5 82.5 q43 31 103 36 l-16 -20 l0 133 l76 0 l0 -133 l-16 20 q61 -5 103.5 -36 q42.5 -31 69 -82.5 q26.5 -51.5 38.5 -120.5 q12 -69 12 -150 l0 -203 l-82 0 l0 203 q0 94 -14.5 162.5 q-14.5 68.5 -45.5 107 q-31 38.5 -80 43.5 l9 6 l0 -362 l-64 0 l0 362 l9 -6 q-48 -5 -79 -43.5 q-31 -38.5 -45.5 -107 q-14.5 -68.5 -14.5 -162.5 l0 -203 l-83 0 Z" /><glyph glyph-name="uni20A6" unicode="&#x20a6;" d="M109 0 l0 247 l-92 0 l0 59 l92 0 l0 95 l-92 0 l0 58 l92 0 l0 246 l76 0 l250 -575 l-21 0 l0 575 l77 0 l0 -246 l93 0 l0 -58 l-93 0 l0 -95 l93 0 l0 -59 l-93 0 l0 -247 l-75 0 l-250 575 l21 0 l0 -575 l-78 0 Z" /><glyph glyph-name="peseta" unicode="&#x20a7;" d="M109 0 l0 446 l-92 0 l0 60 l92 0 l0 199 l168 0 q71 0 121.5 -25.5 q50.5 -25.5 78.5 -73 q28 -47.5 30 -116.5 l-21 16 l97 0 l0 -60 l-97 0 l21 18 q-3 -67 -31.5 -115.5 q-28.5 -48.5 -79 -75 q-50.5 -26.5 -119.5 -26.5 l-77 0 l0 -247 l-91 0 ZM197 315 l82 0 q49 0 82 16.5 q33 16.5 50 52.5 q17 36 17 92 q0 57 -16.5 93 q-16.5 36 -49.5 52 q-33 16 -83 16 l-82 0 l0 -322 Z" /><glyph glyph-name="uni20B1" unicode="&#x20b1;" d="M109 0 l0 370 l-92 0 l0 59 l92 0 l0 95 l-92 0 l0 58 l92 0 l0 123 l168 0 q82 0 137.5 -34 q55.5 -34 78.5 -100 l-24 11 l115 0 l0 -58 l-95 0 l13 6 q5 -26 5 -54.5 q0 -28.5 -6 -54.5 l-12 8 l95 0 l0 -59 l-114 0 l21 11 q-23 -63 -78.5 -98.5 q-55.5 -35.5 -135.5 -35.5 l-77 0 l0 -247 l-91 0 ZM197 315 l82 0 q49 0 82 16.5 q33 16.5 50 52.5 q17 36 17 92 q0 57 -16.5 93 q-16.5 36 -49.5 52 q-33 16 -83 16 l-82 0 l0 -322 Z" /><glyph glyph-name="uni20BD" unicode="&#x20bd;" d="M109 0 l0 150 l-92 0 l0 59 l92 0 l0 95 l-92 0 l0 58 l92 0 l0 343 l232 0 q74 0 127 -25 q53 -25 80 -70.5 q27 -45.5 27 -108.5 q0 -62 -28 -106 q-28 -44 -79 -67.5 q-51 -23.5 -120 -23.5 l-146 0 l0 -95 l172 0 l0 -59 l-172 0 l0 -150 l-93 0 ZM201 362 l133 0 q75 0 115 34.5 q40 34.5 40 101.5 q0 68 -39.5 101.5 q-39.5 33.5 -115.5 33.5 l-133 0 l0 -271 Z" /><glyph glyph-name="uni20B9" unicode="&#x20b9;" d="M436 0 l-149 225 q-16 26 -33.5 41.5 q-17.5 15.5 -38.5 22 q-21 6.5 -51 6.5 l-143 0 l0 68 l202 0 q83 0 124.5 35 q41.5 35 44.5 102 l13 -8 l-384 0 l0 58 l384 0 l-15 -12 q-8 53 -48 81 q-40 28 -112 28 l-209 0 l0 58 l558 0 l0 -58 l-201 0 l18 12 q37 -19 58 -50.5 q21 -31.5 26 -74.5 l-19 16 l118 0 l0 -58 l-115 0 l18 16 q2 -64 -26 -111 q-28 -47 -81.5 -72 q-53.5 -25 -129.5 -25 l0 9 l19 0 q40 0 70.5 -18 q30.5 -18 59.5 -63 l152 -228 l-110 0 Z" /><glyph glyph-name="sterling" unicode="£" d="M45 0 l0 64 q46 19 72.5 45 q26.5 26 26.5 67 l0 148 l-99 0 l0 60 l99 0 l0 123 q0 66 25 112 q25 46 75 70.5 q50 24.5 125 24.5 q60 0 112 -20 q52 -20 91 -57 l-36 -70 q-34 36 -75 53 q-41 17 -92 17 q-66 0 -99 -32 q-33 -32 -33 -95 l0 -126 l181 0 l0 -60 l-180 0 l0 -122 q0 -53 -22 -84 q-22 -31 -60 -45 l0 5 l408 0 l0 -78 l-519 0 Z" /><glyph glyph-name="uni20B8" unicode="&#x20b8;" d="M254 0 l0 493 l-240 0 l0 58 l572 0 l0 -58 l-239 0 l0 -493 l-93 0 ZM14 647 l0 58 l572 0 l0 -58 l-572 0 Z" /><glyph glyph-name="uni20AE" unicode="&#x20ae;" d="M254 0 l0 189 l-137 -72 l0 62 l137 72 l0 103 l-137 -72 l0 62 l137 73 l0 209 l-237 0 l0 79 l567 0 l0 -79 l-237 0 l0 -163 l136 72 l0 -62 l-136 -73 l0 -102 l136 72 l0 -63 l-136 -72 l0 -235 l-93 0 Z" /><glyph glyph-name="uni20A9" unicode="&#x20a9;" d="M151 0 l-33 250 l-101 0 l0 58 l93 0 l-12 95 l-81 0 l0 59 l73 0 l-32 243 l68 0 l71 -615 l-21 0 l99 615 l50 0 l99 -615 l-21 0 l72 615 l68 0 l-32 -243 l72 0 l0 -59 l-80 0 l-13 -95 l93 0 l0 -58 l-100 0 l-34 -250 l-60 0 l-104 614 l31 0 l-105 -614 l-60 0 Z" /><glyph glyph-name="yen" unicode="¥" d="M254 0 l0 175 l-183 0 l0 59 l183 0 l0 95 l-183 0 l0 58 l157 0 l0 -11 l-235 329 l103 0 l216 -308 l-23 0 l216 308 l102 0 l-233 -329 l0 11 l155 0 l0 -58 l-183 0 l0 -95 l183 0 l0 -59 l-183 0 l0 -175 l-92 0 Z" /><glyph glyph-name="periodcentered" unicode="&#x2219;" d="M245 211 l0 111 l111 0 l0 -111 l-111 0 Z" /><glyph glyph-name="uni2052" unicode="&#x2052;" d="M196 -50 l-81 0 l293 795 l82 0 l-294 -795 ZM388 39 l0 110 l111 0 l0 -110 l-111 0 ZM102 556 l0 111 l110 0 l0 -111 l-110 0 Z" /><glyph glyph-name="fraction" unicode="&#x2215;" d="M202 -50 l-82 0 l279 795 l81 0 l-278 -795 Z" /><glyph glyph-name="plus" unicode="+" d="M265 38 l0 215 l-212 0 l0 68 l212 0 l0 210 l70 0 l0 -210 l212 0 l0 -68 l-212 0 l0 -215 l-70 0 Z" /><glyph glyph-name="minus" unicode="&#x2212;" d="M53 253 l0 68 l494 0 l0 -68 l-494 0 Z" /><glyph glyph-name="multiply" unicode="×" d="M114 50 l-48 48 l186 187 l-186 187 l48 48 l186 -187 l187 187 l48 -48 l-187 -187 l187 -187 l-48 -48 l-187 187 l-186 -187 Z" /><glyph glyph-name="divide" unicode="÷" d="M53 253 l0 68 l494 0 l0 -68 l-494 0 ZM250 43 l0 90 l90 0 l0 -90 l-90 0 ZM250 440 l0 90 l90 0 l0 -90 l-90 0 Z" /><glyph glyph-name="equal" unicode="=" d="M53 353 l0 68 l494 0 l0 -68 l-494 0 ZM53 154 l0 67 l494 0 l0 -67 l-494 0 Z" /><glyph glyph-name="notequal" unicode="&#x2260;" d="M216 18 l-62 28 l46 108 l-147 0 l0 67 l175 0 l57 132 l-232 0 l0 68 l260 0 l58 135 l61 -26 l-45 -109 l160 0 l0 -68 l-189 0 l-56 -132 l245 0 l0 -67 l-273 0 l-58 -136 Z" /><glyph glyph-name="greater" unicode="&gt;" d="M54 34 l0 75 l459 201 l0 -46 l-459 201 l0 75 l493 -217 l0 -71 l-493 -218 Z" /><glyph glyph-name="less" unicode="&lt;" d="M546 34 l-493 218 l0 71 l493 217 l0 -75 l-459 -201 l0 46 l459 -201 l0 -75 Z" /><glyph glyph-name="greaterequal" unicode="&#x2265;" d="M53 118 l0 73 l462 159 l0 -45 l-462 159 l0 74 l493 -175 l0 -71 l-493 -174 ZM53 0 l0 68 l494 0 l0 -68 l-494 0 Z" /><glyph glyph-name="lessequal" unicode="&#x2264;" d="M547 118 l-493 174 l0 71 l493 175 l0 -74 l-461 -159 l0 45 l461 -159 l0 -73 ZM53 0 l0 68 l494 0 l0 -68 l-494 0 Z" /><glyph glyph-name="plusminus" unicode="±" d="M265 130 l0 166 l-212 0 l0 68 l212 0 l0 166 l70 0 l0 -166 l212 0 l0 -68 l-212 0 l0 -166 l-70 0 ZM53 0 l0 68 l494 0 l0 -68 l-494 0 Z" /><glyph glyph-name="approxequal" unicode="&#x2248;" d="M416 315 q-26 0 -54.5 9.5 q-28.5 9.5 -71.5 31.5 q-40 22 -61.5 30 q-21.5 8 -38.5 8 q-54 0 -82 -65 l-54 30 q20 49 53.5 74.5 q33.5 25.5 77.5 25.5 q26 0 54 -8.5 q28 -8.5 69 -30.5 q39 -20 61.5 -29.5 q22.5 -9.5 40.5 -9.5 q55 0 83 65 l54 -31 q-20 -49 -53.5 -74.5 q-33.5 -25.5 -77.5 -25.5 ZM416 115 q-26 0 -54.5 9 q-28.5 9 -71.5 32 q-40 22 -61.5 30 q-21.5 8 -38.5 8 q-54 0 -82 -65 l-54 30 q20 49 53.5 74.5 q33.5 25.5 77.5 25.5 q26 0 54 -8.5 q28 -8.5 69 -30.5 q39 -20 61.5 -29.5 q22.5 -9.5 40.5 -9.5 q55 0 83 65 l54 -31 q-20 -49 -53.5 -74.5 q-33.5 -25.5 -77.5 -25.5 Z" /><glyph glyph-name="asciitilde" unicode="~" d="M416 215 q-26 0 -54.5 9 q-28.5 9 -71.5 32 q-40 22 -62 30 q-22 8 -38 8 q-55 0 -83 -65 l-54 30 q20 49 54 74.5 q34 25.5 77 25.5 q26 0 54.5 -8.5 q28.5 -8.5 69.5 -30.5 q39 -20 61.5 -29.5 q22.5 -9.5 40.5 -9.5 q55 0 83 65 l54 -31 q-20 -49 -53.5 -74.5 q-33.5 -25.5 -77.5 -25.5 Z" /><glyph glyph-name="logicalnot" unicode="¬" d="M476 147 l0 208 l-423 0 l0 68 l494 0 l0 -276 l-71 0 Z" /><glyph glyph-name="asciicircum" unicode="^" d="M45 141 l219 487 l71 0 l220 -487 l-75 0 l-203 453 l45 0 l-203 -453 l-74 0 Z" /><glyph glyph-name="emptyset" unicode="&#x2205;" d="M78 -23 l-49 32 l78 102 q-47 38 -75 93 q-28 55 -28 119 q0 56 22.5 107 q22.5 51 62.5 91 q40 40 94 63 q54 23 118 23 q41 0 81.5 -11 q40.5 -11 75.5 -32 l77 101 l48 -35 l-78 -101 q41 -37 66 -90 q25 -53 25 -116 q0 -58 -23 -109 q-23 -51 -63.5 -90 q-40.5 -39 -94 -61 q-53.5 -22 -114.5 -22 q-39 0 -76 10.5 q-37 10.5 -70 27.5 l-77 -102 ZM143 158 l278 358 q-26 15 -56.5 23.5 q-30.5 8.5 -63.5 8.5 q-65 0 -117 -29.5 q-52 -29.5 -82.5 -80 q-30.5 -50.5 -30.5 -115.5 q0 -48 19 -91 q19 -43 53 -74 ZM301 99 q62 0 114 28.5 q52 28.5 84 79.5 q32 51 32 116 q0 46 -17 86.5 q-17 40.5 -47 70.5 l-276 -355 q25 -12 52.5 -19 q27.5 -7 57.5 -7 Z" /><glyph glyph-name="infinity" unicode="&#x221e;" d="M172 138 q-63 0 -99.5 41 q-36.5 41 -36.5 105 q0 63 36.5 104.5 q36.5 41.5 99.5 41.5 q34 0 68.5 -18.5 q34.5 -18.5 59.5 -62.5 q26 44 61 62.5 q35 18.5 68 18.5 q63 0 99.5 -41.5 q36.5 -41.5 36.5 -104.5 q0 -64 -37 -105 q-37 -41 -99 -41 q-33 0 -68 18.5 q-35 18.5 -61 61.5 q-25 -43 -59.5 -61.5 q-34.5 -18.5 -68.5 -18.5 ZM175 197 q26 0 52.5 18 q26.5 18 48.5 70 q-22 51 -48.5 68.5 q-26.5 17.5 -52.5 17.5 q-36 0 -55.5 -25 q-19.5 -25 -19.5 -62 q0 -36 19.5 -61.5 q19.5 -25.5 55.5 -25.5 ZM426 197 q35 0 55 25.5 q20 25.5 20 61.5 q0 37 -20 62 q-20 25 -55 25 q-26 0 -53 -17.5 q-27 -17.5 -48 -68.5 q21 -52 48 -70 q27 -18 53 -18 Z" /><glyph glyph-name="integral" unicode="&#x222b;" d="M213 -186 q-19 0 -41 3 q-22 3 -36 9 l0 76 q12 -4 27.5 -8 q15.5 -4 31.5 -4 q34 0 53.5 18.5 q19.5 18.5 19.5 63.5 l0 592 q0 75 38 115 q38 40 108 40 q20 0 41.5 -3.5 q21.5 -3.5 35.5 -9.5 l0 -75 q-12 5 -27.5 8.5 q-15.5 3.5 -31.5 3.5 q-34 0 -53.5 -19 q-19.5 -19 -19.5 -64 l0 -592 q0 -74 -38 -114 q-38 -40 -108 -40 Z" /><glyph glyph-name="Omega" unicode="&#x2126;" d="M35 0 l0 77 l177 0 l0 -23 q-86 57 -126.5 144 q-40.5 87 -40.5 198 q0 97 29 168.5 q29 71.5 86 110.5 q57 39 140 39 q83 0 140 -38.5 q57 -38.5 86.5 -110 q29.5 -71.5 29.5 -169.5 q0 -111 -41 -198 q-41 -87 -128 -144 l0 23 l178 0 l0 -77 l-224 0 l0 74 q66 64 94.5 143.5 q28.5 79.5 28.5 172.5 q0 83 -18.5 137 q-18.5 54 -55 81 q-36.5 27 -90.5 27 q-54 0 -90.5 -27.5 q-36.5 -27.5 -55 -81.5 q-18.5 -54 -18.5 -136 q0 -93 28 -172.5 q28 -79.5 95 -143.5 l0 -74 l-224 0 Z" /><glyph glyph-name="Delta" unicode="&#x2206;" d="M29 0 l0 60 l234 645 l75 0 l233 -645 l0 -60 l-542 0 ZM299 591 l-194 -550 l0 35 l390 0 l0 -35 l-194 550 l-2 0 Z" /><glyph glyph-name="product" unicode="&#x220f;" d="M50 -180 l0 885 l500 0 l0 -885 l-86 0 l0 809 l-327 0 l0 -809 l-87 0 Z" /><glyph glyph-name="radical" unicode="&#x221a;" d="M244 -180 l-157 456 l47 -29 l-130 0 l0 72 l151 0 l143 -431 l-25 0 l244 870 l81 0 l-269 -938 l-85 0 Z" /><glyph glyph-name="mu" unicode="µ" d="M71 -205 l0 708 l91 0 l0 -314 q0 -63 26.5 -92.5 q26.5 -29.5 81.5 -29.5 q62 0 100.5 40 q38.5 40 38.5 107 l0 289 l91 0 l0 -503 l-89 0 l0 110 l8 0 q-16 -57 -56.5 -88 q-40.5 -31 -93.5 -31 q-42 0 -74.5 15.5 q-32.5 15.5 -50.5 56.5 l10 0 l8 -268 l-91 0 Z" /><glyph glyph-name="partialdiff" unicode="&#x2202;" d="M296 -9 q-72 0 -126.5 30 q-54.5 30 -85 84.5 q-30.5 54.5 -30.5 125.5 q0 70 29 124 q29 54 81.5 85 q52.5 31 120.5 31 q67 0 115 -29 q48 -29 70 -88 l-11 0 q-3 96 -34.5 166.5 q-31.5 70.5 -91.5 109 q-60 38.5 -145 38.5 l-45 0 l0 68 q17 3 33 4.5 q16 1.5 37 1.5 q82 0 144.5 -30.5 q62.5 -30.5 105.5 -87 q43 -56.5 65.5 -135.5 q22.5 -79 22.5 -176 q0 -103 -30.5 -175 q-30.5 -72 -87.5 -109.5 q-57 -37.5 -137 -37.5 ZM301 63 q69 0 111 50.5 q42 50.5 42 135.5 q0 46 -20 80 q-20 34 -55 53 q-35 19 -79 19 q-71 0 -112.5 -46.5 q-41.5 -46.5 -41.5 -122.5 q0 -76 42 -122.5 q42 -46.5 113 -46.5 Z" /><glyph glyph-name="percent" unicode="%" d="M301 0 l-80 0 l418 705 l81 0 l-419 -705 ZM224 283 q-82 0 -128.5 57.5 q-46.5 57.5 -46.5 158.5 q0 102 47 158.5 q47 56.5 128 56.5 q83 0 129.5 -57.5 q46.5 -57.5 46.5 -157.5 q0 -101 -46.5 -158.5 q-46.5 -57.5 -129.5 -57.5 ZM224 345 q46 0 72 38 q26 38 26 116 q0 77 -26 114.5 q-26 37.5 -72 37.5 q-45 0 -71 -37 q-26 -37 -26 -115 q0 -79 26 -116.5 q26 -37.5 71 -37.5 ZM716 -9 q-82 0 -128.5 57.5 q-46.5 57.5 -46.5 158.5 q0 102 47 158.5 q47 56.5 128 56.5 q82 0 129 -57 q47 -57 47 -158 q0 -101 -47 -158.5 q-47 -57.5 -129 -57.5 ZM716 54 q46 0 72 37.5 q26 37.5 26 115.5 q0 78 -26 115 q-26 37 -72 37 q-45 0 -71 -37 q-26 -37 -26 -115 q0 -78 26 -115.5 q26 -37.5 71 -37.5 Z" /><glyph glyph-name="perthousand" unicode="&#x2030;" d="M1120 -9 q-83 0 -129.5 57.5 q-46.5 57.5 -46.5 158.5 q0 102 47 158.5 q47 56.5 129 56.5 q82 0 128.5 -57 q46.5 -57 46.5 -158 q0 -101 -46.5 -158.5 q-46.5 -57.5 -128.5 -57.5 ZM1120 54 q46 0 71.5 37.5 q25.5 37.5 25.5 115.5 q0 78 -25.5 115 q-25.5 37 -71.5 37 q-46 0 -72 -37 q-26 -37 -26 -115 q0 -78 26 -115.5 q26 -37.5 72 -37.5 ZM221 0 l418 705 l81 0 l-419 -705 l-80 0 ZM224 283 q-82 0 -128.5 57.5 q-46.5 57.5 -46.5 158.5 q0 102 47 158.5 q47 56.5 128 56.5 q83 0 129.5 -57.5 q46.5 -57.5 46.5 -157.5 q0 -101 -46.5 -158.5 q-46.5 -57.5 -129.5 -57.5 ZM224 345 q46 0 72 38 q26 38 26 116 q0 77 -26 114.5 q-26 37.5 -72 37.5 q-45 0 -71 -37 q-26 -37 -26 -115 q0 -79 26 -116.5 q26 -37.5 71 -37.5 ZM716 -9 q-82 0 -128.5 57.5 q-46.5 57.5 -46.5 158.5 q0 102 47 158.5 q47 56.5 128 56.5 q82 0 129 -57 q47 -57 47 -158 q0 -101 -47 -158.5 q-47 -57.5 -129 -57.5 ZM716 54 q46 0 72 37.5 q26 37.5 26 115.5 q0 78 -26 115 q-26 37 -72 37 q-45 0 -71 -37 q-26 -37 -26 -115 q0 -78 26 -115.5 q26 -37.5 71 -37.5 Z" /><glyph glyph-name="lozenge" unicode="&#x25ca;" d="M265 -200 l-217 479 l217 479 l70 0 l218 -479 l-218 -479 l-70 0 ZM300 -115 l178 394 l-178 394 l-178 -394 l178 -394 Z" /><glyph glyph-name="uniF8FF" unicode="&#xf8ff;" d="M139 1 l71 225 l-191 144 l237 0 l74 225 l77 -225 l238 0 l-192 -144 l71 -225 l-194 135 l-191 -135 ZM265 199 l28 0 l0 87 l-5 -2 l34 -64 l23 0 l35 64 l-5 2 l0 -87 l28 0 l0 131 l-27 0 l-45 -86 l7 0 l-46 86 l-27 0 l0 -131 Z" /><glyph glyph-name="at" unicode="@" d="M495 -164 q-98 0 -178 30.5 q-80 30.5 -137 88 q-57 57.5 -88.5 137.5 q-31.5 80 -31.5 179 q0 99 32.5 180.5 q32.5 81.5 92.5 140.5 q60 59 142.5 90.5 q82.5 31.5 182.5 31.5 q119 0 209 -46 q90 -46 140 -129.5 q50 -83.5 50 -195.5 q0 -86 -25 -150 q-25 -64 -69.5 -99 q-44.5 -35 -103.5 -35 q-60 0 -92 34.5 q-32 34.5 -28 93.5 l21 -2 q-26 -62 -73 -94 q-47 -32 -101 -32 q-79 0 -122.5 49 q-43.5 49 -43.5 134 q0 74 28.5 131.5 q28.5 57.5 78.5 90 q50 32.5 113 32.5 q56 0 91.5 -27 q35.5 -27 46.5 -76 l-13 0 l18 94 l72 0 l-46 -255 q-2 -14 -3.5 -26 q-1.5 -12 -1.5 -23 q0 -33 15 -49 q15 -16 45 -16 q38 0 67 28 q29 28 46 78.5 q17 50.5 17 118.5 q0 95 -42 164.5 q-42 69.5 -117 107.5 q-75 38 -178 38 q-114 0 -199.5 -47.5 q-85.5 -47.5 -133 -133.5 q-47.5 -86 -47.5 -201 q0 -116 45 -200 q45 -84 127.5 -128.5 q82.5 -44.5 193.5 -44.5 q82 0 148.5 24 q66.5 24 111.5 70 l34 -53 q-49 -49 -125.5 -76 q-76.5 -27 -168.5 -27 ZM449 122 q45 0 80 25.5 q35 25.5 55 71.5 q20 46 20 104 q0 56 -25 83 q-25 27 -77 27 q-44 0 -79.5 -24 q-35.5 -24 -55.5 -67.5 q-20 -43.5 -20 -99.5 q0 -58 27 -89 q27 -31 75 -31 Z" /><glyph glyph-name="ampersand" unicode="&amp;" d="M653 -9 q-46 20 -86 49.5 q-40 29.5 -70 58.5 l22 0 q-44 -51 -105 -79.5 q-61 -28.5 -132 -28.5 q-73 0 -126 22.5 q-53 22.5 -81 63 q-28 40.5 -28 95.5 q0 68 40 116.5 q40 48.5 113 94.5 l33 20 l-13 -16 q-46 48 -67.5 87.5 q-21.5 39.5 -21.5 82.5 q0 47 22.5 82 q22.5 35 63.5 55 q41 20 96 20 q71 0 116.5 -39 q45.5 -39 45.5 -106 q0 -37 -14.5 -68.5 q-14.5 -31.5 -48 -62 q-33.5 -30.5 -90.5 -64.5 l2 20 l190 -204 l-20 0 q26 42 40.5 100.5 q14.5 58.5 16.5 124.5 l79 0 q-3 -83 -24 -155 q-21 -72 -58 -126 l-1 25 q26 -28 62.5 -55.5 q36.5 -27.5 78.5 -46.5 l-35 -66 ZM286 64 q57 0 102.5 23 q45.5 23 78.5 67 l-2 -25 l-216 227 l36 0 l-30 -19 q-40 -26 -66 -50 q-26 -24 -38.5 -50 q-12.5 -26 -12.5 -60 q0 -53 37.5 -83 q37.5 -30 110.5 -30 ZM313 648 q-44 0 -70.5 -25 q-26.5 -25 -26.5 -66 q0 -21 7.5 -39.5 q7.5 -18.5 25 -40 q17.5 -21.5 46.5 -54.5 l-24 -3 q68 41 98.5 73 q30.5 32 30.5 71 q0 39 -23.5 61.5 q-23.5 22.5 -63.5 22.5 Z" /><glyph glyph-name="paragraph" unicode="¶" d="M250 -180 l0 484 q-63 0 -109.5 25.5 q-46.5 25.5 -72 71 q-25.5 45.5 -25.5 104.5 q0 59 25.5 104 q25.5 45 73 70.5 q47.5 25.5 110.5 25.5 l269 0 l0 -885 l-71 0 l0 817 l-130 0 l0 -817 l-70 0 Z" /><glyph glyph-name="section" unicode="§" d="M251 -189 q-66 0 -120.5 17 q-54.5 17 -89.5 46 l31 64 q21 -18 50.5 -31.5 q29.5 -13.5 63.5 -20.5 q34 -7 67 -7 q61 0 97 27.5 q36 27.5 36 79.5 q0 35 -20 61 q-20 26 -70 49 l-117 53 q-54 26 -86 51.5 q-32 25.5 -45.5 55 q-13.5 29.5 -13.5 66.5 q0 43 22 81.5 q22 38.5 59 64.5 l-8 -26 q-14 15 -22.5 37.5 q-8.5 22.5 -8.5 53.5 q0 57 28.5 97 q28.5 40 78.5 62 q50 22 114 22 q62 0 113.5 -16 q51.5 -16 84.5 -46 l-29 -62 q-32 26 -78.5 40.5 q-46.5 14.5 -92.5 14.5 q-58 0 -94 -27.5 q-36 -27.5 -36 -78.5 q0 -36 20.5 -61.5 q20.5 -25.5 70.5 -49.5 l116 -52 q55 -25 86.5 -51 q31.5 -26 45 -55.5 q13.5 -29.5 13.5 -66.5 q0 -43 -21.5 -81.5 q-21.5 -38.5 -58.5 -64.5 l8 26 q13 -15 21.5 -38 q8.5 -23 8.5 -54 q0 -56 -28 -96.5 q-28 -40.5 -78.5 -62 q-50.5 -21.5 -117.5 -21.5 ZM118 336 q0 -35 22.5 -62.5 q22.5 -27.5 82.5 -55.5 l100 -45 q36 -17 60 -34.5 q24 -17.5 39 -34.5 l-26 -2 q39 36 39 86 q0 36 -23 63.5 q-23 27.5 -83 55.5 l-100 45 q-36 17 -60 34.5 q-24 17.5 -39 34.5 l26 1 q-19 -17 -28.5 -39 q-9.5 -22 -9.5 -47 Z" /><glyph glyph-name="copyright" unicode="©" d="M408 -9 q-76 0 -142.5 27.5 q-66.5 27.5 -115.5 76.5 q-49 49 -76.5 115.5 q-27.5 66.5 -27.5 142.5 q0 77 27.5 143 q27.5 66 76.5 114.5 q49 48.5 115 76 q66 27.5 143 27.5 q77 0 143 -27.5 q66 -27.5 114.5 -76 q48.5 -48.5 76 -114.5 q27.5 -66 27.5 -143 q0 -76 -27.5 -142.5 q-27.5 -66.5 -76 -115.5 q-48.5 -49 -114.5 -76.5 q-66 -27.5 -143 -27.5 ZM422 137 q-97 0 -153.5 59.5 q-56.5 59.5 -56.5 158.5 q0 99 56.5 156 q56.5 57 153.5 57 q40 0 79 -13.5 q39 -13.5 64 -38.5 l-26 -57 q-24 23 -54 33.5 q-30 10.5 -58 10.5 q-63 0 -99 -39 q-36 -39 -36 -110 q0 -70 36 -111 q36 -41 99 -41 q28 0 58 11 q30 11 54 34 l26 -58 q-25 -23 -64.5 -37.5 q-39.5 -14.5 -78.5 -14.5 ZM408 37 q67 0 124 24 q57 24 99.5 67 q42.5 43 66 100.5 q23.5 57.5 23.5 124.5 q0 67 -23.5 124.5 q-23.5 57.5 -66 100 q-42.5 42.5 -99.5 66.5 q-57 24 -124 24 q-67 0 -124.5 -24 q-57.5 -24 -100 -66.5 q-42.5 -42.5 -66 -100 q-23.5 -57.5 -23.5 -124.5 q0 -67 23.5 -124.5 q23.5 -57.5 66 -100.5 q42.5 -43 100 -67 q57.5 -24 124.5 -24 Z" /><glyph glyph-name="registered" unicode="®" d="M408 -9 q-76 0 -142.5 27.5 q-66.5 27.5 -115.5 76.5 q-49 49 -76.5 115.5 q-27.5 66.5 -27.5 142.5 q0 77 27.5 143 q27.5 66 76.5 114.5 q49 48.5 115 76 q66 27.5 143 27.5 q77 0 143 -27.5 q66 -27.5 114.5 -76 q48.5 -48.5 76 -114.5 q27.5 -66 27.5 -143 q0 -76 -27.5 -142.5 q-27.5 -66.5 -76 -115.5 q-48.5 -49 -114.5 -76.5 q-66 -27.5 -143 -27.5 ZM408 37 q67 0 124 24 q57 24 99.5 67 q42.5 43 66 100.5 q23.5 57.5 23.5 124.5 q0 67 -23.5 124.5 q-23.5 57.5 -66 100 q-42.5 42.5 -99.5 66.5 q-57 24 -124 24 q-67 0 -124.5 -24 q-57.5 -24 -100 -66.5 q-42.5 -42.5 -66 -100 q-23.5 -57.5 -23.5 -124.5 q0 -67 23.5 -124.5 q23.5 -57.5 66 -100.5 q42.5 -43 100 -67 q57.5 -24 124.5 -24 ZM261 142 l0 422 l175 0 q68 0 104.5 -33 q36.5 -33 36.5 -90 q0 -57 -36 -87.5 q-36 -30.5 -103 -30.5 l14 10 q31 0 52 -14 q21 -14 33 -52 l45 -125 l-75 0 l-46 129 q-9 24 -26.5 32.5 q-17.5 8.5 -42.5 8.5 l-71 0 l14 10 l0 -180 l-74 0 ZM334 369 l92 0 q41 0 61 17 q20 17 20 52 q0 35 -20 52 q-20 17 -61 17 l-92 0 l0 -138 Z" /><glyph glyph-name="trademark" unicode="&#x2122;" d="M144 284 l0 352 l-135 0 l0 69 l354 0 l0 -69 l-136 0 l0 -352 l-83 0 ZM426 284 l0 421 l67 0 l157 -287 l-20 0 l157 287 l66 0 l0 -421 l-73 0 l0 316 l17 0 l-136 -247 l-42 0 l-138 247 l19 0 l0 -316 l-74 0 Z" /><glyph glyph-name="degree" unicode="°" d="M187 415 q-43 0 -77 20 q-34 20 -54 54 q-20 34 -20 76 q0 42 20 75.5 q20 33.5 54 53.5 q34 20 77 20 q42 0 76 -19.5 q34 -19.5 53.5 -53 q19.5 -33.5 19.5 -76.5 q0 -42 -19.5 -76.5 q-19.5 -34.5 -53.5 -54 q-34 -19.5 -76 -19.5 ZM187 474 q39 0 63 25.5 q24 25.5 24 65.5 q0 39 -24 65 q-24 26 -63 26 q-39 0 -63.5 -26 q-24.5 -26 -24.5 -65 q0 -40 24.5 -65.5 q24.5 -25.5 63.5 -25.5 Z" /><glyph glyph-name="minute" unicode="&#x2032;" d="M83 425 l-23 280 l107 0 l-23 -280 l-61 0 Z" /><glyph glyph-name="bar" unicode="|" d="M89 -186 l0 897 l91 0 l0 -897 l-91 0 Z" /><glyph glyph-name="brokenbar" unicode="¦" d="M89 372 l0 339 l91 0 l0 -339 l-91 0 ZM89 -186 l0 340 l91 0 l0 -340 l-91 0 Z" /><glyph glyph-name="dagger" unicode="&#x2020;" d="M131 157 l0 370 l-110 0 l0 61 l110 0 l0 117 l69 0 l0 -117 l110 0 l0 -61 l-110 0 l0 -370 l-69 0 Z" /><glyph glyph-name="uni2113" unicode="&#x2113;" d="M328 -9 q-60 0 -93.5 34.5 q-33.5 34.5 -33.5 97.5 l0 138 l14 -13 l-73 -78 l-35 36 l94 102 l0 261 q0 43 16 76 q16 33 45 51 q29 18 68 18 q49 0 77.5 -28 q28.5 -28 28.5 -87 q0 -60 -28.5 -118.5 q-28.5 -58.5 -94.5 -139.5 l-28 -34 l0 -167 q0 -38 15 -57.5 q15 -19.5 44 -19.5 q21 0 40 9 q19 9 44 35 l31 -55 q-26 -31 -61 -46 q-35 -15 -70 -15 ZM285 387 q5 6 8.5 11 q3.5 5 7.5 10 q38 51 56.5 95.5 q18.5 44.5 18.5 87.5 q0 57 -39 57 q-25 0 -38.5 -19.5 q-13.5 -19.5 -13.5 -51.5 l0 -190 Z" /><glyph glyph-name="daggerdbl" unicode="&#x2021;" d="M130 156 l0 117 l-111 0 l0 61 l111 0 l0 194 l-111 0 l0 61 l111 0 l0 116 l69 0 l0 -116 l110 0 l0 -61 l-110 0 l0 -194 l110 0 l0 -61 l-110 0 l0 -117 l-69 0 Z" /><glyph glyph-name="estimated" unicode="&#x212e;" d="M448 -5 q-95 0 -169 28 q-74 28 -125 77 q-51 49 -77.5 112 q-26.5 63 -26.5 133 q0 70 27 135.5 q27 65.5 78.5 117 q51.5 51.5 124.5 82 q73 30.5 166 30.5 q115 0 191.5 -33 q76.5 -33 122 -88.5 q45.5 -55.5 65 -122.5 q19.5 -67 19.5 -135 l-643 0 q-5 0 -5 -6 l0 -172 q0 -7 1.5 -15.5 q1.5 -8.5 5.5 -13.5 q40 -48 102 -72.5 q62 -24.5 140 -24.5 q85 0 146.5 29 q61.5 29 112.5 78 l71 0 q-39 -47 -83.5 -78 q-44.5 -31 -103 -46 q-58.5 -15 -140.5 -15 ZM201 362 l492 0 q5 0 5 6 l0 188 q0 14 -10 26 q-34 41 -78 61.5 q-44 20.5 -88 28 q-44 7.5 -79 7.5 q-58 0 -121.5 -21 q-63.5 -21 -116.5 -74 q-9 -9 -9 -27 l0 -189 q0 -6 5 -6 Z" /><glyph glyph-name="uni2116" unicode="&#x2116;" d="M86 0 l0 705 l72 0 l443 -584 l-24 0 l0 584 l87 0 l0 -705 l-71 0 l-443 584 l23 0 l0 -584 l-87 0 ZM783 259 l0 60 l281 0 l0 -60 l-281 0 ZM923 411 q-42 0 -76 18.5 q-34 18.5 -53.5 53 q-19.5 34.5 -19.5 80.5 q0 46 19.5 80 q19.5 34 53.5 52.5 q34 18.5 76 18.5 q44 0 77 -18.5 q33 -18.5 53 -52.5 q20 -34 20 -80 q0 -46 -19.5 -80.5 q-19.5 -34.5 -53 -53 q-33.5 -18.5 -77.5 -18.5 ZM923 461 q40 0 63 26 q23 26 23 76 q0 50 -23 76 q-23 26 -63 26 q-39 0 -62 -26 q-23 -26 -23 -76 q0 -50 23 -76 q23 -26 62 -26 Z" /><glyph glyph-name="uni02BC" unicode="&#x2bc;" d="M166 570 l-38 27 q22 22 28.5 42 q6.5 20 6.5 40 l25 -11 l-76 0 l0 90 l105 0 l0 -62 q0 -36 -10.5 -67 q-10.5 -31 -40.5 -59 Z" /><glyph glyph-name="uni02BB" unicode="&#x2bb;" d="M197 566 l0 63 q0 37 11 68 q11 31 40 58 l39 -28 q-22 -21 -28.5 -41 q-6.5 -20 -6.5 -40 l-25 11 l75 0 l0 -91 l-105 0 Z" /><glyph glyph-name="uni02C9" unicode="&#x2c9;" d="M100 623 l0 59 l301 0 l0 -59 l-301 0 Z" /><glyph glyph-name="uni02CB" unicode="&#x2cb;" d="M218 552 l-133 202 l94 0 l103 -202 l-64 0 Z" /><glyph glyph-name="uni02BF" unicode="&#x2bf;" d="M250 554 q-44 0 -73 28.5 q-29 28.5 -29 70.5 q0 43 29 72 q29 29 73 29 l0 -47 q-23 0 -37.5 -15.5 q-14.5 -15.5 -14.5 -37.5 q0 -22 14.5 -38 q14.5 -16 37.5 -16 l0 -46 Z" /><glyph glyph-name="uni02BE" unicode="&#x2be;" d="M250 554 l0 46 q24 0 38 16 q14 16 14 37 q0 23 -14 38.5 q-14 15.5 -38 15.5 l0 47 q44 0 73.5 -29 q29.5 -29 29.5 -71 q0 -43 -29 -71.5 q-29 -28.5 -74 -28.5 Z" /><glyph glyph-name="uni02CA" unicode="&#x2ca;" d="M218 552 l103 202 l95 0 l-134 -202 l-64 0 Z" /><glyph glyph-name="uni02CC" unicode="&#x2cc;" d="M218 -270 l0 201 l65 0 l0 -201 l-65 0 Z" /><glyph glyph-name="uni02C8" unicode="&#x2c8;" d="M218 595 l0 201 l65 0 l0 -201 l-65 0 Z" /><glyph glyph-name="uni0308" unicode="&#x308;" d="M42 606 l0 93 l93 0 l0 -93 l-93 0 ZM-135 606 l0 93 l93 0 l0 -93 l-93 0 Z" /><glyph glyph-name="uni0307" unicode="&#x307;" d="M-49 606 l0 94 l98 0 l0 -94 l-98 0 Z" /><glyph glyph-name="gravecomb" unicode="&#x300;" d="M-32 552 l-134 202 l95 0 l103 -202 l-64 0 Z" /><glyph glyph-name="acutecomb" unicode="&#x301;" d="M-32 552 l103 202 l95 0 l-134 -202 l-64 0 Z" /><glyph glyph-name="uni030B" unicode="&#x30b;" d="M40 552 l53 202 l82 0 l-85 -202 l-50 0 ZM-92 552 l52 202 l83 0 l-85 -202 l-50 0 Z" /><glyph glyph-name="uni0302" unicode="&#x302;" d="M-152 552 l110 202 l84 0 l110 -202 l-61 0 l-91 144 l-91 -144 l-61 0 Z" /><glyph glyph-name="uni030C" unicode="&#x30c;" d="M-42 552 l-110 202 l61 0 l91 -144 l91 144 l61 0 l-110 -202 l-84 0 Z" /><glyph glyph-name="uni0306" unicode="&#x306;" d="M0 549 q-46 0 -80.5 23.5 q-34.5 23.5 -54 66 q-19.5 42.5 -22.5 101.5 l55 6 q4 -66 30.5 -101.5 q26.5 -35.5 71.5 -35.5 q45 0 71.5 35.5 q26.5 35.5 30.5 101.5 l55 -6 q-2 -59 -22 -101.5 q-20 -42.5 -54.5 -66 q-34.5 -23.5 -80.5 -23.5 Z" /><glyph glyph-name="uni030A" unicode="&#x30a;" d="M0 546 q-33 0 -60.5 16 q-27.5 16 -43.5 42.5 q-16 26.5 -16 59.5 q0 33 16 59 q16 26 43 42 q27 16 61 16 q34 0 61 -16 q27 -16 43 -42 q16 -26 16 -60 q0 -32 -16 -58.5 q-16 -26.5 -42.5 -42.5 q-26.5 -16 -61.5 -16 ZM0 593 q31 0 50.5 20.5 q19.5 20.5 19.5 49.5 q0 31 -19 51 q-19 20 -51 20 q-30 0 -50 -20 q-20 -20 -20 -50 q0 -31 19.5 -51 q19.5 -20 50.5 -20 Z" /><glyph glyph-name="tildecomb" unicode="&#x303;" d="M-134 589 l-49 3 q5 65 35 101 q30 36 75 36 q21 0 40 -10 q19 -10 43 -31 q21 -18 34.5 -25.5 q13.5 -7.5 26.5 -7.5 q51 0 63 77 l49 -3 q-4 -66 -34 -101.5 q-30 -35.5 -75 -35.5 q-21 0 -40 10 q-19 10 -45 31 q-20 18 -33 25 q-13 7 -27 7 q-27 0 -42 -20 q-15 -20 -21 -56 Z" /><glyph glyph-name="uni0304" unicode="&#x304;" d="M-151 623 l0 59 l302 0 l0 -59 l-302 0 Z" /><glyph glyph-name="hookabovecomb" unicode="&#x309;" d="M-30 552 l0 21 q0 22 9.5 36.5 q9.5 14.5 21 25.5 q11.5 11 21 21.5 q9.5 10.5 9.5 24.5 q0 14 -11 21 q-11 7 -34 7 q-15 0 -30 -3.5 q-15 -3.5 -32 -12.5 l-15 45 q19 12 43 17 q24 5 52 5 q47 0 73.5 -17.5 q26.5 -17.5 26.5 -51.5 q0 -25 -11.5 -40 q-11.5 -15 -26 -26 q-14.5 -11 -25.5 -24 q-11 -13 -11 -33 l0 -16 l-60 0 Z" /><glyph glyph-name="uni030F" unicode="&#x30f;" d="M42 552 l-85 202 l83 0 l52 -202 l-50 0 ZM-90 552 l-85 202 l82 0 l53 -202 l-50 0 Z" /><glyph glyph-name="uni0311" unicode="&#x311;" d="M-102 549 l-55 6 q3 59 22.5 101.5 q19.5 42.5 54 66 q34.5 23.5 80.5 23.5 q46 0 80.5 -23.5 q34.5 -23.5 54.5 -66 q20 -42.5 22 -101.5 l-55 -6 q-4 66 -30.5 101.5 q-26.5 35.5 -71.5 35.5 q-45 0 -71.5 -35.5 q-26.5 -35.5 -30.5 -101.5 Z" /><glyph glyph-name="uni0312" unicode="&#x312;" d="M-53 566 l0 62 q0 38 12.5 71 q12.5 33 40.5 59 l39 -27 q-23 -23 -30.5 -44.5 q-7.5 -21.5 -7.5 -44.5 l-23 11 l75 0 l0 -87 l-106 0 Z" /><glyph glyph-name="uni031B" unicode="&#x31b;" d="M48 434 l-49 31 l0 22 q41 1 64.5 12 q23.5 11 33.5 36 q10 25 10 64 l0 17 l80 0 l0 -30 q0 -45 -16.5 -77.5 q-16.5 -32.5 -47.5 -52 q-31 -19.5 -75 -22.5 Z" /><glyph glyph-name="dotbelowcomb" unicode="&#x323;" d="M-49 -191 l0 94 l98 0 l0 -94 l-98 0 Z" /><glyph glyph-name="uni0324" unicode="&#x324;" d="M42 -183 l0 91 l93 0 l0 -91 l-93 0 ZM-135 -183 l0 91 l93 0 l0 -91 l-93 0 Z" /><glyph glyph-name="uni0326" unicode="&#x326;" d="M0 -270 l-39 27 q23 24 30.5 45 q7.5 21 7.5 45 l22 -12 l-74 0 l0 87 l106 0 l0 -62 q0 -38 -12.5 -71 q-12.5 -33 -40.5 -59 Z" /><glyph glyph-name="uni0327" unicode="&#x327;" d="M3 -193 q-27 0 -51.5 5.5 q-24.5 5.5 -41.5 14.5 l14 47 q19 -9 35.5 -13 q16.5 -4 38.5 -4 q27 0 42.5 9 q15.5 9 15.5 27 q0 26 -38 26 q-11 0 -21 -1.5 q-10 -1.5 -25 -5.5 l-17 16 l14 92 l55 0 l-13 -76 l-26 8 q11 3 23.5 5 q12.5 2 22.5 2 q37 0 61 -18 q24 -18 24 -51 q0 -37 -31.5 -60 q-31.5 -23 -81.5 -23 Z" /><glyph glyph-name="uni0328" unicode="&#x328;" d="M-20 -193 q-49 0 -78.5 27 q-29.5 27 -29.5 72 q0 40 26 75.5 q26 35.5 71 55.5 l31 -37 q-16 -7 -31 -19 q-15 -12 -25 -28.5 q-10 -16.5 -10 -36.5 q0 -27 17 -41 q17 -14 41 -14 q14 0 27 3 q13 3 27 9 l14 -49 q-15 -8 -35 -12.5 q-20 -4.5 -45 -4.5 Z" /><glyph glyph-name="uni032E" unicode="&#x32e;" d="M0 -215 q-68 0 -111 40.5 q-43 40.5 -46 110.5 l55 5 q4 -46 30.5 -72 q26.5 -26 71.5 -26 q45 0 71.5 26 q26.5 26 30.5 72 l55 -5 q-3 -70 -45.5 -110.5 q-42.5 -40.5 -111.5 -40.5 Z" /><glyph glyph-name="uni0331" unicode="&#x331;" d="M-151 -158 l0 59 l302 0 l0 -59 l-302 0 Z" /><glyph glyph-name="uni0335" unicode="&#x335;" d="M-187 527 l0 67 l374 0 l0 -67 l-374 0 Z" /><glyph glyph-name="uni0337" unicode="&#x337;" d="M-118 247 l-37 63 l273 158 l37 -63 l-273 -158 Z" /><glyph glyph-name="uni0338" unicode="&#x338;" d="M159 -48 l-47 29 l324 558 l48 -29 l-325 -558 Z" /></font>
</defs>
</svg>
