<?xml version="1.0" standalone="no"?><!DOCTYPE svg PUBLIC "-//W3C//DTD SVG 1.1//EN" "http://www.w3.org/Graphics/SVG/1.1/DTD/svg11.dtd" ><svg xmlns="http://www.w3.org/2000/svg"><metadata></metadata><defs><font id="3.603;NONE;Mulish-MediumItalic" horiz-adv-x="1343"><font-face font-family="Mulish Medium" font-weight="500" font-stretch="normal" units-per-em="1000" panose-1="0 0 0 0 0 0 0 0 0 0" ascent="1005" descent="-250" x-height="0" bbox="-296 -270 1359 1045" underline-thickness="44" underline-position="-85" unicode-range="U+0000-fb02" /><missing-glyph horiz-adv-x="500"  /><glyph glyph-name="A" unicode="A" d="M-26 0 l424 705 l81 0 l205 -705 l-92 0 l-56 200 l37 -24 l-429 0 l47 24 l-118 -200 l-99 0 ZM425 601 l-215 -370 l-21 21 l363 0 l-22 -21 l-102 370 l-3 0 Z" /><glyph glyph-name="AE" unicode="Æ" d="M-46 0 l543 705 l535 0 l-13 -76 l-394 0 l26 23 l-19 -281 l-14 25 l344 0 l-12 -76 l-338 0 l16 10 l-18 -278 l-9 24 l331 0 l-12 -76 l-401 0 l13 196 l24 -20 l-381 0 l38 25 l-152 -201 l-107 0 ZM535 628 l-301 -398 l-9 22 l323 0 l-12 -24 l27 400 l-28 0 Z" /><glyph glyph-name="B" unicode="B" d="M46 0 l112 705 l292 0 q110 0 162.5 -49 q52.5 -49 38.5 -141 q-11 -66 -56.5 -107.5 q-45.5 -41.5 -116.5 -56.5 l2 15 q76 -9 111.5 -58 q35.5 -49 24.5 -123 q-15 -92 -83.5 -138.5 q-68.5 -46.5 -183.5 -46.5 l-303 0 ZM148 74 l202 0 q73 0 119.5 27.5 q46.5 27.5 56.5 87.5 q8 49 -7 77.5 q-15 28.5 -47 41 q-32 12.5 -78 12.5 l-208 0 l-38 -246 ZM199 394 l184 0 q79 0 122.5 29 q43.5 29 51.5 82 q10 65 -21.5 96 q-31.5 31 -102.5 31 l-197 0 l-37 -238 Z" /><glyph glyph-name="uni0181" unicode="&#x181;" d="M180 0 l100 635 l-32 0 q-56 0 -86.5 -25.5 q-30.5 -25.5 -39.5 -79.5 l-8 -46 l-78 0 l8 49 q14 87 68.5 129.5 q54.5 42.5 156.5 42.5 l315 0 q110 0 163 -49 q53 -49 39 -141 q-11 -66 -57 -107.5 q-46 -41.5 -116 -56.5 l2 15 q75 -9 111 -58 q36 -49 24 -123 q-14 -92 -83 -138.5 q-69 -46.5 -184 -46.5 l-303 0 ZM282 74 l202 0 q73 0 119.5 27.5 q46.5 27.5 56.5 87.5 q8 49 -6.5 77.5 q-14.5 28.5 -47 41 q-32.5 12.5 -78.5 12.5 l-207 0 l-39 -246 ZM333 394 l185 0 q78 0 122 29 q44 29 52 82 q10 65 -22 96 q-32 31 -103 31 l-197 0 l-37 -238 Z" /><glyph glyph-name="C" unicode="C" d="M375 -9 q-117 0 -188.5 47.5 q-71.5 47.5 -98.5 132 q-27 84.5 -10 195.5 q18 111 69 189 q51 78 131 119 q80 41 183 40 q72 0 127 -20.5 q55 -20.5 94 -59.5 l-36 -75 q-43 39 -86.5 55 q-43.5 16 -103.5 16 q-114 0 -187 -71 q-73 -71 -94 -202 q-13 -85 4.5 -148.5 q17.5 -63.5 68.5 -98.5 q51 -35 136 -35 q54 0 106.5 18.5 q52.5 18.5 99.5 59.5 l31 -73 q-47 -43 -112.5 -66 q-65.5 -23 -133.5 -23 Z" /><glyph glyph-name="D" unicode="D" d="M46 0 l112 705 l229 0 q125 0 201 -43.5 q76 -43.5 105 -125.5 q29 -82 11 -196 q-28 -171 -134.5 -255.5 q-106.5 -84.5 -281.5 -84.5 l-242 0 ZM152 79 l139 0 q140 0 219 66.5 q79 66.5 101 203.5 q22 141 -36.5 209 q-58.5 68 -198.5 68 l-138 0 l-86 -547 Z" /><glyph glyph-name="uni018A" unicode="&#x18a;" d="M180 0 l100 635 l-32 0 q-56 0 -86.5 -25.5 q-30.5 -25.5 -39.5 -79.5 l-8 -46 l-78 0 l8 49 q14 87 68.5 129.5 q54.5 42.5 150.5 42.5 l259 0 q125 0 201 -43.5 q76 -43.5 105 -125.5 q29 -82 11 -196 q-28 -171 -134.5 -255.5 q-106.5 -84.5 -282.5 -84.5 l-242 0 ZM286 79 l139 0 q140 0 219.5 66.5 q79.5 66.5 101.5 203.5 q22 141 -36.5 209 q-58.5 68 -199.5 68 l-137 0 l-87 -547 Z" /><glyph glyph-name="E" unicode="E" d="M46 0 l112 705 l456 0 l-13 -76 l-366 0 l-36 -233 l343 0 l-12 -76 l-343 0 l-39 -244 l365 0 l-11 -76 l-456 0 Z" /><glyph glyph-name="F" unicode="F" d="M46 0 l112 705 l446 0 l-13 -76 l-353 0 l-36 -236 l330 0 l-12 -76 l-330 0 l-51 -317 l-93 0 Z" /><glyph glyph-name="G" unicode="G" d="M383 -9 q-122 0 -196 46 q-74 46 -100.5 130 q-26.5 84 -8.5 198 q18 112 71 189.5 q53 77.5 136 118.5 q83 41 190 41 q77 0 131 -19.5 q54 -19.5 91 -54.5 l-37 -75 q-41 35 -82.5 50.5 q-41.5 15.5 -106.5 15.5 q-123 0 -199 -72.5 q-76 -72.5 -97 -204.5 q-21 -133 30 -207 q51 -74 185 -74 q51 0 96 9 q45 9 90 27 l-30 -48 l37 239 l-176 0 l12 72 l256 0 l-52 -327 q-31 -17 -71.5 -29 q-40.5 -12 -84.5 -18.5 q-44 -6.5 -84 -6.5 Z" /><glyph glyph-name="H" unicode="H" d="M46 0 l112 705 l93 0 l-49 -308 l410 0 l49 308 l94 0 l-112 -705 l-94 0 l51 318 l-410 0 l-51 -318 l-93 0 Z" /><glyph glyph-name="Hbar" unicode="&#x126;" d="M62 0 l81 518 l-91 0 l11 71 l92 0 l19 116 l93 0 l-19 -116 l409 0 l19 116 l93 0 l-19 -116 l92 0 l-12 -71 l-91 0 l-82 -518 l-93 0 l49 311 l-408 0 l-50 -311 l-93 0 ZM217 391 l409 0 l19 127 l-408 0 l-20 -127 Z" /><glyph glyph-name="I" unicode="I" d="M46 0 l112 705 l93 0 l-112 -705 l-93 0 Z" /><glyph glyph-name="J" unicode="J" d="M12 -187 q-16 0 -37 2.5 q-21 2.5 -42 9.5 l11 76 q19 -7 35.5 -9 q16.5 -2 29.5 -2 q46 0 73 28 q27 28 37 89 l110 698 l94 0 l-112 -704 q-10 -63 -34.5 -105 q-24.5 -42 -65 -62.5 q-40.5 -20.5 -99.5 -20.5 Z" /><glyph glyph-name="K" unicode="K" d="M46 0 l112 705 l93 0 l-51 -319 l2 0 l378 319 l121 0 l-436 -365 l-3 45 l354 -385 l-116 0 l-306 331 l-2 0 l-53 -331 l-93 0 Z" /><glyph glyph-name="L" unicode="L" d="M46 0 l112 705 l93 0 l-99 -625 l350 0 l-12 -80 l-444 0 Z" /><glyph glyph-name="M" unicode="M" d="M46 0 l112 705 l82 0 l178 -626 l-30 0 l378 626 l81 0 l-112 -705 l-85 0 l92 581 l32 0 l-354 -581 l-57 0 l-170 581 l30 0 l-92 -581 l-85 0 Z" /><glyph glyph-name="N" unicode="N" d="M46 0 l112 705 l72 0 l346 -588 l-20 4 l92 584 l87 0 l-112 -705 l-71 0 l-347 588 l20 -4 l-92 -584 l-87 0 Z" /><glyph glyph-name="Eng" unicode="&#x14a;" d="M370 -193 l5 69 l47 4 q48 4 76 30.5 q28 26.5 37 76.5 l8 54 l9 -41 l-347 588 l20 -4 l-92 -584 l-87 0 l112 705 l72 0 l346 -588 l-20 4 l92 584 l87 0 l-112 -711 q-10 -59 -35.5 -98.5 q-25.5 -39.5 -67.5 -60.5 q-42 -21 -104 -25 l-46 -3 Z" /><glyph glyph-name="O" unicode="O" d="M78 366 q18 111 68 189 q50 78 128 118.5 q78 40.5 177 40.5 q107 0 174.5 -47.5 q67.5 -47.5 94.5 -132 q27 -84.5 9 -194.5 q-17 -111 -67.5 -189 q-50.5 -78 -128 -119 q-77.5 -41 -177.5 -41 q-106 0 -174 47.5 q-68 47.5 -94.5 132 q-26.5 84.5 -9.5 195.5 ZM175 356 q-14 -88 3.5 -151.5 q17.5 -63.5 64.5 -97.5 q47 -34 120 -34 q112 0 180.5 73.5 q68.5 73.5 88.5 203.5 q15 88 -3 151 q-18 63 -65 97 q-47 34 -121 34 q-111 0 -178.5 -72.5 q-67.5 -72.5 -89.5 -203.5 Z" /><glyph glyph-name="Oslash" unicode="Ø" d="M78 366 q18 111 68 189 q50 78 128 118.5 q78 40.5 177 40.5 q107 0 174.5 -47.5 q67.5 -47.5 94.5 -132 q27 -84.5 9 -194.5 q-17 -111 -67.5 -189 q-50.5 -78 -128 -119 q-77.5 -41 -177.5 -41 q-106 0 -174 47.5 q-68 47.5 -94.5 132 q-26.5 84.5 -9.5 195.5 ZM175 356 q-14 -88 3.5 -151.5 q17.5 -63.5 64.5 -97.5 q47 -34 120 -34 q112 0 180.5 73.5 q68.5 73.5 88.5 203.5 q15 88 -3 151 q-18 63 -65 97 q-47 34 -121 34 q-111 0 -178.5 -72.5 q-67.5 -72.5 -89.5 -203.5 ZM231 59 l-71 -97 l-58 41 l71 97 l36 40 l349 467 l23 40 l72 96 l59 -41 l-72 -96 l-36 -41 l-348 -466 l-25 -40 Z" /><glyph glyph-name="OE" unicode="&#x152;" d="M516 0 l112 705 l452 0 l-13 -76 l-361 0 l-37 -233 l340 0 l-11 -76 l-340 0 l-40 -244 l362 0 l-12 -76 l-452 0 ZM344 -9 q-104 0 -169 47.5 q-65 47.5 -89.5 132.5 q-24.5 85 -7.5 195 q18 111 67.5 189 q49.5 78 125 118.5 q75.5 40.5 171.5 40.5 q62 0 112 -19.5 q50 -19.5 81 -58.5 l-17 -103 q-24 48 -68 73.5 q-44 25.5 -107 25.5 q-111 0 -179 -72.5 q-68 -72.5 -89 -203.5 q-14 -87 2.5 -150.5 q16.5 -63.5 62 -98 q45.5 -34.5 119.5 -34.5 q65 0 115 24.5 q50 24.5 86 70.5 l-16 -104 q-41 -36 -90 -54.5 q-49 -18.5 -110 -18.5 Z" /><glyph glyph-name="P" unicode="P" d="M46 0 l112 705 l283 0 q117 0 170.5 -57.5 q53.5 -57.5 36.5 -158.5 q-9 -60 -42 -103 q-33 -43 -87 -65.5 q-54 -22.5 -127 -22.5 l-206 0 l-47 -298 l-93 0 ZM198 374 l190 0 q74 0 116.5 30.5 q42.5 30.5 52.5 91.5 q11 66 -22 99.5 q-33 33.5 -108 33.5 l-189 0 l-40 -255 Z" /><glyph glyph-name="Thorn" unicode="Þ" d="M46 0 l112 705 l93 0 l-21 -132 l190 0 q117 0 170 -58 q53 -58 38 -158 q-9 -61 -42.5 -104 q-33.5 -43 -87.5 -65.5 q-54 -22.5 -126 -22.5 l-207 0 l-26 -165 l-93 0 ZM177 241 l189 0 q75 0 118 30.5 q43 30.5 52 92.5 q11 65 -22 99 q-33 34 -108 34 l-188 0 l-41 -256 Z" /><glyph glyph-name="Q" unicode="Q" d="M507 -192 q-26 19 -53 49 q-27 30 -49 67 q-22 37 -36 75 l85 30 q18 -52 53 -94.5 q35 -42.5 72 -72.5 l-72 -54 ZM78 366 q18 111 68 189 q50 78 128 118.5 q78 40.5 177 40.5 q107 0 174.5 -47.5 q67.5 -47.5 94.5 -132 q27 -84.5 9 -194.5 q-17 -111 -67.5 -189 q-50.5 -78 -128 -119 q-77.5 -41 -177.5 -41 q-106 0 -174 47.5 q-68 47.5 -94.5 132 q-26.5 84.5 -9.5 195.5 ZM175 356 q-14 -88 3.5 -151.5 q17.5 -63.5 64.5 -97.5 q47 -34 120 -34 q112 0 180.5 73.5 q68.5 73.5 88.5 203.5 q15 88 -3 151 q-18 63 -65 97 q-47 34 -121 34 q-111 0 -178.5 -72.5 q-67.5 -72.5 -89.5 -203.5 Z" /><glyph glyph-name="R" unicode="R" d="M46 0 l112 705 l283 0 q119 0 173 -55.5 q54 -55.5 38 -155.5 q-9 -59 -43.5 -101 q-34.5 -42 -87.5 -64 q-53 -22 -119 -22 l6 14 l22 0 q41 0 69 -21 q28 -21 43 -66 l73 -234 l-98 0 l-72 232 q-12 43 -42 56 q-30 13 -78 13 l-138 0 l-48 -301 l-93 0 ZM198 373 l194 0 q73 0 116 32.5 q43 32.5 52 91.5 q10 66 -24.5 99 q-34.5 33 -111.5 33 l-186 0 l-40 -256 Z" /><glyph glyph-name="S" unicode="S" d="M286 -9 q-83 0 -149.5 20 q-66.5 20 -110.5 52 l37 74 q48 -30 102 -48 q54 -18 127 -18 q86 0 132 31.5 q46 31.5 53 81.5 q8 47 -16.5 74.5 q-24.5 27.5 -92.5 37.5 l-96 15 q-97 14 -140 67 q-43 53 -30 135 q9 60 47.5 105 q38.5 45 100.5 70.5 q62 25.5 144 25.5 q72 0 131 -20 q59 -20 96 -53 l-36 -73 q-39 32 -88 49 q-49 17 -113 17 q-80 0 -130 -33 q-50 -33 -60 -90 q-8 -49 17 -79.5 q25 -30.5 93 -40.5 l98 -14 q98 -14 140 -63 q42 -49 29 -132 q-9 -55 -46 -98.5 q-37 -43.5 -97.5 -68 q-60.5 -24.5 -141.5 -24.5 Z" /><glyph glyph-name="uni1E9E" unicode="&#x1e9e;" d="M382 -9 q-55 0 -101 14.5 q-46 14.5 -82 40.5 l39 68 q31 -24 64.5 -35 q33.5 -11 74.5 -11 q70 0 112.5 32 q42.5 32 50.5 87 q11 65 -23 97 q-34 32 -111 32 l-128 0 l11 75 l96 0 q70 0 115 32 q45 32 54 91 q9 60 -24.5 91 q-33.5 31 -111.5 31 q-99 0 -147 -45 q-48 -45 -64 -137 l-71 -454 l-90 0 l72 458 q21 131 97 193.5 q76 62.5 212 62.5 q120 0 176.5 -52.5 q56.5 -52.5 42.5 -144.5 q-6 -38 -27.5 -72 q-21.5 -34 -54.5 -58.5 q-33 -24.5 -78 -35.5 l2 16 q77 -12 116 -60 q39 -48 25 -137 q-13 -83 -79.5 -131 q-66.5 -48 -167.5 -48 Z" /><glyph glyph-name="uni018F" unicode="&#x18f;" d="M344 -9 q-110 0 -174.5 46 q-64.5 46 -87 127.5 q-22.5 81.5 -5.5 189.5 l6 39 l555 0 l-12 -75 l-485 0 l30 35 q-14 -92 -2.5 -155 q11.5 -63 54.5 -95.5 q43 -32.5 124 -32.5 q108 0 176 70.5 q68 70.5 89 207.5 q22 137 -29 210.5 q-51 73.5 -176 73.5 q-69 0 -124 -17 q-55 -17 -111 -59 l-32 73 q58 43 126 64 q68 21 152 21 q111 0 182 -45.5 q71 -45.5 98.5 -129 q27.5 -83.5 9.5 -198.5 q-17 -108 -66.5 -186.5 q-49.5 -78.5 -125 -121 q-75.5 -42.5 -172.5 -42.5 Z" /><glyph glyph-name="T" unicode="T" d="M215 0 l100 626 l-245 0 l13 79 l583 0 l-13 -79 l-245 0 l-99 -626 l-94 0 Z" /><glyph glyph-name="U" unicode="U" d="M335 -9 q-92 0 -153 32.5 q-61 32.5 -86 97.5 q-25 65 -10 163 l67 421 l94 0 l-67 -422 q-17 -105 20.5 -157.5 q37.5 -52.5 143.5 -52.5 q93 0 148 49 q55 49 73 162 l67 421 l92 0 l-67 -427 q-16 -99 -57 -162.5 q-41 -63.5 -107 -94 q-66 -30.5 -158 -30.5 Z" /><glyph glyph-name="V" unicode="V" d="M269 0 l-196 705 l96 0 l169 -628 l-33 0 l368 628 l102 0 l-423 -705 l-83 0 Z" /><glyph glyph-name="W" unicode="W" d="M239 0 l-135 705 l93 0 l111 -622 l-36 0 l321 622 l72 0 l110 -622 l-33 0 l316 622 l96 0 l-361 -705 l-81 0 l-109 595 l21 0 l-305 -595 l-80 0 Z" /><glyph glyph-name="X" unicode="X" d="M-37 0 l343 378 l-1 -36 l-214 363 l106 0 l169 -296 l-29 0 l261 296 l116 0 l-329 -363 l0 36 l224 -378 l-106 0 l-181 314 l36 0 l-280 -314 l-115 0 Z" /><glyph glyph-name="Y" unicode="Y" d="M219 0 l53 330 l10 -61 l-224 436 l103 0 l171 -344 l-22 0 l280 344 l109 0 l-364 -439 l30 64 l-53 -330 l-93 0 Z" /><glyph glyph-name="uni01B3" unicode="&#x1b3;" d="M219 0 l53 330 l10 -61 l-224 436 l103 0 l171 -344 l-22 0 l220 270 q26 31 51 49 q25 18 53.5 26 q28.5 8 62.5 8 q21 0 36 -2.5 q15 -2.5 28 -8.5 l-11 -67 q-10 4 -22 5.5 q-12 1.5 -26 1.5 q-26 0 -49.5 -11 q-23.5 -11 -46.5 -39 l-271 -327 l30 64 l-53 -330 l-93 0 Z" /><glyph glyph-name="Z" unicode="Z" d="M4 0 l11 69 l507 590 l-5 -33 l-414 0 l13 79 l508 0 l-11 -68 l-508 -591 l4 33 l427 0 l-12 -79 l-520 0 Z" /><glyph glyph-name="a" unicode="a" d="M236 -9 q-69 0 -116 32.5 q-47 32.5 -66 94 q-19 61.5 -6 147.5 q20 121 90 184 q70 63 168 63 q66 0 110.5 -33 q44.5 -33 53.5 -91 l-11 -1 l30 116 l87 0 q-7 -30 -14.5 -60 q-7.5 -30 -12.5 -59 l-60 -384 l-91 0 l19 117 l15 0 q-26 -59 -76 -92.5 q-50 -33.5 -120 -33.5 ZM262 63 q67 0 115 47.5 q48 47.5 63 138.5 q15 95 -19.5 142.5 q-34.5 47.5 -105.5 47.5 q-67 0 -114 -47 q-47 -47 -62 -137 q-15 -96 18.5 -144 q33.5 -48 104.5 -48 Z" /><glyph glyph-name="ae" unicode="æ" d="M209 -9 q-61 0 -101 23 q-40 23 -57 61.5 q-17 38.5 -10 83.5 q10 53 48 82.5 q38 29.5 104.5 41.5 q66.5 12 159.5 12 l52 0 l-8 -53 l-54 0 q-65 0 -112 -7.5 q-47 -7.5 -73.5 -27 q-26.5 -19.5 -32.5 -55.5 q-7 -42 18.5 -68 q25.5 -26 77.5 -26 q64 0 106.5 40.5 q42.5 40.5 53.5 106.5 l17 115 q11 63 -16.5 91.5 q-27.5 28.5 -80.5 28.5 q-48 0 -89 -11.5 q-41 -11.5 -88 -38.5 l-27 65 q29 18 64 31 q35 13 72.5 19.5 q37.5 6.5 73.5 6.5 q81 0 120.5 -31 q39.5 -31 44.5 -90 l-29 0 q36 59 91 90 q55 31 120 31 q69 0 114 -30.5 q45 -30.5 63.5 -84.5 q18.5 -54 8.5 -125 l-5 -30 l-376 0 l9 54 l314 0 l-18 -14 q12 79 -17 121.5 q-29 42.5 -97 42.5 q-48 0 -84.5 -22.5 q-36.5 -22.5 -58 -61 q-21.5 -38.5 -28.5 -88.5 l-4 -25 q-12 -89 26 -137.5 q38 -48.5 123 -48.5 q41 0 81 13 q40 13 76 43 l30 -63 q-39 -31 -91.5 -48 q-52.5 -17 -105.5 -17 q-88 0 -142.5 40 q-54.5 40 -71.5 114 l24 0 q-27 -73 -82.5 -113.5 q-55.5 -40.5 -132.5 -40.5 Z" /><glyph glyph-name="b" unicode="b" d="M300 -9 q-66 0 -110.5 33.5 q-44.5 33.5 -54.5 90.5 l10 2 l-18 -117 l-91 0 l117 736 l91 0 l-55 -348 l-16 -1 q27 58 76.5 91.5 q49.5 33.5 119.5 33.5 q70 0 117 -32.5 q47 -32.5 66.5 -94 q19.5 -61.5 5.5 -146.5 q-20 -121 -90 -184.5 q-70 -63.5 -168 -63.5 ZM290 63 q68 0 115 47.5 q47 47.5 62 138.5 q15 95 -18.5 142.5 q-33.5 47.5 -105.5 47.5 q-66 0 -114.5 -47 q-48.5 -47 -63.5 -137 q-14 -96 20.5 -144 q34.5 -48 104.5 -48 Z" /><glyph glyph-name="uni0253" unicode="&#x253;" d="M300 -9 q-66 0 -110.5 33.5 q-44.5 33.5 -54.5 90.5 l10 2 l-18 -117 l-91 0 l91 570 q14 88 64 131.5 q50 43.5 138 43.5 q16 0 31 -2 q15 -2 27 -7 l-19 -70 q-13 4 -20.5 5 q-7.5 1 -18.5 1 q-95 0 -111 -102 l-29 -182 l-16 -1 q27 58 76.5 91.5 q49.5 33.5 119.5 33.5 q70 0 117 -32.5 q47 -32.5 66.5 -94 q19.5 -61.5 5.5 -146.5 q-20 -121 -90 -184.5 q-70 -63.5 -168 -63.5 ZM290 63 q68 0 115 47.5 q47 47.5 62 138.5 q15 95 -18.5 142.5 q-33.5 47.5 -105.5 47.5 q-66 0 -114.5 -47 q-48.5 -47 -63.5 -137 q-14 -96 20.5 -144 q34.5 -48 104.5 -48 Z" /><glyph glyph-name="c" unicode="c" d="M261 -9 q-77 0 -129.5 33 q-52.5 33 -74.5 94.5 q-22 61.5 -9 146.5 q20 121 94 184 q74 63 182 63 q47 0 90 -15 q43 -15 70 -44 l-34 -62 q-26 25 -59 36.5 q-33 11.5 -64 11.5 q-73 0 -122.5 -46.5 q-49.5 -46.5 -64.5 -135.5 q-15 -91 21.5 -141.5 q36.5 -50.5 112.5 -50.5 q33 0 70.5 12.5 q37.5 12.5 69.5 41.5 l29 -64 q-31 -30 -81.5 -47 q-50.5 -17 -100.5 -17 Z" /><glyph glyph-name="d" unicode="d" d="M236 -9 q-69 0 -116 32.5 q-47 32.5 -66 94 q-19 61.5 -6 147.5 q20 121 90 184 q70 63 168 63 q66 0 110.5 -33 q44.5 -33 53.5 -91 l-10 0 l55 348 l91 0 l-117 -736 l-90 0 l18 117 l15 0 q-26 -59 -76 -92.5 q-50 -33.5 -120 -33.5 ZM262 63 q67 0 115 47.5 q48 47.5 63 138.5 q15 95 -19.5 142.5 q-34.5 47.5 -105.5 47.5 q-67 0 -114 -47 q-47 -47 -62 -137 q-15 -96 18.5 -144 q33.5 -48 104.5 -48 Z" /><glyph glyph-name="eth" unicode="ð" d="M255 -9 q-74 0 -126 30.5 q-52 30.5 -74.5 86 q-22.5 55.5 -10.5 130.5 q11 67 46.5 116.5 q35.5 49.5 90 76.5 q54.5 27 123.5 27 q73 0 121.5 -37 q48.5 -37 55.5 -113 l-24 0 q14 85 -8 162 q-22 77 -80 131 l24 0 l-211 -85 l-19 45 l181 72 l-1 -13 q-27 22 -60.5 37.5 q-33.5 15.5 -70.5 25.5 l25 60 q60 -12 107 -34.5 q47 -22.5 83 -52.5 l-22 3 l126 50 l20 -44 l-105 -43 l2 15 q42 -46 66 -104.5 q24 -58.5 30 -124.5 q6 -66 -6 -137 q-21 -136 -94.5 -208 q-73.5 -72 -188.5 -72 ZM260 64 q69 0 116 43 q47 43 59 116 q12 77 -21.5 119.5 q-33.5 42.5 -104.5 42.5 q-69 0 -115.5 -41 q-46.5 -41 -59.5 -118 q-12 -77 22.5 -119.5 q34.5 -42.5 103.5 -42.5 Z" /><glyph glyph-name="dcroat" unicode="&#x111;" d="M236 -9 q-69 0 -116 32 q-47 32 -66 92.5 q-19 60.5 -6 143.5 q20 120 90 182 q70 62 168 62 q66 0 110.5 -33 q44.5 -33 53.5 -90 l-10 8 l30 191 l-194 0 l10 67 l195 0 l14 90 l91 0 l-14 -90 l92 0 l-10 -67 l-94 0 l-91 -579 l-90 0 l18 117 l15 -2 q-26 -57 -76 -90.5 q-50 -33.5 -120 -33.5 ZM262 63 q67 0 115 46.5 q48 46.5 63 134.5 q15 93 -19.5 139.5 q-34.5 46.5 -105.5 46.5 q-67 0 -114 -46 q-47 -46 -62 -135 q-15 -91 18.5 -138.5 q33.5 -47.5 104.5 -47.5 Z" /><glyph glyph-name="uni0257" unicode="&#x257;" d="M236 -9 q-69 0 -116 32.5 q-47 32.5 -66 94 q-19 61.5 -6 147.5 q20 121 90 184 q70 63 168 63 q66 0 110.5 -33 q44.5 -33 53.5 -91 l-10 0 l29 184 q14 89 65 131 q51 42 137 42 q15 0 30 -2 q15 -2 28 -7 l-20 -70 q-12 4 -20 5 q-8 1 -19 1 q-47 0 -75 -26.5 q-28 -26.5 -36 -77.5 l-90 -568 l-90 0 l18 117 l15 0 q-26 -59 -76 -92.5 q-50 -33.5 -120 -33.5 ZM262 63 q67 0 115 47.5 q48 47.5 63 138.5 q15 95 -19.5 142.5 q-34.5 47.5 -105.5 47.5 q-67 0 -114 -47 q-47 -47 -62 -137 q-15 -96 18.5 -144 q33.5 -48 104.5 -48 Z" /><glyph glyph-name="e" unicode="e" d="M276 -9 q-85 0 -140 34 q-55 34 -77.5 96.5 q-22.5 62.5 -9.5 146.5 q12 77 48 131.5 q36 54.5 92 83.5 q56 29 127 29 q70 0 115.5 -30.5 q45.5 -30.5 65 -84.5 q19.5 -54 8.5 -125 l-5 -30 l-384 0 l8 54 l323 0 l-18 -14 q12 79 -18 121.5 q-30 42.5 -100 42.5 q-50 0 -86.5 -22.5 q-36.5 -22.5 -58.5 -61 q-22 -38.5 -28 -88.5 l-4 -25 q-12 -89 26 -137.5 q38 -48.5 126 -48.5 q42 0 83 13 q41 13 77 43 l30 -63 q-40 -31 -92 -48 q-52 -17 -108 -17 Z" /><glyph glyph-name="uni0259" unicode="&#x259;" d="M236 -9 q-73 0 -120.5 30.5 q-47.5 30.5 -66.5 85 q-19 54.5 -9 124.5 l5 30 l384 0 l-8 -55 l-323 0 l20 15 q-14 -78 16 -120.5 q30 -42.5 104 -42.5 q48 0 83.5 22 q35.5 22 57.5 61 q22 39 29 88 l4 25 q12 90 -26.5 137.5 q-38.5 47.5 -126.5 47.5 q-41 0 -82 -12 q-41 -12 -78 -42 l-29 63 q41 32 93.5 48 q52.5 16 109.5 16 q83 0 137.5 -34 q54.5 -34 77 -96 q22.5 -62 8.5 -147 q-12 -75 -47 -130 q-35 -55 -89 -84.5 q-54 -29.5 -124 -29.5 Z" /><glyph glyph-name="f" unicode="f" d="M64 0 l69 433 l-98 0 l11 70 l123 0 l-29 -23 l15 89 q13 84 64 127.5 q51 43.5 137 43.5 q20 0 40.5 -3.5 q20.5 -3.5 34.5 -9.5 l-12 -74 q-11 5 -27 8 q-16 3 -33 3 q-30 0 -54 -12 q-24 -12 -40 -35.5 q-16 -23.5 -22 -61.5 l-11 -71 l-11 19 l152 0 l-11 -70 l-138 0 l-69 -433 l-91 0 Z" /><glyph glyph-name="g" unicode="g" d="M229 -224 q-64 0 -117 16 q-53 16 -92 49 l30 68 q28 -21 55.5 -34.5 q27.5 -13.5 59 -19.5 q31.5 -6 67.5 -6 q74 0 116.5 38 q42.5 38 53.5 108 l22 141 l12 0 q-24 -57 -76 -90.5 q-52 -33.5 -119 -33.5 q-69 0 -116.5 32.5 q-47.5 32.5 -67.5 92 q-20 59.5 -7 138.5 q19 115 88.5 176 q69.5 61 169.5 61 q67 0 112 -33 q45 -33 53 -91 l-7 9 l26 106 l88 0 q-8 -30 -15 -60 q-7 -30 -12 -59 l-60 -378 q-17 -112 -84 -171 q-67 -59 -180 -59 ZM265 84 q70 0 117.5 47 q47.5 47 60.5 130 q14 86 -20 132 q-34 46 -104 46 q-70 0 -117.5 -46 q-47.5 -46 -61.5 -130 q-14 -85 20.5 -132 q34.5 -47 104.5 -47 Z" /><glyph glyph-name="uni01E5" unicode="&#x1e5;" d="M228 -223 q-67 0 -118.5 15.5 q-51.5 15.5 -89.5 48.5 l29 65 q27 -20 55 -33.5 q28 -13.5 60 -20 q32 -6.5 67 -6.5 q115 0 153 90 l7 -10 l-131 0 l8 48 l142 0 l-15 -15 q2 8 3.5 15.5 q1.5 7.5 2.5 15.5 l25 158 l12 0 q-25 -57 -78 -89.5 q-53 -32.5 -119 -32.5 q-68 0 -115 32.5 q-47 32.5 -67 90 q-20 57.5 -8 133.5 q12 75 47.5 126 q35.5 51 89 77.5 q53.5 26.5 118.5 26.5 q68 0 113 -32.5 q45 -32.5 55 -90.5 l-8 8 l26 106 l88 0 q-8 -30 -15 -60 q-7 -30 -12 -59 l-60 -377 q-1 -11 -3.5 -22 q-2.5 -11 -4.5 -21 l-9 10 l80 0 l-8 -48 l-87 0 l14 11 q-29 -79 -90.5 -119.5 q-61.5 -40.5 -156.5 -40.5 ZM267 97 q69 0 116.5 45 q47.5 45 60.5 125 q13 83 -21 127.5 q-34 44.5 -105 44.5 q-70 0 -117 -44 q-47 -44 -60 -125 q-13 -83 21.5 -128 q34.5 -45 104.5 -45 Z" /><glyph glyph-name="h" unicode="h" d="M36 0 l117 736 l91 0 l-54 -342 l-15 0 q30 58 82 88 q52 30 119 30 q92 0 128 -53 q36 -53 20 -154 l-48 -305 l-91 0 l48 304 q12 72 -11.5 103 q-23.5 31 -81.5 31 q-67 0 -111.5 -41 q-44.5 -41 -55.5 -109 l-46 -288 l-91 0 Z" /><glyph glyph-name="hbar" unicode="&#x127;" d="M36 0 l92 579 l-94 0 l10 67 l95 0 l14 90 l91 0 l-14 -90 l198 0 l-10 -67 l-199 0 l-31 -192 l-14 0 q30 59 82.5 89 q52.5 30 118.5 30 q92 0 128.5 -53 q36.5 -53 20.5 -155 l-48 -298 l-91 0 l48 297 q11 73 -12.5 104 q-23.5 31 -81.5 31 q-68 0 -112 -41 q-44 -41 -55 -109 l-45 -282 l-91 0 Z" /><glyph glyph-name="i" unicode="i" d="M36 0 l80 503 l91 0 l-80 -503 l-91 0 ZM125 613 l16 98 l108 0 l-16 -98 l-108 0 Z" /><glyph glyph-name="dotlessi" unicode="&#x131;" d="M36 0 l80 503 l91 0 l-80 -503 l-91 0 Z" /><glyph glyph-name="j" unicode="j" d="M-61 -220 q-16 0 -36 2.5 q-20 2.5 -34 9.5 l12 75 q12 -4 27 -7.5 q15 -3.5 29 -3.5 q40 0 65 25.5 q25 25.5 34 83.5 l85 538 l91 0 l-87 -546 q-14 -87 -60 -132 q-46 -45 -126 -45 ZM129 613 l16 98 l108 0 l-16 -98 l-108 0 Z" /><glyph glyph-name="uni0237" unicode="&#x237;" d="M-61 -220 q-15 0 -35 3 q-20 3 -34 9 l12 75 q11 -4 26.5 -7.5 q15.5 -3.5 28.5 -3.5 q41 0 65.5 25.5 q24.5 25.5 33.5 83.5 l85 538 l91 0 l-86 -546 q-14 -87 -60.5 -132 q-46.5 -45 -126.5 -45 Z" /><glyph glyph-name="k" unicode="k" d="M36 0 l117 736 l91 0 l-72 -455 l2 0 l257 222 l118 0 l-308 -264 l0 43 l252 -282 l-112 0 l-215 234 l-2 0 l-37 -234 l-91 0 Z" /><glyph glyph-name="kgreenlandic" unicode="&#x138;" d="M36 0 l80 503 l91 0 l-35 -222 l2 0 l257 222 l118 0 l-308 -264 l0 43 l252 -282 l-112 0 l-215 234 l-2 0 l-37 -234 l-91 0 Z" /><glyph glyph-name="l" unicode="l" d="M36 0 l117 736 l91 0 l-117 -736 l-91 0 Z" /><glyph glyph-name="m" unicode="m" d="M36 0 l61 384 q5 29 7.5 59 q2.5 30 3.5 60 l88 0 l-8 -108 l-13 0 q29 58 76.5 87.5 q47.5 29.5 108.5 29.5 q62 0 98.5 -30.5 q36.5 -30.5 39.5 -91.5 l-15 0 q28 55 80 88.5 q52 33.5 115 33.5 q84 0 120.5 -50.5 q36.5 -50.5 19.5 -158.5 l-48 -303 l-91 0 l49 308 q10 68 -9.5 99 q-19.5 31 -72.5 31 q-61 0 -101 -41.5 q-40 -41.5 -52 -112.5 l-45 -284 l-91 0 l49 308 q11 68 -8.5 99 q-19.5 31 -73.5 31 q-61 0 -100.5 -41.5 q-39.5 -41.5 -50.5 -112.5 l-46 -284 l-91 0 Z" /><glyph glyph-name="n" unicode="n" d="M36 0 l61 384 q5 29 7.5 59 q2.5 30 3.5 60 l88 0 l-8 -108 l-13 -1 q30 58 82 88 q52 30 119 30 q92 0 128 -53 q36 -53 20 -154 l-48 -305 l-91 0 l48 304 q12 72 -11.5 103 q-23.5 31 -81.5 31 q-67 0 -111.5 -41 q-44.5 -41 -55.5 -109 l-46 -288 l-91 0 Z" /><glyph glyph-name="eng" unicode="&#x14b;" d="M36 0 l61 384 q5 29 7.5 59 q2.5 30 3.5 60 l88 0 l-8 -108 l-13 -1 q30 58 82 88 q52 30 119 30 q92 0 128 -53 q36 -53 20 -154 l-54 -344 q-15 -87 -64 -134 q-49 -47 -133 -47 q-20 0 -37.5 3 q-17.5 3 -32.5 9 l12 75 q13 -4 25.5 -7.5 q12.5 -3.5 29.5 -3.5 q46 0 73.5 27.5 q27.5 27.5 36.5 85.5 l53 335 q12 72 -11.5 103 q-23.5 31 -81.5 31 q-67 0 -111.5 -41 q-44.5 -41 -55.5 -109 l-46 -288 l-91 0 Z" /><glyph glyph-name="o" unicode="o" d="M255 -9 q-76 0 -127.5 32 q-51.5 32 -72 93.5 q-20.5 61.5 -7.5 148.5 q13 80 51 135.5 q38 55.5 94.5 83.5 q56.5 28 126.5 28 q78 0 129 -32 q51 -32 72 -93.5 q21 -61.5 7 -147.5 q-13 -81 -51 -136 q-38 -55 -95 -83.5 q-57 -28.5 -127 -28.5 ZM261 63 q67 0 114.5 47.5 q47.5 47.5 62.5 138.5 q15 95 -19.5 142.5 q-34.5 47.5 -104.5 47.5 q-67 0 -113.5 -47 q-46.5 -47 -61.5 -137 q-15 -96 18 -144 q33 -48 104 -48 Z" /><glyph glyph-name="oslash" unicode="ø" d="M255 -9 q-76 0 -127.5 32 q-51.5 32 -72 93.5 q-20.5 61.5 -7.5 148.5 q13 80 51 135.5 q38 55.5 94.5 83.5 q56.5 28 126.5 28 q78 0 129 -32 q51 -32 72 -93.5 q21 -61.5 7 -147.5 q-13 -81 -51 -136 q-38 -55 -95 -83.5 q-57 -28.5 -127 -28.5 ZM261 63 q71 0 119.5 47.5 q48.5 47.5 63.5 138.5 q15 93 -21 141.5 q-36 48.5 -109 48.5 q-70 0 -118.5 -47 q-48.5 -47 -62.5 -138 q-15 -92 18.5 -141.5 q33.5 -49.5 109.5 -49.5 ZM115 -35 l-46 33 l396 538 l44 -32 l-394 -539 Z" /><glyph glyph-name="oe" unicode="&#x153;" d="M255 -9 q-76 0 -127.5 32 q-51.5 32 -72.5 93.5 q-21 61.5 -7 148.5 q13 80 51 135.5 q38 55.5 94.5 83.5 q56.5 28 126.5 28 q80 0 128.5 -38.5 q48.5 -38.5 62.5 -110.5 l-29 0 q23 52 58 84.5 q35 32.5 78 48.5 q43 16 88 16 q69 0 113.5 -30 q44.5 -30 63.5 -83 q19 -53 10 -123 l-5 -34 l-379 0 l8 54 l319 0 l-20 -14 q12 79 -17.5 121.5 q-29.5 42.5 -96.5 42.5 q-48 0 -84 -22.5 q-36 -22.5 -58 -61 q-22 -38.5 -28 -88.5 l-4 -25 q-12 -89 25.5 -137.5 q37.5 -48.5 123.5 -48.5 q40 0 80 13 q40 13 76 43 l30 -63 q-38 -31 -91 -48 q-53 -17 -105 -17 q-87 0 -140.5 38.5 q-53.5 38.5 -69.5 108.5 l29 3 q-34 -73 -92.5 -111.5 q-58.5 -38.5 -138.5 -38.5 ZM261 63 q67 0 114.5 47.5 q47.5 47.5 62.5 138.5 q15 95 -19.5 142.5 q-34.5 47.5 -104.5 47.5 q-67 0 -113.5 -47 q-46.5 -47 -61.5 -137 q-15 -96 18 -144 q33 -48 104 -48 Z" /><glyph glyph-name="p" unicode="p" d="M2 -216 l95 600 q5 29 7.5 59 q2.5 30 3.5 60 l88 0 l-8 -116 l-15 0 q27 58 76.5 91.5 q49.5 33.5 119.5 33.5 q70 0 117 -32.5 q47 -32.5 66.5 -94 q19.5 -61.5 5.5 -146.5 q-20 -121 -90 -184.5 q-70 -63.5 -168 -63.5 q-66 0 -110.5 33.5 q-44.5 33.5 -54.5 90.5 l11 0 l-53 -331 l-91 0 ZM290 63 q68 0 115 47.5 q47 47.5 62 138.5 q15 95 -18.5 142.5 q-33.5 47.5 -105.5 47.5 q-66 0 -114.5 -47 q-48.5 -47 -63.5 -137 q-14 -96 20.5 -144 q34.5 -48 104.5 -48 Z" /><glyph glyph-name="thorn" unicode="þ" d="M2 -216 l151 952 l91 0 l-55 -348 l-16 -1 q27 58 76.5 91.5 q49.5 33.5 119.5 33.5 q70 0 117 -32.5 q47 -32.5 66.5 -94 q19.5 -61.5 5.5 -146.5 q-20 -121 -90 -184.5 q-70 -63.5 -168 -63.5 q-66 0 -110.5 33.5 q-44.5 33.5 -54.5 90.5 l11 0 l-53 -331 l-91 0 ZM290 63 q68 0 115 47.5 q47 47.5 62 138.5 q15 95 -18.5 142.5 q-33.5 47.5 -105.5 47.5 q-66 0 -114.5 -47 q-48.5 -47 -63.5 -137 q-14 -96 20.5 -144 q34.5 -48 104.5 -48 Z" /><glyph glyph-name="q" unicode="q" d="M364 -216 l52 331 l16 2 q-26 -59 -76 -92.5 q-50 -33.5 -120 -33.5 q-69 0 -116 32.5 q-47 32.5 -66 94 q-19 61.5 -6 147.5 q20 121 90 184 q70 63 168 63 q66 0 110.5 -33 q44.5 -33 53.5 -91 l-11 -1 l30 116 l87 0 q-7 -30 -14.5 -60 q-7.5 -30 -12.5 -59 l-94 -600 l-91 0 ZM262 63 q67 0 115 47.5 q48 47.5 63 138.5 q15 95 -19.5 142.5 q-34.5 47.5 -105.5 47.5 q-67 0 -114 -47 q-47 -47 -62 -137 q-15 -96 18.5 -144 q33.5 -48 104.5 -48 Z" /><glyph glyph-name="r" unicode="r" d="M35 0 l60 380 q5 30 8.5 61.5 q3.5 31.5 4.5 61.5 l88 0 l-8 -126 l-17 -1 q17 46 46 76.5 q29 30.5 65.5 45 q36.5 14.5 75.5 14.5 q13 0 25 -1 q12 -1 23 -4 l-15 -81 q-13 5 -26 6.5 q-13 1.5 -30 1.5 q-44 0 -78 -19 q-34 -19 -56 -51.5 q-22 -32.5 -28 -73.5 l-47 -290 l-91 0 Z" /><glyph glyph-name="s" unicode="s" d="M214 -9 q-58 0 -108.5 15 q-50.5 15 -80.5 41 l31 63 q34 -23 75.5 -37 q41.5 -14 87.5 -14 q56 0 88.5 20.5 q32.5 20.5 37.5 53.5 q5 31 -11.5 50 q-16.5 19 -56.5 25 l-74 13 q-74 12 -103 51.5 q-29 39.5 -20 98.5 q7 45 36 76 q29 31 74 48 q45 17 99 17 q55 0 100.5 -14.5 q45.5 -14.5 71.5 -38.5 l-33 -62 q-26 22 -62.5 34.5 q-36.5 12.5 -76.5 12.5 q-56 0 -87.5 -22 q-31.5 -22 -36.5 -55 q-5 -30 9 -50.5 q14 -20.5 51 -26.5 l77 -13 q76 -13 106.5 -49.5 q30.5 -36.5 20.5 -94.5 q-7 -44 -35.5 -76 q-28.5 -32 -74.5 -49 q-46 -17 -105 -17 Z" /><glyph glyph-name="germandbls" unicode="ß" d="M36 0 l78 489 q20 127 88 190 q68 63 188 63 q64 0 108.5 -21 q44.5 -21 65 -61 q20.5 -40 11.5 -99 q-6 -38 -27.5 -74 q-21.5 -36 -63.5 -68 q-42 -32 -112 -58 l1 19 q85 -24 137.5 -56.5 q52.5 -32.5 74 -75 q21.5 -42.5 12.5 -98.5 q-8 -50 -37 -85.5 q-29 -35.5 -74 -54.5 q-45 -19 -102 -19 q-59 0 -104 14.5 q-45 14.5 -75 38.5 l30 64 q34 -23 69.5 -35 q35.5 -12 77.5 -12 q54 0 87 25 q33 25 41 71 q5 35 -11.5 65 q-16.5 30 -65 56.5 q-48.5 26.5 -139.5 50.5 l11 72 q66 23 105 48 q39 25 57 53 q18 28 23 59 q9 53 -18.5 82 q-27.5 29 -88.5 29 q-75 0 -118.5 -41.5 q-43.5 -41.5 -58.5 -131.5 l-79 -499 l-91 0 Z" /><glyph glyph-name="t" unicode="t" d="M229 -9 q-83 0 -117.5 44.5 q-34.5 44.5 -21.5 130.5 l43 267 l-98 0 l11 70 l98 0 l22 135 l95 25 l-26 -160 l142 0 l-11 -70 l-142 0 l-41 -257 q-8 -58 8 -83.5 q16 -25.5 56 -25.5 q19 0 34 3.5 q15 3.5 28 8.5 l-12 -75 q-16 -6 -32.5 -9.5 q-16.5 -3.5 -35.5 -3.5 Z" /><glyph glyph-name="u" unicode="u" d="M222 -9 q-89 0 -131.5 50.5 q-42.5 50.5 -26.5 155.5 l49 306 l91 0 l-48 -302 q-11 -72 12 -104 q23 -32 81 -32 q65 0 107 42 q42 42 53 111 l45 285 l91 0 l-80 -503 l-88 0 l17 111 l15 0 q-29 -57 -77.5 -88.5 q-48.5 -31.5 -109.5 -31.5 Z" /><glyph glyph-name="v" unicode="v" d="M184 0 l-135 503 l94 0 l107 -432 l-28 0 l246 432 l97 0 l-296 -503 l-85 0 Z" /><glyph glyph-name="w" unicode="w" d="M172 0 l-109 503 l92 0 l84 -431 l-26 0 l225 431 l74 0 l86 -431 l-25 0 l221 431 l94 0 l-268 -503 l-86 0 l-90 438 l44 0 l-229 -438 l-87 0 Z" /><glyph glyph-name="x" unicode="x" d="M-37 0 l272 282 l-1 -45 l-173 266 l103 0 l125 -201 l-32 0 l189 201 l113 0 l-255 -264 l3 41 l181 -280 l-106 0 l-135 215 l34 0 l-204 -215 l-114 0 Z" /><glyph glyph-name="y" unicode="y" d="M-16 -227 l-15 74 q49 11 82.5 25.5 q33.5 14.5 58.5 37.5 q25 23 46 58 l35 60 l-5 -38 l-138 513 l95 0 l108 -431 l-27 0 l243 431 l98 0 l-317 -542 q-29 -49 -59 -82 q-30 -33 -61.5 -54 q-31.5 -21 -66.5 -33 q-35 -12 -77 -19 Z" /><glyph glyph-name="uni01B4" unicode="&#x1b4;" d="M-17 -227 l-14 74 q50 11 83.5 25.5 q33.5 14.5 58 37.5 q24.5 23 45.5 58 l35 60 l-5 -38 l-138 513 l95 0 l108 -431 l-27 0 l183 326 q23 41 48 66 q25 25 56 36.5 q31 11.5 73 11.5 q18 0 33.5 -2.5 q15.5 -2.5 27.5 -6.5 l-20 -70 q-9 3 -19 4.5 q-10 1.5 -19 1.5 q-33 0 -56.5 -17 q-23.5 -17 -52.5 -65 l-230 -396 q-29 -49 -59 -82 q-30 -33 -61.5 -54 q-31.5 -21 -67.5 -33 q-36 -12 -77 -19 Z" /><glyph glyph-name="z" unicode="z" d="M9 0 l10 61 l391 395 l-4 -23 l-328 0 l11 70 l417 0 l-9 -61 l-393 -397 l3 25 l342 0 l-11 -70 l-429 0 Z" /><glyph glyph-name="fi" unicode="&#xfb01;" d="M64 0 l69 433 l-98 0 l11 70 l123 0 l-29 -23 l15 89 q14 84 63.5 127.5 q49.5 43.5 131.5 43.5 q20 0 42 -3 q22 -3 36 -10 l-12 -74 q-11 5 -28 8 q-17 3 -35 3 q-45 0 -73 -26.5 q-28 -26.5 -37 -82.5 l-11 -71 l-11 19 l328 0 l-79 -503 l-91 0 l68 433 l-223 0 l-69 -433 l-91 0 ZM467 613 l15 98 l109 0 l-15 -98 l-109 0 Z" /><glyph glyph-name="ordfeminine" unicode="ª" d="M160 410 q-32 0 -55.5 12.5 q-23.5 12.5 -34.5 34.5 q-11 22 -7 50 q5 31 25.5 48.5 q20.5 17.5 54 24.5 q33.5 7 75.5 7 l74 0 l-7 -37 l-73 0 q-79 0 -86 -45 q-3 -22 9 -36 q12 -14 42 -14 q37 0 65 24 q28 24 35 66 l9 57 q5 31 -10.5 47 q-15.5 16 -52.5 16 q-26 0 -54.5 -6.5 q-28.5 -6.5 -53.5 -21.5 l-15 46 q26 15 62 23 q36 8 69 8 q66 0 95 -30.5 q29 -30.5 19 -93.5 l-28 -174 l-59 0 l9 54 l-3 0 q-19 -31 -44.5 -45.5 q-25.5 -14.5 -59.5 -14.5 Z" /><glyph glyph-name="ordmasculine" unicode="º" d="M203 411 q-67 0 -104 41.5 q-37 41.5 -26 116.5 q11 69 56 107 q45 38 110 38 q68 0 105 -40.5 q37 -40.5 25 -117.5 q-10 -68 -55 -106.5 q-45 -38.5 -111 -38.5 ZM207 461 q38 0 65 26 q27 26 35 76 q8 50 -11 76 q-19 26 -60 26 q-38 0 -65 -26 q-27 -26 -35 -76 q-8 -50 11 -76 q19 -26 60 -26 Z" /><glyph glyph-name="uni0411" unicode="&#x411;" d="M46 0 l112 705 l481 0 l-13 -75 l-391 0 l-36 -233 l209 0 q118 0 175.5 -52.5 q57.5 -52.5 41.5 -158.5 q-14 -92 -84 -139 q-70 -47 -179 -47 l-316 0 ZM148 74 l209 0 q81 0 124.5 30 q43.5 30 53.5 93 q10 65 -23 95.5 q-33 30.5 -114 30.5 l-211 0 l-39 -249 Z" /><glyph glyph-name="uni0413" unicode="&#x413;" d="M46 0 l112 705 l459 0 l-13 -78 l-367 0 l-98 -627 l-93 0 Z" /><glyph glyph-name="uni0490" unicode="&#x490;" d="M46 0 l112 705 l376 0 l25 156 l83 0 l-37 -234 l-368 0 l-98 -627 l-93 0 Z" /><glyph glyph-name="uni0414" unicode="&#x414;" d="M-49 -159 l37 235 l72 0 q64 64 107 173.5 q43 109.5 68 271.5 l30 184 l487 0 l-100 -629 l104 0 l-37 -235 l-83 0 l25 159 l-601 0 l-26 -159 l-83 0 ZM161 76 l399 0 l87 554 l-309 0 l-18 -114 q-24 -159 -63 -264.5 q-39 -105.5 -96 -175.5 Z" /><glyph glyph-name="uni0416" unicode="&#x416;" d="M-33 0 l161 246 q43 65 94 100.5 q51 35.5 119 43.5 l-36 -28 l-182 343 l98 0 l170 -327 l-18 16 l108 0 l50 311 l89 0 l-49 -311 l109 0 l-30 -16 l275 327 l107 0 l-291 -343 l-31 28 q56 -7 96.5 -43 q40.5 -36 62.5 -101 l85 -246 l-95 0 l-68 206 q-20 59 -55 84.5 q-35 25.5 -91 25.5 l-86 0 l-51 -316 l-89 0 l49 316 l-85 0 q-58 0 -99.5 -25.5 q-41.5 -25.5 -79.5 -84.5 l-132 -206 l-105 0 Z" /><glyph glyph-name="uni0417" unicode="&#x417;" d="M288 -9 q-89 0 -156.5 24 q-67.5 24 -107.5 65 l35 70 q43 -39 99 -59 q56 -20 133 -20 q92 0 143 32 q51 32 61 93 q9 64 -25.5 93.5 q-34.5 29.5 -113.5 29.5 l-181 0 l12 76 l166 0 q81 0 123 30 q42 30 51 85 q9 59 -29.5 91.5 q-38.5 32.5 -126.5 32.5 q-65 0 -125.5 -19 q-60.5 -19 -113.5 -57 l-32 70 q57 42 130.5 64 q73.5 22 152.5 22 q88 0 143.5 -24.5 q55.5 -24.5 79 -69 q23.5 -44.5 14.5 -104.5 q-10 -60 -53 -104 q-43 -44 -120 -60 l2 14 q73 -10 110.5 -57 q37.5 -47 24.5 -124 q-9 -60 -45 -103.5 q-36 -43.5 -99 -67 q-63 -23.5 -152 -23.5 Z" /><glyph glyph-name="uni0418" unicode="&#x418;" d="M46 0 l112 705 l86 0 l-93 -586 l-24 0 l536 586 l72 0 l-112 -705 l-87 0 l93 586 l22 -1 l-535 -585 l-70 0 Z" /><glyph glyph-name="uni048A" unicode="&#x48a;" d="M545 -159 l80 159 l-89 0 l12 76 l195 0 l-119 -235 l-79 0 ZM46 0 l112 705 l86 0 l-93 -586 l-24 0 l536 586 l72 0 l-112 -705 l-87 0 l93 586 l22 -1 l-535 -585 l-70 0 ZM453 760 q-45 0 -82.5 15 q-37.5 15 -63 45 q-25.5 30 -36.5 73 l53 19 q15 -50 47.5 -73 q32.5 -23 83.5 -23 q52 0 87.5 22 q35.5 22 66.5 73 l48 -18 q-22 -47 -53.5 -76.5 q-31.5 -29.5 -70 -43 q-38.5 -13.5 -80.5 -13.5 Z" /><glyph glyph-name="uni041A" unicode="&#x41a;" d="M46 0 l112 705 l92 0 l-50 -311 l138 0 l-29 -16 l274 327 l108 0 l-292 -343 l-32 28 q62 -8 100.5 -43.5 q38.5 -35.5 60.5 -100.5 l84 -246 l-94 0 l-68 206 q-19 60 -55 85 q-36 25 -92 25 l-115 0 l-50 -316 l-92 0 Z" /><glyph glyph-name="uni041B" unicode="&#x41b;" d="M23 -15 l-42 70 q47 22 85 52 q38 30 68 77.5 q30 47.5 53.5 120 q23.5 72.5 40.5 178.5 l35 222 l488 0 l-112 -705 l-93 0 l100 627 l-310 0 l-26 -164 q-17 -109 -43.5 -189 q-26.5 -80 -61.5 -135 q-35 -55 -80.5 -92 q-45.5 -37 -101.5 -62 Z" /><glyph glyph-name="uni041F" unicode="&#x41f;" d="M46 0 l112 705 l595 0 l-112 -705 l-92 0 l98 627 l-410 0 l-99 -627 l-92 0 Z" /><glyph glyph-name="uni0423" unicode="&#x423;" d="M156 0 l159 230 l0 -34 l-247 509 l97 0 l204 -426 l-19 0 l293 426 l101 0 l-486 -705 l-102 0 Z" /><glyph glyph-name="uni0424" unicode="&#x424;" d="M349 -23 l15 99 l22 -20 l-24 0 q-104 0 -172.5 39 q-68.5 39 -96.5 110 q-28 71 -14 166 q23 141 119 215 q96 74 246 74 l37 0 l-27 -20 l15 93 l93 0 l-16 -93 l-21 20 l24 0 q106 0 174 -38.5 q68 -38.5 96 -109 q28 -70.5 13 -167.5 q-15 -92 -64 -157 q-49 -65 -126 -98.5 q-77 -33.5 -175 -33.5 l-38 0 l28 20 l-16 -99 l-92 0 ZM371 110 l78 495 l18 -18 l-37 0 q-102 0 -170 -55.5 q-68 -55.5 -86 -166.5 q-12 -76 7.5 -129 q19.5 -53 64.5 -80 q45 -27 112 -27 l37 0 l-24 -19 ZM462 110 l-19 19 l38 0 q67 0 121 25.5 q54 25.5 89.5 75 q35.5 49.5 45.5 120.5 q13 79 -6 131 q-19 52 -64.5 79 q-45.5 27 -113.5 27 l-38 0 l25 18 l-78 -495 Z" /><glyph glyph-name="uni0427" unicode="&#x427;" d="M478 0 l46 293 q-34 -16 -81.5 -25 q-47.5 -9 -95.5 -9 q-92 0 -151.5 32 q-59.5 32 -83.5 96.5 q-24 64.5 -9 160.5 l26 157 l92 0 l-24 -151 q-19 -116 24 -165 q43 -49 146 -49 q45 0 87.5 8.5 q42.5 8.5 83.5 28.5 l52 328 l93 0 l-112 -705 l-93 0 Z" /><glyph glyph-name="uni0426" unicode="&#x426;" d="M636 -159 l25 159 l-615 0 l112 705 l92 0 l-100 -626 l411 0 l100 626 l92 0 l-100 -626 l104 0 l-38 -238 l-83 0 Z" /><glyph glyph-name="uni0428" unicode="&#x428;" d="M46 0 l112 705 l91 0 l-99 -626 l320 0 l99 626 l92 0 l-100 -626 l320 0 l99 626 l92 0 l-112 -705 l-914 0 Z" /><glyph glyph-name="uni0429" unicode="&#x429;" d="M955 -159 l25 159 l-934 0 l112 705 l91 0 l-99 -626 l320 0 l99 626 l92 0 l-100 -626 l320 0 l99 626 l92 0 l-100 -626 l103 0 l-37 -238 l-83 0 Z" /><glyph glyph-name="uni040F" unicode="&#x40f;" d="M276 -159 l26 159 l-256 0 l112 705 l93 0 l-101 -626 l411 0 l100 626 l92 0 l-112 -705 l-256 0 l-25 -159 l-84 0 Z" /><glyph glyph-name="uni042C" unicode="&#x42c;" d="M46 0 l112 705 l93 0 l-49 -308 l206 0 q118 0 175.5 -52.5 q57.5 -52.5 41.5 -158.5 q-14 -92 -84 -139 q-70 -47 -179 -47 l-316 0 ZM150 74 l207 0 q81 0 124.5 30 q43.5 30 53.5 93 q10 65 -23 95.5 q-33 30.5 -114 30.5 l-208 0 l-40 -249 Z" /><glyph glyph-name="uni042A" unicode="&#x42a;" d="M191 0 l99 627 l-220 0 l13 78 l313 0 l-49 -308 l207 0 q118 0 175 -52.5 q57 -52.5 41 -158.5 q-14 -92 -83.5 -139 q-69.5 -47 -179.5 -47 l-316 0 ZM295 74 l207 0 q81 0 125 30 q44 30 54 93 q10 65 -23.5 95.5 q-33.5 30.5 -114.5 30.5 l-208 0 l-40 -249 Z" /><glyph glyph-name="uni042B" unicode="&#x42b;" d="M46 0 l112 705 l93 0 l-49 -308 l176 0 q118 0 175.5 -52.5 q57.5 -52.5 41.5 -158.5 q-14 -92 -84 -139 q-70 -47 -179 -47 l-286 0 ZM150 74 l177 0 q81 0 125 30 q44 30 53 93 q10 65 -23 95.5 q-33 30.5 -114 30.5 l-178 0 l-40 -249 ZM666 0 l112 705 l93 0 l-112 -705 l-93 0 Z" /><glyph glyph-name="uni0409" unicode="&#x409;" d="M23 -15 l-42 70 q47 22 85 52 q38 30 68 77.5 q30 47.5 53.5 120 q23.5 72.5 40.5 178.5 l35 222 l473 0 l-49 -308 l207 0 q118 0 175 -52.5 q57 -52.5 41 -158.5 q-14 -92 -83.5 -139 q-69.5 -47 -179.5 -47 l-316 0 l99 627 l-294 0 l-26 -164 q-17 -109 -43.5 -189 q-26.5 -80 -61.5 -135 q-35 -55 -80.5 -92 q-45.5 -37 -101.5 -62 ZM635 74 l207 0 q81 0 125 30 q44 30 54 93 q10 65 -23.5 95.5 q-33.5 30.5 -114.5 30.5 l-208 0 l-40 -249 Z" /><glyph glyph-name="uni040A" unicode="&#x40a;" d="M46 0 l112 705 l92 0 l-49 -308 l410 0 l49 308 l92 0 l-49 -308 l207 0 q119 0 176 -52.5 q57 -52.5 41 -158.5 q-14 -92 -84 -139 q-70 -47 -179 -47 l-316 0 l51 319 l-410 0 l-51 -319 l-92 0 ZM652 74 l207 0 q81 0 125 30 q44 30 54 93 q9 65 -24 95.5 q-33 30.5 -114 30.5 l-208 0 l-40 -249 Z" /><glyph glyph-name="uni0404" unicode="&#x404;" d="M384 -9 q-91 0 -155 27.5 q-64 27.5 -102 78 q-38 50.5 -50 119 q-12 68.5 1 150.5 q18 111 69.5 189 q51.5 78 132.5 119 q81 41 188 40 q71 0 127 -20.5 q56 -20.5 94 -58.5 l-36 -75 q-44 39 -86.5 55 q-42.5 16 -107.5 16 q-116 0 -187 -69.5 q-71 -69.5 -95 -191.5 l-24 26 l389 0 l-12 -76 l-390 0 l33 22 q-16 -125 37 -196.5 q53 -71.5 177 -71.5 q58 0 110.5 19 q52.5 19 98.5 61 l32 -74 q-47 -43 -111.5 -66 q-64.5 -23 -132.5 -23 Z" /><glyph glyph-name="uni042D" unicode="&#x42d;" d="M255 -9 q-71 0 -126.5 20.5 q-55.5 20.5 -95.5 59.5 l37 75 q43 -39 86 -55.5 q43 -16.5 107 -16.5 q117 0 188.5 69.5 q71.5 69.5 94.5 191.5 l27 -15 l-390 0 l12 76 l389 0 l-34 -33 q16 125 -36.5 196.5 q-52.5 71.5 -174.5 71.5 q-57 0 -110.5 -19 q-53.5 -19 -101.5 -61 l-32 75 q51 44 118.5 66 q67.5 22 134.5 22 q87 0 149.5 -27.5 q62.5 -27.5 99.5 -77.5 q37 -50 49.5 -119 q12.5 -69 -0.5 -151 q-18 -110 -70 -188.5 q-52 -78.5 -133 -119.5 q-81 -41 -188 -40 Z" /><glyph glyph-name="uni040B" unicode="&#x40b;" d="M215 0 l100 626 l-245 0 l13 79 l583 0 l-13 -79 l-245 0 l-36 -224 q35 17 83.5 26 q48.5 9 93.5 9 q141 0 204 -73.5 q63 -73.5 40 -215.5 l-23 -148 l-93 0 l22 142 q18 112 -25 163.5 q-43 51.5 -144 51.5 q-43 0 -86.5 -8.5 q-43.5 -8.5 -84.5 -29.5 l-50 -319 l-94 0 Z" /><glyph glyph-name="uni042E" unicode="&#x42e;" d="M628 -9 q-96 0 -162 40 q-66 40 -96 113.5 q-30 73.5 -23 174.5 l-158 0 l-50 -319 l-93 0 l112 705 l93 0 l-49 -309 l155 0 q32 155 129 236.5 q97 81.5 237 81.5 q107 0 175 -47 q68 -47 95 -131.5 q27 -84.5 9 -194.5 q-18 -111 -69.5 -189.5 q-51.5 -78.5 -129.5 -119.5 q-78 -41 -175 -41 ZM634 73 q108 0 179 73.5 q71 73.5 92 203.5 q14 88 -4 151 q-18 63 -65 97 q-47 34 -121 34 q-111 0 -179 -72.5 q-68 -72.5 -89 -203.5 q-14 -87 2.5 -150.5 q16.5 -63.5 63 -98 q46.5 -34.5 121.5 -34.5 Z" /><glyph glyph-name="uni042F" unicode="&#x42f;" d="M-6 0 l164 227 q31 44 66 65 q35 21 77 21 l27 0 l-19 -14 q-70 0 -118 25 q-48 25 -69.5 73 q-21.5 48 -11.5 114 q16 95 84 144.5 q68 49.5 183 49.5 l302 0 l-112 -705 l-93 0 l47 294 l-120 0 q-32 0 -56 -5.5 q-24 -5.5 -43 -20.5 q-19 -15 -38 -43 l-162 -225 l-108 0 ZM337 366 l195 0 l42 264 l-188 0 q-87 0 -131.5 -32.5 q-44.5 -32.5 -54.5 -95.5 q-11 -67 24.5 -101.5 q35.5 -34.5 112.5 -34.5 Z" /><glyph glyph-name="uni0402" unicode="&#x402;" d="M524 -189 q-35 0 -65.5 5.5 q-30.5 5.5 -51.5 15.5 l22 70 q19 -8 42 -12 q23 -4 50 -4 q64 0 105 41 q41 41 53 122 l15 93 q18 110 -24.5 162 q-42.5 52 -146.5 52 q-46 0 -87 -9.5 q-41 -9.5 -77 -27.5 l-50 -319 l-94 0 l100 626 l-245 0 l13 79 l583 0 l-14 -79 l-244 0 l-36 -224 q32 16 78.5 25.5 q46.5 9.5 93.5 9.5 q140 0 203.5 -72 q63.5 -72 40.5 -217 l-15 -96 q-13 -83 -45.5 -136.5 q-32.5 -53.5 -84 -79 q-51.5 -25.5 -119.5 -25.5 Z" /><glyph glyph-name="uni0462" unicode="&#x462;" d="M119 0 l84 533 l-178 0 l11 71 l179 0 l16 101 l90 0 l-16 -101 l245 0 l-11 -71 l-246 0 l-21 -136 l206 0 q119 0 176 -52.5 q57 -52.5 41 -158.5 q-14 -92 -84 -139 q-70 -47 -179 -47 l-313 0 ZM221 74 l206 0 q81 0 125 30 q44 30 54 93 q9 65 -23.5 95.5 q-32.5 30.5 -114.5 30.5 l-208 0 l-39 -249 Z" /><glyph glyph-name="uni046A" unicode="&#x46a;" d="M-33 0 l163 248 q46 71 107 108 q61 37 150 37 l64 0 l-10 -22 l-243 334 l740 0 l-350 -334 l-3 22 l58 0 q62 0 103 -17 q41 -17 67 -50 q26 -33 41 -78 l85 -248 l-94 0 l-69 206 q-14 42 -33 66 q-19 24 -46 34 q-27 10 -66 10 l-79 0 l-50 -316 l-92 0 l50 316 l-78 0 q-60 0 -100.5 -26 q-40.5 -26 -77.5 -84 l-132 -206 l-105 0 ZM515 394 l2 0 l285 275 l-4 -32 l-486 0 l5 32 l198 -275 Z" /><glyph glyph-name="uni0474" unicode="&#x474;" d="M266 0 l-193 705 l96 0 l166 -628 l-33 0 l265 446 q33 56 63 92.5 q30 36.5 63 58.5 q33 22 72.5 31 q39.5 9 92.5 9 l-3 -76 q-49 0 -82 -13 q-33 -13 -62 -44.5 q-29 -31.5 -63 -87.5 l-298 -493 l-84 0 Z" /><glyph glyph-name="uni0492" unicode="&#x492;" d="M85 0 l51 317 l-100 0 l10 70 l100 0 l51 318 l459 0 l-13 -78 l-366 0 l-38 -240 l190 0 l-11 -70 l-189 0 l-51 -317 l-93 0 Z" /><glyph glyph-name="uni0494" unicode="&#x494;" d="M353 -189 q-29 0 -56.5 4 q-27.5 4 -45.5 11 l9 75 q18 -8 41 -12 q23 -4 50 -4 q64 0 105 42 q41 42 54 123 l14 92 q18 111 -25 162.5 q-43 51.5 -146 51.5 q-46 0 -87.5 -9.5 q-41.5 -9.5 -77.5 -27.5 l-50 -319 l-92 0 l112 705 l460 0 l-14 -78 l-367 0 l-36 -225 q31 16 78 25.5 q47 9.5 94 9.5 q144 0 205.5 -73.5 q61.5 -73.5 39.5 -215.5 l-15 -95 q-12 -85 -46.5 -138.5 q-34.5 -53.5 -86.5 -78.5 q-52 -25 -117 -25 Z" /><glyph glyph-name="uni0496" unicode="&#x496;" d="M903 -159 l25 159 l-49 0 l12 76 l133 0 l-37 -235 l-84 0 ZM-33 0 l161 246 q43 65 94 100.5 q51 35.5 119 43.5 l-36 -28 l-182 343 l98 0 l170 -327 l-18 16 l108 0 l50 311 l89 0 l-49 -311 l109 0 l-30 -16 l275 327 l107 0 l-291 -343 l-31 28 q56 -7 96.5 -43 q40.5 -36 62.5 -101 l85 -246 l-95 0 l-68 206 q-20 59 -55 84.5 q-35 25.5 -91 25.5 l-86 0 l-51 -316 l-89 0 l49 316 l-85 0 q-58 0 -99.5 -25.5 q-41.5 -25.5 -79.5 -84.5 l-132 -206 l-105 0 Z" /><glyph glyph-name="uni0498" unicode="&#x498;" d="M219 -159 l31 200 l82 0 l-31 -200 l-82 0 ZM288 -9 q-89 0 -156.5 24 q-67.5 24 -107.5 65 l35 70 q43 -39 99 -59 q56 -20 133 -20 q92 0 143 32 q51 32 61 93 q9 64 -25.5 93.5 q-34.5 29.5 -113.5 29.5 l-181 0 l12 76 l166 0 q81 0 123 30 q42 30 51 85 q9 59 -29.5 91.5 q-38.5 32.5 -126.5 32.5 q-65 0 -125.5 -19 q-60.5 -19 -113.5 -57 l-32 70 q57 42 130.5 64 q73.5 22 152.5 22 q88 0 143.5 -24.5 q55.5 -24.5 79 -69 q23.5 -44.5 14.5 -104.5 q-10 -60 -53 -104 q-43 -44 -120 -60 l2 14 q73 -10 110.5 -57 q37.5 -47 24.5 -124 q-9 -60 -45 -103.5 q-36 -43.5 -99 -67 q-63 -23.5 -152 -23.5 Z" /><glyph glyph-name="uni049A" unicode="&#x49a;" d="M559 -159 l25 159 l-49 0 l12 76 l133 0 l-37 -235 l-84 0 ZM46 0 l112 705 l92 0 l-50 -311 l138 0 l-29 -16 l274 327 l108 0 l-292 -343 l-32 28 q62 -8 100.5 -43.5 q38.5 -35.5 60.5 -100.5 l84 -246 l-94 0 l-68 206 q-19 60 -55 85 q-36 25 -92 25 l-115 0 l-50 -316 l-92 0 Z" /><glyph glyph-name="uni049C" unicode="&#x49c;" d="M46 0 l112 705 l93 0 l-50 -311 l72 0 l26 167 l59 0 l-27 -167 l24 0 l262 311 l108 0 l-292 -343 l-33 28 q64 -9 102 -43.5 q38 -34.5 60 -100.5 l85 -246 l-95 0 l-67 206 q-20 60 -55.5 85.5 q-35.5 25.5 -92.5 25.5 l-30 0 l14 9 l-27 -175 l-59 0 l26 166 l-72 0 l-50 -317 l-93 0 Z" /><glyph glyph-name="uni049E" unicode="&#x49e;" d="M93 0 l86 538 l-146 0 l11 67 l146 0 l15 100 l92 0 l-16 -100 l142 0 l-11 -67 l-141 0 l-24 -144 l150 0 l-35 -23 l283 334 l107 0 l-299 -350 l-23 30 q51 -7 86.5 -40.5 q35.5 -33.5 58.5 -98.5 l85 -246 l-96 0 l-67 206 q-19 60 -55 85 q-36 25 -92 25 l-115 0 l-50 -316 l-92 0 Z" /><glyph glyph-name="uni04A0" unicode="&#x4a0;" d="M70 627 l12 78 l312 0 l-13 -78 l-311 0 ZM190 0 l112 705 l92 0 l-50 -311 l138 0 l-28 -16 l274 327 l108 0 l-292 -343 l-33 28 q63 -8 101 -43.5 q38 -35.5 60 -100.5 l85 -246 l-95 0 l-67 206 q-20 60 -55.5 85 q-35.5 25 -92.5 25 l-114 0 l-51 -316 l-92 0 Z" /><glyph glyph-name="uni04A2" unicode="&#x4a2;" d="M654 -159 l25 159 l-108 0 l12 76 l191 0 l-37 -235 l-83 0 ZM46 0 l112 705 l93 0 l-49 -308 l410 0 l49 308 l94 0 l-112 -705 l-94 0 l51 318 l-410 0 l-51 -318 l-93 0 Z" /><glyph glyph-name="uni04A4" unicode="&#x4a4;" d="M46 0 l112 705 l92 0 l-49 -308 l411 0 l49 308 l353 0 l-13 -78 l-261 0 l-99 -627 l-92 0 l51 319 l-411 0 l-51 -319 l-92 0 Z" /><glyph glyph-name="uni0524" unicode="&#x524;" d="M636 -159 l25 159 l-108 0 l12 76 l191 0 l-37 -235 l-83 0 ZM46 0 l112 705 l595 0 l-112 -705 l-92 0 l98 627 l-410 0 l-99 -627 l-92 0 Z" /><glyph glyph-name="uni04A8" unicode="&#x4a8;" d="M366 -9 q-110 0 -180.5 46 q-70.5 46 -98 130 q-27.5 84 -9.5 199 q18 113 70 190.5 q52 77.5 130.5 117.5 q78.5 40 174.5 40 q24 0 42 -1.5 q18 -1.5 31 -4.5 l-14 -78 q-15 3 -30.5 4.5 q-15.5 1.5 -29.5 1.5 q-110 0 -183.5 -73 q-73.5 -73 -95.5 -207 q-21 -137 30.5 -214.5 q51.5 -77.5 172.5 -77.5 q80 0 143.5 30.5 q63.5 30.5 104.5 89 q41 58.5 54 141.5 q11 74 -14 114 q-25 40 -80 40 q-53 0 -89.5 -40 q-36.5 -40 -48.5 -114 q-13 -83 9.5 -141.5 q22.5 -58.5 75.5 -89 q53 -30.5 133 -30.5 q41 0 75.5 8.5 q34.5 8.5 68.5 24.5 l15 -71 q-32 -18 -73.5 -26.5 q-41.5 -8.5 -91.5 -8.5 q-74 0 -134 25 q-60 25 -100.5 71 q-40.5 46 -57.5 110 q-17 64 -4 142 q11 67 42 115.5 q31 48.5 78.5 74.5 q47.5 26 106.5 26 q66 0 109 -28.5 q43 -28.5 60.5 -80 q17.5 -51.5 5.5 -122.5 q-11 -72 -46.5 -133 q-35.5 -61 -89.5 -106 q-54 -45 -121 -69.5 q-67 -24.5 -141 -24.5 Z" /><glyph glyph-name="uni04AA" unicode="&#x4aa;" d="M293 -159 l31 200 l82 0 l-32 -200 l-81 0 ZM375 -9 q-117 0 -188.5 47.5 q-71.5 47.5 -98.5 132 q-27 84.5 -10 195.5 q18 111 69 189 q51 78 131 119 q80 41 183 40 q72 0 127 -20.5 q55 -20.5 94 -59.5 l-36 -75 q-43 39 -86.5 55 q-43.5 16 -103.5 16 q-114 0 -187 -71 q-73 -71 -94 -202 q-13 -85 4.5 -148.5 q17.5 -63.5 68.5 -98.5 q51 -35 136 -35 q54 0 106.5 18.5 q52.5 18.5 99.5 59.5 l31 -73 q-47 -43 -112.5 -66 q-65.5 -23 -133.5 -23 Z" /><glyph glyph-name="uni04AC" unicode="&#x4ac;" d="M303 -159 l25 159 l-113 0 l100 626 l-245 0 l13 79 l583 0 l-13 -79 l-245 0 l-87 -549 l102 0 l-37 -236 l-83 0 Z" /><glyph glyph-name="uni04B2" unicode="&#x4b2;" d="M550 -159 l26 159 l-50 0 l12 76 l133 0 l-37 -235 l-84 0 ZM-37 0 l343 378 l-1 -36 l-214 363 l106 0 l169 -296 l-29 0 l261 296 l116 0 l-329 -363 l0 36 l224 -378 l-106 0 l-181 314 l36 0 l-280 -314 l-115 0 Z" /><glyph glyph-name="uni04B4" unicode="&#x4b4;" d="M781 -159 l26 159 l-616 0 l99 627 l-220 0 l13 78 l521 0 l-14 -78 l-208 0 l-87 -548 l411 0 l100 626 l93 0 l-100 -626 l103 0 l-37 -238 l-84 0 Z" /><glyph glyph-name="uni04B6" unicode="&#x4b6;" d="M565 -159 l25 159 l-109 0 l12 76 l192 0 l-37 -235 l-83 0 ZM478 0 l46 293 q-34 -16 -81.5 -25 q-47.5 -9 -95.5 -9 q-92 0 -151.5 32 q-59.5 32 -83.5 96.5 q-24 64.5 -9 160.5 l26 157 l92 0 l-24 -151 q-19 -116 24 -165 q43 -49 146 -49 q45 0 87.5 8.5 q42.5 8.5 83.5 28.5 l52 328 l93 0 l-112 -705 l-93 0 Z" /><glyph glyph-name="uni04B8" unicode="&#x4b8;" d="M479 0 l46 293 q-34 -16 -79.5 -25 q-45.5 -9 -88.5 -9 l18 15 l-26 -164 l-60 0 l25 164 l12 -15 q-82 4 -137 36 q-55 32 -78 94.5 q-23 62.5 -8 158.5 l26 157 l92 0 l-24 -151 q-18 -109 20 -158.5 q38 -49.5 127 -54.5 l-20 -11 l29 182 l60 0 l-28 -182 l-19 10 q43 0 88.5 9 q45.5 9 84.5 28 l52 328 l92 0 l-112 -705 l-92 0 Z" /><glyph glyph-name="uni04BA" unicode="&#x4ba;" d="M46 0 l112 705 l93 0 l-47 -293 q34 17 83.5 26 q49.5 9 95.5 9 q91 0 150.5 -32 q59.5 -32 83.5 -96.5 q24 -64.5 8 -161.5 l-25 -157 l-92 0 l23 151 q18 112 -24.5 163.5 q-42.5 51.5 -143.5 51.5 q-44 0 -88 -8 q-44 -8 -85 -29 l-51 -329 l-93 0 Z" /><glyph glyph-name="uni0526" unicode="&#x526;" d="M595 -159 l25 159 l-109 0 l12 76 l192 0 l-37 -235 l-83 0 ZM46 0 l112 705 l93 0 l-47 -293 q34 17 83.5 26 q49.5 9 95.5 9 q91 0 150.5 -32 q59.5 -32 83.5 -96.5 q24 -64.5 8 -161.5 l-25 -157 l-92 0 l23 151 q18 112 -24.5 163.5 q-42.5 51.5 -143.5 51.5 q-44 0 -88 -8 q-44 -8 -85 -29 l-51 -329 l-93 0 Z" /><glyph glyph-name="uni04BC" unicode="&#x4bc;" d="M544 -9 q-86 0 -147.5 26 q-61.5 26 -99.5 72.5 q-38 46.5 -53 108.5 q-15 62 -8 134 l18 -20 l-43 0 q-98 0 -134.5 44.5 q-36.5 44.5 -22.5 130.5 l9 56 l91 0 l-9 -54 q-9 -54 9 -77.5 q18 -23.5 76 -23.5 l29 0 l-17 -18 q18 110 68.5 187 q50.5 77 126.5 117 q76 40 172 40 q111 0 175.5 -45.5 q64.5 -45.5 86 -127.5 q21.5 -82 1.5 -193 l-6 -36 l-556 0 l23 33 q-12 -84 7.5 -145 q19.5 -61 72 -94 q52.5 -33 138.5 -33 q63 0 117.5 18.5 q54.5 18.5 101.5 60.5 l32 -72 q-33 -28 -73 -48 q-40 -20 -86 -30.5 q-46 -10.5 -99 -10.5 ZM604 635 q-108 0 -177.5 -71 q-69.5 -71 -91.5 -205 l-13 28 l486 0 l-28 -35 q23 139 -16.5 211 q-39.5 72 -159.5 72 Z" /><glyph glyph-name="uni04C3" unicode="&#x4c3;" d="M353 -189 q-29 0 -56.5 3.5 q-27.5 3.5 -45.5 10.5 l9 77 q18 -8 41 -12.5 q23 -4.5 50 -4.5 q65 0 106.5 41.5 q41.5 41.5 53.5 122.5 l8 54 q17 114 -28.5 165.5 q-45.5 51.5 -154.5 51.5 l-147 0 l-51 -320 l-92 0 l112 705 l92 0 l-49 -308 l145 0 l-35 -19 l275 327 l108 0 l-292 -343 l-8 32 q123 -6 181.5 -76.5 q58.5 -70.5 36.5 -208.5 l-9 -57 q-12 -84 -46.5 -137.5 q-34.5 -53.5 -86.5 -78.5 q-52 -25 -117 -25 Z" /><glyph glyph-name="uni04C5" unicode="&#x4c5;" d="M558 -159 l80 159 l-88 0 l12 76 l194 0 l-118 -235 l-80 0 ZM23 -15 l-42 70 q47 22 85 52 q38 30 68 77.5 q30 47.5 53.5 120 q23.5 72.5 40.5 178.5 l35 222 l488 0 l-112 -705 l-93 0 l100 627 l-310 0 l-26 -164 q-17 -109 -43.5 -189 q-26.5 -80 -61.5 -135 q-35 -55 -80.5 -92 q-45.5 -37 -101.5 -62 Z" /><glyph glyph-name="uni04C7" unicode="&#x4c7;" d="M444 -187 q-17 0 -38 2 q-21 2 -42 7 l12 76 q19 -4 35.5 -6 q16.5 -2 29.5 -2 q46 0 73 27.5 q27 27.5 36 88.5 l50 312 l-410 0 l-51 -318 l-93 0 l112 705 l93 0 l-49 -308 l410 0 l49 308 l94 0 l-112 -699 q-10 -66 -34.5 -109 q-24.5 -43 -65 -63.5 q-40.5 -20.5 -99.5 -20.5 Z" /><glyph glyph-name="uni04C9" unicode="&#x4c9;" d="M579 -159 l80 159 l-88 0 l12 76 l194 0 l-118 -235 l-80 0 ZM46 0 l112 705 l93 0 l-49 -308 l410 0 l49 308 l94 0 l-112 -705 l-94 0 l51 318 l-410 0 l-51 -318 l-93 0 Z" /><glyph glyph-name="uni04CB" unicode="&#x4cb;" d="M442 -159 l-85 0 l37 235 l146 0 l-12 -76 l-61 0 l-25 -159 ZM478 0 l46 293 q-34 -16 -81.5 -25 q-47.5 -9 -95.5 -9 q-92 0 -151.5 32 q-59.5 32 -83.5 96.5 q-24 64.5 -9 160.5 l26 157 l92 0 l-24 -151 q-19 -116 24 -165 q43 -49 146 -49 q45 0 87.5 8.5 q42.5 8.5 83.5 28.5 l52 328 l93 0 l-112 -705 l-93 0 Z" /><glyph glyph-name="uni04CD" unicode="&#x4cd;" d="M680 -159 l80 159 l-88 0 l12 76 l194 0 l-118 -235 l-80 0 ZM46 0 l112 705 l82 0 l178 -626 l-30 0 l378 626 l81 0 l-112 -705 l-85 0 l92 581 l32 0 l-354 -581 l-57 0 l-170 581 l30 0 l-92 -581 l-85 0 Z" /><glyph glyph-name="uni04E0" unicode="&#x4e0;" d="M287 -9 q-89 0 -157 24 q-68 24 -109 65 l37 71 q41 -40 97 -60 q56 -20 130 -20 q100 0 150 33 q50 33 60 94 q9 63 -25 92 q-34 29 -112 29 l-133 0 l10 62 l299 274 l-4 -28 l-417 0 l13 78 l511 0 l-10 -65 l-300 -273 l-11 26 l67 0 q108 0 163.5 -51.5 q55.5 -51.5 38.5 -154.5 q-10 -60 -46.5 -104 q-36.5 -44 -99.5 -68 q-63 -24 -152 -24 Z" /><glyph glyph-name="uni04E8" unicode="&#x4e8;" d="M120 322 l11 72 l570 0 l-11 -72 l-570 0 ZM78 366 q18 111 68 189 q50 78 128 118.5 q78 40.5 177 40.5 q107 0 174.5 -47.5 q67.5 -47.5 94.5 -132 q27 -84.5 9 -194.5 q-17 -111 -67.5 -189 q-50.5 -78 -128 -119 q-77.5 -41 -177.5 -41 q-106 0 -174 47.5 q-68 47.5 -94.5 132 q-26.5 84.5 -9.5 195.5 ZM175 356 q-14 -88 3.5 -151.5 q17.5 -63.5 64.5 -97.5 q47 -34 120 -34 q112 0 180.5 73.5 q68.5 73.5 88.5 203.5 q15 88 -3 151 q-18 63 -65 97 q-47 34 -121 34 q-111 0 -178.5 -72.5 q-67.5 -72.5 -89.5 -203.5 Z" /><glyph glyph-name="uni04F6" unicode="&#x4f6;" d="M135 -159 l26 159 l-109 0 l12 76 l191 0 l-37 -235 l-83 0 ZM46 0 l112 705 l459 0 l-13 -78 l-367 0 l-98 -627 l-93 0 Z" /><glyph glyph-name="uni04FA" unicode="&#x4fa;" d="M24 -183 l4 65 l47 5 q57 5 85 32.5 q28 27.5 36 80.5 l-111 0 l51 317 l-100 0 l10 70 l100 0 l51 318 l459 0 l-13 -78 l-366 0 l-38 -240 l190 0 l-11 -70 l-189 0 l-39 -241 l102 0 l-9 -63 q-15 -93 -65 -140 q-50 -47 -141 -53 l-53 -3 Z" /><glyph glyph-name="uni04FC" unicode="&#x4fc;" d="M358 -185 l-4 74 q60 7 91.5 28 q31.5 21 37.5 57 q6 35 -9 69.5 q-15 34.5 -39 74.5 l-113 196 l36 0 l-280 -314 l-115 0 l343 378 l-1 -36 l-214 363 l106 0 l169 -296 l-29 0 l261 296 l116 0 l-329 -363 l0 36 l136 -230 q30 -51 46 -94 q16 -43 8 -92 q-9 -60 -62 -98 q-53 -38 -155 -49 Z" /><glyph glyph-name="uni0510" unicode="&#x510;" d="M303 -9 q-97 0 -156.5 27.5 q-59.5 27.5 -83 76.5 q-23.5 49 -14.5 110 q12 70 62 113 q50 43 128 53 l-2 -15 q-65 14 -96.5 60.5 q-31.5 46.5 -21.5 117.5 q14 81 86.5 130.5 q72.5 49.5 190.5 49.5 q82 0 145.5 -21 q63.5 -21 104.5 -57 l-35 -70 q-40 34 -95 51 q-55 17 -119 17 q-84 0 -131.5 -32.5 q-47.5 -32.5 -57.5 -88.5 q-8 -58 26.5 -88 q34.5 -30 107.5 -30 l168 0 l-12 -76 l-181 0 q-76 0 -121 -28 q-45 -28 -53 -81 q-11 -66 29.5 -102.5 q40.5 -36.5 139.5 -36.5 q75 0 138.5 19.5 q63.5 19.5 118.5 59.5 l30 -71 q-52 -40 -127.5 -64 q-75.5 -24 -168.5 -24 Z" /><glyph glyph-name="uni0512" unicode="&#x512;" d="M440 -187 q-16 0 -37 2 q-21 2 -42 7 l12 76 q18 -4 34.5 -6 q16.5 -2 29.5 -2 q46 0 73.5 27 q27.5 27 36.5 88 l98 622 l-309 0 l-26 -164 q-17 -109 -43.5 -189 q-26.5 -80 -61.5 -135 q-35 -55 -80.5 -92 q-45.5 -37 -101.5 -62 l-42 70 q47 22 85 51.5 q38 29.5 68 76.5 q30 47 53.5 120 q23.5 73 40.5 180 l35 222 l488 0 l-111 -699 q-11 -69 -35.5 -111.5 q-24.5 -42.5 -65 -62 q-40.5 -19.5 -99.5 -19.5 Z" /><glyph glyph-name="uni048C" unicode="&#x48c;" d="M108 0 l84 534 l-147 0 l11 70 l147 0 l17 101 l90 0 l-17 -101 l147 0 l-11 -70 l-147 0 l-21 -137 l206 0 q119 0 175.5 -52.5 q56.5 -52.5 40.5 -158.5 q-14 -92 -83.5 -139 q-69.5 -47 -178.5 -47 l-313 0 ZM209 74 l207 0 q81 0 125 30 q44 30 53 93 q10 65 -23 95.5 q-33 30.5 -114 30.5 l-208 0 l-40 -249 Z" /><glyph glyph-name="uni048E" unicode="&#x48e;" d="M46 0 l112 705 l274 0 q126 0 179.5 -56.5 q53.5 -56.5 36.5 -166.5 q-10 -65 -51 -114.5 q-41 -49.5 -106 -73.5 l5 16 l45 -84 l-48 -29 l-54 101 l15 -14 q-17 -2 -36 -4 q-19 -2 -42 -2 l-194 0 l-44 -278 l-92 0 ZM194 353 l183 0 q12 0 27.5 1 q15.5 1 25.5 4 l-16 -12 l-42 81 l47 28 l53 -98 l-17 9 q45 14 70 45 q25 31 33 77 q11 72 -21 107 q-32 35 -117 35 l-182 0 l-44 -277 Z" /><glyph glyph-name="uni0528" unicode="&#x528;" d="M-60 -187 q-16 0 -37 2 q-21 2 -42 7 l12 76 q18 -4 35 -6 q17 -2 29 -2 q46 0 73.5 26 q27.5 26 37.5 90 l111 699 l93 0 l-49 -308 l410 0 l49 308 l93 0 l-112 -705 l-93 0 l51 319 l-411 0 l-50 -313 q-10 -69 -35 -111.5 q-25 -42.5 -65 -62 q-40 -19.5 -100 -19.5 Z" /><glyph glyph-name="uni052E" unicode="&#x52e;" d="M633 -159 l26 159 l-109 0 l12 76 l191 0 l-37 -235 l-83 0 ZM23 -15 l-42 70 q47 22 85 52 q38 30 68 77.5 q30 47.5 53.5 120 q23.5 72.5 40.5 178.5 l35 222 l488 0 l-112 -705 l-93 0 l100 627 l-310 0 l-26 -164 q-17 -109 -43.5 -189 q-26.5 -80 -61.5 -135 q-35 -55 -80.5 -92 q-45.5 -37 -101.5 -62 Z" /><glyph glyph-name="uni0431" unicode="&#x431;" d="M264 -9 q-119 0 -175 74 q-56 74 -34 211 l17 103 q19 123 91.5 206.5 q72.5 83.5 201.5 113.5 l191 46 l15 -76 l-191 -44 q-99 -24 -151 -81.5 q-52 -57.5 -67 -146.5 l-7 -43 l-16 0 q19 45 50 78 q31 33 71.5 50.5 q40.5 17.5 88.5 17.5 q68 0 114 -31 q46 -31 65.5 -90 q19.5 -59 5.5 -143 q-13 -80 -51 -134.5 q-38 -54.5 -94 -82.5 q-56 -28 -125 -28 ZM267 63 q67 0 115.5 46.5 q48.5 46.5 61.5 135.5 q15 90 -19.5 137 q-34.5 47 -106.5 47 q-68 0 -115 -47 q-47 -47 -61 -135 q-15 -90 19 -137 q34 -47 106 -47 Z" /><glyph glyph-name="uni0432" unicode="&#x432;" d="M38 0 l80 503 l242 0 q62 0 100 -15.5 q38 -15.5 53 -45.5 q15 -30 8 -75 q-7 -46 -45 -78 q-38 -32 -92 -39 l0 13 q62 -2 93.5 -36.5 q31.5 -34.5 22.5 -90.5 q-11 -67 -63.5 -101.5 q-52.5 -34.5 -135.5 -34.5 l-263 0 ZM133 60 l165 0 q51 0 81.5 20 q30.5 20 37.5 62 q6 42 -18 63 q-24 21 -75 21 l-165 0 l-26 -166 ZM169 286 l156 0 q47 0 75.5 21 q28.5 21 34.5 57 q6 39 -16 59 q-22 20 -71 20 l-155 0 l-24 -157 Z" /><glyph glyph-name="uni0433" unicode="&#x433;" d="M38 0 l80 503 l356 0 l-11 -73 l-266 0 l-68 -430 l-91 0 Z" /><glyph glyph-name="uni0491" unicode="&#x491;" d="M38 0 l80 503 l278 0 l18 115 l78 0 l-29 -188 l-267 0 l-68 -430 l-90 0 Z" /><glyph glyph-name="uni0434" unicode="&#x434;" d="M-35 -130 l32 201 l55 0 q43 51 69.5 120 q26.5 69 41.5 164 l23 148 l361 0 l-68 -432 l79 0 l-32 -201 l-78 0 l21 130 l-404 0 l-21 -130 l-79 0 ZM141 70 l252 0 l57 363 l-196 0 l-14 -94 q-12 -76 -37 -147.5 q-25 -71.5 -62 -121.5 Z" /><glyph glyph-name="uni0436" unicode="&#x436;" d="M-43 0 l134 179 q28 37 51.5 59 q23.5 22 47.5 33.5 q24 11.5 52 14.5 l-23 -28 l-153 245 l96 0 l129 -208 l79 0 l33 208 l91 0 l-33 -208 l74 0 l195 208 l104 0 l-229 -245 l-20 28 q27 -3 46 -14.5 q19 -11.5 35 -33.5 q16 -22 33 -59 l76 -179 l-93 0 l-67 155 q-11 27 -24 42 q-13 15 -31.5 21 q-18.5 6 -45.5 6 l-65 0 l-35 -224 l-90 0 l35 224 l-65 0 q-28 0 -46.5 -6 q-18.5 -6 -35 -21 q-16.5 -15 -37.5 -42 l-115 -155 l-103 0 Z" /><glyph glyph-name="uni0437" unicode="&#x437;" d="M215 -9 q-64 0 -118.5 17 q-54.5 17 -85.5 48 l32 63 q32 -30 78 -45 q46 -15 98 -15 q70 0 106 21.5 q36 21.5 41 62.5 q7 39 -17 59 q-24 20 -76 20 l-121 0 l10 66 l112 0 q46 0 76 20.5 q30 20.5 35 56.5 q6 37 -20.5 58.5 q-26.5 21.5 -90.5 21.5 q-52 0 -97.5 -13 q-45.5 -13 -88.5 -38 l-26 59 q47 30 104.5 44.5 q57.5 14.5 123.5 14.5 q97 0 144 -38 q47 -38 36 -106 q-7 -46 -44.5 -78.5 q-37.5 -32.5 -91.5 -39.5 l2 13 q61 -3 92 -38.5 q31 -35.5 22 -90.5 q-10 -64 -68.5 -103.5 q-58.5 -39.5 -166.5 -39.5 Z" /><glyph glyph-name="uni0438" unicode="&#x438;" d="M38 0 l80 503 l82 0 l-65 -417 l-29 1 l379 416 l76 0 l-79 -503 l-83 0 l67 418 l29 -2 l-381 -416 l-76 0 Z" /><glyph glyph-name="uni048B" unicode="&#x48b;" d="M400 -130 l68 130 l-68 0 l11 71 l170 0 l-104 -201 l-77 0 ZM38 0 l80 503 l82 0 l-65 -417 l-29 1 l379 416 l76 0 l-79 -503 l-83 0 l67 418 l29 -2 l-381 -416 l-76 0 ZM351 549 q-41 0 -75.5 15.5 q-34.5 15.5 -57.5 45.5 q-23 30 -32 72 l50 19 q14 -50 43.5 -73 q29.5 -23 74.5 -23 q46 0 76.5 22 q30.5 22 56.5 73 l49 -18 q-19 -47 -47.5 -76.5 q-28.5 -29.5 -63.5 -43 q-35 -13.5 -74 -13.5 Z" /><glyph glyph-name="uni043A" unicode="&#x43a;" d="M38 0 l80 503 l90 0 l-33 -208 l88 0 l195 208 l104 0 l-227 -245 l-22 28 q29 -3 47.5 -14.5 q18.5 -11.5 34 -33.5 q15.5 -22 32.5 -59 l76 -179 l-94 0 l-66 155 q-12 27 -25 42 q-13 15 -31 21 q-18 6 -45 6 l-78 0 l-36 -224 l-90 0 Z" /><glyph glyph-name="uni043B" unicode="&#x43b;" d="M14 -12 l-23 73 q38 15 64.5 37 q26.5 22 45.5 56.5 q19 34.5 33 85 q14 50.5 25 121.5 l24 142 l371 0 l-80 -503 l-90 0 l68 432 l-197 0 l-13 -79 q-13 -85 -32.5 -146.5 q-19.5 -61.5 -46.5 -104.5 q-27 -43 -63.5 -70 q-36.5 -27 -85.5 -44 Z" /><glyph glyph-name="uni043C" unicode="&#x43c;" d="M38 0 l80 503 l76 0 l133 -329 l237 329 l76 0 l-80 -503 l-80 0 l64 401 l24 0 l-231 -320 l-45 0 l-129 321 l19 0 l-64 -402 l-80 0 Z" /><glyph glyph-name="uni043D" unicode="&#x43d;" d="M38 0 l80 503 l90 0 l-33 -208 l266 0 l33 208 l90 0 l-80 -503 l-90 0 l36 223 l-266 0 l-36 -223 l-90 0 Z" /><glyph glyph-name="uni043F" unicode="&#x43f;" d="M38 0 l80 503 l443 0 l-80 -503 l-90 0 l68 432 l-262 0 l-69 -432 l-90 0 Z" /><glyph glyph-name="uni0442" unicode="&#x442;" d="M146 0 l67 430 l-180 0 l12 73 l452 0 l-12 -73 l-181 0 l-68 -430 l-90 0 Z" /><glyph glyph-name="uni0444" unicode="&#x444;" d="M294 -216 l51 325 l13 0 q-25 -57 -65 -87.5 q-40 -30.5 -93 -30.5 q-58 0 -95.5 34 q-37.5 34 -51 95 q-13.5 61 -0.5 142 q20 122 78 186 q58 64 139 64 q55 0 89 -30.5 q34 -30.5 42 -86.5 l-10 0 l54 341 l90 0 l-54 -341 l-13 0 q26 56 66 86.5 q40 30.5 91 30.5 q60 0 97.5 -33.5 q37.5 -33.5 51 -94.5 q13.5 -61 0.5 -142 q-20 -122 -78.5 -186.5 q-58.5 -64.5 -140.5 -64.5 q-53 0 -87.5 31 q-34.5 31 -42.5 87 l10 0 l-51 -325 l-90 0 ZM227 62 q54 0 91 48 q37 48 52 142 q14 92 -9.5 141 q-23.5 49 -76.5 49 q-52 0 -90 -49 q-38 -49 -52 -141 q-15 -94 8 -142 q23 -48 77 -48 ZM541 62 q53 0 91 48 q38 48 53 141 q15 92 -9 141.5 q-24 49.5 -77 49.5 q-54 0 -91 -49.5 q-37 -49.5 -51 -141.5 q-15 -93 8 -141 q23 -48 76 -48 Z" /><glyph glyph-name="uni0447" unicode="&#x447;" d="M361 0 l31 199 q-30 -16 -65 -24.5 q-35 -8.5 -72 -8.5 q-65 0 -109 22.5 q-44 22.5 -62.5 67.5 q-18.5 45 -7.5 113 l21 134 l91 0 l-20 -127 q-12 -71 15.5 -102.5 q27.5 -31.5 96.5 -31.5 q36 0 65 7.5 q29 7.5 58 24.5 l36 229 l90 0 l-79 -503 l-89 0 Z" /><glyph glyph-name="uni0446" unicode="&#x446;" d="M452 -130 l21 130 l-435 0 l80 503 l90 0 l-68 -432 l252 0 l68 432 l89 0 l-67 -432 l79 0 l-32 -201 l-77 0 Z" /><glyph glyph-name="uni0448" unicode="&#x448;" d="M38 0 l80 503 l86 0 l-68 -432 l204 0 l68 432 l86 0 l-68 -432 l205 0 l68 432 l86 0 l-79 -503 l-668 0 Z" /><glyph glyph-name="uni0449" unicode="&#x449;" d="M687 -130 l21 130 l-670 0 l80 503 l86 0 l-68 -432 l204 0 l68 432 l86 0 l-68 -432 l205 0 l68 432 l86 0 l-67 -432 l78 0 l-32 -201 l-77 0 Z" /><glyph glyph-name="uni045F" unicode="&#x45f;" d="M199 -130 l21 130 l-182 0 l80 503 l90 0 l-68 -432 l263 0 l68 432 l90 0 l-80 -503 l-183 0 l-21 -130 l-78 0 Z" /><glyph glyph-name="uni044C" unicode="&#x44c;" d="M38 0 l80 503 l90 0 l-28 -178 l142 0 q101 0 144.5 -44.5 q43.5 -44.5 31.5 -125.5 q-13 -79 -69.5 -117 q-56.5 -38 -150.5 -38 l-240 0 ZM139 63 l138 0 q59 0 93 22.5 q34 22.5 42 72.5 q9 55 -18 79.5 q-27 24.5 -86 24.5 l-138 0 l-31 -199 Z" /><glyph glyph-name="uni044A" unicode="&#x44a;" d="M122 0 l68 430 l-157 0 l12 73 l247 0 l-29 -178 l142 0 q102 0 145.5 -44.5 q43.5 -44.5 30.5 -125.5 q-13 -79 -69.5 -117 q-56.5 -38 -150.5 -38 l-239 0 ZM222 63 l139 0 q59 0 93 22.5 q34 22.5 42 72.5 q9 55 -18.5 79.5 q-27.5 24.5 -86.5 24.5 l-138 0 l-31 -199 Z" /><glyph glyph-name="uni044B" unicode="&#x44b;" d="M38 0 l80 503 l90 0 l-28 -178 l142 0 q101 0 144.5 -44.5 q43.5 -44.5 31.5 -125.5 q-13 -79 -69.5 -117 q-56.5 -38 -150.5 -38 l-240 0 ZM139 63 l138 0 q59 0 93 22.5 q34 22.5 42 72.5 q9 55 -18 79.5 q-27 24.5 -86 24.5 l-138 0 l-31 -199 ZM546 0 l80 503 l90 0 l-80 -503 l-90 0 Z" /><glyph glyph-name="uni0459" unicode="&#x459;" d="M14 -12 l-23 73 q38 15 64.5 37 q26.5 22 45.5 56.5 q19 34.5 33 85 q14 50.5 25 121.5 l24 142 l370 0 l-29 -178 l142 0 q102 0 145.5 -44.5 q43.5 -44.5 30.5 -125.5 q-13 -79 -69.5 -117 q-56.5 -38 -150.5 -38 l-238 0 l69 432 l-198 0 l-13 -79 q-13 -85 -32 -146.5 q-19 -61.5 -46.5 -104.5 q-27.5 -43 -64 -70 q-36.5 -27 -85.5 -44 ZM483 63 l139 0 q59 0 93 22.5 q34 22.5 42 72.5 q9 55 -18.5 79.5 q-27.5 24.5 -86.5 24.5 l-138 0 l-31 -199 Z" /><glyph glyph-name="uni045A" unicode="&#x45a;" d="M38 0 l80 503 l90 0 l-33 -208 l266 0 l34 208 l89 0 l-28 -178 l142 0 q101 0 144.5 -44.5 q43.5 -44.5 31.5 -125.5 q-13 -79 -69.5 -117 q-56.5 -38 -150.5 -38 l-239 0 l35 223 l-266 0 l-36 -223 l-90 0 ZM495 63 l138 0 q59 0 93.5 22.5 q34.5 22.5 41.5 72.5 q9 55 -18 79.5 q-27 24.5 -86 24.5 l-138 0 l-31 -199 Z" /><glyph glyph-name="uni0454" unicode="&#x454;" d="M278 -9 q-82 0 -137 33 q-55 33 -78 94.5 q-23 61.5 -10 146.5 q13 81 52 136 q39 55 98.5 83 q59.5 28 133.5 28 q54 0 98 -15 q44 -15 70 -44 l-32 -59 q-27 26 -61.5 38 q-34.5 12 -71.5 12 q-81 0 -131.5 -47 q-50.5 -47 -65.5 -127 l-9 19 l264 0 l-11 -66 l-265 0 l17 20 q-10 -89 27 -136 q37 -47 117 -47 q41 0 80 13 q39 13 74 42 l28 -60 q-31 -30 -82.5 -47 q-51.5 -17 -104.5 -17 Z" /><glyph glyph-name="uni044D" unicode="&#x44d;" d="M187 -9 q-54 0 -97.5 15 q-43.5 15 -70.5 44 l32 59 q27 -25 61.5 -37 q34.5 -12 71.5 -12 q81 0 132 46.5 q51 46.5 66 126.5 l11 -10 l-264 0 l11 66 l265 0 l-20 -29 q11 89 -27 136 q-38 47 -117 47 q-40 0 -79 -12.5 q-39 -12.5 -74 -42.5 l-25 60 q32 30 84 47 q52 17 107 17 q78 0 131.5 -33 q53.5 -33 76.5 -94 q23 -61 9 -146 q-13 -81 -52 -136.5 q-39 -55.5 -98 -83.5 q-59 -28 -134 -28 Z" /><glyph glyph-name="uni044E" unicode="&#x44e;" d="M472 -9 q-104 0 -161 61 q-57 61 -49 171 l-100 0 l-35 -223 l-89 0 l80 503 l88 0 l-33 -208 l99 0 q27 106 97 161.5 q70 55.5 168 55.5 q78 0 129 -32 q51 -32 71.5 -93.5 q20.5 -61.5 6.5 -147.5 q-13 -81 -50.5 -136 q-37.5 -55 -94.5 -83.5 q-57 -28.5 -127 -28.5 ZM478 63 q67 0 114.5 47.5 q47.5 47.5 61.5 138.5 q15 95 -19.5 142.5 q-34.5 47.5 -103.5 47.5 q-67 0 -113.5 -47 q-46.5 -47 -61.5 -137 q-15 -96 18 -144 q33 -48 104 -48 Z" /><glyph glyph-name="uni044F" unicode="&#x44f;" d="M-5 0 l104 141 q25 35 56 54 q31 19 57 19 l23 0 l-9 -10 q-80 0 -120 43 q-40 43 -29 116 q10 64 61 102 q51 38 143 38 l235 0 l-80 -503 l-84 0 l30 190 l-77 0 q-35 0 -63 -16.5 q-28 -16.5 -47 -44.5 l-94 -129 l-106 0 ZM255 253 l137 0 l29 188 l-128 0 q-60 0 -92 -24 q-32 -24 -38 -63 q-8 -50 18 -75.5 q26 -25.5 74 -25.5 Z" /><glyph glyph-name="uni0452" unicode="&#x452;" d="M259 -186 l-17 69 q55 12 86 33 q31 21 47 55 q16 34 24 84 l38 239 q11 73 -12.5 103.5 q-23.5 30.5 -80.5 30.5 q-67 0 -112 -40.5 q-45 -40.5 -55 -108.5 l-44 -279 l-91 0 l91 579 l-94 0 l11 67 l94 0 l15 90 l91 0 l-15 -90 l199 0 l-11 -67 l-199 0 l-31 -195 l-14 0 q30 59 82 89 q52 30 118 30 q93 0 129 -53.5 q36 -53.5 20 -154.5 l-38 -237 q-11 -74 -36.5 -122 q-25.5 -48 -72 -76.5 q-46.5 -28.5 -122.5 -45.5 Z" /><glyph glyph-name="uni0463" unicode="&#x463;" d="M123 0 l69 438 l-157 0 l10 65 l157 0 l38 233 l90 0 l-37 -233 l168 0 l-10 -65 l-169 0 l-19 -124 l149 0 q95 0 138.5 -43 q43.5 -43 30.5 -122 q-12 -77 -67 -113 q-55 -36 -148 -36 l-243 0 ZM222 59 l142 0 q57 0 91 22.5 q34 22.5 41 72.5 q8 53 -18.5 77 q-26.5 24 -83.5 24 l-141 0 l-31 -196 Z" /><glyph glyph-name="uni046B" unicode="&#x46b;" d="M-43 0 l132 172 q33 44 60.5 69 q27.5 25 58.5 36 q31 11 76 11 l72 0 l-16 -23 l-168 238 l551 0 l-243 -238 l-9 23 l72 0 q45 0 72 -11 q27 -11 45.5 -36.5 q18.5 -25.5 37.5 -68.5 l77 -172 l-93 0 l-67 147 q-13 28 -26.5 43 q-13.5 15 -31 21 q-17.5 6 -44.5 6 l-65 0 l-35 -217 l-90 0 l34 217 l-65 0 q-27 0 -45.5 -6 q-18.5 -6 -35 -21 q-16.5 -15 -38.5 -43 l-113 -147 l-103 0 ZM410 284 l2 0 l184 184 l-5 -27 l-311 0 l5 27 l125 -184 Z" /><glyph glyph-name="uni0475" unicode="&#x475;" d="M189 0 l-135 503 l94 0 l107 -432 l-28 0 l182 319 q27 48 55.5 74.5 q28.5 26.5 65 37 q36.5 10.5 88.5 10.5 l-3 -73 q-33 0 -56 -8.5 q-23 -8.5 -41.5 -27.5 q-18.5 -19 -38.5 -53 l-205 -350 l-85 0 Z" /><glyph glyph-name="uni0493" unicode="&#x493;" d="M63 0 l32 208 l-98 0 l12 66 l97 0 l36 229 l357 0 l-12 -72 l-266 0 l-25 -157 l150 0 l-11 -66 l-150 0 l-32 -208 l-90 0 Z" /><glyph glyph-name="uni0495" unicode="&#x495;" d="M260 -186 l-14 69 q54 12 85 33.5 q31 21.5 47 55 q16 33.5 24 83.5 l11 70 q11 72 -11.5 103 q-22.5 31 -86.5 31 q-69 0 -114 -40.5 q-45 -40.5 -55 -108.5 l-18 -110 l-90 0 l80 503 l356 0 l-10 -68 l-267 0 l-34 -222 l-17 -1 q30 59 82.5 90 q52.5 31 121.5 31 q95 0 132.5 -52.5 q37.5 -52.5 21.5 -150.5 l-12 -74 q-10 -68 -35 -116 q-25 -48 -72 -78.5 q-47 -30.5 -125 -47.5 Z" /><glyph glyph-name="uni0497" unicode="&#x497;" d="M704 -130 l21 130 l-38 0 l11 71 l118 0 l-32 -201 l-80 0 ZM-43 0 l134 179 q28 37 51.5 59 q23.5 22 47.5 33.5 q24 11.5 52 14.5 l-23 -28 l-153 245 l96 0 l129 -208 l79 0 l33 208 l91 0 l-33 -208 l74 0 l195 208 l104 0 l-229 -245 l-20 28 q27 -3 46 -14.5 q19 -11.5 35 -33.5 q16 -22 33 -59 l76 -179 l-93 0 l-67 155 q-11 27 -24 42 q-13 15 -31.5 21 q-18.5 6 -45.5 6 l-65 0 l-35 -224 l-90 0 l35 224 l-65 0 q-28 0 -46.5 -6 q-18.5 -6 -35 -21 q-16.5 -15 -37.5 -42 l-115 -155 l-103 0 Z" /><glyph glyph-name="uni0499" unicode="&#x499;" d="M157 -130 l28 172 l74 0 l-27 -172 l-75 0 ZM215 -9 q-64 0 -118.5 17 q-54.5 17 -85.5 48 l32 63 q32 -30 78 -45 q46 -15 98 -15 q70 0 106 21.5 q36 21.5 41 62.5 q7 39 -17 59 q-24 20 -76 20 l-121 0 l10 66 l112 0 q46 0 76 20.5 q30 20.5 35 56.5 q6 37 -20.5 58.5 q-26.5 21.5 -90.5 21.5 q-52 0 -97.5 -13 q-45.5 -13 -88.5 -38 l-26 59 q47 30 104.5 44.5 q57.5 14.5 123.5 14.5 q97 0 144 -38 q47 -38 36 -106 q-7 -46 -44.5 -78.5 q-37.5 -32.5 -91.5 -39.5 l2 13 q61 -3 92 -38.5 q31 -35.5 22 -90.5 q-10 -64 -68.5 -103.5 q-58.5 -39.5 -166.5 -39.5 Z" /><glyph glyph-name="uni049B" unicode="&#x49b;" d="M432 -130 l21 130 l-38 0 l11 71 l118 0 l-32 -201 l-80 0 ZM38 0 l80 503 l90 0 l-33 -208 l88 0 l195 208 l104 0 l-227 -245 l-22 28 q29 -3 47.5 -14.5 q18.5 -11.5 34 -33.5 q15.5 -22 32.5 -59 l76 -179 l-94 0 l-66 155 q-12 27 -25 42 q-13 15 -31 21 q-18 6 -45 6 l-78 0 l-36 -224 l-90 0 Z" /><glyph glyph-name="uni049D" unicode="&#x49d;" d="M38 0 l80 503 l90 0 l-33 -208 l55 0 l18 115 l59 0 l-18 -115 l12 0 l195 208 l104 0 l-227 -245 l-22 28 q27 -3 46.5 -14.5 q19.5 -11.5 35 -33.5 q15.5 -22 31.5 -59 l77 -179 l-93 0 l-67 155 q-12 27 -24.5 41.5 q-12.5 14.5 -30.5 21 q-18 6.5 -47 6.5 l-15 0 l16 12 l-22 -138 l-59 0 l20 126 l-55 0 l-36 -224 l-90 0 Z" /><glyph glyph-name="uni049F" unicode="&#x49f;" d="M42 0 l91 579 l-94 0 l11 67 l94 0 l15 90 l91 0 l-15 -90 l199 0 l-11 -67 l-199 0 l-45 -287 l89 0 l191 202 l103 0 l-226 -241 l-17 28 q27 -3 45.5 -13.5 q18.5 -10.5 33 -32.5 q14.5 -22 31.5 -60 l77 -175 l-93 0 l-67 153 q-12 27 -25.5 42 q-13.5 15 -31 21 q-17.5 6 -45.5 6 l-77 0 l-34 -222 l-91 0 Z" /><glyph glyph-name="uni04A1" unicode="&#x4a1;" d="M122 0 l68 430 l-157 0 l12 73 l247 0 l-33 -208 l88 0 l195 208 l104 0 l-227 -245 l-22 28 q28 -3 47 -14.5 q19 -11.5 34.5 -33.5 q15.5 -22 31.5 -59 l77 -179 l-94 0 l-66 155 q-12 27 -25 42 q-13 15 -31 21 q-18 6 -46 6 l-77 0 l-36 -224 l-90 0 Z" /><glyph glyph-name="uni04A3" unicode="&#x4a3;" d="M466 -130 l21 130 l-88 0 l12 71 l165 0 l-32 -201 l-78 0 ZM38 0 l80 503 l90 0 l-33 -208 l266 0 l33 208 l90 0 l-80 -503 l-90 0 l36 223 l-266 0 l-36 -223 l-90 0 Z" /><glyph glyph-name="uni04A5" unicode="&#x4a5;" d="M38 0 l80 503 l90 0 l-33 -208 l261 0 l33 208 l318 0 l-12 -73 l-227 0 l-68 -430 l-91 0 l35 223 l-260 0 l-36 -223 l-90 0 Z" /><glyph glyph-name="uni0525" unicode="&#x525;" d="M462 -130 l21 130 l-87 0 l11 71 l166 0 l-33 -201 l-78 0 ZM38 0 l80 503 l443 0 l-80 -503 l-90 0 l68 432 l-262 0 l-69 -432 l-90 0 Z" /><glyph glyph-name="uni04A9" unicode="&#x4a9;" d="M284 -9 q-87 0 -142.5 35 q-55.5 35 -78 97.5 q-22.5 62.5 -9.5 144.5 q13 79 51 133.5 q38 54.5 95.5 82.5 q57.5 28 127.5 28 q31 0 57 -4.5 q26 -4.5 42 -13.5 l-17 -66 q-15 8 -36.5 11.5 q-21.5 3.5 -41.5 3.5 q-76 0 -127 -50 q-51 -50 -65 -138 q-15 -95 26.5 -146.5 q41.5 -51.5 127.5 -51.5 q93 0 148 42.5 q55 42.5 67 120.5 q8 48 -9.5 75.5 q-17.5 27.5 -53.5 27.5 q-36 0 -61 -27 q-25 -27 -32 -73 q-12 -83 30 -124.5 q42 -41.5 133 -41.5 q29 0 61 7.5 q32 7.5 60 21.5 l12 -65 q-31 -15 -64 -22.5 q-33 -7.5 -69 -7.5 q-60 0 -107 18 q-47 18 -79 50.5 q-32 32.5 -45 77.5 q-13 45 -5 98 q7 44 30 78 q23 34 59 54 q36 20 81 20 q47 0 80 -20.5 q33 -20.5 47 -58.5 q14 -38 6 -91 q-8 -49 -35 -90.5 q-27 -41.5 -68 -71.5 q-41 -30 -91.5 -47 q-50.5 -17 -104.5 -17 Z" /><glyph glyph-name="uni04AB" unicode="&#x4ab;" d="M193 -130 l28 172 l75 0 l-28 -172 l-75 0 ZM267 -9 q-78 0 -130.5 33 q-52.5 33 -74.5 94.5 q-22 61.5 -9 146.5 q20 121 94 184 q74 63 182 63 q48 0 91 -15 q43 -15 69 -44 l-33 -62 q-26 25 -59 36.5 q-33 11.5 -65 11.5 q-72 0 -122 -46.5 q-50 -46.5 -65 -135.5 q-14 -91 22 -141.5 q36 -50.5 112 -50.5 q34 0 71 12.5 q37 12.5 69 41.5 l30 -64 q-32 -30 -82.5 -47 q-50.5 -17 -99.5 -17 Z" /><glyph glyph-name="uni04AD" unicode="&#x4ad;" d="M217 -130 l21 130 l-88 0 l12 71 l165 0 l-32 -201 l-78 0 ZM146 0 l67 430 l-180 0 l12 73 l452 0 l-12 -73 l-181 0 l-68 -430 l-90 0 Z" /><glyph glyph-name="uni04AF" unicode="&#x4af;" d="M149 -216 l35 221 l-134 498 l94 0 l108 -432 l-28 0 l246 432 l96 0 l-291 -495 l-35 -224 l-91 0 Z" /><glyph glyph-name="uni04B1" unicode="&#x4b1;" d="M153 -191 l23 146 l-126 0 l10 66 l130 0 l-4 -23 l-136 505 l94 0 l108 -432 l-28 0 l246 432 l96 0 l-295 -502 l3 20 l130 0 l-11 -66 l-126 0 l-23 -146 l-91 0 Z" /><glyph glyph-name="uni04B3" unicode="&#x4b3;" d="M429 -130 l21 130 l-38 0 l11 71 l118 0 l-32 -201 l-80 0 ZM-31 0 l272 282 l-2 -45 l-173 266 l103 0 l126 -201 l-32 0 l188 201 l113 0 l-254 -264 l2 41 l181 -280 l-106 0 l-134 215 l33 0 l-204 -215 l-113 0 Z" /><glyph glyph-name="uni04B5" unicode="&#x4b5;" d="M553 -130 l21 130 l-452 0 l68 430 l-157 0 l12 73 l401 0 l-11 -73 l-155 0 l-57 -359 l270 0 l68 432 l91 0 l-68 -432 l78 0 l-31 -201 l-78 0 Z" /><glyph glyph-name="uni04B7" unicode="&#x4b7;" d="M431 -130 l21 130 l-88 0 l12 71 l166 0 l-33 -201 l-78 0 ZM361 0 l31 199 q-30 -16 -65 -24.5 q-35 -8.5 -72 -8.5 q-65 0 -109 22.5 q-44 22.5 -62.5 67.5 q-18.5 45 -7.5 113 l21 134 l91 0 l-20 -127 q-12 -71 15.5 -102.5 q27.5 -31.5 96.5 -31.5 q36 0 65 7.5 q29 7.5 58 24.5 l36 229 l90 0 l-79 -503 l-89 0 Z" /><glyph glyph-name="uni04B9" unicode="&#x4b9;" d="M379 0 l32 200 q-29 -15 -61.5 -23 q-32.5 -8 -62.5 -9 l20 16 l-18 -116 l-59 0 l18 116 l18 -17 q-106 0 -156 51 q-50 51 -34 151 l21 134 l91 0 l-20 -128 q-12 -70 16 -101.5 q28 -31.5 94 -32.5 l-23 -12 l23 140 l59 0 l-23 -140 l-15 11 q32 1 62.5 8.5 q30.5 7.5 60.5 24.5 l36 230 l91 0 l-80 -503 l-90 0 Z" /><glyph glyph-name="uni0527" unicode="&#x527;" d="M462 -130 l21 130 l-88 0 l12 71 l165 0 l-32 -201 l-78 0 ZM42 0 l117 736 l91 0 l-55 -342 l-15 0 q30 58 82.5 88 q52.5 30 118.5 30 q92 0 128.5 -53 q36.5 -53 19.5 -154 l-47 -305 l-91 0 l47 304 q12 72 -11 103 q-23 31 -81 31 q-68 0 -112.5 -41 q-44.5 -41 -54.5 -109 l-46 -288 l-91 0 Z" /><glyph glyph-name="uni04BD" unicode="&#x4bd;" d="M392 -9 q-84 0 -139 33.5 q-55 33.5 -77.5 93.5 q-22.5 60 -12.5 136 l4 -13 l-19 0 q-70 0 -96 33.5 q-26 33.5 -17 96.5 l6 37 l75 0 l-7 -37 q-7 -39 6 -57.5 q13 -18.5 51 -18.5 l27 0 l-27 -19 q14 75 50 127.5 q36 52.5 91 80.5 q55 28 125 28 q70 0 116 -30.5 q46 -30.5 65 -84.5 q19 -54 8 -125 l-5 -30 l-380 0 l14 14 q-13 -90 24 -141.5 q37 -51.5 128 -51.5 q42 0 83 13 q41 13 77 43 l30 -63 q-40 -31 -92 -48 q-52 -17 -108 -17 ZM427 446 q-72 0 -116 -46 q-44 -46 -56 -119 l-11 15 l320 0 l-19 -14 q12 79 -17.5 121.5 q-29.5 42.5 -100.5 42.5 Z" /><glyph glyph-name="uni04C4" unicode="&#x4c4;" d="M249 -186 l-15 69 q54 12 85 32.5 q31 20.5 46.5 53.5 q15.5 33 23.5 81 l5 32 q12 74 -17.5 108 q-29.5 34 -98.5 34 l-114 0 l-36 -224 l-90 0 l80 503 l90 0 l-33 -208 l88 0 l195 208 l102 0 l-225 -245 l-35 35 q69 0 114 -23.5 q45 -23.5 64 -69 q19 -45.5 8 -113.5 l-6 -35 q-10 -64 -34.5 -111 q-24.5 -47 -71.5 -78.5 q-47 -31.5 -125 -48.5 Z" /><glyph glyph-name="uni04C6" unicode="&#x4c6;" d="M389 -130 l68 130 l-68 0 l11 71 l171 0 l-105 -201 l-77 0 ZM14 -12 l-23 73 q38 15 64.5 37 q26.5 22 45.5 56.5 q19 34.5 33 85 q14 50.5 25 121.5 l24 142 l371 0 l-80 -503 l-90 0 l68 432 l-197 0 l-13 -79 q-13 -85 -32.5 -146.5 q-19.5 -61.5 -46.5 -104.5 q-27 -43 -63.5 -70 q-36.5 -27 -85.5 -44 Z" /><glyph glyph-name="uni04C8" unicode="&#x4c8;" d="M232 -193 l5 69 l47 4 q46 4 73.5 30.5 q27.5 26.5 35.5 76.5 l37 236 l-266 0 l-36 -223 l-90 0 l80 503 l90 0 l-33 -208 l266 0 l34 208 l89 0 l-80 -506 q-10 -63 -35 -103 q-25 -40 -67 -60 q-42 -20 -104 -24 l-46 -3 Z" /><glyph glyph-name="uni04CA" unicode="&#x4ca;" d="M399 -130 l68 130 l-68 0 l12 71 l170 0 l-104 -201 l-78 0 ZM38 0 l80 503 l90 0 l-33 -208 l266 0 l33 208 l90 0 l-80 -503 l-90 0 l36 223 l-266 0 l-36 -223 l-90 0 Z" /><glyph glyph-name="uni04CC" unicode="&#x4cc;" d="M339 -130 l-78 0 l30 186 l149 0 l-9 -56 l-71 0 l-21 -130 ZM361 0 l31 199 q-30 -16 -65 -24.5 q-35 -8.5 -72 -8.5 q-65 0 -109 22.5 q-44 22.5 -62.5 67.5 q-18.5 45 -7.5 113 l21 134 l91 0 l-20 -127 q-12 -71 15.5 -102.5 q27.5 -31.5 96.5 -31.5 q36 0 65 7.5 q29 7.5 58 24.5 l36 229 l90 0 l-79 -503 l-89 0 Z" /><glyph glyph-name="uni04CE" unicode="&#x4ce;" d="M480 -130 l68 130 l-68 0 l11 71 l171 0 l-105 -201 l-77 0 ZM38 0 l80 503 l76 0 l133 -329 l237 329 l76 0 l-80 -503 l-80 0 l64 401 l24 0 l-231 -320 l-45 0 l-129 321 l19 0 l-64 -402 l-80 0 Z" /><glyph glyph-name="uni04E1" unicode="&#x4e1;" d="M173 -189 q-68 0 -122 16.5 q-54 16.5 -87 46.5 l31 65 q32 -28 75 -42 q43 -14 100 -14 q80 0 126.5 35.5 q46.5 35.5 56.5 98.5 q11 70 -22 104.5 q-33 34.5 -109 34.5 l-109 0 l7 44 l272 253 l-2 -22 l-327 0 l11 72 l415 0 l-10 -60 l-265 -246 l-20 24 l57 0 q72 0 118 -25 q46 -25 65 -70.5 q19 -45.5 10 -105.5 q-10 -67 -45 -114 q-35 -47 -92 -71 q-57 -24 -134 -24 Z" /><glyph glyph-name="uni04E9" unicode="&#x4e9;" d="M261 -9 q-77 0 -128 32 q-51 32 -72 93.5 q-21 61.5 -8 148.5 q13 80 51 135.5 q38 55.5 95 83.5 q57 28 127 28 q77 0 128 -32 q51 -32 72 -93.5 q21 -61.5 7 -147.5 q-13 -81 -51 -136 q-38 -55 -94.5 -83.5 q-56.5 -28.5 -126.5 -28.5 ZM266 63 q71 0 119.5 47.5 q48.5 47.5 63.5 138.5 q15 93 -20.5 141.5 q-35.5 48.5 -109.5 48.5 q-70 0 -118.5 -47 q-48.5 -47 -62.5 -138 q-14 -92 19 -141.5 q33 -49.5 109 -49.5 ZM102 221 l9 62 l376 0 l-9 -62 l-376 0 Z" /><glyph glyph-name="uni04F7" unicode="&#x4f7;" d="M110 -130 l21 130 l-88 0 l11 71 l166 0 l-32 -201 l-78 0 ZM38 0 l80 503 l356 0 l-11 -73 l-266 0 l-68 -430 l-91 0 Z" /><glyph glyph-name="uni04FB" unicode="&#x4fb;" d="M6 -183 l5 66 l49 5 q41 3 63 31 q22 28 31 81 l-91 0 l34 214 l-99 0 l11 64 l98 0 l35 225 l357 0 l-12 -72 l-266 0 l-23 -153 l149 0 l-11 -64 l-149 0 l-25 -157 l82 0 l-7 -44 q-15 -93 -62 -140 q-47 -47 -117 -52 l-52 -4 Z" /><glyph glyph-name="uni04FD" unicode="&#x4fd;" d="M267 -185 l-5 66 q56 6 85 24.5 q29 18.5 34 54.5 q4 25 -7 51.5 q-11 26.5 -40 73.5 l-82 130 l33 0 l-203 -215 l-113 0 l271 282 l-1 -45 l-173 266 l104 0 l125 -201 l-33 0 l189 201 l113 0 l-254 -264 l2 40 l99 -153 q25 -38 40 -66 q15 -28 20 -51.5 q5 -23.5 1 -50.5 q-6 -40 -31 -70.5 q-25 -30.5 -68.5 -49 q-43.5 -18.5 -105.5 -23.5 Z" /><glyph glyph-name="uni0511" unicode="&#x511;" d="M230 -9 q-112 0 -162 42 q-50 42 -40 112 q9 54 50 87 q41 33 103 36 l-2 -13 q-50 6 -77.5 38 q-27.5 32 -18.5 84 q11 66 70.5 100.5 q59.5 34.5 149.5 34.5 q55 0 105.5 -14 q50.5 -14 87.5 -42 l-30 -59 q-34 23 -76 35 q-42 12 -88 12 q-61 0 -96 -21.5 q-35 -21.5 -41 -59.5 q-6 -35 17 -55 q23 -20 69 -20 l111 0 l-10 -66 l-122 0 q-51 0 -80.5 -19 q-29.5 -19 -34.5 -54 q-8 -44 21.5 -67 q29.5 -23 98.5 -23 q54 0 104.5 15 q50.5 15 90.5 42 l25 -60 q-41 -31 -100.5 -48 q-59.5 -17 -124.5 -17 Z" /><glyph glyph-name="uni0513" unicode="&#x513;" d="M222 -193 l5 69 l47 4 q46 4 73 30.5 q27 26.5 35 76.5 l70 445 l-197 0 l-13 -79 q-13 -85 -32 -146.5 q-19 -61.5 -46.5 -104.5 q-27.5 -43 -64 -70 q-36.5 -27 -85.5 -44 l-23 73 q38 15 64.5 37 q26.5 22 45.5 56.5 q19 34.5 33 85 q14 50.5 25 121.5 l24 142 l371 0 l-80 -506 q-9 -61 -34.5 -101 q-25.5 -40 -68 -61 q-42.5 -21 -103.5 -25 l-46 -3 Z" /><glyph glyph-name="uni048F" unicode="&#x48f;" d="M7 -216 l94 600 q5 29 7.5 59 q2.5 30 3.5 60 l88 0 l-8 -116 l-14 0 q26 58 75.5 91.5 q49.5 33.5 119.5 33.5 q70 0 117 -32.5 q47 -32.5 66.5 -94 q19.5 -61.5 5.5 -146.5 q-12 -74 -42 -124.5 q-30 -50.5 -77 -82.5 l1 14 l40 -63 l-43 -30 l-42 67 l13 -3 q-25 -14 -51.5 -20 q-26.5 -6 -56.5 -6 q-65 0 -109.5 33.5 q-44.5 33.5 -54.5 90.5 l10 0 l-52 -331 l-91 0 ZM347 439 q-66 0 -114.5 -47 q-48.5 -47 -62.5 -137 q-14 -96 20 -144 q34 -48 103 -48 q45 0 78 21 l-4 -12 l-47 73 l43 29 l48 -77 l-12 7 q28 22 46 58 q18 36 26 87 q15 95 -18.5 142.5 q-33.5 47.5 -105.5 47.5 Z" /><glyph glyph-name="uni0529" unicode="&#x529;" d="M-124 -193 l5 69 l46 4 q46 4 73.5 30.5 q27.5 26.5 35.5 76.5 l82 516 l90 0 l-33 -208 l266 0 l34 208 l89 0 l-80 -503 l-89 0 l35 223 l-266 0 l-36 -226 q-9 -63 -34.5 -103 q-25.5 -40 -68 -60 q-42.5 -20 -103.5 -24 l-46 -3 Z" /><glyph glyph-name="uni052F" unicode="&#x52f;" d="M456 -130 l21 130 l-88 0 l11 71 l166 0 l-32 -201 l-78 0 ZM14 -12 l-23 73 q38 15 64.5 37 q26.5 22 45.5 56.5 q19 34.5 33 85 q14 50.5 25 121.5 l24 142 l371 0 l-80 -503 l-90 0 l68 432 l-197 0 l-13 -79 q-13 -85 -32.5 -146.5 q-19.5 -61.5 -46.5 -104.5 q-27 -43 -63.5 -70 q-36.5 -27 -85.5 -44 Z" /><glyph glyph-name="uni0394" unicode="&#x394;" d="M-6 0 l9 54 l388 651 l77 0 l182 -651 l-7 -54 l-649 0 ZM416 599 l-328 -558 l6 35 l479 0 l-6 -35 l-149 558 l-2 0 Z" /><glyph glyph-name="Sigma" unicode="&#x3a3;" d="M-19 -180 l11 66 l339 393 l7 -32 l-226 392 l10 66 l513 0 l-12 -79 l-414 0 l-4 23 l208 -359 l-9 -55 l-311 -359 l1 23 l413 0 l-12 -79 l-514 0 Z" /><glyph glyph-name="uni03A9" unicode="&#x3a9;" d="M-2 0 l12 77 l239 0 l-1 -25 q-90 65 -134 143.5 q-44 78.5 -44 164.5 q0 107 45 186.5 q45 79.5 127.5 123.5 q82.5 44 194.5 44 q70 0 127.5 -20.5 q57.5 -20.5 100 -57.5 q42.5 -37 65.5 -87.5 q23 -50.5 23 -111.5 q0 -93 -35 -167 q-35 -74 -98.5 -128.5 q-63.5 -54.5 -149.5 -89.5 l1 25 l242 0 l-12 -77 l-295 0 l12 74 q108 60 173 145.5 q65 85.5 65 201.5 q0 63 -26.5 110.5 q-26.5 47.5 -76.5 74 q-50 26.5 -120 26.5 q-85 0 -144.5 -35.5 q-59.5 -35.5 -90.5 -98 q-31 -62.5 -31 -143.5 q0 -74 34.5 -144.5 q34.5 -70.5 103.5 -136.5 l-12 -74 l-295 0 Z" /><glyph glyph-name="uni03BC" unicode="&#x3bc;" d="M1 -216 l112 719 l91 0 l-46 -303 q-11 -68 12 -101.5 q23 -33.5 77 -33.5 q69 0 111.5 45 q42.5 45 53.5 119 l41 274 l92 0 l-78 -503 l-91 0 l17 110 l7 0 q-22 -55 -63.5 -87 q-41.5 -32 -98.5 -32 q-42 0 -70 15.5 q-28 15.5 -40 46.5 l4 1 l-37 -270 l-94 0 Z" /><glyph glyph-name="pi" unicode="&#x3c0;" d="M-4 0 q34 66 60.5 134.5 q26.5 68.5 46 142.5 q19.5 74 31.5 156 l-101 0 l12 70 l557 0 l-12 -70 l-115 0 l-37 -241 q-7 -40 0 -67 q7 -27 30.5 -42 q23.5 -15 65.5 -18 l28 -2 l-11 -70 l-36 2 q-68 4 -108.5 26.5 q-40.5 22.5 -54.5 66 q-14 43.5 -4 111.5 l36 234 l-159 0 q-14 -91 -33.5 -167.5 q-19.5 -76.5 -44 -142 q-24.5 -65.5 -55.5 -123.5 l-96 0 Z" /><glyph glyph-name="zero" unicode="0" d="M268 -9 q-128 0 -178.5 97.5 q-50.5 97.5 -22.5 277.5 q29 179 104 263.5 q75 84.5 193 84.5 q126 0 178 -95 q52 -95 23 -278 q-28 -178 -105 -264 q-77 -86 -192 -86 ZM273 70 q79 0 129 66 q50 66 73 215 q16 101 8 163.5 q-8 62.5 -39 91.5 q-31 29 -85 29 q-79 0 -128.5 -64.5 q-49.5 -64.5 -72.5 -213.5 q-16 -100 -8.5 -163.5 q7.5 -63.5 39 -93.5 q31.5 -30 84.5 -30 Z" /><glyph glyph-name="one" unicode="1" d="M84 0 l12 79 l165 0 l87 547 l47 -2 l-216 -122 l14 93 l194 110 l67 0 l-100 -626 l155 0 l-12 -79 l-413 0 Z" /><glyph glyph-name="two" unicode="2" d="M45 0 l10 69 l296 269 q53 48 80.5 87 q27.5 39 35.5 87 q10 60 -22 91 q-32 31 -100 31 q-56 0 -106 -18 q-50 -18 -100 -57 l-32 71 q47 39 114.5 61.5 q67.5 22.5 133.5 22.5 q74 0 123.5 -24 q49.5 -24 71 -69 q21.5 -45 11.5 -109 q-10 -64 -48.5 -117.5 q-38.5 -53.5 -104.5 -111.5 l-258 -230 l-1 26 l372 0 l-13 -79 l-463 0 Z" /><glyph glyph-name="three" unicode="3" d="M264 -9 q-71 0 -133.5 22 q-62.5 22 -100.5 62 l38 72 q42 -40 92 -58 q50 -18 107 -18 q74 0 118.5 29 q44.5 29 54.5 93 q18 126 -137 126 l-110 0 l12 77 l100 0 q67 0 112 32 q45 32 54 91 q9 55 -23.5 85 q-32.5 30 -100.5 30 q-58 0 -108.5 -18.5 q-50.5 -18.5 -100.5 -58.5 l-31 72 q49 42 115 63.5 q66 21.5 136 21.5 q109 0 164 -50.5 q55 -50.5 41 -141.5 q-9 -59 -53 -104.5 q-44 -45.5 -109 -61.5 l1 11 q70 -12 104.5 -61.5 q34.5 -49.5 22.5 -125.5 q-15 -92 -85.5 -140.5 q-70.5 -48.5 -179.5 -48.5 Z" /><glyph glyph-name="four" unicode="4" d="M339 0 l24 149 l-333 0 l12 67 l423 489 l77 0 l-77 -482 l106 0 l-11 -74 l-107 0 l-23 -149 l-91 0 ZM374 223 l60 372 l26 0 l-341 -394 l-1 22 l256 0 Z" /><glyph glyph-name="five" unicode="5" d="M280 -9 q-46 0 -89 10 q-43 10 -79 28.5 q-36 18.5 -60 45.5 l35 72 q42 -39 91 -57.5 q49 -18.5 105 -18.5 q72 0 120 36.5 q48 36.5 58 105.5 q11 68 -23 109.5 q-34 41.5 -104 41.5 q-49 0 -91.5 -19.5 q-42.5 -19.5 -78.5 -61.5 l-66 0 l67 422 l423 0 l-14 -79 l-333 0 l-42 -268 l-25 0 q34 42 82.5 63.5 q48.5 21.5 103.5 21.5 q66 0 113 -29 q47 -29 68.5 -81.5 q21.5 -52.5 9.5 -126.5 q-10 -67 -46 -115 q-36 -48 -93.5 -74 q-57.5 -26 -131.5 -26 Z" /><glyph glyph-name="six" unicode="6" d="M291 -9 q-85 0 -141 40 q-56 40 -77 121 q-21 81 -2 204 q20 122 66.5 201 q46.5 79 117 118 q70.5 39 158.5 39 q59 0 110 -19 q51 -19 83 -58 l-39 -69 q-34 35 -73.5 50.5 q-39.5 15.5 -85.5 15.5 q-99 0 -161.5 -67.5 q-62.5 -67.5 -87.5 -212.5 l-14 -89 l-10 0 q23 83 80 131.5 q57 48.5 143 48.5 q66 0 112.5 -30 q46.5 -30 67.5 -83.5 q21 -53.5 9 -126.5 q-10 -65 -44 -113 q-34 -48 -87.5 -74.5 q-53.5 -26.5 -124.5 -26.5 ZM291 68 q77 0 118 39 q41 39 51 103 q12 73 -23.5 115.5 q-35.5 42.5 -102.5 42.5 q-69 0 -114 -41.5 q-45 -41.5 -56 -106.5 q-11 -68 24 -110 q35 -42 103 -42 Z" /><glyph glyph-name="seven" unicode="7" d="M62 0 l451 663 l-2 -38 l-389 0 l13 80 l475 0 l-11 -69 l-430 -636 l-107 0 Z" /><glyph glyph-name="eight" unicode="8" d="M268 -9 q-127 0 -187 57 q-60 57 -46 152 q12 74 64 117 q52 43 127 53 l-3 -16 q-64 14 -95.5 65 q-31.5 51 -21.5 117 q14 83 81 130.5 q67 47.5 183 47.5 q75 0 125.5 -24.5 q50.5 -24.5 73 -69.5 q22.5 -45 13.5 -104 q-11 -66 -56 -110 q-45 -44 -113 -56 l3 16 q47 -9 79 -33.5 q32 -24.5 45.5 -63.5 q13.5 -39 4.5 -90 q-15 -91 -87 -139.5 q-72 -48.5 -190 -48.5 ZM273 66 q83 0 129 31.5 q46 31.5 56 95.5 q11 63 -26 94.5 q-37 31.5 -122 31.5 q-84 0 -130 -30 q-46 -30 -56 -91 q-10 -61 26.5 -96.5 q36.5 -35.5 122.5 -35.5 ZM323 395 q73 0 116.5 29 q43.5 29 52.5 89 q9 60 -24 93 q-33 33 -107 33 q-75 0 -117 -31 q-42 -31 -51 -84 q-8 -56 24.5 -92.5 q32.5 -36.5 105.5 -36.5 Z" /><glyph glyph-name="nine" unicode="9" d="M219 -9 q-58 0 -109 19.5 q-51 19.5 -83 57.5 l39 69 q33 -34 73 -50 q40 -16 86 -16 q98 0 161.5 68 q63.5 68 86.5 212 l14 89 l11 0 q-22 -83 -79.5 -131.5 q-57.5 -48.5 -143.5 -48.5 q-65 0 -111.5 30 q-46.5 30 -68 84 q-21.5 54 -10.5 127 q11 65 45 113 q34 48 88.5 74 q54.5 26 125.5 26 q84 0 140 -40 q56 -40 76.5 -121 q20.5 -81 1.5 -204 q-19 -121 -66.5 -200.5 q-47.5 -79.5 -118 -118.5 q-70.5 -39 -158.5 -39 ZM298 337 q70 0 115 41.5 q45 41.5 56 107.5 q11 67 -23.5 109.5 q-34.5 42.5 -103.5 42.5 q-75 0 -117 -39 q-42 -39 -52 -104 q-11 -73 24 -115.5 q35 -42.5 101 -42.5 Z" /><glyph glyph-name="fraction" unicode="&#x2044;" d="M-123 -9 l-83 0 l540 723 l83 0 l-540 -723 Z" /><glyph glyph-name="period" unicode="." d="M21 0 l18 111 l110 0 l-17 -111 l-111 0 Z" /><glyph glyph-name="comma" unicode="," d="M53 -119 l-36 39 q31 28 42.5 50 q11.5 22 16.5 50 l23 -20 l-78 0 l17 111 l110 0 l-13 -86 q-4 -29 -13 -53 q-9 -24 -25 -46 q-16 -22 -44 -45 Z" /><glyph glyph-name="colon" unicode=":" d="M83 393 l18 110 l110 0 l-17 -110 l-111 0 ZM21 0 l17 111 l110 0 l-17 -111 l-110 0 Z" /><glyph glyph-name="semicolon" unicode=";" d="M51 -119 l-36 32 q33 29 46.5 54.5 q13.5 25.5 17.5 52.5 l17 -20 l-73 0 l18 111 l110 0 l-13 -84 q-6 -43 -25.5 -78 q-19.5 -35 -61.5 -68 ZM83 392 l18 111 l110 0 l-17 -111 l-111 0 Z" /><glyph glyph-name="exclam" unicode="!" d="M79 190 l53 515 l113 0 l-110 -515 l-56 0 ZM21 0 l17 111 l111 0 l-17 -111 l-111 0 Z" /><glyph glyph-name="exclamdown" unicode="¡" d="M-9 -180 l107 494 l56 0 l-50 -494 l-113 0 ZM83 393 l18 110 l110 0 l-17 -110 l-111 0 Z" /><glyph glyph-name="question" unicode="?" d="M162 190 l5 32 q6 33 17.5 62 q11.5 29 36 60 q24.5 31 64.5 68 q22 20 42.5 44 q20.5 24 34 51 q13.5 27 13.5 56 q0 35 -26.5 53.5 q-26.5 18.5 -73.5 18.5 q-40 0 -78 -10.5 q-38 -10.5 -72 -29.5 l13 83 q35 18 78 27 q43 9 82 9 q52 0 90.5 -16.5 q38.5 -16.5 59.5 -46.5 q21 -30 21 -72 q0 -43 -18 -80 q-18 -37 -46.5 -68 q-28.5 -31 -60.5 -57 q-57 -50 -82.5 -86 q-25.5 -36 -35.5 -73 l-7 -25 l-57 0 ZM105 0 l17 111 l111 0 l-17 -111 l-111 0 Z" /><glyph glyph-name="questiondown" unicode="¿" d="M153 -207 q-51 0 -90 16.5 q-39 16.5 -60 47 q-21 30.5 -21 71.5 q0 44 18.5 81 q18.5 37 47 68 q28.5 31 60.5 57 q58 50 83 86 q25 36 35 72 l6 22 l58 0 l-5 -28 q-5 -32 -17.5 -61.5 q-12.5 -29.5 -36 -60.5 q-23.5 -31 -64.5 -69 q-22 -20 -42.5 -44 q-20.5 -24 -34 -51 q-13.5 -27 -13.5 -56 q0 -34 26.5 -53 q26.5 -19 72.5 -19 q41 0 78.5 11 q37.5 11 72.5 29 l-12 -82 q-36 -18 -79 -27.5 q-43 -9.5 -83 -9.5 ZM347 503 l-17 -110 l-112 0 l18 110 l111 0 Z" /><glyph glyph-name="periodcentered" unicode="·" d="M57 219 l18 111 l111 0 l-17 -111 l-112 0 Z" /><glyph glyph-name="bullet" unicode="&#x2022;" d="M266 89 q-49 0 -90 23.5 q-41 23.5 -65.5 63.5 q-24.5 40 -24.5 90 q0 46 23 86.5 q23 40.5 64 66 q41 25.5 93 25.5 q49 0 90 -23 q41 -23 66.5 -63.5 q25.5 -40.5 25.5 -91.5 q0 -49 -24.5 -89 q-24.5 -40 -66 -64 q-41.5 -24 -91.5 -24 Z" /><glyph glyph-name="asterisk" unicode="*" d="M176 363 l-53 38 l108 125 l-150 45 l24 61 l146 -54 l7 158 l65 0 l-18 -158 l154 54 l17 -61 l-157 -46 l88 -124 l-53 -38 l-77 132 l-101 -132 Z" /><glyph glyph-name="numbersign" unicode="#" d="M44 0 l64 180 l-89 0 l11 63 l101 0 l82 227 l-125 0 l9 64 l139 0 l62 171 l68 0 l-61 -171 l150 0 l62 171 l69 0 l-62 -171 l89 0 l-10 -64 l-102 0 l-82 -227 l127 0 l-11 -63 l-139 0 l-64 -180 l-70 0 l65 180 l-150 0 l-63 -180 l-70 0 ZM200 243 l150 0 l82 227 l-150 0 l-82 -227 Z" /><glyph glyph-name="slash" unicode="/" d="M9 -56 l-81 0 l392 805 l81 0 l-392 -805 Z" /><glyph glyph-name="backslash" unicode="\" d="M194 -56 l-139 805 l76 0 l139 -805 l-76 0 Z" /><glyph glyph-name="parenleft" unicode="(" d="M149 -180 q-28 75 -41.5 152 q-13.5 77 -13.5 152 q0 110 25.5 215 q25.5 105 70 198.5 q44.5 93.5 100.5 167.5 l80 0 q-78 -131 -130 -283.5 q-52 -152.5 -52 -322.5 q0 -63 9.5 -134.5 q9.5 -71.5 25.5 -144.5 l-74 0 Z" /><glyph glyph-name="parenright" unicode=")" d="M39 -180 l-79 0 q78 131 129.5 283.5 q51.5 152.5 51.5 322.5 q0 64 -9 135 q-9 71 -26 144 l75 0 q27 -75 41 -152 q14 -77 14 -152 q0 -109 -25.5 -214.5 q-25.5 -105.5 -70 -198.5 q-44.5 -93 -101.5 -168 Z" /><glyph glyph-name="braceleft" unicode="{" d="M206 -180 q-42 0 -69 13 q-27 13 -37.5 37.5 q-10.5 24.5 -5.5 56.5 l35 219 q6 40 -5 58.5 q-11 18.5 -52 21.5 l-30 2 l10 69 l32 3 q40 2 57.5 20.5 q17.5 18.5 24.5 58.5 l35 219 q9 53 38.5 80 q29.5 27 78.5 27 l108 0 l-11 -71 l-74 0 q-21 0 -34.5 -10.5 q-13.5 -10.5 -17.5 -34.5 l-35 -220 q-5 -36 -23 -60 q-18 -24 -41.5 -35.5 q-23.5 -11.5 -44.5 -11.5 l0 4 q21 0 40 -12.5 q19 -12.5 30 -36.5 q11 -24 5 -61 l-34 -220 q-4 -23 5 -34 q9 -11 31 -11 l75 0 l-11 -71 l-80 0 Z" /><glyph glyph-name="braceright" unicode="}" d="M-60 -180 l11 71 l75 0 q21 0 34.5 11 q13.5 11 17.5 34 l34 220 q6 37 24 60.5 q18 23.5 41.5 35.5 q23.5 12 44.5 12 l0 -4 q-21 0 -40.5 12.5 q-19.5 12.5 -29.5 36.5 q-10 24 -5 60 l34 220 q4 24 -5 34.5 q-9 10.5 -30 10.5 l-77 0 l12 71 l80 0 q43 0 69.5 -13 q26.5 -13 37.5 -37 q11 -24 5 -57 l-35 -219 q-6 -40 5.5 -58.5 q11.5 -18.5 51.5 -21.5 l30 -2 l-11 -69 l-31 -2 q-39 -3 -57 -21.5 q-18 -18.5 -24 -58.5 l-36 -219 q-8 -53 -38 -80 q-30 -27 -80 -27 l-108 0 Z" /><glyph glyph-name="bracketleft" unicode="[" d="M36 -180 l140 885 l211 0 l-11 -71 l-121 0 l-118 -743 l121 0 l-11 -71 l-211 0 Z" /><glyph glyph-name="bracketright" unicode="]" d="M-59 -180 l11 71 l121 0 l117 743 l-120 0 l11 71 l210 0 l-140 -885 l-210 0 Z" /><glyph glyph-name="hyphen" unicode="-" d="M68 237 l12 74 l289 0 l-11 -74 l-290 0 Z" /><glyph glyph-name="endash" unicode="&#x2013;" d="M-1 246 l9 58 l505 0 l-9 -58 l-505 0 Z" /><glyph glyph-name="emdash" unicode="&#x2014;" d="M-1 246 l9 58 l1010 0 l-9 -58 l-1010 0 Z" /><glyph glyph-name="figuredash" unicode="&#x2012;" d="M69 246 l9 58 l460 0 l-9 -58 l-460 0 Z" /><glyph glyph-name="uni2015" unicode="&#x2015;" d="M-1 246 l9 58 l1010 0 l-9 -58 l-1010 0 Z" /><glyph glyph-name="underscore" unicode="_" d="M-40 -58 l9 58 l487 0 l-9 -58 l-487 0 Z" /><glyph glyph-name="quotesinglbase" unicode="&#x201a;" d="M54 -119 l-36 39 q31 28 42.5 50 q11.5 22 16.5 50 l23 -20 l-79 0 l17 111 l111 0 l-14 -86 q-4 -29 -12.5 -53 q-8.5 -24 -24.5 -46 q-16 -22 -44 -45 Z" /><glyph glyph-name="quoteleft" unicode="&#x2018;" d="M97 482 l14 86 q5 29 13 53 q8 24 24.5 46 q16.5 22 44.5 44 l35 -37 q-30 -29 -42 -50.5 q-12 -21.5 -17 -49.5 l-23 19 l79 0 l-18 -111 l-110 0 Z" /><glyph glyph-name="quoteright" unicode="&#x2019;" d="M147 476 l-35 38 q31 28 42.5 50.5 q11.5 22.5 15.5 49.5 l24 -19 l-79 0 l18 110 l110 0 l-14 -85 q-4 -29 -12.5 -53 q-8.5 -24 -24.5 -46 q-16 -22 -45 -45 Z" /><glyph glyph-name="guilsinglleft" unicode="&#x2039;" d="M130 87 l-102 180 l160 182 l87 0 l-163 -189 l96 -173 l-78 0 Z" /><glyph glyph-name="guilsinglright" unicode="&#x203a;" d="M97 87 l-87 0 l162 189 l-96 173 l79 0 l102 -180 l-160 -182 Z" /><glyph glyph-name="quotesingle" unicode="&#39;" d="M111 425 l21 280 l107 0 l-67 -280 l-61 0 Z" /><glyph glyph-name="uni27E8" unicode="&#x27e8;" d="M301 0 l-71 350 l159 355 l50 0 l-161 -359 l68 -346 l-45 0 Z" /><glyph glyph-name="uni27E9" unicode="&#x27e9;" d="M193 0 l161 359 l-68 346 l45 0 l72 -349 l-160 -356 l-50 0 Z" /><glyph glyph-name="uni20B5" unicode="&#x20b5;" d="M254 -115 l20 131 l23 -16 q-88 6 -142.5 54 q-54.5 48 -74 129 q-19.5 81 -2.5 186 q17 106 61.5 180.5 q44.5 74.5 111.5 115 q67 40.5 151 43.5 l-21 -19 l21 131 l75 0 l-20 -130 l-24 19 q35 -1 70 -9.5 q35 -8.5 65.5 -25.5 q30.5 -17 50.5 -42 l-40 -73 q-27 34 -66 50 q-39 16 -89 16 q-104 0 -167 -70.5 q-63 -70.5 -83 -193.5 q-21 -135 22 -208 q43 -73 143 -73 q50 0 94 17.5 q44 17.5 84 56.5 l32 -69 q-28 -31 -65.5 -50 q-37.5 -19 -78 -28 q-40.5 -9 -76.5 -11 l21 19 l-21 -130 l-75 0 Z" /><glyph glyph-name="cent" unicode="¢" d="M220 -115 l21 133 l15 -22 q-91 13 -137.5 78 q-46.5 65 -28.5 178 q19 108 82.5 168 q63.5 60 161.5 70 l-22 -27 l23 144 l75 0 l-22 -140 l-15 25 q47 -1 87.5 -15.5 q40.5 -14.5 66.5 -41.5 l-34 -62 q-26 24 -59 35 q-33 11 -64 11 q-73 0 -123 -44 q-50 -44 -64 -128 q-9 -57 4 -98 q13 -41 46.5 -62.5 q33.5 -21.5 83.5 -21.5 q33 0 70.5 12.5 q37.5 12.5 69.5 38.5 l30 -63 q-34 -30 -87.5 -46.5 q-53.5 -16.5 -107.5 -15.5 l24 23 l-20 -129 l-76 0 Z" /><glyph glyph-name="colonmonetary" unicode="&#x20a1;" d="M15 -115 l105 246 l3 -43 q-34 44 -47 115.5 q-13 71.5 2 165.5 q24 156 106.5 241.5 q82.5 85.5 199.5 94.5 l-21 -18 l57 133 l67 0 l-55 -127 l-4 15 q27 0 56.5 -5.5 q29.5 -5.5 48.5 -14.5 l-17 -10 l62 142 l67 0 l-72 -165 l-14 23 q14 -7 30 -18 q16 -11 30 -28 l-40 -73 q-27 34 -66 50 q-39 16 -89 16 q-104 0 -167 -70.5 q-63 -70.5 -83 -193.5 q-21 -135 22 -208 q43 -73 143 -73 q50 0 94 17.5 q44 17.5 84 56.5 l32 -69 q-28 -31 -65 -50.5 q-37 -19.5 -76 -29 q-39 -9.5 -75 -9.5 q-9 0 -21.5 0.5 q-12.5 0.5 -23.5 2 q-11 1.5 -17 3.5 l23 10 l-54 -127 l-67 0 l58 136 l8 -12 q-24 6 -49.5 20.5 q-25.5 14.5 -42.5 32.5 l12 2 l-77 -179 l-67 0 Z" /><glyph glyph-name="currency" unicode="¤" d="M113 -27 l-44 46 l73 75 q-23 32 -36 70.5 q-13 38.5 -13 80.5 q0 43 13 81.5 q13 38.5 36 69.5 l-73 76 l44 45 l74 -76 q31 25 68.5 38.5 q37.5 13.5 78.5 13.5 q41 0 78.5 -13 q37.5 -13 67.5 -37 l72 75 l47 -47 l-74 -74 q24 -32 37 -70.5 q13 -38.5 13 -81.5 q0 -43 -13 -81.5 q-13 -38.5 -37 -70.5 l73 -74 l-45 -45 l-72 74 q-31 -24 -68 -37.5 q-37 -13.5 -79 -13.5 q-41 0 -79 14 q-38 14 -68 37 l-74 -75 ZM334 74 q44 0 80.5 23 q36.5 23 58 62 q21.5 39 21.5 86 q0 48 -21.5 86.5 q-21.5 38.5 -58 62 q-36.5 23.5 -80.5 22.5 q-44 0 -81 -23 q-37 -23 -58.5 -61.5 q-21.5 -38.5 -21.5 -86.5 q0 -47 21.5 -86 q21.5 -39 58 -62 q36.5 -23 81.5 -23 Z" /><glyph glyph-name="dollar" unicode="$" d="M214 -115 l20 128 l19 -18 q-42 2 -86.5 10.5 q-44.5 8.5 -83 24.5 q-38.5 16 -65.5 39 l40 72 q41 -30 94 -48 q53 -18 128 -18 q78 0 122 31 q44 31 51 79 q8 44 -17.5 71 q-25.5 27 -90.5 39 l-93 17 q-56 12 -93.5 38.5 q-37.5 26.5 -53 67.5 q-15.5 41 -7.5 93 q10 60 45 103 q35 43 90 67.5 q55 24.5 125 27.5 l-16 -14 l20 125 l76 0 l-21 -125 l-12 14 q52 -2 102 -21.5 q50 -19.5 83 -53.5 l-38 -70 q-33 32 -78.5 49 q-45.5 17 -103.5 17 q-76 0 -124.5 -32.5 q-48.5 -32.5 -58.5 -88.5 q-7 -47 16 -75.5 q23 -28.5 83 -39.5 l93 -18 q96 -19 136.5 -67.5 q40.5 -48.5 28.5 -126.5 q-13 -81 -81 -129.5 q-68 -48.5 -173 -56.5 l20 18 l-20 -129 l-76 0 Z" /><glyph glyph-name="dong" unicode="&#x20ab;" d="M228 -9 q-64 0 -106 32 q-42 32 -58.5 91.5 q-16.5 59.5 -3.5 140.5 q19 116 80 178.5 q61 62.5 153 62.5 q60 0 99 -30.5 q39 -30.5 51 -89.5 l-12 0 l31 196 l-149 0 l10 60 l149 0 l16 104 l91 0 l-16 -104 l73 0 l-9 -60 l-74 0 l-91 -572 l-89 0 l17 111 l13 0 q-25 -58 -71 -89 q-46 -31 -104 -31 ZM15 -140 l9 60 l426 0 l-9 -60 l-426 0 ZM253 63 q60 0 102 45 q42 45 56 132 q15 91 -13 137.5 q-28 46.5 -89 46.5 q-61 0 -103 -44 q-42 -44 -57 -134 q-13 -86 14.5 -134.5 q27.5 -48.5 89.5 -48.5 Z" /><glyph glyph-name="Euro" unicode="&#x20ac;" d="M374 -10 q-79 0 -134.5 31.5 q-55.5 31.5 -85 93 q-29.5 61.5 -31.5 148.5 l9 -16 l-116 0 l10 58 l111 0 l-17 -13 q2 29 8 62 q6 33 11 59 l14 -12 l-112 0 l9 58 l120 0 l-25 -17 q28 93 73.5 153.5 q45.5 60.5 106.5 90 q61 29.5 135 29.5 q61 0 108 -20.5 q47 -20.5 71 -57.5 l-38 -68 q-25 33 -61 48.5 q-36 15.5 -83 15.5 q-73 0 -128 -47 q-55 -47 -85 -141 l-16 14 l187 0 l-9 -58 l-193 0 l20 12 q-6 -25 -11.5 -58.5 q-5.5 -33.5 -7.5 -60.5 l-16 11 l193 0 l-10 -58 l-182 0 l18 14 q4 -98 45 -143.5 q41 -45.5 117 -45.5 q47 0 87.5 17 q40.5 17 78.5 57 l31 -67 q-42 -45 -95 -67 q-53 -22 -107 -22 Z" /><glyph glyph-name="florin" unicode="&#x192;" d="M-31 -189 l11 73 l50 0 q42 0 72.5 23 q30.5 23 51.5 79 l163 441 l16 -10 l-137 0 l11 70 l148 0 l-21 -15 l30 83 q26 73 81.5 116 q55.5 43 136.5 43 l51 0 l-12 -75 l-44 0 q-46 0 -76 -22 q-30 -22 -52 -79 l-24 -66 l-12 15 l139 0 l-12 -70 l-152 0 l21 11 l-171 -459 q-28 -72 -81.5 -115 q-53.5 -43 -132.5 -43 l-55 0 Z" /><glyph glyph-name="franc" unicode="&#x20a3;" d="M72 0 l21 138 l-75 0 l10 61 l75 0 l81 506 l438 0 l-12 -76 l-346 0 l-36 -226 l325 0 l-12 -76 l-325 0 l-20 -128 l209 0 l-10 -61 l-209 0 l-22 -138 l-92 0 Z" /><glyph glyph-name="uni20B2" unicode="&#x20b2;" d="M243 -115 l21 138 l26 -25 q-88 9 -144 54.5 q-56 45.5 -76.5 124.5 q-20.5 79 -2.5 189 q25 159 112 247 q87 88 215 95 l-23 -19 l20 131 l76 0 l-21 -131 l-15 20 q31 -1 65 -9.5 q34 -8.5 64.5 -25 q30.5 -16.5 50.5 -40.5 l-42 -68 q-28 30 -68 44.5 q-40 14.5 -87 14.5 q-104 0 -169 -71 q-65 -71 -84 -198 q-21 -133 22.5 -205.5 q43.5 -72.5 149.5 -72.5 q32 0 71.5 8 q39.5 8 71.5 26 l-36 -48 l38 238 l-140 0 l11 68 l220 0 l-50 -321 q-37 -21 -88.5 -35 q-51.5 -14 -106.5 -18 l16 27 l-21 -138 l-76 0 Z" /><glyph glyph-name="uni20B4" unicode="&#x20b4;" d="M259 -9 q-98 0 -151 41 q-53 41 -42 110 q5 31 23 59 q18 28 53 58 l1 -12 l-80 0 l10 58 l142 0 l-36 -9 l153 112 l5 -7 l-249 0 l10 58 l321 0 l-38 -12 q34 26 52.5 44 q18.5 18 27 35 q8.5 17 11.5 37 q6 36 -19.5 54.5 q-25.5 18.5 -80.5 18.5 q-49 0 -97 -16.5 q-48 -16.5 -96 -51.5 l-31 68 q52 39 117 58.5 q65 19.5 133 19.5 q90 0 137 -36.5 q47 -36.5 38 -99.5 q-7 -36 -27 -66 q-20 -30 -64 -66 l-1 13 l85 0 l-9 -58 l-150 0 l29 6 l-149 -111 l-2 9 l257 0 l-10 -58 l-328 0 l37 11 q-36 -25 -54.5 -50 q-18.5 -25 -22.5 -51 q-7 -39 22.5 -63 q29.5 -24 93.5 -24 q54 0 107.5 19 q53.5 19 98.5 55 l31 -68 q-30 -25 -70.5 -44.5 q-40.5 -19.5 -88 -30 q-47.5 -10.5 -99.5 -10.5 Z" /><glyph glyph-name="uni20AD" unicode="&#x20ad;" d="M69 0 l52 323 l-93 0 l10 60 l92 0 l51 322 l91 0 l-50 -319 l2 0 l324 319 l104 0 l-333 -331 l0 9 l251 0 l-10 -60 l-256 0 l2 8 l235 -331 l-99 0 l-229 320 l-2 0 l-51 -320 l-91 0 Z" /><glyph glyph-name="lira" unicode="&#x20a4;" d="M5 0 l10 64 q50 19 80 45 q30 26 37 67 l11 72 l-99 0 l10 58 l99 0 l14 94 l-98 0 l9 59 l111 0 l-15 -19 l10 67 q17 103 80 155 q63 52 167 52 q60 0 109 -18 q49 -18 81 -53 l-37 -67 q-32 31 -66.5 46 q-34.5 15 -84.5 15 q-68 0 -106.5 -32.5 q-38.5 -32.5 -49.5 -101.5 l-9 -57 l-8 13 l193 0 l-10 -57 l-183 0 l-15 -96 l183 0 l-10 -58 l-182 0 l-9 -54 q-7 -50 -34 -79 q-27 -29 -63 -42 l1 5 l406 0 l-13 -78 l-519 0 Z" /><glyph glyph-name="uni20BA" unicode="&#x20ba;" d="M119 0 l38 244 l-103 -53 l10 65 l104 53 l15 96 l-104 -53 l11 66 l104 53 l37 234 l93 0 l-30 -183 l195 99 l-10 -65 l-194 -99 l-15 -96 l194 99 l-11 -65 l-194 -100 l-34 -216 l109 0 q58 0 87.5 24 q29.5 24 38.5 79 l9 56 l87 0 l-10 -62 q-14 -90 -68 -133 q-54 -43 -153 -43 l-206 0 Z" /><glyph glyph-name="uni20BC" unicode="&#x20bc;" d="M15 0 l33 203 q28 176 94.5 277.5 q66.5 101.5 189.5 111.5 l-19 -20 l21 133 l76 0 l-22 -133 l-12 20 q80 -10 120.5 -61 q40.5 -51 49 -135.5 q8.5 -84.5 -8.5 -192.5 l-32 -203 l-82 0 l32 203 q25 152 4 229 q-21 77 -94 84 l10 6 l-58 -362 l-64 0 l58 362 l7 -6 q-48 -5 -85 -43.5 q-37 -38.5 -62.5 -107 q-25.5 -68.5 -40.5 -162.5 l-32 -203 l-83 0 Z" /><glyph glyph-name="uni20A6" unicode="&#x20a6;" d="M69 0 l39 247 l-92 0 l9 59 l92 0 l15 95 l-92 0 l9 58 l92 0 l40 246 l76 0 l159 -582 l-22 7 l92 575 l77 0 l-39 -246 l92 0 l-9 -58 l-92 0 l-15 -95 l92 0 l-9 -59 l-92 0 l-40 -247 l-75 0 l-159 582 l21 -7 l-91 -575 l-78 0 Z" /><glyph glyph-name="peseta" unicode="&#x20a7;" d="M69 0 l71 446 l-92 0 l10 60 l91 0 l32 199 l157 0 q74 0 122 -25.5 q48 -25.5 70 -73 q22 -47.5 15 -116.5 l-18 16 l97 0 l-10 -60 l-97 0 l23 18 q-13 -73 -47 -121 q-34 -48 -85 -72 q-51 -24 -115 -24 l-94 0 l-39 -247 l-91 0 ZM206 315 l83 0 q73 0 116.5 36.5 q43.5 36.5 54.5 111.5 q11 64 0 102.5 q-11 38.5 -41 55 q-30 16.5 -80 16.5 l-82 0 l-51 -322 Z" /><glyph glyph-name="uni20B1" unicode="&#x20b1;" d="M69 0 l58 370 l-92 0 l10 59 l92 0 l15 95 l-92 0 l10 58 l91 0 l20 123 l157 0 q86 0 137 -34 q51 -34 66 -100 l-20 11 l115 0 l-9 -58 l-95 0 l14 6 q2 -26 -3 -54.5 q-5 -28.5 -15 -54.5 l-11 8 l95 0 l-10 -59 l-114 0 l27 11 q-31 -66 -88 -100 q-57 -34 -134 -34 l-94 0 l-39 -247 l-91 0 ZM206 315 l83 0 q73 0 116.5 36.5 q43.5 36.5 54.5 111.5 q10 64 -0.5 102.5 q-10.5 38.5 -40.5 55 q-30 16.5 -80 16.5 l-82 0 l-51 -322 Z" /><glyph glyph-name="uni20BD" unicode="&#x20bd;" d="M69 0 l23 150 l-91 0 l9 59 l91 0 l16 95 l-92 0 l9 58 l92 0 l55 343 l219 0 q81 0 132 -25.5 q51 -25.5 71.5 -72.5 q20.5 -47 10.5 -111 q-10 -62 -44 -105 q-34 -43 -87 -65 q-53 -22 -120 -22 l-154 0 l-15 -95 l173 0 l-9 -59 l-172 0 l-24 -150 l-93 0 ZM218 362 l134 0 q75 0 119.5 31.5 q44.5 31.5 55.5 103.5 q12 69 -23 102.5 q-35 33.5 -111 33.5 l-133 0 l-42 -271 Z" /><glyph glyph-name="uni20B9" unicode="&#x20b9;" d="M396 0 l-113 225 q-19 39 -43 54.5 q-24 15.5 -69 15.5 l-143 0 l11 68 l201 0 q84 0 130.5 35 q46.5 35 60.5 102 l12 -8 l-384 0 l9 58 l385 0 l-18 -12 q0 53 -35.5 81 q-35.5 28 -107.5 28 l-209 0 l10 58 l558 0 l-9 -58 l-201 0 l10 12 q41 -19 58.5 -50.5 q17.5 -31.5 15.5 -74.5 l-16 16 l118 0 l-10 -58 l-115 0 l21 16 q-9 -64 -43.5 -111 q-34.5 -47 -89 -72 q-54.5 -25 -123.5 -25 l-13 9 l19 0 q39 0 67 -18 q28 -18 50 -63 l116 -228 l-110 0 Z" /><glyph glyph-name="sterling" unicode="£" d="M5 0 l10 64 q50 19 80 45 q30 26 37 67 l23 148 l-99 0 l10 60 l99 0 l19 123 q17 103 80 155 q63 52 166 52 q61 0 110 -18 q49 -18 81 -53 l-37 -67 q-32 31 -66.5 46 q-34.5 15 -84.5 15 q-68 0 -106.5 -32.5 q-38.5 -32.5 -49.5 -101.5 l-19 -119 l181 0 l-9 -60 l-181 0 l-20 -122 q-8 -53 -35 -84 q-27 -31 -66 -45 l1 5 l408 0 l-13 -78 l-519 0 Z" /><glyph glyph-name="uni20B8" unicode="&#x20b8;" d="M214 0 l77 493 l-239 0 l10 58 l572 0 l-10 -58 l-239 0 l-78 -493 l-93 0 ZM77 647 l9 58 l572 0 l-9 -58 l-572 0 Z" /><glyph glyph-name="uni20AE" unicode="&#x20ae;" d="M214 0 l30 189 l-148 -72 l9 62 l148 72 l17 103 l-148 -72 l9 62 l149 73 l32 209 l-237 0 l14 79 l567 0 l-14 -79 l-237 0 l-25 -163 l148 72 l-10 -62 l-148 -73 l-16 -102 l148 72 l-10 -63 l-148 -72 l-37 -235 l-93 0 Z" /><glyph glyph-name="uni20A9" unicode="&#x20a9;" d="M111 0 l6 250 l-101 0 l10 58 l92 0 l3 95 l-80 0 l9 59 l72 0 l8 243 l69 0 l-27 -615 l-21 0 l197 615 l50 0 l0 -615 l-20 0 l169 615 l68 0 l-71 -243 l72 0 l-9 -59 l-81 0 l-27 -95 l93 0 l-10 -58 l-100 0 l-73 -250 l-60 0 l-7 614 l31 0 l-202 -614 l-60 0 Z" /><glyph glyph-name="yen" unicode="¥" d="M214 0 l27 175 l-181 0 l8 59 l183 0 l15 95 l-182 0 l9 58 l156 0 l-2 -11 l-182 329 l99 0 l166 -308 l-23 0 l266 308 l106 0 l-286 -329 l1 11 l156 0 l-9 -58 l-182 0 l-15 -95 l182 0 l-9 -59 l-182 0 l-29 -175 l-92 0 Z" /><glyph glyph-name="periodcentered" unicode="&#x2219;" d="M238 211 l18 111 l110 0 l-17 -111 l-111 0 Z" /><glyph glyph-name="uni2052" unicode="&#x2052;" d="M152 -50 l-85 0 l442 795 l86 0 l-443 -795 ZM367 39 l18 110 l110 0 l-17 -110 l-111 0 ZM165 556 l17 111 l111 0 l-18 -111 l-110 0 Z" /><glyph glyph-name="fraction" unicode="&#x2215;" d="M153 -50 l-81 0 l387 795 l81 0 l-387 -795 Z" /><glyph glyph-name="plus" unicode="+" d="M232 40 l33 213 l-212 0 l11 68 l212 0 l33 207 l70 0 l-33 -207 l211 0 l-11 -68 l-211 0 l-33 -213 l-70 0 Z" /><glyph glyph-name="minus" unicode="&#x2212;" d="M53 253 l11 68 l493 0 l-11 -68 l-493 0 Z" /><glyph glyph-name="multiply" unicode="×" d="M112 50 l-47 48 l203 189 l-168 184 l49 48 l170 -186 l202 186 l47 -48 l-204 -187 l169 -186 l-49 -48 l-170 186 l-202 -186 Z" /><glyph glyph-name="divide" unicode="÷" d="M53 253 l11 68 l493 0 l-11 -68 l-493 0 ZM216 43 l15 90 l90 0 l-15 -90 l-90 0 ZM279 440 l14 90 l90 0 l-14 -90 l-90 0 Z" /><glyph glyph-name="equal" unicode="=" d="M69 353 l11 68 l492 0 l-11 -68 l-492 0 ZM38 154 l11 67 l492 0 l-11 -67 l-492 0 Z" /><glyph glyph-name="notequal" unicode="&#x2260;" d="M181 18 l-56 37 l57 99 l-144 0 l11 67 l173 0 l76 132 l-229 0 l11 68 l258 0 l79 135 l58 -37 l-58 -98 l155 0 l-11 -68 l-184 0 l-77 -132 l241 0 l-11 -67 l-270 0 l-79 -136 Z" /><glyph glyph-name="greater" unicode="&gt;" d="M20 35 l12 78 l490 201 l-7 -46 l-427 201 l12 71 l458 -217 l-12 -71 l-526 -217 Z" /><glyph glyph-name="less" unicode="&lt;" d="M511 35 l-458 217 l11 71 l527 217 l-12 -79 l-491 -201 l8 45 l427 -200 l-12 -70 Z" /><glyph glyph-name="greaterequal" unicode="&#x2265;" d="M32 118 l12 76 l485 158 l-6 -45 l-435 160 l11 71 l465 -175 l-11 -71 l-521 -174 ZM13 0 l11 68 l493 0 l-11 -68 l-493 0 Z" /><glyph glyph-name="lessequal" unicode="&#x2264;" d="M524 118 l-465 174 l12 71 l520 175 l-12 -76 l-485 -159 l7 45 l434 -160 l-11 -70 ZM13 0 l11 68 l492 0 l-11 -68 l-492 0 Z" /><glyph glyph-name="plusminus" unicode="±" d="M246 130 l26 166 l-212 0 l11 68 l213 0 l26 166 l70 0 l-26 -166 l208 0 l-9 -68 l-210 0 l-26 -166 l-71 0 ZM13 0 l11 68 l493 0 l-11 -68 l-493 0 Z" /><glyph glyph-name="approxequal" unicode="&#x2248;" d="M436 315 q-34 0 -66 14 q-32 14 -61 29 q-26 15 -49 25.5 q-23 10.5 -45 10.5 q-32 0 -54.5 -18.5 q-22.5 -18.5 -39.5 -46.5 l-49 33 q25 47 58 72 q33 25 78 25 q35 0 68 -14 q33 -14 61 -29 q27 -14 49 -24.5 q22 -10.5 43 -10.5 q32 0 55.5 18 q23.5 18 39.5 47 l49 -34 q-26 -46 -58.5 -71.5 q-32.5 -25.5 -78.5 -25.5 ZM404 115 q-34 0 -66 14 q-32 14 -60 29 q-26 14 -49.5 25 q-23.5 11 -45.5 11 q-32 0 -54.5 -18.5 q-22.5 -18.5 -38.5 -47.5 l-50 34 q26 47 58.5 72 q32.5 25 77.5 25 q35 0 68 -14 q33 -14 61 -30 q27 -14 49 -24.5 q22 -10.5 43 -10.5 q33 0 56 18.5 q23 18.5 39 46.5 l49 -33 q-26 -47 -59 -72 q-33 -25 -78 -25 Z" /><glyph glyph-name="asciitilde" unicode="~" d="M419 215 q-34 0 -66 14 q-32 14 -60 29 q-26 15 -49 25.5 q-23 10.5 -46 10.5 q-31 0 -54 -18.5 q-23 -18.5 -39 -46.5 l-50 33 q26 47 59 72 q33 25 78 25 q35 0 68 -14 q33 -14 61 -29 q27 -14 48.5 -24.5 q21.5 -10.5 43.5 -10.5 q33 0 55.5 18 q22.5 18 38.5 47 l50 -34 q-26 -46 -59.5 -71.5 q-33.5 -25.5 -78.5 -25.5 Z" /><glyph glyph-name="logicalnot" unicode="¬" d="M460 147 l33 208 l-423 0 l11 68 l493 0 l-44 -276 l-70 0 Z" /><glyph glyph-name="asciicircum" unicode="^" d="M27 140 l297 488 l70 0 l143 -488 l-71 0 l-131 454 l45 0 l-275 -454 l-78 0 Z" /><glyph glyph-name="emptyset" unicode="&#x2205;" d="M92 -23 l-48 32 l77 102 q-46 38 -74 93 q-28 55 -28 119 q0 56 22.5 107 q22.5 51 62.5 91 q40 40 94 63 q54 23 118 23 q41 0 81 -11 q40 -11 75 -32 l78 101 l47 -35 l-77 -101 q41 -37 66 -90 q25 -53 25 -116 q0 -58 -23 -109 q-23 -51 -63.5 -90 q-40.5 -39 -94 -61 q-53.5 -22 -114.5 -22 q-39 0 -76.5 10.5 q-37.5 10.5 -69.5 27.5 l-78 -102 ZM158 158 l277 358 q-26 15 -56 23.5 q-30 8.5 -63 8.5 q-65 0 -117.5 -29.5 q-52.5 -29.5 -83 -80 q-30.5 -50.5 -30.5 -115.5 q0 -48 19.5 -91 q19.5 -43 53.5 -74 ZM316 99 q62 0 114 28.5 q52 28.5 83.5 79.5 q31.5 51 31.5 116 q0 46 -17 86.5 q-17 40.5 -46 70.5 l-276 -355 q24 -12 52 -19 q28 -7 58 -7 Z" /><glyph glyph-name="infinity" unicode="&#x221e;" d="M165 139 q-58 0 -91 35.5 q-33 35.5 -33 91.5 q0 45 18 81.5 q18 36.5 51.5 59 q33.5 22.5 79.5 22.5 q32 0 65.5 -18 q33.5 -18 54.5 -61 q28 43 65 61 q37 18 69 18 q60 0 93 -36 q33 -36 33 -91 q0 -44 -18 -81 q-18 -37 -52 -59.5 q-34 -22.5 -81 -22.5 q-32 0 -64.5 18.5 q-32.5 18.5 -53.5 60.5 q-28 -42 -66 -60.5 q-38 -18.5 -70 -18.5 ZM172 199 q17 0 35.5 7 q18.5 7 37.5 25.5 q19 18.5 36 53.5 q-11 35 -26.5 53 q-15.5 18 -33 25 q-17.5 7 -33.5 7 q-37 0 -60 -28.5 q-23 -28.5 -23 -68.5 q0 -31 17.5 -52.5 q17.5 -21.5 49.5 -21.5 ZM421 199 q39 0 62 28 q23 28 23 68 q0 32 -17.5 53.5 q-17.5 21.5 -51.5 21.5 q-17 0 -35 -7 q-18 -7 -36.5 -25 q-18.5 -18 -35.5 -53 q11 -35 26 -53.5 q15 -18.5 32 -25.5 q17 -7 33 -7 Z" /><glyph glyph-name="integral" unicode="&#x222b;" d="M144 -186 q-20 0 -40.5 3 q-20.5 3 -35.5 9 l12 76 q12 -4 26.5 -8 q14.5 -4 30.5 -4 q34 0 56.5 18.5 q22.5 18.5 29.5 63.5 l94 592 q12 75 56.5 115 q44.5 40 114.5 40 q19 0 40 -3.5 q21 -3.5 34 -9.5 l-11 -75 q-11 4 -26 8 q-15 4 -32 4 q-33 0 -55.5 -19 q-22.5 -19 -30.5 -64 l-93 -592 q-12 -74 -56.5 -114 q-44.5 -40 -113.5 -40 Z" /><glyph glyph-name="Omega" unicode="&#x2126;" d="M-5 0 l12 77 l178 0 l-3 -23 q-60 60 -91 128.5 q-31 68.5 -31 148.5 q0 74 20 142.5 q20 68.5 58 123 q38 54.5 93.5 86 q55.5 31.5 126.5 31.5 q73 0 124 -30.5 q51 -30.5 78.5 -86 q27.5 -55.5 27.5 -126.5 q0 -88 -26.5 -168 q-26.5 -80 -77 -144.5 q-50.5 -64.5 -124.5 -104.5 l3 23 l176 0 l-12 -77 l-223 0 l12 74 q44 34 77.5 79 q33.5 45 56.5 97.5 q23 52.5 34 108 q11 55.5 11 111.5 q0 79 -35.5 122 q-35.5 43 -105.5 43 q-46 0 -83 -24 q-37 -24 -62.5 -66.5 q-25.5 -42.5 -40 -96 q-14.5 -53.5 -15.5 -112.5 q-2 -46 5.5 -90 q7.5 -44 25 -87 q17.5 -43 47.5 -85 l-12 -74 l-224 0 Z" /><glyph glyph-name="Delta" unicode="&#x2206;" d="M-11 0 l10 60 l335 645 l75 0 l132 -645 l-10 -60 l-542 0 ZM356 591 l-282 -550 l6 35 l393 0 l-5 -35 l-110 550 l-2 0 Z" /><glyph glyph-name="product" unicode="&#x220f;" d="M-19 -180 l140 885 l500 0 l-140 -885 l-86 0 l128 809 l-327 0 l-128 -809 l-87 0 Z" /><glyph glyph-name="radical" unicode="&#x221a;" d="M176 -180 l-85 456 l42 -29 l-130 0 l12 72 l148 0 l75 -431 l-25 0 l382 870 l83 0 l-417 -938 l-85 0 Z" /><glyph glyph-name="mu" unicode="µ" d="M-2 -216 l112 719 l91 0 l-46 -305 q-11 -68 11.5 -100.5 q22.5 -32.5 76.5 -32.5 q67 0 108.5 44.5 q41.5 44.5 52.5 117.5 l42 276 l91 0 l-78 -503 l-89 0 l18 110 l6 0 q-21 -55 -62 -87 q-41 -32 -96 -32 q-41 0 -71.5 16 q-30.5 16 -44.5 46 l5 2 l-35 -271 l-92 0 Z" /><glyph glyph-name="partialdiff" unicode="&#x2202;" d="M273 -9 q-66 0 -116.5 27 q-50.5 27 -78.5 74.5 q-28 47.5 -28 108.5 q0 61 19.5 111 q19.5 50 54.5 85.5 q35 35.5 81.5 54.5 q46.5 19 100.5 19 q68 0 118 -30 q50 -30 64 -87 l-13 0 q9 67 -2 124 q-11 57 -41.5 100 q-30.5 43 -79.5 66.5 q-49 23.5 -116 23.5 l-45 0 l11 69 q16 2 33 3.5 q17 1.5 39 1.5 q66 0 120.5 -25 q54.5 -25 93.5 -71 q39 -46 60 -107.5 q21 -61.5 21 -133.5 q0 -103 -23 -180.5 q-23 -77.5 -64 -129.5 q-41 -52 -94.5 -78 q-53.5 -26 -114.5 -26 ZM278 63 q39 0 72 18.5 q33 18.5 57 49 q24 30.5 37.5 69 q13.5 38.5 13.5 77.5 q0 58 -38 91 q-38 33 -100 33 q-54 0 -94 -27.5 q-40 -27.5 -62 -72.5 q-22 -45 -22 -100 q0 -61 36 -99.5 q36 -38.5 100 -38.5 Z" /><glyph glyph-name="percent" unicode="%" d="M266 0 l-85 0 l525 705 l86 0 l-526 -705 ZM238 283 q-83 0 -124.5 59.5 q-41.5 59.5 -24.5 166.5 q15 96 68 150.5 q53 54.5 131 54.5 q85 0 125.5 -59 q40.5 -59 23.5 -166 q-15 -96 -67 -151 q-52 -55 -132 -55 ZM241 345 q47 0 77.5 37.5 q30.5 37.5 42.5 113.5 q12 78 -9 116.5 q-21 38.5 -67 38.5 q-46 0 -76 -36.5 q-30 -36.5 -42 -112.5 q-13 -79 8 -118 q21 -39 66 -39 ZM684 -9 q-84 0 -125 59.5 q-41 59.5 -24 166.5 q16 97 68 151 q52 54 131 54 q84 0 125 -59 q41 -59 24 -166 q-16 -96 -67.5 -151 q-51.5 -55 -131.5 -55 ZM688 54 q46 0 76.5 37.5 q30.5 37.5 41.5 112.5 q13 78 -8.5 116.5 q-21.5 38.5 -67.5 38.5 q-45 0 -75.5 -36.5 q-30.5 -36.5 -42.5 -112.5 q-12 -79 9 -117.5 q21 -38.5 67 -38.5 Z" /><glyph glyph-name="perthousand" unicode="&#x2030;" d="M1087 -9 q-84 0 -125 59.5 q-41 59.5 -24 166.5 q15 97 68 151 q53 54 130 54 q85 0 126.5 -59 q41.5 -59 24.5 -166 q-16 -96 -68.5 -151 q-52.5 -55 -131.5 -55 ZM1091 54 q46 0 76 37.5 q30 37.5 43 112.5 q12 78 -9.5 116.5 q-21.5 38.5 -67.5 38.5 q-46 0 -75.5 -36.5 q-29.5 -36.5 -42.5 -112.5 q-12 -79 9 -117.5 q21 -38.5 67 -38.5 ZM181 0 l525 705 l86 0 l-526 -705 l-85 0 ZM238 283 q-83 0 -124.5 59.5 q-41.5 59.5 -24.5 166.5 q15 96 68 150.5 q53 54.5 131 54.5 q85 0 125.5 -59 q40.5 -59 23.5 -166 q-15 -96 -67 -151 q-52 -55 -132 -55 ZM241 345 q47 0 77.5 37.5 q30.5 37.5 42.5 113.5 q12 78 -9 116.5 q-21 38.5 -67 38.5 q-46 0 -76 -36.5 q-30 -36.5 -42 -112.5 q-13 -79 8 -118 q21 -39 66 -39 ZM684 -9 q-84 0 -124.5 59.5 q-40.5 59.5 -24.5 166.5 q16 97 68 151 q52 54 131 54 q84 0 125.5 -59 q41.5 -59 23.5 -166 q-16 -96 -67.5 -151 q-51.5 -55 -131.5 -55 ZM688 54 q46 0 76.5 37.5 q30.5 37.5 41.5 112.5 q13 78 -8.5 116.5 q-21.5 38.5 -67.5 38.5 q-45 0 -75.5 -36.5 q-30.5 -36.5 -42.5 -112.5 q-12 -79 9 -117.5 q21 -38.5 67 -38.5 Z" /><glyph glyph-name="lozenge" unicode="&#x25ca;" d="M192 -200 l-139 493 l291 465 l72 0 l139 -491 l-291 -467 l-72 0 ZM238 -114 l242 391 l-110 395 l-242 -390 l110 -396 Z" /><glyph glyph-name="uniF8FF" unicode="&#xf8ff;" d="M158 1 l71 225 l-191 144 l237 0 l74 225 l77 -225 l238 0 l-192 -144 l71 -225 l-194 135 l-191 -135 ZM284 199 l28 0 l0 87 l-5 -2 l34 -64 l23 0 l35 64 l-5 2 l0 -87 l28 0 l0 131 l-27 0 l-45 -86 l7 0 l-46 86 l-27 0 l0 -131 Z" /><glyph glyph-name="at" unicode="@" d="M504 -164 q-95 0 -174.5 30.5 q-79.5 30.5 -137.5 88 q-58 57.5 -89.5 137.5 q-31.5 80 -31.5 180 q0 99 33 180 q33 81 93 140 q60 59 142 90.5 q82 31.5 180 31.5 q87 0 159.5 -26.5 q72.5 -26.5 126 -75.5 q53.5 -49 83 -117 q29.5 -68 29.5 -151 q0 -87 -26.5 -151 q-26.5 -64 -72 -99 q-45.5 -35 -102.5 -35 q-60 0 -91.5 34.5 q-31.5 34.5 -28.5 93.5 l22 -2 q-26 -62 -71.5 -94 q-45.5 -32 -97.5 -32 q-78 0 -121 49 q-43 49 -43 134 q0 73 28 130.5 q28 57.5 77 90.5 q49 33 111 33 q54 0 88.5 -27 q34.5 -27 45.5 -76 l-13 0 l17 94 l72 0 l-44 -255 q-3 -14 -4 -26 q-1 -12 -1 -23 q0 -33 14.5 -49 q14.5 -16 43.5 -16 q37 0 67.5 28 q30.5 28 49 79 q18.5 51 18.5 119 q0 70 -24.5 127 q-24.5 57 -70 97.5 q-45.5 40.5 -107 62.5 q-61.5 22 -135.5 22 q-84 0 -153 -27 q-69 -27 -119.5 -77.5 q-50.5 -50.5 -78.5 -120.5 q-28 -70 -28 -156 q0 -117 46 -201 q46 -84 128 -128.5 q82 -44.5 191 -44.5 q80 0 144.5 24 q64.5 24 107.5 69 l35 -52 q-48 -49 -122 -76 q-74 -27 -165 -27 ZM460 122 q43 0 76.5 26 q33.5 26 53 72 q19.5 46 19.5 104 q0 55 -24 82 q-24 27 -75 27 q-42 0 -76 -24.5 q-34 -24.5 -53.5 -67.5 q-19.5 -43 -19.5 -99 q0 -58 26 -89 q26 -31 73 -31 Z" /><glyph glyph-name="ampersand" unicode="&amp;" d="M612 -9 q-44 20 -80 49.5 q-36 29.5 -61 58.5 l27 0 q-49 -51 -114 -79.5 q-65 -28.5 -137 -28.5 q-74 0 -124.5 24.5 q-50.5 24.5 -73 68 q-22.5 43.5 -13.5 100.5 q10 62 55.5 106.5 q45.5 44.5 119.5 85.5 l47 27 l-18 -16 q-38 48 -53 90.5 q-15 42.5 -8 90.5 q7 42 31 75 q24 33 65.5 52 q41.5 19 98.5 19 q49 0 85.5 -18 q36.5 -18 55 -51.5 q18.5 -33.5 10.5 -81.5 q-5 -33 -24.5 -65 q-19.5 -32 -57.5 -62.5 q-38 -30.5 -101 -64.5 l1 23 l157 -204 l-17 0 q32 42 56.5 100.5 q24.5 58.5 37.5 124.5 l81 0 q-16 -83 -48 -155 q-32 -72 -75 -126 l-5 25 q21 -28 53 -55.5 q32 -27.5 71 -46.5 l-42 -66 ZM259 64 q58 0 105.5 23 q47.5 23 88.5 67 l-8 -25 l-181 227 l39 -3 l-44 -25 q-59 -35 -92 -65.5 q-33 -30.5 -40 -75.5 q-8 -56 25.5 -89.5 q33.5 -33.5 106.5 -33.5 ZM371 648 q-43 0 -71.5 -23.5 q-28.5 -23.5 -34.5 -58.5 q-3 -26 0 -46.5 q3 -20.5 15.5 -42 q12.5 -21.5 37.5 -54.5 l-20 -3 q75 41 110 73 q35 32 41 71 q7 38 -15 61 q-22 23 -63 23 Z" /><glyph glyph-name="paragraph" unicode="¶" d="M183 -180 l76 483 q-55 0 -94.5 23 q-39.5 23 -61 62.5 q-21.5 39.5 -21.5 87.5 q0 69 30 120.5 q30 51.5 84 80 q54 28.5 122 28.5 l274 0 l-140 -885 l-71 0 l129 816 l-127 0 l-130 -816 l-70 0 Z" /><glyph glyph-name="section" unicode="§" d="M206 -189 q-67 0 -121.5 17 q-54.5 17 -95.5 49 l35 62 q22 -19 50 -32.5 q28 -13.5 61 -20.5 q33 -7 68 -7 q66 0 103.5 33 q37.5 33 37.5 82 q0 38 -17.5 59.5 q-17.5 21.5 -57.5 44.5 l-105 61 q-57 34 -87 72.5 q-30 38.5 -30 84.5 q0 46 23.5 84.5 q23.5 38.5 67.5 66.5 l-3 -11 q-7 16 -11 33 q-4 17 -4 36 q0 57 31 99.5 q31 42.5 82.5 66 q51.5 23.5 114.5 23.5 q57 0 108 -15.5 q51 -15.5 90 -49.5 l-31 -61 q-30 27 -75 42.5 q-45 15.5 -90 15.5 q-66 0 -103.5 -33 q-37.5 -33 -37.5 -83 q0 -37 17 -60 q17 -23 58 -46 l102 -59 q60 -34 90 -72.5 q30 -38.5 30 -83.5 q0 -46 -24 -85 q-24 -39 -69 -68 l3 16 q9 -16 13 -33.5 q4 -17.5 4 -36.5 q0 -59 -31 -102 q-31 -43 -82 -66 q-51 -23 -114 -23 ZM130 331 q0 -32 22 -57.5 q22 -25.5 65 -51.5 l93 -53 q26 -17 46.5 -32.5 q20.5 -15.5 32.5 -33.5 l-12 1 q23 20 34.5 44.5 q11.5 24.5 11.5 45.5 q0 32 -22.5 57 q-22.5 25 -67.5 52 l-89 50 q-26 17 -46.5 33 q-20.5 16 -33.5 35 l13 2 q-24 -21 -35.5 -45.5 q-11.5 -24.5 -11.5 -46.5 Z" /><glyph glyph-name="copyright" unicode="©" d="M429 -9 q-76 0 -142.5 27.5 q-66.5 27.5 -115.5 76.5 q-49 49 -76.5 115.5 q-27.5 66.5 -27.5 142.5 q0 77 27.5 143 q27.5 66 76.5 114.5 q49 48.5 115 76 q66 27.5 143 27.5 q77 0 143 -27.5 q66 -27.5 114.5 -76 q48.5 -48.5 76 -114.5 q27.5 -66 27.5 -143 q0 -76 -27.5 -142.5 q-27.5 -66.5 -76 -115.5 q-48.5 -49 -114.5 -76.5 q-66 -27.5 -143 -27.5 ZM443 137 q-98 0 -154 59.5 q-56 59.5 -56 158.5 q0 99 56 156 q56 57 154 57 q40 0 79 -13.5 q39 -13.5 64 -38.5 l-26 -57 q-25 23 -54.5 33.5 q-29.5 10.5 -57.5 10.5 q-63 0 -99 -39 q-36 -39 -36 -110 q0 -70 36 -111 q36 -41 99 -41 q28 0 57.5 11 q29.5 11 54.5 34 l26 -58 q-25 -23 -65 -37.5 q-40 -14.5 -78 -14.5 ZM429 37 q67 0 124 24 q57 24 99.5 67 q42.5 43 66 100.5 q23.5 57.5 23.5 124.5 q0 67 -23.5 124.5 q-23.5 57.5 -66 100 q-42.5 42.5 -99.5 66.5 q-57 24 -124 24 q-67 0 -124.5 -24 q-57.5 -24 -100 -66.5 q-42.5 -42.5 -66 -100 q-23.5 -57.5 -23.5 -124.5 q0 -67 23.5 -124.5 q23.5 -57.5 66 -100.5 q42.5 -43 100 -67 q57.5 -24 124.5 -24 Z" /><glyph glyph-name="registered" unicode="®" d="M429 -9 q-76 0 -142.5 27.5 q-66.5 27.5 -115.5 76.5 q-49 49 -76.5 115.5 q-27.5 66.5 -27.5 142.5 q0 77 27.5 143 q27.5 66 76.5 114.5 q49 48.5 115 76 q66 27.5 143 27.5 q77 0 143 -27.5 q66 -27.5 114.5 -76 q48.5 -48.5 76 -114.5 q27.5 -66 27.5 -143 q0 -76 -27.5 -142.5 q-27.5 -66.5 -76 -115.5 q-48.5 -49 -114.5 -76.5 q-66 -27.5 -143 -27.5 ZM429 37 q67 0 124 24 q57 24 99.5 67 q42.5 43 66 100.5 q23.5 57.5 23.5 124.5 q0 67 -23.5 124.5 q-23.5 57.5 -66 100 q-42.5 42.5 -99.5 66.5 q-57 24 -124 24 q-67 0 -124.5 -24 q-57.5 -24 -100 -66.5 q-42.5 -42.5 -66 -100 q-23.5 -57.5 -23.5 -124.5 q0 -67 23.5 -124.5 q23.5 -57.5 66 -100.5 q42.5 -43 100 -67 q57.5 -24 124.5 -24 ZM282 142 l0 422 l175 0 q68 0 104.5 -33 q36.5 -33 36.5 -90 q0 -57 -36.5 -87.5 q-36.5 -30.5 -102.5 -30.5 l14 10 q31 0 51.5 -14 q20.5 -14 32.5 -52 l46 -125 l-75 0 l-47 129 q-9 24 -26 32.5 q-17 8.5 -42 8.5 l-71 0 l14 10 l0 -180 l-74 0 ZM355 369 l91 0 q41 0 61 17 q20 17 20 52 q0 35 -19.5 52 q-19.5 17 -61.5 17 l-91 0 l0 -138 Z" /><glyph glyph-name="trademark" unicode="&#x2122;" d="M149 284 l56 352 l-136 0 l12 69 l354 0 l-11 -69 l-136 0 l-56 -352 l-83 0 ZM431 284 l67 421 l63 0 l111 -287 l-20 0 l203 287 l70 0 l-67 -421 l-74 0 l50 316 l18 0 l-175 -247 l-43 0 l-96 247 l17 0 l-50 -316 l-74 0 Z" /><glyph glyph-name="degree" unicode="°" d="M237 414 q-43 0 -77 19.5 q-34 19.5 -53.5 53 q-19.5 33.5 -19.5 76.5 q0 42 19.5 76 q19.5 34 53.5 53.5 q34 19.5 77 19.5 q43 0 76.5 -19.5 q33.5 -19.5 53 -53 q19.5 -33.5 19.5 -77.5 q0 -42 -19.5 -76 q-19.5 -34 -53 -53 q-33.5 -19 -76.5 -19 ZM237 472 q39 0 63 25.5 q24 25.5 24 65.5 q0 39 -24 64.5 q-24 25.5 -63 25.5 q-38 0 -62.5 -25.5 q-24.5 -25.5 -24.5 -64.5 q0 -40 24.5 -65.5 q24.5 -25.5 62.5 -25.5 Z" /><glyph glyph-name="minute" unicode="&#x2032;" d="M111 425 l21 280 l107 0 l-67 -280 l-61 0 Z" /><glyph glyph-name="bar" unicode="|" d="M20 -180 l140 885 l91 0 l-140 -885 l-91 0 Z" /><glyph glyph-name="brokenbar" unicode="¦" d="M107 372 l53 333 l91 0 l-53 -333 l-91 0 ZM20 -180 l53 334 l91 0 l-53 -334 l-91 0 Z" /><glyph glyph-name="dagger" unicode="&#x2020;" d="M116 157 l59 370 l-111 0 l10 61 l110 0 l19 117 l68 0 l-18 -117 l110 0 l-10 -61 l-110 0 l-58 -370 l-69 0 Z" /><glyph glyph-name="uni2113" unicode="&#x2113;" d="M287 -9 q-61 0 -90.5 37 q-29.5 37 -19.5 95 l22 138 l10 -15 l-80 -76 l-30 37 l108 102 l41 260 q10 67 46 106 q36 39 94 39 q41 0 69.5 -23.5 q28.5 -23.5 28.5 -66.5 q0 -51 -22.5 -99.5 q-22.5 -48.5 -59.5 -94 q-37 -45.5 -81 -92.5 l-33 -34 l-26 -164 q-4 -34 4.5 -55.5 q8.5 -21.5 40.5 -21.5 q19 0 40 8.5 q21 8.5 50 35.5 l24 -58 q-29 -29 -65 -43.5 q-36 -14.5 -71 -14.5 ZM303 388 q5 6 10 11.5 q5 5.5 9 10.5 q42 47 72.5 100 q30.5 53 30.5 101 q0 37 -31 37 q-23 0 -39 -19.5 q-16 -19.5 -21 -50.5 l-31 -190 Z" /><glyph glyph-name="daggerdbl" unicode="&#x2021;" d="M116 156 l18 117 l-111 0 l10 61 l111 0 l31 194 l-112 0 l10 61 l111 0 l19 116 l69 0 l-19 -116 l111 0 l-9 -61 l-112 0 l-30 -194 l111 0 l-10 -61 l-111 0 l-18 -117 l-69 0 Z" /><glyph glyph-name="estimated" unicode="&#x212e;" d="M468 -5 q-95 0 -169 28 q-74 28 -125 77 q-51 49 -77.5 112 q-26.5 63 -26.5 133 q0 70 27 135.5 q27 65.5 78.5 117 q51.5 51.5 124.5 82 q73 30.5 166 30.5 q115 0 191.5 -33 q76.5 -33 122 -88.5 q45.5 -55.5 65 -122.5 q19.5 -67 19.5 -135 l-643 0 q-5 0 -5 -6 l0 -172 q0 -7 1.5 -15.5 q1.5 -8.5 5.5 -13.5 q40 -48 102 -72.5 q62 -24.5 140 -24.5 q85 0 146.5 29 q61.5 29 112.5 78 l71 0 q-39 -47 -83.5 -78 q-44.5 -31 -103 -46 q-58.5 -15 -140.5 -15 ZM221 362 l492 0 q5 0 5 6 l0 188 q0 14 -10 26 q-34 41 -78 61.5 q-44 20.5 -88 28 q-44 7.5 -79 7.5 q-58 0 -121.5 -21 q-63.5 -21 -116.5 -74 q-9 -9 -9 -27 l0 -189 q0 -6 5 -6 Z" /><glyph glyph-name="uni2116" unicode="&#x2116;" d="M46 0 l112 705 l71 0 l346 -590 l-23 0 l94 590 l86 0 l-112 -705 l-70 0 l-346 590 l22 0 l-94 -590 l-86 0 ZM782 259 l11 60 l281 0 l-9 -60 l-283 0 ZM955 411 q-38 0 -69 15.5 q-31 15.5 -48.5 43.5 q-17.5 28 -17.5 66 q0 49 21.5 89.5 q21.5 40.5 59.5 64.5 q38 24 88 24 q38 0 68.5 -16 q30.5 -16 48 -45.5 q17.5 -29.5 17.5 -67.5 q0 -51 -22 -90.5 q-22 -39.5 -60 -61.5 q-38 -22 -86 -22 ZM958 461 q33 0 55.5 18 q22.5 18 34 47 q11.5 29 11.5 63 q0 76 -73 76 q-34 0 -57 -19 q-23 -19 -34 -48 q-11 -29 -11 -62 q0 -38 19.5 -56.5 q19.5 -18.5 54.5 -18.5 Z" /><glyph glyph-name="uni02BC" unicode="&#x2bc;" d="M220 570 l-35 27 q24 22 33 42 q9 20 12 40 l23 -11 l-75 0 l14 90 l105 0 l-11 -66 q-5 -37 -19.5 -65.5 q-14.5 -28.5 -46.5 -56.5 Z" /><glyph glyph-name="uni02BB" unicode="&#x2bb;" d="M247 566 l9 65 q6 39 23.5 70.5 q17.5 31.5 51.5 56.5 l32 -29 q-26 -23 -36.5 -43.5 q-10.5 -20.5 -14.5 -43.5 l-21 11 l75 0 l-14 -87 l-105 0 Z" /><glyph glyph-name="uni02C9" unicode="&#x2c9;" d="M158 623 l10 59 l300 0 l-9 -59 l-301 0 Z" /><glyph glyph-name="uni02CB" unicode="&#x2cb;" d="M305 552 l-141 202 l94 0 l111 -202 l-64 0 Z" /><glyph glyph-name="uni02BF" unicode="&#x2bf;" d="M299 554 q-40 2 -64 28.5 q-24 26.5 -24 62.5 q0 32 17 57.5 q17 25.5 44.5 39.5 q27.5 14 59.5 12 l-8 -46 q-26 1 -44 -16.5 q-18 -17.5 -18 -44.5 q0 -20 12 -33 q12 -13 33 -15 l-8 -45 Z" /><glyph glyph-name="uni02BE" unicode="&#x2be;" d="M297 554 l8 46 q26 -1 43.5 17 q17.5 18 17.5 43 q0 21 -11.5 34 q-11.5 13 -32.5 14 l8 46 q40 -3 63.5 -28.5 q23.5 -25.5 23.5 -62.5 q0 -32 -16.5 -57.5 q-16.5 -25.5 -44 -39.5 q-27.5 -14 -59.5 -12 Z" /><glyph glyph-name="uni02CA" unicode="&#x2ca;" d="M265 552 l125 202 l96 0 l-156 -202 l-65 0 Z" /><glyph glyph-name="uni02CC" unicode="&#x2cc;" d="M135 -270 l31 201 l65 0 l-31 -201 l-65 0 Z" /><glyph glyph-name="uni02C8" unicode="&#x2c8;" d="M272 595 l31 201 l65 0 l-31 -201 l-65 0 Z" /><glyph glyph-name="uni0308" unicode="&#x308;" d="M99 606 l13 93 l93 0 l-14 -93 l-92 0 ZM-79 606 l14 93 l93 0 l-14 -93 l-93 0 Z" /><glyph glyph-name="uni0307" unicode="&#x307;" d="M7 606 l15 94 l98 0 l-15 -94 l-98 0 Z" /><glyph glyph-name="gravecomb" unicode="&#x300;" d="M55 552 l-141 202 l93 0 l112 -202 l-64 0 Z" /><glyph glyph-name="acutecomb" unicode="&#x301;" d="M15 552 l134 202 l97 0 l-166 -202 l-65 0 Z" /><glyph glyph-name="uni030B" unicode="&#x30b;" d="M87 552 l72 202 l81 0 l-103 -202 l-50 0 ZM-45 552 l71 202 l82 0 l-103 -202 l-50 0 Z" /><glyph glyph-name="uni0302" unicode="&#x302;" d="M-105 552 l132 202 l84 0 l88 -202 l-60 0 l-74 144 l-108 -144 l-62 0 Z" /><glyph glyph-name="uni030C" unicode="&#x30c;" d="M16 552 l-88 202 l60 0 l74 -144 l108 144 l61 0 l-131 -202 l-84 0 Z" /><glyph glyph-name="uni0306" unicode="&#x306;" d="M63 549 q-46 0 -79 23.5 q-33 23.5 -50 66 q-17 42.5 -14 101.5 l56 6 q-3 -66 21 -101.5 q24 -35.5 69 -35.5 q45 0 74.5 35.5 q29.5 35.5 38.5 101.5 l55 -6 q-7 -59 -30 -101.5 q-23 -42.5 -59 -66 q-36 -23.5 -82 -23.5 Z" /><glyph glyph-name="uni030A" unicode="&#x30a;" d="M67 546 q-33 0 -60.5 16 q-27.5 16 -43.5 42.5 q-16 26.5 -16 59.5 q0 33 16 59 q16 26 43.5 42 q27.5 16 60.5 16 q35 0 62 -16 q27 -16 42.5 -42 q15.5 -26 15.5 -60 q0 -32 -15.5 -58.5 q-15.5 -26.5 -42.5 -42.5 q-27 -16 -62 -16 ZM67 593 q32 0 51.5 20.5 q19.5 20.5 19.5 49.5 q0 31 -19.5 51 q-19.5 20 -51.5 20 q-30 0 -50 -20 q-20 -20 -20 -50 q0 -31 19.5 -51 q19.5 -20 50.5 -20 Z" /><glyph glyph-name="tildecomb" unicode="&#x303;" d="M-79 589 l-50 3 q10 65 41 101 q31 36 78 36 q26 0 44.5 -13 q18.5 -13 33.5 -28 q14 -13 28 -23 q14 -10 31 -10 q51 0 69 77 l49 -3 q-10 -66 -41 -101.5 q-31 -35.5 -76 -35.5 q-27 0 -46 13 q-19 13 -34 28 q-14 12 -28 22 q-14 10 -31 10 q-50 0 -68 -76 Z" /><glyph glyph-name="uni0304" unicode="&#x304;" d="M-92 623 l9 59 l301 0 l-9 -59 l-301 0 Z" /><glyph glyph-name="hookabovecomb" unicode="&#x309;" d="M30 552 l3 21 q3 22 14 36.5 q11 14.5 24 26.5 q13 12 23 22.5 q10 10.5 10 25.5 q0 12 -11 18.5 q-11 6.5 -32 6.5 q-16 0 -31.5 -3.5 q-15.5 -3.5 -33.5 -12.5 l-11 45 q21 12 45.5 17 q24.5 5 52.5 5 q45 0 69.5 -16.5 q24.5 -16.5 24.5 -46.5 q0 -27 -11.5 -43 q-11.5 -16 -27 -27 q-15.5 -11 -28.5 -24 q-13 -13 -18 -35 l-3 -16 l-59 0 Z" /><glyph glyph-name="uni030F" unicode="&#x30f;" d="M104 552 l-67 202 l81 0 l36 -202 l-50 0 ZM-29 552 l-66 202 l80 0 l37 -202 l-51 0 Z" /><glyph glyph-name="uni0311" unicode="&#x311;" d="M-54 549 l-55 6 q7 59 30.5 101.5 q23.5 42.5 59 66 q35.5 23.5 81.5 23.5 q46 0 79 -23.5 q33 -23.5 50 -66 q17 -42.5 14 -101.5 l-56 -6 q3 66 -20.5 101.5 q-23.5 35.5 -69.5 35.5 q-44 0 -74 -35.5 q-30 -35.5 -39 -101.5 Z" /><glyph glyph-name="uni0312" unicode="&#x312;" d="M-4 566 l11 70 q7 40 22.5 69.5 q15.5 29.5 49.5 52.5 l31 -30 q-26 -21 -34.5 -40.5 q-8.5 -19.5 -13.5 -45.5 l-20 11 l75 0 l-15 -87 l-106 0 Z" /><glyph glyph-name="uni031B" unicode="&#x31b;" d="M79 434 l-46 31 l4 22 q41 1 65.5 12.5 q24.5 11.5 37.5 36 q13 24.5 20 63.5 l2 17 l82 0 l-6 -35 q-10 -66 -51 -104.5 q-41 -38.5 -108 -42.5 Z" /><glyph glyph-name="dotbelowcomb" unicode="&#x323;" d="M-120 -191 l16 94 l98 0 l-15 -94 l-99 0 Z" /><glyph glyph-name="uni0324" unicode="&#x324;" d="M-27 -183 l14 91 l93 0 l-15 -91 l-92 0 ZM-205 -183 l15 91 l93 0 l-15 -91 l-93 0 Z" /><glyph glyph-name="uni0326" unicode="&#x326;" d="M-85 -270 l-31 30 q27 21 35.5 40.5 q8.5 19.5 12.5 46.5 l20 -12 l-74 0 l14 87 l106 0 l-12 -70 q-6 -40 -21.5 -69.5 q-15.5 -29.5 -49.5 -52.5 Z" /><glyph glyph-name="uni0327" unicode="&#x327;" d="M-67 -193 q-26 0 -50 5.5 q-24 5.5 -40 14.5 l18 47 q18 -9 34.5 -13 q16.5 -4 38.5 -4 q27 0 44 9.5 q17 9.5 17 28.5 q0 11 -9 17.5 q-9 6.5 -26 6.5 q-10 0 -20.5 -1.5 q-10.5 -1.5 -26.5 -5.5 l-15 16 l29 92 l55 0 l-25 -76 l-26 8 q13 3 24.5 5 q11.5 2 21.5 2 q35 0 56.5 -16 q21.5 -16 21.5 -47 q0 -40 -34.5 -64.5 q-34.5 -24.5 -87.5 -24.5 Z" /><glyph glyph-name="uni0328" unicode="&#x328;" d="M-83 -193 q-48 0 -74 25 q-26 25 -26 66 q0 47 31 83.5 q31 36.5 78 55.5 l26 -37 q-37 -15 -54.5 -39 q-17.5 -24 -17.5 -49 q0 -23 14 -37 q14 -14 39 -14 q13 0 26 3 q13 3 28 9 l10 -50 q-18 -7 -38 -11.5 q-20 -4.5 -42 -4.5 Z" /><glyph glyph-name="uni032E" unicode="&#x32e;" d="M-61 -215 q-69 0 -110 40.5 q-41 40.5 -36 110.5 l55 5 q-2 -46 23 -72 q25 -26 70 -26 q45 0 73.5 26 q28.5 26 36.5 72 l56 -5 q-9 -70 -54 -110.5 q-45 -40.5 -114 -40.5 Z" /><glyph glyph-name="uni0331" unicode="&#x331;" d="M-215 -158 l9 59 l301 0 l-9 -59 l-301 0 Z" /><glyph glyph-name="uni0335" unicode="&#x335;" d="M-144 527 l11 67 l374 0 l-11 -67 l-374 0 Z" /><glyph glyph-name="uni0337" unicode="&#x337;" d="M-113 254 l-31 67 l293 140 l32 -67 l-294 -140 Z" /><glyph glyph-name="uni0338" unicode="&#x338;" d="M115 -40 l-45 33 l395 538 l44 -32 l-394 -539 Z" /></font>
</defs>
</svg>
