<?xml version="1.0" standalone="no"?><!DOCTYPE svg PUBLIC "-//W3C//DTD SVG 1.1//EN" "http://www.w3.org/Graphics/SVG/1.1/DTD/svg11.dtd" ><svg xmlns="http://www.w3.org/2000/svg"><metadata></metadata><defs><font id="3.603;NONE;Mulish-Regular" horiz-adv-x="1340"><font-face font-family="Mulish" font-weight="400" font-stretch="normal" units-per-em="1000" panose-1="0 0 0 0 0 0 0 0 0 0" ascent="1005" descent="-250" x-height="0" bbox="-252 -270 1292 1043" underline-thickness="44" underline-position="-85" unicode-range="U+0000-fb02" /><missing-glyph horiz-adv-x="500"  /><glyph glyph-name="A" unicode="A" d="M18 0 l311 705 l72 0 l316 -705 l-86 0 l-88 201 l37 -21 l-431 0 l40 21 l-86 -201 l-85 0 ZM364 610 l-162 -380 l-24 18 l372 0 l-18 -18 l-166 380 l-2 0 Z" /><glyph glyph-name="AE" unicode="Æ" d="M-2 0 l431 705 l527 0 l0 -68 l-399 0 l21 22 l26 -289 l-17 22 l347 0 l0 -69 l-340 0 l13 10 l27 -288 l-12 24 l334 0 l0 -69 l-396 0 l-18 196 l26 -16 l-384 0 l28 22 l-122 -202 l-92 0 ZM471 636 l-243 -407 l-10 20 l331 0 l-9 -22 l-37 409 l-32 0 Z" /><glyph glyph-name="B" unicode="B" d="M88 0 l0 705 l282 0 q112 0 173 -48 q61 -48 61 -136 q0 -66 -39.5 -110 q-39.5 -44 -109.5 -58 l0 14 q78 -9 122.5 -53.5 q44.5 -44.5 44.5 -119.5 q0 -94 -62.5 -144 q-62.5 -50 -176.5 -50 l-295 0 ZM169 67 l206 0 q76 0 120.5 29.5 q44.5 29.5 44.5 98.5 q0 70 -44.5 99.5 q-44.5 29.5 -120.5 29.5 l-206 0 l0 -257 ZM169 390 l189 0 q82 0 123 32 q41 32 41 92 q0 62 -41 93.5 q-41 31.5 -123 31.5 l-189 0 l0 -249 Z" /><glyph glyph-name="uni0181" unicode="&#x181;" d="M217 0 l0 642 l-34 0 q-58 0 -85.5 -26.5 q-27.5 -26.5 -27.5 -81.5 l0 -45 l-71 0 l0 48 q0 84 47.5 126 q47.5 42 146.5 42 l306 0 q111 0 172 -48 q61 -48 61 -136 q0 -65 -39.5 -109.5 q-39.5 -44.5 -108.5 -58.5 l0 14 q79 -9 122.5 -54 q43.5 -45 43.5 -119 q0 -94 -62.5 -144 q-62.5 -50 -176.5 -50 l-294 0 ZM297 67 l206 0 q83 0 124.5 31.5 q41.5 31.5 41.5 96.5 q0 65 -41 97 q-41 32 -124 32 l-207 0 l0 -257 ZM297 390 l190 0 q81 0 122 32 q41 32 41 92 q0 62 -41 93.5 q-41 31.5 -122 31.5 l-190 0 l0 -249 Z" /><glyph glyph-name="C" unicode="C" d="M395 -9 q-106 0 -180 44 q-74 44 -113.5 125 q-39.5 81 -39.5 193 q0 112 39.5 192.5 q39.5 80.5 113.5 124.5 q74 44 180 44 q75 0 134 -23 q59 -23 103 -67 l-31 -66 q-48 42 -95 61.5 q-47 19.5 -110 19.5 q-121 0 -184 -75 q-63 -75 -63 -211 q0 -136 63 -211.5 q63 -75.5 184 -75.5 q63 0 110 19.5 q47 19.5 95 62.5 l31 -67 q-44 -43 -103 -66.5 q-59 -23.5 -134 -23.5 Z" /><glyph glyph-name="D" unicode="D" d="M88 0 l0 705 l234 0 q117 0 198 -40.5 q81 -40.5 123 -119 q42 -78.5 42 -192.5 q0 -113 -42 -192 q-42 -79 -123 -120 q-81 -41 -198 -41 l-234 0 ZM171 71 l145 0 q144 0 214 70.5 q70 70.5 70 211.5 q0 142 -70 212 q-70 70 -214 70 l-145 0 l0 -564 Z" /><glyph glyph-name="uni018A" unicode="&#x18a;" d="M217 0 l0 642 l-34 0 q-58 0 -85.5 -26.5 q-27.5 -26.5 -27.5 -81.5 l0 -45 l-71 0 l0 48 q0 84 46.5 126 q46.5 42 140.5 42 l265 0 q175 0 269 -90 q94 -90 94 -262 q0 -172 -94 -262.5 q-94 -90.5 -269 -90.5 l-234 0 ZM300 71 l144 0 q144 0 214.5 70.5 q70.5 70.5 70.5 211.5 q0 142 -70.5 212 q-70.5 70 -214.5 70 l-144 0 l0 -564 Z" /><glyph glyph-name="E" unicode="E" d="M88 0 l0 705 l450 0 l0 -68 l-369 0 l0 -245 l347 0 l0 -69 l-347 0 l0 -254 l369 0 l0 -69 l-450 0 Z" /><glyph glyph-name="F" unicode="F" d="M88 0 l0 705 l440 0 l0 -68 l-357 0 l0 -247 l335 0 l0 -68 l-335 0 l0 -322 l-83 0 Z" /><glyph glyph-name="G" unicode="G" d="M412 -9 q-116 0 -194 43 q-78 43 -117 124 q-39 81 -39 194 q0 112 41 193 q41 81 118 125 q77 44 186 44 q77 0 133.5 -22.5 q56.5 -22.5 101.5 -66.5 l-31 -65 q-33 29 -63.5 46 q-30.5 17 -63.5 25.5 q-33 8.5 -77 8.5 q-125 0 -191.5 -75.5 q-66.5 -75.5 -66.5 -213.5 q0 -139 64.5 -213 q64.5 -74 200.5 -74 q50 0 95.5 9.5 q45.5 9.5 88.5 27.5 l-18 -45 l0 248 l-180 0 l0 65 l251 0 l0 -327 q-43 -23 -108.5 -37 q-65.5 -14 -130.5 -14 Z" /><glyph glyph-name="H" unicode="H" d="M88 0 l0 705 l83 0 l0 -312 l425 0 l0 312 l82 0 l0 -705 l-82 0 l0 322 l-425 0 l0 -322 l-83 0 Z" /><glyph glyph-name="Hbar" unicode="&#x126;" d="M102 0 l0 519 l-93 0 l0 65 l93 0 l0 121 l83 0 l0 -121 l423 0 l0 121 l83 0 l0 -121 l93 0 l0 -65 l-93 0 l0 -519 l-83 0 l0 316 l-423 0 l0 -316 l-83 0 ZM185 388 l423 0 l0 131 l-423 0 l0 -131 Z" /><glyph glyph-name="I" unicode="I" d="M88 0 l0 705 l83 0 l0 -705 l-83 0 Z" /><glyph glyph-name="J" unicode="J" d="M79 -186 q-16 0 -36.5 1.5 q-20.5 1.5 -41.5 6.5 l0 69 q19 -4 35.5 -6.5 q16.5 -2.5 29.5 -2.5 q46 0 69 28.5 q23 28.5 23 90.5 l0 704 l83 0 l0 -705 q0 -60 -17.5 -102 q-17.5 -42 -53 -63 q-35.5 -21 -91.5 -21 Z" /><glyph glyph-name="K" unicode="K" d="M88 0 l0 705 l83 0 l0 -320 l2 0 l338 320 l106 0 l-389 -364 l1 42 l416 -383 l-109 0 l-363 332 l-2 0 l0 -332 l-83 0 Z" /><glyph glyph-name="L" unicode="L" d="M88 0 l0 705 l83 0 l0 -633 l356 0 l0 -72 l-439 0 Z" /><glyph glyph-name="M" unicode="M" d="M89 0 l0 705 l72 0 l283 -639 l-29 0 l283 639 l72 0 l0 -705 l-76 0 l0 598 l30 0 l-267 -598 l-55 0 l-268 598 l30 0 l0 -598 l-75 0 Z" /><glyph glyph-name="N" unicode="N" d="M88 0 l0 705 l65 0 l452 -600 l-23 0 l0 600 l77 0 l0 -705 l-64 0 l-452 600 l22 0 l0 -600 l-77 0 Z" /><glyph glyph-name="Eng" unicode="&#x14a;" d="M443 -193 l-6 63 l46 4 q48 3 73.5 31.5 q25.5 28.5 25.5 79.5 l0 53 l13 -38 l-452 600 l22 0 l0 -600 l-77 0 l0 705 l65 0 l452 -600 l-23 0 l0 600 l77 0 l0 -711 q0 -58 -18.5 -98 q-18.5 -40 -56.5 -61 q-38 -21 -96 -25 l-45 -3 Z" /><glyph glyph-name="O" unicode="O" d="M62 353 q0 112 38.5 192.5 q38.5 80.5 111 124.5 q72.5 44 174.5 44 q99 0 172 -44 q73 -44 112.5 -124.5 q39.5 -80.5 39.5 -191.5 q0 -112 -40 -193 q-40 -81 -112.5 -125.5 q-72.5 -44.5 -171.5 -44.5 q-102 0 -174 44.5 q-72 44.5 -111 125.5 q-39 81 -39 192 ZM149 353 q0 -136 60 -212.5 q60 -76.5 177 -76.5 q112 0 174.5 76.5 q62.5 76.5 62.5 212.5 q0 137 -62 212.5 q-62 75.5 -175 75.5 q-117 0 -177 -75.5 q-60 -75.5 -60 -212.5 Z" /><glyph glyph-name="Oslash" unicode="Ø" d="M62 353 q0 112 38.5 192.5 q38.5 80.5 111 124.5 q72.5 44 174.5 44 q99 0 172 -44 q73 -44 112.5 -124.5 q39.5 -80.5 39.5 -191.5 q0 -112 -40 -193 q-40 -81 -112.5 -125.5 q-72.5 -44.5 -171.5 -44.5 q-102 0 -174 44.5 q-72 44.5 -111 125.5 q-39 81 -39 192 ZM149 353 q0 -136 60 -212.5 q60 -76.5 177 -76.5 q112 0 174.5 76.5 q62.5 76.5 62.5 212.5 q0 137 -62 212.5 q-62 75.5 -175 75.5 q-117 0 -177 -75.5 q-60 -75.5 -60 -212.5 ZM247 46 l-54 -93 l-56 33 l54 93 l26 37 l296 507 l17 37 l54 92 l56 -33 l-54 -93 l-26 -36 l-296 -508 l-17 -36 Z" /><glyph glyph-name="OE" unicode="&#x152;" d="M559 0 l0 705 l447 0 l0 -68 l-366 0 l0 -245 l345 0 l0 -69 l-345 0 l0 -254 l366 0 l0 -69 l-447 0 ZM381 -9 q-100 0 -171.5 44.5 q-71.5 44.5 -109.5 125.5 q-38 81 -38 192 q0 112 37.5 192.5 q37.5 80.5 109 124.5 q71.5 44 172.5 44 q57 0 107 -13 q50 -13 86 -46 l0 -96 q-29 45 -77 63.5 q-48 18.5 -111 18.5 q-117 0 -177 -75.5 q-60 -75.5 -60 -212.5 q0 -136 60 -212.5 q60 -76.5 177 -76.5 q65 0 114 22 q49 22 78 69 l0 -95 q-24 -23 -55 -38 q-31 -15 -67 -23 q-36 -8 -75 -8 Z" /><glyph glyph-name="P" unicode="P" d="M88 0 l0 705 l287 0 q111 0 171 -53.5 q60 -53.5 60 -148.5 q0 -93 -60 -147.5 q-60 -54.5 -171 -54.5 l-204 0 l0 -301 l-83 0 ZM171 370 l196 0 q77 0 116.5 35 q39.5 35 39.5 98 q0 64 -39.5 99 q-39.5 35 -116.5 35 l-196 0 l0 -267 Z" /><glyph glyph-name="Thorn" unicode="Þ" d="M88 0 l0 705 l83 0 l0 -135 l202 0 q110 0 171.5 -53.5 q61.5 -53.5 61.5 -148.5 q0 -94 -61.5 -148 q-61.5 -54 -171.5 -54 l-202 0 l0 -166 l-83 0 ZM171 235 l196 0 q77 0 116.5 35 q39.5 35 39.5 98 q0 64 -39.5 99 q-39.5 35 -116.5 35 l-196 0 l0 -267 Z" /><glyph glyph-name="Q" unicode="Q" d="M576 -191 q-29 19 -60 49 q-31 30 -58.5 67 q-27.5 37 -47.5 74 l73 27 q26 -52 67 -94.5 q41 -42.5 83 -73.5 l-57 -49 ZM62 353 q0 112 38.5 192.5 q38.5 80.5 111 124.5 q72.5 44 174.5 44 q99 0 172 -44 q73 -44 112.5 -124.5 q39.5 -80.5 39.5 -191.5 q0 -112 -40 -193 q-40 -81 -112.5 -125.5 q-72.5 -44.5 -171.5 -44.5 q-102 0 -174 44.5 q-72 44.5 -111 125.5 q-39 81 -39 192 ZM149 353 q0 -136 60 -212.5 q60 -76.5 177 -76.5 q112 0 174.5 76.5 q62.5 76.5 62.5 212.5 q0 137 -62 212.5 q-62 75.5 -175 75.5 q-117 0 -177 -75.5 q-60 -75.5 -60 -212.5 Z" /><glyph glyph-name="R" unicode="R" d="M88 0 l0 705 l288 0 q111 0 172 -52.5 q61 -52.5 61 -146.5 q0 -62 -27.5 -105.5 q-27.5 -43.5 -77 -66.5 q-49.5 -23 -115.5 -23 l18 13 l20 0 q41 0 73.5 -20 q32.5 -20 51.5 -67 l100 -237 l-91 0 l-96 233 q-17 45 -51 58.5 q-34 13.5 -85 13.5 l-158 0 l0 -305 l-83 0 ZM171 370 l193 0 q80 0 121.5 34.5 q41.5 34.5 41.5 99.5 q0 65 -41.5 99 q-41.5 34 -121.5 34 l-193 0 l0 -267 Z" /><glyph glyph-name="S" unicode="S" d="M318 -9 q-85 0 -152 22 q-67 22 -117 63 l30 66 q35 -26 70.5 -43.5 q35.5 -17.5 76.5 -26 q41 -8.5 92 -8.5 q89 0 132 33 q43 33 43 88 q0 47 -30 72 q-30 25 -105 40 l-105 21 q-97 20 -144.5 65 q-47.5 45 -47.5 122 q0 63 32.5 110 q32.5 47 91.5 73 q59 26 137 26 q75 0 137 -22.5 q62 -22.5 106 -65.5 l-29 -64 q-47 42 -98.5 60.5 q-51.5 18.5 -116.5 18.5 q-82 0 -129.5 -35.5 q-47.5 -35.5 -47.5 -96.5 q0 -49 30 -76.5 q30 -27.5 99 -41.5 l106 -21 q102 -21 150 -63 q48 -42 48 -118 q0 -58 -31.5 -103 q-31.5 -45 -89.5 -70 q-58 -25 -138 -25 Z" /><glyph glyph-name="uni1E9E" unicode="&#x1e9e;" d="M409 -9 q-58 0 -103.5 15.5 q-45.5 15.5 -83.5 47.5 l31 62 q36 -31 70 -43 q34 -12 80 -12 q74 0 112.5 34.5 q38.5 34.5 38.5 96.5 q0 63 -41 95.5 q-41 32.5 -127 32.5 l-125 0 l0 68 l100 0 q73 0 113.5 33 q40.5 33 40.5 95 q0 63 -39 95.5 q-39 32.5 -121 32.5 q-102 0 -144 -46 q-42 -46 -42 -139 l0 -459 l-81 0 l0 461 q0 125 66.5 189 q66.5 64 204.5 64 q116 0 177 -49.5 q61 -49.5 61 -137.5 q0 -65 -36 -112 q-36 -47 -98 -62 l0 16 q79 -9 126 -56.5 q47 -47.5 47 -124.5 q0 -94 -59.5 -145.5 q-59.5 -51.5 -167.5 -51.5 Z" /><glyph glyph-name="uni018F" unicode="&#x18f;" d="M372 -9 q-110 0 -178.5 45 q-68.5 45 -100 126.5 q-31.5 81.5 -31.5 190.5 l0 36 l556 0 l0 -68 l-494 0 l22 32 q0 -95 21.5 -159.5 q21.5 -64.5 70.5 -97.5 q49 -33 132 -33 q112 0 172.5 75.5 q60.5 75.5 60.5 215.5 q0 138 -64.5 212.5 q-64.5 74.5 -191.5 74.5 q-48 0 -86 -8.5 q-38 -8.5 -71 -26.5 q-33 -18 -67 -47 l-33 65 q50 44 113.5 67 q63.5 23 151.5 23 q105 0 179.5 -43.5 q74.5 -43.5 114 -124 q39.5 -80.5 39.5 -192.5 q0 -112 -38 -193.5 q-38 -81.5 -109 -125.5 q-71 -44 -169 -44 Z" /><glyph glyph-name="T" unicode="T" d="M259 0 l0 635 l-249 0 l0 70 l580 0 l0 -70 l-248 0 l0 -635 l-83 0 Z" /><glyph glyph-name="U" unicode="U" d="M366 -9 q-143 0 -212.5 73 q-69.5 73 -69.5 215 l0 426 l82 0 l0 -422 q0 -109 48 -164 q48 -55 152 -55 q98 0 149 55 q51 55 51 164 l0 422 l82 0 l0 -426 q0 -142 -71.5 -215 q-71.5 -73 -210.5 -73 Z" /><glyph glyph-name="V" unicode="V" d="M310 0 l-307 705 l89 0 l273 -639 l-31 0 l275 639 l86 0 l-309 -705 l-76 0 Z" /><glyph glyph-name="W" unicode="W" d="M280 0 l-246 705 l87 0 l215 -635 l-35 0 l226 635 l66 0 l214 -635 l-32 0 l221 635 l82 0 l-248 -705 l-74 0 l-208 611 l21 0 l-217 -611 l-72 0 Z" /><glyph glyph-name="X" unicode="X" d="M9 0 l281 376 l0 -31 l-268 360 l98 0 l220 -301 l-26 0 l218 301 l99 0 l-269 -360 l0 31 l281 -376 l-98 0 l-235 319 l32 0 l-235 -319 l-98 0 Z" /><glyph glyph-name="Y" unicode="Y" d="M262 0 l0 329 l18 -56 l-292 432 l96 0 l232 -351 l-21 0 l231 351 l92 0 l-291 -432 l18 56 l0 -329 l-83 0 Z" /><glyph glyph-name="uni01B3" unicode="&#x1b3;" d="M262 0 l0 365 l18 -57 l-292 397 l96 0 l232 -315 l-21 0 l173 243 q29 42 65.5 61 q36.5 19 82.5 19 q17 0 31.5 -2 q14.5 -2 27.5 -7 l0 -62 q-10 4 -22 6 q-12 2 -27 2 q-26 0 -48.5 -11.5 q-22.5 -11.5 -42.5 -38.5 l-208 -292 l18 57 l0 -365 l-83 0 Z" /><glyph glyph-name="Z" unicode="Z" d="M43 0 l0 61 l427 605 l0 -32 l-427 0 l0 71 l506 0 l0 -61 l-428 -604 l0 31 l439 0 l0 -71 l-517 0 Z" /><glyph glyph-name="a" unicode="a" d="M270 -9 q-67 0 -117 31.5 q-50 31.5 -77.5 89.5 q-27.5 58 -27.5 139 q0 82 27.5 140 q27.5 58 77.5 89 q50 31 117 31 q68 0 117.5 -34.5 q49.5 -34.5 65.5 -93.5 l-12 0 l11 119 l78 0 q-3 -29 -5.5 -58.5 q-2.5 -29.5 -2.5 -57.5 l0 -386 l-81 0 l0 118 l11 0 q-16 -59 -66 -93 q-50 -34 -116 -34 ZM286 57 q72 0 114 49.5 q42 49.5 42 144.5 q0 96 -42 145.5 q-42 49.5 -114 49.5 q-71 0 -113.5 -49.5 q-42.5 -49.5 -42.5 -145.5 q0 -95 42.5 -144.5 q42.5 -49.5 113.5 -49.5 Z" /><glyph glyph-name="ae" unicode="æ" d="M240 -9 q-53 0 -94 20.5 q-41 20.5 -64 55.5 q-23 35 -23 78 q0 58 27 91.5 q27 33.5 90.5 47.5 q63.5 14 174.5 14 l51 0 l0 -51 l-50 0 q-84 0 -131 -9 q-47 -9 -66 -30 q-19 -21 -19 -59 q0 -43 30.5 -70 q30.5 -27 83.5 -27 q42 0 74 19.5 q32 19.5 50.5 54 q18.5 34.5 18.5 80.5 l0 120 q0 64 -28.5 92 q-28.5 28 -87.5 28 q-46 0 -86.5 -12 q-40.5 -12 -82.5 -40 l-28 60 q39 27 91.5 42 q52.5 15 106.5 15 q77 0 120.5 -31.5 q43.5 -31.5 57.5 -93.5 l-25 0 q30 61 79.5 93 q49.5 32 117.5 32 q97 0 153 -63 q56 -63 56 -174 l0 -27 l-377 0 l0 51 l323 0 l-17 -15 q0 79 -36 123.5 q-36 44.5 -104 44.5 q-71 0 -112.5 -47 q-41.5 -47 -41.5 -136 l0 -8 q0 -97 43.5 -150 q43.5 -53 127.5 -53 q43 0 82.5 14 q39.5 14 75.5 44 l29 -57 q-34 -32 -85 -49.5 q-51 -17.5 -104 -17.5 q-89 0 -146.5 40.5 q-57.5 40.5 -79.5 116.5 l21 0 q-15 -73 -67 -115 q-52 -42 -129 -42 Z" /><glyph glyph-name="b" unicode="b" d="M331 -9 q-68 0 -117 34.5 q-49 34.5 -66 94.5 l11 0 l0 -120 l-80 0 l0 736 l81 0 l0 -351 l-12 0 q17 58 66 92 q49 34 117 34 q68 0 117.5 -31.5 q49.5 -31.5 77 -89.5 q27.5 -58 27.5 -139 q0 -81 -28 -139 q-28 -58 -77.5 -89.5 q-49.5 -31.5 -116.5 -31.5 ZM314 57 q71 0 114 49 q43 49 43 145 q0 96 -43 145.5 q-43 49.5 -114 49.5 q-71 0 -113.5 -49.5 q-42.5 -49.5 -42.5 -145.5 q0 -95 42.5 -144.5 q42.5 -49.5 113.5 -49.5 Z" /><glyph glyph-name="uni0253" unicode="&#x253;" d="M332 -9 q-68 0 -117.5 34.5 q-49.5 34.5 -66.5 94.5 l11 0 l0 -120 l-80 0 l0 575 q0 82 44 126 q44 44 127 44 q15 0 29.5 -2 q14.5 -2 27.5 -6 l-10 -64 q-13 4 -21 5 q-8 1 -19 1 q-48 0 -72.5 -26.5 q-24.5 -26.5 -24.5 -77.5 l0 -190 l-12 0 q17 58 66.5 92 q49.5 34 117.5 34 q67 0 116.5 -31 q49.5 -31 77 -89 q27.5 -58 27.5 -140 q0 -81 -27.5 -139 q-27.5 -58 -77 -89.5 q-49.5 -31.5 -116.5 -31.5 ZM315 57 q71 0 113.5 49.5 q42.5 49.5 42.5 144.5 q0 96 -42.5 145.5 q-42.5 49.5 -113.5 49.5 q-71 0 -114 -49.5 q-43 -49.5 -43 -145.5 q0 -95 43 -144.5 q43 -49.5 114 -49.5 Z" /><glyph glyph-name="c" unicode="c" d="M290 -9 q-74 0 -128.5 32 q-54.5 32 -84 91 q-29.5 59 -29.5 140 q0 82 30 139.5 q30 57.5 84.5 87.5 q54.5 30 127.5 30 q48 0 93.5 -17 q45.5 -17 75.5 -48 l-29 -58 q-30 29 -65.5 43 q-35.5 14 -69.5 14 q-78 0 -121 -49 q-43 -49 -43 -143 q0 -93 43 -144 q43 -51 121 -51 q33 0 68.5 13 q35.5 13 66.5 43 l29 -57 q-31 -32 -77 -49 q-46 -17 -92 -17 Z" /><glyph glyph-name="d" unicode="d" d="M269 -9 q-66 0 -116 31.5 q-50 31.5 -77.5 89.5 q-27.5 58 -27.5 139 q0 82 27.5 140 q27.5 58 77.5 89 q50 31 116 31 q68 0 117.5 -34 q49.5 -34 66.5 -92 l-12 0 l0 351 l81 0 l0 -736 l-80 0 l0 120 l11 0 q-16 -60 -66 -94.5 q-50 -34.5 -118 -34.5 ZM286 57 q71 0 114 49.5 q43 49.5 43 144.5 q0 96 -43 145.5 q-43 49.5 -114 49.5 q-71 0 -113.5 -49.5 q-42.5 -49.5 -42.5 -145.5 q0 -95 42.5 -144.5 q42.5 -49.5 113.5 -49.5 Z" /><glyph glyph-name="eth" unicode="ð" d="M285 -9 q-71 0 -124.5 29.5 q-53.5 29.5 -83 82 q-29.5 52.5 -29.5 123.5 q0 70 29 122.5 q29 52.5 82 81.5 q53 29 122 29 q76 0 124.5 -38 q48.5 -38 68.5 -116 l-23 0 q1 88 -34 166.5 q-35 78.5 -104 134.5 l20 -3 l-197 -83 l-19 45 l172 72 l-2 -13 q-30 21 -66 37.5 q-36 16.5 -77 26.5 l17 55 q59 -13 108 -35.5 q49 -22.5 89 -51.5 l-19 3 l117 49 l19 -44 l-98 -42 l3 16 q51 -44 83.5 -101 q32.5 -57 48.5 -121.5 q16 -64.5 16 -135.5 q0 -93 -28 -157.5 q-28 -64.5 -82 -98 q-54 -33.5 -133 -33.5 ZM286 57 q73 0 115 45 q42 45 42 123 q0 78 -41.5 123 q-41.5 45 -115.5 45 q-72 0 -114 -44.5 q-42 -44.5 -42 -123.5 q0 -79 41.5 -123.5 q41.5 -44.5 114.5 -44.5 Z" /><glyph glyph-name="dcroat" unicode="&#x111;" d="M269 -9 q-66 0 -116 31 q-50 31 -77.5 88.5 q-27.5 57.5 -27.5 137.5 q0 80 27.5 137 q27.5 57 77.5 88 q50 31 116 31 q67 0 116.5 -34 q49.5 -34 65.5 -92 l-11 0 l0 204 l-193 0 l0 61 l193 0 l0 93 l81 0 l0 -93 l95 0 l0 -61 l-95 0 l0 -582 l-80 0 l0 119 l11 0 q-17 -59 -66 -93.5 q-49 -34.5 -117 -34.5 ZM286 57 q70 0 113 48.5 q43 48.5 43 142.5 q0 93 -43 141.5 q-43 48.5 -113 48.5 q-71 0 -113.5 -48.5 q-42.5 -48.5 -42.5 -141.5 q0 -94 42.5 -142.5 q42.5 -48.5 113.5 -48.5 Z" /><glyph glyph-name="uni0257" unicode="&#x257;" d="M269 -9 q-67 0 -116.5 31.5 q-49.5 31.5 -77 89.5 q-27.5 58 -27.5 139 q0 82 27.5 140 q27.5 58 77 89 q49.5 31 116.5 31 q68 0 117.5 -34 q49.5 -34 65.5 -92 l-11 0 l0 191 q0 54 19 91.5 q19 37.5 57.5 57.5 q38.5 20 94.5 20 q16 0 30.5 -2 q14.5 -2 26.5 -6 l-10 -64 q-13 4 -21.5 5 q-8.5 1 -18.5 1 q-47 0 -72 -26 q-25 -26 -25 -78 l0 -575 l-80 0 l0 120 l11 0 q-17 -60 -66 -94.5 q-49 -34.5 -118 -34.5 ZM286 57 q71 0 113.5 49.5 q42.5 49.5 42.5 144.5 q0 96 -42.5 145.5 q-42.5 49.5 -113.5 49.5 q-71 0 -113.5 -49.5 q-42.5 -49.5 -42.5 -145.5 q0 -95 42.5 -144.5 q42.5 -49.5 113.5 -49.5 Z" /><glyph glyph-name="e" unicode="e" d="M302 -9 q-118 0 -186 68.5 q-68 68.5 -68 190.5 q0 79 30 137.5 q30 58.5 84 91 q54 32.5 124 32.5 q69 0 116 -29 q47 -29 72 -82.5 q25 -53.5 25 -126.5 l0 -30 l-389 0 l0 51 l336 0 l-17 -13 q0 80 -36 125 q-36 45 -107 45 q-75 0 -117 -52.5 q-42 -52.5 -42 -141.5 l0 -9 q0 -94 46.5 -142.5 q46.5 -48.5 130.5 -48.5 q45 0 84.5 13.5 q39.5 13.5 75.5 44.5 l28 -57 q-33 -32 -83.5 -49.5 q-50.5 -17.5 -106.5 -17.5 Z" /><glyph glyph-name="uni0259" unicode="&#x259;" d="M258 -9 q-100 0 -156.5 62.5 q-56.5 62.5 -56.5 171.5 l0 33 l390 0 l0 -51 l-337 0 l17 15 q0 -81 37 -125.5 q37 -44.5 106 -44.5 q77 0 118.5 52 q41.5 52 41.5 136 l0 12 q0 96 -46.5 145 q-46.5 49 -133.5 49 q-42 0 -81.5 -13.5 q-39.5 -13.5 -76.5 -45.5 l-25 59 q33 32 84 48.5 q51 16.5 108 16.5 q77 0 133 -30.5 q56 -30.5 86.5 -88.5 q30.5 -58 30.5 -140 q0 -78 -30 -137 q-30 -59 -83.5 -91.5 q-53.5 -32.5 -125.5 -32.5 Z" /><glyph glyph-name="f" unicode="f" d="M105 0 l0 439 l-98 0 l0 63 l120 0 l-22 -21 l0 84 q0 85 43 130 q43 45 123 45 q20 0 41.5 -3.5 q21.5 -3.5 35.5 -9.5 l0 -67 q-12 5 -29.5 8.5 q-17.5 3.5 -35.5 3.5 q-31 0 -53 -12.5 q-22 -12.5 -33 -37.5 q-11 -25 -11 -64 l0 -73 l-13 17 l153 0 l0 -63 l-140 0 l0 -439 l-81 0 Z" /><glyph glyph-name="g" unicode="g" d="M300 -223 q-65 0 -120 16 q-55 16 -99 49 l24 61 q31 -22 61 -35 q30 -13 62 -19.5 q32 -6.5 68 -6.5 q74 0 112 39 q38 39 38 111 l0 147 l10 0 q-16 -59 -66 -93.5 q-50 -34.5 -117 -34.5 q-69 0 -119.5 30.5 q-50.5 30.5 -78 87 q-27.5 56.5 -27.5 133.5 q0 76 27.5 132 q27.5 56 78 86.5 q50.5 30.5 119.5 30.5 q68 0 117.5 -34 q49.5 -34 65.5 -94 l-10 10 l9 109 l79 0 q-4 -29 -6 -58.5 q-2 -29.5 -2 -57.5 l0 -383 q0 -112 -57.5 -169 q-57.5 -57 -168.5 -57 ZM288 77 q73 0 115 48.5 q42 48.5 42 136.5 q0 88 -42 136 q-42 48 -115 48 q-72 0 -115 -48 q-43 -48 -43 -136 q0 -88 43 -136.5 q43 -48.5 115 -48.5 Z" /><glyph glyph-name="uni01E5" unicode="&#x1e5;" d="M299 -223 q-65 0 -119.5 16 q-54.5 16 -98.5 49 l23 62 q31 -23 61 -37 q30 -14 62.5 -20.5 q32.5 -6.5 68.5 -6.5 q116 0 142 93 l8 -10 l-132 0 l0 46 l142 0 l-12 -13 q1 8 1.5 15.5 q0.5 7.5 0.5 16.5 l0 161 l10 0 q-16 -59 -66 -92.5 q-50 -33.5 -117 -33.5 q-69 0 -119.5 29.5 q-50.5 29.5 -78 84.5 q-27.5 55 -27.5 130 q0 75 27.5 130 q27.5 55 78 84.5 q50.5 29.5 119.5 29.5 q67 0 117 -33.5 q50 -33.5 66 -93.5 l-15 -1 l11 119 l78 0 q-3 -29 -5.5 -58.5 q-2.5 -29.5 -2.5 -57.5 l3 -383 q0 -11 -0.5 -22 q-0.5 -11 -2.5 -22 l-9 10 l82 0 l0 -46 l-88 0 l12 10 q-16 -77 -71.5 -116.5 q-55.5 -39.5 -148.5 -39.5 ZM288 88 q72 0 114.5 47 q42.5 47 42.5 132 q0 85 -42.5 132 q-42.5 47 -114.5 47 q-73 0 -115.5 -47 q-42.5 -47 -42.5 -132 q0 -86 42.5 -132.5 q42.5 -46.5 115.5 -46.5 Z" /><glyph glyph-name="h" unicode="h" d="M79 0 l0 736 l81 0 l0 -345 l-13 0 q21 59 70.5 89.5 q49.5 30.5 114.5 30.5 q90 0 134 -48.5 q44 -48.5 44 -146.5 l0 -316 l-81 0 l0 311 q0 70 -27.5 102 q-27.5 32 -88.5 32 q-70 0 -111.5 -43 q-41.5 -43 -41.5 -113 l0 -289 l-81 0 Z" /><glyph glyph-name="hbar" unicode="&#x127;" d="M79 0 l0 582 l-96 0 l0 61 l96 0 l0 93 l81 0 l0 -93 l199 0 l0 -61 l-199 0 l0 -195 l-13 0 q21 58 70.5 88.5 q49.5 30.5 114.5 30.5 q89 0 133.5 -48.5 q44.5 -48.5 44.5 -146.5 l0 -311 l-81 0 l0 306 q0 70 -28 101.5 q-28 31.5 -88 31.5 q-70 0 -111.5 -42 q-41.5 -42 -41.5 -113 l0 -284 l-81 0 Z" /><glyph glyph-name="i" unicode="i" d="M79 0 l0 502 l81 0 l0 -502 l-81 0 ZM69 616 l0 91 l100 0 l0 -91 l-100 0 Z" /><glyph glyph-name="dotlessi" unicode="&#x131;" d="M79 0 l0 502 l81 0 l0 -502 l-81 0 Z" /><glyph glyph-name="j" unicode="j" d="M13 -220 q-14 0 -35 3.5 q-21 3.5 -35 8.5 l0 68 q12 -4 28 -7.5 q16 -3.5 30 -3.5 q42 0 62.5 26.5 q20.5 26.5 20.5 86.5 l0 540 l81 0 l0 -548 q0 -86 -37.5 -130 q-37.5 -44 -114.5 -44 ZM75 616 l0 91 l99 0 l0 -91 l-99 0 Z" /><glyph glyph-name="uni0237" unicode="&#x237;" d="M14 -220 q-15 0 -35.5 3.5 q-20.5 3.5 -34.5 8.5 l0 68 q12 -4 28 -7.5 q16 -3.5 29 -3.5 q42 0 63 26.5 q21 26.5 21 86.5 l0 540 l81 0 l0 -548 q0 -86 -38 -130 q-38 -44 -114 -44 Z" /><glyph glyph-name="k" unicode="k" d="M79 0 l0 736 l81 0 l0 -457 l2 0 l233 223 l102 0 l-275 -262 l2 41 l299 -281 l-105 0 l-256 236 l-2 0 l0 -236 l-81 0 Z" /><glyph glyph-name="kgreenlandic" unicode="&#x138;" d="M79 0 l0 502 l81 0 l0 -223 l2 0 l233 223 l102 0 l-275 -262 l2 41 l299 -281 l-105 0 l-256 236 l-2 0 l0 -236 l-81 0 Z" /><glyph glyph-name="l" unicode="l" d="M79 0 l0 736 l81 0 l0 -736 l-81 0 Z" /><glyph glyph-name="m" unicode="m" d="M79 0 l0 386 q0 28 -2.5 57.5 q-2.5 29.5 -5.5 58.5 l78 0 l10 -110 l-12 0 q20 57 63.5 88 q43.5 31 105.5 31 q63 0 102.5 -30 q39.5 -30 53.5 -93 l-15 0 q19 57 67 90 q48 33 112 33 q83 0 125 -47.5 q42 -47.5 42 -149.5 l0 -314 l-81 0 l0 309 q0 71 -25 103.5 q-25 32.5 -80 32.5 q-63 0 -99.5 -43.5 q-36.5 -43.5 -36.5 -116.5 l0 -285 l-81 0 l0 309 q0 71 -25 103.5 q-25 32.5 -80 32.5 q-63 0 -99 -43.5 q-36 -43.5 -36 -116.5 l0 -285 l-81 0 Z" /><glyph glyph-name="n" unicode="n" d="M79 0 l0 386 q0 28 -2.5 57.5 q-2.5 29.5 -5.5 58.5 l78 0 l10 -110 l-12 0 q22 58 70.5 88.5 q48.5 30.5 112.5 30.5 q89 0 134.5 -47.5 q45.5 -47.5 45.5 -149.5 l0 -314 l-81 0 l0 309 q0 71 -28.5 103.5 q-28.5 32.5 -88.5 32.5 q-70 0 -111 -43 q-41 -43 -41 -115 l0 -287 l-81 0 Z" /><glyph glyph-name="eng" unicode="&#x14b;" d="M79 0 l0 386 q0 28 -2.5 57.5 q-2.5 29.5 -5.5 58.5 l78 0 l10 -110 l-12 0 q22 58 71 88.5 q49 30.5 113 30.5 q89 0 134 -47.5 q45 -47.5 45 -149.5 l0 -356 q0 -85 -41 -131.5 q-41 -46.5 -122 -46.5 q-19 0 -37 3.5 q-18 3.5 -33 8.5 l0 68 q13 -4 26 -7.5 q13 -3.5 31 -3.5 q47 0 71 29 q24 29 24 88 l0 343 q0 71 -28 103.5 q-28 32.5 -88 32.5 q-70 0 -111.5 -43 q-41.5 -43 -41.5 -115 l0 -287 l-81 0 Z" /><glyph glyph-name="o" unicode="o" d="M285 -9 q-72 0 -125.5 31.5 q-53.5 31.5 -82.5 90 q-29 58.5 -29 138.5 q0 81 29 139 q29 58 82.5 89.5 q53.5 31.5 125.5 31.5 q73 0 126.5 -31.5 q53.5 -31.5 83 -89.5 q29.5 -58 29.5 -139 q0 -80 -29.5 -138.5 q-29.5 -58.5 -83 -90 q-53.5 -31.5 -126.5 -31.5 ZM285 57 q72 0 114 49.5 q42 49.5 42 144.5 q0 96 -42.5 145.5 q-42.5 49.5 -113.5 49.5 q-71 0 -113 -49.5 q-42 -49.5 -42 -145.5 q0 -95 42 -144.5 q42 -49.5 113 -49.5 Z" /><glyph glyph-name="oslash" unicode="ø" d="M285 -9 q-72 0 -125.5 31.5 q-53.5 31.5 -82.5 90 q-29 58.5 -29 138.5 q0 81 29 139 q29 58 82.5 89.5 q53.5 31.5 125.5 31.5 q73 0 126.5 -31.5 q53.5 -31.5 83 -89.5 q29.5 -58 29.5 -139 q0 -80 -29.5 -138.5 q-29.5 -58.5 -83 -90 q-53.5 -31.5 -126.5 -31.5 ZM285 57 q75 0 118 50.5 q43 50.5 43 144.5 q0 93 -43 143.5 q-43 50.5 -118 50.5 q-75 0 -117.5 -50.5 q-42.5 -50.5 -42.5 -143.5 q0 -94 42.5 -144.5 q42.5 -50.5 117.5 -50.5 ZM147 -39 l-43 27 l322 554 l44 -27 l-323 -554 Z" /><glyph glyph-name="oe" unicode="&#x153;" d="M285 -9 q-72 0 -125.5 31.5 q-53.5 31.5 -82.5 90 q-29 58.5 -29 139.5 q0 80 29 138.5 q29 58.5 82.5 89.5 q53.5 31 125.5 31 q78 0 132.5 -39.5 q54.5 -39.5 77.5 -114.5 l-25 0 q25 74 80 114 q55 40 130 40 q98 0 153.5 -63 q55.5 -63 55.5 -174 l0 -30 l-385 0 l0 51 l332 0 l-18 -12 q0 79 -36 123.5 q-36 44.5 -104 44.5 q-73 0 -114 -52.5 q-41 -52.5 -41 -140.5 l0 -6 q0 -97 45 -146 q45 -49 130 -49 q42 0 80.5 14 q38.5 14 74.5 44 l29 -57 q-22 -22 -52.5 -37 q-30.5 -15 -64 -22.5 q-33.5 -7.5 -65.5 -7.5 q-89 0 -147.5 40 q-58.5 40 -82.5 115 l24 0 q-23 -75 -77 -115 q-54 -40 -132 -40 ZM286 57 q72 0 114 49.5 q42 49.5 42 144.5 q0 96 -42 145.5 q-42 49.5 -114 49.5 q-71 0 -113.5 -49.5 q-42.5 -49.5 -42.5 -145.5 q0 -95 42.5 -144.5 q42.5 -49.5 113.5 -49.5 Z" /><glyph glyph-name="p" unicode="p" d="M79 -216 l0 602 q0 28 -2.5 57.5 q-2.5 29.5 -5.5 58.5 l78 0 l11 -119 l-12 0 q16 59 65 93.5 q49 34.5 117 34.5 q68 0 117.5 -31 q49.5 -31 77.5 -89 q28 -58 28 -140 q0 -81 -27.5 -139 q-27.5 -58 -77.5 -89.5 q-50 -31.5 -118 -31.5 q-67 0 -116 34 q-49 34 -65 93 l11 0 l0 -334 l-81 0 ZM314 57 q72 0 114.5 49.5 q42.5 49.5 42.5 144.5 q0 96 -42.5 145.5 q-42.5 49.5 -114.5 49.5 q-71 0 -113.5 -49.5 q-42.5 -49.5 -42.5 -145.5 q0 -95 42.5 -144.5 q42.5 -49.5 113.5 -49.5 Z" /><glyph glyph-name="thorn" unicode="þ" d="M79 -216 l0 952 l81 0 l0 -353 l-12 0 q16 59 65.5 93.5 q49.5 34.5 117.5 34.5 q68 0 117.5 -31 q49.5 -31 77 -89 q27.5 -58 27.5 -140 q0 -81 -27.5 -139 q-27.5 -58 -77 -89.5 q-49.5 -31.5 -117.5 -31.5 q-68 0 -117 34 q-49 34 -65 93 l11 0 l0 -334 l-81 0 ZM315 57 q71 0 113.5 49.5 q42.5 49.5 42.5 144.5 q0 96 -42.5 145.5 q-42.5 49.5 -113.5 49.5 q-71 0 -114 -49.5 q-43 -49.5 -43 -145.5 q0 -95 43 -144.5 q43 -49.5 114 -49.5 Z" /><glyph glyph-name="q" unicode="q" d="M441 -216 l0 334 l11 0 q-16 -59 -66 -93 q-50 -34 -116 -34 q-67 0 -117 31.5 q-50 31.5 -77.5 89.5 q-27.5 58 -27.5 139 q0 82 27.5 140 q27.5 58 77.5 89 q50 31 117 31 q68 0 117.5 -34.5 q49.5 -34.5 65.5 -93.5 l-12 0 l11 119 l78 0 q-3 -29 -5.5 -58.5 q-2.5 -29.5 -2.5 -57.5 l0 -602 l-81 0 ZM286 57 q72 0 114 49.5 q42 49.5 42 144.5 q0 96 -42 145.5 q-42 49.5 -114 49.5 q-71 0 -113.5 -49.5 q-42.5 -49.5 -42.5 -145.5 q0 -95 42.5 -144.5 q42.5 -49.5 113.5 -49.5 Z" /><glyph glyph-name="r" unicode="r" d="M77 0 l0 381 q0 30 -1.5 61 q-1.5 31 -4.5 60 l78 0 l10 -122 l-14 -1 q10 45 35 74 q25 29 59 43.5 q34 14.5 71 14.5 q15 0 26.5 -1 q11.5 -1 21.5 -5 l-1 -72 q-15 5 -27.5 6.5 q-12.5 1.5 -28.5 1.5 q-44 0 -76.5 -21 q-32.5 -21 -49 -54 q-16.5 -33 -16.5 -70 l0 -296 l-82 0 Z" /><glyph glyph-name="s" unicode="s" d="M246 -9 q-60 0 -112 16.5 q-52 16.5 -86 46.5 l28 57 q37 -29 80.5 -43 q43.5 -14 90.5 -14 q60 0 90.5 21.5 q30.5 21.5 30.5 59.5 q0 29 -19.5 46.5 q-19.5 17.5 -63.5 27.5 l-93 19 q-64 14 -96 47.5 q-32 33.5 -32 85.5 q0 44 23 77.5 q23 33.5 67 53 q44 19.5 103 19.5 q55 0 101.5 -16.5 q46.5 -16.5 77.5 -47.5 l-29 -56 q-30 29 -68.5 43.5 q-38.5 14.5 -79.5 14.5 q-59 0 -88.5 -23.5 q-29.5 -23.5 -29.5 -61.5 q0 -29 18.5 -47.5 q18.5 -18.5 57.5 -27.5 l93 -19 q68 -15 101.5 -46.5 q33.5 -31.5 33.5 -84.5 q0 -45 -25 -78.5 q-25 -33.5 -69.5 -51.5 q-44.5 -18 -104.5 -18 Z" /><glyph glyph-name="germandbls" unicode="ß" d="M79 0 l0 493 q0 121 59.5 185 q59.5 64 178.5 64 q62 0 106.5 -20 q44.5 -20 68.5 -58 q24 -38 24 -91 q0 -66 -37.5 -118.5 q-37.5 -52.5 -135.5 -91.5 l0 16 q92 -25 149.5 -56.5 q57.5 -31.5 83.5 -72 q26 -40.5 26 -91.5 q0 -52 -24 -89.5 q-24 -37.5 -68 -58 q-44 -20.5 -104 -20.5 q-39 0 -71.5 7.5 q-32.5 7.5 -60 21 q-27.5 13.5 -50.5 33.5 l26 57 q38 -28 75 -42 q37 -14 81 -14 q56 0 86.5 26.5 q30.5 26.5 30.5 75.5 q0 36 -21 66.5 q-21 30.5 -74.5 58 q-53.5 27.5 -151.5 52.5 l0 65 q63 23 99 49.5 q36 26.5 50.5 57.5 q14.5 31 14.5 67 q0 48 -32 77 q-32 29 -90 29 q-82 0 -120 -44 q-38 -44 -38 -132 l0 -502 l-81 0 Z" /><glyph glyph-name="t" unicode="t" d="M257 -9 q-74 0 -113 42.5 q-39 42.5 -39 128.5 l0 277 l-98 0 l0 63 l98 0 l0 137 l81 23 l0 -160 l144 0 l0 -63 l-144 0 l0 -268 q0 -60 20.5 -85.5 q20.5 -25.5 61.5 -25.5 q19 0 34 3.5 q15 3.5 27 8.5 l0 -68 q-14 -6 -33.5 -9.5 q-19.5 -3.5 -38.5 -3.5 Z" /><glyph glyph-name="u" unicode="u" d="M256 -9 q-89 0 -134.5 49 q-45.5 49 -45.5 150 l0 312 l81 0 l0 -310 q0 -69 28 -101.5 q28 -32.5 87 -32.5 q66 0 106 43 q40 43 40 115 l0 286 l81 0 l0 -502 l-79 0 l0 113 l13 0 q-21 -58 -67.5 -90 q-46.5 -32 -109.5 -32 Z" /><glyph glyph-name="v" unicode="v" d="M227 0 l-215 502 l88 0 l180 -442 l-27 0 l182 442 l84 0 l-215 -502 l-77 0 Z" /><glyph glyph-name="w" unicode="w" d="M213 0 l-186 502 l86 0 l155 -442 l-26 0 l160 442 l70 0 l157 -442 l-25 0 l156 442 l82 0 l-187 -502 l-78 0 l-162 449 l40 0 l-163 -449 l-79 0 Z" /><glyph glyph-name="x" unicode="x" d="M11 0 l225 279 l0 -40 l-213 263 l98 0 l161 -205 l-29 0 l160 205 l97 0 l-210 -262 l0 37 l223 -277 l-99 0 l-172 219 l30 0 l-174 -219 l-97 0 Z" /><glyph glyph-name="y" unicode="y" d="M59 -227 l-19 67 q47 11 78.5 25.5 q31.5 14.5 52.5 38.5 q21 24 36 60 l26 59 l-2 -34 l-219 513 l88 0 l181 -441 l-26 0 l179 441 l85 0 l-232 -544 q-20 -48 -44 -80.5 q-24 -32.5 -51.5 -53 q-27.5 -20.5 -60.5 -32.5 q-33 -12 -72 -19 Z" /><glyph glyph-name="uni01B4" unicode="&#x1b4;" d="M59 -227 l-19 67 q47 11 78.5 25.5 q31.5 14.5 52.5 38.5 q21 24 36 60 l26 59 l-2 -34 l-219 513 l88 0 l181 -441 l-26 0 l138 339 q23 57 58 84 q35 27 93 27 q19 0 34 -2 q15 -2 27 -7 l-11 -63 q-9 4 -19.5 5 q-10.5 1 -18.5 1 q-33 0 -54.5 -17 q-21.5 -17 -42.5 -66 l-172 -404 q-20 -48 -44 -80.5 q-24 -32.5 -51.5 -53 q-27.5 -20.5 -60.5 -32.5 q-33 -12 -72 -19 Z" /><glyph glyph-name="z" unicode="z" d="M50 0 l0 54 l338 406 l1 -21 l-339 0 l0 63 l414 0 l0 -54 l-342 -408 l-1 23 l354 0 l0 -63 l-425 0 Z" /><glyph glyph-name="fi" unicode="&#xfb01;" d="M105 0 l0 439 l-98 0 l0 63 l120 0 l-22 -21 l0 84 q0 85 42.5 130 q42.5 45 121.5 45 q19 0 40.5 -3.5 q21.5 -3.5 36.5 -9.5 l0 -67 q-12 5 -29.5 8.5 q-17.5 3.5 -35.5 3.5 q-47 0 -71 -28 q-24 -28 -24 -86 l0 -73 l-13 17 l322 0 l0 -502 l-81 0 l0 439 l-228 0 l0 -439 l-81 0 ZM405 616 l0 91 l100 0 l0 -91 l-100 0 Z" /><glyph glyph-name="ordfeminine" unicode="ª" d="M133 411 q-47 0 -78 26 q-31 26 -31 64 q0 46 41.5 66 q41.5 20 113.5 20 l60 0 l0 -36 l-58 0 q-51 0 -75.5 -12 q-24.5 -12 -24.5 -37 q0 -20 15.5 -34.5 q15.5 -14.5 48.5 -14.5 q38 0 62 24.5 q24 24.5 24 68.5 l0 57 q0 33 -18 49.5 q-18 16.5 -54 16.5 q-27 0 -55 -7 q-28 -7 -51 -22 l-16 42 q25 16 58.5 24 q33.5 8 65.5 8 q126 0 126 -113 l0 -185 l-54 0 l0 54 l-2 0 q-17 -31 -40.5 -45 q-23.5 -14 -57.5 -14 Z" /><glyph glyph-name="ordmasculine" unicode="º" d="M171 411 q-43 0 -75.5 19 q-32.5 19 -52 53 q-19.5 34 -19.5 80 q0 46 19.5 80 q19.5 34 52 52.5 q32.5 18.5 75.5 18.5 q42 0 75 -18.5 q33 -18.5 52 -52.5 q19 -34 19 -80 q0 -46 -19 -80 q-19 -34 -51.5 -53 q-32.5 -19 -75.5 -19 ZM171 457 q41 0 64.5 27 q23.5 27 23.5 79 q0 51 -23.5 78 q-23.5 27 -64.5 27 q-41 0 -65 -26.5 q-24 -26.5 -24 -78.5 q0 -52 24 -79 q24 -27 65 -27 Z" /><glyph glyph-name="uni0411" unicode="&#x411;" d="M88 0 l0 705 l474 0 l0 -68 l-394 0 l0 -243 l223 0 q115 0 177.5 -49 q62.5 -49 62.5 -147 q0 -97 -62.5 -147.5 q-62.5 -50.5 -177.5 -50.5 l-303 0 ZM168 67 l216 0 q84 0 124.5 32.5 q40.5 32.5 40.5 98.5 q0 65 -40.5 96.5 q-40.5 31.5 -124.5 31.5 l-216 0 l0 -259 Z" /><glyph glyph-name="uni0413" unicode="&#x413;" d="M88 0 l0 705 l453 0 l0 -70 l-371 0 l0 -635 l-82 0 Z" /><glyph glyph-name="uni0490" unicode="&#x490;" d="M88 0 l0 705 l379 0 l0 155 l74 0 l0 -225 l-371 0 l0 -635 l-82 0 Z" /><glyph glyph-name="uni0414" unicode="&#x414;" d="M17 -157 l0 225 l72 0 q54 66 80 177.5 q26 111.5 26 277.5 l0 182 l481 0 l0 -637 l103 0 l0 -225 l-74 0 l0 157 l-614 0 l0 -157 l-74 0 ZM174 68 l419 0 l0 569 l-321 0 l0 -120 q0 -161 -24 -269.5 q-24 -108.5 -74 -179.5 Z" /><glyph glyph-name="uni0416" unicode="&#x416;" d="M11 0 l122 245 q33 64 78 99.5 q45 35.5 108 42.5 l-30 -26 l-239 344 l93 0 l226 -330 l-23 16 l112 0 l0 314 l81 0 l0 -314 l114 0 l-25 -16 l226 330 l92 0 l-238 -344 l-30 26 q63 -7 107.5 -42.5 q44.5 -35.5 76.5 -99.5 l123 -245 l-89 0 l-101 207 q-30 61 -69.5 87.5 q-39.5 26.5 -96.5 26.5 l-90 0 l0 -321 l-81 0 l0 321 l-90 0 q-59 0 -98.5 -26.5 q-39.5 -26.5 -68.5 -87.5 l-100 -207 l-90 0 Z" /><glyph glyph-name="uni0417" unicode="&#x417;" d="M320 -9 q-92 0 -163.5 24.5 q-71.5 24.5 -116.5 66.5 l30 64 q49 -42 108 -62.5 q59 -20.5 138 -20.5 q102 0 149 34 q47 34 47 100 q0 65 -41.5 95.5 q-41.5 30.5 -125.5 30.5 l-178 0 l0 68 l164 0 q80 0 122 31.5 q42 31.5 42 91.5 q0 60 -44.5 94 q-44.5 34 -133.5 34 q-66 0 -124 -19.5 q-58 -19.5 -106 -60.5 l-31 64 q47 43 117.5 65.5 q70.5 22.5 148.5 22.5 q126 0 190.5 -52 q64.5 -52 64.5 -140 q0 -65 -39.5 -109.5 q-39.5 -44.5 -107.5 -59.5 l0 14 q76 -9 120 -54.5 q44 -45.5 44 -119.5 q0 -62 -30 -107.5 q-30 -45.5 -91 -70 q-61 -24.5 -153 -24.5 Z" /><glyph glyph-name="uni0418" unicode="&#x418;" d="M88 0 l0 705 l77 0 l0 -603 l-23 0 l452 603 l65 0 l0 -705 l-77 0 l0 603 l22 0 l-453 -603 l-63 0 Z" /><glyph glyph-name="uni048A" unicode="&#x48a;" d="M617 -157 l54 157 l-89 0 l0 69 l184 0 l-78 -226 l-71 0 ZM88 0 l0 705 l77 0 l0 -603 l-23 0 l452 603 l65 0 l0 -705 l-77 0 l0 603 l22 0 l-453 -603 l-63 0 ZM375 760 q-45 0 -84 14.5 q-39 14.5 -67 43.5 q-28 29 -44 74 l48 17 q20 -50 56 -73.5 q36 -23.5 90 -23.5 q55 0 91 21.5 q36 21.5 62 74.5 l46 -16 q-28 -72 -80.5 -102 q-52.5 -30 -117.5 -30 Z" /><glyph glyph-name="uni041A" unicode="&#x41a;" d="M88 0 l0 705 l81 0 l0 -314 l144 0 l-25 -16 l226 330 l93 0 l-239 -344 l-30 26 q64 -7 108 -42.5 q44 -35.5 77 -99.5 l123 -245 l-90 0 l-101 207 q-29 62 -68.5 88 q-39.5 26 -97.5 26 l-120 0 l0 -321 l-81 0 Z" /><glyph glyph-name="uni041B" unicode="&#x41b;" d="M56 -15 l-39 65 q42 22 75 52.5 q33 30.5 55.5 79.5 q22.5 49 34 124.5 q11.5 75.5 11.5 186.5 l0 212 l481 0 l0 -705 l-82 0 l0 635 l-322 0 l0 -163 q0 -109 -14 -189.5 q-14 -80.5 -41.5 -138 q-27.5 -57.5 -67 -96 q-39.5 -38.5 -91.5 -63.5 Z" /><glyph glyph-name="uni041F" unicode="&#x41f;" d="M88 0 l0 705 l590 0 l0 -705 l-83 0 l0 635 l-426 0 l0 -635 l-81 0 Z" /><glyph glyph-name="uni0423" unicode="&#x423;" d="M204 0 l122 229 l1 -32 l-328 508 l90 0 l279 -434 l-18 0 l230 434 l86 0 l-375 -705 l-87 0 Z" /><glyph glyph-name="uni0424" unicode="&#x424;" d="M393 -22 l0 97 l22 -19 l-27 0 q-102 0 -175 37 q-73 37 -112 104.5 q-39 67.5 -39 160.5 q0 142 85.5 221.5 q85.5 79.5 240.5 79.5 l27 0 l-22 -18 l0 91 l82 0 l0 -91 l-22 18 l27 0 q156 0 241 -79.5 q85 -79.5 85 -221.5 q0 -93 -39 -160.5 q-39 -67.5 -112 -104.5 q-73 -37 -175 -37 l-27 0 l22 19 l0 -97 l-82 0 ZM393 105 l0 506 l20 -18 l-37 0 q-106 0 -167.5 -60.5 q-61.5 -60.5 -61.5 -174.5 q0 -73 28.5 -126 q28.5 -53 80 -81.5 q51.5 -28.5 120.5 -28.5 l37 0 l-20 -17 ZM475 105 l-20 17 l37 0 q69 0 121 28.5 q52 28.5 80 81.5 q28 53 28 126 q0 114 -61.5 174.5 q-61.5 60.5 -167.5 60.5 l-37 0 l20 18 l0 -506 Z" /><glyph glyph-name="uni0427" unicode="&#x427;" d="M522 0 l0 298 q-33 -17 -82 -26.5 q-49 -9.5 -99 -9.5 q-138 0 -210.5 72 q-72.5 72 -72.5 215 l0 156 l82 0 l0 -150 q0 -114 52 -167 q52 -53 156 -53 q47 0 91 9.5 q44 9.5 83 29.5 l0 331 l82 0 l0 -705 l-82 0 Z" /><glyph glyph-name="uni0426" unicode="&#x426;" d="M706 -157 l0 157 l-618 0 l0 705 l81 0 l0 -635 l426 0 l0 635 l83 0 l0 -635 l103 0 l0 -227 l-75 0 Z" /><glyph glyph-name="uni0428" unicode="&#x428;" d="M88 0 l0 705 l82 0 l0 -635 l330 0 l0 635 l82 0 l0 -635 l331 0 l0 635 l81 0 l0 -705 l-906 0 Z" /><glyph glyph-name="uni0429" unicode="&#x429;" d="M1023 -157 l0 157 l-935 0 l0 705 l82 0 l0 -635 l330 0 l0 635 l82 0 l0 -635 l331 0 l0 635 l81 0 l0 -635 l103 0 l0 -227 l-74 0 Z" /><glyph glyph-name="uni040F" unicode="&#x40f;" d="M345 -157 l0 157 l-257 0 l0 705 l82 0 l0 -635 l425 0 l0 635 l83 0 l0 -705 l-258 0 l0 -157 l-75 0 Z" /><glyph glyph-name="uni042C" unicode="&#x42c;" d="M88 0 l0 705 l82 0 l0 -311 l221 0 q115 0 177.5 -49 q62.5 -49 62.5 -147 q0 -97 -62.5 -147.5 q-62.5 -50.5 -177.5 -50.5 l-303 0 ZM170 67 l214 0 q84 0 124.5 32.5 q40.5 32.5 40.5 98.5 q0 65 -40.5 96.5 q-40.5 31.5 -124.5 31.5 l-214 0 l0 -259 Z" /><glyph glyph-name="uni042A" unicode="&#x42a;" d="M233 0 l0 635 l-223 0 l0 70 l305 0 l0 -311 l221 0 q114 0 177 -49 q63 -49 63 -147 q0 -97 -63 -147.5 q-63 -50.5 -177 -50.5 l-303 0 ZM315 67 l213 0 q85 0 125.5 32.5 q40.5 32.5 40.5 98.5 q0 65 -40.5 97 q-40.5 32 -125.5 32 l-213 0 l0 -260 Z" /><glyph glyph-name="uni042B" unicode="&#x42b;" d="M88 0 l0 705 l82 0 l0 -311 l190 0 q115 0 177.5 -49 q62.5 -49 62.5 -147 q0 -97 -62.5 -147.5 q-62.5 -50.5 -177.5 -50.5 l-272 0 ZM170 67 l183 0 q84 0 124.5 32.5 q40.5 32.5 40.5 98.5 q0 65 -40.5 97 q-40.5 32 -124.5 32 l-183 0 l0 -260 ZM703 0 l0 705 l83 0 l0 -705 l-83 0 Z" /><glyph glyph-name="uni0409" unicode="&#x409;" d="M56 -15 l-39 65 q42 22 75 52.5 q33 30.5 55.5 79.5 q22.5 49 34 124.5 q11.5 75.5 11.5 186.5 l0 212 l465 0 l0 -311 l221 0 q114 0 176.5 -49 q62.5 -49 62.5 -147 q0 -97 -62.5 -147.5 q-62.5 -50.5 -176.5 -50.5 l-303 0 l0 635 l-306 0 l0 -163 q0 -109 -14 -189.5 q-14 -80.5 -41.5 -138 q-27.5 -57.5 -67 -96 q-39.5 -38.5 -91.5 -63.5 ZM658 67 l213 0 q84 0 125 32.5 q41 32.5 41 98.5 q0 65 -41 97 q-41 32 -125 32 l-213 0 l0 -260 Z" /><glyph glyph-name="uni040A" unicode="&#x40a;" d="M88 0 l0 705 l81 0 l0 -312 l425 0 l0 312 l83 0 l0 -311 l220 0 q115 0 177.5 -49 q62.5 -49 62.5 -147 q0 -97 -62.5 -147.5 q-62.5 -50.5 -177.5 -50.5 l-303 0 l0 323 l-425 0 l0 -323 l-81 0 ZM677 67 l213 0 q84 0 124.5 32.5 q40.5 32.5 40.5 98.5 q0 65 -40.5 97 q-40.5 32 -124.5 32 l-213 0 l0 -260 Z" /><glyph glyph-name="uni0404" unicode="&#x404;" d="M397 -9 q-106 0 -181 44 q-75 44 -114.5 125 q-39.5 81 -39.5 193 q0 112 39.5 192.5 q39.5 80.5 114.5 124.5 q75 44 181 44 q75 0 136 -23.5 q61 -23.5 105 -67.5 l-31 -66 q-48 43 -97 62.5 q-49 19.5 -112 19.5 q-120 0 -183 -71.5 q-63 -71.5 -66 -199.5 l-26 25 l394 0 l0 -69 l-395 0 l26 19 q4 -132 67 -204.5 q63 -72.5 183 -72.5 q63 0 112 20 q49 20 97 63 l31 -67 q-44 -43 -105 -67 q-61 -24 -136 -24 Z" /><glyph glyph-name="uni042D" unicode="&#x42d;" d="M293 -9 q-75 0 -136 24 q-61 24 -105 67 l31 67 q48 -43 97 -63 q49 -20 112 -20 q120 0 183.5 72.5 q63.5 72.5 66.5 204.5 l26 -19 l-395 0 l0 69 l394 0 l-26 -25 q-3 128 -65.5 199.5 q-62.5 71.5 -181.5 71.5 q-63 0 -112 -19.5 q-49 -19.5 -99 -62.5 l-31 66 q45 44 106.5 67.5 q61.5 23.5 136.5 23.5 q106 0 180.5 -44 q74.5 -44 113.5 -124.5 q39 -80.5 39 -192.5 q0 -112 -39 -193 q-39 -81 -114 -125 q-75 -44 -182 -44 Z" /><glyph glyph-name="uni040B" unicode="&#x40b;" d="M259 0 l0 635 l-249 0 l0 70 l580 0 l0 -70 l-248 0 l0 -236 q32 18 81 27 q49 9 98 9 q140 0 212 -71.5 q72 -71.5 72 -215.5 l0 -148 l-82 0 l0 142 q0 115 -52.5 168 q-52.5 53 -156.5 53 q-46 0 -89.5 -8.5 q-43.5 -8.5 -82.5 -30.5 l0 -324 l-83 0 Z" /><glyph glyph-name="uni042E" unicode="&#x42e;" d="M655 -9 q-94 0 -164.5 40.5 q-70.5 40.5 -111 115 q-40.5 74.5 -47.5 175.5 l-162 0 l0 -322 l-82 0 l0 705 l82 0 l0 -312 l163 0 q8 99 49 171 q41 72 110.5 111 q69.5 39 162.5 39 q100 0 172.5 -44 q72.5 -44 112 -124.5 q39.5 -80.5 39.5 -192.5 q0 -111 -40 -192 q-40 -81 -112.5 -125.5 q-72.5 -44.5 -171.5 -44.5 ZM655 64 q113 0 175 76 q62 76 62 213 q0 137 -61.5 212.5 q-61.5 75.5 -175.5 75.5 q-113 0 -175.5 -75.5 q-62.5 -75.5 -62.5 -212.5 q0 -136 62.5 -212.5 q62.5 -76.5 175.5 -76.5 Z" /><glyph glyph-name="uni042F" unicode="&#x42f;" d="M38 0 l130 230 q25 44 55 64 q30 20 71 20 l25 0 l-5 -13 q-115 0 -179 53 q-64 53 -64 148 q0 98 62.5 150.5 q62.5 52.5 178.5 52.5 l288 0 l0 -705 l-82 0 l0 298 l-127 0 q-51 0 -81 -14.5 q-30 -14.5 -54 -58.5 l-126 -225 l-92 0 ZM324 363 l194 0 l0 275 l-194 0 q-172 0 -172 -137 q0 -138 172 -138 Z" /><glyph glyph-name="uni0402" unicode="&#x402;" d="M585 -189 q-34 0 -65.5 6 q-31.5 6 -53.5 15 l17 64 q20 -9 44 -13 q24 -4 51 -4 q67 0 102 42 q35 42 35 126 l0 95 q0 113 -51.5 166.5 q-51.5 53.5 -157.5 53.5 q-49 0 -89.5 -9.5 q-40.5 -9.5 -74.5 -28.5 l0 -324 l-83 0 l0 635 l-249 0 l0 70 l580 0 l0 -70 l-248 0 l0 -236 q29 17 75 26.5 q46 9.5 96 9.5 q141 0 213 -71.5 q72 -71.5 72 -215.5 l0 -99 q0 -77 -25.5 -130.5 q-25.5 -53.5 -73 -80.5 q-47.5 -27 -114.5 -27 Z" /><glyph glyph-name="uni0462" unicode="&#x462;" d="M159 0 l0 536 l-179 0 l0 65 l179 0 l0 104 l80 0 l0 -104 l246 0 l0 -65 l-246 0 l0 -142 l221 0 q114 0 176.5 -49 q62.5 -49 62.5 -147 q0 -97 -62.5 -147.5 q-62.5 -50.5 -176.5 -50.5 l-301 0 ZM239 67 l214 0 q84 0 124.5 32.5 q40.5 32.5 40.5 98.5 q0 65 -40.5 97 q-40.5 32 -124.5 32 l-214 0 l0 -260 Z" /><glyph glyph-name="uni046A" unicode="&#x46a;" d="M11 0 l123 246 q23 44 53.5 76 q30.5 32 75 50 q44.5 18 106.5 18 l61 0 l-6 -20 l-299 335 l730 0 l-299 -335 l-6 20 l61 0 q62 0 106.5 -18 q44.5 -18 75.5 -50 q31 -32 52 -76 l124 -246 l-89 0 l-102 207 q-29 61 -67 87.5 q-38 26.5 -97 26.5 l-83 0 l0 -321 l-82 0 l0 321 l-82 0 q-59 0 -97 -26.5 q-38 -26.5 -68 -87.5 l-102 -207 l-89 0 ZM489 392 l2 0 l248 282 l0 -30 l-499 0 l0 30 l249 -282 Z" /><glyph glyph-name="uni0474" unicode="&#x474;" d="M308 0 l-305 705 l89 0 l271 -639 l-31 0 l199 459 q23 53 47 89 q24 36 52 58 q28 22 65 32 q37 10 87 10 l8 -68 q-48 0 -79.5 -12.5 q-31.5 -12.5 -55.5 -44 q-24 -31.5 -50 -87.5 l-222 -502 l-75 0 Z" /><glyph glyph-name="uni0492" unicode="&#x492;" d="M126 0 l0 321 l-100 0 l0 63 l100 0 l0 321 l453 0 l0 -70 l-370 0 l0 -251 l190 0 l0 -63 l-190 0 l0 -321 l-83 0 Z" /><glyph glyph-name="uni0494" unicode="&#x494;" d="M416 -189 q-28 0 -56.5 4 q-28.5 4 -46.5 10 l0 70 q19 -8 43 -12.5 q24 -4.5 52 -4.5 q66 0 101.5 43 q35.5 43 35.5 127 l0 94 q0 114 -52 167 q-52 53 -159 53 q-48 0 -89 -9.5 q-41 -9.5 -76 -28.5 l0 -324 l-81 0 l0 705 l453 0 l0 -70 l-372 0 l0 -236 q30 17 76.5 26.5 q46.5 9.5 96.5 9.5 q141 0 213 -71.5 q72 -71.5 72 -215.5 l0 -97 q0 -77 -25.5 -131 q-25.5 -54 -72.5 -81.5 q-47 -27.5 -113 -27.5 Z" /><glyph glyph-name="uni0496" unicode="&#x496;" d="M966 -157 l0 157 l-49 0 l0 69 l123 0 l0 -226 l-74 0 ZM11 0 l122 245 q33 64 78 99.5 q45 35.5 108 42.5 l-30 -26 l-239 344 l93 0 l226 -330 l-23 16 l112 0 l0 314 l81 0 l0 -314 l114 0 l-25 -16 l226 330 l92 0 l-238 -344 l-30 26 q63 -7 107.5 -42.5 q44.5 -35.5 76.5 -99.5 l123 -245 l-89 0 l-101 207 q-30 61 -69.5 87.5 q-39.5 26.5 -96.5 26.5 l-90 0 l0 -321 l-81 0 l0 321 l-90 0 q-59 0 -98.5 -26.5 q-39.5 -26.5 -68.5 -87.5 l-100 -207 l-90 0 Z" /><glyph glyph-name="uni0498" unicode="&#x498;" d="M288 -157 l0 192 l74 0 l0 -192 l-74 0 ZM320 -9 q-92 0 -163.5 24.5 q-71.5 24.5 -116.5 66.5 l30 64 q49 -42 108 -62.5 q59 -20.5 138 -20.5 q102 0 149 34 q47 34 47 100 q0 65 -41.5 95.5 q-41.5 30.5 -125.5 30.5 l-178 0 l0 68 l164 0 q80 0 122 31.5 q42 31.5 42 91.5 q0 60 -44.5 94 q-44.5 34 -133.5 34 q-66 0 -124 -19.5 q-58 -19.5 -106 -60.5 l-31 64 q47 43 117.5 65.5 q70.5 22.5 148.5 22.5 q126 0 190.5 -52 q64.5 -52 64.5 -140 q0 -65 -39.5 -109.5 q-39.5 -44.5 -107.5 -59.5 l0 14 q76 -9 120 -54.5 q44 -45.5 44 -119.5 q0 -62 -30 -107.5 q-30 -45.5 -91 -70 q-61 -24.5 -153 -24.5 Z" /><glyph glyph-name="uni049A" unicode="&#x49a;" d="M624 -157 l0 157 l-49 0 l0 69 l123 0 l0 -226 l-74 0 ZM88 0 l0 705 l81 0 l0 -314 l144 0 l-25 -16 l226 330 l93 0 l-239 -344 l-30 26 q64 -7 108 -42.5 q44 -35.5 77 -99.5 l123 -245 l-90 0 l-101 207 q-29 62 -68.5 88 q-39.5 26 -97.5 26 l-120 0 l0 -321 l-81 0 Z" /><glyph glyph-name="uni049C" unicode="&#x49c;" d="M88 0 l0 705 l82 0 l0 -314 l75 0 l0 167 l54 0 l0 -167 l29 0 l215 314 l93 0 l-239 -344 l-30 26 q63 -7 108 -42.5 q45 -35.5 78 -99.5 l122 -245 l-90 0 l-100 207 q-30 62 -69.5 88 q-39.5 26 -97.5 26 l-30 0 l11 10 l0 -176 l-54 0 l0 166 l-75 0 l0 -321 l-82 0 Z" /><glyph glyph-name="uni049E" unicode="&#x49e;" d="M133 0 l0 541 l-146 0 l0 61 l146 0 l0 103 l81 0 l0 -103 l146 0 l0 -61 l-146 0 l0 -150 l153 0 l-28 -21 l231 335 l93 0 l-244 -349 l-23 28 q54 -7 96 -41 q42 -34 75 -98 l124 -245 l-90 0 l-101 207 q-30 62 -69 88 q-39 26 -97 26 l-120 0 l0 -321 l-81 0 Z" /><glyph glyph-name="uni04A0" unicode="&#x4a0;" d="M10 636 l0 69 l303 0 l0 -69 l-303 0 ZM231 0 l0 705 l82 0 l0 -314 l143 0 l-24 -16 l225 330 l93 0 l-238 -344 l-30 26 q63 -7 107 -42.5 q44 -35.5 77 -99.5 l123 -245 l-90 0 l-100 207 q-30 62 -69.5 88 q-39.5 26 -96.5 26 l-120 0 l0 -321 l-82 0 Z" /><glyph glyph-name="uni04A2" unicode="&#x4a2;" d="M724 -157 l0 157 l-108 0 l0 69 l183 0 l0 -226 l-75 0 ZM88 0 l0 705 l83 0 l0 -312 l425 0 l0 312 l82 0 l0 -705 l-82 0 l0 322 l-425 0 l0 -322 l-83 0 Z" /><glyph glyph-name="uni04A4" unicode="&#x4a4;" d="M88 0 l0 705 l81 0 l0 -312 l427 0 l0 312 l345 0 l0 -70 l-263 0 l0 -635 l-82 0 l0 323 l-427 0 l0 -323 l-81 0 Z" /><glyph glyph-name="uni0524" unicode="&#x524;" d="M706 -157 l0 157 l-108 0 l0 69 l183 0 l0 -226 l-75 0 ZM88 0 l0 705 l590 0 l0 -705 l-83 0 l0 635 l-426 0 l0 -635 l-81 0 Z" /><glyph glyph-name="uni04A8" unicode="&#x4a8;" d="M398 -9 q-105 0 -180 43 q-75 43 -115.5 123.5 q-40.5 80.5 -40.5 193.5 q0 114 40 195 q40 81 114 124.5 q74 43.5 178 43.5 q23 0 41 -2 q18 -2 31 -5 l-11 -69 q-18 2 -33 3.5 q-15 1.5 -27 1.5 q-118 0 -182.5 -75.5 q-64.5 -75.5 -64.5 -214.5 q0 -142 65 -218.5 q65 -76.5 187 -76.5 q85 0 145 32.5 q60 32.5 91 92.5 q31 60 31 144 q0 76 -32 118 q-32 42 -88 42 q-57 0 -89 -42 q-32 -42 -32 -118 q0 -83 31 -143.5 q31 -60.5 91 -93 q60 -32.5 145 -32.5 q39 0 71.5 8.5 q32.5 8.5 63.5 23.5 l20 -65 q-28 -17 -67 -25.5 q-39 -8.5 -89 -8.5 q-75 0 -138 24.5 q-63 24.5 -109 69.5 q-46 45 -71.5 107 q-25.5 62 -25.5 136 q0 71 24.5 122 q24.5 51 69 78.5 q44.5 27.5 105.5 27.5 q61 0 105 -27.5 q44 -27.5 68 -78.5 q24 -51 24 -122 q0 -72 -25 -133.5 q-25 -61.5 -71.5 -107 q-46.5 -45.5 -110 -71 q-63.5 -25.5 -139.5 -25.5 Z" /><glyph glyph-name="uni04AA" unicode="&#x4aa;" d="M359 -157 l0 192 l74 0 l0 -192 l-74 0 ZM395 -9 q-106 0 -180 44 q-74 44 -113.5 125 q-39.5 81 -39.5 193 q0 112 39.5 192.5 q39.5 80.5 113.5 124.5 q74 44 180 44 q75 0 134 -23 q59 -23 103 -67 l-31 -66 q-48 42 -95 61.5 q-47 19.5 -110 19.5 q-121 0 -184 -75 q-63 -75 -63 -211 q0 -136 63 -211.5 q63 -75.5 184 -75.5 q63 0 110 19.5 q47 19.5 95 62.5 l31 -67 q-44 -43 -103 -66.5 q-59 -23.5 -134 -23.5 Z" /><glyph glyph-name="uni04AC" unicode="&#x4ac;" d="M370 -157 l0 157 l-111 0 l0 635 l-249 0 l0 70 l580 0 l0 -70 l-248 0 l0 -566 l102 0 l0 -226 l-74 0 Z" /><glyph glyph-name="uni04B2" unicode="&#x4b2;" d="M617 -157 l0 157 l-48 0 l0 69 l123 0 l0 -226 l-75 0 ZM9 0 l281 376 l0 -31 l-268 360 l98 0 l220 -301 l-26 0 l218 301 l99 0 l-269 -360 l0 31 l281 -376 l-98 0 l-235 319 l32 0 l-235 -319 l-98 0 Z" /><glyph glyph-name="uni04B4" unicode="&#x4b4;" d="M851 -157 l0 157 l-618 0 l0 635 l-223 0 l0 70 l517 0 l0 -70 l-213 0 l0 -565 l426 0 l0 635 l82 0 l0 -635 l103 0 l0 -227 l-74 0 Z" /><glyph glyph-name="uni04B6" unicode="&#x4b6;" d="M632 -157 l0 157 l-108 0 l0 69 l182 0 l0 -226 l-74 0 ZM522 0 l0 298 q-33 -17 -82 -26.5 q-49 -9.5 -99 -9.5 q-138 0 -210.5 72 q-72.5 72 -72.5 215 l0 156 l82 0 l0 -150 q0 -114 52 -167 q52 -53 156 -53 q47 0 91 9.5 q44 9.5 83 29.5 l0 331 l82 0 l0 -705 l-82 0 Z" /><glyph glyph-name="uni04B8" unicode="&#x4b8;" d="M522 0 l0 298 q-32 -16 -78 -25.5 q-46 -9.5 -92 -9.5 l15 13 l0 -165 l-56 0 l0 165 l13 -14 q-128 7 -197 76 q-69 69 -69 211 l0 156 l82 0 l0 -150 q0 -110 48 -162 q48 -52 140 -57 l-17 -11 l0 184 l56 0 l0 -184 l-17 10 q45 0 90 9.5 q45 9.5 82 29.5 l0 331 l82 0 l0 -705 l-82 0 Z" /><glyph glyph-name="uni04BA" unicode="&#x4ba;" d="M88 0 l0 705 l82 0 l0 -298 q33 18 82 27 q49 9 98 9 q139 0 212 -71.5 q73 -71.5 73 -215.5 l0 -156 l-83 0 l0 150 q0 114 -52.5 167.5 q-52.5 53.5 -156.5 53.5 q-45 0 -89.5 -8.5 q-44.5 -8.5 -83.5 -30.5 l0 -332 l-82 0 Z" /><glyph glyph-name="uni0526" unicode="&#x526;" d="M663 -157 l0 157 l-108 0 l0 69 l182 0 l0 -226 l-74 0 ZM88 0 l0 705 l82 0 l0 -298 q33 18 82 27 q49 9 98 9 q139 0 212 -71.5 q73 -71.5 73 -215.5 l0 -156 l-83 0 l0 150 q0 114 -52.5 167.5 q-52.5 53.5 -156.5 53.5 q-45 0 -89.5 -8.5 q-44.5 -8.5 -83.5 -30.5 l0 -332 l-82 0 Z" /><glyph glyph-name="uni04BC" unicode="&#x4bc;" d="M562 -9 q-159 0 -247 91 q-88 91 -94 251 l20 -18 l-40 0 q-91 0 -136 43.5 q-45 43.5 -45 127.5 l0 56 l80 0 l0 -54 q0 -55 25.5 -79.5 q25.5 -24.5 80.5 -24.5 l28 0 l-13 -15 q4 107 42.5 184 q38.5 77 108.5 119 q70 42 164 42 q112 0 180 -45 q68 -45 99.5 -126.5 q31.5 -81.5 31.5 -190.5 l0 -36 l-556 0 l15 28 q2 -135 67.5 -207.5 q65.5 -72.5 196.5 -72.5 q50 0 85.5 9 q35.5 9 66 27 q30.5 18 65.5 46 l32 -65 q-34 -29 -71.5 -49 q-37.5 -20 -82 -30.5 q-44.5 -10.5 -103.5 -10.5 ZM539 643 q-111 0 -171.5 -74.5 q-60.5 -74.5 -61.5 -211.5 l-15 27 l494 0 l-22 -32 q0 95 -21.5 159.5 q-21.5 64.5 -70.5 98 q-49 33.5 -132 33.5 Z" /><glyph glyph-name="uni04C3" unicode="&#x4c3;" d="M416 -189 q-28 0 -56.5 4 q-28.5 4 -46.5 10 l0 70 q19 -8 43 -12.5 q24 -4.5 52 -4.5 q66 0 101.5 42.5 q35.5 42.5 35.5 126.5 l0 54 q0 117 -55.5 169.5 q-55.5 52.5 -167.5 52.5 l-153 0 l0 -323 l-81 0 l0 705 l81 0 l0 -311 l149 0 l-27 -19 l227 330 l92 0 l-239 -344 l-9 30 q131 -6 198 -75.5 q67 -69.5 67 -208.5 l0 -58 q0 -77 -25.5 -130.5 q-25.5 -53.5 -72.5 -80.5 q-47 -27 -113 -27 Z" /><glyph glyph-name="uni04C5" unicode="&#x4c5;" d="M630 -157 l54 157 l-89 0 l0 69 l184 0 l-78 -226 l-71 0 ZM56 -15 l-39 65 q42 22 75 52.5 q33 30.5 55.5 79.5 q22.5 49 34 124.5 q11.5 75.5 11.5 186.5 l0 212 l481 0 l0 -705 l-82 0 l0 635 l-322 0 l0 -163 q0 -109 -14 -189.5 q-14 -80.5 -41.5 -138 q-27.5 -57.5 -67 -96 q-39.5 -38.5 -91.5 -63.5 Z" /><glyph glyph-name="uni04C7" unicode="&#x4c7;" d="M516 -186 q-16 0 -36.5 2 q-20.5 2 -41.5 6 l0 69 q19 -4 35.5 -6.5 q16.5 -2.5 29.5 -2.5 q46 0 69.5 28 q23.5 28 23.5 89 l0 323 l-425 0 l0 -322 l-83 0 l0 705 l83 0 l0 -312 l425 0 l0 312 l82 0 l0 -705 q0 -60 -17 -102 q-17 -42 -53 -63 q-36 -21 -92 -21 Z" /><glyph glyph-name="uni04C9" unicode="&#x4c9;" d="M652 -157 l54 157 l-90 0 l0 69 l184 0 l-77 -226 l-71 0 ZM88 0 l0 705 l83 0 l0 -312 l425 0 l0 312 l82 0 l0 -705 l-82 0 l0 322 l-425 0 l0 -322 l-83 0 Z" /><glyph glyph-name="uni04CB" unicode="&#x4cb;" d="M502 -157 l-76 0 l0 226 l138 0 l0 -69 l-62 0 l0 -157 ZM522 0 l0 298 q-33 -17 -82 -26.5 q-49 -9.5 -99 -9.5 q-138 0 -210.5 72 q-72.5 72 -72.5 215 l0 156 l82 0 l0 -150 q0 -114 52 -167 q52 -53 156 -53 q47 0 91 9.5 q44 9.5 83 29.5 l0 331 l82 0 l0 -705 l-82 0 Z" /><glyph glyph-name="uni04CD" unicode="&#x4cd;" d="M751 -157 l54 157 l-89 0 l0 69 l184 0 l-78 -226 l-71 0 ZM89 0 l0 705 l72 0 l283 -639 l-29 0 l283 639 l72 0 l0 -705 l-76 0 l0 598 l30 0 l-267 -598 l-55 0 l-268 598 l30 0 l0 -598 l-75 0 Z" /><glyph glyph-name="uni04E0" unicode="&#x4e0;" d="M320 -9 q-92 0 -164 24.5 q-72 24.5 -116 66.5 l32 64 q49 -42 109 -62.5 q60 -20.5 135 -20.5 q102 0 149 34 q47 34 47 99 q0 66 -43.5 96.5 q-43.5 30.5 -140.5 30.5 l-109 0 l0 57 l267 281 l0 -26 l-431 0 l0 70 l509 0 l0 -58 l-266 -281 l-10 23 l61 0 q116 0 180.5 -47.5 q64.5 -47.5 64.5 -142.5 q0 -98 -68.5 -153 q-68.5 -55 -205.5 -55 Z" /><glyph glyph-name="uni04E8" unicode="&#x4e8;" d="M104 326 l0 65 l575 0 l0 -65 l-575 0 ZM62 353 q0 112 38.5 192.5 q38.5 80.5 111 124.5 q72.5 44 174.5 44 q99 0 172 -44 q73 -44 112.5 -124.5 q39.5 -80.5 39.5 -191.5 q0 -112 -40 -193 q-40 -81 -112.5 -125.5 q-72.5 -44.5 -171.5 -44.5 q-102 0 -174 44.5 q-72 44.5 -111 125.5 q-39 81 -39 192 ZM149 353 q0 -136 60 -212.5 q60 -76.5 177 -76.5 q112 0 174.5 76.5 q62.5 76.5 62.5 212.5 q0 137 -62 212.5 q-62 75.5 -175 75.5 q-117 0 -177 -75.5 q-60 -75.5 -60 -212.5 Z" /><glyph glyph-name="uni04F6" unicode="&#x4f6;" d="M201 -157 l0 157 l-108 0 l0 69 l182 0 l0 -226 l-74 0 ZM88 0 l0 705 l453 0 l0 -70 l-371 0 l0 -635 l-82 0 Z" /><glyph glyph-name="uni04FA" unicode="&#x4fa;" d="M94 -182 l-6 59 l44 4 q58 5 81 34 q23 29 23 85 l-110 0 l0 321 l-100 0 l0 63 l100 0 l0 321 l453 0 l0 -70 l-370 0 l0 -251 l190 0 l0 -63 l-190 0 l0 -252 l102 0 l0 -59 q0 -91 -41 -137 q-41 -46 -128 -52 l-48 -3 Z" /><glyph glyph-name="uni04FC" unicode="&#x4fc;" d="M409 -185 l-6 67 q62 7 91 30.5 q29 23.5 29 70.5 q0 27 -17.5 61 q-17.5 34 -49.5 77 l-146 198 l32 0 l-235 -319 l-98 0 l281 376 l0 -31 l-268 360 l98 0 l220 -301 l-26 0 l218 301 l99 0 l-269 -360 l0 31 l170 -227 q39 -51 56.5 -91.5 q17.5 -40.5 17.5 -77.5 q0 -72 -48 -113 q-48 -41 -149 -52 Z" /><glyph glyph-name="uni0510" unicode="&#x510;" d="M333 -9 q-92 0 -153 24.5 q-61 24.5 -91 70 q-30 45.5 -30 107.5 q0 74 43.5 119.5 q43.5 45.5 120.5 54.5 l0 -14 q-67 15 -107 59.5 q-40 44.5 -40 109.5 q0 59 30 102 q30 43 88 66.5 q58 23.5 141 23.5 q79 0 147 -22.5 q68 -22.5 115 -65.5 l-31 -64 q-47 41 -105 60.5 q-58 19.5 -125 19.5 q-88 0 -132.5 -34 q-44.5 -34 -44.5 -94 q0 -60 41.5 -91.5 q41.5 -31.5 122.5 -31.5 l163 0 l0 -68 l-178 0 q-84 0 -125.5 -30.5 q-41.5 -30.5 -41.5 -95.5 q0 -66 47.5 -100 q47.5 -34 148.5 -34 q79 0 138 20.5 q59 20.5 108 62.5 l31 -64 q-45 -42 -117 -66.5 q-72 -24.5 -164 -24.5 Z" /><glyph glyph-name="uni0512" unicode="&#x512;" d="M512 -186 q-16 0 -36.5 2 q-20.5 2 -41.5 6 l0 69 q19 -4 35.5 -6.5 q16.5 -2.5 29.5 -2.5 q46 0 69.5 27.5 q23.5 27.5 23.5 89.5 l0 636 l-322 0 l0 -163 q0 -109 -14 -189.5 q-14 -80.5 -41.5 -138 q-27.5 -57.5 -67 -96 q-39.5 -38.5 -91.5 -63.5 l-39 65 q42 22 75 52.5 q33 30.5 55.5 79.5 q22.5 49 34 124.5 q11.5 75.5 11.5 186.5 l0 212 l481 0 l0 -705 q0 -60 -17 -102 q-17 -42 -53 -63 q-36 -21 -92 -21 Z" /><glyph glyph-name="uni048C" unicode="&#x48c;" d="M148 0 l0 537 l-148 0 l0 64 l148 0 l0 104 l80 0 l0 -104 l147 0 l0 -64 l-147 0 l0 -143 l219 0 q114 0 177.5 -49 q63.5 -49 63.5 -147 q0 -97 -63.5 -147.5 q-63.5 -50.5 -177.5 -50.5 l-299 0 ZM228 67 l211 0 q84 0 126 32.5 q42 32.5 42 98.5 q0 65 -42 97 q-42 32 -126 32 l-211 0 l0 -260 Z" /><glyph glyph-name="uni048E" unicode="&#x48e;" d="M88 0 l0 705 l280 0 q116 0 177 -55 q61 -55 61 -157 q0 -71 -33 -121 q-33 -50 -94 -72 l3 16 l59 -87 l-44 -29 l-69 101 l18 -11 q-16 -3 -35 -5.5 q-19 -2.5 -43 -2.5 l-199 0 l0 -282 l-81 0 ZM169 350 l189 0 q14 0 29.5 1 q15.5 1 26.5 3 l-14 -12 l-56 83 l43 29 l68 -99 l-17 7 q87 30 87 131 q0 145 -169 145 l-187 0 l0 -288 Z" /><glyph glyph-name="uni0528" unicode="&#x528;" d="M9 -186 q-16 0 -36.5 2 q-20.5 2 -41.5 6 l0 69 q19 -4 35.5 -6.5 q16.5 -2.5 29.5 -2.5 q46 0 69.5 28 q23.5 28 23.5 89 l0 706 l82 0 l0 -312 l426 0 l0 312 l81 0 l0 -705 l-81 0 l0 323 l-426 0 l0 -323 q0 -60 -17 -102 q-17 -42 -53 -63 q-36 -21 -92 -21 Z" /><glyph glyph-name="uni052E" unicode="&#x52e;" d="M702 -157 l0 157 l-107 0 l0 69 l182 0 l0 -226 l-75 0 ZM56 -15 l-39 65 q42 22 75 52.5 q33 30.5 55.5 79.5 q22.5 49 34 124.5 q11.5 75.5 11.5 186.5 l0 212 l481 0 l0 -705 l-82 0 l0 635 l-322 0 l0 -163 q0 -109 -14 -189.5 q-14 -80.5 -41.5 -138 q-27.5 -57.5 -67 -96 q-39.5 -38.5 -91.5 -63.5 Z" /><glyph glyph-name="uni0431" unicode="&#x431;" d="M293 -9 q-110 0 -175 71 q-65 71 -65 207 l0 88 q0 139 57 225 q57 86 180 116 l183 46 l25 -66 l-203 -50 q-56 -14 -92 -48.5 q-36 -34.5 -54.5 -82 q-18.5 -47.5 -18.5 -100.5 l0 -40 l-12 0 q12 45 39 77.5 q27 32.5 66.5 50 q39.5 17.5 87.5 17.5 q65 0 114 -30.5 q49 -30.5 76.5 -87 q27.5 -56.5 27.5 -135.5 q0 -79 -29 -137 q-29 -58 -82 -89.5 q-53 -31.5 -125 -31.5 ZM291 56 q73 0 115 48.5 q42 48.5 42 142.5 q0 93 -42.5 141.5 q-42.5 48.5 -114.5 48.5 q-72 0 -114.5 -48 q-42.5 -48 -42.5 -136 q0 -98 42 -147.5 q42 -49.5 115 -49.5 Z" /><glyph glyph-name="uni0432" unicode="&#x432;" d="M80 0 l0 502 l242 0 q87 0 130.5 -33.5 q43.5 -33.5 43.5 -98.5 q0 -48 -33.5 -80.5 q-33.5 -32.5 -86.5 -38.5 l0 12 q62 -2 99 -36 q37 -34 37 -88 q0 -65 -47.5 -102 q-47.5 -37 -134.5 -37 l-250 0 ZM157 55 l169 0 q53 0 81.5 22.5 q28.5 22.5 28.5 64.5 q0 42 -28.5 64 q-28.5 22 -81.5 22 l-169 0 l0 -173 ZM157 283 l160 0 q49 0 76 22 q27 22 27 61 q0 39 -27 60.5 q-27 21.5 -76 21.5 l-160 0 l0 -165 Z" /><glyph glyph-name="uni0433" unicode="&#x433;" d="M80 0 l0 502 l350 0 l0 -65 l-269 0 l0 -437 l-81 0 Z" /><glyph glyph-name="uni0491" unicode="&#x491;" d="M80 0 l0 502 l280 0 l0 116 l70 0 l0 -181 l-269 0 l0 -437 l-81 0 Z" /><glyph glyph-name="uni0434" unicode="&#x434;" d="M27 -130 l0 194 l53 0 q36 51 52 122 q16 71 16 168 l0 148 l353 0 l0 -438 l79 0 l0 -194 l-70 0 l0 130 l-414 0 l0 -130 l-69 0 ZM158 63 l266 0 l0 376 l-205 0 l0 -98 q0 -79 -15.5 -152.5 q-15.5 -73.5 -45.5 -125.5 Z" /><glyph glyph-name="uni0436" unicode="&#x436;" d="M1 0 l104 176 q24 39 43 61 q19 22 40.5 33 q21.5 11 49.5 14 l-20 -25 l-191 243 l89 0 l167 -211 l81 0 l0 211 l81 0 l0 -211 l80 0 l166 211 l90 0 l-192 -243 l-21 25 q29 -3 50.5 -14 q21.5 -11 41.5 -33 q20 -22 43 -61 l103 -176 l-87 0 l-92 156 q-17 29 -32.5 44 q-15.5 15 -34.5 21 q-19 6 -48 6 l-67 0 l0 -227 l-81 0 l0 227 l-68 0 q-29 0 -48 -6 q-19 -6 -34.5 -21 q-15.5 -15 -32.5 -44 l-92 -156 l-88 0 Z" /><glyph glyph-name="uni0437" unicode="&#x437;" d="M246 -9 q-64 0 -120.5 17.5 q-56.5 17.5 -92.5 48.5 l28 57 q37 -30 83.5 -45.5 q46.5 -15.5 101.5 -15.5 q74 0 107 23 q33 23 33 65 q0 41 -28 62.5 q-28 21.5 -82 21.5 l-118 0 l0 60 l108 0 q48 0 75.5 21.5 q27.5 21.5 27.5 59.5 q0 39 -30 61.5 q-30 22.5 -94 22.5 q-51 0 -94.5 -13.5 q-43.5 -13.5 -82.5 -42.5 l-27 55 q41 32 95 47 q54 15 117 15 q94 0 143 -36.5 q49 -36.5 49 -103.5 q0 -47 -32 -80.5 q-32 -33.5 -85 -39.5 l0 12 q60 -2 97 -36 q37 -34 37 -89 q0 -67 -54.5 -107 q-54.5 -40 -161.5 -40 Z" /><glyph glyph-name="uni0438" unicode="&#x438;" d="M80 0 l0 502 l74 0 l0 -427 l-27 0 l320 427 l68 0 l0 -502 l-73 0 l0 428 l27 0 l-320 -428 l-69 0 Z" /><glyph glyph-name="uni048B" unicode="&#x48b;" d="M462 -130 l48 130 l-68 0 l0 64 l160 0 l-70 -194 l-70 0 ZM80 0 l0 502 l74 0 l0 -427 l-27 0 l320 427 l68 0 l0 -502 l-73 0 l0 428 l27 0 l-320 -428 l-69 0 ZM297 549 q-41 0 -76 14 q-35 14 -60.5 42.5 q-25.5 28.5 -39.5 70.5 l48 18 q18 -48 49.5 -71 q31.5 -23 79.5 -23 q48 0 79 21 q31 21 55 72 l46 -17 q-27 -68 -73.5 -97.5 q-46.5 -29.5 -107.5 -29.5 Z" /><glyph glyph-name="uni043A" unicode="&#x43a;" d="M80 0 l0 502 l81 0 l0 -211 l95 0 l166 211 l89 0 l-190 -243 l-22 25 q29 -3 50 -14 q21 -11 40.5 -33 q19.5 -22 42.5 -61 l104 -176 l-87 0 l-92 156 q-17 29 -32.5 44 q-15.5 15 -35 21 q-19.5 6 -48.5 6 l-80 0 l0 -227 l-81 0 Z" /><glyph glyph-name="uni043B" unicode="&#x43b;" d="M53 -11 l-30 63 q35 16 58.5 39.5 q23.5 23.5 37.5 60 q14 36.5 20 91 q6 54.5 6 131.5 l0 128 l362 0 l0 -502 l-80 0 l0 438 l-207 0 l0 -67 q0 -118 -16.5 -194 q-16.5 -76 -53 -120.5 q-36.5 -44.5 -97.5 -67.5 Z" /><glyph glyph-name="uni043C" unicode="&#x43c;" d="M80 0 l0 502 l68 0 l188 -337 l189 337 l68 0 l0 -502 l-72 0 l0 412 l21 0 l-185 -331 l-41 0 l-186 332 l22 0 l0 -413 l-72 0 Z" /><glyph glyph-name="uni043D" unicode="&#x43d;" d="M80 0 l0 502 l81 0 l0 -210 l276 0 l0 210 l81 0 l0 -502 l-81 0 l0 227 l-276 0 l0 -227 l-81 0 Z" /><glyph glyph-name="uni043F" unicode="&#x43f;" d="M80 0 l0 502 l435 0 l0 -502 l-81 0 l0 438 l-273 0 l0 -438 l-81 0 Z" /><glyph glyph-name="uni0442" unicode="&#x442;" d="M187 0 l0 437 l-182 0 l0 65 l446 0 l0 -65 l-183 0 l0 -437 l-81 0 Z" /><glyph glyph-name="uni0444" unicode="&#x444;" d="M368 -216 l0 328 l10 0 q-16 -58 -52.5 -89.5 q-36.5 -31.5 -92.5 -31.5 q-54 0 -94.5 32 q-40.5 32 -63.5 90.5 q-23 58.5 -23 137.5 q0 80 22.5 138.5 q22.5 58.5 63 90 q40.5 31.5 95.5 31.5 q56 0 92.5 -31.5 q36.5 -31.5 52.5 -88.5 l-10 0 l0 345 l81 0 l0 -345 l-11 0 q16 57 53.5 88.5 q37.5 31.5 91.5 31.5 q55 0 95.5 -31.5 q40.5 -31.5 63 -90 q22.5 -58.5 22.5 -138.5 q0 -79 -22.5 -137.5 q-22.5 -58.5 -63 -90.5 q-40.5 -32 -95.5 -32 q-54 0 -91 31.5 q-37 31.5 -54 89.5 l11 0 l0 -328 l-81 0 ZM251 55 q55 0 86.5 50 q31.5 50 31.5 146 q0 95 -31.5 145.5 q-31.5 50.5 -86.5 50.5 q-55 0 -86.5 -50.5 q-31.5 -50.5 -31.5 -145.5 q0 -96 31.5 -146 q31.5 -50 86.5 -50 ZM565 55 q55 0 87 50 q32 50 32 146 q0 95 -32.5 145.5 q-32.5 50.5 -86.5 50.5 q-55 0 -86.5 -50.5 q-31.5 -50.5 -31.5 -145.5 q0 -96 31.5 -146 q31.5 -50 86.5 -50 Z" /><glyph glyph-name="uni0447" unicode="&#x447;" d="M404 0 l0 204 q-29 -17 -63 -26 q-34 -9 -73 -9 q-106 0 -157.5 49.5 q-51.5 49.5 -51.5 150.5 l0 133 l81 0 l0 -127 q0 -73 33.5 -105.5 q33.5 -32.5 105.5 -32.5 q37 0 66 8 q29 8 57 27 l0 230 l81 0 l0 -502 l-79 0 Z" /><glyph glyph-name="uni0446" unicode="&#x446;" d="M514 -130 l0 130 l-434 0 l0 502 l81 0 l0 -438 l263 0 l0 438 l79 0 l0 -438 l80 0 l0 -194 l-69 0 Z" /><glyph glyph-name="uni0448" unicode="&#x448;" d="M80 0 l0 502 l77 0 l0 -438 l213 0 l0 438 l76 0 l0 -438 l213 0 l0 438 l78 0 l0 -502 l-657 0 Z" /><glyph glyph-name="uni0449" unicode="&#x449;" d="M747 -130 l0 130 l-667 0 l0 502 l77 0 l0 -438 l213 0 l0 438 l76 0 l0 -438 l213 0 l0 438 l78 0 l0 -438 l79 0 l0 -194 l-69 0 Z" /><glyph glyph-name="uni045F" unicode="&#x45f;" d="M262 -130 l0 130 l-182 0 l0 502 l81 0 l0 -438 l273 0 l0 438 l81 0 l0 -502 l-183 0 l0 -130 l-70 0 Z" /><glyph glyph-name="uni044C" unicode="&#x44c;" d="M80 0 l0 502 l81 0 l0 -180 l151 0 q97 0 146.5 -41.5 q49.5 -41.5 49.5 -117.5 q0 -51 -22.5 -87.5 q-22.5 -36.5 -66 -56 q-43.5 -19.5 -107.5 -19.5 l-232 0 ZM161 58 l144 0 q61 0 93 25.5 q32 25.5 32 78.5 q0 53 -31.5 77.5 q-31.5 24.5 -93.5 24.5 l-144 0 l0 -206 Z" /><glyph glyph-name="uni044A" unicode="&#x44a;" d="M163 0 l0 437 l-158 0 l0 65 l238 0 l0 -180 l151 0 q98 0 147 -41.5 q49 -41.5 49 -117.5 q0 -51 -22 -87.5 q-22 -36.5 -66 -56 q-44 -19.5 -108 -19.5 l-231 0 ZM243 58 l146 0 q60 0 92.5 25.5 q32.5 25.5 32.5 78.5 q0 53 -32.5 77.5 q-32.5 24.5 -92.5 24.5 l-146 0 l0 -206 Z" /><glyph glyph-name="uni044B" unicode="&#x44b;" d="M80 0 l0 502 l81 0 l0 -180 l151 0 q97 0 146.5 -41.5 q49.5 -41.5 49.5 -117.5 q0 -51 -22.5 -87.5 q-22.5 -36.5 -66 -56 q-43.5 -19.5 -107.5 -19.5 l-232 0 ZM161 58 l144 0 q61 0 93 25.5 q32 25.5 32 78.5 q0 53 -31.5 77.5 q-31.5 24.5 -93.5 24.5 l-144 0 l0 -206 ZM584 0 l0 502 l80 0 l0 -502 l-80 0 Z" /><glyph glyph-name="uni0459" unicode="&#x459;" d="M53 -11 l-30 63 q35 16 58.5 39.5 q23.5 23.5 37.5 60 q14 36.5 20 91 q6 54.5 6 131.5 l0 128 l360 0 l0 -180 l152 0 q97 0 146.5 -41.5 q49.5 -41.5 49.5 -117.5 q0 -51 -22.5 -87.5 q-22.5 -36.5 -66 -56 q-43.5 -19.5 -107.5 -19.5 l-230 0 l0 438 l-207 0 l0 -67 q0 -118 -16.5 -194 q-16.5 -76 -53 -120.5 q-36.5 -44.5 -97.5 -67.5 ZM505 58 l145 0 q62 0 94 25.5 q32 25.5 32 78.5 q0 53 -32.5 77.5 q-32.5 24.5 -93.5 24.5 l-145 0 l0 -206 Z" /><glyph glyph-name="uni045A" unicode="&#x45a;" d="M80 0 l0 502 l81 0 l0 -210 l277 0 l0 210 l80 0 l0 -180 l151 0 q98 0 147 -41.5 q49 -41.5 49 -117.5 q0 -51 -22.5 -87.5 q-22.5 -36.5 -66 -56 q-43.5 -19.5 -107.5 -19.5 l-231 0 l0 227 l-277 0 l0 -227 l-81 0 ZM518 58 l144 0 q62 0 94 25.5 q32 25.5 32 78.5 q0 53 -32 77.5 q-32 24.5 -94 24.5 l-144 0 l0 -206 Z" /><glyph glyph-name="uni0454" unicode="&#x454;" d="M298 -9 q-76 0 -131 32 q-55 32 -84.5 91 q-29.5 59 -29.5 140 q0 82 30 139.5 q30 57.5 85.5 87.5 q55.5 30 131.5 30 q54 0 103 -17.5 q49 -17.5 77 -47.5 l-29 -55 q-30 30 -69.5 44 q-39.5 14 -79.5 14 q-57 0 -94 -23 q-37 -23 -56.5 -63.5 q-19.5 -40.5 -21.5 -93.5 l-11 17 l267 0 l0 -60 l-268 0 l12 18 q3 -92 47 -141 q44 -49 125 -49 q39 0 79.5 14.5 q40.5 14.5 69.5 43.5 l29 -54 q-29 -32 -79.5 -49.5 q-50.5 -17.5 -102.5 -17.5 Z" /><glyph glyph-name="uni044D" unicode="&#x44d;" d="M223 -9 q-54 0 -104 18 q-50 18 -78 49 l28 54 q30 -29 69 -43.5 q39 -14.5 81 -14.5 q79 0 124 49 q45 49 47 140 l11 -17 l-267 0 l0 60 l268 0 l-12 -17 q-2 53 -21 93.5 q-19 40.5 -56.5 63.5 q-37.5 23 -93.5 23 q-39 0 -79.5 -14 q-40.5 -14 -70.5 -45 l-28 56 q31 30 81 47.5 q50 17.5 102 17.5 q75 0 129.5 -30.5 q54.5 -30.5 84.5 -88.5 q30 -58 30 -139 q0 -82 -30.5 -140.5 q-30.5 -58.5 -85.5 -90 q-55 -31.5 -129 -31.5 Z" /><glyph glyph-name="uni044E" unicode="&#x44e;" d="M497 -9 q-103 0 -166 63 q-63 63 -71 173 l-101 0 l0 -227 l-79 0 l0 502 l79 0 l0 -210 l102 0 q12 103 74.5 161 q62.5 58 161.5 58 q72 0 125.5 -31 q53.5 -31 83 -89.5 q29.5 -58.5 29.5 -139.5 q0 -80 -29.5 -138.5 q-29.5 -58.5 -83 -90 q-53.5 -31.5 -125.5 -31.5 ZM497 56 q71 0 114 49.5 q43 49.5 43 145.5 q0 96 -43 145.5 q-43 49.5 -114 49.5 q-72 0 -114.5 -49.5 q-42.5 -49.5 -42.5 -145.5 q0 -96 42.5 -145.5 q42.5 -49.5 114.5 -49.5 Z" /><glyph glyph-name="uni044F" unicode="&#x44f;" d="M40 0 l80 138 q19 33 48 53.5 q29 20.5 61 20.5 l14 0 l-1 -9 q-85 0 -132 38.5 q-47 38.5 -47 111.5 q0 70 46 109.5 q46 39.5 137 39.5 l223 0 l0 -502 l-76 0 l0 194 l-75 0 q-42 0 -71 -21 q-29 -21 -49 -53 l-68 -120 l-90 0 ZM260 251 l133 0 l0 195 l-133 0 q-61 0 -90.5 -26 q-29.5 -26 -29.5 -71 q0 -47 29.5 -72.5 q29.5 -25.5 90.5 -25.5 Z" /><glyph glyph-name="uni0452" unicode="&#x452;" d="M322 -186 l-22 63 q54 12 83 33.5 q29 21.5 40 56.5 q11 35 11 87 l0 248 q0 73 -29.5 104 q-29.5 31 -87.5 31 q-70 0 -111 -42.5 q-41 -42.5 -41 -113.5 l0 -281 l-81 0 l0 582 l-96 0 l0 61 l96 0 l0 93 l81 0 l0 -93 l200 0 l0 -61 l-200 0 l0 -194 l-11 0 q20 55 68.5 85.5 q48.5 30.5 111.5 30.5 q90 0 135.5 -47.5 q45.5 -47.5 45.5 -149.5 l0 -250 q0 -67 -17.5 -115 q-17.5 -48 -59.5 -79.5 q-42 -31.5 -116 -48.5 Z" /><glyph glyph-name="uni0463" unicode="&#x463;" d="M163 0 l0 443 l-158 0 l0 59 l158 0 l0 234 l81 0 l0 -234 l167 0 l0 -59 l-167 0 l0 -130 l155 0 q94 0 143 -40 q49 -40 49 -116 q0 -76 -49.5 -116.5 q-49.5 -40.5 -142.5 -40.5 l-236 0 ZM244 54 l146 0 q60 0 92 25.5 q32 25.5 32 77.5 q0 53 -32 77 q-32 24 -92 24 l-146 0 l0 -204 Z" /><glyph glyph-name="uni046B" unicode="&#x46b;" d="M1 0 l104 170 q27 44 49.5 69 q22.5 25 51 35.5 q28.5 10.5 72.5 10.5 l74 0 l-10 -19 l-205 236 l533 0 l-204 -236 l-11 19 l75 0 q44 0 72.5 -10.5 q28.5 -10.5 51.5 -35.5 q23 -25 48 -69 l103 -170 l-87 0 l-91 150 q-18 29 -33.5 44.5 q-15.5 15.5 -34.5 21.5 q-19 6 -48 6 l-67 0 l0 -222 l-81 0 l0 222 l-68 0 q-27 0 -46.5 -6 q-19.5 -6 -35 -21.5 q-15.5 -15.5 -33.5 -44.5 l-92 -150 l-87 0 ZM403 285 l2 0 l155 185 l0 -24 l-313 0 l0 24 l156 -185 Z" /><glyph glyph-name="uni0475" unicode="&#x475;" d="M231 0 l-214 502 l87 0 l180 -442 l-27 0 l137 330 q19 47 41.5 73 q22.5 26 56 37 q33.5 11 83.5 11 l7 -65 q-49 0 -75 -20 q-26 -20 -47 -70 l-152 -356 l-77 0 Z" /><glyph glyph-name="uni0493" unicode="&#x493;" d="M104 0 l0 213 l-99 0 l0 60 l99 0 l0 229 l350 0 l0 -64 l-270 0 l0 -165 l151 0 l0 -60 l-151 0 l0 -213 l-80 0 Z" /><glyph glyph-name="uni0495" unicode="&#x495;" d="M325 -186 l-22 63 q55 12 83.5 34 q28.5 22 39 57 q10.5 35 10.5 86 l0 72 q0 75 -28 107.5 q-28 32.5 -91 32.5 q-71 0 -113.5 -43 q-42.5 -43 -42.5 -113 l0 -110 l-81 0 l0 502 l350 0 l0 -62 l-269 0 l0 -228 l-15 -1 q22 57 72 89.5 q50 32.5 117 32.5 q91 0 136 -49.5 q45 -49.5 45 -152.5 l0 -74 q0 -67 -17 -115 q-17 -48 -58 -79.5 q-41 -31.5 -116 -48.5 Z" /><glyph glyph-name="uni0497" unicode="&#x497;" d="M763 -130 l0 130 l-39 0 l0 64 l109 0 l0 -194 l-70 0 ZM1 0 l104 176 q24 39 43 61 q19 22 40.5 33 q21.5 11 49.5 14 l-20 -25 l-191 243 l89 0 l167 -211 l81 0 l0 211 l81 0 l0 -211 l80 0 l166 211 l90 0 l-192 -243 l-21 25 q29 -3 50.5 -14 q21.5 -11 41.5 -33 q20 -22 43 -61 l103 -176 l-87 0 l-92 156 q-17 29 -32.5 44 q-15.5 15 -34.5 21 q-19 6 -48 6 l-67 0 l0 -227 l-81 0 l0 227 l-68 0 q-29 0 -48 -6 q-19 -6 -34.5 -21 q-15.5 -15 -32.5 -44 l-92 -156 l-88 0 Z" /><glyph glyph-name="uni0499" unicode="&#x499;" d="M218 -130 l0 168 l68 0 l0 -168 l-68 0 ZM246 -9 q-64 0 -120.5 17.5 q-56.5 17.5 -92.5 48.5 l28 57 q37 -30 83.5 -45.5 q46.5 -15.5 101.5 -15.5 q74 0 107 23 q33 23 33 65 q0 41 -28 62.5 q-28 21.5 -82 21.5 l-118 0 l0 60 l108 0 q48 0 75.5 21.5 q27.5 21.5 27.5 59.5 q0 39 -30 61.5 q-30 22.5 -94 22.5 q-51 0 -94.5 -13.5 q-43.5 -13.5 -82.5 -42.5 l-27 55 q41 32 95 47 q54 15 117 15 q94 0 143 -36.5 q49 -36.5 49 -103.5 q0 -47 -32 -80.5 q-32 -33.5 -85 -39.5 l0 12 q60 -2 97 -36 q37 -34 37 -89 q0 -67 -54.5 -107 q-54.5 -40 -161.5 -40 Z" /><glyph glyph-name="uni049B" unicode="&#x49b;" d="M493 -130 l0 130 l-39 0 l0 64 l109 0 l0 -194 l-70 0 ZM80 0 l0 502 l81 0 l0 -211 l95 0 l166 211 l89 0 l-190 -243 l-22 25 q29 -3 50 -14 q21 -11 40.5 -33 q19.5 -22 42.5 -61 l104 -176 l-87 0 l-92 156 q-17 29 -32.5 44 q-15.5 15 -35 21 q-19.5 6 -48.5 6 l-80 0 l0 -227 l-81 0 Z" /><glyph glyph-name="uni049D" unicode="&#x49d;" d="M80 0 l0 502 l81 0 l0 -211 l56 0 l0 116 l54 0 l0 -116 l15 0 l165 211 l90 0 l-190 -243 l-23 25 q28 -3 49.5 -14 q21.5 -11 41.5 -33 q20 -22 43 -61 l104 -176 l-87 0 l-92 156 q-17 28 -32.5 43.5 q-15.5 15.5 -35 21.5 q-19.5 6 -48.5 6 l-15 0 l15 12 l0 -138 l-54 0 l0 126 l-56 0 l0 -227 l-81 0 Z" /><glyph glyph-name="uni049F" unicode="&#x49f;" d="M84 0 l0 582 l-96 0 l0 61 l96 0 l0 93 l81 0 l0 -93 l200 0 l0 -61 l-200 0 l0 -293 l96 0 l163 206 l89 0 l-189 -239 l-20 24 q30 -3 50 -13.5 q20 -10.5 39 -32.5 q19 -22 43 -62 l104 -172 l-88 0 l-92 154 q-17 29 -32.5 44.5 q-15.5 15.5 -34.5 21.5 q-19 6 -48 6 l-80 0 l0 -226 l-81 0 Z" /><glyph glyph-name="uni04A1" unicode="&#x4a1;" d="M163 0 l0 437 l-158 0 l0 65 l239 0 l0 -211 l95 0 l166 211 l89 0 l-189 -243 l-23 25 q29 -3 50 -14 q21 -11 40.5 -33 q19.5 -22 43.5 -61 l104 -176 l-88 0 l-92 156 q-17 28 -33 43.5 q-16 15.5 -34.5 21.5 q-18.5 6 -47.5 6 l-81 0 l0 -227 l-81 0 Z" /><glyph glyph-name="uni04A3" unicode="&#x4a3;" d="M528 -130 l0 130 l-86 0 l0 64 l156 0 l0 -194 l-70 0 ZM80 0 l0 502 l81 0 l0 -210 l276 0 l0 210 l81 0 l0 -502 l-81 0 l0 227 l-276 0 l0 -227 l-81 0 Z" /><glyph glyph-name="uni04A5" unicode="&#x4a5;" d="M80 0 l0 502 l81 0 l0 -210 l271 0 l0 210 l312 0 l0 -65 l-231 0 l0 -437 l-81 0 l0 227 l-271 0 l0 -227 l-81 0 Z" /><glyph glyph-name="uni0525" unicode="&#x525;" d="M524 -130 l0 130 l-86 0 l0 64 l156 0 l0 -194 l-70 0 ZM80 0 l0 502 l435 0 l0 -502 l-81 0 l0 438 l-273 0 l0 -438 l-81 0 Z" /><glyph glyph-name="uni04A9" unicode="&#x4a9;" d="M317 -9 q-124 0 -194 71 q-70 71 -70 193 q0 79 29.5 136.5 q29.5 57.5 84 88.5 q54.5 31 127.5 31 q32 0 59.5 -5.5 q27.5 -5.5 45.5 -14.5 l-17 -60 q-17 9 -40 13.5 q-23 4.5 -49 4.5 q-74 0 -117.5 -52 q-43.5 -52 -43.5 -142 q0 -98 50 -151 q50 -53 137 -53 q93 0 142 45.5 q49 45.5 49 124.5 q0 50 -22 78 q-22 28 -59 28 q-37 0 -59 -28 q-22 -28 -22 -78 q0 -55 22.5 -93 q22.5 -38 65 -57.5 q42.5 -19.5 103.5 -19.5 q32 0 60.5 7.5 q28.5 7.5 52.5 21.5 l17 -59 q-55 -30 -126 -30 q-57 0 -105 17 q-48 17 -83.5 48 q-35.5 31 -55 73.5 q-19.5 42.5 -19.5 92.5 q0 75 41 119.5 q41 44.5 108 44.5 q68 0 108.5 -44.5 q40.5 -44.5 40.5 -119.5 q0 -51 -19.5 -93.5 q-19.5 -42.5 -55.5 -73.5 q-36 -31 -83.5 -47.5 q-47.5 -16.5 -102.5 -16.5 Z" /><glyph glyph-name="uni04AB" unicode="&#x4ab;" d="M255 -130 l0 168 l69 0 l0 -168 l-69 0 ZM295 -9 q-74 0 -128.5 32 q-54.5 32 -84 91 q-29.5 59 -29.5 141 q0 81 30 138.5 q30 57.5 84 87.5 q54 30 128 30 q48 0 93.5 -17 q45.5 -17 74.5 -48 l-29 -58 q-29 29 -64.5 43 q-35.5 14 -70.5 14 q-77 0 -120 -49 q-43 -49 -43 -142 q0 -94 43 -145 q43 -51 120 -51 q34 0 69.5 13 q35.5 13 65.5 43 l29 -57 q-30 -32 -76 -49 q-46 -17 -92 -17 Z" /><glyph glyph-name="uni04AD" unicode="&#x4ad;" d="M277 -130 l0 130 l-86 0 l0 64 l156 0 l0 -194 l-70 0 ZM187 0 l0 437 l-182 0 l0 65 l446 0 l0 -65 l-183 0 l0 -437 l-81 0 Z" /><glyph glyph-name="uni04AF" unicode="&#x4af;" d="M227 -216 l0 218 l-214 500 l88 0 l181 -442 l-28 0 l183 442 l83 0 l-212 -496 l0 -222 l-81 0 Z" /><glyph glyph-name="uni04B1" unicode="&#x4b1;" d="M227 -188 l0 144 l-126 0 l0 61 l129 0 l0 -22 l-217 507 l88 0 l181 -442 l-28 0 l183 442 l83 0 l-216 -503 l0 18 l129 0 l0 -61 l-125 0 l0 -144 l-81 0 Z" /><glyph glyph-name="uni04B3" unicode="&#x4b3;" d="M488 -130 l0 130 l-39 0 l0 64 l110 0 l0 -194 l-71 0 ZM16 0 l225 279 l0 -40 l-213 263 l98 0 l161 -205 l-30 0 l161 205 l96 0 l-209 -262 l0 37 l222 -277 l-98 0 l-172 219 l30 0 l-174 -219 l-97 0 Z" /><glyph glyph-name="uni04B5" unicode="&#x4b5;" d="M612 -130 l0 130 l-449 0 l0 437 l-158 0 l0 65 l398 0 l0 -65 l-160 0 l0 -373 l279 0 l0 438 l81 0 l0 -438 l79 0 l0 -194 l-70 0 Z" /><glyph glyph-name="uni04B7" unicode="&#x4b7;" d="M493 -130 l0 130 l-86 0 l0 64 l156 0 l0 -194 l-70 0 ZM404 0 l0 204 q-29 -17 -63 -26 q-34 -9 -73 -9 q-106 0 -157.5 49.5 q-51.5 49.5 -51.5 150.5 l0 133 l81 0 l0 -127 q0 -73 33.5 -105.5 q33.5 -32.5 105.5 -32.5 q37 0 66 8 q29 8 57 27 l0 230 l81 0 l0 -502 l-79 0 Z" /><glyph glyph-name="uni04B9" unicode="&#x4b9;" d="M418 0 l0 204 q-27 -15 -59 -24 q-32 -9 -62 -10 l14 15 l0 -116 l-55 0 l0 116 l20 -15 q-110 0 -163.5 50 q-53.5 50 -53.5 149 l0 133 l81 0 l0 -128 q0 -72 34 -104.5 q34 -32.5 102 -33.5 l-20 -10 l0 140 l55 0 l0 -140 l-16 10 q33 0 63 8.5 q30 8.5 60 25.5 l0 232 l80 0 l0 -502 l-80 0 Z" /><glyph glyph-name="uni0527" unicode="&#x527;" d="M524 -130 l0 130 l-86 0 l0 64 l156 0 l0 -194 l-70 0 ZM83 0 l0 736 l81 0 l0 -345 l-12 0 q21 59 70.5 89.5 q49.5 30.5 114.5 30.5 q90 0 134 -48.5 q44 -48.5 44 -146.5 l0 -316 l-81 0 l0 311 q0 70 -27.5 102 q-27.5 32 -88.5 32 q-70 0 -112 -43 q-42 -43 -42 -113 l0 -289 l-81 0 Z" /><glyph glyph-name="uni04BD" unicode="&#x4bd;" d="M414 -9 q-118 0 -187 69.5 q-69 69.5 -67 197.5 l7 -15 l-17 0 q-68 1 -100 33.5 q-32 32.5 -32 95.5 l0 37 l67 0 l0 -38 q0 -40 16 -58.5 q16 -18.5 56 -18.5 l27 0 l-24 -25 q4 73 35 127.5 q31 54.5 83 84.5 q52 30 120 30 q69 0 116 -29 q47 -29 72 -82.5 q25 -53.5 25 -126.5 l0 -30 l-383 0 l11 15 q-2 -101 44 -151 q46 -50 133 -50 q45 0 84.5 13.5 q39.5 13.5 75.5 44.5 l28 -57 q-33 -32 -83.5 -49.5 q-50.5 -17.5 -106.5 -17.5 ZM398 451 q-50 0 -85 -23.5 q-35 -23.5 -53 -63.5 q-18 -40 -20 -91 l-12 21 l330 0 l-17 -13 q0 80 -36 125 q-36 45 -107 45 Z" /><glyph glyph-name="uni04C4" unicode="&#x4c4;" d="M314 -186 l-23 63 q54 12 82.5 33.5 q28.5 21.5 39 56 q10.5 34.5 10.5 83.5 l0 31 q0 77 -35.5 111.5 q-35.5 34.5 -107.5 34.5 l-119 0 l0 -227 l-81 0 l0 502 l81 0 l0 -211 l95 0 l166 211 l89 0 l-192 -243 l-30 31 q100 0 157.5 -50.5 q57.5 -50.5 57.5 -153.5 l0 -34 q0 -64 -17 -111 q-17 -47 -58.5 -78.5 q-41.5 -31.5 -114.5 -48.5 Z" /><glyph glyph-name="uni04C6" unicode="&#x4c6;" d="M451 -130 l48 130 l-68 0 l0 64 l160 0 l-70 -194 l-70 0 ZM53 -11 l-30 63 q35 16 58.5 39.5 q23.5 23.5 37.5 60 q14 36.5 20 91 q6 54.5 6 131.5 l0 128 l362 0 l0 -502 l-80 0 l0 438 l-207 0 l0 -67 q0 -118 -16.5 -194 q-16.5 -76 -53 -120.5 q-36.5 -44.5 -97.5 -67.5 Z" /><glyph glyph-name="uni04C8" unicode="&#x4c8;" d="M303 -193 l-5 63 l44 3 q48 4 72 32 q24 28 24 80 l0 242 l-277 0 l0 -227 l-81 0 l0 502 l81 0 l0 -210 l277 0 l0 210 l80 0 l0 -509 q0 -57 -18.5 -96.5 q-18.5 -39.5 -56 -61 q-37.5 -21.5 -96.5 -25.5 l-44 -3 Z" /><glyph glyph-name="uni04CA" unicode="&#x4ca;" d="M462 -130 l48 130 l-68 0 l0 64 l159 0 l-70 -194 l-69 0 ZM80 0 l0 502 l81 0 l0 -210 l276 0 l0 210 l81 0 l0 -502 l-81 0 l0 227 l-276 0 l0 -227 l-81 0 Z" /><glyph glyph-name="uni04CC" unicode="&#x4cc;" d="M394 -130 l-70 0 l0 182 l139 0 l0 -52 l-69 0 l0 -130 ZM404 0 l0 204 q-29 -17 -63 -26 q-34 -9 -73 -9 q-106 0 -157.5 49.5 q-51.5 49.5 -51.5 150.5 l0 133 l81 0 l0 -127 q0 -73 33.5 -105.5 q33.5 -32.5 105.5 -32.5 q37 0 66 8 q29 8 57 27 l0 230 l81 0 l0 -502 l-79 0 Z" /><glyph glyph-name="uni04CE" unicode="&#x4ce;" d="M541 -130 l48 130 l-68 0 l0 64 l160 0 l-70 -194 l-70 0 ZM80 0 l0 502 l68 0 l188 -337 l189 337 l68 0 l0 -502 l-72 0 l0 412 l21 0 l-185 -331 l-41 0 l-186 332 l22 0 l0 -413 l-72 0 Z" /><glyph glyph-name="uni04E1" unicode="&#x4e1;" d="M233 -189 q-67 0 -123 16.5 q-56 16.5 -94 46.5 l28 59 q37 -29 82 -43 q45 -14 101 -14 q84 0 126 38.5 q42 38.5 42 110.5 q0 65 -42 100 q-42 35 -119 35 l-105 0 l0 40 l237 258 l0 -20 l-331 0 l0 64 l409 0 l0 -54 l-234 -252 l-18 24 l61 0 q106 0 164 -50 q58 -50 58 -142 q0 -67 -29 -116 q-29 -49 -83 -75 q-54 -26 -130 -26 Z" /><glyph glyph-name="uni04E9" unicode="&#x4e9;" d="M290 -9 q-72 0 -125.5 31.5 q-53.5 31.5 -82.5 90 q-29 58.5 -29 138.5 q0 81 29 139 q29 58 82.5 89.5 q53.5 31.5 125.5 31.5 q73 0 126.5 -31.5 q53.5 -31.5 83 -89.5 q29.5 -58 29.5 -139 q0 -80 -29.5 -138.5 q-29.5 -58.5 -83 -90 q-53.5 -31.5 -126.5 -31.5 ZM290 57 q75 0 118 50.5 q43 50.5 43 144.5 q0 93 -43 143.5 q-43 50.5 -118 50.5 q-75 0 -117.5 -50.5 q-42.5 -50.5 -42.5 -143.5 q0 -94 42.5 -144.5 q42.5 -50.5 117.5 -50.5 ZM100 223 l0 57 l382 0 l0 -57 l-382 0 Z" /><glyph glyph-name="uni04F7" unicode="&#x4f7;" d="M170 -130 l0 130 l-86 0 l0 64 l156 0 l0 -194 l-70 0 ZM80 0 l0 502 l350 0 l0 -65 l-269 0 l0 -437 l-81 0 Z" /><glyph glyph-name="uni04FB" unicode="&#x4fb;" d="M75 -182 l-5 60 l45 4 q43 4 60.5 33 q17.5 29 17.5 85 l-89 0 l0 218 l-99 0 l0 58 l99 0 l0 226 l350 0 l0 -64 l-269 0 l0 -162 l150 0 l0 -58 l-150 0 l0 -165 l81 0 l0 -43 q0 -91 -38 -137 q-38 -46 -105 -51 l-48 -4 Z" /><glyph glyph-name="uni04FD" unicode="&#x4fd;" d="M337 -185 l-15 60 q56 7 82.5 26 q26.5 19 26.5 56 q0 27 -16 54.5 q-16 27.5 -55 75.5 l-103 132 l28 0 l-174 -219 l-95 0 l225 279 l0 -40 l-213 263 l97 0 l161 -205 l-29 0 l161 205 l96 0 l-210 -261 l0 36 l122 -152 q31 -38 49.5 -66 q18.5 -28 27 -52 q8.5 -24 8.5 -51 q0 -40 -19.5 -70 q-19.5 -30 -58.5 -47.5 q-39 -17.5 -96 -23.5 Z" /><glyph glyph-name="uni0511" unicode="&#x511;" d="M262 -9 q-107 0 -161.5 40 q-54.5 40 -54.5 107 q0 55 37.5 89 q37.5 34 97.5 36 l-1 -12 q-52 6 -84.5 39 q-32.5 33 -32.5 81 q0 67 55 103.5 q55 36.5 146 36.5 q57 0 109.5 -15 q52.5 -15 94.5 -47 l-28 -55 q-39 28 -81.5 41.5 q-42.5 13.5 -89.5 13.5 q-62 0 -95.5 -22.5 q-33.5 -22.5 -33.5 -62.5 q0 -37 27 -58 q27 -21 75 -21 l109 0 l0 -60 l-119 0 q-53 0 -81 -21 q-28 -21 -28 -62 q0 -42 33 -65 q33 -23 106 -23 q55 0 102.5 14.5 q47.5 14.5 83.5 44.5 l27 -56 q-35 -31 -91 -48.5 q-56 -17.5 -122 -17.5 Z" /><glyph glyph-name="uni0513" unicode="&#x513;" d="M292 -193 l-5 63 l45 3 q47 4 71 32 q24 28 24 80 l0 453 l-207 0 l0 -67 q0 -118 -16.5 -194 q-16.5 -76 -53 -120.5 q-36.5 -44.5 -97.5 -67.5 l-30 63 q35 16 58.5 39.5 q23.5 23.5 37.5 60 q14 36.5 20 91 q6 54.5 6 131.5 l0 128 l362 0 l0 -509 q0 -57 -18 -96.5 q-18 -39.5 -55.5 -61 q-37.5 -21.5 -96.5 -25.5 l-45 -3 Z" /><glyph glyph-name="uni048F" unicode="&#x48f;" d="M83 -216 l0 602 q0 28 -2.5 57.5 q-2.5 29.5 -5.5 58.5 l79 0 l10 -119 l-11 0 q16 59 65 93.5 q49 34.5 117 34.5 q68 0 117.5 -31 q49.5 -31 77 -89 q27.5 -58 27.5 -140 q0 -73 -23 -129 q-23 -56 -65 -88 l4 14 l51 -63 l-39 -29 l-51 65 l13 0 q-46 -30 -112 -30 q-68 0 -116.5 34 q-48.5 34 -65.5 93 l11 0 l0 -334 l-81 0 ZM319 446 q-71 0 -113.5 -49.5 q-42.5 -49.5 -42.5 -145.5 q0 -95 42.5 -145.5 q42.5 -50.5 113.5 -48.5 q48 1 82 22 l-4 -11 l-56 70 l38 30 l60 -76 l-15 5 q51 49 51 154 q0 96 -42.5 145.5 q-42.5 49.5 -113.5 49.5 Z" /><glyph glyph-name="uni0529" unicode="&#x529;" d="M-54 -193 l-6 63 l45 3 q48 4 71.5 32 q23.5 28 23.5 80 l0 517 l81 0 l0 -210 l277 0 l0 210 l80 0 l0 -502 l-80 0 l0 227 l-277 0 l0 -234 q0 -57 -18.5 -96.5 q-18.5 -39.5 -56 -61 q-37.5 -21.5 -96.5 -25.5 l-44 -3 Z" /><glyph glyph-name="uni052F" unicode="&#x52f;" d="M517 -130 l0 130 l-86 0 l0 64 l156 0 l0 -194 l-70 0 ZM53 -11 l-30 63 q35 16 58.5 39.5 q23.5 23.5 37.5 60 q14 36.5 20 91 q6 54.5 6 131.5 l0 128 l362 0 l0 -502 l-80 0 l0 438 l-207 0 l0 -67 q0 -118 -16.5 -194 q-16.5 -76 -53 -120.5 q-36.5 -44.5 -97.5 -67.5 Z" /><glyph glyph-name="uni0394" unicode="&#x394;" d="M34 0 l0 50 l295 655 l70 0 l295 -655 l0 -50 l-660 0 ZM363 611 l-255 -577 l0 35 l512 0 l0 -35 l-255 577 l-2 0 Z" /><glyph glyph-name="Sigma" unicode="&#x3a3;" d="M51 -180 l0 59 l284 399 l0 -30 l-284 398 l0 59 l507 0 l0 -70 l-418 0 l0 21 l261 -369 l0 -49 l-261 -369 l0 21 l418 0 l0 -70 l-507 0 Z" /><glyph glyph-name="uni03A9" unicode="&#x3a9;" d="M38 0 l0 69 l245 0 l0 -21 q-118 65 -174 152.5 q-56 87.5 -56 197.5 q0 98 41.5 168.5 q41.5 70.5 118.5 109 q77 38.5 180 38.5 q77 0 139.5 -22 q62.5 -22 107 -62.5 q44.5 -40.5 69 -99 q24.5 -58.5 24.5 -132.5 q0 -110 -56 -197.5 q-56 -87.5 -174 -152.5 l0 21 l245 0 l0 -69 l-297 0 l0 67 q102 68 148.5 148 q46.5 80 46.5 175 q0 120 -67 185.5 q-67 65.5 -186 65.5 q-121 0 -187 -65.5 q-66 -65.5 -66 -185.5 q0 -95 47 -175 q47 -80 148 -148 l0 -67 l-297 0 Z" /><glyph glyph-name="uni03BC" unicode="&#x3bc;" d="M76 -216 l0 718 l81 0 l0 -310 q0 -69 28 -101.5 q28 -32.5 87 -32.5 q66 0 106 43.5 q40 43.5 40 114.5 l0 286 l81 0 l0 -502 l-79 0 l0 113 l8 0 q-17 -58 -59 -90 q-42 -32 -99 -32 q-44 0 -77 16 q-33 16 -51 60 l11 0 l4 -283 l-81 0 Z" /><glyph glyph-name="pi" unicode="&#x3c0;" d="M34 0 q24 65 40 134.5 q16 69.5 24.5 145 q8.5 75.5 9.5 159.5 l-103 0 l0 63 l551 0 l0 -63 l-118 0 l0 -260 q0 -55 27 -84 q27 -29 82 -34 l42 -3 l-7 -65 l-46 3 q-47 3 -81 16 q-34 13 -55.5 36.5 q-21.5 23.5 -32 58 q-10.5 34.5 -10.5 80.5 l0 252 l-169 0 q-1 -92 -9 -170 q-8 -78 -22.5 -144 q-14.5 -66 -36.5 -125 l-86 0 Z" /><glyph glyph-name="zero" unicode="0" d="M300 -9 q-120 0 -184 93 q-64 93 -64 269 q0 177 64 269 q64 92 184 92 q121 0 184.5 -92 q63.5 -92 63.5 -268 q0 -177 -64 -270 q-64 -93 -184 -93 ZM300 63 q84 0 125 71 q41 71 41 220 q0 150 -41 219.5 q-41 69.5 -125 69.5 q-83 0 -124.5 -70 q-41.5 -70 -41.5 -219 q0 -149 41.5 -220 q41.5 -71 124.5 -71 Z" /><glyph glyph-name="one" unicode="1" d="M127 0 l0 71 l166 0 l0 563 l44 0 l-194 -121 l0 83 l173 109 l60 0 l0 -634 l156 0 l0 -71 l-405 0 Z" /><glyph glyph-name="two" unicode="2" d="M86 0 l0 62 l250 261 q49 51 73.5 97.5 q24.5 46.5 24.5 96.5 q0 61 -38 92.5 q-38 31.5 -110 31.5 q-56 0 -103.5 -19.5 q-47.5 -19.5 -91.5 -61.5 l-30 65 q40 40 102 64.5 q62 24.5 131 24.5 q107 0 165 -49.5 q58 -49.5 58 -140.5 q0 -67 -32.5 -127.5 q-32.5 -60.5 -94.5 -124.5 l-221 -224 l0 23 l378 0 l0 -71 l-461 0 Z" /><glyph glyph-name="three" unicode="3" d="M296 -9 q-71 0 -136 22 q-65 22 -109 63 l31 64 q49 -40 101 -58 q52 -18 112 -18 q79 0 120 33.5 q41 33.5 41 98.5 q0 62 -42 94.5 q-42 32.5 -123 32.5 l-106 0 l0 69 l99 0 q70 0 111 36 q41 36 41 98 q0 56 -37.5 85.5 q-37.5 29.5 -107.5 29.5 q-114 0 -197 -81 l-31 65 q41 42 103 65.5 q62 23.5 130 23.5 q104 0 163 -48 q59 -48 59 -133 q0 -65 -37 -111.5 q-37 -46.5 -100 -63.5 l0 11 q75 -12 116 -59.5 q41 -47.5 41 -119.5 q0 -92 -64.5 -145.5 q-64.5 -53.5 -177.5 -53.5 Z" /><glyph glyph-name="four" unicode="4" d="M386 0 l0 153 l-336 0 l0 60 l349 492 l68 0 l0 -485 l108 0 l0 -67 l-108 0 l0 -153 l-81 0 ZM386 220 l0 387 l22 0 l-290 -408 l0 21 l268 0 Z" /><glyph glyph-name="five" unicode="5" d="M313 -9 q-46 0 -90 10 q-44 10 -82.5 29 q-38.5 19 -67.5 46 l31 64 q49 -39 100 -57.5 q51 -18.5 109 -18.5 q76 0 119 41 q43 41 43 108 q0 69 -41 113 q-41 44 -114 44 q-52 0 -93 -20.5 q-41 -20.5 -71 -63.5 l-60 0 l0 419 l418 0 l0 -70 l-338 0 l0 -281 l-22 0 q27 42 74.5 64.5 q47.5 22.5 107.5 22.5 q68 0 117.5 -28 q49.5 -28 76.5 -78 q27 -50 27 -117 q0 -67 -29.5 -118.5 q-29.5 -51.5 -84 -80 q-54.5 -28.5 -130.5 -28.5 Z" /><glyph glyph-name="six" unicode="6" d="M323 -9 q-128 0 -197.5 90.5 q-69.5 90.5 -69.5 253.5 q0 122 35 206.5 q35 84.5 100 128.5 q65 44 157 44 q55 0 111 -22.5 q56 -22.5 92 -62.5 l-30 -64 q-38 39 -83 57.5 q-45 18.5 -91 18.5 q-102 0 -156.5 -72.5 q-54.5 -72.5 -54.5 -217.5 l0 -93 l-9 0 q7 57 34.5 98.5 q27.5 41.5 72.5 63.5 q45 22 100 22 q64 0 113 -28 q49 -28 77 -78.5 q28 -50.5 28 -115.5 q0 -66 -29 -118 q-29 -52 -81 -81.5 q-52 -29.5 -119 -29.5 ZM317 61 q46 0 81.5 19.5 q35.5 19.5 55 55 q19.5 35.5 19.5 81.5 q0 46 -19.5 81 q-19.5 35 -55 55 q-35.5 20 -81.5 20 q-46 0 -81 -20 q-35 -20 -54.5 -55 q-19.5 -35 -19.5 -81 q0 -46 19.5 -81.5 q19.5 -35.5 54.5 -55 q35 -19.5 81 -19.5 Z" /><glyph glyph-name="seven" unicode="7" d="M113 0 l347 670 l0 -36 l-394 0 l0 71 l469 0 l0 -62 l-331 -643 l-91 0 Z" /><glyph glyph-name="eight" unicode="8" d="M300 -9 q-121 0 -187 51.5 q-66 51.5 -66 144.5 q0 73 45 121.5 q45 48.5 119 58.5 l0 -15 q-67 14 -107 61.5 q-40 47.5 -40 112.5 q0 89 63 138.5 q63 49.5 173 49.5 q111 0 174 -49.5 q63 -49.5 63 -138.5 q0 -65 -37.5 -113 q-37.5 -48 -104.5 -60 l0 14 q73 -10 116 -58.5 q43 -48.5 43 -121.5 q0 -93 -66 -144.5 q-66 -51.5 -188 -51.5 ZM300 59 q88 0 131.5 33 q43.5 33 43.5 100 q0 66 -43.5 98.5 q-43.5 32.5 -131.5 32.5 q-88 0 -131.5 -32.5 q-43.5 -32.5 -43.5 -98.5 q0 -67 44 -100 q44 -33 131 -33 ZM300 391 q76 0 116.5 34 q40.5 34 40.5 94 q0 60 -40.5 93.5 q-40.5 33.5 -116.5 33.5 q-76 0 -116.5 -33.5 q-40.5 -33.5 -40.5 -93.5 q0 -60 40.5 -94 q40.5 -34 116.5 -34 Z" /><glyph glyph-name="nine" unicode="9" d="M253 -9 q-55 0 -111 23.5 q-56 23.5 -93 61.5 l31 65 q38 -39 83 -58 q45 -19 91 -19 q101 0 155.5 72.5 q54.5 72.5 54.5 217.5 l0 93 l10 0 q-6 -56 -34.5 -98 q-28.5 -42 -73 -64 q-44.5 -22 -99.5 -22 q-64 0 -113.5 28 q-49.5 28 -77.5 79 q-28 51 -28 115 q0 67 29.5 118.5 q29.5 51.5 81 81 q51.5 29.5 118.5 29.5 q129 0 198.5 -90 q69.5 -90 69.5 -254 q0 -121 -35 -206 q-35 -85 -100 -129 q-65 -44 -157 -44 ZM284 332 q46 0 81 20 q35 20 54.5 55 q19.5 35 19.5 81 q0 47 -19.5 82 q-19.5 35 -54.5 55 q-35 20 -81 20 q-46 0 -81.5 -20 q-35.5 -20 -55 -55 q-19.5 -35 -19.5 -82 q0 -46 19.5 -81 q19.5 -35 55 -55 q35.5 -20 81.5 -20 Z" /><glyph glyph-name="fraction" unicode="&#x2044;" d="M-91 -9 l-72 0 l429 723 l72 0 l-429 -723 Z" /><glyph glyph-name="period" unicode="." d="M63 0 l0 102 l102 0 l0 -102 l-102 0 Z" /><glyph glyph-name="comma" unicode="," d="M105 -114 l-38 29 q27 28 35.5 52.5 q8.5 24.5 8.5 49.5 l18 -17 l-66 0 l0 102 l102 0 l0 -72 q0 -40 -13 -75.5 q-13 -35.5 -47 -68.5 Z" /><glyph glyph-name="colon" unicode=":" d="M63 400 l0 102 l102 0 l0 -102 l-102 0 ZM63 0 l0 102 l102 0 l0 -102 l-102 0 Z" /><glyph glyph-name="semicolon" unicode=";" d="M105 -114 l-38 29 q27 28 35.5 52.5 q8.5 24.5 8.5 49.5 l26 -17 l-74 0 l0 102 l102 0 l0 -72 q0 -40 -13 -75.5 q-13 -35.5 -47 -68.5 ZM63 400 l0 102 l102 0 l0 -102 l-102 0 Z" /><glyph glyph-name="exclam" unicode="!" d="M89 184 l-25 521 l100 0 l-25 -521 l-50 0 ZM63 0 l0 102 l102 0 l0 -102 l-102 0 Z" /><glyph glyph-name="exclamdown" unicode="¡" d="M64 -180 l25 499 l50 0 l25 -499 l-100 0 ZM63 400 l0 102 l102 0 l0 -102 l-102 0 Z" /><glyph glyph-name="question" unicode="?" d="M172 184 l0 29 q0 51 19.5 95.5 q19.5 44.5 69.5 100.5 q39 43 55 75.5 q16 32.5 16 66.5 q0 43 -31 67.5 q-31 24.5 -86 24.5 q-39 0 -75 -10.5 q-36 -10.5 -69 -28.5 l0 75 q33 17 72.5 26 q39.5 9 79.5 9 q57 0 100 -18.5 q43 -18.5 67.5 -53 q24.5 -34.5 24.5 -84.5 q0 -32 -10 -61.5 q-10 -29.5 -31 -59 q-21 -29.5 -54 -64.5 q-49 -50 -69 -87.5 q-20 -37.5 -24 -76.5 l-3 -25 l-52 0 ZM146 0 l0 102 l103 0 l0 -102 l-103 0 Z" /><glyph glyph-name="questiondown" unicode="¿" d="M225 -209 q-57 0 -100.5 19 q-43.5 19 -68 54.5 q-24.5 35.5 -24.5 83.5 q0 33 9 61 q9 28 30 57.5 q21 29.5 56 65.5 q50 51 69.5 88 q19.5 37 24.5 77 l3 21 l52 0 l0 -26 q0 -50 -19.5 -95 q-19.5 -45 -70.5 -100 q-39 -44 -55 -76 q-16 -32 -16 -67 q0 -43 31.5 -67.5 q31.5 -24.5 86.5 -24.5 q39 0 75 10.5 q36 10.5 68 28.5 l0 -75 q-32 -16 -71.5 -25.5 q-39.5 -9.5 -79.5 -9.5 ZM301 502 l0 -103 l-102 0 l0 103 l102 0 Z" /><glyph glyph-name="periodcentered" unicode="·" d="M64 223 l0 102 l103 0 l0 -102 l-103 0 Z" /><glyph glyph-name="bullet" unicode="&#x2022;" d="M265 89 q-49 0 -91 23.5 q-42 23.5 -67 64.5 q-25 41 -25 91 q0 46 23.5 87 q23.5 41 65 66.5 q41.5 25.5 94.5 25.5 q49 0 90 -23.5 q41 -23.5 66.5 -63.5 q25.5 -40 25.5 -92 q0 -49 -24.5 -90 q-24.5 -41 -66 -65 q-41.5 -24 -91.5 -24 Z" /><glyph glyph-name="asterisk" unicode="*" d="M137 364 l-50 36 l98 127 l-154 45 l20 59 l150 -54 l-6 159 l63 0 l-5 -160 l151 55 l19 -59 l-153 -45 l98 -127 l-51 -36 l-89 133 l-91 -133 Z" /><glyph glyph-name="numbersign" unicode="#" d="M86 0 l37 182 l-93 0 l0 59 l103 0 l48 231 l-130 0 l0 59 l141 0 l35 174 l64 0 l-35 -174 l158 0 l35 174 l64 0 l-35 -174 l92 0 l0 -59 l-104 0 l-47 -231 l131 0 l0 -59 l-142 0 l-37 -182 l-65 0 l37 182 l-157 0 l-35 -182 l-65 0 ZM198 241 l157 0 l47 231 l-158 0 l-46 -231 Z" /><glyph glyph-name="slash" unicode="/" d="M47 -55 l-70 0 l262 803 l70 0 l-262 -803 Z" /><glyph glyph-name="backslash" unicode="\" d="M239 -55 l-262 803 l70 0 l262 -803 l-70 0 Z" /><glyph glyph-name="parenleft" unicode="(" d="M223 -180 q-41 75 -68 146.5 q-27 71.5 -39.5 144.5 q-12.5 73 -12.5 152 q0 79 12.5 152 q12.5 73 39.5 144.5 q27 71.5 68 145.5 l68 0 q-51 -112 -77.5 -221.5 q-26.5 -109.5 -26.5 -220.5 q0 -110 26.5 -220.5 q26.5 -110.5 77.5 -222.5 l-68 0 Z" /><glyph glyph-name="parenright" unicode=")" d="M94 -180 l-67 0 q51 112 77.5 222 q26.5 110 26.5 220 q0 111 -26.5 221 q-26.5 110 -77.5 222 l67 0 q43 -74 69.5 -145.5 q26.5 -71.5 39 -145 q12.5 -73.5 12.5 -152.5 q0 -78 -12.5 -151.5 q-12.5 -73.5 -39 -145 q-26.5 -71.5 -69.5 -145.5 Z" /><glyph glyph-name="braceleft" unicode="{" d="M249 -180 q-49 0 -75 26.5 q-26 26.5 -26 76.5 l0 226 q0 42 -16.5 60 q-16.5 18 -56.5 21 l-29 2 l0 62 l29 2 q39 2 56 20 q17 18 17 60 l0 226 q0 51 26 77 q26 26 75 26 l98 0 l0 -64 l-74 0 q-23 0 -34 -11.5 q-11 -11.5 -11 -34.5 l0 -227 q0 -30 -12.5 -55 q-12.5 -25 -33.5 -38.5 q-21 -13.5 -48 -13.5 l0 4 q27 0 48 -14 q21 -14 33.5 -38 q12.5 -24 12.5 -55 l0 -228 q0 -23 11 -34.5 q11 -11.5 34 -11.5 l74 0 l0 -64 l-98 0 Z" /><glyph glyph-name="braceright" unicode="}" d="M8 -180 l0 64 l74 0 q23 0 34 11.5 q11 11.5 11 34.5 l0 227 q0 31 12.5 55.5 q12.5 24.5 33.5 38 q21 13.5 47 13.5 l0 -4 q-26 0 -47 14 q-21 14 -33.5 39 q-12.5 25 -12.5 55 l0 227 q0 23 -11 34.5 q-11 11.5 -34 11.5 l-74 0 l0 64 l98 0 q49 0 75 -26 q26 -26 26 -77 l0 -226 q0 -41 16.5 -59.5 q16.5 -18.5 56.5 -20.5 l29 -2 l0 -63 l-29 -2 q-39 -2 -56 -20 q-17 -18 -17 -60 l0 -226 q0 -50 -26 -76.5 q-26 -26.5 -75 -26.5 l-98 0 Z" /><glyph glyph-name="bracketleft" unicode="[" d="M106 -180 l0 885 l203 0 l0 -64 l-123 0 l0 -757 l123 0 l0 -64 l-203 0 Z" /><glyph glyph-name="bracketright" unicode="]" d="M9 -180 l0 64 l121 0 l0 757 l-121 0 l0 64 l201 0 l0 -885 l-201 0 Z" /><glyph glyph-name="hyphen" unicode="-" d="M72 241 l0 67 l285 0 l0 -67 l-285 0 Z" /><glyph glyph-name="endash" unicode="&#x2013;" d="M0 248 l0 53 l505 0 l0 -53 l-505 0 Z" /><glyph glyph-name="emdash" unicode="&#x2014;" d="M0 248 l0 53 l1010 0 l0 -53 l-1010 0 Z" /><glyph glyph-name="figuredash" unicode="&#x2012;" d="M70 248 l0 53 l460 0 l0 -53 l-460 0 Z" /><glyph glyph-name="uni2015" unicode="&#x2015;" d="M0 248 l0 53 l1010 0 l0 -53 l-1010 0 Z" /><glyph glyph-name="underscore" unicode="_" d="M8 -53 l0 53 l489 0 l0 -53 l-489 0 Z" /><glyph glyph-name="quotesinglbase" unicode="&#x201a;" d="M106 -114 l-38 29 q24 25 34 48.5 q10 23.5 10 53.5 l25 -17 l-73 0 l0 102 l102 0 l0 -72 q0 -44 -14 -78.5 q-14 -34.5 -46 -65.5 Z" /><glyph glyph-name="quoteleft" unicode="&#x2018;" d="M63 495 l0 71 q0 41 13.5 76 q13.5 35 46.5 69 l39 -29 q-26 -29 -35.5 -52.5 q-9.5 -23.5 -9.5 -49.5 l-24 17 l72 0 l0 -102 l-102 0 Z" /><glyph glyph-name="quoteright" unicode="&#x2019;" d="M106 489 l-38 29 q27 28 35.5 52.5 q8.5 24.5 8.5 48.5 l25 -16 l-73 0 l0 102 l102 0 l0 -72 q0 -40 -13 -75 q-13 -35 -47 -69 Z" /><glyph glyph-name="guilsinglleft" unicode="&#x2039;" d="M154 88 l-127 180 l127 180 l71 0 l-118 -180 l118 -180 l-71 0 Z" /><glyph glyph-name="guilsinglright" unicode="&#x203a;" d="M108 88 l-71 0 l118 180 l-118 180 l71 0 l128 -180 l-128 -180 Z" /><glyph glyph-name="quotesingle" unicode="&#39;" d="M84 428 l-21 277 l95 0 l-19 -277 l-55 0 Z" /><glyph glyph-name="uni27E8" unicode="&#x27e8;" d="M338 0 l-123 352 l123 353 l47 0 l-122 -353 l122 -352 l-47 0 Z" /><glyph glyph-name="uni27E9" unicode="&#x27e9;" d="M215 0 l122 352 l-122 353 l47 0 l123 -353 l-123 -352 l-47 0 Z" /><glyph glyph-name="uni20B5" unicode="&#x20b5;" d="M316 -115 l0 130 l20 -18 q-85 4 -146.5 48 q-61.5 44 -94.5 122.5 q-33 78.5 -33 185.5 q0 107 33 185 q33 78 94.5 122 q61.5 44 146.5 48 l-20 -18 l0 130 l68 0 l0 -130 l-16 19 q32 0 68 -9.5 q36 -9.5 70 -29 q34 -19.5 60 -50.5 l-32 -65 q-35 42 -78.5 60.5 q-43.5 18.5 -95.5 18.5 q-103 0 -157.5 -74 q-54.5 -74 -54.5 -207 q0 -133 54.5 -207.5 q54.5 -74.5 157.5 -74.5 q52 0 95.5 18.5 q43.5 18.5 78.5 60.5 l32 -64 q-26 -32 -60 -51.5 q-34 -19.5 -70 -28.5 q-36 -9 -68 -10 l16 18 l0 -129 l-68 0 Z" /><glyph glyph-name="cent" unicode="¢" d="M282 -115 l0 131 l16 -22 q-61 7 -108 40 q-47 33 -73 87 q-26 54 -26 123 q0 66 25.5 119 q25.5 53 72 87 q46.5 34 109.5 40 l-16 -26 l0 142 l68 0 l0 -139 l-17 25 q48 0 95 -16.5 q47 -16.5 74 -46.5 l-27 -58 q-28 27 -64.5 41 q-36.5 14 -75.5 14 q-74 0 -117.5 -50 q-43.5 -50 -43.5 -132 q0 -83 43 -133 q43 -50 117 -50 q39 0 76 14 q37 14 65 40 l27 -57 q-29 -30 -75.5 -47.5 q-46.5 -17.5 -95.5 -17.5 l19 20 l0 -128 l-68 0 Z" /><glyph glyph-name="colonmonetary" unicode="&#x20a1;" d="M76 -115 l64 231 l5 -31 q-39 45 -61 112.5 q-22 67.5 -22 155.5 q0 106 31.5 182 q31.5 76 89.5 119.5 q58 43.5 136 50.5 l-18 -15 l36 130 l62 0 l-35 -126 l-7 15 q29 -1 59.5 -7 q30.5 -6 50.5 -16 l-13 -8 l39 142 l63 0 l-47 -165 l-10 19 q14 -7 32 -21 q18 -14 35 -33 l-32 -65 q-35 42 -78.5 60.5 q-43.5 18.5 -95.5 18.5 q-103 0 -157.5 -74 q-54.5 -74 -54.5 -207 q0 -135 55.5 -208.5 q55.5 -73.5 156.5 -73.5 q52 0 95.5 18.5 q43.5 18.5 78.5 60.5 l32 -64 q-38 -44 -93 -67 q-55 -23 -119 -23 q-26 0 -44 3 l20 12 l-35 -126 l-63 0 l37 135 l8 -15 q-26 6 -54.5 20.5 q-28.5 14.5 -46.5 31.5 l13 8 l-50 -180 l-63 0 Z" /><glyph glyph-name="currency" unicode="¤" d="M78 -26 l-43 44 l74 75 q-23 32 -36.5 71 q-13.5 39 -13.5 81 q0 43 13 82 q13 39 37 70 l-74 76 l43 43 l74 -76 q30 25 68 39 q38 14 80 14 q42 0 79 -13.5 q37 -13.5 68 -37.5 l72 75 l44 -45 l-73 -74 q24 -32 37.5 -71 q13.5 -39 13.5 -82 q0 -43 -13.5 -82 q-13.5 -39 -38.5 -71 l74 -74 l-43 -43 l-73 74 q-30 -24 -67.5 -38 q-37.5 -14 -79.5 -14 q-42 0 -80 14 q-38 14 -69 38 l-73 -75 ZM300 67 q46 0 84 24 q38 24 60 64.5 q22 40.5 22 89.5 q0 49 -22 89.5 q-22 40.5 -60 65 q-38 24.5 -84 23.5 q-46 0 -84.5 -24 q-38.5 -24 -61 -64.5 q-22.5 -40.5 -22.5 -89.5 q0 -49 22.5 -89.5 q22.5 -40.5 60.5 -64.5 q38 -24 85 -24 Z" /><glyph glyph-name="dollar" unicode="$" d="M276 -115 l0 127 l18 -17 q-72 1 -136 21.5 q-64 20.5 -112 62.5 l30 66 q48 -39 101 -58 q53 -19 124 -19 q86 0 128 33.5 q42 33.5 42 86.5 q0 43 -30.5 68.5 q-30.5 25.5 -100.5 40.5 l-100 21 q-91 20 -135 65.5 q-44 45.5 -44 120.5 q0 58 28.5 103.5 q28.5 45.5 79.5 72 q51 26.5 119 29.5 l-12 -14 l0 125 l68 0 l0 -125 l-13 14 q53 -2 108 -23 q55 -21 93 -63 l-28 -64 q-40 41 -89 59.5 q-49 18.5 -109 18.5 q-76 0 -121 -36 q-45 -36 -45 -95 q0 -46 28.5 -74 q28.5 -28 92.5 -41 l100 -22 q97 -20 144 -62.5 q47 -42.5 47 -114.5 q0 -57 -29 -99.5 q-29 -42.5 -79 -67 q-50 -24.5 -116 -29.5 l16 17 l0 -128 l-68 0 Z" /><glyph glyph-name="dong" unicode="&#x20ab;" d="M265 -9 q-62 0 -107.5 31 q-45.5 31 -70 88.5 q-24.5 57.5 -24.5 133.5 q0 77 24 133 q24 56 69.5 87 q45.5 31 108.5 31 q61 0 103.5 -31.5 q42.5 -31.5 60.5 -90.5 l-12 0 l0 201 l-150 0 l0 55 l150 0 l0 107 l81 0 l0 -107 l75 0 l0 -55 l-75 0 l0 -574 l-80 0 l0 114 l11 0 q-18 -59 -60.5 -91 q-42.5 -32 -103.5 -32 ZM79 -137 l0 55 l419 0 l0 -55 l-419 0 ZM281 57 q64 0 100.5 47 q36.5 47 36.5 139 q0 91 -36.5 139 q-36.5 48 -100.5 48 q-63 0 -100 -48 q-37 -48 -37 -139 q0 -92 36.5 -139 q36.5 -47 100.5 -47 Z" /><glyph glyph-name="Euro" unicode="&#x20ac;" d="M387 -9 q-72 0 -127.5 32 q-55.5 32 -91.5 93 q-36 61 -48 148 l13 -14 l-117 0 l0 54 l113 0 l-12 -13 q-3 29 -2.5 63 q0.5 34 2.5 60 l13 -12 l-114 0 l0 54 l122 0 l-18 -15 q12 88 48 148.5 q36 60.5 91.5 92.5 q55.5 32 127.5 32 q60 0 111 -22 q51 -22 87 -67 l-31 -61 q-32 42 -72.5 59.5 q-40.5 17.5 -88.5 17.5 q-74 0 -123 -49 q-49 -49 -66 -148 l-18 12 l191 0 l0 -54 l-194 0 l18 12 q-3 -25 -3 -59.5 q0 -34.5 3 -62.5 l-18 12 l194 0 l0 -54 l-184 0 l11 12 q17 -100 66 -149 q49 -49 123 -49 q48 0 88.5 18 q40.5 18 72.5 59 l31 -60 q-36 -46 -87 -68 q-51 -22 -111 -22 Z" /><glyph glyph-name="florin" unicode="&#x192;" d="M41 -189 l0 66 l47 0 q44 0 71.5 23 q27.5 23 40.5 82 l95 450 l17 -9 l-139 0 l0 63 l148 0 l-17 -14 l16 74 q16 81 62.5 124.5 q46.5 43.5 126.5 43.5 l48 0 l0 -68 l-42 0 q-47 0 -74.5 -22 q-27.5 -22 -40.5 -82 l-15 -70 l-12 14 l139 0 l0 -63 l-153 0 l18 10 l-97 -455 q-18 -80 -63.5 -123.5 q-45.5 -43.5 -123.5 -43.5 l-52 0 Z" /><glyph glyph-name="franc" unicode="&#x20a3;" d="M115 0 l0 143 l-76 0 l0 55 l76 0 l0 507 l433 0 l0 -68 l-351 0 l0 -237 l331 0 l0 -68 l-331 0 l0 -134 l213 0 l0 -55 l-213 0 l0 -143 l-82 0 Z" /><glyph glyph-name="uni20B2" unicode="&#x20b2;" d="M306 -115 l0 137 l19 -25 q-84 4 -145.5 48 q-61.5 44 -95 122.5 q-33.5 78.5 -33.5 185.5 q0 107 33.5 185 q33.5 78 95 122 q61.5 44 145.5 48 l-19 -18 l0 130 l68 0 l0 -130 l-16 19 q31 0 67 -9.5 q36 -9.5 70 -29 q34 -19.5 60 -50.5 l-32 -65 q-34 42 -78 60.5 q-44 18.5 -96 18.5 q-103 0 -157.5 -74 q-54.5 -74 -54.5 -207 q0 -134 54.5 -208.5 q54.5 -74.5 157.5 -74.5 q34 0 74.5 8.5 q40.5 8.5 75.5 26.5 l-22 -46 l0 246 l-145 0 l0 62 l218 0 l0 -318 q-38 -20 -87.5 -34 q-49.5 -14 -99.5 -19 l11 26 l0 -137 l-68 0 Z" /><glyph glyph-name="uni20B4" unicode="&#x20b4;" d="M286 -9 q-95 0 -148 39 q-53 39 -53 108 q0 33 14 63 q14 30 45 60 l3 -11 l-80 0 l0 54 l139 0 l-32 -9 l141 115 l4 -8 l-252 0 l0 54 l323 0 l-35 -10 q31 26 48.5 45 q17.5 19 24 37 q6.5 18 6.5 40 q0 37 -30 56 q-30 19 -87 19 q-53 0 -99 -17 q-46 -17 -90 -56 l-30 62 q49 41 110 61.5 q61 20.5 131 20.5 q85 0 132.5 -34.5 q47.5 -34.5 47.5 -97.5 q0 -36 -16.5 -68.5 q-16.5 -32.5 -55.5 -68.5 l-3 11 l86 0 l0 -54 l-148 0 l27 7 l-138 -115 l-2 10 l261 0 l0 -54 l-330 0 l34 9 q-66 -52 -66 -114 q0 -39 35 -61 q35 -22 101 -22 q56 0 107 20 q51 20 91 60 l30 -62 q-40 -40 -105 -64.5 q-65 -24.5 -141 -24.5 Z" /><glyph glyph-name="uni20AD" unicode="&#x20ad;" d="M113 0 l0 325 l-97 0 l0 55 l97 0 l0 325 l81 0 l0 -322 l2 0 l291 322 l90 0 l-297 -332 l0 7 l266 0 l0 -55 l-265 0 l0 9 l297 -334 l-92 0 l-290 323 l-2 0 l0 -323 l-81 0 Z" /><glyph glyph-name="lira" unicode="&#x20a4;" d="M46 0 l0 58 q48 19 75 46.5 q27 27.5 27 70.5 l0 76 l-102 0 l0 54 l102 0 l0 97 l-102 0 l0 55 l113 0 l-11 -17 l0 70 q0 65 24.5 110.5 q24.5 45.5 73.5 69.5 q49 24 122 24 q59 0 111 -20.5 q52 -20.5 90 -58.5 l-33 -63 q-38 37 -77 54.5 q-39 17.5 -91 17.5 q-69 0 -103 -33 q-34 -33 -34 -98 l0 -68 l-9 12 l195 0 l0 -54 l-186 0 l0 -98 l186 0 l0 -54 l-186 0 l0 -58 q0 -53 -23.5 -83.5 q-23.5 -30.5 -58.5 -45.5 l0 6 l414 0 l0 -70 l-517 0 Z" /><glyph glyph-name="uni20BA" unicode="&#x20ba;" d="M164 0 l0 250 l-99 -55 l0 60 l99 55 l0 100 l-99 -55 l0 62 l99 54 l0 234 l83 0 l0 -188 l181 101 l0 -61 l-181 -101 l0 -100 l181 101 l0 -61 l-181 -100 l0 -225 l116 0 q61 0 88 25 q27 25 27 83 l0 55 l78 0 l0 -60 q0 -89 -46.5 -131.5 q-46.5 -42.5 -144.5 -42.5 l-201 0 Z" /><glyph glyph-name="uni20BC" unicode="&#x20bc;" d="M59 0 l0 202 q0 83 12 152 q12 69 38.5 120.5 q26.5 51.5 69 82 q42.5 30.5 102.5 35.5 l-15 -19 l0 132 l68 0 l0 -132 l-15 19 q61 -5 103.5 -35.5 q42.5 -30.5 68.5 -82 q26 -51.5 38 -120.5 q12 -69 12 -152 l0 -202 l-73 0 l0 202 q0 97 -15.5 167.5 q-15.5 70.5 -47.5 110 q-32 39.5 -84 43.5 l8 7 l0 -370 l-58 0 l0 370 l8 -7 q-51 -4 -83 -43.5 q-32 -39.5 -47.5 -110 q-15.5 -70.5 -15.5 -167.5 l0 -202 l-74 0 Z" /><glyph glyph-name="uni20A6" unicode="&#x20a6;" d="M110 0 l0 250 l-94 0 l0 53 l94 0 l0 99 l-94 0 l0 54 l94 0 l0 249 l68 0 l263 -590 l-21 0 l0 590 l70 0 l0 -249 l94 0 l0 -54 l-94 0 l0 -99 l94 0 l0 -53 l-94 0 l0 -250 l-67 0 l-263 590 l20 0 l0 -590 l-70 0 Z" /><glyph glyph-name="peseta" unicode="&#x20a7;" d="M110 0 l0 450 l-94 0 l0 55 l94 0 l0 200 l166 0 q71 0 121.5 -25 q50.5 -25 78.5 -72.5 q28 -47.5 30 -115.5 l-19 13 l97 0 l0 -55 l-97 0 l19 16 q-3 -66 -31.5 -114.5 q-28.5 -48.5 -79 -74.5 q-50.5 -26 -119.5 -26 l-85 0 l0 -251 l-81 0 ZM188 312 l89 0 q52 0 87 17.5 q35 17.5 52.5 54.5 q17.5 37 17.5 94 q0 58 -17 94.5 q-17 36.5 -52 53.5 q-35 17 -88 17 l-89 0 l0 -331 Z" /><glyph glyph-name="uni20B1" unicode="&#x20b1;" d="M110 0 l0 374 l-94 0 l0 54 l94 0 l0 99 l-94 0 l0 54 l94 0 l0 124 l166 0 q84 0 139 -34 q55 -34 77 -101 l-22 11 l114 0 l0 -54 l-97 0 l14 6 q5 -27 5 -56.5 q0 -29.5 -6 -55.5 l-12 7 l96 0 l0 -54 l-113 0 l19 11 q-21 -64 -77.5 -99 q-56.5 -35 -136.5 -35 l-85 0 l0 -251 l-81 0 ZM188 312 l89 0 q52 0 87 17.5 q35 17.5 52.5 54.5 q17.5 37 17.5 94 q0 58 -17 94.5 q-17 36.5 -52 53.5 q-35 17 -88 17 l-89 0 l0 -331 Z" /><glyph glyph-name="uni20BD" unicode="&#x20bd;" d="M110 0 l0 151 l-94 0 l0 54 l94 0 l0 99 l-94 0 l0 54 l94 0 l0 347 l230 0 q74 0 126.5 -24.5 q52.5 -24.5 80 -70 q27.5 -45.5 27.5 -109.5 q0 -61 -28 -105 q-28 -44 -79 -68 q-51 -24 -120 -24 l-154 0 l0 -99 l176 0 l0 -54 l-176 0 l0 -151 l-83 0 ZM192 358 l143 0 q79 0 120 36 q41 36 41 105 q0 70 -41 105.5 q-41 35.5 -120 35.5 l-143 0 l0 -282 Z" /><glyph glyph-name="uni20B9" unicode="&#x20b9;" d="M442 0 l-148 225 q-17 28 -35 44 q-18 16 -40.5 23 q-22.5 7 -54.5 7 l-143 0 l0 62 l203 0 q88 0 131 36.5 q43 36.5 44 107.5 l13 -8 l-391 0 l0 54 l391 0 l-15 -12 q-8 55 -49.5 83.5 q-41.5 28.5 -115.5 28.5 l-211 0 l0 54 l558 0 l0 -54 l-208 0 l19 12 q38 -19 60 -51.5 q22 -32.5 27 -75.5 l-17 15 l119 0 l0 -54 l-116 0 l16 15 q3 -64 -24.5 -111 q-27.5 -47 -81 -72.5 q-53.5 -25.5 -130.5 -25.5 l0 9 l16 0 q38 0 68.5 -18 q30.5 -18 59.5 -63 l153 -231 l-98 0 Z" /><glyph glyph-name="sterling" unicode="£" d="M46 0 l0 58 q48 19 75 46.5 q27 27.5 27 70.5 l0 151 l-102 0 l0 55 l102 0 l0 129 q0 65 24.5 110.5 q24.5 45.5 73.5 69.5 q49 24 123 24 q59 0 111 -20.5 q52 -20.5 90 -58.5 l-33 -63 q-34 37 -75.5 54.5 q-41.5 17.5 -93.5 17.5 q-69 0 -103 -33 q-34 -33 -34 -98 l0 -132 l185 0 l0 -55 l-185 0 l0 -127 q0 -55 -23 -87 q-23 -32 -61 -48 l0 6 l416 0 l0 -70 l-517 0 Z" /><glyph glyph-name="uni20B8" unicode="&#x20b8;" d="M259 0 l0 498 l-244 0 l0 54 l570 0 l0 -54 l-243 0 l0 -498 l-83 0 ZM15 651 l0 54 l570 0 l0 -54 l-570 0 Z" /><glyph glyph-name="uni20AE" unicode="&#x20ae;" d="M259 0 l0 198 l-141 -76 l0 58 l141 76 l0 107 l-141 -76 l0 58 l141 75 l0 215 l-242 0 l0 70 l566 0 l0 -70 l-241 0 l0 -173 l140 76 l0 -58 l-140 -75 l0 -108 l140 76 l0 -58 l-140 -75 l0 -240 l-83 0 Z" /><glyph glyph-name="uni20A9" unicode="&#x20a9;" d="M152 0 l-34 252 l-102 0 l0 54 l95 0 l-13 99 l-82 0 l0 54 l75 0 l-32 246 l62 0 l73 -630 l-19 0 l101 630 l48 0 l101 -630 l-19 0 l74 630 l62 0 l-32 -246 l74 0 l0 -54 l-82 0 l-13 -99 l95 0 l0 -54 l-102 0 l-34 -252 l-57 0 l-105 625 l29 0 l-106 -625 l-57 0 Z" /><glyph glyph-name="yen" unicode="¥" d="M259 0 l0 178 l-187 0 l0 54 l187 0 l0 99 l-187 0 l0 54 l161 0 l0 -11 l-238 331 l92 0 l224 -315 l-21 0 l223 315 l92 0 l-237 -331 l0 11 l160 0 l0 -54 l-187 0 l0 -99 l187 0 l0 -54 l-187 0 l0 -178 l-82 0 Z" /><glyph glyph-name="periodcentered" unicode="&#x2219;" d="M250 215 l0 102 l101 0 l0 -102 l-101 0 Z" /><glyph glyph-name="uni2052" unicode="&#x2052;" d="M195 -50 l-73 0 l287 795 l73 0 l-287 -795 ZM390 42 l0 102 l103 0 l0 -102 l-103 0 ZM108 561 l0 102 l102 0 l0 -102 l-102 0 Z" /><glyph glyph-name="fraction" unicode="&#x2215;" d="M197 -50 l-74 0 l281 795 l73 0 l-280 -795 Z" /><glyph glyph-name="plus" unicode="+" d="M268 38 l0 218 l-215 0 l0 62 l215 0 l0 213 l64 0 l0 -213 l215 0 l0 -62 l-215 0 l0 -218 l-64 0 Z" /><glyph glyph-name="minus" unicode="&#x2212;" d="M53 256 l0 62 l494 0 l0 -62 l-494 0 Z" /><glyph glyph-name="multiply" unicode="×" d="M109 50 l-44 43 l191 192 l-191 191 l44 43 l191 -190 l191 190 l44 -43 l-191 -191 l191 -192 l-44 -43 l-191 190 l-191 -190 Z" /><glyph glyph-name="divide" unicode="÷" d="M53 256 l0 62 l494 0 l0 -62 l-494 0 ZM252 45 l0 86 l86 0 l0 -86 l-86 0 ZM252 443 l0 86 l86 0 l0 -86 l-86 0 Z" /><glyph glyph-name="equal" unicode="=" d="M53 356 l0 62 l494 0 l0 -62 l-494 0 ZM53 157 l0 61 l494 0 l0 -61 l-494 0 Z" /><glyph glyph-name="notequal" unicode="&#x2260;" d="M213 21 l-56 25 l47 111 l-151 0 l0 61 l177 0 l59 138 l-236 0 l0 62 l261 0 l59 135 l56 -23 l-47 -112 l165 0 l0 -62 l-192 0 l-57 -138 l249 0 l0 -61 l-276 0 l-58 -136 Z" /><glyph glyph-name="greater" unicode="&gt;" d="M54 34 l0 70 l460 203 l0 -40 l-460 204 l0 69 l493 -221 l0 -64 l-493 -221 Z" /><glyph glyph-name="less" unicode="&lt;" d="M547 34 l-494 221 l0 64 l494 221 l0 -69 l-461 -204 l0 40 l461 -203 l0 -70 Z" /><glyph glyph-name="greaterequal" unicode="&#x2265;" d="M53 115 l0 68 l461 164 l0 -41 l-461 163 l0 68 l494 -179 l0 -64 l-494 -179 ZM53 0 l0 62 l494 0 l0 -62 l-494 0 Z" /><glyph glyph-name="lessequal" unicode="&#x2264;" d="M547 115 l-493 179 l0 64 l493 179 l0 -68 l-460 -163 l0 41 l460 -164 l0 -68 ZM53 0 l0 62 l494 0 l0 -62 l-494 0 Z" /><glyph glyph-name="plusminus" unicode="±" d="M268 127 l0 170 l-215 0 l0 62 l215 0 l0 170 l64 0 l0 -170 l215 0 l0 -62 l-215 0 l0 -170 l-64 0 ZM53 0 l0 62 l494 0 l0 -62 l-494 0 Z" /><glyph glyph-name="approxequal" unicode="&#x2248;" d="M417 317 q-26 0 -55.5 9.5 q-29.5 9.5 -72.5 32.5 q-40 23 -61.5 30.5 q-21.5 7.5 -38.5 7.5 q-56 0 -84 -65 l-51 27 q20 48 53 73.5 q33 25.5 77 25.5 q26 0 54 -9.5 q28 -9.5 71 -31.5 q39 -20 61.5 -30 q22.5 -10 41.5 -10 q56 0 84 66 l51 -28 q-20 -48 -53 -73 q-33 -25 -77 -25 ZM417 117 q-26 0 -55.5 9.5 q-29.5 9.5 -72.5 32.5 q-40 23 -61.5 30.5 q-21.5 7.5 -38.5 7.5 q-56 0 -84 -65 l-51 27 q20 48 53 73.5 q33 25.5 77 25.5 q26 0 54 -9.5 q28 -9.5 71 -31.5 q39 -20 61.5 -30 q22.5 -10 41.5 -10 q56 0 84 66 l51 -28 q-20 -48 -53 -73 q-33 -25 -77 -25 Z" /><glyph glyph-name="asciitilde" unicode="~" d="M417 217 q-26 0 -55.5 9.5 q-29.5 9.5 -72.5 32.5 q-41 23 -62.5 30.5 q-21.5 7.5 -38.5 7.5 q-56 0 -84 -65 l-51 27 q20 48 53.5 73.5 q33.5 25.5 76.5 25.5 q26 0 54.5 -9.5 q28.5 -9.5 71.5 -31.5 q39 -20 61.5 -30 q22.5 -10 41.5 -10 q56 0 84 66 l51 -28 q-20 -48 -53 -73 q-33 -25 -77 -25 Z" /><glyph glyph-name="logicalnot" unicode="¬" d="M483 148 l0 210 l-430 0 l0 62 l494 0 l0 -272 l-64 0 Z" /><glyph glyph-name="asciicircum" unicode="^" d="M46 142 l222 486 l63 0 l223 -486 l-67 0 l-208 453 l40 0 l-206 -453 l-67 0 Z" /><glyph glyph-name="emptyset" unicode="&#x2205;" d="M77 -24 l-47 31 l77 102 q-47 38 -75 93 q-28 55 -28 120 q0 56 22.5 107 q22.5 51 62.5 91 q40 40 94 63 q54 23 118 23 q42 0 82.5 -11 q40.5 -11 74.5 -32 l78 101 l46 -35 l-78 -101 q42 -37 67 -90 q25 -53 25 -116 q0 -58 -23 -109 q-23 -51 -63.5 -90 q-40.5 -39 -94 -61 q-53.5 -22 -114.5 -22 q-39 0 -76.5 10.5 q-37.5 10.5 -70.5 27.5 l-77 -102 ZM142 154 l281 363 q-26 15 -57 23.5 q-31 8.5 -65 8.5 q-66 0 -118.5 -29.5 q-52.5 -29.5 -83.5 -80.5 q-31 -51 -31 -117 q0 -50 19.5 -93.5 q19.5 -43.5 54.5 -74.5 ZM301 94 q63 0 116 29.5 q53 29.5 85 81 q32 51.5 32 117.5 q0 47 -17.5 88 q-17.5 41 -47.5 72 l-280 -360 q24 -13 52.5 -20.5 q28.5 -7.5 59.5 -7.5 Z" /><glyph glyph-name="infinity" unicode="&#x221e;" d="M171 142 q-62 0 -98 40.5 q-36 40.5 -36 101.5 q0 60 36 101 q36 41 98 41 q34 0 69 -19 q35 -19 60 -63 q25 44 61 63 q36 19 69 19 q62 0 98 -41 q36 -41 36 -101 q0 -61 -36 -101.5 q-36 -40.5 -98 -40.5 q-33 0 -69 19 q-36 19 -61 62 q-24 -43 -59.5 -62 q-35.5 -19 -69.5 -19 ZM174 197 q26 0 53.5 17.5 q27.5 17.5 49.5 70.5 q-22 52 -49.5 69.5 q-27.5 17.5 -53.5 17.5 q-38 0 -58 -25.5 q-20 -25.5 -20 -62.5 q0 -37 20 -62 q20 -25 58 -25 ZM427 197 q37 0 57.5 25 q20.5 25 20.5 62 q0 37 -20.5 62.5 q-20.5 25.5 -57.5 25.5 q-26 0 -53.5 -17.5 q-27.5 -17.5 -49.5 -69.5 q22 -53 49.5 -70.5 q27.5 -17.5 53.5 -17.5 Z" /><glyph glyph-name="integral" unicode="&#x222b;" d="M214 -186 q-19 0 -40 3.5 q-21 3.5 -35 9.5 l0 68 q12 -4 27.5 -8 q15.5 -4 33.5 -4 q34 0 53.5 18.5 q19.5 18.5 19.5 65.5 l0 604 q0 73 36 111 q36 38 103 38 q20 0 40.5 -3.5 q20.5 -3.5 34.5 -9.5 l0 -68 q-12 4 -27.5 7.5 q-15.5 3.5 -32.5 3.5 q-34 0 -53.5 -19 q-19.5 -19 -19.5 -65 l0 -604 q0 -72 -36.5 -110 q-36.5 -38 -103.5 -38 Z" /><glyph glyph-name="Omega" unicode="&#x2126;" d="M36 0 l0 69 l179 0 l0 -21 q-86 58 -127.5 146 q-41.5 88 -41.5 202 q0 97 29 168 q29 71 86 110.5 q57 39.5 138 39.5 q83 0 140 -39 q57 -39 86 -110 q29 -71 29 -169 q0 -114 -41.5 -202 q-41.5 -88 -128.5 -146 l0 21 l180 0 l0 -69 l-222 0 l0 67 q70 65 100 146.5 q30 81.5 30 177.5 q0 84 -19 140 q-19 56 -57.5 84 q-38.5 28 -96.5 28 q-56 0 -94 -28.5 q-38 -28.5 -57 -84.5 q-19 -56 -19 -139 q0 -96 29 -177.5 q29 -81.5 99 -146.5 l0 -67 l-221 0 Z" /><glyph glyph-name="Delta" unicode="&#x2206;" d="M30 0 l0 54 l236 651 l68 0 l236 -651 l0 -54 l-540 0 ZM299 602 l-201 -568 l0 35 l404 0 l0 -35 l-201 568 l-2 0 Z" /><glyph glyph-name="product" unicode="&#x220f;" d="M50 -180 l0 885 l500 0 l0 -885 l-77 0 l0 817 l-346 0 l0 -817 l-77 0 Z" /><glyph glyph-name="radical" unicode="&#x221a;" d="M248 -180 l-160 456 l43 -26 l-127 0 l0 66 l146 0 l148 -437 l-26 0 l253 879 l74 0 l-275 -938 l-76 0 Z" /><glyph glyph-name="mu" unicode="µ" d="M74 -208 l0 710 l81 0 l0 -314 q0 -67 27.5 -97.5 q27.5 -30.5 85.5 -30.5 q65 0 105.5 41.5 q40.5 41.5 40.5 111.5 l0 289 l81 0 l0 -502 l-79 0 l0 112 l8 0 q-17 -58 -59 -89.5 q-42 -31.5 -98 -31.5 q-44 0 -78 16 q-34 16 -52 60 l11 0 l7 -275 l-81 0 Z" /><glyph glyph-name="partialdiff" unicode="&#x2202;" d="M297 -9 q-72 0 -126 30.5 q-54 30.5 -84 84.5 q-30 54 -30 125 q0 71 29 125 q29 54 81.5 85 q52.5 31 121.5 31 q68 0 116.5 -30 q48.5 -30 71.5 -90 l-11 0 q-2 99 -34.5 171.5 q-32.5 72.5 -92.5 112 q-60 39.5 -147 39.5 l-46 0 l0 61 q17 3 32 4.5 q15 1.5 36 1.5 q80 0 142.5 -30.5 q62.5 -30.5 105.5 -87.5 q43 -57 64.5 -136 q21.5 -79 21.5 -176 q0 -103 -29.5 -174.5 q-29.5 -71.5 -85.5 -109 q-56 -37.5 -136 -37.5 ZM302 56 q73 0 117 52.5 q44 52.5 44 142.5 q0 47 -21 82 q-21 35 -58 55 q-37 20 -84 20 q-74 0 -117.5 -48.5 q-43.5 -48.5 -43.5 -126.5 q0 -80 44 -128.5 q44 -48.5 119 -48.5 Z" /><glyph glyph-name="percent" unicode="%" d="M296 0 l-73 0 l419 705 l73 0 l-419 -705 ZM225 282 q-81 0 -127.5 57.5 q-46.5 57.5 -46.5 158.5 q0 102 47 158.5 q47 56.5 127 56.5 q81 0 127.5 -56.5 q46.5 -56.5 46.5 -158.5 q0 -101 -46.5 -158.5 q-46.5 -57.5 -127.5 -57.5 ZM225 340 q49 0 76.5 39.5 q27.5 39.5 27.5 118.5 q0 80 -27.5 119 q-27.5 39 -76.5 39 q-48 0 -75.5 -39 q-27.5 -39 -27.5 -119 q0 -80 27.5 -119 q27.5 -39 75.5 -39 ZM713 -9 q-82 0 -128.5 57 q-46.5 57 -46.5 160 q0 102 47 158 q47 56 128 56 q81 0 127.5 -56.5 q46.5 -56.5 46.5 -157.5 q0 -102 -46.5 -159.5 q-46.5 -57.5 -127.5 -57.5 ZM713 49 q48 0 75.5 39.5 q27.5 39.5 27.5 119.5 q0 79 -27.5 118 q-27.5 39 -75.5 39 q-49 0 -76 -39 q-27 -39 -27 -118 q0 -81 27 -120 q27 -39 76 -39 Z" /><glyph glyph-name="perthousand" unicode="&#x2030;" d="M1115 -9 q-81 0 -127.5 57 q-46.5 57 -46.5 160 q0 102 47 158 q47 56 127 56 q81 0 127.5 -56.5 q46.5 -56.5 46.5 -157.5 q0 -102 -46.5 -159.5 q-46.5 -57.5 -127.5 -57.5 ZM1115 49 q48 0 75.5 39.5 q27.5 39.5 27.5 119.5 q0 79 -27.5 118 q-27.5 39 -75.5 39 q-48 0 -75.5 -39 q-27.5 -39 -27.5 -118 q0 -81 27.5 -120 q27.5 -39 75.5 -39 ZM223 0 l419 705 l73 0 l-419 -705 l-73 0 ZM225 282 q-81 0 -127.5 57.5 q-46.5 57.5 -46.5 158.5 q0 102 47 158.5 q47 56.5 127 56.5 q81 0 127.5 -56.5 q46.5 -56.5 46.5 -158.5 q0 -101 -46.5 -158.5 q-46.5 -57.5 -127.5 -57.5 ZM225 340 q49 0 76.5 39.5 q27.5 39.5 27.5 118.5 q0 80 -27.5 119 q-27.5 39 -76.5 39 q-48 0 -75.5 -39 q-27.5 -39 -27.5 -119 q0 -80 27.5 -119 q27.5 -39 75.5 -39 ZM713 -9 q-82 0 -128.5 57 q-46.5 57 -46.5 160 q0 102 47 158 q47 56 128 56 q81 0 127.5 -56.5 q46.5 -56.5 46.5 -157.5 q0 -102 -46.5 -159.5 q-46.5 -57.5 -127.5 -57.5 ZM713 49 q48 0 75.5 39.5 q27.5 39.5 27.5 119.5 q0 79 -27.5 118 q-27.5 39 -75.5 39 q-49 0 -76 -39 q-27 -39 -27 -118 q0 -81 27 -120 q27 -39 76 -39 Z" /><glyph glyph-name="lozenge" unicode="&#x25ca;" d="M268 -200 l-220 479 l220 479 l64 0 l220 -479 l-220 -479 l-64 0 ZM300 -123 l184 402 l-184 402 l-184 -402 l184 -402 Z" /><glyph glyph-name="uniF8FF" unicode="&#xf8ff;" d="M139 1 l71 225 l-191 144 l237 0 l74 225 l77 -225 l238 0 l-192 -144 l71 -225 l-194 135 l-191 -135 ZM265 199 l28 0 l0 87 l-5 -2 l34 -64 l23 0 l35 64 l-5 2 l0 -87 l28 0 l0 131 l-27 0 l-45 -86 l7 0 l-46 86 l-27 0 l0 -131 Z" /><glyph glyph-name="at" unicode="@" d="M496 -163 q-98 0 -178 30.5 q-80 30.5 -137 87.5 q-57 57 -88 137.5 q-31 80.5 -31 179.5 q0 99 32 180 q32 81 92 139.5 q60 58.5 142 90.5 q82 32 181 32 q120 0 209.5 -46 q89.5 -46 139.5 -129.5 q50 -83.5 50 -195.5 q0 -86 -25 -150 q-25 -64 -69 -99 q-44 -35 -104 -35 q-60 0 -91 34.5 q-31 34.5 -26 93.5 l18 -5 q-26 -60 -72.5 -91.5 q-46.5 -31.5 -99.5 -31.5 q-79 0 -122.5 48.5 q-43.5 48.5 -43.5 133.5 q0 74 28.5 131.5 q28.5 57.5 78.5 90 q50 32.5 114 32.5 q57 0 92.5 -27 q35.5 -27 46.5 -76 l-12 0 l17 94 l66 0 l-46 -259 q-2 -13 -3.5 -25 q-1.5 -12 -1.5 -22 q0 -33 15.5 -50 q15.5 -17 46.5 -17 q40 0 70 29 q30 29 47 80.5 q17 51.5 17 120.5 q0 96 -42 166.5 q-42 70.5 -118.5 109 q-76.5 38.5 -179.5 38.5 q-115 0 -201.5 -48 q-86.5 -48 -134 -134.5 q-47.5 -86.5 -47.5 -202.5 q0 -118 45 -203 q45 -85 128.5 -130.5 q83.5 -45.5 196.5 -45.5 q83 0 151 25.5 q68 25.5 112 72.5 l33 -49 q-49 -51 -126.5 -78 q-77.5 -27 -169.5 -27 ZM448 117 q46 0 82 26.5 q36 26.5 56.5 73.5 q20.5 47 20.5 107 q0 57 -25 85 q-25 28 -79 28 q-46 0 -82.5 -25 q-36.5 -25 -57.5 -69 q-21 -44 -21 -102 q0 -60 27.5 -92 q27.5 -32 78.5 -32 Z" /><glyph glyph-name="ampersand" unicode="&amp;" d="M652 -9 q-46 21 -86 51.5 q-40 30.5 -68 59.5 l20 -1 q-43 -52 -104 -81 q-61 -29 -133 -29 q-72 0 -123.5 22.5 q-51.5 22.5 -79 62.5 q-27.5 40 -27.5 93 q0 69 40 117 q40 48 114 96 l33 21 l-12 -15 q-47 50 -68.5 89.5 q-21.5 39.5 -21.5 81.5 q0 46 22 81 q22 35 61.5 54.5 q39.5 19.5 93.5 19.5 q68 0 113.5 -38.5 q45.5 -38.5 45.5 -104.5 q0 -36 -14.5 -67.5 q-14.5 -31.5 -48.5 -62 q-34 -30.5 -92 -66.5 l2 19 l194 -210 l-18 0 q26 41 40.5 101.5 q14.5 60.5 16.5 127.5 l71 0 q-2 -83 -23 -154.5 q-21 -71.5 -56 -126.5 l-2 24 q26 -28 63 -56.5 q37 -28.5 80 -48.5 l-33 -60 ZM284 57 q60 0 106.5 24 q46.5 24 81.5 70 l-2 -23 l-217 232 l31 -1 l-31 -19 q-42 -28 -69 -53 q-27 -25 -40 -52 q-13 -27 -13 -61 q0 -55 39.5 -86 q39.5 -31 113.5 -31 ZM313 653 q-45 0 -73 -25.5 q-28 -25.5 -28 -67.5 q0 -22 7.5 -41 q7.5 -19 25.5 -41.5 q18 -22.5 48 -56.5 l-22 -3 q69 42 100.5 75.5 q31.5 33.5 31.5 73.5 q0 39 -24.5 62.5 q-24.5 23.5 -65.5 23.5 Z" /><glyph glyph-name="paragraph" unicode="¶" d="M249 -180 l0 490 q-62 0 -108 25.5 q-46 25.5 -71 70 q-25 44.5 -25 102.5 q0 58 25 102.5 q25 44.5 71.5 69.5 q46.5 25 109.5 25 l260 0 l0 -885 l-65 0 l0 823 l-132 0 l0 -823 l-65 0 Z" /><glyph glyph-name="section" unicode="§" d="M247 -189 q-65 0 -118.5 17 q-53.5 17 -87.5 47 l28 58 q21 -18 50.5 -31.5 q29.5 -13.5 63 -21 q33.5 -7.5 67.5 -7.5 q62 0 100 29 q38 29 38 83 q0 38 -20.5 65.5 q-20.5 27.5 -73.5 51.5 l-113 51 q-55 26 -87 51.5 q-32 25.5 -45.5 55.5 q-13.5 30 -13.5 66 q0 42 21 80 q21 38 56 63 l-7 -24 q-12 15 -20 36.5 q-8 21.5 -8 52.5 q0 57 28 96.5 q28 39.5 77 61 q49 21.5 112 21.5 q61 0 112 -16 q51 -16 84 -46 l-28 -57 q-32 27 -78 42 q-46 15 -92 15 q-60 0 -97.5 -29 q-37.5 -29 -37.5 -83 q0 -37 21 -64.5 q21 -27.5 73 -51.5 l113 -52 q55 -25 87 -51 q32 -26 45.5 -55.5 q13.5 -29.5 13.5 -66.5 q0 -41 -21 -79.5 q-21 -38.5 -56 -62.5 l7 23 q12 -14 20 -36 q8 -22 8 -53 q0 -56 -28 -96 q-28 -40 -77.5 -61.5 q-49.5 -21.5 -115.5 -21.5 ZM110 338 q0 -36 23 -64.5 q23 -28.5 87 -57.5 l96 -44 q38 -18 63.5 -36 q25.5 -18 39.5 -37 l-24 -1 q41 36 41 89 q0 36 -24 64.5 q-24 28.5 -86 56.5 l-97 45 q-37 18 -63 36.5 q-26 18.5 -40 36.5 l24 1 q-19 -17 -29.5 -40 q-10.5 -23 -10.5 -49 Z" /><glyph glyph-name="copyright" unicode="©" d="M408 -9 q-76 0 -142.5 27.5 q-66.5 27.5 -115.5 76.5 q-49 49 -76.5 115.5 q-27.5 66.5 -27.5 142.5 q0 77 27.5 142.5 q27.5 65.5 76.5 114.5 q49 49 115 76.5 q66 27.5 143 27.5 q77 0 143 -27.5 q66 -27.5 114.5 -76.5 q48.5 -49 76 -114.5 q27.5 -65.5 27.5 -142.5 q0 -76 -27.5 -142.5 q-27.5 -66.5 -76.5 -115.5 q-49 -49 -114.5 -76.5 q-65.5 -27.5 -142.5 -27.5 ZM421 137 q-97 0 -152.5 60 q-55.5 60 -55.5 158 q0 99 55.5 156 q55.5 57 152.5 57 q40 0 79 -14 q39 -14 64 -39 l-24 -52 q-26 24 -56 35 q-30 11 -60 11 q-65 0 -102 -40.5 q-37 -40.5 -37 -114.5 q0 -72 37 -114.5 q37 -42.5 102 -42.5 q30 0 60 11 q30 11 56 35 l24 -53 q-25 -24 -64.5 -38.5 q-39.5 -14.5 -78.5 -14.5 ZM408 35 q67 0 124.5 24 q57.5 24 100 67.5 q42.5 43.5 66.5 101 q24 57.5 24 125.5 q0 68 -24 125.5 q-24 57.5 -66.5 100.5 q-42.5 43 -100 67 q-57.5 24 -124.5 24 q-68 0 -125.5 -24 q-57.5 -24 -100 -67 q-42.5 -43 -66.5 -100.5 q-24 -57.5 -24 -125.5 q0 -68 24 -125.5 q24 -57.5 66.5 -101 q42.5 -43.5 100.5 -67.5 q58 -24 125 -24 Z" /><glyph glyph-name="registered" unicode="®" d="M408 -9 q-76 0 -142.5 27.5 q-66.5 27.5 -115.5 76.5 q-49 49 -76.5 115.5 q-27.5 66.5 -27.5 142.5 q0 77 27.5 142.5 q27.5 65.5 76.5 114.5 q49 49 115 76.5 q66 27.5 143 27.5 q77 0 143 -27.5 q66 -27.5 114.5 -76.5 q48.5 -49 76 -114.5 q27.5 -65.5 27.5 -142.5 q0 -76 -27.5 -142.5 q-27.5 -66.5 -76.5 -115.5 q-49 -49 -114.5 -76.5 q-65.5 -27.5 -142.5 -27.5 ZM408 35 q67 0 124.5 24 q57.5 24 100 67.5 q42.5 43.5 66.5 101 q24 57.5 24 125.5 q0 68 -24 125.5 q-24 57.5 -66.5 100.5 q-42.5 43 -100 67 q-57.5 24 -124.5 24 q-68 0 -125.5 -24 q-57.5 -24 -100 -67 q-42.5 -43 -66.5 -100.5 q-24 -57.5 -24 -125.5 q0 -68 24 -125.5 q24 -57.5 66.5 -101 q42.5 -43.5 100.5 -67.5 q58 -24 125 -24 ZM264 142 l0 422 l171 0 q68 0 104.5 -32.5 q36.5 -32.5 36.5 -89.5 q0 -58 -36.5 -88.5 q-36.5 -30.5 -102.5 -30.5 l12 10 q31 0 51.5 -13.5 q20.5 -13.5 32.5 -49.5 l48 -128 l-69 0 l-48 130 q-9 25 -27.5 33.5 q-18.5 8.5 -44.5 8.5 l-75 0 l13 10 l0 -182 l-66 0 ZM330 368 l97 0 q42 0 63 17 q21 17 21 54 q0 37 -20.5 54 q-20.5 17 -63.5 17 l-97 0 l0 -142 Z" /><glyph glyph-name="trademark" unicode="&#x2122;" d="M147 284 l0 359 l-139 0 l0 62 l352 0 l0 -62 l-139 0 l0 -359 l-74 0 ZM424 284 l0 421 l60 0 l161 -295 l-21 0 l161 295 l59 0 l0 -421 l-66 0 l0 325 l17 0 l-141 -257 l-40 0 l-142 257 l18 0 l0 -325 l-66 0 Z" /><glyph glyph-name="degree" unicode="°" d="M186 418 q-42 0 -76 20 q-34 20 -53.5 53 q-19.5 33 -19.5 75 q0 42 19.5 75.5 q19.5 33.5 53.5 53 q34 19.5 76 19.5 q42 0 75 -19.5 q33 -19.5 52.5 -52.5 q19.5 -33 19.5 -76 q0 -42 -19.5 -75.5 q-19.5 -33.5 -52.5 -53 q-33 -19.5 -75 -19.5 ZM186 473 q40 0 64.5 26.5 q24.5 26.5 24.5 66.5 q0 41 -24.5 67 q-24.5 26 -64.5 26 q-39 0 -64.5 -26 q-25.5 -26 -25.5 -67 q0 -40 25 -66.5 q25 -26.5 65 -26.5 Z" /><glyph glyph-name="minute" unicode="&#x2032;" d="M84 428 l-21 277 l95 0 l-19 -277 l-55 0 Z" /><glyph glyph-name="bar" unicode="|" d="M92 -186 l0 897 l81 0 l0 -897 l-81 0 Z" /><glyph glyph-name="brokenbar" unicode="¦" d="M92 372 l0 339 l81 0 l0 -339 l-81 0 ZM92 -186 l0 339 l81 0 l0 -339 l-81 0 Z" /><glyph glyph-name="dagger" unicode="&#x2020;" d="M132 157 l0 375 l-112 0 l0 55 l112 0 l0 118 l61 0 l0 -118 l112 0 l0 -55 l-112 0 l0 -375 l-61 0 Z" /><glyph glyph-name="uni2113" unicode="&#x2113;" d="M327 -9 q-58 0 -90 33.5 q-32 33.5 -32 93.5 l0 148 l14 -11 l-73 -80 l-34 33 l93 104 l0 262 q0 42 15 73.5 q15 31.5 42.5 49 q27.5 17.5 65.5 17.5 q46 0 74 -27 q28 -27 28 -85 q0 -60 -28 -118.5 q-28 -58.5 -94 -141.5 l-28 -34 l0 -175 q0 -38 15 -57.5 q15 -19.5 44 -19.5 q21 0 41 9 q20 9 45 36 l29 -50 q-26 -30 -60 -45 q-34 -15 -67 -15 ZM280 385 q5 6 9 11 q4 5 7 11 q40 53 59 99 q19 46 19 89 q0 59 -40 59 q-25 0 -39.5 -20.5 q-14.5 -20.5 -14.5 -53.5 l0 -195 Z" /><glyph glyph-name="daggerdbl" unicode="&#x2021;" d="M131 157 l0 117 l-111 0 l0 55 l111 0 l0 204 l-111 0 l0 55 l111 0 l0 117 l62 0 l0 -117 l111 0 l0 -55 l-111 0 l0 -204 l111 0 l0 -55 l-111 0 l0 -117 l-62 0 Z" /><glyph glyph-name="estimated" unicode="&#x212e;" d="M448 -5 q-95 0 -169 28 q-74 28 -125 77 q-51 49 -77.5 112 q-26.5 63 -26.5 133 q0 70 27 135.5 q27 65.5 78.5 117 q51.5 51.5 124.5 82 q73 30.5 166 30.5 q115 0 191.5 -33 q76.5 -33 122 -88.5 q45.5 -55.5 65 -122.5 q19.5 -67 19.5 -135 l-643 0 q-5 0 -5 -6 l0 -172 q0 -7 1.5 -15.5 q1.5 -8.5 5.5 -13.5 q40 -48 102 -72.5 q62 -24.5 140 -24.5 q85 0 146.5 29 q61.5 29 112.5 78 l71 0 q-39 -47 -83.5 -78 q-44.5 -31 -103 -46 q-58.5 -15 -140.5 -15 ZM201 362 l492 0 q5 0 5 6 l0 188 q0 14 -10 26 q-34 41 -78 61.5 q-44 20.5 -88 28 q-44 7.5 -79 7.5 q-58 0 -121.5 -21 q-63.5 -21 -116.5 -74 q-9 -9 -9 -27 l0 -189 q0 -6 5 -6 Z" /><glyph glyph-name="uni2116" unicode="&#x2116;" d="M88 0 l0 705 l65 0 l453 -600 l-24 0 l0 600 l77 0 l0 -705 l-63 0 l-453 600 l22 0 l0 -600 l-77 0 ZM782 261 l0 56 l277 0 l0 -56 l-277 0 ZM920 411 q-42 0 -75 18.5 q-33 18.5 -52.5 53 q-19.5 34.5 -19.5 80.5 q0 46 19.5 80 q19.5 34 52.5 52.5 q33 18.5 75 18.5 q43 0 75.5 -18.5 q32.5 -18.5 51.5 -52.5 q19 -34 19 -80 q0 -46 -19 -80 q-19 -34 -51.5 -53 q-32.5 -19 -75.5 -19 ZM920 457 q41 0 64.5 27 q23.5 27 23.5 79 q0 51 -23.5 78 q-23.5 27 -64.5 27 q-41 0 -65 -26.5 q-24 -26.5 -24 -78.5 q0 -52 24 -79 q24 -27 65 -27 Z" /><glyph glyph-name="uni02BC" unicode="&#x2bc;" d="M161 571 l-36 26 q22 22 28.5 42.5 q6.5 20.5 6.5 39.5 l23 -10 l-70 0 l0 86 l98 0 l0 -60 q0 -36 -10.5 -66.5 q-10.5 -30.5 -39.5 -57.5 Z" /><glyph glyph-name="uni02BB" unicode="&#x2bb;" d="M201 567 l0 61 q0 36 10.5 66.5 q10.5 30.5 39.5 57.5 l35 -26 q-22 -23 -28 -43 q-6 -20 -6 -40 l-24 11 l71 0 l0 -87 l-98 0 Z" /><glyph glyph-name="uni02C9" unicode="&#x2c9;" d="M102 625 l0 55 l296 0 l0 -55 l-296 0 Z" /><glyph glyph-name="uni02CB" unicode="&#x2cb;" d="M221 551 l-131 202 l86 0 l103 -202 l-58 0 Z" /><glyph glyph-name="uni02BF" unicode="&#x2bf;" d="M250 554 q-43 0 -72 28.5 q-29 28.5 -29 70.5 q0 42 29 71 q29 29 72 29 l0 -45 q-23 0 -38 -16 q-15 -16 -15 -39 q0 -22 15 -38.5 q15 -16.5 38 -16.5 l0 -44 Z" /><glyph glyph-name="uni02BE" unicode="&#x2be;" d="M250 554 l0 44 q24 0 38.5 16.5 q14.5 16.5 14.5 38.5 q0 23 -14.5 39 q-14.5 16 -38.5 16 l0 45 q44 0 73 -29 q29 -29 29 -71 q0 -42 -29 -70.5 q-29 -28.5 -73 -28.5 Z" /><glyph glyph-name="uni02CA" unicode="&#x2ca;" d="M221 551 l103 202 l87 0 l-132 -202 l-58 0 Z" /><glyph glyph-name="uni02CC" unicode="&#x2cc;" d="M220 -270 l0 200 l60 0 l0 -200 l-60 0 Z" /><glyph glyph-name="uni02C8" unicode="&#x2c8;" d="M220 595 l0 200 l60 0 l0 -200 l-60 0 Z" /><glyph glyph-name="uni0308" unicode="&#x308;" d="M44 609 l0 86 l86 0 l0 -86 l-86 0 ZM-130 609 l0 86 l86 0 l0 -86 l-86 0 Z" /><glyph glyph-name="uni0307" unicode="&#x307;" d="M-46 609 l0 88 l92 0 l0 -88 l-92 0 Z" /><glyph glyph-name="gravecomb" unicode="&#x300;" d="M-29 551 l-132 202 l87 0 l103 -202 l-58 0 Z" /><glyph glyph-name="acutecomb" unicode="&#x301;" d="M-29 551 l103 202 l87 0 l-132 -202 l-58 0 Z" /><glyph glyph-name="uni030B" unicode="&#x30b;" d="M41 551 l53 202 l75 0 l-83 -202 l-45 0 ZM-87 551 l54 202 l75 0 l-84 -202 l-45 0 Z" /><glyph glyph-name="uni0302" unicode="&#x302;" d="M-148 551 l109 202 l78 0 l109 -202 l-56 0 l-92 148 l-92 -148 l-56 0 Z" /><glyph glyph-name="uni030C" unicode="&#x30c;" d="M-39 551 l-109 202 l56 0 l92 -148 l92 148 l56 0 l-109 -202 l-78 0 Z" /><glyph glyph-name="uni0306" unicode="&#x306;" d="M0 549 q-45 0 -79 23 q-34 23 -53 65.5 q-19 42.5 -22 101.5 l51 5 q4 -67 30.5 -103.5 q26.5 -36.5 72.5 -36.5 q46 0 72.5 36.5 q26.5 36.5 30.5 103.5 l51 -5 q-2 -59 -21.5 -101.5 q-19.5 -42.5 -53.5 -65.5 q-34 -23 -79 -23 Z" /><glyph glyph-name="uni030A" unicode="&#x30a;" d="M0 547 q-33 0 -60 15 q-27 15 -43 41.5 q-16 26.5 -16 58.5 q0 33 16 59 q16 26 43 41.5 q27 15.5 60 15.5 q34 0 60.5 -15.5 q26.5 -15.5 42.5 -41.5 q16 -26 16 -59 q0 -32 -16 -58.5 q-16 -26.5 -42.5 -41.5 q-26.5 -15 -60.5 -15 ZM0 590 q32 0 52 21 q20 21 20 51 q0 31 -20 51.5 q-20 20.5 -52 20.5 q-31 0 -51.5 -20.5 q-20.5 -20.5 -20.5 -51.5 q0 -30 20.5 -51 q20.5 -21 51.5 -21 Z" /><glyph glyph-name="tildecomb" unicode="&#x303;" d="M-134 590 l-46 3 q5 64 34 98.5 q29 34.5 73 34.5 q22 0 40.5 -10 q18.5 -10 42.5 -31 q22 -20 35.5 -27.5 q13.5 -7.5 26.5 -7.5 q51 0 62 79 l46 -3 q-5 -64 -33.5 -98.5 q-28.5 -34.5 -72.5 -34.5 q-21 0 -40 10 q-19 10 -44 32 q-21 19 -34.5 26.5 q-13.5 7.5 -27.5 7.5 q-26 0 -41.5 -20.5 q-15.5 -20.5 -20.5 -58.5 Z" /><glyph glyph-name="uni0304" unicode="&#x304;" d="M-148 625 l0 55 l296 0 l0 -55 l-296 0 Z" /><glyph glyph-name="hookabovecomb" unicode="&#x309;" d="M-27 551 l0 21 q0 23 9.5 38 q9.5 15 21.5 25.5 q12 10.5 21.5 21.5 q9.5 11 9.5 25 q0 14 -11.5 21 q-11.5 7 -34.5 7 q-16 0 -30.5 -3.5 q-14.5 -3.5 -33.5 -11.5 l-13 42 q18 12 41.5 17 q23.5 5 50.5 5 q46 0 71.5 -17.5 q25.5 -17.5 25.5 -50.5 q0 -25 -11 -40 q-11 -15 -25.5 -26 q-14.5 -11 -26 -24 q-11.5 -13 -11.5 -34 l0 -16 l-54 0 Z" /><glyph glyph-name="uni030F" unicode="&#x30f;" d="M42 551 l-84 202 l75 0 l54 -202 l-45 0 ZM-86 551 l-83 202 l75 0 l53 -202 l-45 0 Z" /><glyph glyph-name="uni0311" unicode="&#x311;" d="M-103 549 l-51 5 q3 59 22 101.5 q19 42.5 53 65.5 q34 23 79 23 q45 0 79 -23 q34 -23 53.5 -65.5 q19.5 -42.5 21.5 -101.5 l-51 -5 q-4 67 -30.5 103.5 q-26.5 36.5 -72.5 36.5 q-46 0 -72.5 -36.5 q-26.5 -36.5 -30.5 -103.5 Z" /><glyph glyph-name="uni0312" unicode="&#x312;" d="M-50 567 l0 60 q0 38 13 70 q13 32 40 58 l35 -25 q-22 -25 -30 -46 q-8 -21 -8 -45 l-21 11 l70 0 l0 -83 l-99 0 Z" /><glyph glyph-name="uni031B" unicode="&#x31b;" d="M41 436 l-42 28 l0 22 q42 1 66 13 q24 12 34 37 q10 25 10 64 l0 16 l72 0 l0 -28 q0 -45 -16.5 -78 q-16.5 -33 -48 -52 q-31.5 -19 -75.5 -22 Z" /><glyph glyph-name="dotbelowcomb" unicode="&#x323;" d="M-46 -187 l0 88 l92 0 l0 -88 l-92 0 Z" /><glyph glyph-name="uni0324" unicode="&#x324;" d="M44 -181 l0 86 l86 0 l0 -86 l-86 0 ZM-130 -181 l0 86 l86 0 l0 -86 l-86 0 Z" /><glyph glyph-name="uni0326" unicode="&#x326;" d="M-3 -268 l-36 26 q23 24 30.5 45 q7.5 21 7.5 45 l21 -10 l-70 0 l0 82 l99 0 l0 -60 q0 -37 -12.5 -69.5 q-12.5 -32.5 -39.5 -58.5 Z" /><glyph glyph-name="uni0327" unicode="&#x327;" d="M3 -192 q-26 0 -49.5 5 q-23.5 5 -40.5 14 l14 44 q18 -8 34.5 -12 q16.5 -4 38.5 -4 q27 0 43 9.5 q16 9.5 16 27.5 q0 28 -38 28 q-11 0 -21.5 -1.5 q-10.5 -1.5 -25.5 -7.5 l-17 16 l15 93 l51 0 l-13 -75 l-24 6 q11 3 23 5 q12 2 22 2 q36 0 60 -18 q24 -18 24 -50 q0 -37 -31 -59.5 q-31 -22.5 -81 -22.5 Z" /><glyph glyph-name="uni0328" unicode="&#x328;" d="M-19 -192 q-48 0 -77 26 q-29 26 -29 71 q0 40 26 75.5 q26 35.5 70 55.5 l29 -36 q-16 -6 -31.5 -18.5 q-15.5 -12.5 -25.5 -29.5 q-10 -17 -10 -38 q0 -28 17 -42 q17 -14 41 -14 q14 0 27 3 q13 3 27 9 l14 -45 q-14 -8 -34 -12.5 q-20 -4.5 -44 -4.5 Z" /><glyph glyph-name="uni032E" unicode="&#x32e;" d="M0 -215 q-67 0 -109 40 q-42 40 -45 110 l51 5 q4 -48 30.5 -74.5 q26.5 -26.5 72.5 -26.5 q46 0 72.5 26.5 q26.5 26.5 30.5 74.5 l51 -5 q-3 -70 -44.5 -110 q-41.5 -40 -109.5 -40 Z" /><glyph glyph-name="uni0331" unicode="&#x331;" d="M-148 -156 l0 55 l296 0 l0 -55 l-296 0 Z" /><glyph glyph-name="uni0335" unicode="&#x335;" d="M-183 526 l0 61 l366 0 l0 -61 l-366 0 Z" /><glyph glyph-name="uni0337" unicode="&#x337;" d="M-115 252 l-33 57 l263 154 l33 -57 l-263 -154 Z" /><glyph glyph-name="uni0338" unicode="&#x338;" d="M184 -45 l-44 27 l322 554 l44 -27 l-322 -554 Z" /></font>
</defs>
</svg>
