<?xml version="1.0" standalone="no"?><!DOCTYPE svg PUBLIC "-//W3C//DTD SVG 1.1//EN" "http://www.w3.org/Graphics/SVG/1.1/DTD/svg11.dtd" ><svg xmlns="http://www.w3.org/2000/svg"><metadata></metadata><defs><font id="3.603;NONE;Mulish-Light" horiz-adv-x="1332"><font-face font-family="Mulish Light" font-weight="300" font-stretch="normal" units-per-em="1000" panose-1="0 0 0 0 0 0 0 0 0 0" ascent="1005" descent="-250" x-height="0" bbox="-245 -270 1278 1039" underline-thickness="44" underline-position="-85" unicode-range="U+0000-fb02" /><missing-glyph horiz-adv-x="500"  /><glyph glyph-name="A" unicode="A" d="M26 0 l307 705 l56 0 l312 -705 l-65 0 l-88 203 l29 -15 l-434 0 l34 15 l-86 -203 l-65 0 ZM360 630 l-171 -401 l-23 12 l388 0 l-17 -12 l-175 401 l-2 0 Z" /><glyph glyph-name="AE" unicode="Æ" d="M6 0 l427 705 l514 0 l0 -53 l-409 0 l21 23 l28 -307 l-17 16 l356 0 l0 -53 l-348 0 l11 10 l29 -309 l-9 21 l338 0 l0 -53 l-386 0 l-18 197 l25 -9 l-391 0 l23 17 l-123 -205 l-71 0 ZM466 651 l-253 -425 l-9 15 l345 0 l-8 -15 l-40 425 l-35 0 Z" /><glyph glyph-name="B" unicode="B" d="M93 0 l0 705 l269 0 q111 0 171.5 -47.5 q60.5 -47.5 60.5 -136.5 q0 -67 -40.5 -111 q-40.5 -44 -110.5 -58 l0 14 q78 -8 123 -53 q45 -45 45 -121 q0 -94 -61 -143 q-61 -49 -175 -49 l-282 0 ZM153 53 l218 0 q81 0 129.5 31.5 q48.5 31.5 48.5 106.5 q0 77 -48.5 108.5 q-48.5 31.5 -129.5 31.5 l-218 0 l0 -278 ZM153 383 l202 0 q87 0 132 34.5 q45 34.5 45 100.5 q0 66 -45 100.5 q-45 34.5 -132 34.5 l-202 0 l0 -270 Z" /><glyph glyph-name="uni0181" unicode="&#x181;" d="M210 0 l0 654 l-37 0 q-61 0 -90 -27.5 q-29 -27.5 -29 -84.5 l0 -44 l-55 0 l0 46 q0 81 45 121 q45 40 140 40 l295 0 q111 0 171.5 -47.5 q60.5 -47.5 60.5 -136.5 q0 -66 -40.5 -110.5 q-40.5 -44.5 -110.5 -58.5 l0 14 q79 -8 123.5 -53.5 q44.5 -45.5 44.5 -120.5 q0 -94 -61.5 -143 q-61.5 -49 -175.5 -49 l-281 0 ZM270 53 l217 0 q89 0 134 34 q45 34 45 104 q0 71 -44.5 105.5 q-44.5 34.5 -133.5 34.5 l-218 0 l0 -278 ZM270 383 l201 0 q88 0 132.5 34.5 q44.5 34.5 44.5 100.5 q0 66 -44.5 100.5 q-44.5 34.5 -132.5 34.5 l-201 0 l0 -270 Z" /><glyph glyph-name="C" unicode="C" d="M390 -8 q-104 0 -176.5 43.5 q-72.5 43.5 -110.5 124.5 q-38 81 -38 193 q0 112 38 192.5 q38 80.5 110.5 124 q72.5 43.5 176.5 43.5 q76 0 135 -23.5 q59 -23.5 103 -69.5 l-26 -50 q-49 45 -98 65.5 q-49 20.5 -114 20.5 q-127 0 -193 -79.5 q-66 -79.5 -66 -223.5 q0 -144 66 -224 q66 -80 193 -80 q65 0 114 20.5 q49 20.5 98 65.5 l26 -50 q-44 -46 -103.5 -69.5 q-59.5 -23.5 -134.5 -23.5 Z" /><glyph glyph-name="D" unicode="D" d="M93 0 l0 705 l223 0 q116 0 196 -40.5 q80 -40.5 121.5 -119 q41.5 -78.5 41.5 -192.5 q0 -114 -41.5 -193 q-41.5 -79 -121.5 -119.5 q-80 -40.5 -196 -40.5 l-223 0 ZM155 55 l156 0 q151 0 225 74.5 q74 74.5 74 223.5 q0 150 -74 224 q-74 74 -225 74 l-156 0 l0 -596 Z" /><glyph glyph-name="uni018A" unicode="&#x18a;" d="M210 0 l0 654 l-37 0 q-61 0 -90 -27.5 q-29 -27.5 -29 -84.5 l0 -44 l-55 0 l0 46 q0 81 44 121 q44 40 133 40 l257 0 q173 0 266 -90 q93 -90 93 -262 q0 -172 -93 -262.5 q-93 -90.5 -266 -90.5 l-223 0 ZM272 55 l156 0 q151 0 225.5 74.5 q74.5 74.5 74.5 223.5 q0 150 -74.5 224 q-74.5 74 -225.5 74 l-156 0 l0 -596 Z" /><glyph glyph-name="E" unicode="E" d="M93 0 l0 705 l438 0 l0 -53 l-378 0 l0 -268 l356 0 l0 -53 l-356 0 l0 -278 l378 0 l0 -53 l-438 0 Z" /><glyph glyph-name="F" unicode="F" d="M93 0 l0 705 l428 0 l0 -53 l-366 0 l0 -269 l345 0 l0 -53 l-345 0 l0 -330 l-62 0 Z" /><glyph glyph-name="G" unicode="G" d="M409 -8 q-114 0 -190.5 42.5 q-76.5 42.5 -115 123.5 q-38.5 81 -38.5 195 q0 112 40 192.5 q40 80.5 114.5 124 q74.5 43.5 179.5 43.5 q77 0 133 -23.5 q56 -23.5 102 -68.5 l-27 -50 q-33 31 -63.5 49.5 q-30.5 18.5 -65 27 q-34.5 8.5 -79.5 8.5 q-129 0 -198.5 -79.5 q-69.5 -79.5 -69.5 -224.5 q0 -148 68 -226 q68 -78 211 -78 q53 0 101 10 q48 10 91 29 l-15 -40 l0 264 l-187 0 l0 52 l242 0 l0 -322 q-40 -21 -104.5 -35 q-64.5 -14 -128.5 -14 Z" /><glyph glyph-name="H" unicode="H" d="M93 0 l0 705 l62 0 l0 -320 l453 0 l0 320 l62 0 l0 -705 l-62 0 l0 330 l-453 0 l0 -330 l-62 0 Z" /><glyph glyph-name="Hbar" unicode="&#x126;" d="M102 0 l0 523 l-95 0 l0 51 l95 0 l0 131 l62 0 l0 -131 l452 0 l0 131 l62 0 l0 -131 l95 0 l0 -51 l-95 0 l0 -523 l-62 0 l0 327 l-452 0 l0 -327 l-62 0 ZM164 382 l452 0 l0 141 l-452 0 l0 -141 Z" /><glyph glyph-name="I" unicode="I" d="M93 0 l0 705 l62 0 l0 -705 l-62 0 Z" /><glyph glyph-name="J" unicode="J" d="M75 -186 q-17 0 -35.5 1.5 q-18.5 1.5 -39.5 6.5 l0 53 q19 -4 35 -6 q16 -2 30 -2 q46 0 70.5 29 q24.5 29 24.5 92 l0 717 l62 0 l0 -718 q0 -55 -16.5 -94 q-16.5 -39 -49 -59 q-32.5 -20 -81.5 -20 Z" /><glyph glyph-name="K" unicode="K" d="M93 0 l0 705 l62 0 l0 -324 l2 0 l352 324 l83 0 l-399 -363 l1 36 l427 -378 l-85 0 l-379 335 l-2 0 l0 -335 l-62 0 Z" /><glyph glyph-name="L" unicode="L" d="M93 0 l0 705 l62 0 l0 -650 l367 0 l0 -55 l-429 0 Z" /><glyph glyph-name="M" unicode="M" d="M93 0 l0 705 l54 0 l294 -664 l-29 0 l295 664 l53 0 l0 -705 l-57 0 l0 632 l27 0 l-281 -632 l-45 0 l-281 632 l27 0 l0 -632 l-57 0 Z" /><glyph glyph-name="N" unicode="N" d="M93 0 l0 705 l50 0 l472 -632 l-22 0 l0 632 l57 0 l0 -705 l-49 0 l-472 632 l21 0 l0 -632 l-57 0 Z" /><glyph glyph-name="Eng" unicode="&#x14a;" d="M447 -193 l-4 50 l44 4 q51 3 78.5 34 q27.5 31 27.5 86 l0 51 l8 -32 l-472 632 l21 0 l0 -632 l-57 0 l0 705 l50 0 l472 -632 l-22 0 l0 632 l57 0 l0 -719 q0 -54 -18 -92.5 q-18 -38.5 -53 -59.5 q-35 -21 -87 -24 l-45 -3 Z" /><glyph glyph-name="O" unicode="O" d="M65 353 q0 112 37.5 192.5 q37.5 80.5 108.5 124 q71 43.5 171 43.5 q98 0 169.5 -43.5 q71.5 -43.5 110 -124 q38.5 -80.5 38.5 -191.5 q0 -112 -39 -193 q-39 -81 -110.5 -125 q-71.5 -44 -168.5 -44 q-99 0 -170 44 q-71 44 -109 125 q-38 81 -38 192 ZM131 353 q0 -144 64 -224.5 q64 -80.5 187 -80.5 q119 0 186 80.5 q67 80.5 67 224.5 q0 145 -66.5 224.5 q-66.5 79.5 -186.5 79.5 q-123 0 -187 -79.5 q-64 -79.5 -64 -224.5 Z" /><glyph glyph-name="Oslash" unicode="Ø" d="M65 353 q0 112 37.5 192.5 q37.5 80.5 108.5 124 q71 43.5 171 43.5 q98 0 169.5 -43.5 q71.5 -43.5 110 -124 q38.5 -80.5 38.5 -191.5 q0 -112 -39 -193 q-39 -81 -110.5 -125 q-71.5 -44 -168.5 -44 q-99 0 -170 44 q-71 44 -109 125 q-38 81 -38 192 ZM131 353 q0 -144 64 -224.5 q64 -80.5 187 -80.5 q119 0 186 80.5 q67 80.5 67 224.5 q0 145 -66.5 224.5 q-66.5 79.5 -186.5 79.5 q-123 0 -187 -79.5 q-64 -79.5 -64 -224.5 ZM234 44 l-50 -85 l-45 25 l50 86 l20 30 l310 532 l15 29 l50 85 l44 -25 l-50 -86 l-19 -29 l-310 -533 l-15 -29 Z" /><glyph glyph-name="OE" unicode="&#x152;" d="M566 0 l0 705 l437 0 l0 -53 l-376 0 l0 -268 l356 0 l0 -53 l-356 0 l0 -278 l376 0 l0 -53 l-437 0 ZM380 -8 q-99 0 -169.5 44 q-70.5 44 -108 125 q-37.5 81 -37.5 192 q0 112 37 192.5 q37 80.5 107.5 124 q70.5 43.5 170.5 43.5 q61 0 112.5 -13.5 q51.5 -13.5 89.5 -48.5 l0 -79 q-32 48 -82.5 66.5 q-50.5 18.5 -117.5 18.5 q-123 0 -187 -79.5 q-64 -79.5 -64 -224.5 q0 -144 64 -224.5 q64 -80.5 187 -80.5 q69 0 121 23.5 q52 23.5 83 73.5 l0 -81 q-25 -24 -57 -40 q-32 -16 -70 -24 q-38 -8 -79 -8 Z" /><glyph glyph-name="P" unicode="P" d="M93 0 l0 705 l274 0 q109 0 168.5 -52 q59.5 -52 59.5 -146 q0 -92 -59.5 -145 q-59.5 -53 -168.5 -53 l-212 0 l0 -309 l-62 0 ZM155 363 l208 0 q83 0 126 37.5 q43 37.5 43 106.5 q0 69 -43 107 q-43 38 -126 38 l-208 0 l0 -289 Z" /><glyph glyph-name="Thorn" unicode="Þ" d="M93 0 l0 705 l62 0 l0 -141 l211 0 q109 0 169 -52 q60 -52 60 -145 q0 -93 -60 -145.5 q-60 -52.5 -169 -52.5 l-211 0 l0 -169 l-62 0 ZM155 222 l208 0 q83 0 126 38 q43 38 43 107 q0 69 -43 106.5 q-43 37.5 -126 37.5 l-208 0 l0 -289 Z" /><glyph glyph-name="Q" unicode="Q" d="M574 -191 q-29 19 -59 50 q-30 31 -57 67.5 q-27 36.5 -47 73.5 l59 19 q26 -52 66 -95 q40 -43 81 -74 l-43 -41 ZM65 353 q0 112 37.5 192.5 q37.5 80.5 108.5 124 q71 43.5 171 43.5 q98 0 169.5 -43.5 q71.5 -43.5 110 -124 q38.5 -80.5 38.5 -191.5 q0 -112 -39 -193 q-39 -81 -110.5 -125 q-71.5 -44 -168.5 -44 q-99 0 -170 44 q-71 44 -109 125 q-38 81 -38 192 ZM131 353 q0 -144 64 -224.5 q64 -80.5 187 -80.5 q119 0 186 80.5 q67 80.5 67 224.5 q0 145 -66.5 224.5 q-66.5 79.5 -186.5 79.5 q-123 0 -187 -79.5 q-64 -79.5 -64 -224.5 Z" /><glyph glyph-name="R" unicode="R" d="M93 0 l0 705 l278 0 q109 0 169 -51 q60 -51 60 -144 q0 -60 -27 -102.5 q-27 -42.5 -75 -65 q-48 -22.5 -111 -22.5 l19 11 l14 0 q41 0 73 -19.5 q32 -19.5 51 -66.5 l98 -245 l-68 0 l-92 234 q-19 51 -55 65.5 q-36 14.5 -92 14.5 l-180 0 l0 -314 l-62 0 ZM155 366 l208 0 q85 0 129.5 37 q44.5 37 44.5 106 q0 70 -44.5 106.5 q-44.5 36.5 -129.5 36.5 l-208 0 l0 -286 Z" /><glyph glyph-name="S" unicode="S" d="M316 -8 q-85 0 -150 22 q-65 22 -116 64 l26 51 q36 -28 70.5 -46 q34.5 -18 75.5 -26.5 q41 -8.5 93 -8.5 q93 0 140 36.5 q47 36.5 47 96.5 q0 52 -32.5 79.5 q-32.5 27.5 -113.5 43.5 l-102 21 q-97 20 -144.5 64 q-47.5 44 -47.5 120 q0 62 32 108 q32 46 89 71 q57 25 132 25 q75 0 136.5 -22.5 q61.5 -22.5 105.5 -66.5 l-25 -50 q-47 44 -99 63.5 q-52 19.5 -118 19.5 q-87 0 -138 -39.5 q-51 -39.5 -51 -106.5 q0 -54 32.5 -84 q32.5 -30 105.5 -45 l103 -21 q103 -21 151 -61.5 q48 -40.5 48 -115.5 q0 -57 -30.5 -100.5 q-30.5 -43.5 -86.5 -67.5 q-56 -24 -133 -24 Z" /><glyph glyph-name="uni1E9E" unicode="&#x1e9e;" d="M400 -8 q-61 0 -107.5 16.5 q-46.5 16.5 -83.5 49.5 l27 48 q39 -33 75 -46.5 q36 -13.5 86 -13.5 q80 0 122 37.5 q42 37.5 42 105.5 q0 67 -44 103 q-44 36 -134 36 l-134 0 l0 53 l107 0 q78 0 122 35.5 q44 35.5 44 103.5 q0 68 -42 103.5 q-42 35.5 -130 35.5 q-107 0 -152 -49 q-45 -49 -45 -147 l0 -463 l-60 0 l0 465 q0 123 63 185.5 q63 62.5 195 62.5 q113 0 173 -49 q60 -49 60 -136 q0 -66 -36.5 -113.5 q-36.5 -47.5 -98.5 -61.5 l0 15 q80 -10 127.5 -56.5 q47.5 -46.5 47.5 -124.5 q0 -94 -59 -144.5 q-59 -50.5 -165 -50.5 Z" /><glyph glyph-name="uni018F" unicode="&#x18f;" d="M368 -8 q-108 0 -175 44.5 q-67 44.5 -97.5 125 q-30.5 80.5 -30.5 189.5 l0 31 l558 0 l0 -53 l-511 0 l16 24 q0 -99 23 -167 q23 -68 75 -103.5 q52 -35.5 140 -35.5 q120 0 183.5 80.5 q63.5 80.5 63.5 226.5 q0 145 -67.5 224 q-67.5 79 -198.5 79 q-50 0 -88 -9 q-38 -9 -71.5 -28 q-33.5 -19 -68.5 -49 l-26 49 q48 47 110 70 q62 23 149 23 q103 0 175.5 -43 q72.5 -43 111.5 -123.5 q39 -80.5 39 -192.5 q0 -112 -37 -193.5 q-37 -81.5 -106.5 -125 q-69.5 -43.5 -166.5 -43.5 Z" /><glyph glyph-name="T" unicode="T" d="M266 0 l0 651 l-256 0 l0 54 l573 0 l0 -54 l-255 0 l0 -651 l-62 0 Z" /><glyph glyph-name="U" unicode="U" d="M364 -8 q-141 0 -208.5 72 q-67.5 72 -67.5 210 l0 431 l62 0 l0 -426 q0 -115 51 -173 q51 -58 163 -58 q104 0 158.5 58 q54.5 58 54.5 173 l0 426 l62 0 l0 -431 q0 -138 -70.5 -210 q-70.5 -72 -204.5 -72 Z" /><glyph glyph-name="V" unicode="V" d="M312 0 l-305 705 l67 0 l283 -661 l-27 0 l285 661 l65 0 l-307 -705 l-61 0 Z" /><glyph glyph-name="W" unicode="W" d="M282 0 l-244 705 l65 0 l226 -661 l-33 0 l235 661 l52 0 l224 -661 l-30 0 l231 661 l62 0 l-247 -705 l-59 0 l-217 642 l20 0 l-228 -642 l-57 0 Z" /><glyph glyph-name="X" unicode="X" d="M17 0 l277 371 l0 -20 l-263 354 l73 0 l229 -310 l-19 0 l225 310 l74 0 l-263 -354 l0 20 l277 -371 l-74 0 l-244 331 l26 0 l-244 -331 l-74 0 Z" /><glyph glyph-name="Y" unicode="Y" d="M267 0 l0 328 l15 -47 l-287 424 l72 0 l242 -365 l-18 0 l242 365 l69 0 l-287 -424 l14 47 l0 -328 l-62 0 Z" /><glyph glyph-name="uni01B3" unicode="&#x1b3;" d="M267 0 l0 365 l15 -47 l-287 387 l72 0 l242 -327 l-18 0 l186 260 q28 39 61 57 q33 18 74 18 q17 0 29 -2 q12 -2 25 -7 l0 -49 q-10 4 -22 6 q-12 2 -26 2 q-27 0 -49.5 -11.5 q-22.5 -11.5 -42.5 -39.5 l-211 -294 l14 47 l0 -365 l-62 0 Z" /><glyph glyph-name="Z" unicode="Z" d="M43 0 l0 46 l440 632 l0 -28 l-440 0 l0 55 l499 0 l0 -45 l-441 -632 l0 27 l452 0 l0 -55 l-510 0 Z" /><glyph glyph-name="a" unicode="a" d="M273 -8 q-68 0 -118 31 q-50 31 -77 89 q-27 58 -27 139 q0 81 27.5 138.5 q27.5 57.5 77.5 89 q50 31.5 117 31.5 q69 0 119.5 -36 q50.5 -36 66.5 -98 l-12 0 l10 125 l59 0 q-3 -29 -5.5 -57 q-2.5 -28 -2.5 -55 l0 -389 l-61 0 l0 125 l11 0 q-16 -62 -66.5 -97.5 q-50.5 -35.5 -118.5 -35.5 ZM281 44 q77 0 122 53 q45 53 45 154 q0 101 -45 154 q-45 53 -122 53 q-77 0 -122.5 -53 q-45.5 -53 -45.5 -154 q0 -101 45.5 -154 q45.5 -53 122.5 -53 Z" /><glyph glyph-name="ae" unicode="æ" d="M244 -8 q-52 0 -92 20 q-40 20 -63 54 q-23 34 -23 77 q0 59 27 92 q27 33 91 46.5 q64 13.5 176 13.5 l52 0 l0 -43 l-50 0 q-92 0 -143.5 -9.5 q-51.5 -9.5 -71.5 -32 q-20 -22.5 -20 -63.5 q0 -48 33 -77 q33 -29 90 -29 q45 0 79.5 21 q34.5 21 54 58.5 q19.5 37.5 19.5 87.5 l0 119 q0 70 -30 100.5 q-30 30.5 -92 30.5 q-47 0 -87.5 -12.5 q-40.5 -12.5 -83.5 -41.5 l-23 47 q38 28 89.5 43.5 q51.5 15.5 104.5 15.5 q78 0 120.5 -34.5 q42.5 -34.5 53.5 -99.5 l-22 0 q28 65 79 99.5 q51 34.5 122 34.5 q95 0 149.5 -62.5 q54.5 -62.5 54.5 -170.5 l0 -26 l-386 0 l0 44 l349 0 l-17 -13 q0 83 -39.5 131 q-39.5 48 -113.5 48 q-77 0 -122 -50 q-45 -50 -45 -144 l0 -7 q0 -101 46.5 -158.5 q46.5 -57.5 133.5 -57.5 q44 0 84.5 15 q40.5 15 77.5 47 l24 -45 q-32 -33 -82.5 -51 q-50.5 -18 -103.5 -18 q-89 0 -146.5 42 q-57.5 42 -78.5 122 l20 0 q-14 -77 -66 -120.5 q-52 -43.5 -129 -43.5 Z" /><glyph glyph-name="b" unicode="b" d="M319 -8 q-70 0 -119.5 35.5 q-49.5 35.5 -66.5 98.5 l11 0 l0 -126 l-61 0 l0 736 l61 0 l0 -359 l-11 0 q17 62 66.5 97.5 q49.5 35.5 119.5 35.5 q68 0 117.5 -31.5 q49.5 -31.5 77 -89 q27.5 -57.5 27.5 -139.5 q0 -80 -28 -138 q-28 -58 -77.5 -89 q-49.5 -31 -116.5 -31 ZM310 44 q77 0 123 52.5 q46 52.5 46 153.5 q0 101 -46 154.5 q-46 53.5 -123 53.5 q-76 0 -121.5 -53 q-45.5 -53 -45.5 -154 q0 -101 45.5 -154 q45.5 -53 121.5 -53 Z" /><glyph glyph-name="uni0253" unicode="&#x253;" d="M320 -8 q-70 0 -120 35.5 q-50 35.5 -67 98.5 l11 0 l0 -126 l-61 0 l0 585 q0 78 41 118.5 q41 40.5 118 40.5 q14 0 27 -1.5 q13 -1.5 25 -5.5 l-8 -50 q-13 4 -21 5 q-8 1 -19 1 q-50 0 -76 -27.5 q-26 -27.5 -26 -79.5 l0 -209 l-11 0 q17 62 67 97.5 q50 35.5 120 35.5 q68 0 117 -31.5 q49 -31.5 76.5 -89 q27.5 -57.5 27.5 -138.5 q0 -81 -27.5 -139 q-27.5 -58 -77 -89 q-49.5 -31 -116.5 -31 ZM311 44 q77 0 122.5 53 q45.5 53 45.5 154 q0 101 -45.5 154 q-45.5 53 -122.5 53 q-76 0 -122 -53 q-46 -53 -46 -154 q0 -101 46 -154 q46 -53 122 -53 Z" /><glyph glyph-name="c" unicode="c" d="M285 -8 q-71 0 -124 31.5 q-53 31.5 -81.5 90.5 q-28.5 59 -28.5 140 q0 81 29 138.5 q29 57.5 81.5 87.5 q52.5 30 123.5 30 q48 0 92.5 -18 q44.5 -18 73.5 -50 l-25 -45 q-31 31 -67 45.5 q-36 14.5 -72 14.5 q-82 0 -128 -52 q-46 -52 -46 -152 q0 -100 46 -154.5 q46 -54.5 128 -54.5 q34 0 70.5 14 q36.5 14 68.5 46 l25 -45 q-30 -32 -75.5 -49.5 q-45.5 -17.5 -90.5 -17.5 Z" /><glyph glyph-name="d" unicode="d" d="M272 -8 q-67 0 -117 31 q-50 31 -77 89 q-27 58 -27 139 q0 81 27 138.5 q27 57.5 77 89 q50 31.5 117 31.5 q69 0 119.5 -35.5 q50.5 -35.5 67.5 -97.5 l-12 0 l0 359 l61 0 l0 -736 l-60 0 l0 126 l11 0 q-17 -63 -67.5 -98.5 q-50.5 -35.5 -119.5 -35.5 ZM280 44 q76 0 122.5 53 q46.5 53 46.5 154 q0 101 -46.5 154 q-46.5 53 -122.5 53 q-76 0 -121.5 -53 q-45.5 -53 -45.5 -154 q0 -101 45.5 -154 q45.5 -53 121.5 -53 Z" /><glyph glyph-name="eth" unicode="ð" d="M281 -8 q-69 0 -121 29 q-52 29 -80.5 82 q-28.5 53 -28.5 123 q0 71 28.5 124 q28.5 53 80.5 82 q52 29 121 29 q78 0 127 -40 q49 -40 69 -122 l-21 0 q0 93 -35.5 176 q-35.5 83 -107.5 142 l18 -3 l-195 -81 l-16 39 l174 72 l-1 -13 q-30 22 -66.5 39 q-36.5 17 -77.5 28 l14 44 q55 -14 100.5 -36 q45.5 -22 83.5 -50 l-17 3 l115 48 l16 -39 l-97 -41 l2 13 q51 -43 83.5 -99.5 q32.5 -56.5 49 -122.5 q16.5 -66 16.5 -140 q0 -93 -27 -157 q-27 -64 -79 -96.5 q-52 -32.5 -128 -32.5 ZM281 44 q78 0 123.5 48.5 q45.5 48.5 45.5 133.5 q0 85 -45 133.5 q-45 48.5 -123 48.5 q-78 0 -123.5 -48 q-45.5 -48 -45.5 -134 q0 -86 44.5 -134 q44.5 -48 123.5 -48 Z" /><glyph glyph-name="dcroat" unicode="&#x111;" d="M272 -8 q-67 0 -117 30.5 q-50 30.5 -77 88.5 q-27 58 -27 138 q0 80 27 137.5 q27 57.5 77 88.5 q50 31 117 31 q69 0 119 -35.5 q50 -35.5 67 -97.5 l-11 0 l0 215 l-195 0 l0 49 l195 0 l0 99 l61 0 l0 -99 l96 0 l0 -49 l-96 0 l0 -588 l-61 0 l0 125 l11 0 q-17 -62 -66.5 -97.5 q-49.5 -35.5 -119.5 -35.5 ZM281 44 q75 0 121 52.5 q46 52.5 46 152.5 q0 100 -46 152.5 q-46 52.5 -121 52.5 q-77 0 -122.5 -52.5 q-45.5 -52.5 -45.5 -152.5 q0 -100 45.5 -152.5 q45.5 -52.5 122.5 -52.5 Z" /><glyph glyph-name="uni0257" unicode="&#x257;" d="M271 -8 q-66 0 -116 31 q-50 31 -77 89 q-27 58 -27 139 q0 81 27 138.5 q27 57.5 77 89 q50 31.5 116 31.5 q71 0 121 -35.5 q50 -35.5 66 -97.5 l-11 0 l0 208 q0 52 18 87.5 q18 35.5 53.5 53.5 q35.5 18 86.5 18 q15 0 28 -1.5 q13 -1.5 25 -5.5 l-8 -50 q-14 4 -22 5 q-8 1 -18 1 q-50 0 -76 -27.5 q-26 -27.5 -26 -79.5 l0 -586 l-60 0 l0 126 l11 0 q-17 -63 -67 -98.5 q-50 -35.5 -121 -35.5 ZM280 44 q77 0 122.5 53 q45.5 53 45.5 154 q0 101 -45.5 154 q-45.5 53 -122.5 53 q-76 0 -121.5 -53 q-45.5 -53 -45.5 -154 q0 -101 45.5 -154 q45.5 -53 121.5 -53 Z" /><glyph glyph-name="e" unicode="e" d="M298 -8 q-114 0 -180.5 68 q-66.5 68 -66.5 189 q0 80 29.5 138 q29.5 58 82.5 90.5 q53 32.5 123 32.5 q67 0 113 -28.5 q46 -28.5 71 -81 q25 -52.5 25 -124.5 l0 -28 l-400 0 l0 44 l362 0 l-17 -13 q0 85 -39 133.5 q-39 48.5 -116 48.5 q-82 0 -128 -56.5 q-46 -56.5 -46 -149.5 l0 -7 q0 -100 49.5 -152 q49.5 -52 138.5 -52 q46 0 86 14 q40 14 77 48 l25 -45 q-32 -33 -83 -51 q-51 -18 -106 -18 Z" /><glyph glyph-name="uni0259" unicode="&#x259;" d="M257 -8 q-99 0 -154 62 q-55 62 -55 169 l0 30 l400 0 l0 -44 l-363 0 l17 13 q0 -85 40 -133 q40 -48 116 -48 q83 0 128 56 q45 56 45 147 l0 8 q0 101 -49 153.5 q-49 52.5 -139 52.5 q-45 0 -85 -14.5 q-40 -14.5 -78 -48.5 l-23 46 q33 33 83.5 51 q50.5 18 106.5 18 q75 0 130 -30.5 q55 -30.5 85 -88.5 q30 -58 30 -139 q0 -79 -29.5 -137.5 q-29.5 -58.5 -82.5 -90.5 q-53 -32 -123 -32 Z" /><glyph glyph-name="f" unicode="f" d="M107 0 l0 452 l-100 0 l0 49 l115 0 l-15 -16 l0 87 q0 80 40 124 q40 44 114 44 q19 0 39 -3.5 q20 -3.5 33 -8.5 l0 -54 q-12 5 -29 9 q-17 4 -36 4 q-33 0 -55.5 -14 q-22.5 -14 -34 -40.5 q-11.5 -26.5 -11.5 -67.5 l0 -80 l-10 16 l154 0 l0 -49 l-143 0 l0 -452 l-61 0 Z" /><glyph glyph-name="g" unicode="g" d="M299 -223 q-63 0 -117.5 17 q-54.5 17 -97.5 51 l22 47 q32 -23 61.5 -36.5 q29.5 -13.5 61.5 -20 q32 -6.5 69 -6.5 q76 0 115 40.5 q39 40.5 39 116.5 l0 159 l11 0 q-16 -63 -67 -98.5 q-51 -35.5 -120 -35.5 q-69 0 -119.5 30.5 q-50.5 30.5 -78 87 q-27.5 56.5 -27.5 132.5 q0 76 27.5 132 q27.5 56 78 86.5 q50.5 30.5 119.5 30.5 q69 0 120 -35.5 q51 -35.5 67 -99.5 l-11 11 l9 115 l60 0 q-4 -29 -6 -57 q-2 -28 -2 -55 l0 -394 q0 -108 -54.5 -163 q-54.5 -55 -159.5 -55 ZM283 63 q78 0 123.5 52 q45.5 52 45.5 146 q0 93 -45.5 145 q-45.5 52 -123.5 52 q-78 0 -124 -52 q-46 -52 -46 -145 q0 -94 46 -146 q46 -52 124 -52 Z" /><glyph glyph-name="uni01E5" unicode="&#x1e5;" d="M299 -223 q-63 0 -117.5 17 q-54.5 17 -97.5 51 l22 47 q31 -23 61 -37 q30 -14 62 -20.5 q32 -6.5 68 -6.5 q121 0 148 99 l8 -9 l-133 0 l0 41 l140 0 l-10 -10 q1 9 1.5 17.5 q0.5 8.5 0.5 17.5 l0 166 l11 0 q-16 -63 -67 -98 q-51 -35 -120 -35 q-69 0 -119.5 30 q-50.5 30 -78 85.5 q-27.5 55.5 -27.5 130.5 q0 76 27.5 131 q27.5 55 78 85.5 q50.5 30.5 119.5 30.5 q69 0 120 -35.5 q51 -35.5 67 -99.5 l-16 0 l10 126 l59 0 q-3 -29 -5.5 -57 q-2.5 -28 -2.5 -55 l4 -394 q0 -12 -0.5 -23 q-0.5 -11 -2.5 -22 l-8 9 l85 0 l0 -41 l-90 0 l10 8 q-15 -74 -67.5 -111.5 q-52.5 -37.5 -139.5 -37.5 ZM283 68 q78 0 123.5 51.5 q45.5 51.5 45.5 143.5 q0 93 -45.5 144 q-45.5 51 -123.5 51 q-78 0 -124 -51 q-46 -51 -46 -144 q0 -92 46 -143.5 q46 -51.5 124 -51.5 Z" /><glyph glyph-name="h" unicode="h" d="M83 0 l0 736 l61 0 l0 -351 l-12 0 q21 61 71 93 q50 32 116 32 q91 0 134.5 -48 q43.5 -48 43.5 -144 l0 -318 l-61 0 l0 313 q0 76 -30 110 q-30 34 -96 34 q-75 0 -120.5 -46 q-45.5 -46 -45.5 -122 l0 -289 l-61 0 Z" /><glyph glyph-name="hbar" unicode="&#x127;" d="M83 0 l0 588 l-97 0 l0 49 l97 0 l0 99 l61 0 l0 -99 l202 0 l0 -49 l-202 0 l0 -205 l-12 0 q21 61 71 92.5 q50 31.5 116 31.5 q89 0 133.5 -48 q44.5 -48 44.5 -144 l0 -315 l-61 0 l0 311 q0 75 -30.5 109 q-30.5 34 -95.5 34 q-75 0 -120.5 -45.5 q-45.5 -45.5 -45.5 -121.5 l0 -287 l-61 0 Z" /><glyph glyph-name="i" unicode="i" d="M83 0 l0 501 l61 0 l0 -501 l-61 0 ZM73 624 l0 76 l82 0 l0 -76 l-82 0 Z" /><glyph glyph-name="dotlessi" unicode="&#x131;" d="M83 0 l0 501 l61 0 l0 -501 l-61 0 Z" /><glyph glyph-name="j" unicode="j" d="M11 -219 q-12 0 -32 3.5 q-20 3.5 -33 8.5 l0 53 q12 -4 28.5 -7.5 q16.5 -3.5 29.5 -3.5 q45 0 65.5 28.5 q20.5 28.5 20.5 91.5 l0 546 l61 0 l0 -554 q0 -82 -35 -124 q-35 -42 -105 -42 ZM80 624 l0 76 l81 0 l0 -76 l-81 0 Z" /><glyph glyph-name="uni0237" unicode="&#x237;" d="M11 -219 q-12 0 -32 3.5 q-20 3.5 -33 8.5 l0 53 q12 -4 28.5 -7.5 q16.5 -3.5 29.5 -3.5 q45 0 66 28.5 q21 28.5 21 91.5 l0 546 l61 0 l0 -554 q0 -82 -35.5 -124 q-35.5 -42 -105.5 -42 Z" /><glyph glyph-name="k" unicode="k" d="M83 0 l0 736 l61 0 l0 -462 l2 0 l247 227 l79 0 l-284 -261 l3 37 l311 -277 l-83 0 l-273 241 l-2 0 l0 -241 l-61 0 Z" /><glyph glyph-name="kgreenlandic" unicode="&#x138;" d="M83 0 l0 501 l61 0 l0 -227 l2 0 l247 227 l79 0 l-284 -261 l3 37 l311 -277 l-83 0 l-273 241 l-2 0 l0 -241 l-61 0 Z" /><glyph glyph-name="l" unicode="l" d="M83 0 l0 736 l61 0 l0 -736 l-61 0 Z" /><glyph glyph-name="m" unicode="m" d="M83 0 l0 389 q0 27 -2 55 q-2 28 -6 57 l60 0 l9 -115 l-12 0 q19 59 63 91.5 q44 32.5 107 32.5 q64 0 104 -31 q40 -31 53 -96 l-15 0 q18 58 66 92.5 q48 34.5 113 34.5 q82 0 124 -47 q42 -47 42 -147 l0 -316 l-61 0 l0 312 q0 76 -27 110.5 q-27 34.5 -88 34.5 q-68 0 -107.5 -46 q-39.5 -46 -39.5 -124 l0 -287 l-61 0 l0 312 q0 76 -27 110.5 q-27 34.5 -87 34.5 q-68 0 -107.5 -46 q-39.5 -46 -39.5 -124 l0 -287 l-61 0 Z" /><glyph glyph-name="n" unicode="n" d="M83 0 l0 389 q0 27 -2 55 q-2 28 -6 57 l60 0 l9 -115 l-12 0 q22 60 71 92 q49 32 114 32 q89 0 134.5 -47 q45.5 -47 45.5 -147 l0 -316 l-61 0 l0 311 q0 77 -31 111.5 q-31 34.5 -96 34.5 q-76 0 -120.5 -46 q-44.5 -46 -44.5 -124 l0 -287 l-61 0 Z" /><glyph glyph-name="eng" unicode="&#x14b;" d="M83 0 l0 389 q0 27 -2 55 q-2 28 -6 57 l60 0 l9 -115 l-12 0 q22 60 71.5 92 q49.5 32 114.5 32 q89 0 134 -47 q45 -47 45 -147 l0 -364 q0 -82 -39 -126.5 q-39 -44.5 -113 -44.5 q-18 0 -35.5 3.5 q-17.5 3.5 -29.5 8.5 l0 53 q11 -4 24.5 -7.5 q13.5 -3.5 32.5 -3.5 q50 0 74.5 31.5 q24.5 31.5 24.5 93.5 l0 351 q0 77 -30.5 111.5 q-30.5 34.5 -95.5 34.5 q-76 0 -121 -46 q-45 -46 -45 -124 l0 -287 l-61 0 Z" /><glyph glyph-name="o" unicode="o" d="M281 -8 q-71 0 -122.5 31 q-51.5 31 -79.5 89 q-28 58 -28 139 q0 80 28 138 q28 58 79.5 89.5 q51.5 31.5 122.5 31.5 q70 0 121.5 -31.5 q51.5 -31.5 80 -89.5 q28.5 -58 28.5 -138 q0 -81 -28.5 -139 q-28.5 -58 -80 -89 q-51.5 -31 -121.5 -31 ZM281 44 q76 0 122 53 q46 53 46 154 q0 101 -46 154 q-46 53 -122 53 q-77 0 -122.5 -53 q-45.5 -53 -45.5 -154 q0 -101 45.5 -154 q45.5 -53 122.5 -53 Z" /><glyph glyph-name="oslash" unicode="ø" d="M281 -8 q-71 0 -122.5 31 q-51.5 31 -79.5 89 q-28 58 -28 139 q0 80 28 138 q28 58 79.5 89.5 q51.5 31.5 122.5 31.5 q70 0 121.5 -31.5 q51.5 -31.5 80 -89.5 q28.5 -58 28.5 -138 q0 -81 -28.5 -139 q-28.5 -58 -80 -89 q-51.5 -31 -121.5 -31 ZM281 44 q78 0 124 53.5 q46 53.5 46 153.5 q0 100 -46 153.5 q-46 53.5 -124 53.5 q-79 0 -124.5 -53.5 q-45.5 -53.5 -45.5 -153.5 q0 -100 45.5 -153.5 q45.5 -53.5 124.5 -53.5 ZM141 -35 l-37 23 l318 548 l37 -22 l-318 -549 Z" /><glyph glyph-name="oe" unicode="&#x153;" d="M281 -8 q-70 0 -121.5 31 q-51.5 31 -80 89.5 q-28.5 58.5 -28.5 138.5 q0 80 28.5 138 q28.5 58 80 89.5 q51.5 31.5 121.5 31.5 q79 0 134.5 -43 q55.5 -43 76.5 -123 l-23 0 q22 79 79 122.5 q57 43.5 135 43.5 q95 0 149.5 -62.5 q54.5 -62.5 54.5 -170.5 l0 -29 l-395 0 l0 45 l358 0 l-18 -11 q0 83 -39 131 q-39 48 -113 48 q-79 0 -123.5 -56.5 q-44.5 -56.5 -44.5 -148.5 l0 -6 q0 -101 47.5 -153.5 q47.5 -52.5 135.5 -52.5 q44 0 83.5 15 q39.5 15 76.5 47 l24 -45 q-21 -22 -50.5 -37.5 q-29.5 -15.5 -63.5 -23.5 q-34 -8 -68 -8 q-90 0 -148.5 42 q-58.5 42 -80.5 122 l22 0 q-21 -79 -75.5 -121.5 q-54.5 -42.5 -133.5 -42.5 ZM282 44 q76 0 122 53 q46 53 46 154 q0 100 -46 153.5 q-46 53.5 -122 53.5 q-77 0 -123 -53.5 q-46 -53.5 -46 -153.5 q0 -101 46 -154 q46 -53 123 -53 Z" /><glyph glyph-name="p" unicode="p" d="M83 -216 l0 605 q0 27 -2 55 q-2 28 -6 57 l60 0 l10 -125 l-12 0 q17 62 66 98 q49 36 119 36 q68 0 117.5 -31.5 q49.5 -31.5 77.5 -89 q28 -57.5 28 -138.5 q0 -81 -27.5 -139 q-27.5 -58 -77.5 -89 q-50 -31 -118 -31 q-69 0 -118.5 35.5 q-49.5 35.5 -66.5 97.5 l11 0 l0 -341 l-61 0 ZM310 44 q77 0 123 53 q46 53 46 154 q0 101 -46 154 q-46 53 -123 53 q-76 0 -121.5 -53 q-45.5 -53 -45.5 -154 q0 -101 45.5 -154 q45.5 -53 121.5 -53 Z" /><glyph glyph-name="thorn" unicode="þ" d="M83 -216 l0 952 l61 0 l0 -360 l-11 0 q17 62 66.5 98 q49.5 36 119.5 36 q68 0 117.5 -31.5 q49.5 -31.5 77 -89 q27.5 -57.5 27.5 -138.5 q0 -81 -27.5 -139 q-27.5 -58 -77 -89 q-49.5 -31 -117.5 -31 q-70 0 -119.5 35.5 q-49.5 35.5 -66.5 97.5 l11 0 l0 -341 l-61 0 ZM311 44 q77 0 122.5 53 q45.5 53 45.5 154 q0 101 -45.5 154 q-45.5 53 -122.5 53 q-76 0 -122 -53 q-46 -53 -46 -154 q0 -101 46 -154 q46 -53 122 -53 Z" /><glyph glyph-name="q" unicode="q" d="M447 -216 l0 341 l11 0 q-16 -62 -66.5 -97.5 q-50.5 -35.5 -118.5 -35.5 q-68 0 -118 31 q-50 31 -77 89 q-27 58 -27 139 q0 81 27.5 138.5 q27.5 57.5 77.5 89 q50 31.5 117 31.5 q69 0 119.5 -36 q50.5 -36 66.5 -98 l-12 0 l10 125 l59 0 q-3 -29 -5.5 -57 q-2.5 -28 -2.5 -55 l0 -605 l-61 0 ZM281 44 q77 0 122 53 q45 53 45 154 q0 101 -45 154 q-45 53 -122 53 q-77 0 -122.5 -53 q-45.5 -53 -45.5 -154 q0 -101 45.5 -154 q45.5 -53 122.5 -53 Z" /><glyph glyph-name="r" unicode="r" d="M82 0 l0 384 q0 29 -1.5 58.5 q-1.5 29.5 -5.5 58.5 l60 0 l8 -115 l-12 -1 q10 42 36 69.5 q26 27.5 60 41.5 q34 14 70 14 q13 0 24.5 -1.5 q11.5 -1.5 21.5 -4.5 l-2 -55 q-12 4 -24 5 q-12 1 -26 1 q-45 0 -78.5 -22 q-33.5 -22 -51.5 -56 q-18 -34 -18 -69 l0 -308 l-61 0 Z" /><glyph glyph-name="s" unicode="s" d="M245 -8 q-58 0 -108.5 17 q-50.5 17 -83.5 47 l24 45 q37 -30 80 -44.5 q43 -14.5 90 -14.5 q64 0 97 24 q33 24 33 65 q0 32 -21 52 q-21 20 -70 30 l-90 19 q-64 15 -95.5 48 q-31.5 33 -31.5 83 q0 43 22.5 76 q22.5 33 64.5 52 q42 19 99 19 q54 0 99.5 -17.5 q45.5 -17.5 74.5 -49.5 l-26 -44 q-30 30 -67.5 45 q-37.5 15 -79.5 15 q-62 0 -94 -25.5 q-32 -25.5 -32 -67.5 q0 -32 20 -52.5 q20 -20.5 63 -30.5 l90 -20 q68 -15 101 -46 q33 -31 33 -82 q0 -44 -24 -76.5 q-24 -32.5 -67 -49.5 q-43 -17 -101 -17 Z" /><glyph glyph-name="germandbls" unicode="ß" d="M83 0 l0 502 q0 116 56.5 177.5 q56.5 61.5 168.5 61.5 q59 0 101 -19.5 q42 -19.5 64.5 -56 q22.5 -36.5 22.5 -87.5 q0 -68 -38.5 -121 q-38.5 -53 -137.5 -93 l0 12 q95 -25 152.5 -57.5 q57.5 -32.5 83.5 -73 q26 -40.5 26 -90.5 q0 -50 -23.5 -87 q-23.5 -37 -66 -56.5 q-42.5 -19.5 -100.5 -19.5 q-37 0 -69.5 7 q-32.5 7 -60 21 q-27.5 14 -49.5 35 l23 45 q38 -30 75.5 -44 q37.5 -14 82.5 -14 q60 0 93.5 29 q33.5 29 33.5 83 q0 37 -22 69 q-22 32 -77 61 q-55 29 -156 56 l0 51 q67 26 104.5 54.5 q37.5 28.5 53 61.5 q15.5 33 15.5 72 q0 50 -33.5 80.5 q-33.5 30.5 -96.5 30.5 q-86 0 -125.5 -46 q-39.5 -46 -39.5 -137 l0 -507 l-61 0 Z" /><glyph glyph-name="t" unicode="t" d="M245 -8 q-67 0 -102.5 40 q-35.5 40 -35.5 123 l0 297 l-100 0 l0 49 l100 0 l0 140 l61 20 l0 -160 l148 0 l0 -49 l-148 0 l0 -288 q0 -63 20 -91 q20 -28 64 -28 q20 0 35.5 4 q15.5 4 26.5 9 l0 -54 q-12 -5 -31 -8.5 q-19 -3.5 -38 -3.5 Z" /><glyph glyph-name="u" unicode="u" d="M259 -8 q-88 0 -133.5 47.5 q-45.5 47.5 -45.5 146.5 l0 315 l61 0 l0 -311 q0 -76 31 -111 q31 -35 95 -35 q71 0 114.5 46.5 q43.5 46.5 43.5 123.5 l0 287 l61 0 l0 -501 l-60 0 l0 118 l13 0 q-21 -61 -68.5 -93.5 q-47.5 -32.5 -111.5 -32.5 Z" /><glyph glyph-name="v" unicode="v" d="M231 0 l-213 501 l68 0 l190 -463 l-26 0 l192 463 l65 0 l-213 -501 l-63 0 Z" /><glyph glyph-name="w" unicode="w" d="M216 0 l-181 501 l66 0 l161 -465 l-27 0 l167 465 l62 0 l164 -465 l-26 0 l163 465 l63 0 l-182 -501 l-63 0 l-168 471 l35 0 l-170 -471 l-64 0 Z" /><glyph glyph-name="x" unicode="x" d="M21 0 l220 275 l0 -33 l-209 259 l75 0 l168 -213 l-22 0 l168 213 l73 0 l-205 -257 l0 28 l218 -272 l-76 0 l-178 227 l22 0 l-180 -227 l-74 0 Z" /><glyph glyph-name="y" unicode="y" d="M60 -227 l-15 53 q47 11 78 26.5 q31 15.5 52 40.5 q21 25 37 62 l26 60 l-1 -27 l-219 513 l68 0 l191 -463 l-25 0 l189 463 l66 0 l-232 -549 q-19 -46 -41.5 -76.5 q-22.5 -30.5 -48.5 -51 q-26 -20.5 -57 -32.5 q-31 -12 -68 -19 Z" /><glyph glyph-name="uni01B4" unicode="&#x1b4;" d="M60 -227 l-15 53 q47 11 78 26.5 q31 15.5 52 40.5 q21 25 37 62 l26 60 l-1 -27 l-219 513 l68 0 l191 -463 l-25 0 l149 365 q23 56 55.5 81.5 q32.5 25.5 85.5 25.5 q17 0 30 -2 q13 -2 25 -6 l-8 -50 q-9 3 -19.5 4.5 q-10.5 1.5 -18.5 1.5 q-34 0 -55.5 -17.5 q-21.5 -17.5 -43.5 -68.5 l-177 -420 q-19 -46 -41.5 -76.5 q-22.5 -30.5 -48.5 -51 q-26 -20.5 -57 -32.5 q-31 -12 -68 -19 Z" /><glyph glyph-name="z" unicode="z" d="M50 0 l0 42 l349 427 l1 -17 l-350 0 l0 49 l408 0 l0 -42 l-352 -428 l-1 18 l364 0 l0 -49 l-419 0 Z" /><glyph glyph-name="fi" unicode="&#xfb01;" d="M107 0 l0 452 l-100 0 l0 49 l115 0 l-15 -16 l0 87 q0 80 39.5 124 q39.5 44 113.5 44 q18 0 38.5 -3.5 q20.5 -3.5 33.5 -8.5 l0 -54 q-12 5 -29 9 q-17 4 -36 4 q-50 0 -75 -30.5 q-25 -30.5 -25 -91.5 l0 -80 l-10 16 l309 0 l0 -501 l-61 0 l0 452 l-237 0 l0 -452 l-61 0 ZM395 624 l0 76 l82 0 l0 -76 l-82 0 Z" /><glyph glyph-name="ordfeminine" unicode="ª" d="M132 412 q-46 0 -76 25.5 q-30 25.5 -30 63.5 q0 45 41.5 65 q41.5 20 108.5 20 l64 0 l0 -33 l-62 0 q-53 0 -79.5 -12.5 q-26.5 -12.5 -26.5 -38.5 q0 -23 16.5 -38.5 q16.5 -15.5 52.5 -15.5 q40 0 66 26.5 q26 26.5 26 72.5 l0 58 q0 35 -19 53 q-19 18 -56 18 q-28 0 -55.5 -7.5 q-27.5 -7.5 -50.5 -22.5 l-14 36 q24 16 56.5 23.5 q32.5 7.5 64.5 7.5 q119 0 119 -110 l0 -186 l-44 0 l0 54 l-2 0 q-17 -31 -41 -45 q-24 -14 -59 -14 Z" /><glyph glyph-name="ordmasculine" unicode="º" d="M167 412 q-41 0 -72.5 18.5 q-31.5 18.5 -50 53 q-18.5 34.5 -18.5 79.5 q0 46 18.5 79.5 q18.5 33.5 50 52 q31.5 18.5 72.5 18.5 q42 0 73.5 -18.5 q31.5 -18.5 50 -52 q18.5 -33.5 18.5 -79.5 q0 -45 -18.5 -79.5 q-18.5 -34.5 -50 -53 q-31.5 -18.5 -73.5 -18.5 ZM167 450 q44 0 69.5 29 q25.5 29 25.5 84 q0 55 -25.5 83.5 q-25.5 28.5 -69.5 28.5 q-43 0 -69 -28.5 q-26 -28.5 -26 -83.5 q0 -55 26 -84 q26 -29 69 -29 Z" /><glyph glyph-name="uni0411" unicode="&#x411;" d="M93 0 l0 705 l461 0 l0 -53 l-401 0 l0 -266 l231 0 q114 0 175.5 -47.5 q61.5 -47.5 61.5 -144.5 q0 -96 -61.5 -145 q-61.5 -49 -175.5 -49 l-291 0 ZM153 53 l227 0 q90 0 134 35 q44 35 44 106 q0 71 -44 105 q-44 34 -134 34 l-227 0 l0 -280 Z" /><glyph glyph-name="uni0413" unicode="&#x413;" d="M93 0 l0 705 l441 0 l0 -54 l-380 0 l0 -651 l-61 0 Z" /><glyph glyph-name="uni0490" unicode="&#x490;" d="M93 0 l0 705 l384 0 l0 152 l57 0 l0 -206 l-380 0 l0 -651 l-61 0 Z" /><glyph glyph-name="uni0414" unicode="&#x414;" d="M18 -153 l0 206 l71 0 q57 69 84 184 q27 115 27 287 l0 181 l467 0 l0 -652 l103 0 l0 -206 l-57 0 l0 153 l-638 0 l0 -153 l-57 0 ZM155 53 l450 0 l0 599 l-347 0 l0 -131 q0 -169 -25 -281.5 q-25 -112.5 -78 -186.5 Z" /><glyph glyph-name="uni0416" unicode="&#x416;" d="M14 0 l120 242 q33 63 77.5 98.5 q44.5 35.5 105.5 40.5 l-21 -21 l-242 345 l70 0 l234 -336 l-22 15 l122 0 l0 321 l61 0 l0 -321 l124 0 l-25 -15 l234 336 l70 0 l-241 -345 l-21 21 q61 -5 104.5 -40.5 q43.5 -35.5 75.5 -98.5 l122 -242 l-66 0 l-104 208 q-32 66 -73.5 94 q-41.5 28 -100.5 28 l-99 0 l0 -330 l-61 0 l0 330 l-99 0 q-61 0 -103 -28 q-42 -28 -73 -94 l-102 -208 l-67 0 Z" /><glyph glyph-name="uni0417" unicode="&#x417;" d="M324 -8 q-92 0 -164.5 25 q-72.5 25 -115.5 68 l25 50 q52 -45 112 -66 q60 -21 141 -21 q108 0 158 36.5 q50 36.5 50 107.5 q0 71 -45 104.5 q-45 33.5 -135 33.5 l-178 0 l0 53 l165 0 q86 0 131.5 35 q45.5 35 45.5 100 q0 66 -48.5 102.5 q-48.5 36.5 -142.5 36.5 q-68 0 -127.5 -20 q-59.5 -20 -108.5 -64 l-26 50 q47 44 117 67 q70 23 146 23 q125 0 188.5 -51 q63.5 -51 63.5 -140 q0 -66 -40 -110.5 q-40 -44.5 -110 -58.5 l0 13 q77 -9 122 -54 q45 -45 45 -120 q0 -63 -30 -108 q-30 -45 -89.5 -68.5 q-59.5 -23.5 -149.5 -23.5 Z" /><glyph glyph-name="uni0418" unicode="&#x418;" d="M93 0 l0 705 l57 0 l0 -635 l-22 0 l472 635 l50 0 l0 -705 l-57 0 l0 635 l21 0 l-473 -635 l-48 0 Z" /><glyph glyph-name="uni048A" unicode="&#x48a;" d="M631 -153 l53 153 l-91 0 l0 53 l163 0 l-71 -206 l-54 0 ZM93 0 l0 705 l57 0 l0 -635 l-22 0 l472 635 l50 0 l0 -705 l-57 0 l0 635 l21 0 l-473 -635 l-48 0 ZM373 760 q-41 0 -78.5 13 q-37.5 13 -66 41.5 q-28.5 28.5 -45.5 73.5 l40 15 q21 -51 58 -75 q37 -24 92 -24 q55 0 91.5 21.5 q36.5 21.5 65.5 76.5 l39 -14 q-31 -73 -83 -100.5 q-52 -27.5 -113 -27.5 Z" /><glyph glyph-name="uni041A" unicode="&#x41a;" d="M93 0 l0 705 l60 0 l0 -321 l154 0 l-23 -15 l233 336 l71 0 l-242 -345 l-21 21 q61 -5 104.5 -40.5 q43.5 -35.5 75.5 -98.5 l122 -242 l-67 0 l-102 208 q-32 67 -73.5 94.5 q-41.5 27.5 -101.5 27.5 l-130 0 l0 -330 l-60 0 Z" /><glyph glyph-name="uni041B" unicode="&#x41b;" d="M46 -14 l-27 51 q42 22 75 52 q33 30 56.5 80 q23.5 50 35.5 129 q12 79 12 196 l0 211 l467 0 l0 -705 l-62 0 l0 651 l-347 0 l0 -172 q0 -114 -13.5 -196 q-13.5 -82 -40.5 -139.5 q-27 -57.5 -65.5 -95 q-38.5 -37.5 -90.5 -62.5 Z" /><glyph glyph-name="uni041F" unicode="&#x41f;" d="M93 0 l0 705 l577 0 l0 -705 l-62 0 l0 651 l-455 0 l0 -651 l-60 0 Z" /><glyph glyph-name="uni0423" unicode="&#x423;" d="M212 0 l121 226 l1 -29 l-329 508 l68 0 l292 -450 l-15 0 l239 450 l65 0 l-376 -705 l-66 0 Z" /><glyph glyph-name="uni0424" unicode="&#x424;" d="M394 -21 l0 94 l19 -16 l-27 0 q-100 0 -172 37 q-72 37 -110.5 104.5 q-38.5 67.5 -38.5 159.5 q0 141 84 221 q84 80 237 80 l27 0 l-19 -17 l0 89 l62 0 l0 -89 l-18 17 l26 0 q154 0 238 -80 q84 -80 84 -221 q0 -92 -38.5 -159.5 q-38.5 -67.5 -110.5 -104.5 q-72 -37 -173 -37 l-26 0 l18 16 l0 -94 l-62 0 ZM395 93 l0 529 l17 -16 l-37 0 q-115 0 -180.5 -65 q-65.5 -65 -65.5 -183 q0 -76 30.5 -132 q30.5 -56 85.5 -86.5 q55 -30.5 130 -30.5 l37 0 l-17 -16 ZM456 93 l-17 16 l37 0 q75 0 130 30.5 q55 30.5 85 86.5 q30 56 30 132 q0 118 -65.5 183 q-65.5 65 -179.5 65 l-37 0 l17 16 l0 -529 Z" /><glyph glyph-name="uni0427" unicode="&#x427;" d="M529 0 l0 308 q-35 -19 -86.5 -29 q-51.5 -10 -103.5 -10 q-137 0 -208 71.5 q-71 71.5 -71 212.5 l0 152 l62 0 l0 -146 q0 -120 55 -176.5 q55 -56.5 166 -56.5 q50 0 97.5 10 q47.5 10 88.5 33 l0 336 l61 0 l0 -705 l-61 0 Z" /><glyph glyph-name="uni0426" unicode="&#x426;" d="M715 -153 l0 153 l-622 0 l0 705 l60 0 l0 -651 l455 0 l0 651 l62 0 l0 -651 l103 0 l0 -207 l-58 0 Z" /><glyph glyph-name="uni0428" unicode="&#x428;" d="M93 0 l0 705 l61 0 l0 -651 l353 0 l0 651 l61 0 l0 -651 l353 0 l0 651 l61 0 l0 -705 l-889 0 Z" /><glyph glyph-name="uni0429" unicode="&#x429;" d="M1028 -153 l0 153 l-935 0 l0 705 l61 0 l0 -651 l353 0 l0 651 l61 0 l0 -651 l353 0 l0 651 l61 0 l0 -651 l103 0 l0 -207 l-57 0 Z" /><glyph glyph-name="uni040F" unicode="&#x40f;" d="M352 -153 l0 153 l-259 0 l0 705 l61 0 l0 -651 l454 0 l0 651 l62 0 l0 -705 l-260 0 l0 -153 l-58 0 Z" /><glyph glyph-name="uni042C" unicode="&#x42c;" d="M93 0 l0 705 l61 0 l0 -319 l230 0 q114 0 175.5 -47.5 q61.5 -47.5 61.5 -144.5 q0 -96 -61.5 -145 q-61.5 -49 -175.5 -49 l-291 0 ZM154 53 l226 0 q90 0 134 35 q44 35 44 106 q0 71 -44 105 q-44 34 -134 34 l-226 0 l0 -280 Z" /><glyph glyph-name="uni042A" unicode="&#x42a;" d="M237 0 l0 651 l-227 0 l0 54 l288 0 l0 -319 l230 0 q114 0 175.5 -47.5 q61.5 -47.5 61.5 -144.5 q0 -96 -61.5 -145 q-61.5 -49 -175.5 -49 l-291 0 ZM298 53 l226 0 q90 0 134.5 35 q44.5 35 44.5 106 q0 71 -44.5 105.5 q-44.5 34.5 -134.5 34.5 l-226 0 l0 -281 Z" /><glyph glyph-name="uni042B" unicode="&#x42b;" d="M93 0 l0 705 l61 0 l0 -319 l199 0 q114 0 175.5 -47.5 q61.5 -47.5 61.5 -144.5 q0 -96 -61.5 -145 q-61.5 -49 -175.5 -49 l-260 0 ZM154 53 l195 0 q90 0 134 35 q44 35 44 106 q0 71 -44 105.5 q-44 34.5 -134 34.5 l-195 0 l0 -281 ZM699 0 l0 705 l61 0 l0 -705 l-61 0 Z" /><glyph glyph-name="uni0409" unicode="&#x409;" d="M46 -14 l-27 51 q42 22 75 52 q33 30 56.5 80 q23.5 50 35.5 129 q12 79 12 196 l0 211 l448 0 l0 -319 l230 0 q114 0 175.5 -47.5 q61.5 -47.5 61.5 -144.5 q0 -96 -61.5 -145 q-61.5 -49 -175.5 -49 l-291 0 l0 651 l-329 0 l0 -172 q0 -114 -13.5 -196 q-13.5 -82 -40.5 -139.5 q-27 -57.5 -65.5 -95 q-38.5 -37.5 -90.5 -62.5 ZM646 53 l226 0 q90 0 134.5 35 q44.5 35 44.5 106 q0 71 -44.5 105.5 q-44.5 34.5 -134.5 34.5 l-226 0 l0 -281 Z" /><glyph glyph-name="uni040A" unicode="&#x40a;" d="M93 0 l0 705 l60 0 l0 -320 l454 0 l0 320 l62 0 l0 -319 l230 0 q113 0 174.5 -47.5 q61.5 -47.5 61.5 -144.5 q0 -96 -61.5 -145 q-61.5 -49 -174.5 -49 l-292 0 l0 331 l-454 0 l0 -331 l-60 0 ZM669 53 l225 0 q91 0 134.5 35 q43.5 35 43.5 106 q0 71 -43.5 105.5 q-43.5 34.5 -134.5 34.5 l-225 0 l0 -281 Z" /><glyph glyph-name="uni0404" unicode="&#x404;" d="M391 -8 q-104 0 -177 43.5 q-73 43.5 -111 124.5 q-38 81 -38 193 q0 112 38 192.5 q38 80.5 111 124 q73 43.5 177 43.5 q75 0 135 -24 q60 -24 105 -69 l-27 -50 q-48 45 -97.5 65.5 q-49.5 20.5 -115.5 20.5 q-127 0 -192.5 -77 q-65.5 -77 -68.5 -214 l-21 20 l405 0 l0 -54 l-406 0 l22 14 q3 -140 68.5 -218 q65.5 -78 192.5 -78 q66 0 115.5 20.5 q49.5 20.5 97.5 66.5 l27 -51 q-45 -45 -105 -69 q-60 -24 -135 -24 Z" /><glyph glyph-name="uni042D" unicode="&#x42d;" d="M296 -8 q-75 0 -135 24 q-60 24 -105 69 l27 51 q48 -46 97.5 -66.5 q49.5 -20.5 115.5 -20.5 q127 0 193 78 q66 78 68 218 l22 -14 l-406 0 l0 54 l405 0 l-21 -20 q-3 137 -68 214 q-65 77 -192 77 q-66 0 -115.5 -20.5 q-49.5 -20.5 -98.5 -65.5 l-27 50 q45 45 105.5 69 q60.5 24 135.5 24 q104 0 176.5 -43.5 q72.5 -43.5 110.5 -124 q38 -80.5 38 -192.5 q0 -112 -38 -193 q-38 -81 -110.5 -124.5 q-72.5 -43.5 -177.5 -43.5 Z" /><glyph glyph-name="uni040B" unicode="&#x40b;" d="M266 0 l0 651 l-256 0 l0 54 l573 0 l0 -54 l-255 0 l0 -258 q34 19 85 29 q51 10 103 10 q138 0 209 -71 q71 -71 71 -213 l0 -148 l-62 0 l0 142 q0 121 -55.5 177.5 q-55.5 56.5 -166.5 56.5 q-50 0 -96.5 -9 q-46.5 -9 -87.5 -33 l0 -334 l-62 0 Z" /><glyph glyph-name="uni042E" unicode="&#x42e;" d="M644 -8 q-94 0 -164 41 q-70 41 -109 117 q-39 76 -44 180 l-173 0 l0 -330 l-61 0 l0 705 l61 0 l0 -320 l173 0 q7 102 46.5 175.5 q39.5 73.5 108.5 113 q69 39.5 162 39.5 q98 0 169 -43.5 q71 -43.5 109.5 -124 q38.5 -80.5 38.5 -192.5 q0 -111 -39 -192 q-39 -81 -110 -125 q-71 -44 -168 -44 ZM644 48 q120 0 186 80 q66 80 66 225 q0 145 -65.5 224.5 q-65.5 79.5 -186.5 79.5 q-121 0 -187 -79.5 q-66 -79.5 -66 -224.5 q0 -144 66 -224.5 q66 -80.5 187 -80.5 Z" /><glyph glyph-name="uni042F" unicode="&#x42f;" d="M42 0 l133 236 q25 45 54.5 65 q29.5 20 69.5 20 l22 0 l-8 -13 q-113 0 -176.5 51.5 q-63.5 51.5 -63.5 146.5 q0 96 61.5 147.5 q61.5 51.5 176.5 51.5 l277 0 l0 -705 l-62 0 l0 305 l-142 0 q-56 0 -88 -16 q-32 -16 -59 -63 l-126 -226 l-69 0 ZM319 357 l207 0 l0 296 l-207 0 q-183 0 -183 -148 q0 -148 183 -148 Z" /><glyph glyph-name="uni0402" unicode="&#x402;" d="M580 -188 q-33 0 -64 5.5 q-31 5.5 -52 15.5 l15 50 q20 -10 44.5 -14 q24.5 -4 53.5 -4 q71 0 108 44.5 q37 44.5 37 134.5 l0 98 q0 119 -53.5 176 q-53.5 57 -166.5 57 q-52 0 -95 -10.5 q-43 -10.5 -79 -31.5 l0 -333 l-62 0 l0 651 l-256 0 l0 54 l573 0 l0 -54 l-255 0 l0 -258 q30 18 78 28.5 q48 10.5 101 10.5 q138 0 207.5 -71 q69.5 -71 69.5 -213 l0 -103 q0 -76 -24 -128 q-24 -52 -69.5 -78.5 q-45.5 -26.5 -110.5 -26.5 Z" /><glyph glyph-name="uni0462" unicode="&#x462;" d="M160 0 l0 542 l-180 0 l0 52 l180 0 l0 111 l60 0 l0 -111 l247 0 l0 -52 l-247 0 l0 -156 l230 0 q114 0 175.5 -47.5 q61.5 -47.5 61.5 -144.5 q0 -96 -61.5 -145 q-61.5 -49 -175.5 -49 l-290 0 ZM220 53 l227 0 q89 0 133.5 35 q44.5 35 44.5 106 q0 71 -44.5 105.5 q-44.5 34.5 -133.5 34.5 l-227 0 l0 -281 Z" /><glyph glyph-name="uni046A" unicode="&#x46a;" d="M14 0 l122 242 q21 43 50.5 74.5 q29.5 31.5 72.5 49.5 q43 18 106 18 l66 0 l-5 -17 l-301 338 l707 0 l-302 -338 l-5 17 l66 0 q63 0 106 -18 q43 -18 73 -49.5 q30 -31.5 51 -74.5 l121 -242 l-66 0 l-104 208 q-31 67 -71.5 94.5 q-40.5 27.5 -101.5 27.5 l-90 0 l0 -330 l-62 0 l0 330 l-89 0 q-60 0 -100.5 -27.5 q-40.5 -27.5 -73.5 -94.5 l-104 -208 l-66 0 ZM477 387 l2 0 l262 297 l0 -28 l-526 0 l0 28 l262 -297 Z" /><glyph glyph-name="uni0474" unicode="&#x474;" d="M311 0 l-304 705 l67 0 l282 -661 l-27 0 l210 486 q22 51 44.5 86 q22.5 35 49 56.5 q26.5 21.5 61.5 31 q35 9.5 82 9.5 l6 -51 q-47 0 -78.5 -12.5 q-31.5 -12.5 -56 -44 q-24.5 -31.5 -49.5 -87.5 l-227 -518 l-60 0 Z" /><glyph glyph-name="uni0492" unicode="&#x492;" d="M128 0 l0 330 l-102 0 l0 50 l102 0 l0 325 l442 0 l0 -54 l-380 0 l0 -271 l193 0 l0 -50 l-193 0 l0 -330 l-62 0 Z" /><glyph glyph-name="uni0494" unicode="&#x494;" d="M408 -188 q-27 0 -55.5 3.5 q-28.5 3.5 -45.5 10.5 l0 56 q19 -9 43.5 -13.5 q24.5 -4.5 53.5 -4.5 q70 0 107.5 45.5 q37.5 45.5 37.5 135.5 l0 97 q0 120 -53.5 176.5 q-53.5 56.5 -166.5 56.5 q-52 0 -95.5 -10.5 q-43.5 -10.5 -80.5 -31.5 l0 -333 l-60 0 l0 705 l439 0 l0 -54 l-379 0 l0 -258 q31 18 79.5 28.5 q48.5 10.5 101.5 10.5 q138 0 207.5 -71 q69.5 -71 69.5 -213 l0 -101 q0 -76 -24 -128.5 q-24 -52.5 -69 -79.5 q-45 -27 -110 -27 Z" /><glyph glyph-name="uni0496" unicode="&#x496;" d="M962 -153 l0 153 l-46 0 l0 53 l103 0 l0 -206 l-57 0 ZM14 0 l120 242 q33 63 77.5 98.5 q44.5 35.5 105.5 40.5 l-21 -21 l-242 345 l70 0 l234 -336 l-22 15 l122 0 l0 321 l61 0 l0 -321 l124 0 l-25 -15 l234 336 l70 0 l-241 -345 l-21 21 q61 -5 104.5 -40.5 q43.5 -35.5 75.5 -98.5 l122 -242 l-66 0 l-104 208 q-32 66 -73.5 94 q-41.5 28 -100.5 28 l-99 0 l0 -330 l-61 0 l0 330 l-99 0 q-61 0 -103 -28 q-42 -28 -73 -94 l-102 -208 l-67 0 Z" /><glyph glyph-name="uni0498" unicode="&#x498;" d="M298 -153 l0 177 l58 0 l0 -177 l-58 0 ZM324 -8 q-92 0 -164.5 25 q-72.5 25 -115.5 68 l25 50 q52 -45 112 -66 q60 -21 141 -21 q108 0 158 36.5 q50 36.5 50 107.5 q0 71 -45 104.5 q-45 33.5 -135 33.5 l-178 0 l0 53 l165 0 q86 0 131.5 35 q45.5 35 45.5 100 q0 66 -48.5 102.5 q-48.5 36.5 -142.5 36.5 q-68 0 -127.5 -20 q-59.5 -20 -108.5 -64 l-26 50 q47 44 117 67 q70 23 146 23 q125 0 188.5 -51 q63.5 -51 63.5 -140 q0 -66 -40 -110.5 q-40 -44.5 -110 -58.5 l0 13 q77 -9 122 -54 q45 -45 45 -120 q0 -63 -30 -108 q-30 -45 -89.5 -68.5 q-59.5 -23.5 -149.5 -23.5 Z" /><glyph glyph-name="uni049A" unicode="&#x49a;" d="M625 -153 l0 153 l-46 0 l0 53 l103 0 l0 -206 l-57 0 ZM93 0 l0 705 l60 0 l0 -321 l154 0 l-23 -15 l233 336 l71 0 l-242 -345 l-21 21 q61 -5 104.5 -40.5 q43.5 -35.5 75.5 -98.5 l122 -242 l-67 0 l-102 208 q-32 67 -73.5 94.5 q-41.5 27.5 -101.5 27.5 l-130 0 l0 -330 l-60 0 Z" /><glyph glyph-name="uni049C" unicode="&#x49c;" d="M93 0 l0 705 l61 0 l0 -321 l80 0 l0 170 l45 0 l0 -170 l34 0 l223 321 l71 0 l-242 -345 l-22 21 q61 -5 105.5 -40.5 q44.5 -35.5 76.5 -98.5 l122 -242 l-68 0 l-102 208 q-32 67 -73.5 94.5 q-41.5 27.5 -101.5 27.5 l-33 0 l10 9 l0 -177 l-45 0 l0 168 l-80 0 l0 -330 l-61 0 Z" /><glyph glyph-name="uni049E" unicode="&#x49e;" d="M132 0 l0 547 l-145 0 l0 49 l145 0 l0 109 l61 0 l0 -109 l152 0 l0 -49 l-152 0 l0 -163 l158 0 l-25 -18 l236 339 l71 0 l-244 -347 l-18 22 q57 -5 99.5 -40 q42.5 -35 74.5 -98 l122 -242 l-67 0 l-102 208 q-32 67 -73.5 94.5 q-41.5 27.5 -101.5 27.5 l-130 0 l0 -330 l-61 0 Z" /><glyph glyph-name="uni04A0" unicode="&#x4a0;" d="M10 652 l0 53 l285 0 l0 -53 l-285 0 ZM235 0 l0 705 l60 0 l0 -321 l154 0 l-23 -15 l233 336 l71 0 l-242 -345 l-21 21 q61 -5 104.5 -40.5 q43.5 -35.5 76.5 -98.5 l122 -242 l-68 0 l-102 208 q-32 67 -73.5 94.5 q-41.5 27.5 -101.5 27.5 l-130 0 l0 -330 l-60 0 Z" /><glyph glyph-name="uni04A2" unicode="&#x4a2;" d="M734 -153 l0 153 l-106 0 l0 53 l163 0 l0 -206 l-57 0 ZM93 0 l0 705 l62 0 l0 -320 l453 0 l0 320 l62 0 l0 -705 l-62 0 l0 330 l-453 0 l0 -330 l-62 0 Z" /><glyph glyph-name="uni04A4" unicode="&#x4a4;" d="M93 0 l0 705 l60 0 l0 -320 l456 0 l0 320 l331 0 l0 -54 l-270 0 l0 -651 l-61 0 l0 331 l-456 0 l0 -331 l-60 0 Z" /><glyph glyph-name="uni0524" unicode="&#x524;" d="M716 -153 l0 153 l-106 0 l0 53 l163 0 l0 -206 l-57 0 ZM93 0 l0 705 l577 0 l0 -705 l-62 0 l0 651 l-455 0 l0 -651 l-60 0 Z" /><glyph glyph-name="uni04A8" unicode="&#x4a8;" d="M396 -8 q-104 0 -178 42.5 q-74 42.5 -113.5 123 q-39.5 80.5 -39.5 193.5 q0 115 39 195.5 q39 80.5 111.5 123.5 q72.5 43 173.5 43 q24 0 43 -1.5 q19 -1.5 31 -4.5 l-11 -56 q-18 2 -33.5 4 q-15.5 2 -28.5 2 q-124 0 -192 -79 q-68 -79 -68 -225 q0 -147 68.5 -227.5 q68.5 -80.5 194.5 -80.5 q88 0 150 35 q62 35 95 99 q33 64 33 151 q0 82 -35.5 127 q-35.5 45 -96.5 45 q-62 0 -97.5 -45 q-35.5 -45 -35.5 -127 q0 -86 33.5 -150 q33.5 -64 96 -99.5 q62.5 -35.5 149.5 -35.5 q39 0 70.5 8.5 q31.5 8.5 61.5 23.5 l16 -53 q-27 -17 -64 -24.5 q-37 -7.5 -85 -7.5 q-75 0 -137 24 q-62 24 -107 69 q-45 45 -69 107.5 q-24 62.5 -24 137.5 q0 72 23.5 122.5 q23.5 50.5 66.5 78.5 q43 28 102 28 q60 0 102.5 -28 q42.5 -28 66 -78.5 q23.5 -50.5 23.5 -122.5 q0 -73 -24.5 -135 q-24.5 -62 -69 -107.5 q-44.5 -45.5 -106 -70.5 q-61.5 -25 -135.5 -25 Z" /><glyph glyph-name="uni04AA" unicode="&#x4aa;" d="M363 -153 l0 177 l58 0 l0 -177 l-58 0 ZM390 -8 q-104 0 -176.5 43.5 q-72.5 43.5 -110.5 124.5 q-38 81 -38 193 q0 112 38 192.5 q38 80.5 110.5 124 q72.5 43.5 176.5 43.5 q76 0 135 -23.5 q59 -23.5 103 -69.5 l-26 -50 q-49 45 -98 65.5 q-49 20.5 -114 20.5 q-127 0 -193 -79.5 q-66 -79.5 -66 -223.5 q0 -144 66 -224 q66 -80 193 -80 q65 0 114 20.5 q49 20.5 98 65.5 l26 -50 q-44 -46 -103.5 -69.5 q-59.5 -23.5 -134.5 -23.5 Z" /><glyph glyph-name="uni04AC" unicode="&#x4ac;" d="M373 -153 l0 153 l-107 0 l0 651 l-256 0 l0 54 l573 0 l0 -54 l-255 0 l0 -597 l102 0 l0 -207 l-57 0 Z" /><glyph glyph-name="uni04B2" unicode="&#x4b2;" d="M619 -153 l0 153 l-45 0 l0 53 l103 0 l0 -206 l-58 0 ZM17 0 l277 371 l0 -20 l-263 354 l73 0 l229 -310 l-19 0 l225 310 l74 0 l-263 -354 l0 20 l277 -371 l-74 0 l-244 331 l26 0 l-244 -331 l-74 0 Z" /><glyph glyph-name="uni04B4" unicode="&#x4b4;" d="M859 -153 l0 153 l-622 0 l0 651 l-227 0 l0 54 l509 0 l0 -54 l-222 0 l0 -597 l455 0 l0 651 l61 0 l0 -651 l103 0 l0 -207 l-57 0 Z" /><glyph glyph-name="uni04B6" unicode="&#x4b6;" d="M636 -153 l0 153 l-106 0 l0 53 l163 0 l0 -206 l-57 0 ZM529 0 l0 308 q-35 -19 -86.5 -29 q-51.5 -10 -103.5 -10 q-137 0 -208 71.5 q-71 71.5 -71 212.5 l0 152 l62 0 l0 -146 q0 -120 55 -176.5 q55 -56.5 166 -56.5 q50 0 97.5 10 q47.5 10 88.5 33 l0 336 l61 0 l0 -705 l-61 0 Z" /><glyph glyph-name="uni04B8" unicode="&#x4b8;" d="M529 0 l0 308 q-35 -18 -84.5 -28 q-49.5 -10 -99.5 -10 l13 11 l0 -167 l-48 0 l0 167 l12 -12 q-127 7 -194.5 75.5 q-67.5 68.5 -67.5 208.5 l0 152 l62 0 l0 -146 q0 -118 52 -173 q52 -55 151 -60 l-15 -10 l0 187 l48 0 l0 -187 l-14 10 q49 0 97 10 q48 10 88 33 l0 336 l61 0 l0 -705 l-61 0 Z" /><glyph glyph-name="uni04BA" unicode="&#x4ba;" d="M93 0 l0 705 l61 0 l0 -308 q35 19 86 29 q51 10 103 10 q137 0 208.5 -71 q71.5 -71 71.5 -213 l0 -152 l-62 0 l0 146 q0 121 -55.5 177.5 q-55.5 56.5 -166.5 56.5 q-49 0 -96 -9 q-47 -9 -89 -33 l0 -338 l-61 0 Z" /><glyph glyph-name="uni0526" unicode="&#x526;" d="M669 -153 l0 153 l-106 0 l0 53 l163 0 l0 -206 l-57 0 ZM93 0 l0 705 l61 0 l0 -308 q35 19 86 29 q51 10 103 10 q137 0 208.5 -71 q71.5 -71 71.5 -213 l0 -152 l-62 0 l0 146 q0 121 -55.5 177.5 q-55.5 56.5 -166.5 56.5 q-49 0 -96 -9 q-47 -9 -89 -33 l0 -338 l-61 0 Z" /><glyph glyph-name="uni04BC" unicode="&#x4bc;" d="M549 -8 q-156 0 -242.5 91 q-86.5 91 -92.5 251 l18 -12 l-36 0 q-87 0 -130.5 40.5 q-43.5 40.5 -43.5 121.5 l0 58 l61 0 l0 -55 q0 -59 27.5 -85 q27.5 -26 87.5 -26 l27 0 l-11 -9 q4 108 41.5 185.5 q37.5 77.5 106 119 q68.5 41.5 162.5 41.5 q110 0 176 -44 q66 -44 96.5 -125 q30.5 -81 30.5 -190 l0 -31 l-558 0 l10 19 q2 -141 71 -217.5 q69 -76.5 204 -76.5 q52 0 87.5 9 q35.5 9 66 28 q30.5 19 65.5 49 l27 -49 q-34 -31 -70 -52 q-36 -21 -79.5 -31 q-43.5 -10 -101.5 -10 ZM526 658 q-119 0 -183 -79.5 q-64 -79.5 -64 -224.5 l-10 22 l511 0 l-16 -24 q0 99 -23 167 q-23 68 -75 103.5 q-52 35.5 -140 35.5 Z" /><glyph glyph-name="uni04C3" unicode="&#x4c3;" d="M408 -188 q-27 0 -55.5 3.5 q-28.5 3.5 -45.5 10.5 l0 56 q19 -9 43.5 -13.5 q24.5 -4.5 53.5 -4.5 q71 0 108 45 q37 45 37 135 l0 52 q0 124 -57.5 179.5 q-57.5 55.5 -177.5 55.5 l-161 0 l0 -331 l-60 0 l0 705 l60 0 l0 -319 l156 0 l-25 -17 l235 336 l70 0 l-242 -345 l-5 24 q134 -3 201.5 -72.5 q67.5 -69.5 67.5 -209.5 l0 -57 q0 -76 -24 -128 q-24 -52 -69 -78.5 q-45 -26.5 -110 -26.5 Z" /><glyph glyph-name="uni04C5" unicode="&#x4c5;" d="M643 -153 l53 153 l-91 0 l0 53 l163 0 l-71 -206 l-54 0 ZM46 -14 l-27 51 q42 22 75 52 q33 30 56.5 80 q23.5 50 35.5 129 q12 79 12 196 l0 211 l467 0 l0 -705 l-62 0 l0 651 l-347 0 l0 -172 q0 -114 -13.5 -196 q-13.5 -82 -40.5 -139.5 q-27 -57.5 -65.5 -95 q-38.5 -37.5 -90.5 -62.5 Z" /><glyph glyph-name="uni04C7" unicode="&#x4c7;" d="M523 -186 q-16 0 -35 2 q-19 2 -39 6 l0 53 q19 -4 35 -6 q16 -2 29 -2 q46 0 70.5 28.5 q24.5 28.5 24.5 90.5 l0 344 l-453 0 l0 -330 l-62 0 l0 705 l62 0 l0 -320 l453 0 l0 320 l62 0 l0 -718 q0 -55 -16 -94 q-16 -39 -48.5 -59 q-32.5 -20 -82.5 -20 Z" /><glyph glyph-name="uni04C9" unicode="&#x4c9;" d="M666 -153 l53 153 l-91 0 l0 53 l163 0 l-71 -206 l-54 0 ZM93 0 l0 705 l62 0 l0 -320 l453 0 l0 320 l62 0 l0 -705 l-62 0 l0 330 l-453 0 l0 -330 l-62 0 Z" /><glyph glyph-name="uni04CB" unicode="&#x4cb;" d="M492 -153 l-59 0 l0 206 l122 0 l0 -53 l-63 0 l0 -153 ZM529 0 l0 308 q-35 -19 -86.5 -29 q-51.5 -10 -103.5 -10 q-137 0 -208 71.5 q-71 71.5 -71 212.5 l0 152 l62 0 l0 -146 q0 -120 55 -176.5 q55 -56.5 166 -56.5 q50 0 97.5 10 q47.5 10 88.5 33 l0 336 l61 0 l0 -705 l-61 0 Z" /><glyph glyph-name="uni04CD" unicode="&#x4cd;" d="M762 -153 l53 153 l-91 0 l0 53 l164 0 l-72 -206 l-54 0 ZM93 0 l0 705 l54 0 l294 -664 l-29 0 l295 664 l53 0 l0 -705 l-57 0 l0 632 l27 0 l-281 -632 l-45 0 l-281 632 l27 0 l0 -632 l-57 0 Z" /><glyph glyph-name="uni04E0" unicode="&#x4e0;" d="M324 -8 q-92 0 -164.5 25 q-72.5 25 -115.5 68 l28 50 q51 -44 112 -65.5 q61 -21.5 138 -21.5 q108 0 158 36.5 q50 36.5 50 107.5 q0 71 -47 104.5 q-47 33.5 -150 33.5 l-104 0 l0 46 l276 298 l0 -23 l-446 0 l0 54 l505 0 l0 -44 l-275 -298 l-4 19 l62 0 q115 0 180.5 -46 q65.5 -46 65.5 -141 q0 -96 -67.5 -149.5 q-67.5 -53.5 -201.5 -53.5 Z" /><glyph glyph-name="uni04E8" unicode="&#x4e8;" d="M95 333 l0 51 l585 0 l0 -51 l-585 0 ZM65 353 q0 112 37.5 192.5 q37.5 80.5 108.5 124 q71 43.5 171 43.5 q98 0 169.5 -43.5 q71.5 -43.5 110 -124 q38.5 -80.5 38.5 -191.5 q0 -112 -39 -193 q-39 -81 -110.5 -125 q-71.5 -44 -168.5 -44 q-99 0 -170 44 q-71 44 -109 125 q-38 81 -38 192 ZM131 353 q0 -144 64 -224.5 q64 -80.5 187 -80.5 q119 0 186 80.5 q67 80.5 67 224.5 q0 145 -66.5 224.5 q-66.5 79.5 -186.5 79.5 q-123 0 -187 -79.5 q-64 -79.5 -64 -224.5 Z" /><glyph glyph-name="uni04F6" unicode="&#x4f6;" d="M202 -153 l0 153 l-106 0 l0 53 l163 0 l0 -206 l-57 0 ZM93 0 l0 705 l441 0 l0 -54 l-380 0 l0 -651 l-61 0 Z" /><glyph glyph-name="uni04FA" unicode="&#x4fa;" d="M95 -181 l-5 48 l40 3 q60 5 83 36.5 q23 31.5 23 93.5 l-108 0 l0 330 l-102 0 l0 50 l102 0 l0 325 l442 0 l0 -54 l-380 0 l0 -271 l193 0 l0 -50 l-193 0 l0 -277 l103 0 l0 -48 q0 -89 -38.5 -133.5 q-38.5 -44.5 -118.5 -50.5 l-41 -2 Z" /><glyph glyph-name="uni04FC" unicode="&#x4fc;" d="M411 -184 l-7 51 q66 8 97 33.5 q31 25.5 31 77.5 q0 28 -19 65 q-19 37 -53 83 l-151 205 l26 0 l-244 -331 l-74 0 l277 371 l0 -20 l-263 354 l73 0 l229 -310 l-19 0 l225 310 l74 0 l-263 -354 l0 20 l169 -226 q39 -51 57 -91.5 q18 -40.5 18 -76.5 q0 -71 -45 -111 q-45 -40 -138 -50 Z" /><glyph glyph-name="uni0510" unicode="&#x510;" d="M334 -8 q-90 0 -150 23.5 q-60 23.5 -89.5 68.5 q-29.5 45 -29.5 108 q0 75 44.5 120 q44.5 45 121.5 54 l0 -13 q-68 14 -108.5 58.5 q-40.5 44.5 -40.5 110.5 q0 59 29.5 102 q29.5 43 86.5 66 q57 23 139 23 q77 0 145 -23 q68 -23 115 -67 l-26 -50 q-49 44 -108 64 q-59 20 -128 20 q-94 0 -142 -36.5 q-48 -36.5 -48 -102.5 q0 -65 45 -100 q45 -35 132 -35 l164 0 l0 -53 l-179 0 q-90 0 -134.5 -33.5 q-44.5 -33.5 -44.5 -104.5 q0 -71 50.5 -107.5 q50.5 -36.5 156.5 -36.5 q82 0 142.5 21 q60.5 21 110.5 66 l27 -50 q-44 -43 -116.5 -68 q-72.5 -25 -164.5 -25 Z" /><glyph glyph-name="uni0512" unicode="&#x512;" d="M518 -186 q-16 0 -35 2 q-19 2 -39 6 l0 53 q19 -4 35 -6 q16 -2 29 -2 q46 0 70.5 28 q24.5 28 24.5 91 l0 665 l-347 0 l0 -172 q0 -114 -13.5 -196 q-13.5 -82 -40.5 -139.5 q-27 -57.5 -65.5 -95 q-38.5 -37.5 -90.5 -62.5 l-27 51 q42 22 75 52 q33 30 56.5 80 q23.5 50 35.5 129 q12 79 12 196 l0 211 l467 0 l0 -718 q0 -55 -16 -94 q-16 -39 -49 -59 q-33 -20 -82 -20 Z" /><glyph glyph-name="uni048C" unicode="&#x48c;" d="M149 0 l0 543 l-149 0 l0 51 l149 0 l0 111 l60 0 l0 -111 l148 0 l0 -51 l-148 0 l0 -157 l228 0 q114 0 176.5 -47.5 q62.5 -47.5 62.5 -144.5 q0 -96 -62.5 -145 q-62.5 -49 -176.5 -49 l-288 0 ZM209 53 l224 0 q90 0 135.5 35 q45.5 35 45.5 106 q0 70 -45.5 105 q-45.5 35 -135.5 35 l-224 0 l0 -281 Z" /><glyph glyph-name="uni048E" unicode="&#x48e;" d="M93 0 l0 705 l266 0 q115 0 175.5 -53.5 q60.5 -53.5 60.5 -154.5 q0 -71 -32.5 -119.5 q-32.5 -48.5 -92.5 -69.5 l1 15 l60 -90 l-36 -25 l-70 102 l17 -11 q-18 -4 -38 -6.5 q-20 -2.5 -45 -2.5 l-206 0 l0 -290 l-60 0 ZM153 343 l201 0 q14 0 31 1 q17 1 29 3 l-7 -11 l-58 87 l37 24 l68 -100 l-16 8 q95 32 95 142 q0 156 -180 156 l-200 0 l0 -310 Z" /><glyph glyph-name="uni0528" unicode="&#x528;" d="M8 -186 q-16 0 -35 2 q-19 2 -39 6 l0 53 q19 -4 35 -6 q16 -2 29 -2 q46 0 71 28.5 q25 28.5 25 90.5 l0 719 l61 0 l0 -320 l454 0 l0 320 l61 0 l0 -705 l-61 0 l0 331 l-454 0 l0 -344 q0 -55 -16 -94 q-16 -39 -48.5 -59 q-32.5 -20 -82.5 -20 Z" /><glyph glyph-name="uni052E" unicode="&#x52e;" d="M710 -153 l0 153 l-105 0 l0 53 l163 0 l0 -206 l-58 0 ZM46 -14 l-27 51 q42 22 75 52 q33 30 56.5 80 q23.5 50 35.5 129 q12 79 12 196 l0 211 l467 0 l0 -705 l-62 0 l0 651 l-347 0 l0 -172 q0 -114 -13.5 -196 q-13.5 -82 -40.5 -139.5 q-27 -57.5 -65.5 -95 q-38.5 -37.5 -90.5 -62.5 Z" /><glyph glyph-name="uni0431" unicode="&#x431;" d="M286 -8 q-106 0 -168.5 70 q-62.5 70 -62.5 205 l0 89 q0 138 54 223 q54 85 172 116 l183 49 l20 -52 l-200 -52 q-58 -15 -95.5 -51.5 q-37.5 -36.5 -56 -86.5 q-18.5 -50 -18.5 -106 l0 -34 l-10 0 q12 46 39.5 78 q27.5 32 67 48.5 q39.5 16.5 85.5 16.5 q66 0 115.5 -30.5 q49.5 -30.5 76.5 -88 q27 -57.5 27 -136.5 q0 -80 -28 -138 q-28 -58 -79.5 -89 q-51.5 -31 -121.5 -31 ZM285 43 q78 0 123.5 52.5 q45.5 52.5 45.5 152.5 q0 101 -45.5 153 q-45.5 52 -123.5 52 q-77 0 -123 -51.5 q-46 -51.5 -46 -146.5 q0 -105 45.5 -158.5 q45.5 -53.5 123.5 -53.5 Z" /><glyph glyph-name="uni0432" unicode="&#x432;" d="M84 0 l0 501 l230 0 q83 0 126.5 -33.5 q43.5 -33.5 43.5 -98.5 q0 -49 -34 -81.5 q-34 -32.5 -88 -37.5 l0 12 q61 -1 99 -35.5 q38 -34.5 38 -88.5 q0 -64 -46.5 -101 q-46.5 -37 -130.5 -37 l-238 0 ZM143 45 l179 0 q57 0 87.5 24.5 q30.5 24.5 30.5 69.5 q0 46 -30.5 69.5 q-30.5 23.5 -87.5 23.5 l-179 0 l0 -187 ZM143 277 l170 0 q53 0 82 24 q29 24 29 66 q0 43 -29 66 q-29 23 -82 23 l-170 0 l0 -179 Z" /><glyph glyph-name="uni0433" unicode="&#x433;" d="M84 0 l0 501 l337 0 l0 -50 l-276 0 l0 -451 l-61 0 Z" /><glyph glyph-name="uni0491" unicode="&#x491;" d="M84 0 l0 501 l284 0 l0 117 l53 0 l0 -167 l-276 0 l0 -451 l-61 0 Z" /><glyph glyph-name="uni0434" unicode="&#x434;" d="M27 -130 l0 180 l51 0 q38 53 55.5 127 q17.5 74 17.5 173 l0 151 l337 0 l0 -451 l78 0 l0 -180 l-54 0 l0 130 l-432 0 l0 -130 l-53 0 ZM140 49 l289 0 l0 403 l-222 0 l0 -107 q0 -85 -17 -163 q-17 -78 -50 -133 Z" /><glyph glyph-name="uni0436" unicode="&#x436;" d="M4 0 l103 170 q26 41 45 64 q19 23 40.5 33 q21.5 10 49.5 13 l-18 -18 l-193 239 l69 0 l175 -217 l90 0 l0 217 l60 0 l0 -217 l89 0 l175 217 l69 0 l-193 -239 l-19 18 q29 -3 50.5 -13 q21.5 -10 41 -33 q19.5 -23 44.5 -64 l103 -170 l-66 0 l-96 157 q-18 32 -35 48.5 q-17 16.5 -37.5 23 q-20.5 6.5 -51.5 6.5 l-74 0 l0 -235 l-60 0 l0 235 l-75 0 q-31 0 -51.5 -6.5 q-20.5 -6.5 -37 -23 q-16.5 -16.5 -36.5 -48.5 l-94 -157 l-67 0 Z" /><glyph glyph-name="uni0437" unicode="&#x437;" d="M242 -8 q-64 0 -119 17.5 q-55 17.5 -88 50.5 l25 45 q36 -32 81 -48 q45 -16 100 -16 q79 0 114 25.5 q35 25.5 35 71.5 q0 45 -31 68.5 q-31 23.5 -89 23.5 l-112 0 l0 49 l103 0 q52 0 82 23.5 q30 23.5 30 65.5 q0 43 -32 67.5 q-32 24.5 -97 24.5 q-51 0 -94.5 -14 q-43.5 -14 -82.5 -44 l-24 43 q41 34 92.5 49.5 q51.5 15.5 111.5 15.5 q91 0 138 -36.5 q47 -36.5 47 -102.5 q0 -49 -32.5 -82 q-32.5 -33 -85.5 -39 l0 12 q60 -2 97.5 -36 q37.5 -34 37.5 -89 q0 -66 -52 -105.5 q-52 -39.5 -155 -39.5 Z" /><glyph glyph-name="uni0438" unicode="&#x438;" d="M84 0 l0 501 l56 0 l0 -448 l-25 0 l334 448 l53 0 l0 -501 l-56 0 l0 449 l26 0 l-335 -449 l-53 0 Z" /><glyph glyph-name="uni048B" unicode="&#x48b;" d="M466 -130 l48 130 l-67 0 l0 50 l139 0 l-66 -180 l-54 0 ZM84 0 l0 501 l56 0 l0 -448 l-25 0 l334 448 l53 0 l0 -501 l-56 0 l0 449 l26 0 l-335 -449 l-53 0 ZM293 548 q-37 0 -70.5 13 q-33.5 13 -60 40.5 q-26.5 27.5 -40.5 70.5 l40 15 q19 -49 51.5 -72.5 q32.5 -23.5 79.5 -23.5 q49 0 80.5 21 q31.5 21 57.5 74 l39 -14 q-29 -70 -75 -97 q-46 -27 -102 -27 Z" /><glyph glyph-name="uni043A" unicode="&#x43a;" d="M84 0 l0 501 l61 0 l0 -217 l104 0 l174 217 l68 0 l-190 -239 l-21 18 q29 -3 50 -13 q21 -10 41 -33 q20 -23 45 -64 l103 -170 l-67 0 l-95 157 q-19 32 -35.5 48.5 q-16.5 16.5 -37.5 23 q-21 6.5 -52 6.5 l-87 0 l0 -235 l-61 0 Z" /><glyph glyph-name="uni043B" unicode="&#x43b;" d="M50 -10 l-26 48 q37 18 61 43 q24 25 38 64 q14 39 20 97.5 q6 58.5 6 142.5 l0 116 l344 0 l0 -501 l-60 0 l0 451 l-226 0 l0 -68 q0 -122 -15 -199.5 q-15 -77.5 -49.5 -122.5 q-34.5 -45 -92.5 -71 Z" /><glyph glyph-name="uni043C" unicode="&#x43c;" d="M84 0 l0 501 l52 0 l194 -353 l196 353 l51 0 l0 -501 l-55 0 l0 434 l21 0 l-196 -354 l-33 0 l-196 354 l21 0 l0 -434 l-55 0 Z" /><glyph glyph-name="uni043D" unicode="&#x43d;" d="M84 0 l0 501 l61 0 l0 -216 l299 0 l0 216 l61 0 l0 -501 l-61 0 l0 234 l-299 0 l0 -234 l-61 0 Z" /><glyph glyph-name="uni043F" unicode="&#x43f;" d="M84 0 l0 501 l418 0 l0 -501 l-61 0 l0 451 l-296 0 l0 -451 l-61 0 Z" /><glyph glyph-name="uni0442" unicode="&#x442;" d="M191 0 l0 451 l-187 0 l0 50 l435 0 l0 -50 l-187 0 l0 -451 l-61 0 Z" /><glyph glyph-name="uni0444" unicode="&#x444;" d="M368 -216 l0 334 l9 0 q-15 -60 -51.5 -93 q-36.5 -33 -92.5 -33 q-54 0 -94 31.5 q-40 31.5 -62 89.5 q-22 58 -22 138 q0 79 22 137 q22 58 61.5 90 q39.5 32 94.5 32 q56 0 92.5 -33 q36.5 -33 51.5 -94 l-9 0 l0 353 l61 0 l0 -353 l-10 0 q16 61 53 94 q37 33 91 33 q55 0 95 -32 q40 -32 62 -90 q22 -58 22 -137 q0 -80 -22 -138 q-22 -58 -61.5 -89.5 q-39.5 -31.5 -95.5 -31.5 q-54 0 -91 33 q-37 33 -53 93 l10 0 l0 -334 l-61 0 ZM242 42 q60 0 93.5 53.5 q33.5 53.5 33.5 155.5 q0 99 -34 153.5 q-34 54.5 -93 54.5 q-59 0 -93 -54.5 q-34 -54.5 -34 -153.5 q0 -102 34 -155.5 q34 -53.5 93 -53.5 ZM554 42 q59 0 93 53.5 q34 53.5 34 155.5 q0 99 -34.5 153.5 q-34.5 54.5 -92.5 54.5 q-60 0 -93 -54.5 q-33 -54.5 -33 -153.5 q0 -102 33 -155.5 q33 -53.5 93 -53.5 Z" /><glyph glyph-name="uni0447" unicode="&#x447;" d="M409 0 l0 213 q-30 -19 -65 -29 q-35 -10 -77 -10 q-105 0 -154.5 48.5 q-49.5 48.5 -49.5 147.5 l0 131 l61 0 l0 -127 q0 -78 36 -112.5 q36 -34.5 112 -34.5 q42 0 73.5 9 q31.5 9 62.5 31 l0 234 l61 0 l0 -501 l-60 0 Z" /><glyph glyph-name="uni0446" unicode="&#x446;" d="M516 -130 l0 130 l-432 0 l0 501 l61 0 l0 -451 l286 0 l0 451 l59 0 l0 -451 l79 0 l0 -180 l-53 0 Z" /><glyph glyph-name="uni0448" unicode="&#x448;" d="M84 0 l0 501 l59 0 l0 -451 l228 0 l0 451 l59 0 l0 -451 l228 0 l0 451 l60 0 l0 -501 l-634 0 Z" /><glyph glyph-name="uni0449" unicode="&#x449;" d="M743 -130 l0 130 l-659 0 l0 501 l59 0 l0 -451 l228 0 l0 451 l59 0 l0 -451 l228 0 l0 451 l60 0 l0 -451 l78 0 l0 -180 l-53 0 Z" /><glyph glyph-name="uni045F" unicode="&#x45f;" d="M266 -130 l0 130 l-182 0 l0 501 l61 0 l0 -451 l296 0 l0 451 l61 0 l0 -501 l-183 0 l0 -130 l-53 0 Z" /><glyph glyph-name="uni044C" unicode="&#x44c;" d="M84 0 l0 501 l61 0 l0 -186 l160 0 q95 0 143.5 -40.5 q48.5 -40.5 48.5 -115.5 q0 -50 -21.5 -86 q-21.5 -36 -64.5 -54.5 q-43 -18.5 -106 -18.5 l-221 0 ZM145 47 l158 0 q65 0 99.5 27 q34.5 27 34.5 84 q0 57 -34.5 84 q-34.5 27 -99.5 27 l-158 0 l0 -222 Z" /><glyph glyph-name="uni044A" unicode="&#x44a;" d="M166 0 l0 451 l-162 0 l0 50 l222 0 l0 -186 l160 0 q96 0 144 -40.5 q48 -40.5 48 -115.5 q0 -50 -21.5 -86 q-21.5 -36 -64.5 -54.5 q-43 -18.5 -106 -18.5 l-220 0 ZM226 47 l159 0 q64 0 99 27 q35 27 35 84 q0 57 -35 84 q-35 27 -99 27 l-159 0 l0 -222 Z" /><glyph glyph-name="uni044B" unicode="&#x44b;" d="M84 0 l0 501 l61 0 l0 -186 l160 0 q95 0 143.5 -40.5 q48.5 -40.5 48.5 -115.5 q0 -50 -21.5 -86 q-21.5 -36 -64.5 -54.5 q-43 -18.5 -106 -18.5 l-221 0 ZM145 47 l158 0 q65 0 99.5 27 q34.5 27 34.5 84 q0 57 -34.5 84 q-34.5 27 -99.5 27 l-158 0 l0 -222 ZM579 0 l0 501 l60 0 l0 -501 l-60 0 Z" /><glyph glyph-name="uni0459" unicode="&#x459;" d="M50 -10 l-26 48 q37 18 61 43 q24 25 38 64 q14 39 20 97.5 q6 58.5 6 142.5 l0 116 l343 0 l0 -186 l161 0 q94 0 143 -40.5 q49 -40.5 49 -115.5 q0 -50 -22 -86 q-22 -36 -64.5 -54.5 q-42.5 -18.5 -105.5 -18.5 l-220 0 l0 451 l-226 0 l0 -68 q0 -122 -15 -199.5 q-15 -77.5 -49.5 -122.5 q-34.5 -45 -92.5 -71 ZM492 47 l158 0 q66 0 100.5 27 q34.5 27 34.5 84 q0 57 -35 84 q-35 27 -100 27 l-158 0 l0 -222 Z" /><glyph glyph-name="uni045A" unicode="&#x45a;" d="M84 0 l0 501 l61 0 l0 -216 l300 0 l0 216 l60 0 l0 -186 l160 0 q95 0 143.5 -40.5 q48.5 -40.5 48.5 -115.5 q0 -50 -22 -86 q-22 -36 -64.5 -54.5 q-42.5 -18.5 -105.5 -18.5 l-220 0 l0 234 l-300 0 l0 -234 l-61 0 ZM505 47 l157 0 q66 0 100.5 27 q34.5 27 34.5 84 q0 57 -34.5 84 q-34.5 27 -100.5 27 l-157 0 l0 -222 Z" /><glyph glyph-name="uni0454" unicode="&#x454;" d="M291 -8 q-73 0 -126 31.5 q-53 31.5 -81.5 90.5 q-28.5 59 -28.5 140 q0 81 29 138.5 q29 57.5 82.5 87.5 q53.5 30 125.5 30 q53 0 101.5 -18 q48.5 -18 74.5 -50 l-25 -43 q-30 31 -70 45.5 q-40 14.5 -81 14.5 q-59 0 -98 -25 q-39 -25 -58.5 -68.5 q-19.5 -43.5 -21.5 -99.5 l-10 14 l273 0 l0 -49 l-274 0 l11 16 q3 -99 48.5 -152 q45.5 -53 129.5 -53 q40 0 81 15 q41 15 70 46 l25 -43 q-27 -32 -76.5 -50 q-49.5 -18 -100.5 -18 Z" /><glyph glyph-name="uni044D" unicode="&#x44d;" d="M221 -8 q-53 0 -102 18 q-49 18 -76 50 l25 43 q30 -31 69.5 -46 q39.5 -15 81.5 -15 q83 0 129.5 53 q46.5 53 48.5 151 l10 -15 l-274 0 l0 49 l275 0 l-11 -14 q-2 56 -21 99.5 q-19 43.5 -58 68.5 q-39 25 -99 25 q-39 0 -80 -14.5 q-41 -14.5 -71 -46.5 l-25 44 q31 32 79.5 50 q48.5 18 99.5 18 q72 0 124.5 -30.5 q52.5 -30.5 81.5 -88 q29 -57.5 29 -139.5 q0 -81 -29.5 -139.5 q-29.5 -58.5 -82 -89.5 q-52.5 -31 -124.5 -31 Z" /><glyph glyph-name="uni044E" unicode="&#x44e;" d="M481 -8 q-101 0 -162.5 64.5 q-61.5 64.5 -67.5 177.5 l-107 0 l0 -234 l-60 0 l0 501 l60 0 l0 -216 l108 0 q10 105 71 165 q61 60 158 60 q70 0 122 -31.5 q52 -31.5 80 -89.5 q28 -58 28 -138 q0 -81 -28 -139 q-28 -58 -80 -89 q-52 -31 -122 -31 ZM481 43 q77 0 123 53 q46 53 46 155 q0 101 -46 154 q-46 53 -123 53 q-77 0 -123 -53 q-46 -53 -46 -154 q0 -102 46 -155 q46 -53 123 -53 Z" /><glyph glyph-name="uni044F" unicode="&#x44f;" d="M45 0 l81 140 q19 33 48 53.5 q29 20.5 60 20.5 l10 0 l-1 -8 q-82 0 -129 38.5 q-47 38.5 -47 109.5 q0 69 45 108 q45 39 134 39 l210 0 l0 -501 l-59 0 l0 201 l-84 0 q-47 0 -78.5 -22.5 q-31.5 -22.5 -52.5 -57.5 l-69 -121 l-68 0 ZM254 247 l143 0 l0 209 l-143 0 q-65 0 -96.5 -27.5 q-31.5 -27.5 -31.5 -76.5 q0 -50 31.5 -77.5 q31.5 -27.5 96.5 -27.5 Z" /><glyph glyph-name="uni0452" unicode="&#x452;" d="M314 -185 l-15 49 q57 12 87 35 q30 23 42 60.5 q12 37.5 12 91.5 l0 258 q0 78 -32 111 q-32 33 -95 33 q-76 0 -120 -45.5 q-44 -45.5 -44 -122.5 l0 -285 l-61 0 l0 588 l-98 0 l0 49 l98 0 l0 99 l61 0 l0 -99 l202 0 l0 -49 l-202 0 l0 -202 l-11 0 q20 58 69 89 q49 31 113 31 q90 0 135.5 -46.5 q45.5 -46.5 45.5 -146.5 l0 -258 q0 -68 -17 -116 q-17 -48 -58 -78.5 q-41 -30.5 -112 -45.5 Z" /><glyph glyph-name="uni0463" unicode="&#x463;" d="M166 0 l0 453 l-162 0 l0 48 l162 0 l0 235 l61 0 l0 -235 l166 0 l0 -48 l-166 0 l0 -142 l162 0 q94 0 142 -40 q48 -40 48 -115 q0 -75 -48.5 -115.5 q-48.5 -40.5 -141.5 -40.5 l-223 0 ZM227 45 l158 0 q66 0 100 27 q34 27 34 84 q0 57 -34 83.5 q-34 26.5 -100 26.5 l-158 0 l0 -221 Z" /><glyph glyph-name="uni046B" unicode="&#x46b;" d="M4 0 l103 167 q27 44 49 68.5 q22 24.5 49.5 35 q27.5 10.5 69.5 10.5 l78 0 l-5 -13 l-202 233 l496 0 l-201 -233 l-7 13 l80 0 q42 0 69.5 -10.5 q27.5 -10.5 50 -35 q22.5 -24.5 48.5 -68.5 l102 -167 l-66 0 l-95 154 q-19 32 -36 48.5 q-17 16.5 -37.5 23 q-20.5 6.5 -51.5 6.5 l-74 0 l0 -232 l-60 0 l0 232 l-74 0 q-30 0 -51 -6.5 q-21 -6.5 -37.5 -23 q-16.5 -16.5 -36.5 -48.5 l-95 -154 l-66 0 ZM394 289 l2 0 l156 186 l0 -20 l-316 0 l0 20 l158 -186 Z" /><glyph glyph-name="uni0475" unicode="&#x475;" d="M235 0 l-213 501 l67 0 l191 -464 l-26 0 l148 357 q18 44 39.5 69.5 q21.5 25.5 52.5 36 q31 10.5 75 10.5 l6 -50 q-49 -1 -74.5 -21.5 q-25.5 -20.5 -47.5 -71.5 l-156 -367 l-62 0 Z" /><glyph glyph-name="uni0493" unicode="&#x493;" d="M106 0 l0 224 l-101 0 l0 48 l101 0 l0 229 l337 0 l0 -50 l-277 0 l0 -179 l154 0 l0 -48 l-154 0 l0 -224 l-60 0 Z" /><glyph glyph-name="uni0495" unicode="&#x495;" d="M317 -185 l-15 49 q57 12 87 35.5 q30 23.5 41.5 61 q11.5 37.5 11.5 91.5 l0 78 q0 80 -30.5 115.5 q-30.5 35.5 -98.5 35.5 q-77 0 -122.5 -46.5 q-45.5 -46.5 -45.5 -122.5 l0 -112 l-61 0 l0 501 l337 0 l0 -50 l-276 0 l0 -241 l-14 -1 q21 58 71.5 91.5 q50.5 33.5 118.5 33.5 q91 0 136 -49 q45 -49 45 -150 l0 -80 q0 -68 -16.5 -116 q-16.5 -48 -56.5 -78.5 q-40 -30.5 -112 -45.5 Z" /><glyph glyph-name="uni0497" unicode="&#x497;" d="M759 -130 l0 130 l-38 0 l0 50 l92 0 l0 -180 l-54 0 ZM4 0 l103 170 q26 41 45 64 q19 23 40.5 33 q21.5 10 49.5 13 l-18 -18 l-193 239 l69 0 l175 -217 l90 0 l0 217 l60 0 l0 -217 l89 0 l175 217 l69 0 l-193 -239 l-19 18 q29 -3 50.5 -13 q21.5 -10 41 -33 q19.5 -23 44.5 -64 l103 -170 l-66 0 l-96 157 q-18 32 -35 48.5 q-17 16.5 -37.5 23 q-20.5 6.5 -51.5 6.5 l-74 0 l0 -235 l-60 0 l0 235 l-75 0 q-31 0 -51.5 -6.5 q-20.5 -6.5 -37 -23 q-16.5 -16.5 -36.5 -48.5 l-94 -157 l-67 0 Z" /><glyph glyph-name="uni0499" unicode="&#x499;" d="M219 -130 l0 161 l54 0 l0 -161 l-54 0 ZM242 -8 q-64 0 -119 17.5 q-55 17.5 -88 50.5 l25 45 q36 -32 81 -48 q45 -16 100 -16 q79 0 114 25.5 q35 25.5 35 71.5 q0 45 -31 68.5 q-31 23.5 -89 23.5 l-112 0 l0 49 l103 0 q52 0 82 23.5 q30 23.5 30 65.5 q0 43 -32 67.5 q-32 24.5 -97 24.5 q-51 0 -94.5 -14 q-43.5 -14 -82.5 -44 l-24 43 q41 34 92.5 49.5 q51.5 15.5 111.5 15.5 q91 0 138 -36.5 q47 -36.5 47 -102.5 q0 -49 -32.5 -82 q-32.5 -33 -85.5 -39 l0 12 q60 -2 97.5 -36 q37.5 -34 37.5 -89 q0 -66 -52 -105.5 q-52 -39.5 -155 -39.5 Z" /><glyph glyph-name="uni049B" unicode="&#x49b;" d="M493 -130 l0 130 l-38 0 l0 50 l92 0 l0 -180 l-54 0 ZM84 0 l0 501 l61 0 l0 -217 l104 0 l174 217 l68 0 l-190 -239 l-21 18 q29 -3 50 -13 q21 -10 41 -33 q20 -23 45 -64 l103 -170 l-67 0 l-95 157 q-19 32 -35.5 48.5 q-16.5 16.5 -37.5 23 q-21 6.5 -52 6.5 l-87 0 l0 -235 l-61 0 Z" /><glyph glyph-name="uni049D" unicode="&#x49d;" d="M84 0 l0 501 l61 0 l0 -217 l58 0 l0 117 l45 0 l0 -117 l15 0 l174 217 l69 0 l-191 -239 l-21 18 q28 -3 49.5 -13 q21.5 -10 41.5 -33 q20 -23 45 -64 l103 -170 l-66 0 l-96 157 q-18 31 -35 48 q-17 17 -37.5 23.5 q-20.5 6.5 -51.5 6.5 l-15 0 l16 11 l0 -138 l-45 0 l0 127 l-58 0 l0 -235 l-61 0 Z" /><glyph glyph-name="uni049F" unicode="&#x49f;" d="M88 0 l0 588 l-98 0 l0 49 l98 0 l0 99 l61 0 l0 -99 l202 0 l0 -49 l-202 0 l0 -305 l104 0 l173 215 l68 0 l-190 -238 l-20 19 q30 -3 50 -13.5 q20 -10.5 39.5 -33 q19.5 -22.5 45.5 -64.5 l103 -168 l-67 0 l-95 157 q-18 30 -35 47 q-17 17 -37.5 23.5 q-20.5 6.5 -52.5 6.5 l-86 0 l0 -234 l-61 0 Z" /><glyph glyph-name="uni04A1" unicode="&#x4a1;" d="M166 0 l0 451 l-162 0 l0 50 l223 0 l0 -217 l104 0 l174 217 l68 0 l-190 -239 l-21 18 q30 -3 50.5 -13 q20.5 -10 40.5 -33 q20 -23 45 -64 l103 -170 l-67 0 l-95 157 q-19 31 -35.5 48 q-16.5 17 -37 23.5 q-20.5 6.5 -52.5 6.5 l-87 0 l0 -235 l-61 0 Z" /><glyph glyph-name="uni04A3" unicode="&#x4a3;" d="M529 -130 l0 130 l-83 0 l0 50 l137 0 l0 -180 l-54 0 ZM84 0 l0 501 l61 0 l0 -216 l299 0 l0 216 l61 0 l0 -501 l-61 0 l0 234 l-299 0 l0 -234 l-61 0 Z" /><glyph glyph-name="uni04A5" unicode="&#x4a5;" d="M84 0 l0 501 l61 0 l0 -216 l293 0 l0 216 l298 0 l0 -50 l-237 0 l0 -451 l-61 0 l0 234 l-293 0 l0 -234 l-61 0 Z" /><glyph glyph-name="uni0525" unicode="&#x525;" d="M526 -130 l0 130 l-83 0 l0 50 l137 0 l0 -180 l-54 0 ZM84 0 l0 501 l418 0 l0 -501 l-61 0 l0 451 l-296 0 l0 -451 l-61 0 Z" /><glyph glyph-name="uni04A9" unicode="&#x4a9;" d="M309 -8 q-119 0 -186.5 70.5 q-67.5 70.5 -67.5 191.5 q0 79 28.5 136 q28.5 57 81 88.5 q52.5 31.5 123.5 31.5 q34 0 63 -6.5 q29 -6.5 47 -16.5 l-16 -48 q-18 10 -44 15.5 q-26 5.5 -54 5.5 q-78 0 -123 -55 q-45 -55 -45 -151 q0 -103 51.5 -158.5 q51.5 -55.5 139.5 -55.5 q93 0 143.5 49 q50.5 49 50.5 132 q0 54 -23.5 84.5 q-23.5 30.5 -62.5 30.5 q-41 0 -64.5 -30.5 q-23.5 -30.5 -23.5 -84.5 q0 -58 23.5 -98.5 q23.5 -40.5 67.5 -61.5 q44 -21 104 -21 q30 0 56.5 7.5 q26.5 7.5 49.5 20.5 l17 -46 q-53 -30 -120 -30 q-56 0 -102 16 q-46 16 -80 47 q-34 31 -52 73 q-18 42 -18 93 q0 74 39 118.5 q39 44.5 103 44.5 q64 0 102.5 -44 q38.5 -44 38.5 -119 q0 -52 -18.5 -94 q-18.5 -42 -52.5 -72.5 q-34 -30.5 -79 -46.5 q-45 -16 -97 -16 Z" /><glyph glyph-name="uni04AB" unicode="&#x4ab;" d="M258 -130 l0 161 l54 0 l0 -161 l-54 0 ZM289 -8 q-72 0 -124.5 31.5 q-52.5 31.5 -81 90.5 q-28.5 59 -28.5 140 q0 81 29 138.5 q29 57.5 81.5 87.5 q52.5 30 123.5 30 q48 0 92.5 -18 q44.5 -18 73.5 -50 l-25 -45 q-31 31 -67 45.5 q-36 14.5 -72 14.5 q-82 0 -128 -52.5 q-46 -52.5 -46 -151.5 q0 -100 46 -154.5 q46 -54.5 128 -54.5 q34 0 70.5 14 q36.5 14 68.5 46 l25 -45 q-30 -32 -75.5 -49.5 q-45.5 -17.5 -90.5 -17.5 Z" /><glyph glyph-name="uni04AD" unicode="&#x4ad;" d="M276 -130 l0 130 l-83 0 l0 50 l137 0 l0 -180 l-54 0 ZM191 0 l0 451 l-187 0 l0 50 l435 0 l0 -50 l-187 0 l0 -451 l-61 0 Z" /><glyph glyph-name="uni04AF" unicode="&#x4af;" d="M235 -216 l0 213 l-215 504 l68 0 l190 -464 l-25 0 l192 464 l64 0 l-213 -501 l0 -216 l-61 0 Z" /><glyph glyph-name="uni04B1" unicode="&#x4b1;" d="M235 -184 l0 144 l-124 0 l0 48 l128 0 l0 -19 l-219 512 l68 0 l190 -464 l-25 0 l192 464 l64 0 l-217 -509 l0 16 l128 0 l0 -48 l-124 0 l0 -144 l-61 0 Z" /><glyph glyph-name="uni04B3" unicode="&#x4b3;" d="M483 -130 l0 130 l-38 0 l0 50 l92 0 l0 -180 l-54 0 ZM25 0 l220 275 l0 -33 l-209 259 l75 0 l168 -213 l-22 0 l168 213 l73 0 l-205 -257 l0 28 l218 -272 l-76 0 l-179 227 l23 0 l-180 -227 l-74 0 Z" /><glyph glyph-name="uni04B5" unicode="&#x4b5;" d="M608 -130 l0 130 l-442 0 l0 451 l-162 0 l0 50 l391 0 l0 -50 l-169 0 l0 -401 l297 0 l0 451 l60 0 l0 -451 l78 0 l0 -180 l-53 0 Z" /><glyph glyph-name="uni04B7" unicode="&#x4b7;" d="M494 -130 l0 130 l-83 0 l0 50 l136 0 l0 -180 l-53 0 ZM409 0 l0 213 q-30 -19 -65 -29 q-35 -10 -77 -10 q-105 0 -154.5 48.5 q-49.5 48.5 -49.5 147.5 l0 131 l61 0 l0 -127 q0 -78 36 -112.5 q36 -34.5 112 -34.5 q42 0 73.5 9 q31.5 9 62.5 31 l0 234 l61 0 l0 -501 l-60 0 Z" /><glyph glyph-name="uni04B9" unicode="&#x4b9;" d="M416 0 l0 212 q-29 -17 -63 -26.5 q-34 -9.5 -67 -10.5 l11 13 l0 -117 l-45 0 l0 117 l18 -14 q-106 0 -156.5 49 q-50.5 49 -50.5 147 l0 131 l61 0 l0 -129 q0 -75 36 -110 q36 -35 108 -35 l-16 -9 l0 141 l45 0 l0 -141 l-14 9 q37 0 69 9.5 q32 9.5 64 29.5 l0 235 l61 0 l0 -501 l-61 0 Z" /><glyph glyph-name="uni0527" unicode="&#x527;" d="M525 -130 l0 130 l-83 0 l0 50 l137 0 l0 -180 l-54 0 ZM87 0 l0 736 l61 0 l0 -351 l-12 0 q21 61 71 93 q50 32 116 32 q91 0 134.5 -48 q43.5 -48 43.5 -144 l0 -318 l-61 0 l0 313 q0 76 -30 110 q-30 34 -96 34 q-75 0 -120.5 -46 q-45.5 -46 -45.5 -122 l0 -289 l-61 0 Z" /><glyph glyph-name="uni04BD" unicode="&#x4bd;" d="M402 -8 q-114 0 -181.5 68.5 q-67.5 68.5 -65.5 197.5 l6 -10 l-15 0 q-64 0 -95 32.5 q-31 32.5 -31 92.5 l0 38 l53 0 l0 -39 q0 -41 17 -60.5 q17 -19.5 59 -19.5 l29 0 l-23 -24 q4 74 34.5 128 q30.5 54 81.5 84 q51 30 118 30 q67 0 113.5 -28.5 q46.5 -28.5 71 -81 q24.5 -52.5 24.5 -124.5 l0 -28 l-392 0 l9 10 q-2 -107 48 -160.5 q50 -53.5 140 -53.5 q46 0 86 14 q40 14 77 48 l25 -45 q-32 -33 -83 -51 q-51 -18 -106 -18 ZM389 461 q-55 0 -92.5 -25 q-37.5 -25 -57.5 -67.5 q-20 -42.5 -23 -95.5 l-10 19 l355 0 l-17 -13 q0 85 -39 133.5 q-39 48.5 -116 48.5 Z" /><glyph glyph-name="uni04C4" unicode="&#x4c4;" d="M304 -185 l-16 49 q57 12 87 35 q30 23 41 59.5 q11 36.5 11 88.5 l0 32 q0 82 -37.5 119 q-37.5 37 -113.5 37 l-131 0 l0 -235 l-61 0 l0 501 l61 0 l0 -217 l104 0 l174 217 l68 0 l-193 -239 l-20 22 q98 0 154 -48.5 q56 -48.5 56 -151.5 l0 -34 q0 -66 -16.5 -112.5 q-16.5 -46.5 -56.5 -77 q-40 -30.5 -111 -45.5 Z" /><glyph glyph-name="uni04C6" unicode="&#x4c6;" d="M454 -130 l49 130 l-68 0 l0 50 l139 0 l-66 -180 l-54 0 ZM50 -10 l-26 48 q37 18 61 43 q24 25 38 64 q14 39 20 97.5 q6 58.5 6 142.5 l0 116 l344 0 l0 -501 l-60 0 l0 451 l-226 0 l0 -68 q0 -122 -15 -199.5 q-15 -77.5 -49.5 -122.5 q-34.5 -45 -92.5 -71 Z" /><glyph glyph-name="uni04C8" unicode="&#x4c8;" d="M302 -193 l-4 50 l44 3 q50 4 76.5 34.5 q26.5 30.5 26.5 86.5 l0 253 l-300 0 l0 -234 l-61 0 l0 501 l61 0 l0 -216 l300 0 l0 216 l60 0 l0 -515 q0 -54 -18 -92 q-18 -38 -53 -59.5 q-35 -21.5 -87 -24.5 l-45 -3 Z" /><glyph glyph-name="uni04CA" unicode="&#x4ca;" d="M466 -130 l48 130 l-68 0 l0 50 l139 0 l-66 -180 l-53 0 ZM84 0 l0 501 l61 0 l0 -216 l299 0 l0 216 l61 0 l0 -501 l-61 0 l0 234 l-299 0 l0 -234 l-61 0 Z" /><glyph glyph-name="uni04CC" unicode="&#x4cc;" d="M384 -130 l-53 0 l0 174 l118 0 l0 -44 l-65 0 l0 -130 ZM409 0 l0 213 q-30 -19 -65 -29 q-35 -10 -77 -10 q-105 0 -154.5 48.5 q-49.5 48.5 -49.5 147.5 l0 131 l61 0 l0 -127 q0 -78 36 -112.5 q36 -34.5 112 -34.5 q42 0 73.5 9 q31.5 9 62.5 31 l0 234 l61 0 l0 -501 l-60 0 Z" /><glyph glyph-name="uni04CE" unicode="&#x4ce;" d="M542 -130 l48 130 l-68 0 l0 50 l139 0 l-66 -180 l-53 0 ZM84 0 l0 501 l52 0 l194 -353 l196 353 l51 0 l0 -501 l-55 0 l0 434 l21 0 l-196 -354 l-33 0 l-196 354 l21 0 l0 -434 l-55 0 Z" /><glyph glyph-name="uni04E1" unicode="&#x4e1;" d="M231 -188 q-66 0 -121 16.5 q-55 16.5 -90 46.5 l24 46 q37 -30 82 -44 q45 -14 102 -14 q87 0 131 41.5 q44 41.5 44 118.5 q0 70 -43.5 107.5 q-43.5 37.5 -121.5 37.5 l-109 0 l0 31 l242 268 l0 -17 l-334 0 l0 51 l396 0 l0 -41 l-241 -266 l-9 23 l62 0 q105 0 162 -50 q57 -50 57 -142 q0 -67 -27.5 -114.5 q-27.5 -47.5 -79.5 -73 q-52 -25.5 -126 -25.5 Z" /><glyph glyph-name="uni04E9" unicode="&#x4e9;" d="M285 -8 q-71 0 -122.5 31 q-51.5 31 -79.5 89 q-28 58 -28 139 q0 80 28 138 q28 58 79.5 89.5 q51.5 31.5 122.5 31.5 q70 0 121.5 -31.5 q51.5 -31.5 80 -89.5 q28.5 -58 28.5 -138 q0 -81 -28.5 -139 q-28.5 -58 -80 -89 q-51.5 -31 -121.5 -31 ZM284 44 q79 0 125 53.5 q46 53.5 46 153.5 q0 100 -46 153.5 q-46 53.5 -125 53.5 q-78 0 -123.5 -53.5 q-45.5 -53.5 -45.5 -153.5 q0 -100 45.5 -153.5 q45.5 -53.5 123.5 -53.5 ZM88 228 l0 46 l394 0 l0 -46 l-394 0 Z" /><glyph glyph-name="uni04F7" unicode="&#x4f7;" d="M170 -130 l0 130 l-83 0 l0 50 l136 0 l0 -180 l-53 0 ZM84 0 l0 501 l337 0 l0 -50 l-276 0 l0 -451 l-61 0 Z" /><glyph glyph-name="uni04FB" unicode="&#x4fb;" d="M74 -181 l-3 48 l39 4 q45 5 64 36 q19 31 19 93 l-87 0 l0 226 l-101 0 l0 47 l101 0 l0 228 l337 0 l0 -50 l-276 0 l0 -178 l153 0 l0 -47 l-153 0 l0 -182 l81 0 l0 -39 q0 -89 -35.5 -133.5 q-35.5 -44.5 -97.5 -49.5 l-41 -3 Z" /><glyph glyph-name="uni04FD" unicode="&#x4fd;" d="M337 -184 l-12 47 q57 8 85.5 28.5 q28.5 20.5 28.5 61.5 q0 28 -17.5 57.5 q-17.5 29.5 -60.5 83.5 l-105 133 l22 0 l-181 -227 l-72 0 l220 275 l0 -33 l-209 259 l75 0 l168 -213 l-22 0 l168 213 l73 0 l-205 -256 l0 27 l117 -147 q32 -39 51.5 -67.5 q19.5 -28.5 28 -53.5 q8.5 -25 8.5 -52 q0 -39 -18.5 -68 q-18.5 -29 -55 -46 q-36.5 -17 -87.5 -22 Z" /><glyph glyph-name="uni0511" unicode="&#x511;" d="M257 -8 q-103 0 -155 39.5 q-52 39.5 -52 105.5 q0 55 38 89 q38 34 97 36 l-1 -12 q-52 6 -84.5 39 q-32.5 33 -32.5 82 q0 66 52.5 102.5 q52.5 36.5 139.5 36.5 q55 0 105.5 -15.5 q50.5 -15.5 92.5 -49.5 l-25 -43 q-40 30 -82 44 q-42 14 -89 14 q-63 0 -99 -25 q-36 -25 -36 -68 q0 -42 29.5 -65 q29.5 -23 81.5 -23 l104 0 l0 -49 l-113 0 q-57 0 -87.5 -23 q-30.5 -23 -30.5 -68 q0 -46 34.5 -71.5 q34.5 -25.5 112.5 -25.5 q55 0 101 15 q46 15 82 47 l24 -44 q-33 -33 -88 -50.5 q-55 -17.5 -119 -17.5 Z" /><glyph glyph-name="uni0513" unicode="&#x513;" d="M291 -193 l-4 50 l44 3 q50 4 76 34.5 q26 30.5 26 86.5 l0 470 l-226 0 l0 -68 q0 -122 -15 -199.5 q-15 -77.5 -49.5 -122.5 q-34.5 -45 -92.5 -71 l-26 48 q37 18 61 43 q24 25 38 64 q14 39 20 97.5 q6 58.5 6 142.5 l0 116 l344 0 l0 -515 q0 -54 -17.5 -92 q-17.5 -38 -52.5 -59.5 q-35 -21.5 -88 -24.5 l-44 -3 Z" /><glyph glyph-name="uni048F" unicode="&#x48f;" d="M87 -216 l0 605 q0 27 -2.5 55 q-2.5 28 -5.5 57 l59 0 l11 -125 l-12 0 q17 62 66 98 q49 36 119 36 q68 0 117.5 -31.5 q49.5 -31.5 77 -89 q27.5 -57.5 27.5 -138.5 q0 -73 -22 -127.5 q-22 -54.5 -63 -87.5 l4 14 l51 -63 l-35 -26 l-49 63 l11 1 q-49 -33 -119 -33 q-70 0 -119 35.5 q-49 35.5 -66 97.5 l11 0 l0 -341 l-61 0 ZM314 458 q-76 0 -121.5 -53 q-45.5 -53 -45.5 -154 q0 -101 45.5 -155 q45.5 -54 121.5 -52 q53 1 91 25 l-3 -9 l-54 66 l34 26 l59 -73 l-15 6 q56 52 56 166 q0 101 -45.5 154 q-45.5 53 -122.5 53 Z" /><glyph glyph-name="uni0529" unicode="&#x529;" d="M-57 -193 l-5 50 l45 3 q50 4 75.5 34.5 q25.5 30.5 25.5 86.5 l0 520 l61 0 l0 -216 l300 0 l0 216 l60 0 l0 -501 l-60 0 l0 234 l-300 0 l0 -248 q0 -54 -17.5 -92 q-17.5 -38 -52.5 -59.5 q-35 -21.5 -88 -24.5 l-44 -3 Z" /><glyph glyph-name="uni052F" unicode="&#x52f;" d="M518 -130 l0 130 l-83 0 l0 50 l137 0 l0 -180 l-54 0 ZM50 -10 l-26 48 q37 18 61 43 q24 25 38 64 q14 39 20 97.5 q6 58.5 6 142.5 l0 116 l344 0 l0 -501 l-60 0 l0 451 l-226 0 l0 -68 q0 -122 -15 -199.5 q-15 -77.5 -49.5 -122.5 q-34.5 -45 -92.5 -71 Z" /><glyph glyph-name="uni0394" unicode="&#x394;" d="M35 0 l0 39 l298 666 l54 0 l298 -666 l0 -39 l-650 0 ZM359 631 l-270 -610 l0 32 l542 0 l0 -32 l-270 610 l-2 0 Z" /><glyph glyph-name="Sigma" unicode="&#x3a3;" d="M52 -180 l0 45 l292 410 l0 -25 l-292 410 l0 45 l501 0 l0 -54 l-435 0 l0 18 l274 -386 l0 -41 l-274 -386 l0 18 l435 0 l0 -54 l-501 0 Z" /><glyph glyph-name="uni03A9" unicode="&#x3a9;" d="M38 0 l0 53 l248 0 l0 -18 q-118 68 -175 158.5 q-57 90.5 -57 202.5 q0 99 40.5 170 q40.5 71 116 109 q75.5 38 178.5 38 q76 0 137.5 -21.5 q61.5 -21.5 105.5 -62.5 q44 -41 67.5 -100 q23.5 -59 23.5 -133 q0 -112 -57 -202.5 q-57 -90.5 -175 -158.5 l0 18 l248 0 l0 -53 l-290 0 l0 51 q109 72 159 156 q50 84 50 185 q0 127 -71 196 q-71 69 -198 69 q-129 0 -199.5 -69.5 q-70.5 -69.5 -70.5 -195.5 q0 -101 50.5 -185 q50.5 -84 158.5 -156 l0 -51 l-290 0 Z" /><glyph glyph-name="uni03BC" unicode="&#x3bc;" d="M80 -216 l0 717 l61 0 l0 -311 q0 -76 31 -111 q31 -35 95 -35 q71 0 114.5 46.5 q43.5 46.5 43.5 123.5 l0 287 l61 0 l0 -501 l-60 0 l0 118 l10 0 q-18 -61 -63.5 -93.5 q-45.5 -32.5 -106.5 -32.5 q-48 0 -84 17 q-36 17 -56 65 l14 0 l1 -290 l-61 0 Z" /><glyph glyph-name="pi" unicode="&#x3c0;" d="M34 0 q24 63 40 133.5 q16 70.5 25 150 q9 79.5 10 168.5 l-104 0 l0 49 l538 0 l0 -49 l-125 0 l0 -277 q0 -59 30 -90.5 q30 -31.5 88 -36.5 l42 -2 l-6 -52 l-45 3 q-43 3 -75 15.5 q-32 12.5 -53 35 q-21 22.5 -31.5 55.5 q-10.5 33 -10.5 76 l0 273 l-187 0 q-1 -95 -9.5 -176 q-8.5 -81 -23.5 -149 q-15 -68 -37 -127 l-66 0 Z" /><glyph glyph-name="zero" unicode="0" d="M300 -8 q-118 0 -181 92.5 q-63 92.5 -63 267.5 q0 178 63 269.5 q63 91.5 181 91.5 q119 0 181.5 -91.5 q62.5 -91.5 62.5 -268.5 q0 -176 -63 -268.5 q-63 -92.5 -181 -92.5 ZM300 47 q91 0 136 75 q45 75 45 231 q0 158 -45 231.5 q-45 73.5 -136 73.5 q-90 0 -135.5 -74.5 q-45.5 -74.5 -45.5 -229.5 q0 -157 45.5 -232 q45.5 -75 135.5 -75 Z" /><glyph glyph-name="one" unicode="1" d="M135 0 l0 55 l167 0 l0 596 l35 0 l-187 -119 l0 64 l169 109 l45 0 l0 -650 l158 0 l0 -55 l-387 0 Z" /><glyph glyph-name="two" unicode="2" d="M90 0 l0 46 l257 270 q51 53 77 102.5 q26 49.5 26 104.5 q0 66 -40.5 100 q-40.5 34 -117.5 34 q-59 0 -108 -21 q-49 -21 -93 -64 l-25 50 q39 41 100 66 q61 25 130 25 q104 0 160.5 -48.5 q56.5 -48.5 56.5 -138.5 q0 -66 -33 -127.5 q-33 -61.5 -94 -124.5 l-233 -238 l0 19 l391 0 l0 -55 l-454 0 Z" /><glyph glyph-name="three" unicode="3" d="M300 -8 q-71 0 -135 22 q-64 22 -109 64 l26 50 q51 -42 103 -61 q52 -19 114 -19 q84 0 128.5 37 q44.5 37 44.5 107 q0 68 -46 103.5 q-46 35.5 -134 35.5 l-103 0 l0 54 l99 0 q75 0 119.5 39.5 q44.5 39.5 44.5 107.5 q0 60 -40.5 92.5 q-40.5 32.5 -115.5 32.5 q-117 0 -202 -85 l-25 50 q40 43 101 67 q61 24 129 24 q100 0 157.5 -47 q57.5 -47 57.5 -131 q0 -66 -37 -113 q-37 -47 -102 -64 l0 11 q76 -13 117.5 -60.5 q41.5 -47.5 41.5 -119.5 q0 -92 -62.5 -144.5 q-62.5 -52.5 -171.5 -52.5 Z" /><glyph glyph-name="four" unicode="4" d="M400 0 l0 160 l-346 0 l0 46 l356 499 l51 0 l0 -493 l112 0 l0 -52 l-112 0 l0 -160 l-61 0 ZM400 212 l0 420 l21 0 l-311 -436 l0 16 l290 0 Z" /><glyph glyph-name="five" unicode="5" d="M317 -8 q-46 0 -89.5 10 q-43.5 10 -81.5 29.5 q-38 19.5 -68 46.5 l26 50 q50 -41 101.5 -60.5 q51.5 -19.5 111.5 -19.5 q81 0 127.5 45 q46.5 45 46.5 118 q0 75 -44 123 q-44 48 -123 48 q-55 0 -98.5 -22 q-43.5 -22 -74.5 -70 l-49 0 l0 415 l409 0 l0 -54 l-348 0 l0 -306 l-18 0 q28 44 77.5 68.5 q49.5 24.5 110.5 24.5 q68 0 117.5 -28 q49.5 -28 76 -77.5 q26.5 -49.5 26.5 -117.5 q0 -66 -28.5 -116.5 q-28.5 -50.5 -81.5 -78.5 q-53 -28 -126 -28 Z" /><glyph glyph-name="six" unicode="6" d="M322 -8 q-126 0 -194 90 q-68 90 -68 251 q0 123 34 207.5 q34 84.5 98 128.5 q64 44 153 44 q54 0 110 -23.5 q56 -23.5 91 -63.5 l-25 -50 q-38 41 -83.5 61 q-45.5 20 -93.5 20 q-107 0 -165 -78.5 q-58 -78.5 -58 -233.5 l0 -101 l-7 0 q6 60 34.5 103.5 q28.5 43.5 75 67 q46.5 23.5 103.5 23.5 q65 0 115 -28 q50 -28 78 -78 q28 -50 28 -115 q0 -65 -29 -116.5 q-29 -51.5 -80 -80 q-51 -28.5 -117 -28.5 ZM317 47 q50 0 88.5 21 q38.5 21 60 59 q21.5 38 21.5 88 q0 50 -21.5 87.5 q-21.5 37.5 -60 59 q-38.5 21.5 -88.5 21.5 q-50 0 -88.5 -21.5 q-38.5 -21.5 -59.5 -59 q-21 -37.5 -21 -87.5 q0 -50 21 -88 q21 -38 59.5 -59 q38.5 -21 88.5 -21 Z" /><glyph glyph-name="seven" unicode="7" d="M125 0 l350 682 l0 -32 l-404 0 l0 55 l458 0 l0 -46 l-336 -659 l-68 0 Z" /><glyph glyph-name="eight" unicode="8" d="M300 -8 q-119 0 -184 51 q-65 51 -65 142 q0 74 45.5 122 q45.5 48 119.5 58 l0 -12 q-68 14 -108 61.5 q-40 47.5 -40 112.5 q0 88 62 137 q62 49 170 49 q109 0 171 -49 q62 -49 62 -137 q0 -65 -37.5 -112.5 q-37.5 -47.5 -105.5 -61.5 l0 12 q74 -10 116.5 -58 q42.5 -48 42.5 -122 q0 -91 -64.5 -142 q-64.5 -51 -184.5 -51 ZM300 45 q95 0 141.5 35.5 q46.5 35.5 46.5 107.5 q0 72 -46.5 107 q-46.5 35 -141.5 35 q-95 0 -141.5 -35 q-46.5 -35 -46.5 -107 q0 -72 47 -107.5 q47 -35.5 141 -35.5 ZM300 384 q83 0 127 37 q44 37 44 102 q0 65 -44 101 q-44 36 -127 36 q-83 0 -127 -36 q-44 -36 -44 -101 q0 -65 44 -102 q44 -37 127 -37 Z" /><glyph glyph-name="nine" unicode="9" d="M256 -8 q-54 0 -110 24 q-56 24 -92 63 l26 50 q38 -41 83.5 -61 q45.5 -20 93.5 -20 q106 0 164 78.5 q58 78.5 58 233.5 l0 101 l8 0 q-5 -59 -34.5 -103 q-29.5 -44 -75.5 -67.5 q-46 -23.5 -103 -23.5 q-65 0 -115 28 q-50 28 -78.5 78.5 q-28.5 50.5 -28.5 114.5 q0 66 29 117 q29 51 80 79.5 q51 28.5 117 28.5 q127 0 195 -89.5 q68 -89.5 68 -251.5 q0 -122 -34 -207 q-34 -85 -98 -129 q-64 -44 -153 -44 ZM284 322 q50 0 88.5 21.5 q38.5 21.5 59.5 59.5 q21 38 21 87 q0 50 -21 88 q-21 38 -59.5 59.5 q-38.5 21.5 -88.5 21.5 q-50 0 -88.5 -21.5 q-38.5 -21.5 -60 -59.5 q-21.5 -38 -21.5 -88 q0 -49 21.5 -87 q21.5 -38 60 -59.5 q38.5 -21.5 88.5 -21.5 Z" /><glyph glyph-name="fraction" unicode="&#x2044;" d="M-103 -8 l-56 0 l429 721 l57 0 l-430 -721 Z" /><glyph glyph-name="period" unicode="." d="M67 0 l0 86 l85 0 l0 -86 l-85 0 Z" /><glyph glyph-name="comma" unicode="," d="M100 -106 l-31 25 q24 26 31 48 q7 22 7 44 l14 -11 l-54 0 l0 86 l85 0 l0 -64 q0 -35 -11 -67 q-11 -32 -41 -61 Z" /><glyph glyph-name="colon" unicode=":" d="M67 416 l0 85 l85 0 l0 -85 l-85 0 ZM67 0 l0 86 l85 0 l0 -86 l-85 0 Z" /><glyph glyph-name="semicolon" unicode=";" d="M100 -106 l-31 25 q24 26 31 48 q7 22 7 44 l22 -11 l-62 0 l0 86 l85 0 l0 -64 q0 -35 -11 -67 q-11 -32 -41 -61 ZM67 416 l0 85 l85 0 l0 -85 l-85 0 Z" /><glyph glyph-name="exclam" unicode="!" d="M91 173 l-19 532 l76 0 l-19 -532 l-38 0 ZM67 0 l0 86 l85 0 l0 -86 l-85 0 Z" /><glyph glyph-name="exclamdown" unicode="¡" d="M72 -180 l19 509 l38 0 l19 -509 l-76 0 ZM67 416 l0 85 l85 0 l0 -85 l-85 0 Z" /><glyph glyph-name="question" unicode="?" d="M173 173 l0 24 q0 52 20 99 q20 47 73 106 q42 48 59 82.5 q17 34.5 17 72.5 q0 47 -34 74 q-34 27 -93 27 q-39 0 -74 -10 q-35 -10 -67 -27 l0 60 q32 15 69 23.5 q37 8.5 75 8.5 q56 0 98 -18.5 q42 -18.5 65.5 -52.5 q23.5 -34 23.5 -82 q0 -32 -9.5 -61 q-9.5 -29 -30.5 -59.5 q-21 -30.5 -55 -67.5 q-49 -54 -69.5 -93.5 q-20.5 -39.5 -24.5 -82.5 l-3 -23 l-40 0 ZM150 0 l0 86 l85 0 l0 -86 l-85 0 Z" /><glyph glyph-name="questiondown" unicode="¿" d="M222 -211 q-55 0 -97.5 18.5 q-42.5 18.5 -66 53.5 q-23.5 35 -23.5 81 q0 33 9 61 q9 28 30 58.5 q21 30.5 56 68.5 q49 54 69.5 93.5 q20.5 39.5 25.5 82.5 l2 22 l41 0 l0 -23 q0 -52 -20 -99 q-20 -47 -74 -106 q-42 -47 -59 -82 q-17 -35 -17 -73 q0 -47 34 -74 q34 -27 93 -27 q39 0 74.5 10 q35.5 10 66.5 27 l0 -60 q-31 -15 -68.5 -23.5 q-37.5 -8.5 -75.5 -8.5 ZM290 500 l0 -85 l-85 0 l0 85 l85 0 Z" /><glyph glyph-name="periodcentered" unicode="·" d="M68 231 l0 85 l86 0 l0 -85 l-86 0 Z" /><glyph glyph-name="bullet" unicode="&#x2022;" d="M265 89 q-49 0 -91 23.5 q-42 23.5 -67 64.5 q-25 41 -25 91 q0 46 23.5 87 q23.5 41 65 66.5 q41.5 25.5 94.5 25.5 q49 0 90 -23.5 q41 -23.5 66.5 -63.5 q25.5 -40 25.5 -92 q0 -49 -24.5 -90 q-24.5 -41 -66 -65 q-41.5 -24 -91.5 -24 Z" /><glyph glyph-name="asterisk" unicode="*" d="M132 371 l-40 29 l100 131 l-158 48 l17 48 l154 -55 l-5 164 l51 0 l-4 -165 l157 56 l15 -48 l-158 -48 l100 -131 l-41 -29 l-93 137 l-95 -137 Z" /><glyph glyph-name="numbersign" unicode="#" d="M90 0 l37 187 l-101 0 l0 49 l110 0 l49 241 l-138 0 l0 50 l148 0 l36 178 l53 0 l-36 -178 l172 0 l35 178 l54 0 l-36 -178 l101 0 l0 -50 l-111 0 l-49 -241 l140 0 l0 -49 l-149 0 l-38 -187 l-54 0 l38 187 l-171 0 l-36 -187 l-54 0 ZM190 236 l171 0 l49 241 l-172 0 l-48 -241 Z" /><glyph glyph-name="slash" unicode="/" d="M33 -54 l-55 0 l261 800 l55 0 l-261 -800 Z" /><glyph glyph-name="backslash" unicode="\" d="M239 -54 l-261 800 l55 0 l261 -800 l-55 0 Z" /><glyph glyph-name="parenleft" unicode="(" d="M219 -180 q-39 75 -64.5 146.5 q-25.5 71.5 -38 145 q-12.5 73.5 -12.5 151.5 q0 79 12.5 152 q12.5 73 38 144 q25.5 71 64.5 146 l52 0 q-50 -110 -76.5 -220.5 q-26.5 -110.5 -26.5 -221.5 q0 -111 26.5 -221.5 q26.5 -110.5 76.5 -221.5 l-52 0 Z" /><glyph glyph-name="parenright" unicode=")" d="M81 -180 l-52 0 q51 110 77.5 221 q26.5 111 26.5 221 q0 111 -26.5 222 q-26.5 111 -77.5 221 l52 0 q40 -75 65.5 -146.5 q25.5 -71.5 37.5 -144.5 q12 -73 12 -152 q0 -78 -12 -151 q-12 -73 -37.5 -144.5 q-25.5 -71.5 -65.5 -146.5 Z" /><glyph glyph-name="braceleft" unicode="{" d="M241 -180 q-45 0 -68.5 24 q-23.5 24 -23.5 70 l0 242 q0 42 -17.5 60.5 q-17.5 18.5 -59.5 20.5 l-24 2 l0 48 l24 2 q41 2 59 20 q18 18 18 61 l0 241 q0 46 23.5 70 q23.5 24 68.5 24 l91 0 l0 -50 l-78 0 q-22 0 -33.5 -12 q-11.5 -12 -11.5 -35 l0 -244 q0 -29 -12 -53 q-12 -24 -32.5 -37 q-20.5 -13 -46.5 -13 l0 4 q26 0 46.5 -13.5 q20.5 -13.5 32.5 -36.5 q12 -23 12 -53 l0 -245 q0 -23 11.5 -35 q11.5 -12 33.5 -12 l78 0 l0 -50 l-91 0 Z" /><glyph glyph-name="braceright" unicode="}" d="M6 -180 l0 50 l78 0 q23 0 34 12 q11 12 11 35 l0 244 q0 30 12 53.5 q12 23.5 32.5 36.5 q20.5 13 46.5 13 l0 -4 q-26 0 -46.5 13.5 q-20.5 13.5 -32.5 37 q-12 23.5 -12 53.5 l0 244 q0 23 -11 35 q-11 12 -34 12 l-78 0 l0 50 l91 0 q45 0 68.5 -24 q23.5 -24 23.5 -70 l0 -242 q0 -41 17.5 -60 q17.5 -19 59.5 -21 l24 -1 l0 -49 l-24 -2 q-41 -2 -59 -20 q-18 -18 -18 -61 l0 -241 q0 -46 -23.5 -70 q-23.5 -24 -68.5 -24 l-91 0 Z" /><glyph glyph-name="bracketleft" unicode="[" d="M108 -180 l0 885 l186 0 l0 -50 l-125 0 l0 -785 l125 0 l0 -50 l-186 0 Z" /><glyph glyph-name="bracketright" unicode="]" d="M6 -180 l0 50 l125 0 l0 785 l-125 0 l0 50 l185 0 l0 -885 l-185 0 Z" /><glyph glyph-name="hyphen" unicode="-" d="M74 248 l0 52 l276 0 l0 -52 l-276 0 Z" /><glyph glyph-name="endash" unicode="&#x2013;" d="M0 253 l0 42 l505 0 l0 -42 l-505 0 Z" /><glyph glyph-name="emdash" unicode="&#x2014;" d="M0 253 l0 42 l1010 0 l0 -42 l-1010 0 Z" /><glyph glyph-name="figuredash" unicode="&#x2012;" d="M72 253 l0 42 l456 0 l0 -42 l-456 0 Z" /><glyph glyph-name="uni2015" unicode="&#x2015;" d="M0 253 l0 42 l1010 0 l0 -42 l-1010 0 Z" /><glyph glyph-name="underscore" unicode="_" d="M6 -43 l0 43 l493 0 l0 -43 l-493 0 Z" /><glyph glyph-name="quotesinglbase" unicode="&#x201a;" d="M101 -106 l-31 25 q20 22 29 43 q9 21 9 49 l22 -11 l-62 0 l0 86 l85 0 l0 -64 q0 -40 -12 -70.5 q-12 -30.5 -40 -57.5 Z" /><glyph glyph-name="quoteleft" unicode="&#x2018;" d="M67 519 l0 62 q0 37 11.5 68.5 q11.5 31.5 40.5 61.5 l33 -25 q-24 -27 -32 -48.5 q-8 -21.5 -8 -44.5 l-21 12 l61 0 l0 -86 l-85 0 Z" /><glyph glyph-name="quoteright" unicode="&#x2019;" d="M101 513 l-31 25 q24 26 31 48.5 q7 22.5 7 43.5 l22 -11 l-62 0 l0 86 l85 0 l0 -63 q0 -36 -11 -67.5 q-11 -31.5 -41 -61.5 Z" /><glyph glyph-name="guilsinglleft" unicode="&#x2039;" d="M154 88 l-126 180 l126 180 l56 0 l-116 -180 l116 -180 l-56 0 Z" /><glyph glyph-name="guilsinglright" unicode="&#x203a;" d="M96 88 l-56 0 l116 180 l-116 180 l56 0 l126 -180 l-126 -180 Z" /><glyph glyph-name="quotesingle" unicode="&#39;" d="M86 434 l-17 271 l73 0 l-15 -271 l-41 0 Z" /><glyph glyph-name="uni27E8" unicode="&#x27e8;" d="M341 0 l-124 352 l124 353 l42 0 l-123 -353 l123 -352 l-42 0 Z" /><glyph glyph-name="uni27E9" unicode="&#x27e9;" d="M217 0 l123 352 l-123 353 l42 0 l124 -353 l-124 -352 l-42 0 Z" /><glyph glyph-name="uni20B5" unicode="&#x20b5;" d="M325 -115 l0 129 l17 -18 q-85 3 -146.5 46.5 q-61.5 43.5 -95 122.5 q-33.5 79 -33.5 188 q0 109 33.5 187.5 q33.5 78.5 95 122 q61.5 43.5 146.5 46.5 l-17 -17 l0 128 l53 0 l0 -129 l-14 18 q31 0 67.5 -9.5 q36.5 -9.5 71.5 -29 q35 -19.5 61 -53.5 l-26 -50 q-35 45 -80.5 64.5 q-45.5 19.5 -100.5 19.5 q-109 0 -167 -78.5 q-58 -78.5 -58 -219.5 q0 -141 58 -220 q58 -79 167 -79 q55 0 100.5 19.5 q45.5 19.5 80.5 64.5 l26 -50 q-26 -33 -61 -53 q-35 -20 -71.5 -29 q-36.5 -9 -67.5 -10 l14 17 l0 -128 l-53 0 Z" /><glyph glyph-name="cent" unicode="¢" d="M289 -115 l0 127 l13 -18 q-61 5 -107.5 37.5 q-46.5 32.5 -73 87.5 q-26.5 55 -26.5 124 q0 68 25.5 121.5 q25.5 53.5 72 86.5 q46.5 33 109.5 39 l-13 -24 l0 139 l54 0 l0 -137 l-13 23 q46 0 92 -17 q46 -17 73 -47 l-24 -45 q-28 28 -65 42.5 q-37 14.5 -77 14.5 q-78 0 -124.5 -53.5 q-46.5 -53.5 -46.5 -142.5 q0 -90 45.5 -143 q45.5 -53 124.5 -53 q40 0 77.5 14 q37.5 14 65.5 42 l24 -44 q-29 -31 -75 -48.5 q-46 -17.5 -92 -17.5 l15 18 l0 -126 l-54 0 Z" /><glyph glyph-name="colonmonetary" unicode="&#x20a1;" d="M84 -115 l64 224 l4 -28 q-40 44 -62.5 112.5 q-22.5 68.5 -22.5 159.5 q0 110 32.5 187 q32.5 77 92 120 q59.5 43 139.5 47 l-16 -12 l36 125 l52 0 l-35 -124 l-7 13 q29 -1 60.5 -7.5 q31.5 -6.5 52.5 -18.5 l-11 -6 l40 143 l53 0 l-47 -164 l-10 16 q13 -7 30.5 -21.5 q17.5 -14.5 34.5 -33.5 l-26 -50 q-35 45 -80.5 64.5 q-45.5 19.5 -100.5 19.5 q-109 0 -167 -78.5 q-58 -78.5 -58 -219.5 q0 -142 58.5 -220.5 q58.5 -78.5 166.5 -78.5 q55 0 100.5 19.5 q45.5 19.5 80.5 64.5 l26 -50 q-38 -45 -92.5 -68.5 q-54.5 -23.5 -118.5 -23.5 q-27 0 -43 3 l14 11 l-35 -125 l-53 0 l37 131 l7 -11 q-26 5 -56 20.5 q-30 15.5 -48 32.5 l12 7 l-52 -180 l-52 0 Z" /><glyph glyph-name="currency" unicode="¤" d="M76 -24 l-39 40 l74 76 q-24 31 -37.5 70.5 q-13.5 39.5 -13.5 82.5 q0 44 13.5 83.5 q13.5 39.5 37.5 70.5 l-74 75 l39 40 l74 -76 q31 26 69.5 40.5 q38.5 14.5 81.5 14.5 q42 0 80 -14 q38 -14 68 -39 l72 74 l40 -40 l-73 -74 q25 -32 39 -71.5 q14 -39.5 14 -83.5 q0 -44 -14 -83.5 q-14 -39.5 -39 -71.5 l73 -74 l-40 -40 l-72 75 q-31 -26 -68.5 -40 q-37.5 -14 -79.5 -14 q-43 0 -81.5 14.5 q-38.5 14.5 -69.5 39.5 l-74 -75 ZM300 53 q50 0 91 26 q41 26 64.5 69.5 q23.5 43.5 23.5 96.5 q0 53 -23.5 96.5 q-23.5 43.5 -64.5 70 q-41 26.5 -91 25.5 q-50 0 -91 -26 q-41 -26 -65 -69.5 q-24 -43.5 -24 -96.5 q0 -53 24 -96.5 q24 -43.5 65 -69.5 q41 -26 91 -26 Z" /><glyph glyph-name="dollar" unicode="$" d="M283 -115 l0 126 l15 -15 q-71 0 -134.5 20.5 q-63.5 20.5 -112.5 64.5 l26 51 q48 -41 100 -60.5 q52 -19.5 125 -19.5 q91 0 136 37 q45 37 45 95 q0 49 -33 76.5 q-33 27.5 -108 43.5 l-98 21 q-90 19 -133.5 64 q-43.5 45 -43.5 119 q0 57 28 102 q28 45 79 71 q51 26 118 28 l-9 -13 l0 124 l54 0 l0 -124 l-10 12 q52 -1 106.5 -22.5 q54.5 -21.5 93.5 -64.5 l-24 -50 q-41 43 -89.5 62.5 q-48.5 19.5 -109.5 19.5 q-81 0 -129.5 -39.5 q-48.5 -39.5 -48.5 -105.5 q0 -51 31 -81.5 q31 -30.5 99 -44.5 l97 -21 q98 -20 145 -61.5 q47 -41.5 47 -112.5 q0 -57 -29 -98.5 q-29 -41.5 -78.5 -65 q-49.5 -23.5 -115.5 -27.5 l15 16 l0 -127 l-54 0 Z" /><glyph glyph-name="dong" unicode="&#x20ab;" d="M272 -8 q-62 0 -107.5 30.5 q-45.5 30.5 -70.5 87.5 q-25 57 -25 133 q0 77 24.5 133 q24.5 56 70 87 q45.5 31 108.5 31 q64 0 107 -34 q43 -34 60 -95 l-11 0 l0 214 l-153 0 l0 45 l153 0 l0 112 l61 0 l0 -112 l76 0 l0 -45 l-76 0 l0 -579 l-61 0 l0 120 l11 0 q-17 -61 -60 -94.5 q-43 -33.5 -107 -33.5 ZM83 -132 l0 45 l406 0 l0 -45 l-406 0 ZM279 44 q70 0 110 50.5 q40 50.5 40 148.5 q0 95 -40 147 q-40 52 -109 52 q-69 0 -109 -52 q-40 -52 -40 -147 q0 -98 39 -148.5 q39 -50.5 109 -50.5 Z" /><glyph glyph-name="Euro" unicode="&#x20ac;" d="M386 -8 q-71 0 -126 32 q-55 32 -89.5 93.5 q-34.5 61.5 -46.5 149.5 l11 -12 l-120 0 l0 45 l117 0 l-11 -11 q-2 28 -2 64 q0 36 3 63 l10 -10 l-117 0 l0 45 l124 0 l-15 -13 q12 89 46.5 150 q34.5 61 89.5 93 q55 32 126 32 q61 0 112 -22 q51 -22 87 -70 l-26 -47 q-33 44 -75 63.5 q-42 19.5 -93 19.5 q-81 0 -133.5 -54 q-52.5 -54 -69.5 -162 l-18 10 l198 0 l0 -45 l-198 0 l15 10 q-3 -25 -3 -62 q0 -37 3 -66 l-15 12 l198 0 l0 -45 l-191 0 l11 9 q17 -108 69.5 -162 q52.5 -54 133.5 -54 q51 0 93 19.5 q42 19.5 75 63.5 l26 -47 q-36 -47 -87 -69.5 q-51 -22.5 -112 -22.5 Z" /><glyph glyph-name="florin" unicode="&#x192;" d="M45 -188 l0 51 l43 0 q47 0 76.5 24 q29.5 24 43.5 87 l99 468 l13 -6 l-140 0 l0 49 l147 0 l-13 -13 l17 82 q16 77 59 118 q43 41 120 41 l43 0 l0 -53 l-40 0 q-49 0 -78.5 -23 q-29.5 -23 -42.5 -87 l-17 -78 l-10 13 l141 0 l0 -49 l-154 0 l17 7 l-101 -473 q-17 -76 -59.5 -117 q-42.5 -41 -118.5 -41 l-45 0 Z" /><glyph glyph-name="franc" unicode="&#x20a3;" d="M121 0 l0 151 l-76 0 l0 45 l76 0 l0 509 l423 0 l0 -53 l-361 0 l0 -259 l341 0 l0 -53 l-341 0 l0 -144 l220 0 l0 -45 l-220 0 l0 -151 l-62 0 Z" /><glyph glyph-name="uni20B2" unicode="&#x20b2;" d="M314 -115 l0 137 l17 -26 q-85 3 -146.5 46.5 q-61.5 43.5 -95 122.5 q-33.5 79 -33.5 188 q0 109 33.5 187.5 q33.5 78.5 95 122 q61.5 43.5 146.5 46.5 l-17 -17 l0 128 l54 0 l0 -129 l-14 18 q31 0 67 -9.5 q36 -9.5 71 -29 q35 -19.5 61 -53.5 l-26 -50 q-34 45 -80 64.5 q-46 19.5 -101 19.5 q-109 0 -167 -78.5 q-58 -78.5 -58 -219.5 q0 -142 58 -221 q58 -79 167 -79 q38 0 81.5 9.5 q43.5 9.5 80.5 29.5 l-17 -42 l0 261 l-155 0 l0 50 l211 0 l0 -312 q-34 -20 -84 -34 q-50 -14 -103 -19 l8 26 l0 -137 l-54 0 Z" /><glyph glyph-name="uni20B4" unicode="&#x20b4;" d="M282 -8 q-93 0 -145 38.5 q-52 38.5 -52 107.5 q0 34 16 65.5 q16 31.5 49 61.5 l1 -10 l-78 0 l0 45 l133 0 l-29 -9 l154 123 l1 -8 l-259 0 l0 45 l323 0 l-32 -9 q35 30 54.5 50.5 q19.5 20.5 26.5 40 q7 19.5 7 43.5 q0 40 -32.5 61 q-32.5 21 -94.5 21 q-58 0 -105.5 -18.5 q-47.5 -18.5 -92.5 -59.5 l-26 48 q47 44 107.5 64.5 q60.5 20.5 130.5 20.5 q83 0 129.5 -34 q46.5 -34 46.5 -95 q0 -38 -18 -71.5 q-18 -33.5 -60 -71.5 l-1 10 l87 0 l0 -45 l-143 0 l25 7 l-150 -122 l0 9 l268 0 l0 -45 l-332 0 l31 6 q-75 -56 -75 -124 q0 -43 38 -66.5 q38 -23.5 109 -23.5 q59 0 112 21 q53 21 96 64 l24 -48 q-38 -40 -103 -66 q-65 -26 -141 -26 Z" /><glyph glyph-name="uni20AD" unicode="&#x20ad;" d="M120 0 l0 330 l-105 0 l0 46 l105 0 l0 329 l61 0 l0 -328 l2 0 l317 328 l72 0 l-322 -336 l0 7 l291 0 l0 -46 l-291 0 l0 8 l322 -338 l-73 0 l-316 329 l-2 0 l0 -329 l-61 0 Z" /><glyph glyph-name="lira" unicode="&#x20a4;" d="M48 0 l0 45 q50 21 79.5 50.5 q29.5 29.5 29.5 75.5 l0 85 l-109 0 l0 45 l109 0 l0 106 l-109 0 l0 45 l118 0 l-9 -11 l0 75 q0 64 23.5 108 q23.5 44 70.5 66.5 q47 22.5 117 22.5 q58 0 109 -20.5 q51 -20.5 88 -60.5 l-27 -50 q-38 39 -78 57.5 q-40 18.5 -96 18.5 q-73 0 -109 -35 q-36 -35 -36 -104 l0 -75 l-8 8 l200 0 l0 -45 l-192 0 l0 -106 l192 0 l0 -45 l-192 0 l0 -67 q0 -58 -25.5 -91.5 q-25.5 -33.5 -64.5 -49.5 l0 6 l432 0 l0 -54 l-513 0 Z" /><glyph glyph-name="uni20BA" unicode="&#x20ba;" d="M173 0 l0 262 l-106 -59 l0 50 l106 60 l0 107 l-106 -59 l0 52 l106 59 l0 233 l62 0 l0 -200 l188 105 l0 -52 l-188 -104 l0 -107 l188 104 l0 -51 l-188 -104 l0 -241 l129 0 q68 0 98 27.5 q30 27.5 30 90.5 l0 54 l58 0 l0 -58 q0 -87 -44.5 -128 q-44.5 -41 -140.5 -41 l-192 0 Z" /><glyph glyph-name="uni20BC" unicode="&#x20bc;" d="M66 0 l0 201 q0 84 12 154 q12 70 38.5 121 q26.5 51 68.5 81 q42 30 102 34 l-14 -16 l0 130 l54 0 l0 -130 l-14 16 q60 -4 102.5 -34 q42.5 -30 68.5 -81 q26 -51 38 -121 q12 -70 12 -154 l0 -201 l-57 0 l0 201 q0 101 -17 175.5 q-17 74.5 -52 116 q-35 41.5 -92 44.5 l9 8 l0 -385 l-50 0 l0 385 l9 -8 q-56 -3 -91.5 -44.5 q-35.5 -41.5 -52.5 -116 q-17 -74.5 -17 -175.5 l0 -201 l-57 0 Z" /><glyph glyph-name="uni20A6" unicode="&#x20a6;" d="M112 0 l0 254 l-97 0 l0 45 l97 0 l0 107 l-97 0 l0 44 l97 0 l0 255 l53 0 l288 -620 l-20 0 l0 620 l55 0 l0 -255 l97 0 l0 -44 l-97 0 l0 -107 l97 0 l0 -45 l-97 0 l0 -254 l-52 0 l-288 620 l19 0 l0 -620 l-55 0 Z" /><glyph glyph-name="peseta" unicode="&#x20a7;" d="M112 0 l0 459 l-97 0 l0 45 l97 0 l0 201 l162 0 q71 0 121.5 -24 q50.5 -24 78.5 -71 q28 -47 30 -115 l-17 9 l98 0 l0 -45 l-98 0 l17 12 q-2 -67 -30.5 -114.5 q-28.5 -47.5 -79 -73 q-50.5 -25.5 -120.5 -25.5 l-101 0 l0 -258 l-61 0 ZM172 308 l101 0 q58 0 97 19 q39 19 58 57.5 q19 38.5 19 97.5 q0 60 -18.5 98 q-18.5 38 -57.5 56.5 q-39 18.5 -98 18.5 l-101 0 l0 -347 Z" /><glyph glyph-name="uni20B1" unicode="&#x20b1;" d="M112 0 l0 383 l-97 0 l0 45 l97 0 l0 107 l-97 0 l0 45 l97 0 l0 125 l162 0 q86 0 141.5 -34 q55.5 -34 76.5 -101 l-20 10 l113 0 l0 -45 l-101 0 l15 5 q5 -29 5 -60.5 q0 -31.5 -6 -59.5 l-13 8 l100 0 l0 -45 l-112 0 l17 10 q-21 -64 -77.5 -99.5 q-56.5 -35.5 -138.5 -35.5 l-101 0 l0 -258 l-61 0 ZM172 308 l101 0 q58 0 97 19 q39 19 58 57.5 q19 38.5 19 97.5 q0 60 -18.5 98 q-18.5 38 -57.5 56.5 q-39 18.5 -98 18.5 l-101 0 l0 -347 Z" /><glyph glyph-name="uni20BD" unicode="&#x20bd;" d="M112 0 l0 154 l-97 0 l0 44 l97 0 l0 107 l-97 0 l0 45 l97 0 l0 355 l226 0 q74 0 125.5 -24 q51.5 -24 79 -69.5 q27.5 -45.5 27.5 -109.5 q0 -60 -28 -104.5 q-28 -44.5 -78 -68.5 q-50 -24 -117 -24 l-173 0 l0 -107 l183 0 l0 -44 l-183 0 l0 -154 l-62 0 ZM174 350 l164 0 q84 0 128 39 q44 39 44 113 q0 75 -43.5 113 q-43.5 38 -129.5 38 l-163 0 l0 -303 Z" /><glyph glyph-name="uni20B9" unicode="&#x20b9;" d="M455 0 l-147 226 q-19 31 -39 48.5 q-20 17.5 -44.5 25 q-24.5 7.5 -59.5 7.5 l-144 0 l0 50 l207 0 q95 0 141 40 q46 40 44 118 l11 -8 l-403 0 l0 45 l403 0 l-13 -11 q-8 59 -52 89 q-44 30 -122 30 l-216 0 l0 45 l557 0 l0 -45 l-220 0 l20 11 q41 -19 64.5 -53 q23.5 -34 29.5 -79 l-14 13 l120 0 l0 -45 l-117 0 l13 12 q3 -64 -24 -111 q-27 -47 -80.5 -72.5 q-53.5 -25.5 -130.5 -25.5 l0 9 l11 0 q35 0 64 -18.5 q29 -18.5 59 -64.5 l155 -236 l-73 0 Z" /><glyph glyph-name="sterling" unicode="£" d="M48 0 l0 45 q50 21 79.5 50.5 q29.5 29.5 29.5 75.5 l0 160 l-110 0 l0 46 l110 0 l0 139 q0 64 23.5 108 q23.5 44 71 66.5 q47.5 22.5 117.5 22.5 q57 0 108.5 -20.5 q51.5 -20.5 88.5 -60.5 l-28 -50 q-32 39 -74.5 57.5 q-42.5 18.5 -99.5 18.5 q-72 0 -108.5 -35 q-36.5 -35 -36.5 -104 l0 -142 l192 0 l0 -46 l-192 0 l0 -139 q0 -59 -25 -93.5 q-25 -34.5 -65 -50.5 l0 6 l432 0 l0 -54 l-513 0 Z" /><glyph glyph-name="uni20B8" unicode="&#x20b8;" d="M269 0 l0 509 l-252 0 l0 45 l567 0 l0 -45 l-253 0 l0 -509 l-62 0 ZM17 660 l0 45 l567 0 l0 -45 l-567 0 Z" /><glyph glyph-name="uni20AE" unicode="&#x20ae;" d="M269 0 l0 215 l-147 -81 l0 49 l147 81 l0 116 l-147 -82 l0 49 l147 81 l0 223 l-251 0 l0 54 l565 0 l0 -54 l-252 0 l0 -189 l147 81 l0 -49 l-147 -81 l0 -116 l147 82 l0 -49 l-147 -81 l0 -249 l-62 0 Z" /><glyph glyph-name="uni20A9" unicode="&#x20a9;" d="M153 0 l-34 257 l-104 0 l0 45 l98 0 l-14 107 l-84 0 l0 44 l78 0 l-33 252 l51 0 l78 -659 l-16 0 l107 659 l40 0 l107 -659 l-16 0 l79 659 l50 0 l-33 -252 l78 0 l0 -44 l-84 0 l-14 -107 l98 0 l0 -45 l-103 0 l-35 -257 l-51 0 l-109 647 l26 0 l-109 -647 l-51 0 Z" /><glyph glyph-name="yen" unicode="¥" d="M269 0 l0 184 l-195 0 l0 44 l195 0 l0 107 l-195 0 l0 45 l170 0 l0 -9 l-244 334 l71 0 l238 -329 l-18 0 l238 329 l71 0 l-243 -334 l0 9 l169 0 l0 -45 l-195 0 l0 -107 l195 0 l0 -44 l-195 0 l0 -184 l-62 0 Z" /><glyph glyph-name="periodcentered" unicode="&#x2219;" d="M258 223 l0 85 l85 0 l0 -85 l-85 0 Z" /><glyph glyph-name="uni2052" unicode="&#x2052;" d="M194 -51 l-56 0 l272 795 l57 0 l-273 -795 ZM395 49 l0 85 l86 0 l0 -85 l-86 0 ZM120 571 l0 85 l85 0 l0 -85 l-85 0 Z" /><glyph glyph-name="fraction" unicode="&#x2215;" d="M187 -51 l-57 0 l283 795 l57 0 l-283 -795 Z" /><glyph glyph-name="plus" unicode="+" d="M274 37 l0 225 l-222 0 l0 50 l222 0 l0 220 l52 0 l0 -220 l222 0 l0 -50 l-222 0 l0 -225 l-52 0 Z" /><glyph glyph-name="minus" unicode="&#x2212;" d="M52 262 l0 50 l496 0 l0 -50 l-496 0 Z" /><glyph glyph-name="multiply" unicode="×" d="M101 49 l-36 35 l199 200 l-199 200 l36 35 l199 -199 l199 199 l36 -35 l-199 -200 l199 -200 l-36 -35 l-199 199 l-199 -199 Z" /><glyph glyph-name="divide" unicode="÷" d="M52 262 l0 50 l496 0 l0 -50 l-496 0 ZM256 48 l0 78 l78 0 l0 -78 l-78 0 ZM256 447 l0 78 l78 0 l0 -78 l-78 0 Z" /><glyph glyph-name="equal" unicode="=" d="M52 362 l0 50 l496 0 l0 -50 l-496 0 ZM52 163 l0 49 l496 0 l0 -49 l-496 0 Z" /><glyph glyph-name="notequal" unicode="&#x2260;" d="M208 25 l-45 21 l49 117 l-160 0 l0 49 l182 0 l64 150 l-246 0 l0 50 l266 0 l60 137 l45 -19 l-50 -118 l175 0 l0 -50 l-197 0 l-62 -150 l259 0 l0 -49 l-281 0 l-59 -138 Z" /><glyph glyph-name="greater" unicode="&gt;" d="M53 35 l0 57 l463 211 l0 -32 l-463 212 l0 56 l495 -227 l0 -50 l-495 -227 Z" /><glyph glyph-name="less" unicode="&lt;" d="M547 35 l-495 227 l0 50 l495 227 l0 -56 l-463 -212 l0 32 l463 -211 l0 -57 Z" /><glyph glyph-name="greaterequal" unicode="&#x2265;" d="M52 111 l0 56 l460 172 l0 -31 l-460 171 l0 56 l495 -187 l0 -50 l-495 -187 ZM52 0 l0 50 l496 0 l0 -50 l-496 0 Z" /><glyph glyph-name="lessequal" unicode="&#x2264;" d="M548 111 l-495 187 l0 50 l495 187 l0 -56 l-459 -171 l0 31 l459 -172 l0 -56 ZM52 0 l0 50 l496 0 l0 -50 l-496 0 Z" /><glyph glyph-name="plusminus" unicode="±" d="M274 121 l0 179 l-222 0 l0 50 l222 0 l0 179 l52 0 l0 -179 l222 0 l0 -50 l-222 0 l0 -179 l-52 0 ZM52 0 l0 50 l496 0 l0 -50 l-496 0 Z" /><glyph glyph-name="approxequal" unicode="&#x2248;" d="M419 321 q-26 0 -56.5 10 q-30.5 10 -74.5 34 q-42 24 -64 31.5 q-22 7.5 -39 7.5 q-58 0 -88 -67 l-44 21 q22 47 54 71.5 q32 24.5 75 24.5 q26 0 54.5 -9.5 q28.5 -9.5 72.5 -32.5 q40 -21 63.5 -31.5 q23.5 -10.5 43.5 -10.5 q59 0 88 67 l44 -21 q-22 -48 -53.5 -71.5 q-31.5 -23.5 -75.5 -23.5 ZM419 121 q-26 0 -56.5 9.5 q-30.5 9.5 -74.5 34.5 q-42 24 -64 31.5 q-22 7.5 -39 7.5 q-58 0 -88 -67 l-44 21 q22 47 54 71.5 q32 24.5 75 24.5 q26 0 54.5 -9.5 q28.5 -9.5 72.5 -32.5 q40 -21 63.5 -31.5 q23.5 -10.5 43.5 -10.5 q59 0 88 67 l44 -21 q-22 -48 -53.5 -71.5 q-31.5 -23.5 -75.5 -23.5 Z" /><glyph glyph-name="asciitilde" unicode="~" d="M419 221 q-26 0 -56.5 9.5 q-30.5 9.5 -74.5 34.5 q-43 24 -65 31.5 q-22 7.5 -39 7.5 q-58 0 -88 -67 l-44 21 q22 47 54 71.5 q32 24.5 75 24.5 q26 0 54.5 -9.5 q28.5 -9.5 73.5 -32.5 q40 -21 63.5 -31.5 q23.5 -10.5 43.5 -10.5 q59 0 88 67 l44 -21 q-22 -48 -53.5 -71.5 q-31.5 -23.5 -75.5 -23.5 Z" /><glyph glyph-name="logicalnot" unicode="¬" d="M495 152 l0 212 l-443 0 l0 50 l496 0 l0 -262 l-53 0 Z" /><glyph glyph-name="asciicircum" unicode="^" d="M46 142 l229 486 l49 0 l230 -486 l-55 0 l-215 455 l31 0 l-214 -455 l-55 0 Z" /><glyph glyph-name="emptyset" unicode="&#x2205;" d="M77 -26 l-46 30 l77 102 q-47 38 -75.5 93 q-28.5 55 -28.5 121 q0 56 22.5 107 q22.5 51 62.5 91 q40 40 94 63 q54 23 118 23 q42 0 82.5 -11.5 q40.5 -11.5 75.5 -33.5 l77 101 l44 -34 l-76 -100 q41 -37 66.5 -90.5 q25.5 -53.5 25.5 -115.5 q0 -58 -23 -109 q-23 -51 -63.5 -90 q-40.5 -39 -94 -61 q-53.5 -22 -114.5 -22 q-40 0 -77.5 10 q-37.5 10 -70.5 28 l-76 -102 ZM138 146 l290 373 q-27 16 -59 25 q-32 9 -68 9 q-67 0 -121.5 -30.5 q-54.5 -30.5 -86 -83 q-31.5 -52.5 -31.5 -119.5 q0 -52 20 -97 q20 -45 56 -77 ZM301 85 q64 0 118.5 30 q54.5 30 87.5 83 q33 53 33 122 q0 48 -18.5 90.5 q-18.5 42.5 -49.5 74.5 l-288 -371 q25 -13 54.5 -21 q29.5 -8 62.5 -8 Z" /><glyph glyph-name="infinity" unicode="&#x221e;" d="M169 151 q-60 0 -94.5 39 q-34.5 39 -34.5 94 q0 55 34.5 94 q34.5 39 94.5 39 q34 0 70 -19.5 q36 -19.5 61 -63.5 q25 44 61.5 63.5 q36.5 19.5 70.5 19.5 q60 0 94.5 -39 q34.5 -39 34.5 -94 q0 -55 -34.5 -94 q-34.5 -39 -94.5 -39 q-34 0 -70.5 19.5 q-36.5 19.5 -61.5 62.5 q-24 -43 -60.5 -62.5 q-36.5 -19.5 -70.5 -19.5 ZM170 196 q28 0 56.5 17 q28.5 17 52.5 72 q-24 54 -52.5 70.5 q-28.5 16.5 -56.5 16.5 q-38 0 -59.5 -25 q-21.5 -25 -21.5 -63 q0 -37 21.5 -62.5 q21.5 -25.5 59.5 -25.5 ZM431 196 q37 0 59 25.5 q22 25.5 22 62.5 q0 38 -22 63 q-22 25 -59 25 q-28 0 -57 -16.5 q-29 -16.5 -52 -70.5 q23 -55 52 -72 q29 -17 57 -17 Z" /><glyph glyph-name="integral" unicode="&#x222b;" d="M217 -185 q-18 0 -38 4 q-20 4 -33 8 l0 54 q12 -4 28 -8 q16 -4 35 -4 q35 0 54 19 q19 19 19 67 l0 630 q0 67 33.5 101 q33.5 34 92.5 34 q19 0 38.5 -3.5 q19.5 -3.5 32.5 -9.5 l0 -53 q-12 5 -28 8.5 q-16 3.5 -34 3.5 q-35 0 -54.5 -20 q-19.5 -20 -19.5 -67 l0 -629 q0 -67 -33.5 -101 q-33.5 -34 -92.5 -34 Z" /><glyph glyph-name="Omega" unicode="&#x2126;" d="M40 0 l0 53 l181 0 l0 -18 q-88 61 -129.5 152 q-41.5 91 -41.5 208 q0 97 28.5 168.5 q28.5 71.5 84 110.5 q55.5 39 136.5 39 q82 0 138.5 -38.5 q56.5 -38.5 84.5 -110 q28 -71.5 28 -169.5 q0 -117 -42 -208 q-42 -91 -130 -152 l0 18 l182 0 l0 -53 l-215 0 l0 51 q77 70 109.5 155 q32.5 85 32.5 187 q0 87 -20.5 146 q-20.5 59 -62 89 q-41.5 30 -105.5 30 q-62 0 -103.5 -30.5 q-41.5 -30.5 -62 -89.5 q-20.5 -59 -20.5 -145 q0 -102 32 -187 q32 -85 109 -155 l0 -51 l-214 0 Z" /><glyph glyph-name="Delta" unicode="&#x2206;" d="M33 0 l0 41 l240 664 l54 0 l240 -664 l0 -41 l-534 0 ZM299 626 l-215 -605 l0 32 l432 0 l0 -32 l-215 605 l-2 0 Z" /><glyph glyph-name="product" unicode="&#x220f;" d="M49 -180 l0 885 l502 0 l0 -885 l-59 0 l0 832 l-384 0 l0 -832 l-59 0 Z" /><glyph glyph-name="radical" unicode="&#x221a;" d="M257 -180 l-167 455 l35 -18 l-122 0 l0 52 l135 0 l159 -449 l-26 0 l269 898 l59 0 l-287 -938 l-55 0 Z" /><glyph glyph-name="mu" unicode="µ" d="M80 -212 l0 713 l61 0 l0 -315 q0 -73 30 -106.5 q30 -33.5 93 -33.5 q71 0 115 45 q44 45 44 121 l0 289 l61 0 l0 -501 l-60 0 l0 117 l10 0 q-18 -61 -63.5 -93 q-45.5 -32 -105.5 -32 q-49 0 -86.5 17 q-37.5 17 -57.5 65 l14 0 l6 -286 l-61 0 Z" /><glyph glyph-name="partialdiff" unicode="&#x2202;" d="M300 -8 q-71 0 -124.5 30 q-53.5 30 -83.5 84.5 q-30 54.5 -30 125.5 q0 70 29.5 125 q29.5 55 82 85.5 q52.5 30.5 122.5 30.5 q69 0 120 -31.5 q51 -31.5 75 -93.5 l-9 0 q-3 105 -36.5 181.5 q-33.5 76.5 -94.5 118 q-61 41.5 -150 41.5 l-49 0 l0 46 q16 3 30 4.5 q14 1.5 32 1.5 q80 0 142 -30.5 q62 -30.5 103.5 -87 q41.5 -56.5 63 -136 q21.5 -79.5 21.5 -177.5 q0 -103 -29 -174 q-29 -71 -83.5 -107.5 q-54.5 -36.5 -131.5 -36.5 ZM303 43 q80 0 128 57 q48 57 48 154 q0 50 -23 88 q-23 38 -63 59 q-40 21 -92 21 q-81 0 -129 -52 q-48 -52 -48 -137 q0 -86 48 -138 q48 -52 131 -52 Z" /><glyph glyph-name="percent" unicode="%" d="M284 0 l-57 0 l421 705 l57 0 l-421 -705 ZM227 282 q-80 0 -125.5 56.5 q-45.5 56.5 -45.5 159.5 q0 102 46 158.5 q46 56.5 125 56.5 q79 0 125 -56.5 q46 -56.5 46 -158.5 q0 -103 -46 -159.5 q-46 -56.5 -125 -56.5 ZM227 329 q54 0 84.5 42.5 q30.5 42.5 30.5 126.5 q0 83 -30.5 125.5 q-30.5 42.5 -84.5 42.5 q-54 0 -84.5 -42.5 q-30.5 -42.5 -30.5 -125.5 q0 -85 30.5 -127 q30.5 -42 84.5 -42 ZM705 -8 q-80 0 -125.5 56.5 q-45.5 56.5 -45.5 159.5 q0 102 46 158.5 q46 56.5 125 56.5 q80 0 125.5 -56.5 q45.5 -56.5 45.5 -158.5 q0 -103 -45.5 -159.5 q-45.5 -56.5 -125.5 -56.5 ZM705 39 q54 0 84.5 42.5 q30.5 42.5 30.5 126.5 q0 83 -30.5 125.5 q-30.5 42.5 -84.5 42.5 q-53 0 -83.5 -42.5 q-30.5 -42.5 -30.5 -125.5 q0 -85 30.5 -127 q30.5 -42 83.5 -42 Z" /><glyph glyph-name="perthousand" unicode="&#x2030;" d="M1105 -8 q-79 0 -125 56.5 q-46 56.5 -46 159.5 q0 102 46.5 158.5 q46.5 56.5 124.5 56.5 q80 0 125.5 -56.5 q45.5 -56.5 45.5 -158.5 q0 -103 -45.5 -159.5 q-45.5 -56.5 -125.5 -56.5 ZM1105 39 q54 0 84.5 42.5 q30.5 42.5 30.5 126.5 q0 83 -30.5 125.5 q-30.5 42.5 -84.5 42.5 q-53 0 -83.5 -42.5 q-30.5 -42.5 -30.5 -125.5 q0 -85 30.5 -127 q30.5 -42 83.5 -42 ZM227 0 l421 705 l57 0 l-421 -705 l-57 0 ZM227 282 q-80 0 -125.5 56.5 q-45.5 56.5 -45.5 159.5 q0 102 46 158.5 q46 56.5 125 56.5 q79 0 125 -56.5 q46 -56.5 46 -158.5 q0 -103 -46 -159.5 q-46 -56.5 -125 -56.5 ZM227 329 q54 0 84.5 42.5 q30.5 42.5 30.5 126.5 q0 83 -30.5 125.5 q-30.5 42.5 -84.5 42.5 q-54 0 -84.5 -42.5 q-30.5 -42.5 -30.5 -125.5 q0 -85 30.5 -127 q30.5 -42 84.5 -42 ZM705 -8 q-80 0 -125.5 56.5 q-45.5 56.5 -45.5 159.5 q0 102 46 158.5 q46 56.5 125 56.5 q80 0 125.5 -56.5 q45.5 -56.5 45.5 -158.5 q0 -103 -45.5 -159.5 q-45.5 -56.5 -125.5 -56.5 ZM705 39 q54 0 84.5 42.5 q30.5 42.5 30.5 126.5 q0 83 -30.5 125.5 q-30.5 42.5 -84.5 42.5 q-53 0 -83.5 -42.5 q-30.5 -42.5 -30.5 -125.5 q0 -85 30.5 -127 q30.5 -42 83.5 -42 Z" /><glyph glyph-name="lozenge" unicode="&#x25ca;" d="M275 -200 l-226 479 l226 479 l50 0 l226 -479 l-226 -479 l-50 0 ZM300 -138 l196 417 l-196 417 l-196 -417 l196 -417 Z" /><glyph glyph-name="uniF8FF" unicode="&#xf8ff;" d="M139 1 l71 225 l-191 144 l237 0 l74 225 l77 -225 l238 0 l-192 -144 l71 -225 l-194 135 l-191 -135 ZM265 199 l28 0 l0 87 l-5 -2 l34 -64 l23 0 l35 64 l-5 2 l0 -87 l28 0 l0 131 l-27 0 l-45 -86 l7 0 l-46 86 l-27 0 l0 -131 Z" /><glyph glyph-name="at" unicode="@" d="M497 -163 q-98 0 -177.5 30.5 q-79.5 30.5 -136.5 88 q-57 57.5 -87.5 138 q-30.5 80.5 -30.5 180.5 q0 98 32 178.5 q32 80.5 91.5 139 q59.5 58.5 141 90 q81.5 31.5 179.5 31.5 q119 0 208 -46 q89 -46 139 -129 q50 -83 50 -194 q0 -86 -24.5 -150 q-24.5 -64 -68.5 -99.5 q-44 -35.5 -103 -35.5 q-60 0 -90 35 q-30 35 -22 94 l13 -13 q-26 -55 -73 -85.5 q-47 -30.5 -99 -30.5 q-78 0 -121 47.5 q-43 47.5 -43 131.5 q0 75 29 132.5 q29 57.5 79.5 90.5 q50.5 33 114.5 33 q57 0 93.5 -27.5 q36.5 -27.5 46.5 -76.5 l-9 0 l17 95 l54 0 l-48 -267 q-2 -12 -3.5 -23.5 q-1.5 -11.5 -1.5 -20.5 q0 -35 16.5 -52.5 q16.5 -17.5 50.5 -17.5 q43 0 75 30 q32 30 50 84 q18 54 18 126 q0 97 -44 169.5 q-44 72.5 -122 112.5 q-78 40 -183 40 q-117 0 -205 -49 q-88 -49 -136.5 -137 q-48.5 -88 -48.5 -206 q0 -121 46.5 -208.5 q46.5 -87.5 131.5 -134 q85 -46.5 201 -46.5 q86 0 156 27 q70 27 114 76 l29 -40 q-49 -53 -127 -82 q-78 -29 -172 -29 ZM444 107 q49 0 88 28 q39 28 61 77.5 q22 49.5 22 112.5 q0 61 -27 90.5 q-27 29.5 -85 29.5 q-49 0 -88 -26.5 q-39 -26.5 -61.5 -73 q-22.5 -46.5 -22.5 -106.5 q0 -64 29.5 -98 q29.5 -34 83.5 -34 Z" /><glyph glyph-name="ampersand" unicode="&amp;" d="M649 -8 q-46 23 -84.5 54.5 q-38.5 31.5 -64.5 59.5 l16 0 q-41 -54 -102 -84 q-61 -30 -134 -30 q-70 0 -120 21.5 q-50 21.5 -76 60 q-26 38.5 -26 91.5 q0 68 40 116.5 q40 48.5 116 99.5 l32 21 l-8 -12 q-49 54 -70.5 93 q-21.5 39 -21.5 81 q0 45 20.5 78 q20.5 33 58 52 q37.5 19 88.5 19 q64 0 107.5 -36.5 q43.5 -36.5 43.5 -100.5 q0 -35 -14.5 -66 q-14.5 -31 -48.5 -62 q-34 -31 -94 -69 l2 16 l202 -223 l-14 0 q26 41 41 103.5 q15 62.5 17 132.5 l55 0 q-2 -83 -22 -154 q-20 -71 -53 -125 l-2 21 q25 -28 63 -59 q38 -31 81 -53 l-28 -46 ZM281 44 q65 0 114.5 26 q49.5 26 85.5 77 l-1 -21 l-220 241 l22 -1 l-32 -21 q-46 -31 -75 -58 q-29 -27 -42.5 -55 q-13.5 -28 -13.5 -65 q0 -58 41.5 -90.5 q41.5 -32.5 120.5 -32.5 ZM313 664 q-49 0 -79 -27.5 q-30 -27.5 -30 -72.5 q0 -23 8 -42.5 q8 -19.5 26.5 -44 q18.5 -24.5 50.5 -60.5 l-18 -4 q73 47 105.5 82.5 q32.5 35.5 32.5 75.5 q0 42 -26.5 67.5 q-26.5 25.5 -69.5 25.5 Z" /><glyph glyph-name="paragraph" unicode="¶" d="M247 -180 l0 503 q-60 0 -104.5 24.5 q-44.5 24.5 -69 68 q-24.5 43.5 -24.5 98.5 q0 56 24.5 99 q24.5 43 69.5 67.5 q45 24.5 106 24.5 l243 0 l0 -885 l-54 0 l0 835 l-137 0 l0 -835 l-54 0 Z" /><glyph glyph-name="section" unicode="§" d="M239 -188 q-63 0 -114.5 17 q-51.5 17 -84.5 48 l25 45 q20 -18 48.5 -32 q28.5 -14 61.5 -21 q33 -7 67 -7 q67 0 108 32 q41 32 41 91 q0 42 -22 72 q-22 30 -79 56 l-105 48 q-57 27 -89 52.5 q-32 25.5 -45.5 55 q-13.5 29.5 -13.5 65.5 q0 40 20 77 q20 37 51 60 l-7 -18 q-9 13 -15.5 33 q-6.5 20 -6.5 50 q0 56 27.5 95 q27.5 39 74.5 60.5 q47 21.5 107 21.5 q59 0 109 -16.5 q50 -16.5 82 -48.5 l-25 -45 q-31 28 -76.5 43.5 q-45.5 15.5 -92.5 15.5 q-63 0 -103.5 -31.5 q-40.5 -31.5 -40.5 -91.5 q0 -41 22 -71 q22 -30 79 -56 l105 -49 q57 -26 89 -52 q32 -26 45 -55 q13 -29 13 -66 q0 -39 -19.5 -76.5 q-19.5 -37.5 -50.5 -60.5 l6 18 q9 -12 15.5 -32.5 q6.5 -20.5 6.5 -50.5 q0 -55 -27 -94.5 q-27 -39.5 -75 -60.5 q-48 -21 -111 -21 ZM95 342 q0 -39 24.5 -68.5 q24.5 -29.5 92.5 -61.5 l90 -42 q42 -20 70 -40 q28 -20 43 -41 l-22 0 q44 37 44 94 q0 39 -24.5 68.5 q-24.5 29.5 -92.5 60.5 l-90 42 q-42 21 -70 41.5 q-28 20.5 -43 40.5 l21 0 q-20 -18 -31.5 -42 q-11.5 -24 -11.5 -52 Z" /><glyph glyph-name="copyright" unicode="©" d="M408 -8 q-76 0 -142 27.5 q-66 27.5 -115 76.5 q-49 49 -76.5 115 q-27.5 66 -27.5 142 q0 77 27.5 142.5 q27.5 65.5 76.5 114 q49 48.5 114.5 76 q65.5 27.5 142.5 27.5 q77 0 142.5 -27.5 q65.5 -27.5 114 -76 q48.5 -48.5 76 -114 q27.5 -65.5 27.5 -142.5 q0 -76 -27.5 -142 q-27.5 -66 -76 -115 q-48.5 -49 -114 -76.5 q-65.5 -27.5 -142.5 -27.5 ZM419 137 q-95 0 -149.5 60 q-54.5 60 -54.5 159 q0 98 54.5 155 q54.5 57 149.5 57 q40 0 78.5 -15 q38.5 -15 63.5 -40 l-21 -42 q-28 26 -59 37.5 q-31 11.5 -61 11.5 q-70 0 -109.5 -43.5 q-39.5 -43.5 -39.5 -121.5 q0 -78 39.5 -123.5 q39.5 -45.5 109.5 -45.5 q30 0 61 11.5 q31 11.5 59 37.5 l21 -43 q-25 -25 -64.5 -40 q-39.5 -15 -77.5 -15 ZM408 31 q68 0 126 24.5 q58 24.5 101.5 68.5 q43.5 44 67.5 102.5 q24 58.5 24 126.5 q0 68 -24 126.5 q-24 58.5 -67.5 102 q-43.5 43.5 -101.5 68 q-58 24.5 -126 24.5 q-68 0 -126.5 -24.5 q-58.5 -24.5 -102 -68 q-43.5 -43.5 -67.5 -102 q-24 -58.5 -24 -126.5 q0 -68 24 -126.5 q24 -58.5 67.5 -102.5 q43.5 -44 102 -68.5 q58.5 -24.5 126.5 -24.5 Z" /><glyph glyph-name="registered" unicode="®" d="M408 -8 q-76 0 -142 27.5 q-66 27.5 -115 76.5 q-49 49 -76.5 115 q-27.5 66 -27.5 142 q0 77 27.5 142.5 q27.5 65.5 76.5 114 q49 48.5 114.5 76 q65.5 27.5 142.5 27.5 q77 0 142.5 -27.5 q65.5 -27.5 114 -76 q48.5 -48.5 76 -114 q27.5 -65.5 27.5 -142.5 q0 -76 -27.5 -142 q-27.5 -66 -76 -115 q-48.5 -49 -114 -76.5 q-65.5 -27.5 -142.5 -27.5 ZM408 31 q68 0 126 24.5 q58 24.5 101.5 68.5 q43.5 44 67.5 102.5 q24 58.5 24 126.5 q0 68 -24 126.5 q-24 58.5 -67.5 102 q-43.5 43.5 -101.5 68 q-58 24.5 -126 24.5 q-68 0 -126.5 -24.5 q-58.5 -24.5 -102 -68 q-43.5 -43.5 -67.5 -102 q-24 -58.5 -24 -126.5 q0 -68 24 -126.5 q24 -58.5 67.5 -102.5 q43.5 -44 102 -68.5 q58.5 -24.5 126.5 -24.5 ZM268 142 l0 421 l167 0 q67 0 102.5 -31.5 q35.5 -31.5 35.5 -89.5 q0 -57 -36 -87.5 q-36 -30.5 -101 -30.5 l7 10 q30 0 50.5 -13 q20.5 -13 32.5 -45 l53 -134 l-56 0 l-52 132 q-11 27 -31 36 q-20 9 -49 9 l-81 0 l12 9 l0 -186 l-54 0 ZM322 364 l106 0 q47 0 69.5 18.5 q22.5 18.5 22.5 58.5 q0 39 -22 58 q-22 19 -70 19 l-106 0 l0 -154 Z" /><glyph glyph-name="trademark" unicode="&#x2122;" d="M151 284 l0 372 l-145 0 l0 49 l347 0 l0 -49 l-145 0 l0 -372 l-57 0 ZM419 284 l0 421 l46 0 l168 -312 l-20 0 l168 312 l46 0 l0 -421 l-52 0 l0 345 l16 0 l-150 -280 l-35 0 l-153 280 l18 0 l0 -345 l-52 0 Z" /><glyph glyph-name="degree" unicode="°" d="M184 424 q-41 0 -74 19.5 q-33 19.5 -52 52 q-19 32.5 -19 73.5 q0 41 19 73.5 q19 32.5 52 51.5 q33 19 74 19 q41 0 73.5 -18.5 q32.5 -18.5 51 -51.5 q18.5 -33 18.5 -74 q0 -41 -18.5 -74.5 q-18.5 -33.5 -51 -52 q-32.5 -18.5 -73.5 -18.5 ZM184 471 q42 0 67.5 27.5 q25.5 27.5 25.5 70.5 q0 42 -25.5 69.5 q-25.5 27.5 -67.5 27.5 q-41 0 -67.5 -27.5 q-26.5 -27.5 -26.5 -69.5 q0 -43 26.5 -70.5 q26.5 -27.5 67.5 -27.5 Z" /><glyph glyph-name="minute" unicode="&#x2032;" d="M86 434 l-17 271 l73 0 l-15 -271 l-41 0 Z" /><glyph glyph-name="bar" unicode="|" d="M98 -187 l0 899 l61 0 l0 -899 l-61 0 Z" /><glyph glyph-name="brokenbar" unicode="¦" d="M98 372 l0 340 l61 0 l0 -340 l-61 0 ZM98 -187 l0 340 l61 0 l0 -340 l-61 0 Z" /><glyph glyph-name="dagger" unicode="&#x2020;" d="M134 157 l0 386 l-114 0 l0 43 l114 0 l0 119 l47 0 l0 -119 l114 0 l0 -43 l-114 0 l0 -386 l-47 0 Z" /><glyph glyph-name="uni2113" unicode="&#x2113;" d="M324 -8 q-52 0 -81 30.5 q-29 30.5 -29 86.5 l0 166 l12 -7 l-72 -84 l-30 29 l90 106 l0 265 q0 39 13 68 q13 29 38 45 q25 16 59 16 q41 0 67 -25 q26 -25 26 -80 q0 -60 -27.5 -119.5 q-27.5 -59.5 -91.5 -142.5 l-27 -36 l0 -190 q0 -39 14.5 -58 q14.5 -19 44.5 -19 q21 0 41.5 9 q20.5 9 46.5 38 l26 -39 q-25 -31 -56.5 -45 q-31.5 -14 -63.5 -14 ZM271 380 q5 7 9 12.5 q4 5.5 8 11.5 q42 58 61.5 106.5 q19.5 48.5 19.5 92.5 q0 62 -42 62 q-26 0 -41 -22 q-15 -22 -15 -58 l0 -205 Z" /><glyph glyph-name="daggerdbl" unicode="&#x2021;" d="M133 157 l0 119 l-113 0 l0 43 l113 0 l0 224 l-113 0 l0 44 l113 0 l0 118 l48 0 l0 -118 l113 0 l0 -44 l-113 0 l0 -224 l113 0 l0 -43 l-113 0 l0 -119 l-48 0 Z" /><glyph glyph-name="estimated" unicode="&#x212e;" d="M448 -5 q-95 0 -169 28 q-74 28 -125 77 q-51 49 -77.5 112 q-26.5 63 -26.5 133 q0 70 27 135.5 q27 65.5 78.5 117 q51.5 51.5 124.5 82 q73 30.5 166 30.5 q115 0 191.5 -33 q76.5 -33 122 -88.5 q45.5 -55.5 65 -122.5 q19.5 -67 19.5 -135 l-643 0 q-5 0 -5 -6 l0 -172 q0 -7 1.5 -15.5 q1.5 -8.5 5.5 -13.5 q40 -48 102 -72.5 q62 -24.5 140 -24.5 q85 0 146.5 29 q61.5 29 112.5 78 l71 0 q-39 -47 -83.5 -78 q-44.5 -31 -103 -46 q-58.5 -15 -140.5 -15 ZM201 362 l492 0 q5 0 5 6 l0 188 q0 14 -10 26 q-34 41 -78 61.5 q-44 20.5 -88 28 q-44 7.5 -79 7.5 q-58 0 -121.5 -21 q-63.5 -21 -116.5 -74 q-9 -9 -9 -27 l0 -189 q0 -6 5 -6 Z" /><glyph glyph-name="uni2116" unicode="&#x2116;" d="M93 0 l0 705 l50 0 l473 -632 l-23 0 l0 632 l58 0 l0 -705 l-49 0 l-473 632 l21 0 l0 -632 l-57 0 ZM778 266 l0 46 l270 0 l0 -46 l-270 0 ZM913 412 q-41 0 -73 18.5 q-32 18.5 -50.5 53 q-18.5 34.5 -18.5 79.5 q0 46 18.5 79.5 q18.5 33.5 50.5 52 q32 18.5 73 18.5 q41 0 72.5 -18.5 q31.5 -18.5 50 -52 q18.5 -33.5 18.5 -79.5 q0 -45 -18.5 -79.5 q-18.5 -34.5 -50 -53 q-31.5 -18.5 -72.5 -18.5 ZM913 450 q44 0 69.5 29 q25.5 29 25.5 84 q0 55 -25.5 83.5 q-25.5 28.5 -69.5 28.5 q-44 0 -69.5 -28.5 q-25.5 -28.5 -25.5 -83.5 q0 -55 25.5 -84 q25.5 -29 69.5 -29 Z" /><glyph glyph-name="uni02BC" unicode="&#x2bc;" d="M151 573 l-31 23 q22 23 28 43.5 q6 20.5 6 39.5 l21 -8 l-60 0 l0 78 l83 0 l0 -58 q0 -33 -10 -62.5 q-10 -29.5 -37 -55.5 Z" /><glyph glyph-name="uni02BB" unicode="&#x2bb;" d="M208 569 l0 58 q0 33 10 62.5 q10 29.5 37 55.5 l31 -23 q-22 -23 -28 -43 q-6 -20 -6 -40 l-21 8 l60 0 l0 -78 l-83 0 Z" /><glyph glyph-name="uni02C9" unicode="&#x2c9;" d="M106 629 l0 46 l288 0 l0 -46 l-288 0 Z" /><glyph glyph-name="uni02CB" unicode="&#x2cb;" d="M227 550 l-127 201 l70 0 l103 -201 l-46 0 Z" /><glyph glyph-name="uni02BF" unicode="&#x2bf;" d="M250 555 q-43 0 -71 27.5 q-28 27.5 -28 68.5 q0 41 28 69.5 q28 28.5 71 28.5 l0 -41 q-24 0 -39.5 -16 q-15.5 -16 -15.5 -41 q0 -23 15.5 -40 q15.5 -17 39.5 -17 l0 -39 Z" /><glyph glyph-name="uni02BE" unicode="&#x2be;" d="M250 555 l0 39 q25 0 40 17 q15 17 15 40 q0 24 -15 40.5 q-15 16.5 -40 16.5 l0 41 q43 0 71 -28.5 q28 -28.5 28 -69.5 q0 -41 -28 -68.5 q-28 -27.5 -71 -27.5 Z" /><glyph glyph-name="uni02CA" unicode="&#x2ca;" d="M227 550 l103 201 l70 0 l-127 -201 l-46 0 Z" /><glyph glyph-name="uni02CC" unicode="&#x2cc;" d="M225 -270 l0 199 l51 0 l0 -199 l-51 0 Z" /><glyph glyph-name="uni02C8" unicode="&#x2c8;" d="M225 596 l0 199 l51 0 l0 -199 l-51 0 Z" /><glyph glyph-name="uni0308" unicode="&#x308;" d="M47 615 l0 72 l73 0 l0 -72 l-73 0 ZM-120 615 l0 72 l73 0 l0 -72 l-73 0 Z" /><glyph glyph-name="uni0307" unicode="&#x307;" d="M-39 614 l0 75 l78 0 l0 -75 l-78 0 Z" /><glyph glyph-name="gravecomb" unicode="&#x300;" d="M-23 550 l-127 201 l70 0 l103 -201 l-46 0 Z" /><glyph glyph-name="acutecomb" unicode="&#x301;" d="M-23 550 l103 201 l70 0 l-127 -201 l-46 0 Z" /><glyph glyph-name="uni030B" unicode="&#x30b;" d="M41 550 l56 201 l61 0 l-81 -201 l-36 0 ZM-77 550 l56 201 l61 0 l-81 -201 l-36 0 Z" /><glyph glyph-name="uni0302" unicode="&#x302;" d="M-140 550 l109 201 l62 0 l109 -201 l-45 0 l-95 155 l-95 -155 l-45 0 Z" /><glyph glyph-name="uni030C" unicode="&#x30c;" d="M-31 550 l-109 201 l45 0 l95 -155 l95 155 l45 0 l-109 -201 l-62 0 Z" /><glyph glyph-name="uni0306" unicode="&#x306;" d="M0 548 q-43 0 -75.5 22.5 q-32.5 22.5 -51 65 q-18.5 42.5 -22.5 100.5 l42 5 q4 -71 32 -109.5 q28 -38.5 75 -38.5 q48 0 75.5 38.5 q27.5 38.5 31.5 109.5 l42 -5 q-3 -58 -22 -100.5 q-19 -42.5 -51 -65 q-32 -22.5 -76 -22.5 Z" /><glyph glyph-name="uni030A" unicode="&#x30a;" d="M0 547 q-32 0 -58.5 15 q-26.5 15 -41.5 41 q-15 26 -15 57 q0 31 15 56.5 q15 25.5 41.5 40.5 q26.5 15 58.5 15 q33 0 59 -15 q26 -15 41 -40.5 q15 -25.5 15 -57.5 q0 -30 -15 -56 q-15 -26 -41 -41 q-26 -15 -59 -15 ZM0 584 q34 0 54.5 22 q20.5 22 20.5 54 q0 32 -20.5 53.5 q-20.5 21.5 -54.5 21.5 q-33 0 -54 -21.5 q-21 -21.5 -21 -53.5 q0 -32 21 -54 q21 -22 54 -22 Z" /><glyph glyph-name="tildecomb" unicode="&#x303;" d="M-135 592 l-39 3 q6 61 32.5 94 q26.5 33 69.5 33 q21 0 39.5 -11 q18.5 -11 42.5 -33 q22 -21 35.5 -29 q13.5 -8 26.5 -8 q51 0 63 84 l39 -3 q-6 -61 -32.5 -94 q-26.5 -33 -68.5 -33 q-20 0 -38.5 11 q-18.5 11 -44.5 34 q-22 20 -35 28 q-13 8 -27 8 q-26 0 -41.5 -22 q-15.5 -22 -21.5 -62 Z" /><glyph glyph-name="uni0304" unicode="&#x304;" d="M-144 629 l0 46 l288 0 l0 -46 l-288 0 Z" /><glyph glyph-name="hookabovecomb" unicode="&#x309;" d="M-23 550 l0 20 q0 24 10.5 39.5 q10.5 15.5 23 26.5 q12.5 11 22.5 22 q10 11 10 27 q0 14 -12 21.5 q-12 7.5 -38 7.5 q-15 0 -30 -3.5 q-15 -3.5 -34 -11.5 l-11 37 q17 11 39 16 q22 5 46 5 q44 0 68.5 -17.5 q24.5 -17.5 24.5 -49.5 q0 -25 -11 -40 q-11 -15 -25.5 -26 q-14.5 -11 -25.5 -24 q-11 -13 -11 -35 l0 -15 l-46 0 Z" /><glyph glyph-name="uni030F" unicode="&#x30f;" d="M41 550 l-81 201 l61 0 l56 -201 l-36 0 ZM-77 550 l-81 201 l61 0 l56 -201 l-36 0 Z" /><glyph glyph-name="uni0311" unicode="&#x311;" d="M-107 548 l-42 4 q4 60 22.5 102 q18.5 42 51 64.5 q32.5 22.5 75.5 22.5 q44 0 76 -22.5 q32 -22.5 51 -64.5 q19 -42 22 -102 l-42 -4 q-4 70 -31.5 109 q-27.5 39 -75.5 39 q-47 0 -75 -39 q-28 -39 -32 -109 Z" /><glyph glyph-name="uni0312" unicode="&#x312;" d="M-42 569 l0 57 q0 35 12.5 66.5 q12.5 31.5 36.5 56.5 l31 -23 q-23 -25 -30.5 -46.5 q-7.5 -21.5 -7.5 -46.5 l-18 9 l60 0 l0 -73 l-84 0 Z" /><glyph glyph-name="uni031B" unicode="&#x31b;" d="M27 441 l-28 21 l0 23 q45 1 70 13.5 q25 12.5 35 38.5 q10 26 10 65 l0 14 l56 0 l0 -24 q0 -46 -16.5 -78.5 q-16.5 -32.5 -48.5 -51 q-32 -18.5 -78 -21.5 Z" /><glyph glyph-name="dotbelowcomb" unicode="&#x323;" d="M-39 -179 l0 75 l78 0 l0 -75 l-78 0 Z" /><glyph glyph-name="uni0324" unicode="&#x324;" d="M47 -176 l0 73 l73 0 l0 -73 l-73 0 ZM-120 -176 l0 73 l73 0 l0 -73 l-73 0 Z" /><glyph glyph-name="uni0326" unicode="&#x326;" d="M-7 -263 l-31 22 q23 25 30.5 47 q7.5 22 7.5 46 l18 -8 l-60 0 l0 73 l84 0 l0 -57 q0 -36 -12.5 -67 q-12.5 -31 -36.5 -56 Z" /><glyph glyph-name="uni0327" unicode="&#x327;" d="M4 -191 q-25 0 -46.5 5 q-21.5 5 -37.5 14 l11 39 q19 -9 35 -13 q16 -4 39 -4 q27 0 43.5 10.5 q16.5 10.5 16.5 29.5 q0 30 -38 30 q-11 0 -22 -1.5 q-11 -1.5 -27 -7.5 l-16 14 l14 95 l45 0 l-13 -75 l-21 4 q12 3 23.5 5 q11.5 2 21.5 2 q34 0 57.5 -17.5 q23.5 -17.5 23.5 -49.5 q0 -35 -30.5 -57.5 q-30.5 -22.5 -78.5 -22.5 Z" /><glyph glyph-name="uni0328" unicode="&#x328;" d="M-18 -191 q-44 0 -72 25.5 q-28 25.5 -28 69.5 q0 39 24.5 73.5 q24.5 34.5 68.5 56.5 l25 -34 q-15 -6 -31 -19 q-16 -13 -27 -31 q-11 -18 -11 -40 q0 -30 17 -44 q17 -14 42 -14 q13 0 26 3 q13 3 27 9 l14 -38 q-13 -8 -32 -12.5 q-19 -4.5 -43 -4.5 Z" /><glyph glyph-name="uni032E" unicode="&#x32e;" d="M0 -215 q-65 0 -105 39.5 q-40 39.5 -44 108.5 l42 5 q4 -52 32 -80 q28 -28 75 -28 q48 0 75.5 28 q27.5 28 31.5 80 l42 -5 q-4 -69 -44 -108.5 q-40 -39.5 -105 -39.5 Z" /><glyph glyph-name="uni0331" unicode="&#x331;" d="M-144 -152 l0 46 l288 0 l0 -46 l-288 0 Z" /><glyph glyph-name="uni0335" unicode="&#x335;" d="M-175 524 l0 48 l350 0 l0 -48 l-350 0 Z" /><glyph glyph-name="uni0337" unicode="&#x337;" d="M-109 263 l-27 45 l245 143 l27 -45 l-245 -143 Z" /><glyph glyph-name="uni0338" unicode="&#x338;" d="M233 -41 l-37 23 l318 549 l37 -23 l-318 -549 Z" /></font>
</defs>
</svg>
