<?xml version="1.0" encoding="utf-8"?>
<!-- Generator: Adobe Illustrator 25.2.0, SVG Export Plug-In . SVG Version: 6.00 Build 0)  -->
<svg version="1.1" id="Layer_1" xmlns="http://www.w3.org/2000/svg" xmlns:xlink="http://www.w3.org/1999/xlink" x="0px" y="0px"
	 viewBox="0 0 18 19.6" style="enable-background:new 0 0 18 19.6;" xml:space="preserve">
<style type="text/css">
	.st0{fill:#6C63FF;}
	.st1{fill:#5AC0FC;}
	.st2{opacity:0.2;fill:#2F2E41;enable-background:new    ;}
	.st3{fill:#F5F5F5;}
	.st4{fill:#2F2E41;}
</style>
<path class="st0" d="M5.4,7.9l-0.2,1c0,0,0.5,0.8,4.5-0.8c4-1.6,4-2.5,4-2.5l-1.2-0.8L9.6,4.2L5.4,7.9z"/>
<path class="st1" d="M5.4,7.9l-0.2,1c0,0,0.5,0.8,4.5-0.8c4-1.6,4-2.5,4-2.5l-1.2-0.8L9.6,4.2L5.4,7.9z"/>
<path class="st0" d="M15.8,0.5L9.9,6.3L0,6.6L6.6,0l4.6,0.3l0.2,0L15.8,0.5z"/>
<path class="st1" d="M15.8,0.5L9.9,6.3L0,6.6L6.6,0l4.6,0.3l0.2,0L15.8,0.5z"/>
<path class="st2" d="M15.8,0.5L9.9,6.3L0,6.6L6.6,0l4.6,0.3l0.2,0L15.8,0.5z"/>
<path class="st3" d="M12.4,2.7l-0.1,0.1l-1.1-2.5l0.2,0L12.4,2.7z"/>
<path class="st1" d="M4.3,4.9l0.8,4c0,0,4-3.2,8.5-3.3l-2.1-3.8C11.5,1.9,6,3.3,4.3,4.9z"/>
<path class="st3" d="M12.7,3.4c0.4-0.1,0.6-0.5,0.5-0.7c-0.1-0.2-0.5-0.3-0.8-0.2C12,2.7,11.8,3,11.9,3.2C12,3.5,12.3,3.6,12.7,3.4z
	"/>
<path class="st4" d="M11.9,17.4c1.9,0,3-0.7,3.5-2l2.1,1.3c-1,1.7-2.7,3-5.7,3c-4,0-6.6-2.8-6.6-6.6c0-3.7,2.9-6.6,6.4-6.6
	c3.9,0,6.4,3.1,6.4,6.3c0,0.4,0,0.9,0,1.1H7.7C8.1,16,9.8,17.4,11.9,17.4z M15.5,11.9c-0.3-2.1-1.8-3.5-3.8-3.5c-2,0-3.6,1.3-4,3.5
	H15.5z"/>
</svg>
