<svg xmlns="http://www.w3.org/2000/svg" width="22.808" height="21.629" viewBox="0 0 22.808 21.629">
    <path data-name="Path 7108" d="M337.667 389.105a7.917 7.917 0 0 0-1.531-.343c-.335-.035-.82-.039-1.007.16-.777.835-1.87 1.259-2.565 2.219a21.3 21.3 0 0 1-5.079 4.917 1.307 1.307 0 0 1-1.678.086c-1-.713-2.029-1.383-3.025-2.1a11.868 11.868 0 0 0-4-1.948 2.068 2.068 0 0 0-.77-.116 2.779 2.779 0 0 0-2.145 3.578 8.008 8.008 0 0 0 2.263 3.49 71.552 71.552 0 0 1 2.517 2.315.791.791 0 0 1 .1 1.115.777.777 0 0 1-.053.058 44.557 44.557 0 0 1-1.92 1.792 7.553 7.553 0 0 0-2.526 4.21 1.1 1.1 0 0 0 .578 1.325 2.432 2.432 0 0 0 1.718.5 4.164 4.164 0 0 0 2.41-.94q1.9-1.616 3.807-3.22c.335-.279.7-.527 1.057-.774a.77.77 0 0 1 .965-.011c.843.631 1.684 1.264 2.532 1.887a9.783 9.783 0 0 0 4.749 2.094 2.976 2.976 0 0 0 2.9-1.388 2.485 2.485 0 0 0 .232-2.956 5.745 5.745 0 0 0-2.2-2.5 14.923 14.923 0 0 1-2.449-1.98c-.69-.574-.764-.886-.208-1.518 1.389-1.583 2.76-3.188 4.246-4.675a5.774 5.774 0 0 0 1.913-3.469c.155-1.117-.136-1.592-.846-1.81z" transform="translate(-315.74 -388.744)" style="fill:#ff3100"/>
</svg>
