<svg width="236" height="225" viewBox="0 0 236 225" fill="none" xmlns="http://www.w3.org/2000/svg">
<path d="M142.841 12.6055L19.8887 38.9866L56.3388 208.866L179.291 182.485L142.841 12.6055Z" fill="#E0E0E0"/>
<g opacity="0.5">
<path opacity="0.5" d="M141.382 15.9236L22.585 41.4131L57.803 205.551L176.6 180.061L141.382 15.9236Z" fill="url(#paint0_linear)"/>
</g>
<path d="M140.127 17.4561L24.3545 42.2966L58.7944 202.808L174.567 177.967L140.127 17.4561Z" fill="#FAFAFA"/>
<path d="M109.616 16.7238L52.1826 29.0469L55.1677 42.9592L112.601 30.6361L109.616 16.7238Z" fill="url(#paint1_linear)"/>
<path d="M77.9823 9.29694C73.5481 10.2494 70.7426 14.7008 71.7181 19.2385C72.6935 23.7763 77.0759 26.6883 81.5014 25.7358C85.9269 24.7834 88.7411 20.332 87.7656 15.7942C86.7901 11.2565 82.4164 8.34451 77.9823 9.29694ZM80.7648 22.2742C79.8276 22.4977 78.8451 22.4371 77.9426 22.1002C77.04 21.7632 76.2582 21.1652 75.6968 20.3822C75.1354 19.5993 74.8198 18.6669 74.7902 17.7039C74.7607 16.741 75.0185 15.791 75.5309 14.9751C76.0433 14.1592 76.787 13.5144 77.6672 13.1228C78.5474 12.7311 79.5244 12.6104 80.4734 12.7761C81.4225 12.9417 82.3008 13.3862 82.9963 14.0528C83.6918 14.7195 84.1731 15.5781 84.3788 16.5193C84.521 17.1346 84.5401 17.7719 84.4353 18.3946C84.3304 19.0172 84.1035 19.6131 83.7677 20.1478C83.4319 20.6826 82.9937 21.1457 82.4784 21.5106C81.963 21.8755 81.3807 22.135 80.7648 22.2742Z" fill="url(#paint2_linear)"/>
<path d="M108.883 16.2568L52.6592 28.3203L55.5127 41.6193L111.736 29.5558L108.883 16.2568Z" fill="#6C63FF"/>
<path d="M77.982 9.29712C76.4279 9.63068 75.0077 10.4176 73.9008 11.5583C72.7939 12.699 72.0502 14.1424 71.7636 15.7058C71.477 17.2692 71.6604 18.8825 72.2907 20.3417C72.9209 21.8008 73.9697 23.0404 75.3045 23.9035C76.6392 24.7666 78.1998 25.2145 79.7891 25.1907C81.3784 25.1668 82.925 24.6723 84.2332 23.7695C85.5414 22.8667 86.5525 21.5963 87.1387 20.1189C87.7249 18.6414 87.8599 17.0234 87.5265 15.4693C87.3051 14.4373 86.8826 13.459 86.2832 12.5903C85.6837 11.7216 84.919 10.9794 84.0327 10.4063C83.1464 9.83315 82.1558 9.4402 81.1177 9.24989C80.0795 9.05957 79.014 9.07562 77.982 9.29712ZM80.6408 21.6989C79.7438 21.8914 78.8098 21.8136 77.957 21.4752C77.1043 21.1369 76.371 20.5532 75.8499 19.7981C75.3289 19.043 75.0434 18.1504 75.0297 17.233C75.016 16.3157 75.2746 15.4149 75.7729 14.6445C76.2712 13.8742 76.9867 13.2689 77.829 12.9053C78.6713 12.5416 79.6025 12.4359 80.5048 12.6014C81.4072 12.767 82.2402 13.1965 82.8985 13.8355C83.5568 14.4745 84.0108 15.2944 84.2031 16.1915C84.4609 17.3942 84.2304 18.6501 83.5624 19.6829C82.8943 20.7157 81.8434 21.4409 80.6408 21.6989Z" fill="#6C63FF"/>
<path d="M199.956 33.6404H74.2061V207.387H199.956V33.6404Z" fill="#E0E0E0"/>
<g opacity="0.5">
<path opacity="0.5" d="M197.833 36.5781H76.333V204.452H197.833V36.5781Z" fill="url(#paint3_linear)"/>
</g>
<path d="M196.285 37.8154H77.8779V201.98H196.285V37.8154Z" fill="white"/>
<path d="M166.607 30.6968H107.867V44.9258H166.607V30.6968Z" fill="url(#paint4_linear)"/>
<path d="M137.238 16.8071C132.703 16.8071 129.025 20.5708 129.025 25.215C129.025 29.8592 132.703 33.623 137.238 33.623C141.772 33.623 145.45 29.8592 145.45 25.215C145.45 20.5708 141.772 16.8071 137.238 16.8071ZM137.238 30.0664C136.274 30.0893 135.325 29.8243 134.512 29.3054C133.699 28.7864 133.059 28.0369 132.674 27.1527C132.289 26.2685 132.177 25.2896 132.351 24.3411C132.525 23.3926 132.977 22.5174 133.651 21.8274C134.325 21.1373 135.189 20.6637 136.133 20.467C137.077 20.2703 138.058 20.3594 138.952 20.723C139.845 21.0866 140.609 21.7081 141.148 22.5082C141.686 23.3083 141.974 24.2507 141.974 25.215C141.983 26.4825 141.49 27.702 140.602 28.6069C139.715 29.5117 138.505 30.0282 137.238 30.0434V30.0664Z" fill="url(#paint5_linear)"/>
<path d="M165.988 30.0867H108.485V43.6884H165.988V30.0867Z" fill="#6C63FF"/>
<path d="M137.237 16.8071C135.647 16.8071 134.094 17.2785 132.772 18.1616C131.45 19.0446 130.42 20.2998 129.812 21.7683C129.204 23.2368 129.045 24.8528 129.355 26.4117C129.665 27.9707 130.43 29.4027 131.554 30.5267C132.678 31.6506 134.11 32.416 135.669 32.7261C137.228 33.0362 138.844 32.8771 140.312 32.2688C141.781 31.6605 143.036 30.6304 143.919 29.3088C144.802 27.9872 145.274 26.4334 145.274 24.8438C145.274 22.7124 144.427 20.6682 142.92 19.161C141.413 17.6539 139.368 16.8071 137.237 16.8071ZM137.237 29.4823C136.32 29.4812 135.424 29.2084 134.663 28.6986C133.901 28.1887 133.307 27.4646 132.957 26.6176C132.606 25.7706 132.515 24.8387 132.693 23.9396C132.872 23.0406 133.313 22.2146 133.961 21.566C134.609 20.9174 135.434 20.4753 136.333 20.2955C137.232 20.1157 138.164 20.2063 139.011 20.5557C139.859 20.9052 140.583 21.4979 141.094 22.2591C141.605 23.0202 141.879 23.9157 141.881 24.8323C141.881 25.4417 141.76 26.045 141.527 26.6078C141.293 27.1707 140.951 27.6819 140.519 28.1124C140.088 28.5429 139.576 28.8842 139.013 29.1168C138.45 29.3493 137.846 29.4687 137.237 29.4679V29.4823Z" fill="#6C63FF"/>
<g opacity="0.5">
<path opacity="0.5" d="M5.47645 212.083H4.39453V218.22H5.47645V212.083Z" fill="#47E6B1"/>
<path opacity="0.5" d="M8.00586 215.694V214.612H1.86827V215.694H8.00586Z" fill="#47E6B1"/>
</g>
<g opacity="0.5">
<path opacity="0.5" d="M130.996 0H129.914V6.1376H130.996V0Z" fill="#47E6B1"/>
<path opacity="0.5" d="M133.525 3.60827V2.52637L127.388 2.52637V3.60827L133.525 3.60827Z" fill="#47E6B1"/>
</g>
<path opacity="0.5" d="M221.874 222.3C221.576 222.17 221.336 221.935 221.199 221.64C221.063 221.344 221.04 221.009 221.135 220.698C221.15 220.65 221.16 220.601 221.164 220.551C221.172 220.408 221.135 220.267 221.057 220.147C220.978 220.028 220.864 219.937 220.73 219.887C220.596 219.838 220.45 219.833 220.313 219.873C220.176 219.913 220.055 219.997 219.969 220.111C219.939 220.151 219.914 220.194 219.895 220.24C219.765 220.539 219.53 220.779 219.234 220.915C218.939 221.051 218.603 221.074 218.292 220.98C218.244 220.964 218.195 220.955 218.145 220.951C218.003 220.942 217.861 220.98 217.742 221.058C217.622 221.136 217.531 221.25 217.481 221.384C217.432 221.518 217.427 221.665 217.467 221.802C217.508 221.939 217.591 222.059 217.705 222.145C217.745 222.175 217.788 222.2 217.834 222.22C218.133 222.35 218.373 222.585 218.509 222.88C218.646 223.176 218.669 223.511 218.574 223.823C218.559 223.87 218.549 223.919 218.545 223.969C218.536 224.112 218.574 224.253 218.652 224.373C218.73 224.492 218.845 224.584 218.979 224.633C219.113 224.682 219.259 224.687 219.396 224.647C219.533 224.607 219.653 224.523 219.739 224.41C219.769 224.369 219.794 224.326 219.814 224.28C219.944 223.982 220.179 223.741 220.475 223.605C220.77 223.469 221.105 223.446 221.417 223.541C221.464 223.556 221.514 223.565 221.563 223.569C221.706 223.578 221.847 223.54 221.967 223.462C222.087 223.384 222.178 223.27 222.227 223.136C222.277 223.002 222.281 222.855 222.241 222.718C222.201 222.582 222.118 222.461 222.004 222.375C221.964 222.345 221.92 222.32 221.874 222.3Z" fill="#4D8AF0"/>
<path opacity="0.5" d="M39.3264 163.295C39.028 163.166 38.7878 162.93 38.6514 162.635C38.515 162.339 38.4921 162.004 38.5869 161.693C38.6022 161.645 38.6119 161.596 38.6157 161.546C38.6243 161.403 38.5868 161.262 38.5087 161.142C38.4306 161.023 38.3161 160.932 38.1821 160.882C38.0482 160.833 37.9019 160.828 37.7649 160.868C37.6279 160.908 37.5075 160.992 37.4216 161.106C37.3916 161.146 37.3665 161.189 37.3467 161.235C37.2168 161.534 36.9817 161.774 36.6862 161.91C36.3907 162.047 36.0553 162.07 35.744 161.975C35.6964 161.959 35.6471 161.95 35.5972 161.946C35.4547 161.937 35.3133 161.975 35.1937 162.053C35.0742 162.131 34.983 162.246 34.9336 162.38C34.8842 162.513 34.8793 162.66 34.9195 162.797C34.9597 162.934 35.043 163.054 35.157 163.14C35.1971 163.17 35.2405 163.195 35.2865 163.215C35.5849 163.345 35.8251 163.58 35.9615 163.875C36.0979 164.171 36.1208 164.506 36.026 164.818C36.0107 164.865 36.001 164.915 35.9972 164.964C35.9886 165.107 36.0261 165.248 36.1042 165.368C36.1823 165.487 36.2968 165.579 36.4308 165.628C36.5647 165.677 36.711 165.682 36.848 165.642C36.985 165.602 37.1054 165.519 37.1914 165.405C37.2213 165.365 37.2464 165.321 37.2662 165.275C37.3961 164.977 37.6312 164.736 37.9267 164.6C38.2222 164.464 38.5576 164.441 38.8689 164.536C38.9165 164.551 38.9658 164.561 39.0157 164.564C39.1582 164.573 39.2997 164.535 39.4192 164.457C39.5387 164.379 39.6299 164.265 39.6793 164.131C39.7287 163.997 39.7336 163.851 39.6934 163.714C39.6532 163.577 39.5699 163.456 39.4559 163.37C39.4158 163.34 39.3724 163.315 39.3264 163.295Z" fill="#FDD835"/>
<path opacity="0.5" d="M191.373 19.6185C191.075 19.4886 190.835 19.2535 190.698 18.9579C190.562 18.6624 190.539 18.3271 190.634 18.0157C190.649 17.9681 190.659 17.9188 190.663 17.869C190.671 17.7265 190.634 17.585 190.556 17.4655C190.477 17.3459 190.363 17.2547 190.229 17.2053C190.095 17.156 189.949 17.151 189.812 17.1912C189.675 17.2315 189.554 17.3147 189.468 17.4287C189.438 17.4688 189.413 17.5123 189.394 17.5582C189.264 17.8566 189.029 18.0969 188.733 18.2332C188.438 18.3696 188.102 18.3925 187.791 18.2977C187.743 18.2824 187.694 18.2728 187.644 18.2689C187.502 18.2604 187.36 18.2979 187.241 18.376C187.121 18.4541 187.03 18.5685 186.98 18.7025C186.931 18.8365 186.926 18.9827 186.966 19.1197C187.007 19.2567 187.09 19.3771 187.204 19.4631C187.244 19.493 187.287 19.5181 187.333 19.5379C187.632 19.6678 187.872 19.9029 188.008 20.1984C188.145 20.4939 188.168 20.8293 188.073 21.1406C188.058 21.1883 188.048 21.2375 188.044 21.2874C188.035 21.4299 188.073 21.5714 188.151 21.6909C188.229 21.8104 188.344 21.9016 188.478 21.951C188.612 22.0004 188.758 22.0053 188.895 21.9651C189.032 21.9249 189.152 21.8416 189.238 21.7276C189.268 21.6876 189.293 21.6441 189.313 21.5981C189.443 21.2997 189.678 21.0595 189.974 20.9231C190.269 20.7868 190.604 20.7638 190.916 20.8586C190.963 20.8739 191.013 20.8836 191.063 20.8874C191.205 20.896 191.347 20.8585 191.466 20.7804C191.586 20.7023 191.677 20.5878 191.726 20.4539C191.776 20.3199 191.78 20.1736 191.74 20.0366C191.7 19.8996 191.617 19.7793 191.503 19.6933C191.463 19.6634 191.419 19.6382 191.373 19.6185Z" fill="#FDD835"/>
<path opacity="0.5" d="M233.834 92.654C235.03 92.654 236 91.6839 236 90.4873C236 89.2906 235.03 88.3206 233.834 88.3206C232.637 88.3206 231.667 89.2906 231.667 90.4873C231.667 91.6839 232.637 92.654 233.834 92.654Z" fill="#F55F44"/>
<path opacity="0.5" d="M66.3913 217.012C67.588 217.012 68.558 216.042 68.558 214.845C68.558 213.648 67.588 212.678 66.3913 212.678C65.1947 212.678 64.2246 213.648 64.2246 214.845C64.2246 216.042 65.1947 217.012 66.3913 217.012Z" fill="#F55F44"/>
<path opacity="0.5" d="M211.582 139.487C212.778 139.487 213.748 138.517 213.748 137.321C213.748 136.124 212.778 135.154 211.582 135.154C210.385 135.154 209.415 136.124 209.415 137.321C209.415 138.517 210.385 139.487 211.582 139.487Z" fill="#F55F44"/>
<path opacity="0.5" d="M25.0739 29.8908C26.2706 29.8908 27.2407 28.9207 27.2407 27.7241C27.2407 26.5274 26.2706 25.5574 25.0739 25.5574C23.8773 25.5574 22.9072 26.5274 22.9072 27.7241C22.9072 28.9207 23.8773 29.8908 25.0739 29.8908Z" fill="#4D8AF0"/>
<path opacity="0.5" d="M2.16672 88.9968C3.36337 88.9968 4.33344 88.0267 4.33344 86.8301C4.33344 85.6334 3.36337 84.6633 2.16672 84.6633C0.970074 84.6633 0 85.6334 0 86.8301C0 88.0267 0.970074 88.9968 2.16672 88.9968Z" fill="#47E6B1"/>
<defs>
<linearGradient id="paint0_linear" x1="117.2" y1="192.806" x2="81.9818" y2="28.6687" gradientUnits="userSpaceOnUse">
<stop stop-color="#808080" stop-opacity="0.25"/>
<stop offset="0.54" stop-color="#808080" stop-opacity="0.12"/>
<stop offset="1" stop-color="#808080" stop-opacity="0.1"/>
</linearGradient>
<linearGradient id="paint1_linear" x1="31596.2" y1="-4114.44" x2="31448.6" y2="-4802.4" gradientUnits="userSpaceOnUse">
<stop stop-color="#808080" stop-opacity="0.25"/>
<stop offset="0.54" stop-color="#808080" stop-opacity="0.12"/>
<stop offset="1" stop-color="#808080" stop-opacity="0.1"/>
</linearGradient>
<linearGradient id="paint2_linear" x1="9226.19" y1="469.303" x2="9020.26" y2="-490.468" gradientUnits="userSpaceOnUse">
<stop stop-color="#808080" stop-opacity="0.25"/>
<stop offset="0.54" stop-color="#808080" stop-opacity="0.12"/>
<stop offset="1" stop-color="#808080" stop-opacity="0.1"/>
</linearGradient>
<linearGradient id="paint3_linear" x1="57959.1" y1="119316" x2="57959.1" y2="21376.6" gradientUnits="userSpaceOnUse">
<stop stop-color="#808080" stop-opacity="0.25"/>
<stop offset="0.54" stop-color="#808080" stop-opacity="0.12"/>
<stop offset="1" stop-color="#808080" stop-opacity="0.1"/>
</linearGradient>
<linearGradient id="paint4_linear" x1="28123.5" y1="2252.27" x2="28123.5" y2="1548.65" gradientUnits="userSpaceOnUse">
<stop stop-color="#808080" stop-opacity="0.25"/>
<stop offset="0.54" stop-color="#808080" stop-opacity="0.12"/>
<stop offset="1" stop-color="#808080" stop-opacity="0.1"/>
</linearGradient>
<linearGradient id="paint5_linear" x1="11081.9" y1="2982.95" x2="11081.9" y2="2000.23" gradientUnits="userSpaceOnUse">
<stop stop-color="#808080" stop-opacity="0.25"/>
<stop offset="0.54" stop-color="#808080" stop-opacity="0.12"/>
<stop offset="1" stop-color="#808080" stop-opacity="0.1"/>
</linearGradient>
</defs>
</svg>
