<?xml version="1.0" standalone="no"?><!DOCTYPE svg PUBLIC "-//W3C//DTD SVG 1.1//EN" "http://www.w3.org/Graphics/SVG/1.1/DTD/svg11.dtd" ><svg xmlns="http://www.w3.org/2000/svg"><metadata></metadata><defs><font id="Roboto Light Italic" horiz-adv-x="2308"><font-face font-family="Roboto Light" font-weight="300" font-stretch="normal" units-per-em="2048" panose-1="2 0 0 0 0 0 0 0 0 0" ascent="1900" descent="-500" x-height="0" bbox="-1477 -555 2358 2163" underline-thickness="100" underline-position="-150" unicode-range="U+0000-fffd" /><missing-glyph horiz-adv-x="918" d="M808 0 l-708 0 l0 1456 l708 0 l0 -1456 ZM754 84 l0 1287 l-274 -643 l274 -644 ZM154 1359 l0 -1263 l268 632 l-268 631 ZM194 54 l515 0 l-258 606 l-257 -606 ZM451 796 l258 606 l-515 0 l257 -606 Z" /><glyph glyph-name="" unicode="!" d="M243 405 l-110 0 l176 1051 l124 0 l-190 -1051 ZM56 70 q2 34 28 58 q26 24 57 24 q35 1 57.5 -23 q22.5 -24 19.5 -59 q-2 -33 -27 -55.5 q-25 -22.5 -59 -23.5 q-34 -1 -56 21.5 q-22 22.5 -20 57.5 Z" /><glyph glyph-name="" unicode="&quot;" d="M361 1390 l-68 -307 l-81 0 l75 453 l97 0 l-23 -146 ZM590 1392 l-68 -309 l-82 0 l76 453 l97 0 l-23 -144 Z" /><glyph glyph-name="" unicode="#" d="M695 410 l-299 0 l-146 -410 l-102 0 l147 410 l-247 0 l17 93 l262 0 l157 441 l-270 0 l18 96 l286 0 l149 416 l102 0 l-150 -416 l300 0 l150 416 l102 0 l-149 -416 l221 0 l-17 -96 l-238 0 l-157 -441 l246 0 l-16 -93 l-263 0 l-147 -410 l-102 0 l146 410 ZM428 503 l300 0 l158 441 l-300 0 l-158 -441 Z" /><glyph glyph-name="" unicode="$" d="M837 366 q11 99 -46.5 172.5 q-57.5 73.5 -203.5 132 q-146 58.5 -216 115 q-70 56.5 -103.5 130.5 q-33.5 74 -25.5 172 q13 166 126 268.5 q113 102.5 290 119.5 l35 201 l102 0 l-35 -203 q154 -23 230 -139 q76 -116 60 -307 l-118 0 q14 153 -50 246 q-64 93 -191 96 q-134 2 -225.5 -76 q-91.5 -78 -105.5 -204 q-17 -161 129 -248 q38 -23 150 -69 q112 -46 172 -90 q162 -118 146 -314 q-13 -166 -129 -269 q-116 -103 -299 -118 l-33 -190 l-101 0 l33 190 q-116 11 -197 68.5 q-81 57.5 -118 153 q-37 95.5 -26 214.5 l119 0 q-13 -154 62.5 -243 q75.5 -89 216.5 -91 q140 -2 239.5 77 q99.5 79 112.5 205 Z" /><glyph glyph-name="" unicode="%" d="M206 1175 q15 132 103.5 219.5 q88.5 87.5 211.5 83.5 q115 -4 182.5 -89 q67.5 -85 58.5 -213 l-7 -67 q-15 -141 -103.5 -227.5 q-88.5 -86.5 -209.5 -82.5 q-113 2 -182.5 87.5 q-69.5 85.5 -60.5 212.5 l7 76 ZM296 1097 q-7 -95 34 -152.5 q41 -57.5 117 -59.5 q82 -2 139 57 q57 59 71 157 l8 78 q8 95 -33.5 153.5 q-41.5 58.5 -115.5 60.5 q-81 2 -140.5 -59.5 q-59.5 -61.5 -71.5 -163.5 l-8 -71 ZM775 356 q15 130 102 217 q87 87 212 85 q117 -4 184 -88.5 q67 -84.5 58 -212.5 l-7 -78 q-15 -132 -104.5 -218.5 q-89.5 -86.5 -209.5 -82.5 q-115 2 -183 88 q-68 86 -59 213 l7 77 ZM864 277 q-7 -94 33.5 -152.5 q40.5 -58.5 117.5 -60.5 q80 -2 138.5 56.5 q58.5 58.5 72.5 158.5 l8 79 q7 97 -32 154 q-39 57 -118 59 q-84 2 -142.5 -59.5 q-58.5 -61.5 -69.5 -162.5 l-8 -72 ZM350 122 l-73 53 l885 1131 l69 -48 l-881 -1136 Z" /><glyph glyph-name="" unicode="&amp;" d="M428 796 l-37 65 q-83 153 -72 276 q12 152 113 247 q101 95 252 93 q127 -4 203 -82.5 q76 -78.5 68 -195.5 q-13 -166 -229 -316 l-150 -104 l311 -461 q112 148 142 333 l108 0 q-33 -250 -186 -422 l152 -229 l-132 0 l-97 144 q-194 -168 -412 -164 q-180 2 -290.5 107 q-110.5 105 -97.5 276 q9 109 88 212 q79 103 266 221 ZM467 82 q172 -3 345 150 l-318 469 l-11 15 l-49 -35 l-52 -41 q-171 -140 -187 -277 q-17 -121 60.5 -200 q77.5 -79 211.5 -81 ZM438 1142 q-13 -119 86 -280 l180 130 q124 97 135 208 q8 75 -39.5 125 q-47.5 50 -123.5 50 q-96 2 -161.5 -65.5 q-65.5 -67.5 -76.5 -167.5 Z" /><glyph glyph-name="" unicode="&#39;" d="M344 1389 l-63 -299 l-91 0 l76 446 l101 0 l-23 -147 Z" /><glyph glyph-name="" unicode="(" d="M736 1633 l21 -82 q-160 -109 -278 -306 q-118 -197 -184.5 -472 q-66.5 -275 -61.5 -533 l2 -66 q22 -400 219 -566 l-35 -77 q-200 149 -268 466 q-41 193 -31 395 q11 261 96.5 523 q85.5 262 218 445 q132.5 183 301.5 273 Z" /><glyph glyph-name="" unicode=")" d="M495 577 q-59 -376 -215 -651 q-156 -275 -383 -397 l-21 78 q189 129 316 375.5 q127 246.5 183 589.5 l4 20 q24 169 22 329 q-5 231 -62 390.5 q-57 159.5 -159 243.5 l35 76 q156 -114 233.5 -344 q77.5 -230 65.5 -518 q-4 -94 -16 -176 l-3 -16 Z" /><glyph glyph-name="" unicode="*" d="M417 1003 l-303 108 l47 97 l303 -124 l61 372 l104 0 l-73 -369 l334 125 l15 -106 l-344 -115 l166 -296 l-89 -60 l-154 305 l-250 -301 l-78 66 l261 298 Z" /><glyph glyph-name="" unicode="+" d="M637 740 l430 0 l-20 -112 l-429 0 l-84 -482 l-120 0 l84 482 l-422 0 l20 112 l421 0 l81 466 l120 0 l-81 -466 Z" /><glyph glyph-name="" unicode="," d="M-17 -273 l-67 55 q115 132 137 264 l24 142 l116 0 l-22 -144 q-33 -188 -188 -317 Z" /><glyph glyph-name="" unicode="-" d="M512 592 l-467 0 l18 101 l467 0 l-18 -101 Z" /><glyph glyph-name="" unicode="." d="M48 72 q3 35 28.5 59.5 q25.5 24.5 60.5 25.5 q36 1 59 -24 q23 -25 20 -61 q-2 -35 -27.5 -57.5 q-25.5 -22.5 -60.5 -23.5 q-35 -1 -58.5 22 q-23.5 23 -21.5 59 Z" /><glyph glyph-name="" unicode="/" d="M13 -125 l-114 0 l865 1581 l113 0 l-864 -1581 Z" /><glyph glyph-name="" unicode="0" d="M459 -20 q-117 3 -198 62 q-81 59 -118 172.5 q-37 113.5 -33 253.5 l7 108 l43 284 q47 304 181 462.5 q134 158.5 351 153.5 q177 -4 265.5 -130.5 q88.5 -126.5 82.5 -353.5 q-2 -72 -11 -139 l-40 -258 q-53 -317 -188 -469.5 q-135 -152.5 -342 -145.5 ZM924 1084 q-21 284 -238 291 q-162 5 -265 -124.5 q-103 -129.5 -140 -375.5 l-44 -282 q-15 -121 -9 -215 q8 -143 69.5 -219 q61.5 -76 168.5 -79 q150 -7 252 113 q102 120 145 357 l48 307 q19 122 13 227 Z" /><glyph glyph-name="" unicode="1" d="M571 0 l-120 0 l228 1308 l-411 -146 l21 118 l508 181 l23 0 l-249 -1461 Z" /><glyph glyph-name="" unicode="2" d="M925 0 l-887 0 l15 97 l630 623 q199 201 218 362 q16 125 -50 207 q-66 82 -195 86 q-140 4 -241.5 -88.5 q-101.5 -92.5 -127.5 -249.5 l-115 -1 q24 195 159 319 q135 124 329 122 q181 -4 280.5 -111.5 q99.5 -107.5 82.5 -273.5 q-20 -197 -248 -427 l-572 -564 l739 0 l-17 -101 Z" /><glyph glyph-name="" unicode="3" d="M427 793 l115 -2 q151 0 256.5 79 q105.5 79 120.5 213 q14 132 -53.5 210 q-67.5 78 -196.5 82 q-138 2 -233.5 -80 q-95.5 -82 -120.5 -220 l-116 -1 q22 179 155.5 292 q133.5 113 320.5 111 q179 -4 279 -114.5 q100 -110.5 84 -283.5 q-9 -108 -84.5 -196 q-75.5 -88 -208.5 -141 q110 -39 165.5 -129 q55.5 -90 45.5 -210 q-16 -191 -153 -309 q-137 -118 -335 -114 q-186 4 -298.5 119.5 q-112.5 115.5 -98.5 295.5 l118 0 q-12 -134 66.5 -222 q78.5 -88 218.5 -92 q150 -4 250 83.5 q100 87.5 114 234.5 q12 128 -60 204 q-72 76 -220 86 l-21 1 l-126 1 l16 102 Z" /><glyph glyph-name="" unicode="4" d="M825 469 l220 0 l-18 -101 l-219 0 l-65 -368 l-119 0 l64 368 l-661 0 l8 67 l827 1021 l134 0 l-171 -987 ZM190 469 l515 0 l144 820 l-62 -83 l-597 -737 Z" /><glyph glyph-name="" unicode="5" d="M233 748 l178 708 l711 0 l-18 -111 l-605 0 l-132 -492 q119 81 272 79 q179 -2 276 -132.5 q97 -130.5 79 -328.5 q-20 -223 -151 -359.5 q-131 -136.5 -335 -132.5 q-177 4 -277.5 115.5 q-100.5 111.5 -100.5 289.5 l113 0 q2 -141 72 -220.5 q70 -79.5 199 -83.5 q152 -4 248 104 q96 108 112 286 q14 154 -56 251.5 q-70 97.5 -205 101.5 q-153 4 -284 -103 l-96 28 Z" /><glyph glyph-name="" unicode="6" d="M955 1468 l-12 -105 l-32 0 q-238 -5 -401 -153.5 q-163 -148.5 -240 -426.5 q152 177 373 173 q115 -2 197 -63.5 q82 -61.5 120 -170.5 q38 -109 25 -238 q-9 -102 -49.5 -197.5 q-40.5 -95.5 -105.5 -165.5 q-136 -146 -329 -142 q-166 5 -268.5 116.5 q-102.5 111.5 -117.5 289.5 q-9 92 24 289 q62 373 269.5 583.5 q207.5 210.5 530.5 210.5 l16 0 ZM618 853 q-118 2 -228.5 -67.5 q-110.5 -69.5 -140.5 -170.5 l-13 -104 q-13 -115 14 -212.5 q27 -97.5 92.5 -156.5 q65.5 -59 163.5 -61 q95 -2 172.5 49.5 q77.5 51.5 127 143.5 q49.5 92 62.5 206 q17 161 -50.5 265.5 q-67.5 104.5 -199.5 107.5 Z" /><glyph glyph-name="" unicode="7" d="M1127 1387 l-817 -1387 l-130 0 l812 1354 l-801 0 l16 102 l928 0 l-8 -69 Z" /><glyph glyph-name="" unicode="8" d="M1057 1090 q-11 -118 -86.5 -206.5 q-75.5 -88.5 -204.5 -140.5 q106 -49 160 -141 q54 -92 46 -207 q-15 -187 -157 -303 q-142 -116 -350 -112 q-188 4 -298 112 q-110 108 -95 286 q11 127 96 223.5 q85 96.5 232 149.5 q-90 48 -134 133 q-44 85 -36 188 q13 180 144.5 294 q131.5 114 322.5 110 q172 -4 273 -110.5 q101 -106.5 87 -275.5 ZM853 394 q14 129 -65.5 214 q-79.5 85 -212.5 89 q-154 2 -261.5 -90 q-107.5 -92 -122.5 -231 q-15 -131 63.5 -212.5 q78.5 -81.5 215.5 -83.5 q152 -4 260 83.5 q108 87.5 123 230.5 ZM937 1091 q12 117 -57.5 198.5 q-69.5 81.5 -189.5 85.5 q-138 2 -233 -84 q-95 -86 -109 -218 q-12 -118 57.5 -196 q69.5 -78 189.5 -80 q133 -4 231.5 80.5 q98.5 84.5 110.5 213.5 Z" /><glyph glyph-name="" unicode="9" d="M879 673 q-76 -95 -175 -147.5 q-99 -52.5 -204 -48.5 q-114 2 -196 67 q-82 65 -119.5 174.5 q-37.5 109.5 -25.5 239.5 q15 145 83.5 266.5 q68.5 121.5 175.5 188 q107 66.5 236 64.5 q172 -4 270.5 -120 q98.5 -116 104.5 -325 q3 -112 -28 -297 q-61 -360 -255.5 -551 q-194.5 -191 -494.5 -196 l-49 0 l12 104 l40 0 q246 4 400.5 147.5 q154.5 143.5 224.5 433.5 ZM520 580 q114 -4 216 65.5 q102 69.5 162 191.5 q14 122 14 171 q0 171 -67.5 266.5 q-67.5 95.5 -194.5 99.5 q-97 2 -176.5 -51.5 q-79.5 -53.5 -132 -150.5 q-52.5 -97 -64.5 -209 q-11 -101 14.5 -189.5 q25.5 -88.5 84 -140 q58.5 -51.5 144.5 -53.5 Z" /><glyph glyph-name="" unicode="&lt;" d="M212 652 l624 -300 l-22 -121 l-739 381 l17 96 l872 379 l-24 -133 l-728 -302 Z" /><glyph glyph-name="" unicode="=" d="M995 829 l-812 0 l19 106 l812 0 l-19 -106 ZM923 418 l-811 0 l19 106 l811 0 l-19 -106 Z" /><glyph glyph-name="" unicode="&gt;" d="M820 662 l-638 303 l21 118 l757 -379 l-17 -97 l-889 -380 l23 131 l743 304 Z" /><glyph glyph-name="" unicode="?" d="M339 402 q13 110 61 195 q48 85 147 169 q99 84 139.5 131.5 q40.5 47.5 66 99 q25.5 51.5 31.5 113.5 q13 113 -38.5 185 q-51.5 72 -158.5 76 q-115 2 -194.5 -65.5 q-79.5 -67.5 -105.5 -189.5 l-115 -1 q24 166 141 266 q117 100 283 96 q153 -4 238.5 -104 q85.5 -100 70.5 -262 q-18 -187 -206 -356 l-113 -95 q-106 -95 -137 -256 l-110 -2 ZM256 70 q3 34 27 57.5 q24 23.5 59 24.5 q35 1 57 -23 q22 -24 20 -59 q-3 -33 -28 -55.5 q-25 -22.5 -58 -23.5 q-35 -1 -57 21.5 q-22 22.5 -20 57.5 Z" /><glyph glyph-name="" unicode="@" d="M1229 -20 q-86 2 -142.5 52.5 q-56.5 50.5 -62.5 140.5 q-81 -109 -157.5 -153 q-76.5 -44 -158.5 -41 q-92 3 -145 67 q-53 64 -59 189 q-11 173 65 364 q76 191 194 291.5 q118 100.5 260 98.5 q77 -2 135.5 -30 q58.5 -28 115.5 -77 l-135 -574 l-8 -77 q-5 -73 25 -118 q30 -45 91 -48 q106 -4 186 78 q80 82 128.5 237 q48.5 155 55.5 342 q6 186 -53.5 323.5 q-59.5 137.5 -181 208 q-121.5 70.5 -300.5 73.5 q-240 4 -443 -134.5 q-203 -138.5 -330.5 -390.5 q-127.5 -252 -133.5 -528 q-6 -186 56 -334 q62 -148 183 -224.5 q121 -76.5 289 -77.5 q167 -4 337 78 l23 -82 q-151 -89 -365 -87 q-191 1 -332 84.5 q-141 83.5 -216.5 244.5 q-75.5 161 -75.5 370 q0 223 79 443.5 q79 220.5 222 390 q143 169.5 326.5 256.5 q183.5 87 386.5 84 q196 -3 335.5 -83 q139.5 -80 212.5 -235 q73 -155 73 -357 q0 -214 -63.5 -395 q-63.5 -181 -171.5 -277.5 q-108 -96.5 -245 -92.5 ZM609 285 q-5 -96 28.5 -151.5 q33.5 -55.5 99.5 -58.5 q93 -5 178.5 69 q85.5 74 124.5 186 l130 520 q-60 45 -142 49 q-158 5 -268.5 -149 q-110.5 -154 -144.5 -393 l-6 -72 Z" /><glyph glyph-name="" unicode="A" d="M909 408 l-638 0 l-217 -408 l-133 0 l787 1456 l117 0 l281 -1456 l-121 0 l-76 408 ZM326 513 l563 0 l-144 789 l-419 -789 Z" /><glyph glyph-name="" unicode="B" d="M73 0 l253 1456 l410 -1 q209 -5 315 -103 q106 -98 90 -270 q-11 -114 -83 -198.5 q-72 -84.5 -195 -128.5 q104 -32 162 -124.5 q58 -92.5 49 -212.5 q-15 -190 -153.5 -304 q-138.5 -114 -361.5 -114 l-486 0 ZM317 700 l-104 -596 l350 -1 q158 0 265.5 83 q107.5 83 124.5 230 q13 127 -57.5 203 q-70.5 76 -205.5 80 l-373 1 ZM334 803 l319 -1 q156 2 253.5 79 q97.5 77 111.5 206 q25 253 -285 263 l-303 1 l-96 -548 Z" /><glyph glyph-name="" unicode="C" d="M1150 454 q-51 -225 -207 -352.5 q-156 -127.5 -381 -121.5 q-195 4 -310.5 138.5 q-115.5 134.5 -124.5 362.5 q-3 78 7 155 l27 176 q31 201 124.5 356 q93.5 155 227.5 233 q134 78 295 75 q208 -4 325 -132 q117 -128 115 -345 l-121 1 q0 175 -84 271.5 q-84 96.5 -241 100.5 q-198 5 -337.5 -147.5 q-139.5 -152.5 -181.5 -421.5 l-30 -200 l-4 -90 q-2 -118 34.5 -219 q36.5 -101 109.5 -154 q73 -53 175 -56 q174 -6 291 87.5 q117 93.5 172 281.5 l119 1 Z" /><glyph glyph-name="" unicode="D" d="M73 0 l253 1456 l379 -1 q169 0 293 -86.5 q124 -86.5 179.5 -239 q55.5 -152.5 32.5 -335.5 l-18 -121 q-46 -303 -242 -488 q-196 -185 -481 -185 l-396 0 ZM430 1351 l-217 -1247 l260 -1 q153 0 279 70 q126 70 208.5 197.5 q82.5 127.5 108 288 q25.5 160.5 27 221.5 q1.5 61 -6.5 118 q-23 160 -122 254 q-99 94 -256 98 l-281 1 Z" /><glyph glyph-name="" unicode="E" d="M977 698 l-660 0 l-104 -594 l760 0 l-18 -104 l-882 0 l253 1456 l877 0 l-19 -105 l-754 0 l-96 -549 l661 0 l-18 -104 Z" /><glyph glyph-name="" unicode="F" d="M972 680 l-658 0 l-119 -680 l-122 0 l253 1456 l878 0 l-19 -105 l-755 0 l-99 -566 l660 0 l-19 -105 Z" /><glyph glyph-name="" unicode="G" d="M1131 173 q-74 -95 -212.5 -145.5 q-138.5 -50.5 -308.5 -47.5 q-203 2 -329 139 q-126 137 -138 365 q-5 82 6 160 l25 166 q47 306 221.5 488.5 q174.5 182.5 433.5 177.5 q200 -4 320 -119 q120 -115 126 -312 l-120 0 q-7 152 -92 237 q-85 85 -239 89 q-204 5 -345.5 -147 q-141.5 -152 -182.5 -418 l-24 -156 q-10 -65 -8 -134 q3 -198 96 -313.5 q93 -115.5 254 -117.5 q257 -5 395 126 l66 376 l-379 0 l18 104 l501 0 l-84 -518 Z" /><glyph glyph-name="" unicode="H" d="M1122 0 l-123 0 l122 698 l-804 0 l-122 -698 l-122 0 l253 1456 l122 0 l-114 -654 l804 0 l114 654 l124 0 l-254 -1456 Z" /><glyph glyph-name="" unicode="I" d="M221 0 l-122 0 l253 1456 l122 0 l-253 -1456 Z" /><glyph glyph-name="" unicode="J" d="M959 1456 l123 0 l-175 -1023 q-29 -203 -163 -330.5 q-134 -127.5 -334 -123.5 q-188 4 -286 116.5 q-98 112.5 -80 305.5 l122 0 q-15 -146 51 -230 q66 -84 201 -88 q139 -4 239 91 q100 95 127 257 l175 1025 Z" /><glyph glyph-name="" unicode="K" d="M523 721 l-238 -205 l-90 -516 l-122 0 l253 1456 l122 0 l-135 -776 l233 210 l618 566 l163 0 l-711 -654 l494 -802 l-138 0 l-449 721 Z" /><glyph glyph-name="" unicode="L" d="M214 104 l698 0 l-18 -104 l-821 0 l253 1456 l123 0 l-235 -1352 Z" /><glyph glyph-name="" unicode="M" d="M484 1456 l297 -1282 l744 1282 l165 0 l-253 -1456 l-122 0 l111 639 l119 630 l-741 -1269 l-94 0 l-302 1279 l-103 -646 l-110 -633 l-122 0 l253 1456 l158 0 Z" /><glyph glyph-name="" unicode="N" d="M1128 0 l-118 0 l-597 1248 l-217 -1248 l-123 0 l253 1456 l118 0 l598 -1249 l217 1249 l121 0 l-252 -1456 Z" /><glyph glyph-name="" unicode="O" d="M577 -20 q-204 4 -323.5 141.5 q-119.5 137.5 -129.5 367.5 q-4 80 7 159 l20 138 q45 305 220 498 q179 197 442 192 q134 -3 234.5 -65.5 q100.5 -62.5 156.5 -182 q56 -119.5 61 -262.5 q3 -86 -9 -168 l-23 -154 q-35 -206 -129.5 -360 q-94.5 -154 -229.5 -230.5 q-135 -76.5 -297 -73.5 ZM1136 809 q8 63 9 128 q0 122 -38 222 q-38 100 -114.5 153.5 q-76.5 53.5 -185.5 56.5 q-200 5 -341 -143.5 q-141 -148.5 -186 -401.5 q-36 -205 -35 -303 q0 -202 88.5 -316 q88.5 -114 249.5 -118 q213 -5 352.5 154 q139.5 159 178.5 420 l22 148 Z" /><glyph glyph-name="" unicode="P" d="M298 593 l-103 -593 l-122 0 l253 1456 l474 -1 q204 -6 315 -120.5 q111 -114.5 94 -306.5 q-20 -204 -165 -320 q-145 -116 -378 -116 l-368 1 ZM316 697 l355 -1 q173 0 285 88 q112 88 131 243 q16 148 -63.5 233.5 q-79.5 85.5 -226.5 89.5 l-367 1 l-114 -654 Z" /><glyph glyph-name="" unicode="Q" d="M851 50 l216 -233 l-91 -71 l-242 256 q-86 -21 -164 -21 q-133 1 -233 64 q-100 63 -155.5 181.5 q-55.5 118.5 -61.5 264.5 q-4 82 7 158 l22 149 q30 201 125 361 q95 160 232 240 q137 80 302 77 q204 -4 324 -141 q120 -137 129 -369 q3 -86 -9 -168 l-26 -172 q-75 -415 -375 -576 ZM1132 808 q8 63 9 129 q0 123 -39 224 q-39 101 -115.5 153 q-76.5 52 -184.5 55 q-202 5 -342.5 -145.5 q-140.5 -150.5 -184.5 -405.5 q-35 -205 -35 -297 q0 -197 87.5 -313.5 q87.5 -116.5 250.5 -120.5 q212 -5 352 152 q140 157 180 424 l22 145 Z" /><glyph glyph-name="" unicode="R" d="M710 606 l-411 0 l-106 -606 l-123 0 l253 1456 l431 -1 q218 0 336 -113.5 q118 -113.5 99 -306.5 q-15 -146 -109.5 -252 q-94.5 -106 -251.5 -154 l248 -615 l-1 -14 l-130 0 l-235 606 ZM317 711 l360 -1 q154 0 263.5 90.5 q109.5 90.5 126.5 235.5 q17 140 -62 225 q-79 85 -233 89 l-344 1 l-111 -640 Z" /><glyph glyph-name="" unicode="S" d="M936 365 q23 188 -201 276 l-191 69 l-62 25 q-284 121 -263 357 q9 116 82 204 q73 88 192.5 135.5 q119.5 47.5 253.5 44.5 q129 -3 230.5 -59.5 q101.5 -56.5 152 -154.5 q50.5 -98 39.5 -221 l-123 0 q14 148 -69.5 237 q-83.5 89 -235.5 93 q-158 2 -270.5 -72.5 q-112.5 -74.5 -128.5 -203.5 q-13 -103 60.5 -175.5 q73.5 -72.5 255.5 -126.5 q232 -74 322.5 -177 q90.5 -103 78.5 -248 q-11 -120 -84 -208.5 q-73 -88.5 -195 -135.5 q-122 -47 -262 -44 q-139 1 -250.5 57 q-111.5 56 -167 153.5 q-55.5 97.5 -44.5 225.5 l122 0 q-15 -152 81.5 -241.5 q96.5 -89.5 264.5 -91.5 q168 -2 282.5 76 q114.5 78 129.5 206 Z" /><glyph glyph-name="" unicode="T" d="M1268 1351 l-483 0 l-235 -1351 l-122 0 l235 1351 l-484 0 l19 105 l1089 0 l-19 -105 Z" /><glyph glyph-name="" unicode="U" d="M1306 1456 l-169 -985 q-36 -230 -193 -363 q-157 -133 -382 -129 q-141 3 -243.5 65 q-102.5 62 -149 174 q-46.5 112 -29.5 251 l169 987 l121 0 l-168 -988 q-21 -169 62 -273.5 q83 -104.5 244 -110.5 q168 -6 289 93 q121 99 154 275 l172 1004 l123 0 Z" /><glyph glyph-name="" unicode="V" d="M536 180 l2 -31 l14 31 l644 1276 l138 0 l-754 -1456 l-117 0 l-297 1456 l123 0 l247 -1276 Z" /><glyph glyph-name="" unicode="W" d="M408 389 l7 -215 l87 213 l472 1069 l110 0 l136 -1079 l17 -206 l82 226 l420 1059 l128 0 l-590 -1456 l-117 0 l-143 1144 l-11 134 l-56 -139 l-506 -1139 l-117 0 l-134 1456 l122 0 l93 -1067 Z" /><glyph glyph-name="" unicode="X" d="M642 842 l493 614 l152 0 l-584 -724 l364 -732 l-138 0 l-311 634 l-512 -634 l-151 0 l603 744 l-354 712 l138 0 l300 -614 Z" /><glyph glyph-name="" unicode="Y" d="M600 664 l568 792 l148 0 l-673 -914 l-94 -542 l-122 0 l97 555 l-350 901 l137 0 l289 -792 Z" /><glyph glyph-name="" unicode="Z" d="M151 104 l869 0 l-19 -104 l-1019 0 l17 99 l1052 1252 l-810 0 l19 105 l963 0 l-16 -94 l-1056 -1258 Z" /><glyph glyph-name="" unicode="[" d="M630 1562 l-204 0 l-276 -1772 l204 0 l-17 -102 l-323 0 l309 1976 l323 0 l-16 -102 Z" /><glyph glyph-name="" unicode="\" d="M197 1456 l110 0 l316 -1581 l-111 0 l-315 1581 Z" /><glyph glyph-name="" unicode="]" d="M165 1664 l324 0 l-309 -1976 l-324 0 l17 102 l204 0 l277 1772 l-205 0 l16 102 Z" /><glyph glyph-name="" unicode="^" d="M532 1294 l-319 -565 l-120 0 l416 727 l90 0 l163 -727 l-109 0 l-121 565 Z" /><glyph glyph-name="" unicode="_" d="M736 -101 l-858 0 l18 101 l858 0 l-18 -101 Z" /><glyph glyph-name="" unicode="`" d="M525 1256 l-100 0 l-176 280 l134 0 l142 -280 Z" /><glyph glyph-name="" unicode="a" d="M719 0 q-5 38 -3 76 l9 75 q-75 -81 -171.5 -127 q-96.5 -46 -208.5 -44 q-137 2 -222.5 86.5 q-85.5 84.5 -76.5 212.5 q8 107 73.5 185.5 q65.5 78.5 186.5 122 q121 43.5 271 43.5 l221 -1 l18 124 q12 111 -48 178 q-60 67 -177 71 q-118 2 -205.5 -58.5 q-87.5 -60.5 -109.5 -159.5 l-117 0 q20 142 146 231.5 q126 89.5 298 87.5 q167 -4 257.5 -101 q90.5 -97 73.5 -252 l-90 -544 l-8 -87 q-3 -54 8 -107 l-2 -12 l-123 0 ZM365 85 q110 -4 210.5 52.5 q100.5 56.5 166.5 160.5 l41 239 l-191 1 q-182 0 -297 -64.5 q-115 -64.5 -127 -184.5 q-9 -88 46.5 -145 q55.5 -57 150.5 -59 Z" /><glyph glyph-name="" unicode="b" d="M986 536 q-35 -258 -164.5 -410 q-129.5 -152 -320.5 -147 q-106 2 -186.5 47 q-80.5 45 -123.5 122 l-34 -148 l-112 0 l267 1536 l118 0 l-113 -611 q139 183 351 177 q155 -4 239 -115 q84 -111 87 -307 q1 -64 -6 -123 l-2 -21 ZM869 559 l7 95 q3 163 -57 252 q-60 89 -179 93 q-219 4 -343 -222 l-82 -490 q29 -97 99.5 -149.5 q70.5 -52.5 171.5 -55.5 q149 -3 249.5 115.5 q100.5 118.5 133.5 361.5 Z" /><glyph glyph-name="" unicode="c" d="M465 80 q118 -4 208.5 65.5 q90.5 69.5 120.5 187.5 l113 0 q-30 -161 -157.5 -259.5 q-127.5 -98.5 -290.5 -94.5 q-131 3 -220 72 q-89 69 -128.5 191 q-39.5 122 -25.5 275 l4 43 q12 105 51.5 204 q39.5 99 105.5 175.5 q66 76.5 157.5 121 q91.5 44.5 206.5 41.5 q166 -4 264 -112 q98 -108 92 -274 l-113 1 q2 125 -65 202 q-67 77 -183 81 q-124 4 -219 -72 q-95 -76 -143 -215 q-48 -139 -45 -295 q3 -161 72 -247.5 q69 -86.5 195 -90.5 Z" /><glyph glyph-name="" unicode="d" d="M94 544 q23 170 93 301.5 q70 131.5 171.5 195.5 q101.5 64 227.5 61 q96 -2 175 -44.5 q79 -42.5 125 -128.5 l110 607 l118 0 l-267 -1536 l-111 0 l27 144 q-141 -170 -350 -164 q-151 4 -236.5 117.5 q-85.5 113.5 -89.5 305.5 q-2 62 5 120 l2 21 ZM214 524 q-8 -67 -6 -143 q4 -137 63.5 -215.5 q59.5 -78.5 169.5 -82.5 q111 -3 195 51 q84 54 142 144 l87 510 q-29 97 -95.5 152.5 q-66.5 55.5 -169.5 58.5 q-152 5 -253.5 -116.5 q-101.5 -121.5 -130.5 -337.5 l-2 -21 Z" /><glyph glyph-name="" unicode="e" d="M475 -20 q-130 2 -225 72.5 q-95 70.5 -139.5 192 q-44.5 121.5 -31.5 262.5 l3 34 q14 150 89 285.5 q75 135.5 190 207 q115 71.5 246 68.5 q121 -2 204.5 -66 q83.5 -64 121.5 -178 q38 -114 24 -252 l-8 -73 l-749 0 l-3 -24 q-15 -109 16 -208.5 q31 -99.5 101.5 -158 q70.5 -58.5 169.5 -60.5 q96 -3 173 37 q77 40 142 107 l70 -57 q-73 -94 -173.5 -142.5 q-100.5 -48.5 -220.5 -46.5 ZM601 1000 q-130 5 -233 -92 q-103 -97 -155 -273 l628 -1 l3 15 q18 142 -50 244.5 q-68 102.5 -193 106.5 Z" /><glyph glyph-name="" unicode="f" d="M129 0 l171 984 l-174 0 l18 98 l173 0 l21 147 q25 159 121.5 246 q96.5 87 240.5 85 q58 -2 131 -20 l-21 -99 q-56 15 -107 15 q-100 0 -165.5 -65 q-65.5 -65 -82.5 -181 l-19 -128 l251 0 l-18 -98 l-249 0 l-171 -984 l-120 0 Z" /><glyph glyph-name="" unicode="g" d="M585 1103 q97 -3 177 -46 q80 -43 126 -131 l37 156 l111 0 l-182 -1063 q-19 -136 -86 -240 q-67 -104 -171.5 -159.5 q-104.5 -55.5 -232.5 -51.5 q-102 2 -195 51 q-94 50 -151 139 l74 70 q103 -155 269 -159 q148 -4 247.5 89.5 q99.5 93.5 125.5 254.5 l26 126 q-144 -165 -347 -159 q-152 4 -236.5 116.5 q-84.5 112.5 -88.5 306.5 q-6 179 60 354 q66 175 179.5 262.5 q113.5 87.5 257.5 83.5 ZM213 523 l-6 -93 q-3 -164 57 -253.5 q60 -89.5 177 -93.5 q100 -4 187 47 q87 51 150 151 l85 505 q-27 97 -93.5 153.5 q-66.5 56.5 -170.5 59.5 q-153 5 -253.5 -118 q-100.5 -123 -132.5 -358 Z" /><glyph glyph-name="" unicode="h" d="M313 899 q156 207 368 203 q156 -4 227 -109 q71 -105 50 -289 l-118 -704 l-118 0 l118 706 q6 57 2 110 q-17 178 -194 183 q-105 2 -196 -62.5 q-91 -64.5 -160 -194.5 l-128 -742 l-118 0 l267 1536 l118 0 l-118 -637 Z" /><glyph glyph-name="" unicode="i" d="M179 0 l-120 0 l189 1082 l119 0 l-188 -1082 ZM281 1395 q5 65 86 82 q39 -7 55.5 -24.5 q16.5 -17.5 21.5 -57.5 q-10 -38 -29 -55.5 q-19 -17.5 -57 -25.5 q-81 12 -77 81 Z" /><glyph glyph-name="" unicode="j" d="M362 1082 l-206 -1211 q-20 -151 -105 -233 q-85 -82 -218 -78 q-43 1 -109 21 l14 99 q55 -15 88 -15 q175 -4 212 211 l206 1206 l118 0 ZM278 1395 q2 33 25.5 57 q23.5 24 58.5 25 q35 1 57 -23 q22 -24 20 -59 q-3 -34 -27.5 -57 q-24.5 -23 -58.5 -24 q-35 -1 -56.5 22.5 q-21.5 23.5 -18.5 58.5 Z" /><glyph glyph-name="" unicode="k" d="M396 543 l-160 -135 l-71 -408 l-119 0 l267 1536 l119 0 l-170 -974 l124 114 l471 406 l159 0 l-532 -461 l373 -621 l-132 0 l-329 543 Z" /><glyph glyph-name="" unicode="l" d="M179 0 l-120 0 l267 1536 l120 0 l-267 -1536 Z" /><glyph glyph-name="" unicode="m" d="M343 1082 l-34 -176 q146 200 367 196 q114 -2 189.5 -57 q75.5 -55 93.5 -153 q74 101 172.5 156.5 q98.5 55.5 214.5 53.5 q154 -3 228.5 -101.5 q74.5 -98.5 61.5 -272.5 l-2 -23 l-119 -705 l-119 0 l118 707 q6 59 1 112 q-20 177 -202 180 q-122 2 -224.5 -79.5 q-102.5 -81.5 -128.5 -203.5 l-124 -716 l-119 0 l120 716 q29 276 -203 283 q-115 2 -214 -72 q-99 -74 -133 -184 l-128 -743 l-119 0 l188 1082 l115 0 Z" /><glyph glyph-name="" unicode="n" d="M348 1082 l-36 -185 q72 100 166.5 153.5 q94.5 53.5 202.5 51.5 q156 -4 227 -109 q71 -105 50 -289 l-118 -704 l-118 0 l118 706 q6 57 2 110 q-17 178 -194 183 q-105 2 -196 -62.5 q-91 -64.5 -160 -194.5 l-128 -742 l-118 0 l188 1082 l114 0 Z" /><glyph glyph-name="" unicode="o" d="M75 551 q18 157 96 287.5 q78 130.5 194.5 198.5 q116.5 68 252.5 65 q134 -2 228.5 -73.5 q94.5 -71.5 138 -195 q43.5 -123.5 29.5 -273.5 l-2 -19 q-30 -256 -181.5 -411 q-151.5 -155 -363.5 -150 q-182 3 -291 134 q-109 131 -107 346 l3 57 l3 34 ZM191 517 q-13 -119 17.5 -219.5 q30.5 -100.5 97.5 -157.5 q67 -57 167 -60 q108 -2 197.5 55 q89.5 57 147.5 161 q58 104 75 230 l3 33 q18 193 -59.5 315.5 q-77.5 122.5 -224.5 125.5 q-160 5 -276.5 -123.5 q-116.5 -128.5 -142.5 -341.5 l-2 -18 Z" /><glyph glyph-name="" unicode="p" d="M500 -21 q-93 2 -175.5 39.5 q-82.5 37.5 -133.5 117.5 l-100 -552 l-118 0 l260 1498 l110 0 l-28 -153 q141 179 353 173 q152 -4 237 -113 q85 -109 88 -309 q1 -63 -6 -122 l-4 -28 q-25 -175 -94 -302 q-69 -127 -168 -189.5 q-99 -62.5 -221 -59.5 ZM868 558 l6 95 q3 160 -58 251 q-61 91 -181 95 q-105 2 -190.5 -51.5 q-85.5 -53.5 -144.5 -155.5 l-89 -521 q32 -92 101.5 -140 q69.5 -48 166.5 -51 q145 -5 245.5 108.5 q100.5 113.5 135.5 316.5 l8 53 Z" /><glyph glyph-name="" unicode="q" d="M95 545 q35 258 165.5 410 q130.5 152 326.5 147 q95 -2 174 -42.5 q79 -40.5 127 -124.5 l35 147 l112 0 l-260 -1498 l-119 0 l102 550 q-139 -160 -343 -154 q-152 4 -237.5 115.5 q-85.5 111.5 -89.5 306.5 q-2 62 5 121 l2 22 ZM214 524 l-7 -94 q-3 -164 56.5 -255 q59.5 -91 178.5 -95 q99 -4 184.5 45 q85.5 49 148.5 142 l91 532 q-31 92 -97.5 145 q-66.5 53 -166.5 56 q-156 5 -257 -121 q-101 -126 -129 -334 l-2 -21 Z" /><glyph glyph-name="" unicode="r" d="M707 981 q-39 8 -79 9 q-114 0 -209 -69.5 q-95 -69.5 -127 -176.5 l-128 -744 l-118 0 l188 1082 l117 0 l-36 -172 q59 96 142.5 146 q83.5 50 183.5 48 q35 0 82 -14 l-16 -109 Z" /><glyph glyph-name="" unicode="s" d="M730 282 q16 138 -168 200 l-172 51 q-237 80 -224 267 q7 135 124.5 219.5 q117.5 84.5 279.5 82.5 q159 -2 258 -89.5 q99 -87.5 92 -233.5 l-118 0 q6 97 -60.5 158 q-66.5 61 -176.5 63 q-114 0 -192 -53.5 q-78 -53.5 -88 -141.5 q-15 -129 158 -181 l125 -36 l67 -23 q226 -85 213 -277 q-8 -130 -112.5 -213.5 q-104.5 -83.5 -269.5 -93.5 l-41 -1 q-109 2 -197 42.5 q-88 40.5 -135 113.5 q-47 73 -41 168 l119 -1 q0 -102 69 -161 q69 -59 190 -61 q120 0 204 54.5 q84 54.5 96 146.5 Z" /><glyph glyph-name="" unicode="t" d="M465 1359 l-48 -277 l217 0 l-17 -98 l-217 0 l-120 -722 l-2 -62 q0 -109 100 -112 q31 -1 97 7 l-5 -98 q-59 -17 -120 -15 q-105 2 -153 73.5 q-48 71.5 -35 207.5 l119 721 l-194 0 l18 98 l192 0 l49 277 l119 0 Z" /><glyph glyph-name="" unicode="u" d="M764 136 q-129 -162 -356 -156 q-153 3 -228 110.5 q-75 107.5 -54 298.5 l116 693 l118 0 l-115 -696 q-6 -54 -1 -107 q7 -92 55 -142 q48 -50 132 -53 q120 -5 222 55.5 q102 60.5 132 158.5 l134 784 l120 0 l-188 -1082 l-116 0 l29 136 Z" /><glyph glyph-name="" unicode="v" d="M408 169 l462 913 l126 0 l-561 -1082 l-97 0 l-225 1082 l118 0 l177 -913 Z" /><glyph glyph-name="" unicode="w" d="M342 249 l0 -85 l39 93 l395 825 l102 0 l107 -827 l6 -102 l41 103 l358 826 l127 0 l-494 -1082 l-102 0 l-119 858 l-1 60 l-23 -61 l-414 -857 l-102 0 l-115 1082 l112 1 l83 -834 Z" /><glyph glyph-name="" unicode="x" d="M484 645 l351 437 l148 0 l-444 -537 l283 -545 l-132 0 l-226 456 l-370 -456 l-146 0 l462 557 l-271 525 l132 0 l213 -437 Z" /><glyph glyph-name="" unicode="y" d="M408 176 l463 906 l133 0 l-660 -1256 q-73 -146 -154.5 -207 q-81.5 -61 -181.5 -59 q-38 2 -96 16 l12 98 l60 -7 q168 -7 265 198 l76 151 l-209 1066 l125 0 l167 -906 Z" /><glyph glyph-name="" unicode="z" d="M147 101 l678 0 l-18 -101 l-828 0 l16 94 l786 885 l-613 0 l18 103 l767 0 l-17 -95 l-789 -886 Z" /><glyph glyph-name="" unicode="{" d="M476 -402 q-150 51 -219.5 170.5 q-69.5 119.5 -50.5 289.5 l31 227 q6 53 0 99 q-20 147 -179 158 l12 103 q230 9 268 254 l34 247 q54 349 398 453 l18 -80 q-256 -87 -299 -394 l-34 -241 q-36 -211 -227 -293 q117 -64 129 -217 q3 -45 -1 -90 l-31 -227 q-8 -62 -3 -120 q13 -194 184 -260 l-30 -79 Z" /><glyph glyph-name="" unicode="|" d="M136 -270 l-101 0 l270 1726 l101 0 l-270 -1726 Z" /><glyph glyph-name="" unicode="}" d="M-136 -325 q260 89 302 396 l32 233 q36 215 236 294 q-60 28 -95 83.5 q-35 55.5 -42 131.5 q-4 45 1 91 l30 229 q7 61 4 120 q-5 96 -50.5 164.5 q-45.5 68.5 -128.5 100.5 l32 77 q146 -52 214 -170 q68 -118 48 -293 l-30 -229 q-6 -53 0 -98 q20 -148 178 -156 l-11 -104 q-236 -10 -271 -270 l-31 -231 q-54 -347 -398 -450 l-20 81 Z" /><glyph glyph-name="" unicode="~" d="M1240 764 q-19 -155 -108 -250.5 q-89 -95.5 -218 -91.5 q-119 3 -233 105 l-90 86 q-76 68 -152 68 q-176 3 -217 -230 l-104 -2 q19 157 107.5 249.5 q88.5 92.5 218.5 90.5 q116 -3 228 -100 l95 -90 q75 -69 153 -71 q83 -2 141.5 58 q58.5 60 79.5 177 l99 1 Z" /><glyph glyph-name="" unicode="¡" d="M183 690 l111 0 l-176 -1049 l-123 0 l188 1049 ZM370 1022 q-2 -33 -26.5 -56.5 q-24.5 -23.5 -58.5 -24.5 q-35 -1 -57 22.5 q-22 23.5 -20 58.5 q3 34 27.5 57 q24.5 23 58.5 24 q35 1 57 -22.5 q22 -23.5 19 -58.5 Z" /><glyph glyph-name="" unicode="¢" d="M484 80 q120 -4 210 65 q90 69 123 188 l113 0 q-28 -144 -137.5 -238 q-109.5 -94 -268.5 -113 l-43 -227 l-120 0 l44 231 q-97 18 -158 71 q-117 102 -135 287 q-18 177 33.5 350.5 q51.5 173.5 169 278.5 q117.5 105 276.5 126 l42 219 l120 0 l-43 -221 q141 -25 216.5 -128.5 q75.5 -103.5 69.5 -252.5 l-113 1 q4 124 -62 201.5 q-66 77.5 -182 81.5 q-169 5 -279 -128.5 q-110 -133.5 -133 -372.5 l-3 -80 q0 -158 66.5 -246.5 q66.5 -88.5 193.5 -92.5 Z" /><glyph glyph-name="" unicode="£" d="M401 645 l-37 -269 q-24 -176 -112 -274 l725 2 l-18 -104 l-970 0 l18 103 l92 -1 q113 42 143 265 l37 278 l-182 0 l18 104 l179 0 l37 282 q27 207 153 328.5 q126 121.5 307 117.5 q164 -4 254.5 -111.5 q90.5 -107.5 73.5 -277.5 l-122 0 q13 123 -44.5 201.5 q-57.5 78.5 -176.5 82.5 q-126 3 -213.5 -89 q-87.5 -92 -109.5 -258 l-37 -276 l334 0 l-18 -104 l-331 0 Z" /><glyph glyph-name="" unicode="¤" d="M1023 131 q-192 -155 -403 -151 q-101 2 -193.5 40 q-92.5 38 -161.5 112 l-180 -158 l-73 92 l183 156 q-81 179 -54 379 q31 228 197 409 l-133 173 l93 82 l131 -169 q190 142 390 138 q97 -2 186.5 -37.5 q89.5 -35.5 158.5 -104.5 l197 173 l74 -94 l-197 -170 q86 -186 58 -387 q-27 -215 -185 -392 l130 -168 l-94 -82 l-124 159 ZM252 599 q-12 -92 7.5 -182 q19.5 -90 67 -161.5 q47.5 -71.5 123.5 -117.5 q76 -46 177 -49 q133 -4 255 67.5 q122 71.5 203 195.5 q81 124 100 264 q17 128 -26.5 246.5 q-43.5 118.5 -134.5 187.5 q-91 69 -213 73 q-130 4 -250 -63 q-120 -67 -205 -192.5 q-85 -125.5 -104 -268.5 Z" /><glyph glyph-name="" unicode="¥" d="M531 734 l479 722 l143 0 l-518 -751 l301 0 l-16 -89 l-347 0 l-36 -204 l348 0 l-16 -88 l-346 0 l-57 -324 l-123 0 l57 324 l-344 0 l16 88 l343 0 l36 204 l-344 0 l16 89 l307 0 l-256 751 l131 0 l226 -722 Z" /><glyph glyph-name="" unicode="¦" d="M2 -270 l134 771 l120 0 l-135 -771 l-119 0 ZM289 698 l-119 0 l132 758 l119 0 l-132 -758 Z" /><glyph glyph-name="" unicode="§" d="M1066 439 q-17 -199 -273 -284 q147 -100 131 -286 q-9 -114 -76.5 -196.5 q-67.5 -82.5 -182.5 -126.5 q-115 -44 -247 -41 q-208 2 -325 117.5 q-117 115.5 -100 313.5 l119 2 q-15 -148 69.5 -238.5 q84.5 -90.5 241.5 -92.5 q148 -5 256 66 q108 71 124 193 q10 88 -42 149.5 q-52 61.5 -177 104.5 l-162 53 l-80 31 q-258 109 -238 339 q17 199 264 286 q-140 101 -123 283 q9 112 78 195.5 q69 83.5 183.5 127.5 q114.5 44 246.5 41 q201 -4 308 -121 q107 -117 88 -310 l-118 0 q14 145 -63 235 q-77 90 -220 94 q-159 2 -263 -67.5 q-104 -69.5 -119 -191.5 q-22 -167 176 -244 l235 -80 q159 -57 229 -141.5 q70 -84.5 60 -210.5 ZM615 729 l-132 43 q-234 -39 -259 -226 q-13 -93 43 -158 q56 -65 221 -117 q165 -52 180 -58 q122 18 193.5 75.5 q71.5 57.5 83.5 146.5 q12 91 -49 157.5 q-61 66.5 -217 116.5 l-64 20 Z" /><glyph glyph-name="" unicode="¨" d="M256 1396 q2 34 28 58 q26 24 57 24 q35 1 57.5 -23 q22.5 -24 20.5 -59 q-2 -31 -27 -55.5 q-25 -24.5 -59 -24.5 q-34 0 -56.5 22.5 q-22.5 22.5 -20.5 57.5 ZM681 1395 q2 34 28 58 q26 24 57 24 q35 1 57.5 -23 q22.5 -24 19.5 -59 q-2 -33 -27 -56 q-25 -23 -58 -24 q-34 0 -56.5 22.5 q-22.5 22.5 -20.5 57.5 Z" /><glyph glyph-name="" unicode="©" d="M1101 607 q-19 -152 -109 -235.5 q-90 -83.5 -230 -79.5 q-142 4 -216.5 114 q-74.5 110 -60.5 274 l8 78 q20 188 122.5 298 q102.5 110 252.5 108 q137 -4 208.5 -87.5 q71.5 -83.5 60.5 -226.5 l-98 0 q18 221 -175 225 q-106 2 -179 -80.5 q-73 -82.5 -90 -217.5 l-10 -98 q-13 -129 35.5 -211.5 q48.5 -82.5 145.5 -85.5 q198 -7 240 224 l95 1 ZM219 562 q22 -217 160 -356 q138 -139 338 -141 q195 -4 368.5 113 q173.5 117 269.5 316 q96 199 75 402 q-16 142 -84.5 254.5 q-68.5 112.5 -175 174 q-106.5 61.5 -238.5 64.5 q-144 3 -279.5 -61 q-135.5 -64 -242 -187.5 q-106.5 -123.5 -157 -276.5 q-50.5 -153 -34.5 -302 ZM135 722 q22 197 135.5 374.5 q113.5 177.5 289.5 280.5 q176 103 373 99 q179 -2 321 -100.5 q142 -98.5 212 -274 q70 -175.5 47 -366.5 q-25 -206 -142.5 -384.5 q-117.5 -178.5 -291.5 -277 q-174 -98.5 -363 -94.5 q-184 4 -324 102.5 q-140 98.5 -210 274.5 q-70 176 -47 366 Z" /><glyph glyph-name="" unicode="ª" d="M657 703 q-6 48 -3 95 q-99 -108 -227 -108 q-103 0 -163.5 59 q-60.5 59 -54.5 151 q5 114 98 177.5 q93 63.5 253 63.5 l137 -1 l9 62 q4 35 0 67 q-14 108 -123 111 q-76 2 -131.5 -32 q-55.5 -34 -74.5 -110 l-104 6 q15 109 102 172 q87 63 214 61 q117 -4 177.5 -79.5 q60.5 -75.5 49.5 -197.5 l-49 -314 q-15 -93 -5 -182 l-105 -1 ZM450 784 q113 0 208 105 l30 169 l-126 1 q-107 0 -171 -40.5 q-64 -40.5 -72 -113.5 q-5 -59 30 -90 q35 -31 101 -31 Z" /><glyph glyph-name="" unicode="¬" d="M872 386 l-119 0 l50 284 l-672 0 l19 106 l790 0 l-68 -390 Z" /><glyph glyph-name="" unicode="®" d="M130 722 q25 207 140 382 q115 175 289.5 275.5 q174.5 100.5 368.5 96.5 q177 -2 319.5 -99.5 q142.5 -97.5 214 -273.5 q71.5 -176 48.5 -368 q-18 -151 -89 -292.5 q-71 -141.5 -183 -248 q-112 -106.5 -248.5 -162.5 q-136.5 -56 -278.5 -53 q-184 4 -324 102.5 q-140 98.5 -210 274.5 q-70 176 -47 366 ZM214 562 q22 -216 160 -355.5 q138 -139.5 338 -141.5 q143 -3 277.5 60 q134.5 63 241.5 187.5 q107 124.5 158.5 276.5 q51.5 152 35.5 307 q-14 138 -81.5 251.5 q-67.5 113.5 -176 176 q-108.5 62.5 -240.5 65.5 q-143 3 -279 -61 q-136 -64 -241 -185.5 q-105 -121.5 -157.5 -273.5 q-52.5 -152 -35.5 -307 ZM655 666 l-55 -345 l-98 0 l132 839 l244 -1 q133 -5 201.5 -66.5 q68.5 -61.5 61.5 -173.5 q-10 -132 -166 -208 q83 -42 92 -140 l-1 -62 q-10 -76 -9 -109 l2 -63 l-2 -16 l-98 0 q-5 36 -3 72 l6 72 l5 44 q7 75 -20.5 113.5 q-27.5 38.5 -104.5 42.5 l-187 1 ZM668 757 l171 -1 q82 2 140.5 44.5 q58.5 42.5 67.5 116.5 q20 151 -170 152 l-159 1 l-50 -313 Z" /><glyph glyph-name="" unicode="¯" d="M851 1343 l-604 0 l16 97 l603 0 l-15 -97 Z" /><glyph glyph-name="" unicode="°" d="M249 1217 q4 106 82.5 184 q78.5 78 179.5 76 q92 -2 153.5 -73 q61.5 -71 57.5 -169 q-4 -106 -80.5 -182 q-76.5 -76 -177.5 -74 q-96 2 -157.5 73 q-61.5 71 -57.5 165 ZM339 1219 q-6 -62 31 -105.5 q37 -43.5 96 -43.5 q67 0 114 47.5 q47 47.5 53 115.5 q6 61 -28.5 107 q-34.5 46 -96.5 46 q-64 0 -113 -47.5 q-49 -47.5 -56 -119.5 Z" /><glyph glyph-name="" unicode="±" d="M628 829 l380 0 l-17 -102 l-379 0 l-69 -438 l-110 0 l69 438 l-402 0 l16 102 l401 0 l69 438 l111 0 l-69 -438 ZM842 0 l-813 0 l16 101 l813 0 l-16 -101 Z" /><glyph glyph-name="" unicode="²" d="M659 665 l-556 0 l14 80 l371 321 q110 98 120 181 q8 64 -28.5 98.5 q-36.5 34.5 -98.5 34.5 q-81 1 -131 -43.5 q-50 -44.5 -67 -120.5 l-103 0 q16 116 100 184.5 q84 68.5 202 66.5 q112 -2 176.5 -62 q64.5 -60 57.5 -157 q-7 -115 -156 -244 l-63 -54 l-242 -198 l420 0 l-16 -87 Z" /><glyph glyph-name="" unicode="³" d="M345 1106 l76 0 q89 3 144 43 q52 38 58 99 q6 62 -33.5 96.5 q-39.5 34.5 -104.5 34.5 q-67 1 -117.5 -33 q-50.5 -34 -68.5 -99 l-104 -1 q15 103 96.5 163 q81.5 60 194.5 58 q112 -2 180.5 -60.5 q68.5 -58.5 61.5 -155.5 q-7 -118 -169 -186 q131 -44 125 -177 q-5 -107 -92 -171.5 q-87 -64.5 -212 -62.5 q-118 2 -190 64.5 q-72 62.5 -68 166.5 l103 0 q-3 -63 40 -103 q43 -40 120 -40 q82 0 135.5 40.5 q53.5 40.5 60.5 107.5 q13 129 -164 134 l-81 1 l9 81 Z" /><glyph glyph-name="" unicode="´" d="M447 1536 l151 -1 l-268 -278 l-112 -1 l229 280 Z" /><glyph glyph-name="" unicode="µ" d="M358 1082 l-105 -634 l-6 -80 l0 -47 q9 -234 192 -241 q122 -4 218.5 58.5 q96.5 62.5 126.5 172.5 l132 771 l119 0 l-188 -1082 l-108 0 l27 154 q-121 -178 -325 -174 q-176 5 -249 126 l-94 -522 l-118 0 l260 1498 l118 0 Z" /><glyph glyph-name="" unicode="¶" d="M566 0 l91 520 l-83 1 q-212 2 -324.5 129 q-112.5 127 -90.5 330 q23 215 175.5 346 q152.5 131 375.5 131 l228 -1 l-253 -1456 l-119 0 Z" /><glyph glyph-name="" unicode="·" d="M178 717 q2 35 27 59 q25 24 60 25 q37 0 59.5 -24 q22.5 -24 20.5 -60 q-3 -35 -28.5 -58.5 q-25.5 -23.5 -60.5 -24.5 q-36 -1 -58.5 23 q-22.5 24 -19.5 60 Z" /><glyph glyph-name="" unicode="¸" d="M131 0 l-22 -66 q141 -26 135 -162 q-5 -98 -89.5 -152 q-84.5 -54 -229.5 -57 l1 79 q96 3 153.5 36 q57.5 33 65.5 91 q9 79 -94 97 l-55 8 l45 126 l90 0 Z" /><glyph glyph-name="" unicode="¹" d="M462 665 l-105 0 l115 660 l-238 -69 l17 94 l328 105 l17 0 l-134 -790 Z" /><glyph glyph-name="" unicode="º" d="M585 1477 q135 -4 209 -100.5 q74 -96.5 61 -244.5 l-10 -99 q-19 -154 -117.5 -251 q-98.5 -97 -242.5 -93 q-135 4 -209 99.5 q-74 95.5 -63 244.5 l9 88 q17 163 118.5 261.5 q101.5 98.5 244.5 94.5 ZM323 1031 q-12 -111 33 -178 q45 -67 135 -69 q96 -4 163.5 66 q67.5 70 82.5 192 l11 91 q10 110 -35 177.5 q-45 67.5 -134 70.5 q-100 2 -166.5 -69.5 q-66.5 -71.5 -79.5 -188.5 l-10 -92 Z" /><glyph glyph-name="" unicode="¿" d="M554 688 q-15 -108 -56.5 -181.5 q-41.5 -73.5 -125.5 -147.5 q-84 -74 -105 -94 q-142 -134 -158 -282 q-13 -119 42 -189.5 q55 -70.5 164 -72.5 q110 -4 189 64 q79 68 106 194 l117 1 q-25 -170 -139 -269 q-114 -99 -281 -95 q-162 4 -248 107 q-86 103 -70 259 q18 192 209 367 l138 120 q79 78 103 218 l115 1 ZM632 1022 q-2 -34 -28 -58 q-26 -24 -57 -24 q-35 -1 -57 23 q-22 24 -20 59 q3 33 28 56 q25 23 58 24 q34 1 56.5 -22 q22.5 -23 19.5 -58 Z" /><glyph glyph-name="" unicode="Æ" d="M1666 0 l-795 0 l51 389 l-572 0 l-291 -389 l-152 0 l1108 1456 l844 0 l-18 -102 l-673 0 l-72 -545 l572 0 l-18 -102 l-568 0 l-80 -606 l682 0 l-18 -101 ZM434 502 l504 0 l109 818 l-613 -818 Z" /><glyph glyph-name="" unicode="×" d="M17 184 l411 366 l-273 350 l87 75 l270 -350 l394 349 l68 -86 l-394 -349 l285 -366 l-86 -74 l-284 364 l-410 -363 l-68 84 Z" /><glyph glyph-name="" unicode="Ø" d="M575 -21 q-178 4 -294 98 l-128 -159 l-112 0 l177 218 q-101 156 -98 380 q1 97 37 307 q36 210 144 372 q108 162 266 232 q116 52 246 49 q96 -2 185 -35.5 q89 -33.5 155 -104.5 l135 168 l111 0 l-192 -237 q48 -109 58 -227 q10 -119 -7 -234 l-22 -143 q-33 -214 -128.5 -371.5 q-95.5 -157.5 -231 -236 q-135.5 -78.5 -294.5 -76.5 l-7 0 ZM241 544 q-10 -183 50 -309 l790 1005 q-93 126 -273 130 q-207 5 -349 -151.5 q-142 -156.5 -184 -423.5 l-28 -181 l-6 -70 ZM1151 986 q0 88 -24 174 l-778 -992 q88 -77 233 -82 q132 -3 241 61 q109 64 186 196.5 q77 132.5 106 324.5 q29 192 32 233 q3 41 4 85 Z" /><glyph glyph-name="" unicode="Þ" d="M444 1456 l-53 -304 l305 -1 q123 -3 217.5 -54 q94.5 -51 140 -143 q45.5 -92 34.5 -209 q-12 -128 -81.5 -223.5 q-69.5 -95.5 -184.5 -147 q-115 -51.5 -254 -51.5 l-320 1 l-57 -324 l-119 0 l253 1456 l119 0 ZM374 1051 l-109 -626 l307 -1 q157 0 268 88.5 q111 88.5 128 231.5 q16 134 -60.5 218 q-76.5 84 -213.5 88 l-320 1 Z" /><glyph glyph-name="" unicode="ß" d="M160 0 l-119 0 l193 1127 q28 200 137 311 q109 111 274 106 q140 -4 221 -87 q81 -83 70 -211 q-4 -47 -19.5 -89 q-15.5 -42 -71 -134.5 q-55.5 -92.5 -69.5 -129 q-14 -36.5 -20 -79.5 q-8 -58 20.5 -112.5 q28.5 -54.5 102.5 -128 q74 -73.5 106.5 -133.5 q32.5 -60 27.5 -124 q-9 -149 -128 -245 q-119 -96 -282 -92 q-80 0 -161.5 21.5 q-81.5 21.5 -133.5 61.5 l46 99 q105 -80 239 -82 q117 -2 203.5 64.5 q86.5 66.5 99.5 171.5 q7 60 -22 115.5 q-29 55.5 -103.5 127.5 q-74.5 72 -106.5 132.5 q-32 60.5 -26 125.5 q5 49 23 92.5 q18 43.5 65.5 120.5 q47.5 77 66 119.5 q18.5 42.5 24.5 91.5 q10 83 -37 141.5 q-47 58.5 -133 62.5 q-118 5 -195 -77 q-77 -82 -100 -239 l-192 -1128 Z" /><glyph glyph-name="" unicode="æ" d="M1134 -19 q-122 2 -216 56 q-94 54 -137 149 q-81 -106 -197.5 -157.5 q-116.5 -51.5 -247.5 -48.5 q-148 2 -230 85.5 q-82 83.5 -73 219.5 q12 164 141 256 q129 92 336 92 l255 -1 l12 89 q14 130 -36 203 q-50 73 -158 77 q-123 2 -211.5 -60.5 q-88.5 -62.5 -111.5 -174.5 l-115 12 q20 149 144 239 q124 90 302 85 q119 -2 198.5 -59 q79.5 -57 100.5 -153 q165 216 387 212 q181 -4 273.5 -132.5 q92.5 -128.5 67.5 -331.5 l-15 -100 l-732 0 l-5 -30 q-11 -77 -3 -152 q12 -124 84.5 -197.5 q72.5 -73.5 191.5 -76.5 q169 -4 331 117 l39 -89 q-151 -133 -375 -129 ZM358 80 q87 -2 177.5 39 q90.5 41 161.5 116 l53 301 l-240 1 q-144 0 -244.5 -70 q-100.5 -70 -112.5 -186 q-9 -95 48 -148 q57 -53 157 -53 ZM1269 1001 q-128 3 -227.5 -88.5 q-99.5 -91.5 -157.5 -276.5 l615 0 q14 93 5 155 q-15 97 -76.5 152 q-61.5 55 -158.5 58 Z" /><glyph glyph-name="" unicode="ð" d="M912 1301 q137 -216 133 -501 q-3 -119 -27.5 -273 q-24.5 -154 -93 -278 q-68.5 -124 -165.5 -193 q-114 -81 -253 -77 q-123 4 -214 67.5 q-91 63.5 -135 173.5 q-44 110 -32 238 q14 146 81.5 263.5 q67.5 117.5 176.5 183 q109 65.5 242 61.5 q88 -2 168 -38 q80 -36 134 -107 q4 238 -120 418 l-244 -139 l-40 79 l221 125 q-110 104 -303 172 l49 101 q218 -73 362 -210 l211 121 l40 -79 l-191 -108 ZM916 686 q-32 84 -105.5 129 q-73.5 45 -171.5 47 q-158 4 -265.5 -107.5 q-107.5 -111.5 -128.5 -296.5 q-18 -154 57.5 -263 q75.5 -109 213.5 -113 q150 -5 253 125.5 q103 130.5 132 350.5 l9 68 l6 60 Z" /><glyph glyph-name="" unicode="÷" d="M1047 644 l-971 0 l21 116 l971 0 l-21 -116 ZM564 1088 q2 35 27 59 q25 24 60 25 q36 1 59.5 -23.5 q23.5 -24.5 20.5 -60.5 q-3 -35 -28.5 -58.5 q-25.5 -23.5 -60.5 -24.5 q-38 0 -60 24.5 q-22 24.5 -18 58.5 ZM426 291 q2 35 27 59 q25 24 60 25 q36 1 59.5 -23.5 q23.5 -24.5 20.5 -60.5 q-3 -35 -28.5 -58 q-25.5 -23 -60.5 -24 q-35 -1 -58 22.5 q-23 23.5 -20 59.5 Z" /><glyph glyph-name="" unicode="ø" d="M631 1104 q110 -4 202 -50 l107 160 l100 -1 l-139 -205 q114 -125 120 -328 q3 -205 -68 -364.5 q-71 -159.5 -203 -250 q-132 -90.5 -291 -87.5 q-98 1 -190 43 l-108 -161 l-100 1 l137 204 q-122 122 -129 331 q-6 196 65 360.5 q71 164.5 203.5 257.5 q132.5 93 293.5 90 ZM184 425 q-3 -163 73 -261 l518 796 q-71 42 -150 43 q-123 3 -223.5 -72.5 q-100.5 -75.5 -157.5 -210 q-57 -134.5 -60 -295.5 ZM905 649 q3 151 -65 255 l-516 -792 q65 -32 140 -34 q185 -4 310 157 q125 161 131 414 Z" /><glyph glyph-name="" unicode="þ" d="M504 -21 q-93 2 -175 39.5 q-82 37.5 -133 117.5 l-100 -552 l-119 0 l339 1952 l119 0 l-112 -604 q140 176 349 170 q156 -4 240 -116 q84 -112 86 -306 q0 -63 -6 -122 l-2 -16 q-36 -263 -165 -416 q-129 -152 -321 -147 ZM873 558 l6 95 q3 160 -57.5 251 q-60.5 91 -181.5 95 q-105 2 -190.5 -51.5 q-85.5 -53.5 -144.5 -155.5 l-89 -523 q32 -91 101.5 -139 q69.5 -48 166.5 -50 q151 -5 253 116 q102 121 136 362 Z" /><glyph glyph-name="" unicode="&#x111;" d="M1234 1257 l-169 0 l-218 -1257 l-111 0 l27 144 q-140 -169 -349 -163 q-150 4 -236 118 q-86 114 -90 308 q-2 62 4 120 l3 22 q31 238 156 394 q133 165 335 160 q96 -2 175.5 -45.5 q79.5 -43.5 124.5 -128.5 l61 328 l-310 0 l18 102 l309 0 l32 177 l118 0 l-31 -177 l169 0 l-18 -102 ZM212 523 l-6 -93 q-3 -164 57 -253.5 q60 -89.5 178 -93.5 q99 -4 185.5 45 q86.5 49 151.5 150 l87 510 q-29 97 -96 152 q-67 55 -170 58 q-152 5 -253.5 -118 q-101.5 -123 -133.5 -357 Z" /><glyph glyph-name="" unicode="&#x126;" d="M1294 1122 l141 0 l-17 -96 l-141 0 l-178 -1026 l-122 0 l122 698 l-805 0 l-121 -698 l-122 0 l178 1026 l-133 0 l17 96 l132 0 l59 334 l122 0 l-59 -334 l805 0 l58 334 l122 0 l-58 -334 ZM312 802 l804 0 l40 224 l-805 0 l-39 -224 Z" /><glyph glyph-name="" unicode="&#x131;" d="M177 0 l-120 0 l189 1082 l119 0 l-188 -1082 Z" /><glyph glyph-name="" unicode="&#x138;" d="M394 496 l-136 0 l-86 -496 l-120 0 l188 1082 l120 0 l-84 -480 l123 0 l513 480 l154 0 l-563 -533 l414 -549 l-139 0 l-384 496 Z" /><glyph glyph-name="" unicode="&#x141;" d="M334 820 l316 96 l-17 -94 l-315 -97 l-108 -621 l697 0 l-18 -104 l-820 0 l119 684 l-163 -49 l16 94 l163 50 l118 677 l123 0 l-111 -636 Z" /><glyph glyph-name="" unicode="&#x142;" d="M362 864 l187 69 l-18 -97 l-185 -69 l-133 -767 l-120 0 l125 718 l-187 -69 l17 97 l187 69 l125 721 l120 0 l-118 -672 Z" /><glyph glyph-name="" unicode="&#x14a;" d="M1370 1456 l-264 -1542 q-23 -168 -116 -262.5 q-93 -94.5 -236 -90.5 q-54 2 -116 21 l24 101 q55 -19 98 -19 q86 -2 145 62 q59 64 78 189 l13 85 l-586 1252 l-218 -1252 l-122 0 l253 1456 l118 0 l588 -1251 l218 1251 l123 0 Z" /><glyph glyph-name="" unicode="&#x14b;" d="M341 1082 l-29 -184 q64 95 154.5 151 q90.5 56 209.5 53 q127 -3 200 -76.5 q73 -73.5 86 -205.5 q7 -79 -3 -161 l-121 -748 q-23 -168 -114 -260.5 q-91 -92.5 -235 -90.5 q-56 2 -128 22 l26 102 q55 -17 108 -17 q85 -2 143 57.5 q58 59.5 78 173.5 l124 761 q7 60 5 120 q-11 215 -201 220 q-222 7 -345 -224 l-133 -775 l-119 0 l188 1082 l106 0 Z" /><glyph glyph-name="" unicode="&#x152;" d="M1651 0 l-812 0 l-238 -19 l-66 0 q-149 4 -253.5 83 q-104.5 79 -150 215.5 q-45.5 136.5 -23.5 296.5 l48 299 q45 280 214 442 q169 162 403 160 l80 -2 l223 -19 l823 0 l-18 -105 l-755 0 l-95 -549 l661 0 l-19 -104 l-660 0 l-103 -594 l760 0 l-19 -104 ZM540 83 q100 -3 243 11 l223 1267 q-118 16 -236 16 q-192 2 -325 -134.5 q-133 -136.5 -170 -373.5 l-46 -294 q-11 -87 -2 -173 q15 -145 97 -230 q82 -85 216 -89 Z" /><glyph glyph-name="" unicode="&#x153;" d="M635 1102 q137 -4 235 -77.5 q98 -73.5 133 -194.5 q85 134 196 204.5 q111 70.5 235 68.5 q183 -6 276 -136 q93 -130 69 -327 l-15 -102 l-738 0 q-16 -98 -7 -174 q14 -126 83 -202 q69 -76 179 -80 q187 -6 336 117 l43 -82 q-146 -140 -383 -136 q-124 2 -224 74.5 q-100 72.5 -136 191.5 q-83 -133 -199.5 -202.5 q-116.5 -69.5 -251.5 -65.5 q-133 4 -224.5 74.5 q-91.5 70.5 -132.5 194.5 q-41 124 -25 269 l2 18 q31 258 182.5 415 q151.5 157 366.5 152 ZM200 417 q3 -152 75 -242.5 q72 -90.5 198 -94.5 q131 -4 234.5 80.5 q103.5 84.5 156 238 q52.5 153.5 35.5 310.5 q-16 134 -86.5 211 q-70.5 77 -184.5 81 q-121 4 -219 -69 q-98 -73 -156 -212 q-58 -139 -53 -303 ZM1427 1001 q-129 3 -230.5 -93 q-101.5 -96 -156.5 -269 l620 0 l5 31 q18 141 -48.5 234 q-66.5 93 -189.5 97 Z" /><glyph glyph-name="" unicode="&#x17f;" d="M57 0 l206 1215 q22 162 115 254.5 q93 92.5 239 90.5 q50 -1 140 -22 l-27 -95 q-49 14 -104 16 q-100 0 -164 -67 q-64 -67 -79 -175 l-208 -1217 l-118 0 Z" /><glyph glyph-name="" unicode="&#x18f;" d="M613 -20 q-169 2 -288 84 q-119 82 -169 226.5 q-50 144.5 -25 323.5 l19 124 l1029 0 l13 68 q17 107 5 208 q-20 163 -121.5 257.5 q-101.5 94.5 -265.5 97.5 q-210 4 -421 -119 l-29 93 q84 65 199.5 99.5 q115.5 34.5 253.5 32.5 q177 -2 299.5 -88.5 q122.5 -86.5 175.5 -239.5 q53 -153 27 -342 l-21 -140 q-30 -187 -128.5 -351 q-98.5 -164 -241.5 -250.5 q-143 -86.5 -311 -83.5 ZM619 84 q131 -3 240 62.5 q109 65.5 189.5 195 q80.5 129.5 120.5 295.5 l-910 0 l-9 -54 q-16 -99 -1 -189 q24 -142 121.5 -224 q97.5 -82 248.5 -86 Z" /><glyph glyph-name="" unicode="&#x192;" d="M643 984 l-236 0 l-164 -1073 q-21 -168 -111 -260.5 q-90 -92.5 -230 -90.5 q-43 0 -113 20 l22 100 q46 -16 94 -18 q86 -2 144 65 q58 67 74 184 l165 1073 l-175 0 l15 98 l175 0 l16 127 q21 169 113.5 260.5 q92.5 91.5 236.5 89.5 q47 0 139 -21 l-25 -98 q-54 15 -108 15 q-95 0 -157.5 -63 q-62.5 -63 -78.5 -184 l-17 -126 l237 0 l-16 -98 Z" /><glyph glyph-name="" unicode="&#x1a0;" d="M583 -20 q-203 4 -322.5 141.5 q-119.5 137.5 -129.5 367.5 q-4 85 8 167 l21 141 q30 202 125 361.5 q95 159.5 232 240 q137 80.5 303 77.5 q118 -2 218.5 -51.5 q100.5 -49.5 166.5 -148.5 q111 10 173 77 q62 67 86 211 l107 1 q-23 -173 -102.5 -263.5 q-79.5 -90.5 -219.5 -113.5 q23 -95 27 -190 q3 -104 -12 -199 l-22 -137 q-51 -316 -226 -501.5 q-175 -185.5 -433 -180.5 ZM1152 937 q0 200 -88.5 313.5 q-88.5 113.5 -250.5 117.5 q-132 3 -241.5 -62.5 q-109.5 -65.5 -186 -198.5 q-76.5 -133 -103 -308.5 q-26.5 -175.5 -29 -208 q-2.5 -32.5 -2.5 -69.5 q0 -124 39 -224.5 q39 -100.5 115.5 -153.5 q76.5 -53 184.5 -56 q204 -5 342.5 142.5 q138.5 147.5 183.5 401.5 q36 205 36 306 Z" /><glyph glyph-name="" unicode="&#x1a1;" d="M635 1102 q198 -4 316 -146 q92 12 139 64.5 q47 52.5 67 176.5 l100 1 q-18 -145 -81.5 -221.5 q-63.5 -76.5 -177.5 -99.5 q24 -78 29 -157 q10 -207 -60 -379.5 q-70 -172.5 -203.5 -269 q-133.5 -96.5 -297.5 -92.5 q-134 4 -226.5 74 q-92.5 70 -134.5 194.5 q-42 124.5 -26 269.5 l2 18 q31 256 185 414 q154 158 369 153 ZM197 516 q-20 -190 53.5 -310.5 q73.5 -120.5 222.5 -125.5 q130 -4 236 81.5 q106 85.5 158.5 238 q52.5 152.5 34.5 310.5 q-15 131 -87.5 209 q-72.5 78 -187.5 82 q-166 5 -285 -129 q-119 -134 -145 -356 Z" /><glyph glyph-name="" unicode="&#x1af;" d="M1306 1456 l-36 -214 q114 12 177 78.5 q63 66.5 88 222.5 l102 1 q-27 -196 -119 -289 q-92 -93 -262 -104 l-119 -682 q-34 -226 -191.5 -360.5 q-157.5 -134.5 -384.5 -128.5 q-140 3 -242.5 64 q-102.5 61 -149 172 q-46.5 111 -29.5 253 l169 987 l121 0 l-168 -988 q-21 -170 62 -274.5 q83 -104.5 245 -110.5 q177 -4 297.5 101.5 q120.5 105.5 147.5 284.5 l169 987 l123 0 Z" /><glyph glyph-name="" unicode="&#x1b0;" d="M1315 1179 q-19 -153 -91 -228.5 q-72 -75.5 -220 -85.5 l-153 -865 l-116 0 l29 136 q-130 -162 -355 -156 q-154 3 -229 110.5 q-75 107.5 -54 298.5 l116 693 l118 0 l-116 -696 q-6 -55 -1 -108 q7 -90 55 -141 q48 -51 134 -54 q116 -4 218.5 55 q102.5 59 133.5 160 l135 784 l120 0 l-26 -135 q91 8 138 54.5 q47 46.5 70 176.5 l94 1 Z" /><glyph glyph-name="" unicode="&#x237;" d="M375 1082 l-199 -1171 q-24 -171 -115.5 -262.5 q-91.5 -91.5 -229.5 -89.5 q-54 2 -114 21 l21 100 q49 -17 97 -19 q84 -2 142.5 60.5 q58.5 62.5 79.5 188.5 l199 1172 l119 0 Z" /><glyph glyph-name="" unicode="&#x259;" d="M578 1101 q128 -4 218.5 -74 q90.5 -70 132 -191.5 q41.5 -121.5 26.5 -263.5 l-4 -31 q-32 -250 -181 -408 q-149 -158 -347 -153 q-182 6 -276.5 134 q-94.5 128 -70.5 327 l15 102 l740 0 l5 30 q10 70 2 145 q-16 128 -85 203 q-69 75 -179 79 q-186 6 -335 -119 l-42 84 q146 140 381 136 ZM430 80 q127 -3 227.5 91 q100.5 94 157.5 270 l-619 0 l-5 -30 q-20 -139 47.5 -233 q67.5 -94 191.5 -98 Z" /><glyph glyph-name="" unicode="&#x2c6;" d="M812 1269 l-1 -12 l-108 1 l-129 181 l-194 -180 l-110 -1 l1 14 l270 254 l73 0 l198 -257 Z" /><glyph glyph-name="" unicode="&#x2c7;" d="M530 1328 l202 191 l107 1 l-1 -13 l-268 -260 l-86 0 l-190 261 l1 13 l105 -1 l130 -192 Z" /><glyph glyph-name="" unicode="&#x2d8;" d="M834 1491 q-14 -122 -98 -192 q-84 -70 -205 -66 q-118 2 -189 72.5 q-71 70.5 -65 185.5 l101 -1 q-5 -79 34.5 -124.5 q39.5 -45.5 120.5 -47.5 q85 -1 137 45 q52 46 67 126 l97 2 Z" /><glyph glyph-name="" unicode="&#x2d9;" d="M278 1382 q3 33 27 57 q24 24 58 25 q35 1 57.5 -23 q22.5 -24 19.5 -59 q-2 -34 -27 -56.5 q-25 -22.5 -58 -23.5 q-35 -1 -57 22 q-22 23 -20 58 Z" /><glyph glyph-name="" unicode="&#x2da;" d="M252 1387 q2 83 61.5 141 q59.5 58 138.5 58 q75 0 126.5 -53.5 q51.5 -53.5 49.5 -129.5 q-2 -80 -60.5 -138 q-58.5 -58 -140.5 -58 q-75 0 -126 51.5 q-51 51.5 -49 128.5 ZM329 1389 q-4 -46 22 -78 q26 -32 72 -32 q48 0 85 34.5 q37 34.5 44 87.5 q4 48 -23.5 80.5 q-27.5 32.5 -72.5 32.5 q-47 0 -85 -37 q-38 -37 -42 -88 Z" /><glyph glyph-name="" unicode="&#x2db;" d="M246 -3 l-68 -49 q-128 -95 -137 -190 q-8 -73 64 -76 q43 -1 105 32 l7 -85 q-65 -42 -137 -42 q-73 0 -113 45.5 q-40 45.5 -36 116.5 q3 74 62 145 q59 71 192 144 l61 -41 Z" /><glyph glyph-name="" unicode="&#x2dc;" d="M893 1485 q-14 -100 -70.5 -157.5 q-56.5 -57.5 -139.5 -57.5 q-31 0 -56.5 10.5 q-25.5 10.5 -74.5 45 q-49 34.5 -75 46 q-26 11.5 -56 11.5 q-46 0 -79.5 -31 q-33.5 -31 -47.5 -87 l-89 3 q14 96 71.5 155.5 q57.5 59.5 140.5 57.5 q38 0 69 -17 q31 -17 63.5 -39.5 q32.5 -22.5 63.5 -39.5 q31 -17 68 -17 q92 0 128 122 l84 -5 Z" /><glyph glyph-name="" unicode="&#x2dd;" d="M771 1535 l151 0 l-323 -303 l-130 1 l302 302 ZM471 1535 l143 0 l-277 -302 l-117 -1 l251 303 Z" /><glyph glyph-name="" unicode="&#x2f3;" d="M8 -236 q2 61 49 105.5 q47 44.5 108 44.5 q58 0 99.5 -39.5 q41.5 -39.5 41.5 -98.5 q-2 -62 -48 -104 q-46 -42 -106 -42 q-60 0 -102 37.5 q-42 37.5 -42 96.5 ZM80 -234 q-4 -28 18 -49 q19 -18 47 -18 q32 1 58.5 21.5 q26.5 20.5 31.5 52.5 q4 30 -15.5 50.5 q-19.5 20.5 -48.5 20.5 q-31 -1 -58.5 -23.5 q-27.5 -22.5 -32.5 -54.5 Z" /><glyph glyph-name="" unicode="&#x300;" d="M-340 1256 l-99 0 l-171 280 l134 0 l136 -280 Z" /><glyph glyph-name="" unicode="&#x301;" d="M-254 1536 l152 -1 l-274 -278 l-112 0 l234 279 Z" /><glyph glyph-name="" unicode="&#x309;" d="M-499 1234 l20 124 l47 6 q127 17 134 95 q7 73 -115 85 l-62 4 l15 76 q127 -3 195 -46.5 q68 -43.5 64 -118.5 q-3 -68 -53.5 -110.5 q-50.5 -42.5 -137.5 -52.5 l-11 -63 l-96 1 Z" /><glyph glyph-name="" unicode="&#x30f;" d="M-420 1252 l-126 0 l-247 266 l157 0 l216 -266 ZM-185 1252 l-113 0 l-197 266 l145 0 l165 -266 Z" /><glyph glyph-name="" unicode="&#x323;" d="M-797 -231 q3 33 27 57 q24 24 59 25 q35 1 57 -23 q22 -24 20 -59 q-3 -34 -27.5 -56.5 q-24.5 -22.5 -58.5 -23.5 q-35 -1 -57 22 q-22 23 -20 58 Z" /><glyph glyph-name="" unicode="&#x384;" d="M434 1588 l121 0 l-159 -304 l-88 0 l126 304 Z" /><glyph glyph-name="" unicode="&#x385;" d="M642 1664 l135 0 l-114 -252 l-100 0 l79 252 ZM286 1396 q2 34 28 58 q26 24 57 24 q35 1 57 -23 q22 -24 20 -59 q-3 -34 -27.5 -56.5 q-24.5 -22.5 -58.5 -23.5 q-34 -1 -56.5 22 q-22.5 23 -19.5 58 ZM776 1395 q2 34 28 58 q26 24 57 24 q35 1 57.5 -23 q22.5 -24 19.5 -59 q-2 -33 -27 -56 q-25 -23 -58 -24 q-35 -1 -57 22 q-22 23 -20 58 Z" /><glyph glyph-name="" unicode="&#x393;" d="M1163 1351 l-732 0 l-235 -1351 l-122 0 l253 1456 l854 0 l-18 -105 Z" /><glyph glyph-name="" unicode="&#x394;&#x2206;" d="M901 1456 l328 -1456 l-1294 0 l850 1456 l116 0 ZM128 104 l956 0 l-262 1204 l-694 -1204 Z" /><glyph glyph-name="" unicode="&#x398;" d="M950 675 l-540 0 l18 101 l541 0 l-19 -101 ZM569 -20 q-202 4 -322 140 q-120 136 -130 369 q-4 84 8 167 l21 142 q30 201 125 361 q95 160 232 240 q137 80 302 77 q133 -3 233.5 -65 q100.5 -62 156.5 -179 q56 -117 63 -266 q3 -88 -9 -167 l-22 -144 q-32 -205 -127 -363.5 q-95 -158.5 -231.5 -236.5 q-136.5 -78 -299.5 -75 ZM1129 808 q8 63 9 129 q0 122 -38.5 223.5 q-38.5 101.5 -116 153.5 q-77.5 52 -184.5 55 q-209 5 -350 -153 q-141 -158 -181 -423 l-22 -145 q-8 -62 -8 -127 q-2 -122 38 -224.5 q40 -102.5 115.5 -154.5 q75.5 -52 183.5 -55 q212 -5 352 152 q140 157 180 424 l22 145 Z" /><glyph glyph-name="" unicode="&#x39b;" d="M759 1272 l-664 -1272 l-137 0 l769 1456 l118 0 l264 -1456 l-126 0 l-224 1272 Z" /><glyph glyph-name="" unicode="&#x39e;" d="M26 104 l896 0 l-19 -104 l-896 0 l19 104 ZM238 785 l699 0 l-19 -105 l-699 0 l19 105 ZM272 1456 l857 0 l-19 -105 l-857 0 l19 105 Z" /><glyph glyph-name="" unicode="&#x3a0;" d="M1119 0 l-123 0 l235 1351 l-796 0 l-235 -1351 l-122 0 l253 1456 l1040 0 l-252 -1456 Z" /><glyph glyph-name="" unicode="&#x3a3;" d="M710 743 l-579 -639 l823 0 l-19 -104 l-979 0 l17 97 l615 668 l-395 604 l16 87 l927 0 l-19 -105 l-770 0 l368 -571 l-5 -37 Z" /><glyph glyph-name="" unicode="&#x3a6;" d="M897 1267 q149 -7 265 -76.5 q116 -69.5 171 -187 q55 -117.5 40 -264.5 q-17 -158 -107 -281.5 q-90 -123.5 -233.5 -192.5 q-143.5 -69 -315.5 -73 l-37 -192 l-123 0 l38 193 q-113 5 -207 45.5 q-94 40.5 -159 112.5 q-134 147 -109 370 q17 158 105.5 281 q88.5 123 233 192.5 q144.5 69.5 315.5 73.5 l37 188 l123 0 l-37 -189 ZM1251 739 q23 184 -76 299 q-99 115 -290 125 l-153 -867 q210 6 352 126 q142 120 167 317 ZM242 721 q-23 -185 75.5 -298 q98.5 -113 288.5 -125 l155 866 q-206 -6 -350 -125.5 q-144 -119.5 -169 -317.5 Z" /><glyph glyph-name="" unicode="&#x3a8;" d="M744 492 q185 18 308.5 137 q123.5 119 155.5 309 l88 518 l123 0 l-88 -518 q-39 -246 -202.5 -390.5 q-163.5 -144.5 -404.5 -158.5 l-71 -389 l-123 0 l72 391 q-219 24 -328 176 q-109 152 -81 371 l88 518 l122 0 l-88 -519 q-23 -177 56.5 -297.5 q79.5 -120.5 242.5 -144.5 l170 961 l120 0 l-160 -964 Z" /><glyph glyph-name="" unicode="&#x3a9;&#x2126;" d="M640 118 q168 57 277.5 210.5 q109.5 153.5 147.5 394.5 l18 124 q7 57 7 118 q0 185 -82.5 294 q-82.5 109 -230.5 113 q-190 5 -323.5 -143.5 q-133.5 -148.5 -169.5 -396.5 l-19 -135 l-6 -81 q-7 -111 13.5 -216 q20.5 -105 74.5 -176.5 q54 -71.5 135 -104.5 l-20 -119 l-451 0 l19 104 l279 2 q-165 182 -173 456 q-5 128 31.5 319 q36.5 191 137 337.5 q100.5 146.5 242.5 210.5 q110 50 236 47 q188 -4 302.5 -133.5 q114.5 -129.5 126.5 -348.5 q7 -129 -33.5 -321 q-40.5 -192 -135.5 -336.5 q-95 -144.5 -237 -234.5 l282 2 l-19 -104 l-448 0 l19 118 Z" /><glyph glyph-name="" unicode="&#x3b1;" d="M1034 1082 l-136 -810 l-4 -50 q-13 -130 64 -132 l46 6 l8 -94 q-46 -23 -90 -21 q-149 3 -149 195 q-150 -204 -359 -197 q-151 4 -236.5 112.5 q-85.5 108.5 -89.5 297.5 q-2 61 5 120 l2 21 q36 262 165 419.5 q129 157.5 325 152.5 q104 -3 181 -56 q77 -53 115 -150 l50 186 l103 0 ZM212 504 l-6 -92 q-3 -159 58.5 -245 q61.5 -86 176.5 -88 q212 -7 343 241 l70 418 q-27 124 -93.5 191.5 q-66.5 67.5 -161.5 70.5 q-151 5 -251 -119.5 q-100 -124.5 -133 -356.5 l-3 -20 Z" /><glyph glyph-name="" unicode="&#x3b2;" d="M714 1477 q164 -4 261.5 -109.5 q97.5 -105.5 83.5 -266.5 q-9 -105 -74.5 -188.5 q-65.5 -83.5 -171.5 -134.5 q110 -41 165.5 -138 q55.5 -97 44.5 -228 q-18 -198 -157.5 -317.5 q-139.5 -119.5 -340.5 -115.5 q-204 5 -317 129 l-92 -507 l-119 0 l251 1461 q25 178 159.5 298.5 q134.5 120.5 306.5 116.5 ZM606 821 q141 0 231 74 q90 74 104 210 q12 115 -52.5 191 q-64.5 76 -180.5 80 q-127 2 -222.5 -88 q-95.5 -90 -118.5 -226 l-140 -825 q36 -70 114 -112.5 q78 -42.5 180 -44.5 q152 -4 259 85.5 q107 89.5 125 242.5 q14 137 -57 223 q-71 85 -200 89 l-147 1 l18 101 l87 -1 Z" /><glyph glyph-name="" unicode="&#x3b3;" d="M894 1082 l128 0 l-573 -1058 l-76 -439 l-120 0 l80 454 l-205 1043 l118 0 l160 -849 l5 -77 l38 86 l445 840 Z" /><glyph glyph-name="" unicode="&#x3b4;" d="M342 1281 q9 129 118 206.5 q109 77.5 274 77.5 q148 -1 280 -69 l-22 -102 q-134 66 -264 66 q-108 0 -182.5 -47.5 q-74.5 -47.5 -84.5 -128.5 q-17 -117 140 -181 l82 -31 q182 -61 271 -212 q82 -140 63 -321 l-2 -18 q-30 -246 -181.5 -396.5 q-151.5 -150.5 -362.5 -144.5 q-198 5 -303.5 151.5 q-105.5 146.5 -83.5 369.5 l3 26 q23 191 140 324 q117 133 285 161 l2 11 q-91 44 -134 111.5 q-43 67.5 -38 146.5 ZM204 497 q-20 -183 54 -297.5 q74 -114.5 219 -119.5 q138 -5 246.5 88.5 q108.5 93.5 154.5 257.5 q30 109 22 200 q-15 131 -85.5 223 q-70.5 92 -176.5 105 q-100 12 -191 -39.5 q-91 -51.5 -158 -161 q-67 -109.5 -83 -239.5 l-2 -17 Z" /><glyph glyph-name="" unicode="&#x3b5;" d="M55 288 q14 198 262 271 q-79 36 -120 94.5 q-41 58.5 -37 131.5 q8 137 115.5 221 q107.5 84 291.5 94 l45 1 q172 -5 278 -89.5 q106 -84.5 99 -222.5 l-116 1 q7 92 -67.5 149.5 q-74.5 57.5 -197.5 60.5 q-135 3 -225.5 -54 q-90.5 -57 -102.5 -157 q-19 -178 243 -186 l192 -1 l-17 -100 l-174 1 q-164 0 -251 -55 q-87 -55 -98 -160 q-10 -94 63.5 -149.5 q73.5 -55.5 208.5 -58.5 q139 -2 238 61 q99 63 121 168 l118 0 q-21 -153 -155 -243.5 q-134 -90.5 -327 -85.5 q-179 3 -288 86.5 q-109 83.5 -99 221.5 Z" /><glyph glyph-name="" unicode="&#x3b6;" d="M1057 1456 l-11 -83 l-493 -529 l-84 -95 q-175 -205 -199 -393 q-11 -83 29 -138.5 q40 -55.5 155 -94.5 l180 -60 q130 -48 122 -166 q-5 -77 -59.5 -156 q-54.5 -79 -138.5 -129 l-64 60 q133 101 146 212 q7 65 -80 96 l-173 53 l-63 26 q-197 92 -175 294 q14 128 96.5 270 q82.5 142 249.5 315 l401 416 l-683 0 l16 102 l828 0 Z" /><glyph glyph-name="" unicode="&#x3b7;" d="M347 1082 l-32 -172 q140 196 361 192 q161 -3 235.5 -110.5 q74.5 -107.5 52.5 -306.5 l-187 -1100 l-119 0 l186 1100 q7 60 3 117 q-7 94 -58 145 q-51 51 -144 54 q-119 2 -218.5 -70.5 q-99.5 -72.5 -130.5 -182.5 l-129 -748 l-119 0 l188 1082 l111 0 Z" /><glyph glyph-name="" unicode="&#x3b8;" d="M473 -20 q-162 4 -252 119 q-90 115 -96 331 l0 48 l7 107 l38 253 q48 310 184 476.5 q136 166.5 351 161.5 q255 -6 325 -273 q26 -101 23 -221 q-2 -72 -11 -138 l-39 -246 q-55 -313 -190.5 -469 q-135.5 -156 -339.5 -149 ZM280 774 l633 0 l13 86 q16 125 11 215 q-21 293 -238 300 q-160 5 -264 -130 q-104 -135 -144 -398 l-11 -73 ZM900 672 l-639 0 q-16 -110 -19 -172 q-11 -197 51 -306.5 q62 -109.5 187 -113.5 q143 -6 244.5 109 q101.5 115 152.5 359 l23 124 Z" /><glyph glyph-name="" unicode="&#x3b9;" d="M386 1082 l-135 -812 l-2 -61 q4 -109 100 -112 q24 -1 96 8 l-5 -100 q-62 -15 -119 -13 q-103 2 -152 73.5 q-49 71.5 -36 207.5 l134 809 l119 0 Z" /><glyph glyph-name="" unicode="&#x3bb;" d="M392 1516 q170 0 215 -227 l208 -1054 l13 -52 q28 -93 107 -85 l20 3 l-2 -101 q-34 -9 -61 -9 q-69 0 -116 45.5 q-47 45.5 -77 162.5 l-134 686 l-488 -885 l-138 0 l592 1059 l-46 208 l-12 45 q-29 96 -107 101 l-24 0 l-24 -2 l6 95 q34 10 68 10 Z" /><glyph glyph-name="" unicode="&#x3be;" d="M1011 1333 q-123 43 -234 43 q-161 0 -259.5 -64.5 q-98.5 -64.5 -111.5 -176.5 q-24 -211 272 -229 l166 -2 l-18 -103 l-121 1 q-212 0 -342 -98 q-130 -98 -149 -268 q-26 -238 242 -333 l187 -58 q138 -48 130 -162 q-5 -70 -54.5 -138.5 q-49.5 -68.5 -136.5 -126.5 l-68 62 l46 39 q87 76 97 154 q7 57 -70 85 l-51 16 l-69 20 q-212 63 -299.5 172 q-87.5 109 -72.5 274 q12 148 111.5 255.5 q99.5 107.5 276.5 160.5 q-95 37 -149 108.5 q-54 71.5 -48 164.5 q9 151 129.5 244.5 q120.5 93.5 320.5 103.5 l44 1 q131 -2 257 -46 l-26 -99 Z" /><glyph glyph-name="" unicode="&#x3c0;" d="M1166 979 l-179 0 l-118 -707 l-2 -62 q4 -109 100 -112 q38 -2 96 8 l-5 -101 q-62 -15 -119 -13 q-103 2 -152 73.5 q-49 71.5 -36 207.5 l117 706 l-458 0 l-170 -979 l-119 0 l170 979 l-177 0 l18 103 l1053 0 l-19 -103 Z" /><glyph glyph-name="" unicode="&#x3c1;" d="M151 606 q35 231 170 366 q135 135 327 130 q108 -3 185.5 -56 q77.5 -53 117 -154.5 q39.5 -101.5 41.5 -228.5 q1 -66 -6 -129 q-36 -267 -164.5 -413.5 q-128.5 -146.5 -318.5 -141.5 q-212 5 -309 153 l-99 -548 l-120 0 l176 1022 ZM216 266 q66 -182 266 -186 q149 -3 250 110 q101 113 134 344 l7 96 q7 175 -53 271 q-60 96 -179 100 q-140 5 -240 -107 q-100 -112 -133 -311 l-52 -317 Z" /><glyph glyph-name="" unicode="&#x3c2;" d="M639 1102 q165 -4 259 -109.5 q94 -105.5 80 -277.5 l-113 0 q13 125 -50 203.5 q-63 78.5 -182 82.5 q-98 3 -183 -48 q-85 -51 -144 -155.5 q-59 -104.5 -77 -231.5 l-6 -48 q-17 -160 60.5 -268.5 q77.5 -108.5 247.5 -159.5 l71 -24 q137 -52 127 -180 q-5 -69 -57 -141.5 q-52 -72.5 -129 -121.5 l-62 60 q69 57 97.5 100.5 q28.5 43.5 34.5 90.5 q10 75 -71 102 l-79 23 q-192 59 -284.5 190.5 q-92.5 131.5 -73.5 327.5 l4 35 q18 158 91.5 285.5 q73.5 127.5 187.5 198 q114 70.5 251 66.5 Z" /><glyph glyph-name="" unicode="&#x3c3;" d="M1170 979 l-305 -3 q134 -120 147 -313 q12 -183 -58 -345 q-70 -162 -201 -252.5 q-131 -90.5 -289 -86.5 q-134 4 -225.5 74.5 q-91.5 70.5 -132.5 195 q-41 124.5 -25 272.5 l3 25 q28 238 179.5 387.5 q151.5 149.5 368.5 149.5 l557 -1 l-19 -103 ZM195 417 q6 -156 78.5 -244.5 q72.5 -88.5 196.5 -92.5 q162 -5 278 121 q116 126 145 325 l4 33 q19 181 -52.5 293.5 q-71.5 112.5 -216.5 126.5 q-163 2 -280 -117 q-117 -119 -145 -312 q-10 -84 -8 -133 Z" /><glyph glyph-name="" unicode="&#x3c4;" d="M1007 980 l-390 0 l-118 -707 l-2 -64 q0 -56 26.5 -89 q26.5 -33 76.5 -34 q32 -1 97 15 l16 -91 q-62 -30 -139 -28 q-220 3 -194 297 l116 701 l-357 0 l18 102 l868 0 l-18 -102 Z" /><glyph glyph-name="" unicode="&#x3c5;" d="M365 1082 l-113 -679 q-6 -52 -4 -108 l3 -34 q23 -176 177 -181 q191 -6 309.5 197 q118.5 203 106.5 539 q-5 136 -38 267 l124 -1 q30 -132 32 -266 q4 -274 -60 -457 q-64 -183 -189.5 -283.5 q-125.5 -100.5 -287.5 -96.5 q-160 3 -237 116 q-77 113 -55 312 l113 675 l119 0 Z" /><glyph glyph-name="" unicode="&#x3c6;" d="M528 -18 q-223 23 -331.5 174.5 q-108.5 151.5 -78.5 390.5 q20 170 105.5 308.5 q85.5 138.5 231.5 228.5 l53 -90 q-148 -102 -222 -275 q-74 -173 -51 -338 q17 -124 96.5 -202 q79.5 -78 207.5 -96 l134 792 q13 98 78 154.5 q65 56.5 155 54.5 q121 -2 207 -74.5 q86 -72.5 126 -197.5 q40 -125 25 -260 q-27 -241 -196.5 -398 q-169.5 -157 -420.5 -173 l-83 -459 l-119 0 l83 460 ZM662 80 q140 15 252 89.5 q112 74.5 175.5 199 q63.5 124.5 59.5 271.5 q-7 159 -73 251.5 q-66 92.5 -175 88.5 q-45 -2 -71.5 -31.5 q-26.5 -29.5 -34.5 -70.5 l-133 -798 Z" /><glyph glyph-name="" unicode="&#x3c8;" d="M812 1082 l-167 -1002 q182 17 308 134 q126 117 169 316 q32 149 16 307 q-14 127 -57 246 l123 -1 q40 -121 51 -245 q21 -243 -48.5 -435 q-69.5 -192 -220 -300.5 q-150.5 -108.5 -360.5 -119.5 l-77 -425 l-118 0 l78 427 q-170 19 -271 120.5 q-101 101.5 -122 270.5 q-13 104 2 218 l82 489 l119 0 l-82 -492 q-12 -88 -6 -172 q10 -140 83.5 -227 q73.5 -87 205.5 -107 l176 998 l116 0 Z" /><glyph glyph-name="" unicode="&#x3c9;" d="M477 1081 l-82 -139 q-179 -321 -162 -597 q8 -126 57 -194 q49 -68 135 -71 q126 -7 208.5 96.5 q82.5 103.5 109.5 300.5 l47 293 l120 0 l-47 -293 l-7 -80 q-7 -153 42.5 -234.5 q49.5 -81.5 148.5 -83.5 q117 -2 197.5 93.5 q80.5 95.5 118.5 277 q38 181.5 22 362.5 q-12 139 -58 271 l124 -1 q42 -134 52 -269 q12 -167 -14 -322.5 q-26 -155.5 -84 -268.5 q-127 -249 -361 -243 q-111 2 -187.5 71 q-76.5 69 -90.5 183 q-126 -261 -355 -254 q-145 4 -222 117.5 q-77 113.5 -74 312.5 q3 177 59.5 342 q56.5 165 170.5 331 l132 -1 Z" /><glyph glyph-name="" unicode="&#x3d1;" d="M1139 674 q-76 -25 -170 -34 l-35 -212 q-20 -141 -83 -243.5 q-63 -102.5 -162.5 -155.5 q-99.5 -53 -228.5 -49 q-182 6 -275.5 129.5 q-93.5 123.5 -71.5 318.5 l54 329 l120 2 l-54 -332 q-8 -66 0 -127 q13 -101 73 -157 q60 -56 161 -60 q141 -5 231.5 82 q90.5 87 116.5 262 l37 216 q-202 26 -312.5 158 q-110.5 132 -94.5 332 l1 21 q15 146 109 242.5 q94 96.5 227 92.5 q140 -3 210 -112 q70 -109 50 -286 l-56 -347 q89 11 153 30 l0 -100 ZM562 1132 q-14 -161 63.5 -259.5 q77.5 -98.5 238.5 -124.5 l58 344 q5 45 5 96 q-4 192 -154 197 q-84 2 -140.5 -62.5 q-56.5 -64.5 -68.5 -169.5 l-2 -21 Z" /><glyph glyph-name="" unicode="&#x3d2;" d="M874 1261 q65 118 129.5 164.5 q64.5 46.5 146.5 44.5 q62 -4 116 -31 l-39 -92 q-32 13 -66 17 q-86 5 -158 -105 l-406 -672 l-102 -587 l-122 0 l105 606 l-168 611 l-16 42 q-38 97 -111 97 q-28 0 -66 -12 l-21 96 q54 25 107 25 q72 0 125 -47.5 q53 -47.5 89 -158.5 l130 -491 l6 -62 l36 74 l285 481 Z" /><glyph glyph-name="" unicode="&#x3d6;" d="M1595 979 l-160 0 q17 -112 20 -221 q4 -217 -50.5 -403 q-54.5 -186 -155.5 -283 q-101 -97 -240 -93 q-112 2 -187 69.5 q-75 67.5 -91 183.5 q-121 -261 -353 -254 q-142 6 -213.5 122.5 q-71.5 116.5 -66.5 313.5 q5 309 172 567 l-149 -2 l19 103 l1475 0 l-20 -103 ZM1335 757 q-6 110 -26 222 l-909 1 q-106 -178 -148 -325 q-42 -147 -37 -305 q3 -123 47.5 -194 q44.5 -71 129.5 -76 q124 -7 205 93 q81 100 110 297 l44 277 l120 0 l-43 -270 l-7 -80 q-7 -153 41.5 -234.5 q48.5 -81.5 149.5 -83.5 q109 -2 183.5 91 q74.5 93 111 260 q36.5 167 28.5 327 Z" /><glyph glyph-name="" unicode="&#x402;" d="M1272 1351 l-548 0 l-98 -534 q185 69 325 67 q210 -2 323.5 -124 q113.5 -122 93.5 -331 q-20 -199 -164 -318.5 q-144 -119.5 -364 -126.5 l4 103 q164 2 274 96.5 q110 94.5 127 248.5 q18 155 -61 247.5 q-79 92.5 -237 96.5 q-141 3 -332 -65 l-126 -711 l-123 0 l235 1351 l-420 0 l19 105 l1091 0 l-19 -105 Z" /><glyph glyph-name="" unicode="&#x404;" d="M1152 454 q-52 -228 -208 -354 q-156 -126 -380 -120 q-195 4 -310.5 138.5 q-115.5 134.5 -124.5 362.5 q-3 78 7 155 l27 176 q31 201 125 357 q94 156 227.5 233 q133.5 77 294.5 74 q209 -4 325.5 -133 q116.5 -129 114.5 -344 l-121 1 q0 174 -83 271 q-83 97 -241 101 q-198 5 -334 -144.5 q-136 -149.5 -186 -407.5 l-5 -31 l593 0 l-19 -104 l-586 0 q-17 -106 -17 -172 q-2 -118 34.5 -219 q36.5 -101 109.5 -154 q73 -53 175 -56 q174 -6 291 87.5 q117 93.5 172 281.5 l119 1 Z" /><glyph glyph-name="" unicode="&#x409;" d="M1321 1456 l-106 -608 l340 -1 q127 -3 224 -54.5 q97 -51.5 144 -145.5 q47 -94 36 -216 q-18 -195 -163.5 -313 q-145.5 -118 -372.5 -118 l-477 0 l235 1351 l-540 0 l-132 -581 l-36 -180 q-64 -310 -172 -444 q-108 -134 -275 -145 l-78 -1 l12 103 l42 1 q140 6 229.5 135.5 q89.5 129.5 138.5 423.5 l21 117 l151 676 l779 0 ZM1198 744 l-112 -640 l342 -1 q164 0 278 91 q114 91 131 240 q17 134 -61.5 219.5 q-78.5 85.5 -223.5 89.5 l-354 1 Z" /><glyph glyph-name="" unicode="&#x40a;" d="M333 785 l797 0 l117 671 l122 0 l-110 -629 l321 -1 q210 -1 326 -110 q116 -109 99 -293 q-18 -193 -162.5 -308 q-144.5 -115 -373.5 -115 l-475 0 l118 681 l-796 0 l-119 -681 l-122 0 l253 1456 l122 0 l-117 -671 ZM1242 723 l-107 -615 l341 -1 q142 2 247 66 q141 87 160 253 q15 135 -65 213.5 q-80 78.5 -222 82.5 l-354 1 Z" /><glyph glyph-name="" unicode="&#x40b;" d="M1271 1351 l-542 0 l-98 -541 q191 51 363 49 q223 -4 325 -122 q102 -118 77 -325 l-68 -412 l-123 0 l68 413 q20 165 -48.5 251.5 q-68.5 86.5 -233.5 90.5 q-160 3 -371 -50 l-125 -705 l-122 0 l234 1351 l-426 0 l19 105 l1090 0 l-19 -105 Z" /><glyph glyph-name="" unicode="&#x40f;" d="M327 1456 l123 0 l-235 -1352 l797 0 l235 1352 l122 0 l-253 -1456 l-454 0 l-61 -353 l-124 0 l62 353 l-465 0 l253 1456 Z" /><glyph glyph-name="" unicode="&#x411;" d="M1155 1351 l-732 0 l-91 -527 l322 -1 q211 -1 326 -110 q115 -109 98 -292 q-18 -193 -161.5 -307 q-143.5 -114 -373.5 -114 l-477 0 l253 1456 l854 0 l-18 -105 ZM314 719 l-106 -615 l341 -1 q164 0 276.5 86 q112.5 86 129.5 235 q15 136 -63.5 213 q-78.5 77 -222.5 81 l-355 1 Z" /><glyph glyph-name="" unicode="&#x414;" d="M1139 104 l150 0 l-80 -457 l-122 0 l61 353 l-1062 0 l-62 -353 l-122 0 l81 457 l89 -2 q240 187 361 653 l30 122 l126 579 l784 0 l-234 -1352 ZM216 102 l801 2 l216 1247 l-544 0 l-107 -492 l-29 -115 q-115 -431 -337 -642 Z" /><glyph glyph-name="" unicode="&#x416;" d="M1115 693 l-161 0 l-121 -693 l-122 0 l121 693 l-157 0 l-600 -693 l-162 0 l659 758 l-363 698 l138 0 l331 -658 l172 0 l114 658 l122 0 l-114 -658 l160 0 l559 658 l154 0 l-616 -709 l391 -747 l-144 0 l-361 693 Z" /><glyph glyph-name="" unicode="&#x417;" d="M614 794 q185 0 294 76.5 q109 76.5 124 213.5 q14 131 -71 208.5 q-85 77.5 -244 79.5 q-154 2 -266 -80 q-112 -82 -138 -217 l-120 -1 q16 119 89 211 q73 92 191 143 q118 51 250 48 q213 -5 330.5 -110.5 q117.5 -105.5 101.5 -284.5 q-10 -113 -90.5 -200.5 q-80.5 -87.5 -221.5 -138.5 q116 -40 170.5 -129 q54.5 -89 43.5 -210 q-10 -123 -84 -220.5 q-74 -97.5 -204 -151 q-130 -53.5 -283 -51.5 q-133 3 -235 56.5 q-102 53.5 -154 149.5 q-52 96 -41 218 l121 0 q-15 -136 73 -226.5 q88 -90.5 241 -94.5 q180 -5 304 82 q124 87 140 234 q15 135 -64.5 209.5 q-79.5 74.5 -261.5 79.5 l-179 1 l19 106 l165 -1 Z" /><glyph glyph-name="" unicode="&#x418;" d="M1250 1456 l127 0 l-254 -1456 l-122 0 l215 1235 l-1012 -1235 l-127 0 l253 1456 l123 0 l-215 -1234 l1012 1234 Z" /><glyph glyph-name="" unicode="&#x41b;" d="M1364 1456 l-253 -1456 l-122 0 l234 1351 l-592 0 l-133 -581 l-46 -228 q-68 -298 -182 -422.5 q-114 -124.5 -287 -119.5 l-46 0 l12 103 l38 1 q146 6 235.5 137 q89.5 131 137.5 426 l21 117 l150 672 l833 0 Z" /><glyph glyph-name="" unicode="&#x423;" d="M634 526 l562 930 l149 0 l-747 -1207 q-88 -152 -179.5 -214 q-91.5 -62 -207.5 -59 q-44 2 -98 13 l22 100 q40 -8 82 -8 q72 0 133 42.5 q61 42.5 129 152.5 l72 116 l-347 1064 l133 0 l297 -930 Z" /><glyph glyph-name="" unicode="&#x424;" d="M923 1307 l22 0 q155 -4 274 -78.5 q119 -74.5 175.5 -204 q56.5 -129.5 39.5 -284.5 q-19 -168 -113.5 -303 q-94.5 -135 -243.5 -210 q-149 -75 -317 -74 l-30 0 l-41 -213 l-119 0 l41 214 q-170 0 -290.5 73.5 q-120.5 73.5 -179.5 205.5 q-59 132 -40 289 q19 167 113.5 302 q94.5 135 242.5 209.5 q148 74.5 319 74.5 l28 0 l41 208 l114 0 l-36 -209 ZM912 1206 l-168 -953 l22 -1 q217 0 369 136 q152 136 180 352 q24 194 -69.5 320.5 q-93.5 126.5 -272.5 142.5 l-61 3 ZM220 723 q-25 -206 77.5 -334.5 q102.5 -128.5 297.5 -134.5 l27 0 l170 953 l-15 0 q-222 0 -375.5 -134 q-153.5 -134 -181.5 -350 Z" /><glyph glyph-name="" unicode="&#x426;" d="M321 1456 l123 0 l-234 -1352 l796 0 l235 1352 l122 0 l-234 -1350 l138 0 l-88 -457 l-113 0 l61 351 l-1059 0 l253 1456 Z" /><glyph glyph-name="" unicode="&#x427;" d="M1304 1456 l-253 -1456 l-123 0 l119 662 q-204 -61 -386 -57 q-220 4 -323.5 120 q-103.5 116 -78.5 329 l67 402 l123 0 l-66 -403 q-39 -334 284 -340 q169 -3 392 54 l122 689 l123 0 Z" /><glyph glyph-name="" unicode="&#x428;" d="M447 1456 l-235 -1352 l562 0 l235 1352 l122 0 l-235 -1352 l560 0 l235 1352 l122 0 l-253 -1456 l-1489 0 l253 1456 l123 0 Z" /><glyph glyph-name="" unicode="&#x429;" d="M447 1456 l-235 -1352 l562 0 l235 1352 l122 0 l-235 -1352 l560 0 l235 1352 l122 0 l-235 -1355 l134 0 l-87 -452 l-109 0 l61 351 l-1506 0 l253 1456 l123 0 Z" /><glyph glyph-name="" unicode="&#x42a;" d="M138 1456 l595 0 l-110 -632 l323 -1 q210 -1 325 -110 q115 -109 98 -292 q-18 -194 -161.5 -307.5 q-143.5 -113.5 -372.5 -113.5 l-477 0 l235 1354 l-474 0 l19 102 ZM605 719 l-106 -615 l341 -1 q169 2 279.5 88.5 q110.5 86.5 126.5 232.5 q15 136 -63.5 213 q-78.5 77 -222.5 81 l-355 1 Z" /><glyph glyph-name="" unicode="&#x42b;" d="M340 824 l322 -1 q211 -1 326 -110 q115 -109 98 -292 q-18 -193 -161.5 -307 q-143.5 -114 -373.5 -114 l-476 0 l253 1456 l122 0 l-110 -632 ZM322 719 l-106 -615 l341 -1 q164 0 276.5 86 q112.5 86 129.5 235 q15 136 -63.5 213 q-78.5 77 -222.5 81 l-355 1 ZM1367 0 l-122 0 l253 1456 l122 0 l-253 -1456 Z" /><glyph glyph-name="" unicode="&#x42c;" d="M332 824 l322 -1 q211 -1 326 -110 q115 -109 98 -292 q-18 -193 -161.5 -307 q-143.5 -114 -373.5 -114 l-476 0 l253 1456 l122 0 l-110 -632 ZM314 719 l-106 -615 l341 -1 q164 0 276.5 86 q112.5 86 129.5 235 q15 136 -63.5 213 q-78.5 77 -222.5 81 l-355 1 Z" /><glyph glyph-name="" unicode="&#x42d;" d="M233 454 q0 -178 84.5 -272.5 q84.5 -94.5 248.5 -98.5 q199 -5 336.5 153 q137.5 158 183.5 443 l-595 0 l19 105 l588 0 q15 92 16 161 q0 121 -38 220 q-38 99 -112.5 151.5 q-74.5 52.5 -178.5 55.5 q-167 5 -283.5 -88.5 q-116.5 -93.5 -172.5 -282.5 l-121 0 q52 226 207.5 353.5 q155.5 127.5 374.5 121.5 q199 -4 316.5 -139.5 q117.5 -135.5 126.5 -361.5 q3 -79 -7 -157 l-25 -163 q-48 -312 -221 -496 q-173 -184 -419 -179 q-212 4 -331.5 131 q-119.5 127 -117.5 344 l121 -1 Z" /><glyph glyph-name="" unicode="&#x42e;" d="M1038 -20 q-204 4 -323.5 141.5 q-119.5 137.5 -129.5 367.5 q-4 79 12 197 l-259 0 l-119 -686 l-122 0 l253 1456 l122 0 l-117 -669 l257 0 l8 48 q35 191 131.5 343 q96.5 152 230 226.5 q133.5 74.5 292.5 71.5 q134 -3 234.5 -65.5 q100.5 -62.5 156.5 -182 q56 -119.5 61 -262.5 q3 -86 -9 -168 l-23 -154 q-35 -206 -129.5 -360 q-94.5 -154 -230 -230.5 q-135.5 -76.5 -296.5 -73.5 ZM1606 937 q0 122 -38 222 q-38 100 -114.5 153.5 q-76.5 53.5 -185.5 56.5 q-200 5 -341 -143.5 q-141 -148.5 -186 -401.5 q-36 -205 -35 -303 q0 -202 88.5 -316 q88.5 -114 249.5 -118 q205 -5 343.5 144 q138.5 149 182.5 401 q36 206 36 305 Z" /><glyph glyph-name="" unicode="&#x42f;" d="M828 0 l103 593 l-400 0 l-412 -593 l-139 0 l448 630 q-119 52 -172.5 151 q-53.5 99 -41.5 227 q19 209 168.5 329 q149.5 120 379.5 120 l442 -1 l-253 -1456 l-123 0 ZM337 1010 q-16 -133 54.5 -219 q70.5 -86 206.5 -92 l351 -1 l113 653 l-304 1 q-180 0 -292.5 -93 q-112.5 -93 -128.5 -249 Z" /><glyph glyph-name="" unicode="&#x431;" d="M633 1010 q124 -2 215 -64.5 q91 -62.5 134.5 -172.5 q43.5 -110 32.5 -244 l-3 -34 q-12 -109 -57.5 -206 q-45.5 -97 -117.5 -168 q-149 -147 -359 -141 q-131 2 -226.5 70 q-95.5 68 -140 185.5 q-44.5 117.5 -28.5 257.5 l13 100 q45 328 189.5 529.5 q144.5 201.5 372.5 247.5 l124 22 q178 35 204 160 l102 0 q-23 -186 -216 -247 q-61 -19 -167 -35 q-159 -23 -273.5 -131 q-114.5 -108 -191.5 -316 q169 191 393 187 ZM609 909 q-156 4 -269.5 -106.5 q-113.5 -110.5 -135.5 -278.5 l-3 -33 q-17 -180 61 -294 q78 -114 222 -117 q157 -4 272 113 q115 117 138 302 l3 33 q16 164 -63 270.5 q-79 106.5 -225 110.5 Z" /><glyph glyph-name="" unicode="&#x432;" d="M59 0 l187 1082 l362 -1 q196 -1 297 -73.5 q101 -72.5 91 -206.5 q-7 -86 -65 -149.5 q-58 -63.5 -161 -99.5 q89 -23 138.5 -91.5 q49.5 -68.5 43.5 -152.5 q-8 -144 -123.5 -226 q-115.5 -82 -309.5 -82 l-460 0 ZM264 498 l-70 -398 l329 -1 q135 0 218.5 55.5 q83.5 55.5 93.5 155.5 q10 85 -52 134.5 q-62 49.5 -177 52.5 l-342 1 ZM281 598 l287 -2 q141 3 221 56 q80 53 89 146 q19 180 -262 181 l-269 1 l-66 -382 Z" /><glyph glyph-name="" unicode="&#x433;" d="M872 979 l-530 0 l-170 -979 l-119 0 l188 1082 l650 0 l-19 -103 Z" /><glyph glyph-name="" unicode="&#x434;" d="M37 99 q109 104 180.5 238.5 q71.5 134.5 114.5 334.5 l88 410 l623 0 l-170 -981 l108 0 l-73 -419 l-118 0 l56 318 l-786 0 l-56 -318 l-114 0 l74 419 l73 -2 ZM174 99 l579 2 l151 869 l-390 0 l-71 -335 l-22 -89 q-76 -287 -247 -447 Z" /><glyph glyph-name="" unicode="&#x436;" d="M940 500 l-142 0 l-87 -500 l-119 0 l87 500 l-131 0 l-475 -500 l-160 0 l538 561 l-292 521 l134 0 l262 -475 l142 0 l83 475 l119 0 l-83 -475 l135 0 l427 475 l154 0 l-485 -533 l336 -549 l-142 0 l-301 500 Z" /><glyph glyph-name="" unicode="&#x437;" d="M504 603 q133 0 210.5 51.5 q77.5 51.5 87.5 148.5 q10 91 -52 143.5 q-62 52.5 -177 54.5 q-112 2 -198 -55.5 q-86 -57.5 -108 -154.5 l-117 0 q18 139 138.5 226 q120.5 87 289.5 85 q169 -5 261 -85 q92 -80 82 -215 q-14 -166 -223 -251 q83 -30 122.5 -94 q39.5 -64 33.5 -152 q-11 -151 -136 -240 q-125 -89 -307 -84 q-163 2 -266.5 92.5 q-103.5 90.5 -94.5 237.5 l117 -1 q-7 -101 65 -164 q72 -63 184 -65 q130 -2 219.5 57.5 q89.5 59.5 99.5 163.5 q20 193 -234 197 l-170 1 l18 104 l155 -1 Z" /><glyph glyph-name="" unicode="&#x438;" d="M920 1082 l123 0 l-188 -1082 l-120 0 l154 879 l-713 -879 l-122 0 l188 1082 l118 0 l-153 -880 l713 880 Z" /><glyph glyph-name="" unicode="&#x43a;" d="M422 496 l-163 0 l-86 -496 l-120 0 l188 1082 l120 0 l-84 -480 l152 0 l469 480 l158 0 l-528 -531 l378 -551 l-145 0 l-339 496 Z" /><glyph glyph-name="" unicode="&#x43b;" d="M1044 1082 l-188 -1082 l-120 0 l171 979 l-427 0 l-86 -404 l-23 -120 q-47 -239 -140 -349 q-93 -110 -241 -106 l-49 0 l13 105 l39 1 q106 5 172 96.5 q66 91.5 100 296.5 l18 105 l100 478 l661 0 Z" /><glyph glyph-name="" unicode="&#x43c;" d="M654 165 l575 917 l150 0 l-189 -1082 l-119 0 l153 875 l-550 -875 l-85 0 l-254 909 l-158 -909 l-119 0 l188 1082 l152 0 l256 -917 Z" /><glyph glyph-name="" unicode="&#x43d;" d="M855 0 l-120 0 l87 496 l-563 0 l-86 -496 l-119 0 l188 1082 l119 0 l-85 -485 l563 0 l85 485 l119 0 l-188 -1082 Z" /><glyph glyph-name="" unicode="&#x43f;" d="M855 0 l-120 0 l171 979 l-563 0 l-170 -979 l-119 0 l188 1082 l801 0 l-188 -1082 Z" /><glyph glyph-name="" unicode="&#x442;" d="M972 980 l-381 0 l-171 -980 l-119 0 l170 980 l-368 0 l18 102 l870 0 l-19 -102 Z" /><glyph glyph-name="" unicode="&#x444;" d="M96 526 q22 174 87 310.5 q65 136.5 160.5 203 q95.5 66.5 218.5 64.5 q98 -2 171 -49 l87 481 l118 0 l-90 -485 q82 52 181 50 q149 -2 226 -121 q77 -119 74 -328 q-1 -63 -7 -118 q-37 -274 -160 -418 q-123 -144 -304 -139 q-101 2 -178 49 l-81 -442 l-118 0 l82 441 q-84 -47 -176 -45 q-142 2 -220.5 108.5 q-78.5 106.5 -78.5 301.5 q0 48 8 136 ZM1202 539 l8 90 q7 179 -47 273 q-54 94 -164 96 q-86 3 -160 -41 l-146 -840 q57 -38 146 -40 q143 -3 238 113.5 q95 116.5 123 326.5 l2 22 ZM206 418 q-7 -161 47 -248 q54 -87 162 -89 q80 -2 158 39 l147 840 q-53 40 -142 42 q-191 3 -292 -215 q-53 -115 -71 -261 q-8 -55 -9 -108 Z" /><glyph glyph-name="" unicode="&#x446;" d="M242 1082 l119 0 l-170 -981 l562 0 l171 981 l119 0 l-170 -981 l107 0 l-83 -422 l-110 0 l57 321 l-790 0 l188 1082 Z" /><glyph glyph-name="" unicode="&#x447;" d="M808 0 l-120 0 l84 455 q-154 -53 -278 -53 q-188 2 -273.5 107 q-85.5 105 -62.5 299 l43 274 l119 0 l-44 -275 q-8 -68 -1 -123 q23 -177 226 -177 q123 -2 282 49 l94 526 l119 0 l-188 -1082 Z" /><glyph glyph-name="" unicode="&#x448;" d="M361 1082 l-170 -981 l463 0 l171 981 l119 0 l-170 -981 l459 0 l171 981 l119 0 l-188 -1082 l-1281 0 l188 1082 l119 0 Z" /><glyph glyph-name="" unicode="&#x449;" d="M355 1082 l-170 -981 l464 0 l171 981 l119 0 l-170 -981 l459 0 l170 981 l119 0 l-170 -981 l126 0 l-82 -422 l-110 0 l57 321 l-1290 0 l188 1082 l119 0 Z" /><glyph glyph-name="" unicode="&#x44a;" d="M117 1082 l452 0 l-68 -393 l291 -1 q159 -4 252 -95 q93 -91 82 -240 q-13 -161 -133.5 -257 q-120.5 -96 -304.5 -96 l-425 0 l170 980 l-335 0 l19 102 ZM484 587 l-85 -486 l293 -1 q125 0 213 67.5 q88 67.5 101 185.5 q11 103 -48 166 q-59 63 -168 67 l-306 1 Z" /><glyph glyph-name="" unicode="&#x44b;" d="M296 689 l279 -2 q149 -1 244 -77 q114 -92 102 -256 q-13 -160 -133 -257 q-120 -97 -305 -97 l-424 0 l188 1082 l118 0 l-69 -393 ZM279 587 l-85 -486 l294 -2 q129 2 215 70.5 q86 68.5 99 183.5 q12 104 -49 166.5 q-61 62.5 -168 66.5 l-306 1 ZM1218 0 l-120 0 l189 1082 l119 0 l-188 -1082 Z" /><glyph glyph-name="" unicode="&#x44c;" d="M296 689 l279 -2 q149 -1 244 -77 q114 -92 102 -256 q-13 -160 -133 -257 q-120 -97 -305 -97 l-424 0 l188 1082 l118 0 l-69 -393 ZM279 587 l-85 -486 l294 -2 q129 2 215 70.5 q86 68.5 99 183.5 q12 104 -49 166.5 q-61 62.5 -168 66.5 l-306 1 Z" /><glyph glyph-name="" unicode="&#x44d;" d="M578 1001 q-120 4 -210.5 -67 q-90.5 -71 -114.5 -189 l-113 -1 q14 103 77.5 186.5 q63.5 83.5 161 129.5 q97.5 46 204.5 43 q185 -5 284.5 -146.5 q99.5 -141.5 83.5 -367.5 l-2 -24 l-2 -19 q-30 -259 -177 -415 q-147 -156 -354 -151 q-164 4 -259.5 112 q-95.5 108 -81.5 274 l115 0 q-13 -122 51.5 -202 q64.5 -80 180.5 -84 q144 -5 249 102.5 q105 107.5 154 313.5 l-480 0 l19 101 l471 0 q8 79 -4.5 155 q-12.5 76 -46.5 132 q-69 112 -206 117 Z" /><glyph glyph-name="" unicode="&#x44e;" d="M279 589 l293 0 q24 110 74 208 q50 98 126 170 q149 141 349 136 q168 -4 271 -114.5 q103 -110.5 117 -296.5 q4 -59 -5 -166 q-20 -156 -98 -284 q-78 -128 -195 -197 q-117 -69 -258 -65 q-128 4 -221 70 q-93 66 -138 183.5 q-45 117.5 -31 254.5 l-301 -1 l-85 -487 l-119 0 l189 1082 l118 0 l-86 -493 ZM684 516 q-13 -120 14.5 -219 q27.5 -99 94 -156.5 q66.5 -57.5 166.5 -60.5 q131 -4 236.5 81.5 q105.5 85.5 158.5 237.5 q53 152 35 311 q-15 129 -87.5 207.5 q-72.5 78.5 -187.5 82.5 q-168 5 -286 -129.5 q-118 -134.5 -143 -344.5 l-1 -10 Z" /><glyph glyph-name="" unicode="&#x44f;" d="M1002 1082 l-188 -1082 l-119 0 l76 436 l-319 0 l-333 -436 l-138 0 l348 454 q-93 35 -138 114.5 q-45 79.5 -37 182.5 q11 151 129 241.5 q118 90.5 297 90.5 l422 -1 ZM273 749 q-10 -94 41 -150 q51 -56 141 -60 l333 -1 l77 442 l-289 1 q-122 0 -207 -63 q-85 -63 -96 -169 Z" /><glyph glyph-name="" unicode="&#x452;" d="M678 1235 l-299 0 l-66 -336 q75 102 169.5 153.5 q94.5 51.5 199.5 49.5 q153 -3 225 -107 q72 -104 51 -291 l-129 -793 q-23 -168 -114 -261 q-91 -93 -232 -91 q-59 2 -125 21 l23 100 q50 -16 105 -18 q87 0 145.5 63 q58.5 63 78.5 186 l130 795 q6 57 2 110 q-17 179 -195 184 q-217 3 -355 -258 l-128 -742 l-118 0 l214 1235 l-177 0 l18 102 l177 0 l35 199 l118 0 l-35 -199 l300 0 l-18 -102 Z" /><glyph glyph-name="" unicode="&#x454;" d="M467 80 q119 -4 210 65 q91 69 124 188 l113 0 q-30 -160 -159.5 -259 q-129.5 -99 -292.5 -95 q-165 4 -261.5 111.5 q-96.5 107.5 -108.5 296.5 q-8 132 26 268.5 q34 136.5 106.5 238 q72.5 101.5 175 156.5 q102.5 55 229.5 52 q161 -4 259 -110 q98 -106 92 -276 l-114 1 q6 122 -60.5 201 q-66.5 79 -182.5 83 q-146 5 -250.5 -100 q-104.5 -105 -152.5 -309 l483 0 l-18 -102 l-477 0 q-8 -71 0 -143 q14 -124 81 -193.5 q67 -69.5 178 -73.5 Z" /><glyph glyph-name="" unicode="&#x459;" d="M951 649 l291 -1 q160 -5 254 -90 q94 -85 83 -224 q-10 -149 -129 -241.5 q-119 -92.5 -305 -92.5 l-426 0 l170 979 l-417 0 l-86 -404 l-23 -120 q-48 -243 -140.5 -351 q-92.5 -108 -240.5 -104 l-49 0 l13 105 l40 1 q103 5 168.5 93.5 q65.5 88.5 100.5 282.5 l21 122 l100 478 l650 0 l-75 -433 ZM934 548 l-78 -448 l293 -1 q123 0 210.5 63.5 q87.5 63.5 100.5 173.5 q11 93 -48 149.5 q-59 56.5 -172 61.5 l-306 1 Z" /><glyph glyph-name="" unicode="&#x45a;" d="M286 652 l563 0 l75 430 l119 0 l-76 -433 l292 -1 q161 -5 253.5 -90 q92.5 -85 81.5 -225 q-11 -152 -130 -242.5 q-119 -90.5 -304 -90.5 l-424 0 l96 551 l-563 0 l-96 -551 l-119 0 l188 1082 l119 0 l-75 -430 ZM950 548 l-78 -448 l293 -1 q123 0 210 63 q87 63 100 174 q11 94 -47 150 q-58 56 -171 61 l-307 1 Z" /><glyph glyph-name="" unicode="&#x45b;" d="M691 1247 l-314 0 l-64 -348 q156 207 368 203 q156 -4 227 -109 q71 -105 50 -289 l-118 -704 l-118 0 l118 706 q6 57 2 110 q-17 178 -194 183 q-105 2 -196 -62.5 q-91 -64.5 -160 -194.5 l-128 -742 l-118 0 l217 1247 l-168 0 l18 102 l167 0 l33 187 l118 0 l-35 -187 l313 0 l-18 -102 Z" /><glyph glyph-name="" unicode="&#x45f;" d="M361 1082 l-170 -981 l562 0 l171 981 l119 0 l-188 -1082 l-337 0 l-62 -353 l-119 0 l62 353 l-345 0 l188 1082 l119 0 Z" /><glyph glyph-name="" unicode="&#x460;" d="M1761 1456 l-180 -1054 q-34 -199 -154 -313 q-120 -114 -298 -110 q-110 2 -190.5 57.5 q-80.5 55.5 -106.5 152.5 q-63 -102 -155 -158 q-92 -56 -213 -52 q-166 5 -252.5 125 q-86.5 120 -63.5 309 l177 1043 l124 0 l-178 -1044 q-6 -56 0 -113 q9 -99 61 -156 q52 -57 141 -61 q123 -5 211.5 81 q88.5 86 115.5 237 l180 1056 l126 0 l-177 -1044 q-15 -149 41 -237.5 q56 -88.5 166 -92.5 l3 0 q125 -5 213 86.5 q88 91.5 109 243.5 l178 1044 l122 0 Z" /><glyph glyph-name="" unicode="&#x461;" d="M1558 1082 l-119 -699 q-27 -188 -138.5 -298.5 q-111.5 -110.5 -279.5 -106.5 q-100 2 -173 52.5 q-73 50.5 -97 136.5 q-124 -195 -334 -189 q-152 5 -229.5 115.5 q-77.5 110.5 -59.5 288.5 l117 700 l118 0 l-117 -701 q-6 -50 -1 -103 l5 -33 q32 -161 177 -166 q112 -5 191.5 74.5 q79.5 79.5 104.5 227.5 l119 701 l119 0 l-118 -701 q-13 -136 38 -217.5 q51 -81.5 152 -84.5 q111 -5 189 78 q78 83 98 224 l118 701 l120 0 Z" /><glyph glyph-name="" unicode="&#x463;" d="M680 1082 l-315 0 l-66 -375 l291 -1 q161 -4 252.5 -98.5 q91.5 -94.5 78.5 -245.5 q-13 -162 -132.5 -262 q-119.5 -100 -306.5 -100 l-424 0 l187 1082 l-191 0 l18 101 l191 0 l63 364 l120 0 l-64 -364 l316 0 l-18 -101 ZM282 605 l-88 -504 l293 -1 q128 0 215 72 q87 72 100 190 q12 109 -48 173.5 q-60 64.5 -167 68.5 l-305 1 Z" /><glyph glyph-name="" unicode="&#x464;" d="M361 812 l246 -2 l2 11 q43 210 137.5 362.5 q94.5 152.5 223 224.5 q128.5 72 286.5 69 q207 -4 324.5 -132.5 q117.5 -128.5 115.5 -344.5 l-121 1 q0 174 -83.5 271.5 q-83.5 97.5 -241.5 101.5 q-191 5 -322 -133 q-131 -138 -194 -409 l-5 -22 l519 2 l-18 -101 l-513 0 l-12 -75 q-8 -59 -8 -122 q-2 -119 35.5 -220.5 q37.5 -101.5 110 -153.5 q72.5 -52 174.5 -55 q348 -11 463 369 l120 0 q-54 -227 -210 -353 q-156 -126 -379 -120 q-195 4 -312 138.5 q-117 134.5 -124 362.5 q-3 84 10 160 l12 69 l-253 0 l-124 -711 l-122 0 l253 1456 l122 0 l-112 -644 Z" /><glyph glyph-name="" unicode="&#x465;" d="M279 601 l234 0 q57 245 195.5 375.5 q138.5 130.5 329.5 125.5 q162 -4 259.5 -111 q97.5 -107 91.5 -275 l-114 1 q6 122 -60.5 201 q-66.5 79 -182.5 83 q-145 5 -249 -99 q-104 -104 -151 -301 l462 0 l-18 -102 l-456 0 q-9 -72 -2 -145 q12 -126 78.5 -198 q66.5 -72 180.5 -76 q120 -4 210.5 65.5 q90.5 69.5 122.5 187.5 l113 0 q-29 -158 -158 -258 q-129 -100 -294 -96 q-181 5 -282 135.5 q-101 130.5 -89 340.5 l4 45 l-242 -1 l-87 -499 l-119 0 l188 1082 l119 0 l-84 -481 Z" /><glyph glyph-name="" unicode="&#x466;" d="M874 474 l-231 0 l-83 -474 l-120 0 l82 474 l-214 0 l-248 -474 l-132 0 l771 1456 l118 0 l261 -1456 l-121 0 l-83 474 ZM363 581 l493 0 l-123 704 l-370 -704 Z" /><glyph glyph-name="" unicode="&#x467;" d="M699 347 l-166 0 l-61 -347 l-119 0 l61 347 l-167 0 l-202 -347 l-129 0 l627 1082 l104 0 l252 -1082 l-117 0 l-83 347 ZM306 449 l368 0 l-87 366 l-13 119 l-62 -130 l-206 -355 Z" /><glyph glyph-name="" unicode="&#x468;" d="M339 581 l409 0 l464 875 l118 0 l262 -1456 l-122 0 l-83 474 l-231 0 l-83 -474 l-120 0 l83 474 l-214 0 l-249 -474 l-132 0 l252 475 l-372 0 l-83 -475 l-122 0 l253 1456 l122 0 l-152 -875 ZM877 581 l492 0 l-123 704 l-369 -704 Z" /><glyph glyph-name="" unicode="&#x469;" d="M287 449 l322 0 l367 633 l105 0 l251 -1082 l-117 0 l-82 347 l-166 0 l-61 -347 l-119 0 l61 347 l-167 0 l-203 -347 l-129 0 l201 346 l-281 0 l-60 -346 l-120 0 l189 1082 l119 0 l-110 -633 ZM740 449 l368 0 l-87 366 l-13 119 l-62 -130 l-206 -355 Z" /><glyph glyph-name="" unicode="&#x46a;" d="M47 0 l63 379 q28 199 154 300 q126 101 344 101 l106 -1 l-301 677 l1103 0 l-536 -677 l79 -1 q199 -7 292.5 -107.5 q93.5 -100.5 74.5 -291.5 l-62 -379 l-123 0 l62 380 q18 146 -40.5 217 q-58.5 71 -205.5 76 l-160 2 l-13 -16 l-117 -659 l-122 0 l120 664 l-3 10 l-159 2 q-330 4 -371 -297 l-63 -379 l-122 0 ZM830 779 l15 0 l442 572 l-693 -1 l236 -571 Z" /><glyph glyph-name="" unicode="&#x46b;" d="M48 0 l33 214 q31 188 151.5 284.5 q120.5 96.5 337.5 96.5 l-226 487 l899 0 l-407 -490 q186 -5 274 -107.5 q88 -102.5 67 -289.5 l-30 -195 l-119 0 l30 196 q9 70 1 124 q-14 83 -71.5 125.5 q-57.5 42.5 -162.5 46.5 l-67 1 l-15 -17 l-84 -476 l-119 0 l88 483 l-3 9 l-70 1 q-155 2 -243 -68 q-88 -70 -112 -224 l-32 -201 l-120 0 ZM689 594 l20 0 l308 385 l-495 -1 l167 -384 Z" /><glyph glyph-name="" unicode="&#x46c;" d="M355 780 l834 0 l1 -1 l47 1 l-296 676 l1103 0 l-536 -677 l78 -1 q168 -4 263 -80 q127 -102 105 -319 l-62 -379 l-123 0 l62 380 q18 146 -41.5 217 q-59.5 71 -203.5 76 l-161 2 l-13 -16 l-117 -659 l-122 0 l119 664 l-2 10 l-159 2 q-331 4 -372 -297 l-62 -379 l-123 0 l67 403 q34 182 156 277 l-460 -2 l-118 -678 l-122 0 l253 1456 l122 0 l-117 -676 ZM1357 779 l15 0 l442 572 l-692 -1 l235 -571 Z" /><glyph glyph-name="" unicode="&#x46d;" d="M1273 592 q186 -6 274 -108.5 q88 -102.5 68 -288.5 l-31 -195 l-119 0 l31 196 q9 70 1 124 q-27 165 -231 172 l-71 1 l-14 -17 l-85 -476 l-118 0 l88 483 l-4 9 l-85 2 q-150 0 -233 -71.5 q-83 -71.5 -106 -214.5 l-32 -208 l-121 0 l38 229 q34 168 148 265 l-408 -2 l-86 -492 l-120 0 l189 1082 l119 0 l-85 -488 l698 0 l20 1 l10 0 l-227 487 l899 0 l-407 -490 ZM1127 594 l18 0 l310 385 l-495 -1 l167 -384 Z" /><glyph glyph-name="" unicode="&#x46e;" d="M1008 1081 q-10 -114 -90.5 -200 q-80.5 -86 -225.5 -138 q118 -39 174 -128 q56 -89 45 -212 q-14 -172 -148.5 -283.5 q-134.5 -111.5 -350.5 -126.5 l-52 -2 l-66 1 q-94 -3 -142 -39 q-48 -36 -54 -97 q-10 -113 136 -178 l-51 -86 q-91 39 -145.5 112 q-54.5 73 -50.5 155 q5 109 88.5 171 q83.5 62 225.5 62 l62 -1 q176 0 294.5 83.5 q118.5 83.5 134.5 224.5 q15 138 -65.5 213 q-80.5 75 -260.5 80 l-137 1 l18 103 l123 -1 q185 0 294.5 76.5 q109.5 76.5 124.5 213.5 q14 120 -60.5 191.5 q-74.5 71.5 -226.5 76.5 l-320 1 l18 102 l284 -2 q207 -1 322.5 -102 q115.5 -101 101.5 -271 ZM747 1719 l202 191 l107 1 l0 -13 l-269 -260 l-87 0 l-189 261 l1 13 l105 -1 l130 -192 Z" /><glyph glyph-name="" unicode="&#x46f;" d="M392 599 q163 0 252.5 53 q89.5 53 100.5 152 q9 79 -54.5 125 q-63.5 46 -198.5 49 l-291 1 l18 103 l258 -1 q182 -1 289.5 -74 q107.5 -73 97.5 -206 q-13 -162 -243 -253 q190 -65 179 -236 q-9 -140 -128.5 -225 q-119.5 -85 -319.5 -95 l-36 -1 l-44 1 q-182 -5 -196 -137 q-10 -112 136 -177 l-52 -85 q-92 40 -145 111.5 q-53 71.5 -49 154.5 q5 109 89 171 q84 62 224.5 62 q140.5 0 218 24.5 q77.5 24.5 126.5 72 q49 47.5 58 118.5 q21 187 -297 189 l-135 1 l19 103 l123 -1 ZM573 1390 l201 191 l108 1 l-1 -12 l-269 -262 l-86 0 l-189 262 l1 13 l104 -1 l131 -192 Z" /><glyph glyph-name="" unicode="&#x472;" d="M569 -20 q-203 4 -322.5 141.5 q-119.5 137.5 -129.5 367.5 q-4 84 8 167 l21 142 q30 201 125 361 q95 160 232 240 q137 80 302 77 q133 -3 233.5 -65 q100.5 -62 156.5 -179 q56 -117 63 -266 q3 -88 -9 -167 l-22 -144 q-32 -205 -127 -363.5 q-95 -158.5 -231.5 -236.5 q-136.5 -78 -299.5 -75 ZM261 774 l864 0 q14 95 14 163 q0 200 -89 314 q-89 114 -251 118 q-205 5 -345 -148 q-140 -153 -193 -447 ZM1111 673 l-862 -1 l-4 -24 q-9 -62 -9 -127 q0 -201 89.5 -315.5 q89.5 -114.5 249.5 -118.5 q255 -9 406 227 q86 134 126 335 l4 24 Z" /><glyph glyph-name="" unicode="&#x473;" d="M82 550 q21 171 111.5 309.5 q90.5 138.5 232.5 202.5 q94 43 208 40 q185 -5 291.5 -139 q106.5 -134 98.5 -356 l-3 -47 q-21 -182 -98.5 -312 q-77.5 -130 -196.5 -201.5 q-119 -71.5 -260 -67.5 q-133 4 -226 74.5 q-93 70.5 -135 194.5 q-42 124 -26 269 l3 33 ZM472 80 q148 -5 260 103.5 q112 108.5 164 308.5 l-704 0 q-15 -179 61.5 -293 q76.5 -114 218.5 -119 ZM628 1001 q-149 5 -262.5 -105.5 q-113.5 -110.5 -161.5 -302.5 l702 0 q7 79 -8 154.5 q-15 75.5 -53 133.5 q-76 115 -217 120 Z" /><glyph glyph-name="" unicode="&#x474;" d="M469 252 l9 -101 l49 106 l455 950 q65 149 143.5 209 q78.5 60 182.5 61 l37 0 l-14 -108 l-10 1 q-123 3 -199 -131 l-28 -55 l-579 -1184 l-116 0 l-222 1456 l128 0 l164 -1204 Z" /><glyph glyph-name="" unicode="&#x475;" d="M365 260 l11 -121 l356 760 q91 209 243 206 q48 0 98 -23 l-25 -96 q-35 13 -57 14 q-83 3 -143 -122 l-444 -878 l-96 0 l-180 1082 l118 0 l119 -822 Z" /><glyph glyph-name="" unicode="&#x47a;" d="M624 -17 l-24 -125 l-120 0 l26 126 q-178 24 -282 161 q-104 137 -108 357 q-2 80 9 153 l22 145 q45 292 207 472 q162 180 403 201 l24 120 l119 0 l-24 -122 q178 -28 278 -164.5 q100 -136.5 105 -355.5 q1 -80 -10 -152 l-20 -130 q-47 -305 -206.5 -484 q-159.5 -179 -398.5 -202 ZM1138 983 q-7 156 -77.5 256 q-70.5 100 -196.5 124 l-24 -117 l-118 2 l20 119 q-188 -24 -312.5 -175 q-124.5 -151 -161.5 -397 l-26 -177 l-5 -87 q-6 -183 67.5 -299.5 q73.5 -116.5 213.5 -141.5 l23 117 l118 -1 l-20 -118 q182 25 303.5 169 q121.5 144 160.5 381 l25 163 q13 87 10 182 Z" /><glyph glyph-name="" unicode="&#x47b;" d="M584 1099 l22 112 l118 0 l-23 -114 q145 -24 230 -134 q85 -110 94 -284 q9 -177 -53 -333 q-62 -156 -181.5 -251 q-119.5 -95 -275.5 -112 l-23 -115 l-118 0 l23 118 q-161 28 -246.5 163 q-85.5 135 -72.5 341 l2 27 l2 18 q29 239 164 389.5 q135 150.5 338 174.5 ZM535 82 q145 27 242.5 148 q97.5 121 122.5 296 q11 94 6 168 q-9 119 -65 198.5 q-56 79.5 -151 102.5 l-24 -122 l-118 1 l25 123 q-120 -24 -209.5 -108.5 q-89.5 -84.5 -134.5 -217.5 q-45 -133 -35 -284 q7 -119 63 -198 q56 -79 152 -102 l24 116 l116 0 l-14 -121 Z" /><glyph glyph-name="" unicode="&#x47c;" d="M1359 1453 q166 -5 250 -129 q84 -124 61 -321 l-93 -572 q-33 -218 -154 -338 q-121 -120 -296 -115 q-109 2 -192 58 q-83 56 -111 151 q-62 -100 -153.5 -156 q-91.5 -56 -212.5 -53 q-160 5 -244.5 121 q-84.5 116 -70.5 309 l2 22 l92 573 q32 216 152 332.5 q120 116.5 309 120.5 l-12 -104 q-126 -3 -211.5 -92 q-85.5 -89 -111.5 -245 l-95 -586 q-6 -56 -2 -116 q7 -102 59 -164.5 q52 -62.5 142 -66.5 q123 -5 211.5 81 q88.5 86 115.5 237 l81 483 l123 0 l-78 -471 q-17 -144 40.5 -235 q57.5 -91 176.5 -96 q117 -5 201.5 83.5 q84.5 88.5 112.5 246.5 l96 593 q7 58 4 118 q-7 102 -58.5 161.5 q-51.5 59.5 -140.5 65.5 l7 104 ZM1518 1681 l-8 -85 l-29 0 q-47 1 -94 18.5 q-47 17.5 -120.5 62 q-73.5 44.5 -118.5 61.5 q-45 17 -88 17 q-69 0 -114.5 -41 q-45.5 -41 -56.5 -107 l-2 -18 l-90 0 l3 32 q13 106 84 165.5 q71 59.5 174 57.5 q89 -2 214 -81.5 q125 -79.5 216 -81.5 l30 0 ZM942 1380 q78 67 94 142 l17 97 l104 -1 l-14 -101 q-21 -112 -155 -186 l-46 49 Z" /><glyph glyph-name="" unicode="&#x47d;" d="M1189 1093 q153 -7 227.5 -123 q74.5 -116 53.5 -297 l-39 -266 q-30 -206 -140 -320 q-110 -114 -274 -109 q-102 2 -177.5 52.5 q-75.5 50.5 -101.5 137.5 q-123 -196 -334 -190 q-151 3 -229.5 119.5 q-78.5 116.5 -56.5 302.5 l40 272 q28 202 138 311 q110 109 286 113 l-12 -101 q-113 -3 -190 -83.5 q-77 -80.5 -102 -226.5 l-42 -286 q-6 -50 -2 -105 q5 -96 52 -154 q47 -58 128 -62 q113 -5 193.5 76.5 q80.5 81.5 104.5 232.5 l38 239 l118 0 l-38 -245 q-15 -136 39 -218 q54 -82 159 -85 q110 -3 185.5 83 q75.5 86 98.5 244 l39 269 q6 52 4 107 q-5 94 -50 149 q-45 55 -126 61 l10 102 ZM1387 1356 l-8 -86 l-29 0 q-89 2 -215 80.5 q-126 78.5 -207 78.5 q-69 0 -114 -40.5 q-45 -40.5 -57 -106.5 l-2 -18 l-89 0 l2 21 q11 111 82 173.5 q71 62.5 178 60.5 q60 -1 113 -27 q53 -26 99.5 -54 q46.5 -28 100.5 -54 q54 -26 116 -28 l30 0 ZM800 1044 q79 67 92 141 l17 97 l106 -1 l-15 -101 q-21 -112 -155 -186 l-45 50 Z" /><glyph glyph-name="" unicode="&#x47e;" d="M1760 1456 l-180 -1054 q-34 -199 -154 -313 q-120 -114 -299 -110 q-110 2 -190 56.5 q-80 54.5 -107 153.5 q-62 -102 -154 -158 q-92 -56 -214 -52 q-167 5 -252 125 q-85 120 -63 309 l177 1043 l124 0 l-177 -1044 q-6 -56 0 -113 q8 -97 60.5 -155 q52.5 -58 140.5 -62 q131 -5 219.5 87.5 q88.5 92.5 109.5 242.5 l178 1044 l126 0 l-176 -1044 q-15 -150 41.5 -238.5 q56.5 -88.5 167.5 -91.5 q125 -5 213 86.5 q88 91.5 109 243.5 l178 1044 l122 0 ZM722 1696 l12 82 l734 0 l-13 -82 l-321 0 l-20 -113 l-110 0 l23 113 l-305 0 Z" /><glyph glyph-name="" unicode="&#x47f;" d="M1558 1082 l-119 -699 q-27 -188 -138.5 -298.5 q-111.5 -110.5 -279.5 -106.5 q-100 2 -173 52.5 q-73 50.5 -97 136.5 q-124 -195 -334 -189 q-154 5 -230.5 116 q-76.5 111 -58.5 288 l117 700 l118 0 l-117 -701 q-6 -50 -1 -103 l5 -33 q32 -161 177 -166 q113 -5 192 75.5 q79 80.5 104 226.5 l119 701 l119 0 l-117 -701 q-6 -52 0 -104 q10 -90 59 -142.5 q49 -52.5 130 -55.5 q113 -5 190 78.5 q77 83.5 97 223.5 l118 701 l120 0 ZM589 1375 l13 81 l735 0 l-12 -81 l-322 0 l-24 -131 l-111 0 l27 131 l-306 0 Z" /><glyph glyph-name="" unicode="&#x480;" d="M565 -365 l-123 0 l64 347 q-118 16 -202 83.5 q-84 67.5 -129 185 q-45 117.5 -47 257.5 q-2 113 39 333 q41 220 156 381 q115 161 283 223 q93 34 198 32 q208 -4 324.5 -132.5 q116.5 -128.5 102.5 -343.5 l-122 0 q9 170 -71.5 269 q-80.5 99 -238.5 103 q-126 3 -233.5 -65.5 q-107.5 -68.5 -182.5 -203.5 q-75 -135 -100.5 -303.5 q-25.5 -168.5 -27.5 -189.5 l-4 -79 q-3 -203 76.5 -322.5 q79.5 -119.5 228.5 -125.5 l87 -1 l-78 -448 Z" /><glyph glyph-name="" unicode="&#x481;" d="M475 -366 l-119 0 l65 349 q-169 25 -252 169.5 q-83 144.5 -61 364.5 l2 19 q30 257 177 414 q147 157 356 152 q162 -4 257.5 -112.5 q95.5 -108.5 81.5 -274.5 l-113 0 q11 125 -53.5 203.5 q-64.5 78.5 -178.5 82.5 q-158 5 -268 -119.5 q-110 -124.5 -139 -327.5 l-5 -36 l-5 -97 q0 -153 67 -244.5 q67 -91.5 187 -95.5 l75 -1 l-74 -446 Z" /><glyph glyph-name="" unicode="&#x482;" d="M532 427 l251 -172 l-65 -89 l-253 169 l-239 -335 l-141 0 l291 403 l-251 171 l65 88 l254 -170 l286 399 l-253 171 l67 90 l252 -170 l261 360 l137 0 l-311 -427 l256 -171 l-70 -88 l-250 169 l-287 -398 Z" /><glyph glyph-name="" unicode="&#x483;" d="M-596 1339 l-23 -123 l-111 0 l36 202 l494 0 l19 108 l110 0 l-33 -187 l-492 0 Z" /><glyph glyph-name="" unicode="&#x484;" d="M-710 1394 q94 2 233.5 82 q139.5 80 233.5 80 q101 -2 155.5 -64 q54.5 -62 46.5 -158 l-3 -31 l-91 0 l2 19 q6 62 -22 101.5 q-28 39.5 -94 41.5 q-47 1 -96.5 -15 q-49.5 -16 -130 -60 q-80.5 -44 -133.5 -62 q-53 -18 -102 -19 l-35 0 l10 85 l26 0 Z" /><glyph glyph-name="" unicode="&#x485;" d="M-477 1506 l23 127 l137 0 l-26 -147 l40 -116 l-59 -44 l-115 180 Z" /><glyph glyph-name="" unicode="&#x486;" d="M-397 1326 l-53 48 l83 126 l22 133 l137 0 l-21 -133 l-168 -174 Z" /><glyph glyph-name="" unicode="&#x488;" d="M-617 1268 q12 89 72 139.5 q60 50.5 147 48.5 q88 -2 139 -52.5 q51 -50.5 49 -137.5 l-109 0 q5 102 -78 102 q-82 0 -109 -100 l-111 0 ZM-92 991 q12 86 69.5 137 q57.5 51 148.5 51 q88 -2 139.5 -52 q51.5 -50 49.5 -138 l-110 0 q5 102 -78 102 q-77 0 -107 -100 l-112 0 ZM3 487 q12 90 71.5 140 q59.5 50 146.5 48 q87 -1 138 -52 q51 -51 50 -137 l-110 0 q5 102 -77 102 q-81 0 -110 -100 l-109 -1 ZM-277 -32 q13 91 71.5 140.5 q58.5 49.5 145.5 47.5 q88 -1 139 -51.5 q51 -50.5 49 -137.5 l-110 0 q5 102 -77 102 q-79 0 -109 -100 l-109 -1 ZM-887 -315 q12 88 70.5 138.5 q58.5 50.5 148.5 49.5 q90 -2 140.5 -54.5 q50.5 -52.5 48.5 -135.5 l-110 0 q5 102 -77 102 q-81 0 -110 -100 l-111 0 ZM-1221 991 q12 89 72 139.5 q60 50.5 148 48.5 q88 -2 139 -52.5 q51 -50.5 49 -137.5 l-109 0 q5 102 -78 102 q-82 0 -109 -100 l-112 0 ZM-1477 487 q12 90 71.5 140 q59.5 50 146.5 48 q88 -1 138.5 -51 q50.5 -50 48.5 -138 l-109 0 q5 102 -78 102 q-80 0 -109 -100 l-109 -1 ZM-1406 -32 q12 90 71.5 140 q59.5 50 146.5 48 q88 -1 139 -51 q51 -50 49 -138 l-110 0 q5 102 -78 102 q-81 0 -108 -100 l-110 -1 Z" /><glyph glyph-name="" unicode="&#x489;" d="M-572 -59 l11 -17 l-173 -337 l-100 0 l128 352 l134 2 ZM-550 1125 l-11 15 l173 338 l100 0 l-128 -351 l-134 -2 ZM15 631 l12 11 l309 -126 l-17 -94 l-323 70 l19 139 ZM-1140 432 l-13 -10 l-309 126 l17 94 l323 -70 l-18 -140 ZM-151 1002 l3 16 l335 154 l59 -74 l-311 -195 l-86 99 ZM-981 21 l-4 -17 l-335 -154 l-59 75 l313 195 l85 -99 ZM-968 860 l-17 2 l-92 332 l72 65 l146 -303 l-109 -96 ZM-166 161 l16 -2 l93 -331 l-73 -67 l-144 303 l108 97 Z" /><glyph glyph-name="" unicode="&#x48d;" d="M727 1354 l-315 0 l-113 -647 l291 -1 q159 -4 251.5 -98.5 q92.5 -94.5 79.5 -245.5 q-13 -162 -132.5 -262 q-119.5 -100 -306.5 -100 l-424 0 l235 1354 l-192 0 l18 102 l191 0 l32 179 l119 0 l-32 -179 l316 0 l-18 -102 ZM282 605 l-88 -504 l293 -1 q129 2 215.5 73 q86.5 71 99.5 189 q12 109 -48 173.5 q-60 64.5 -167 68.5 l-305 1 Z" /><glyph glyph-name="" unicode="&#x48e;" d="M296 593 l-104 -593 l-123 0 l253 1456 l474 -1 q207 -6 317 -123 q110 -117 90 -303 q-22 -208 -181 -331 l98 -147 l-80 -63 l-106 156 q-119 -49 -270 -51 l-368 0 ZM959 789 q104 96 122 240 q18 144 -61 230.5 q-79 86.5 -227 90.5 l-366 1 l-114 -654 l344 0 q110 0 210 36 l-91 140 l81 63 l102 -147 Z" /><glyph glyph-name="" unicode="&#x48f;" d="M789 109 l83 -139 l-82 -62 l-80 132 q-105 -61 -212 -59 q-94 1 -175 38 q-81 37 -132 117 l-100 -552 l-118 0 l260 1498 l110 0 l-28 -153 q141 179 352 173 q238 -7 306 -258 q21 -77 22 -164 q0 -170 -51 -319 q-51 -149 -155 -252 ZM875 653 q3 158 -57.5 250 q-60.5 92 -182.5 96 q-105 2 -190.5 -51.5 q-85.5 -53.5 -144.5 -155.5 l-89 -521 q32 -91 99.5 -139 q67.5 -48 164.5 -50 q83 0 174 50 l-83 140 l83 63 l78 -129 q72 86 108.5 203 q36.5 117 39.5 244 Z" /><glyph glyph-name="" unicode="&#x490;" d="M1161 1353 l-2 0 l0 -2 l-736 0 l-235 -1351 l-122 0 l253 1456 l737 0 l63 354 l114 0 l-72 -457 Z" /><glyph glyph-name="" unicode="&#x491;" d="M871 979 l-534 0 l-170 -979 l-119 0 l188 1082 l534 0 l60 345 l120 0 l-79 -448 Z" /><glyph glyph-name="" unicode="&#x494;" d="M1163 1351 l-732 0 l-91 -524 l181 -1 q257 -1 385.5 -154 q128.5 -153 99.5 -409 q-26 -240 -170.5 -392 q-144.5 -152 -360.5 -159 l7 100 q161 3 270.5 127 q109.5 124 133.5 325 q26 211 -70 333 q-96 122 -294 123 l-201 1 l-125 -721 l-122 0 l253 1456 l854 0 l-18 -105 Z" /><glyph glyph-name="" unicode="&#x495;" d="M868 979 l-531 0 l-62 -354 l119 -1 q222 -2 343 -125 q121 -123 100 -327 q-17 -167 -138.5 -287 q-121.5 -120 -298.5 -156 l-21 94 q145 37 233 129.5 q88 92.5 104 220.5 q19 157 -66 248.5 q-85 91.5 -245 96.5 l-147 1 l-91 -519 l-119 0 l188 1082 l651 0 l-19 -103 Z" /><glyph glyph-name="" unicode="&#x49c;" d="M1293 1455 l-547 -710 l346 -745 l-145 0 l-307 688 l-90 0 l-50 -285 l-102 0 l50 285 l-137 0 l-120 -688 l-123 0 l253 1456 l123 0 l-115 -662 l137 0 l49 282 l102 0 l-50 -282 l88 0 l485 662 l153 -1 Z" /><glyph glyph-name="" unicode="&#x49d;" d="M1095 1082 l-432 -528 l285 -554 l-147 0 l-238 496 l-74 0 l-42 -238 l-102 0 l43 238 l-129 0 l-87 -496 l-120 0 l188 1082 l120 0 l-84 -480 l129 0 l43 241 l102 0 l-43 -241 l67 0 l364 480 l157 0 Z" /><glyph glyph-name="" unicode="&#x4a0;" d="M884 683 l-196 0 l-119 -683 l-123 0 l236 1354 l-474 0 l18 102 l595 0 l-116 -668 l181 0 l663 668 l162 0 l-711 -722 l491 -734 l-140 0 l-467 683 Z" /><glyph glyph-name="" unicode="&#x4a1;" d="M702 496 l-164 0 l-87 -496 l-119 0 l170 979 l-388 0 l18 103 l507 0 l-83 -480 l152 0 l468 480 l159 0 l-528 -530 l379 -552 l-146 0 l-338 496 Z" /><glyph glyph-name="" unicode="&#x4a4;" d="M332 802 l805 0 l113 654 l824 0 l-18 -102 l-701 0 l-235 -1354 l-123 0 l122 698 l-804 0 l-122 -698 l-123 0 l253 1456 l123 0 l-114 -654 Z" /><glyph glyph-name="" unicode="&#x4a5;" d="M271 597 l562 0 l85 485 l535 0 l-18 -103 l-416 0 l-170 -979 l-119 0 l86 496 l-562 0 l-87 -496 l-119 0 l188 1082 l119 0 l-84 -485 Z" /><glyph glyph-name="" unicode="&#x4a6;" d="M1251 834 l145 0 q166 0 282 -69 q116 -69 167.5 -197.5 q51.5 -128.5 32.5 -296.5 q-26 -240 -170.5 -392 q-144.5 -152 -360.5 -159 l7 100 q161 3 270.5 127 q109.5 124 133.5 325 q25 206 -66 328 q-91 122 -281 128 l-178 0 l-126 -728 l-123 0 l235 1351 l-796 0 l-235 -1351 l-122 0 l253 1456 l1040 0 l-108 -622 Z" /><glyph glyph-name="" unicode="&#x4a7;" d="M958 625 l136 -1 q229 -2 352.5 -124 q123.5 -122 102.5 -328 q-17 -163 -134 -284 q-117 -121 -297 -160 l-24 96 q141 34 229 126 q88 92 105 224 q19 157 -67.5 248 q-86.5 91 -252.5 96 l-168 1 l-90 -519 l-119 0 l170 979 l-564 0 l-170 -979 l-119 0 l188 1082 l802 0 l-80 -457 Z" /><glyph glyph-name="" unicode="&#x4a8;" d="M1293 -26 q-201 4 -358 70 q-155 -66 -316 -64 q-215 5 -347 147.5 q-132 142.5 -146 379.5 q-5 90 8 176 l35 223 q49 261 191.5 414.5 q142.5 153.5 351.5 158.5 l-11 -108 q-157 -5 -267.5 -138 q-110.5 -133 -146.5 -361 l-31 -197 q-9 -66 -7 -134 q2 -129 48 -234 q46 -105 131 -161.5 q85 -56.5 196 -57.5 q86 -2 190 27 q-121 109 -169 255 q-48 146 -26 307 l38 243 q40 256 164 404.5 q124 148.5 304 143.5 q146 -4 228.5 -118.5 q82.5 -114.5 85.5 -303.5 q1 -61 -6 -116 l-38 -246 q-58 -376 -343 -572 q107 -30 248 -32 l-7 -106 ZM737 526 q10 -118 63.5 -210 q53.5 -92 146.5 -151 q124 72 207 198 q83 126 113 292 l45 279 l7 83 q4 92 -16 173.5 q-20 81.5 -67 125 q-47 43.5 -118 46.5 q-122 5 -209.5 -103.5 q-87.5 -108.5 -123.5 -312.5 l-43 -272 q-11 -75 -5 -148 Z" /><glyph glyph-name="" unicode="&#x4a9;" d="M1021 -13 q-158 4 -281 55 q-128 -64 -253 -62 q-108 1 -192 55 q-84 54 -134 156.5 q-50 102.5 -57 226.5 q-6 95 18 234 q36 209 144.5 328 q108.5 119 266.5 124 l-13 -105 q-119 -5 -198.5 -129 q-79.5 -124 -97.5 -352 l-2 -70 q0 -165 71 -263 q71 -98 198 -100 q65 0 139 24 q-91 91 -124.5 207.5 q-33.5 116.5 -18.5 242.5 l14 99 q30 212 124 331 q94 119 231 114 q115 -4 176 -104.5 q61 -100.5 61 -262.5 q0 -73 -19.5 -199 q-19.5 -126 -77 -231.5 q-57.5 -105.5 -153.5 -188.5 q74 -23 188 -25 l-10 -105 ZM604 444 q6 -87 46 -159 q40 -72 107 -119 q155 128 194 356 q27 159 24 258 q-11 212 -129 219 q-84 4 -141.5 -75.5 q-57.5 -79.5 -82.5 -241.5 q-25 -162 -18 -238 Z" /><glyph glyph-name="" unicode="&#x4b4;" d="M549 1353 l-386 0 l18 102 l381 0 l0 1 l123 0 l-1 -1 l420 0 l-19 -102 l-412 0 l-217 -1249 l796 0 l235 1352 l122 0 l-234 -1350 l139 0 l-88 -457 l-113 0 l61 351 l-1059 0 l234 1353 Z" /><glyph glyph-name="" unicode="&#x4b5;" d="M384 980 l-292 0 l18 102 l689 0 l-18 -102 l-279 0 l-152 -879 l563 0 l171 981 l119 0 l-170 -981 l107 0 l-83 -422 l-110 0 l57 321 l-790 0 l170 980 Z" /><glyph glyph-name="" unicode="&#x4b8;" d="M437 1456 l-66 -403 q-18 -159 47 -246 q65 -87 226 -97 l62 341 l101 0 l-59 -339 q137 11 299 54 l122 690 l123 0 l-253 -1456 l-123 0 l119 663 q-156 -44 -301 -55 l-47 -248 l-102 0 l47 246 q-210 7 -310 121.5 q-100 114.5 -74 326.5 l66 402 l123 0 Z" /><glyph glyph-name="" unicode="&#x4b9;" d="M846 0 l-119 0 l84 455 q-105 -35 -206 -50 l-32 -169 l-103 0 l33 166 q-172 11 -249.5 113 q-77.5 102 -56.5 293 l43 274 l119 0 l-43 -275 q-8 -63 -3 -116 q13 -170 201 -187 l54 293 l103 0 l-52 -288 q101 14 202 46 l94 527 l120 0 l-189 -1082 Z" /><glyph glyph-name="" unicode="&#x4ba;" d="M56 0 l253 1456 l122 0 l-120 -663 q214 58 386 55 q217 -2 321.5 -118 q104.5 -116 80.5 -329 l-67 -401 l-122 0 l67 402 q19 163 -49 251 q-68 88 -234 91 q-172 3 -394 -56 l-122 -688 l-122 0 Z" /><glyph glyph-name="" unicode="&#x4bc;" d="M824 -20 q-163 1 -280.5 76 q-117.5 75 -171.5 208 q-57 141 -32 316 l27 155 q-128 21 -191.5 111 q-63.5 90 -50.5 231 l103 0 q-5 -46 0 -86 q13 -129 149 -160 q47 293 220 471 q173 178 408 173 q178 -4 289.5 -112 q111.5 -108 136.5 -296 q14 -115 -2 -228 l-17 -109 l-926 0 l-24 -151 q-20 -141 17 -254 q37 -113 127 -176 q90 -63 222 -65 q208 -4 399 118 l29 -94 q-161 -133 -432 -128 ZM498 826 l809 0 l7 44 q12 88 3 176 q-15 148 -98 233.5 q-83 85.5 -220 89.5 q-180 5 -313.5 -132.5 q-133.5 -137.5 -180.5 -375.5 l-7 -35 Z" /><glyph glyph-name="" unicode="&#x4bd;" d="M589 -20 q-130 2 -224.5 73 q-94.5 71 -138 195.5 q-43.5 124.5 -23.5 262.5 l7 44 q-93 26 -136 103 q-43 77 -34 196 l100 0 l-3 -62 q0 -103 85 -143 q67 215 206 336.5 q139 121.5 310 116.5 q123 -4 205.5 -68.5 q82.5 -64.5 117.5 -177 q35 -112.5 20 -250.5 l-9 -73 l-749 0 q-16 -93 -4 -172 q18 -124 92.5 -199.5 q74.5 -75.5 186.5 -79.5 q97 -3 174 37 q77 40 143 107 l70 -57 q-73 -94 -174.5 -142.5 q-101.5 -48.5 -221.5 -46.5 ZM731 1001 q-132 5 -235.5 -91.5 q-103.5 -96.5 -158.5 -274.5 l628 -1 l3 15 q21 145 -46.5 246 q-67.5 101 -190.5 106 Z" /><glyph glyph-name="" unicode="&#x4c3;" d="M191 0 l-123 0 l253 1456 l123 0 l-114 -655 l163 0 l643 655 l156 0 l-651 -658 q240 -8 361 -159 q121 -151 94 -403 q-26 -239 -171 -392 q-145 -153 -368 -159 l11 101 q162 3 271.5 125.5 q109.5 122.5 133.5 324.5 q24 211 -69 329.5 q-93 118.5 -283 124.5 l-309 1 l-121 -691 Z" /><glyph glyph-name="" unicode="&#x4c4;" d="M543 596 q183 -25 275 -141.5 q92 -116.5 75 -292.5 q-17 -164 -136.5 -280.5 q-119.5 -116.5 -297.5 -153.5 l-21 95 q143 35 230.5 123.5 q87.5 88.5 104.5 216.5 q20 151 -66.5 239.5 q-86.5 88.5 -258.5 92.5 l-190 1 l-86 -496 l-120 0 l188 1082 l120 0 l-84 -480 l123 0 l498 480 l158 0 l-512 -486 Z" /><glyph glyph-name="" unicode="&#x4c7;" d="M450 1456 l-119 -683 l796 0 l119 683 l122 0 l-264 -1542 q-23 -168 -115.5 -262.5 q-92.5 -94.5 -234.5 -90.5 q-56 2 -118 21 l25 101 q55 -19 98 -19 q85 -2 143.5 60.5 q58.5 62.5 78.5 182.5 l128 761 l-796 0 l-116 -668 l-122 0 l253 1456 l122 0 Z" /><glyph glyph-name="" unicode="&#x4c8;" d="M355 1082 l-84 -485 l562 0 l85 485 l119 0 l-199 -1171 q-23 -168 -114 -261 q-91 -93 -232 -91 q-48 2 -115 20 l23 101 q49 -17 95 -19 q84 -2 142 59 q58 61 79 179 l100 597 l-562 0 l-87 -496 l-119 0 l188 1082 l119 0 Z" /><glyph glyph-name="" unicode="&#x4d8;" d="M813 1475 q177 -2 299.5 -88.5 q122.5 -86.5 175.5 -239.5 q53 -153 27 -342 l-21 -140 q-30 -187 -128.5 -351 q-98.5 -164 -241.5 -250.5 q-143 -86.5 -311 -83.5 q-169 2 -288 84 q-119 82 -169 226.5 q-50 144.5 -25 323.5 l19 124 l1029 0 l13 68 q17 107 5 208 q-20 163 -121.5 257.5 q-101.5 94.5 -265.5 97.5 q-210 4 -421 -119 l-29 93 q84 65 199.5 99.5 q115.5 34.5 253.5 32.5 ZM619 84 q131 -3 240 62.5 q109 65.5 189.5 195 q80.5 129.5 120.5 295.5 l-910 0 l-9 -54 q-16 -99 -1 -189 q24 -142 121.5 -224 q97.5 -82 248.5 -86 Z" /><glyph glyph-name="" unicode="&#x4e0;" d="M981 1351 l-704 0 l19 105 l849 0 l-16 -101 l-521 -518 q194 -8 292 -124 q98 -116 80 -310 q-11 -125 -80 -223.5 q-69 -98.5 -184 -152 q-115 -53.5 -247 -50.5 q-184 4 -292.5 121.5 q-108.5 117.5 -92.5 305.5 l122 0 q-13 -142 63 -230.5 q76 -88.5 208 -90.5 q154 -4 260.5 85 q106.5 89 121.5 231 q17 166 -56 253 q-73 87 -230 88 l-116 1 l19 107 l505 503 Z" /><glyph glyph-name="" unicode="&#x4e1;" d="M909 979 l-696 0 l18 103 l846 0 l-15 -98 l-519 -526 q188 -12 288 -127.5 q100 -115.5 82 -301.5 q-11 -125 -81 -223 q-70 -98 -183.5 -151 q-113.5 -53 -245.5 -50 q-184 4 -292 122.5 q-108 118.5 -92 301.5 l119 0 q-13 -140 63.5 -230 q76.5 -90 209.5 -92 q155 -4 262 85.5 q107 89.5 122 231.5 q17 159 -57.5 247 q-74.5 88 -232.5 93 l-114 1 l19 109 l499 505 Z" /><glyph glyph-name="" unicode="&#x500;" d="M938 844 l107 612 l123 0 l-253 -1456 l-462 1 q-200 6 -310.5 117 q-110.5 111 -93.5 298 q18 197 165.5 313 q147.5 116 368.5 116 l355 -1 ZM810 104 l111 636 l-341 1 q-166 0 -277 -87.5 q-111 -87.5 -130 -234.5 q-17 -138 60 -223 q77 -85 222 -91 l355 -1 Z" /><glyph glyph-name="" unicode="&#x502;" d="M454 1 q-204 9 -312 120 q-108 111 -91 295 q19 199 166 314 q147 115 367 115 l356 -1 l107 612 l123 0 l-235 -1354 l112 -1 q151 2 238 122.5 q87 120.5 86 357.5 q-1 85 -18 170 l112 -1 q13 -85 19 -169 q10 -173 -42 -306 q-52 -133 -157 -204.5 q-105 -71.5 -242 -70.5 l-589 1 ZM812 104 l111 636 l-342 1 q-166 0 -278 -87.5 q-112 -87.5 -129 -234.5 q-17 -138 60 -223 q77 -85 222 -91 l356 -1 Z" /><glyph glyph-name="" unicode="&#x503;" d="M587 1102 q95 -2 172 -44.5 q77 -42.5 122 -128.5 l113 631 l119 0 l-206 -1216 q-5 -42 -2 -88 q3 -77 41.5 -125 q38.5 -48 106.5 -51 q185 -6 291 178.5 q106 184.5 109 474.5 q1 99 -12 199 l111 0 q11 -100 13 -198 q4 -209 -58 -387 q-62 -178 -183.5 -274.5 q-121.5 -96.5 -280.5 -93.5 q-100 2 -168.5 50.5 q-68.5 48.5 -85.5 151.5 q-146 -209 -373 -203 q-151 4 -236.5 111 q-85.5 107 -89.5 295 q-4 118 28.5 257 q32.5 139 100 248 q67.5 109 161.5 162.5 q94 53.5 207 50.5 ZM859 806 q-64 189 -257 193 q-152 5 -253.5 -122 q-101.5 -127 -131.5 -347 l-2 -21 l-7 -93 q-3 -157 57.5 -244 q60.5 -87 177.5 -89 q205 -7 334 193 l7 68 l75 462 Z" /><glyph glyph-name="" unicode="&#x504;" d="M667 383 q13 130 -42 207.5 q-55 77.5 -171 82.5 l-196 1 l19 106 l159 -1 q175 0 279.5 78.5 q104.5 78.5 120.5 227.5 q14 124 -62 192 q-76 68 -239 73 l-357 1 l19 105 l321 -1 q227 -1 342.5 -99 q115.5 -98 99.5 -273 q-11 -128 -93 -221.5 q-82 -93.5 -228 -143.5 q143 -60 153 -233 l0 -80 l-11 -102 q-8 -98 31.5 -157.5 q39.5 -59.5 114.5 -62.5 q111 -6 199 75 q88 81 139.5 237.5 q51.5 156.5 51.5 338.5 q0 99 -14 199 l116 -1 q11 -100 14 -198 q6 -206 -59.5 -384.5 q-65.5 -178.5 -183.5 -276 q-118 -97.5 -273 -95.5 q-133 2 -201 88.5 q-68 86.5 -57 237.5 l8 79 Z" /><glyph glyph-name="" unicode="&#x505;" d="M629 212 q-5 -65 20.5 -99 q25.5 -34 93.5 -36 q101 -3 177 60.5 q76 63.5 115 185.5 q39 122 33 260 q-4 78 -26 156 l116 -1 l21 -156 q16 -152 -38.5 -300.5 q-54.5 -148.5 -161 -227.5 q-106.5 -79 -244.5 -78 q-115 2 -173.5 61 q-58.5 59 -51.5 177 l9 82 q14 170 -199 180 l-214 1 l16 100 l195 -1 q124 0 204.5 54 q80.5 54 90.5 146 q10 93 -53.5 147 q-63.5 54 -180.5 59 l-262 1 l12 99 l252 -1 q173 -5 267.5 -84.5 q94.5 -79.5 84.5 -215.5 q-14 -169 -226 -253 q146 -56 131 -232 l-8 -84 Z" /><glyph glyph-name="" unicode="&#x506;" d="M204 658 l18 102 l153 -1 q184 0 296.5 80 q112.5 80 127.5 223 q14 136 -62 211 q-76 75 -230 79 l-283 1 l18 102 l249 -1 q220 -1 331.5 -105 q111.5 -104 94.5 -289 q-10 -116 -88 -208 q-78 -92 -219 -144 q164 -54 186 -227 q6 -53 -1 -110 l-22 -137 l-9 -81 l117 0 l-24 -146 q-33 -186 -183 -316 l-72 56 q104 119 137 253 l-49 1 q-44 64 -38 174 q1 33 24 195 q14 129 -55 206 q-69 77 -201 81 l-216 1 Z" /><glyph glyph-name="" unicode="&#x507;" d="M169 467 l16 102 l212 -1 q143 0 223.5 53 q80.5 53 92.5 156 q21 201 -247 202 l-293 1 l20 102 l291 -1 q173 -5 265 -83.5 q92 -78.5 82 -216.5 q-14 -183 -229 -262 q122 -44 138 -167 q5 -39 -1 -82 l-18 -110 l104 1 l-20 -128 q-32 -203 -191 -333 l-67 54 q99 117 131 246 l-58 1 q-21 39 -19 85 q2 42 21 183 q9 93 -44 143 q-53 50 -153 54 l-256 1 Z" /><glyph glyph-name="" unicode="&#x508;" d="M1204 1351 l-550 0 l-131 -586 l-37 -186 q-63 -302 -174 -437.5 q-111 -135.5 -282 -141.5 l-68 0 l13 103 l42 1 q137 6 226 130.5 q89 124.5 139 404.5 l28 159 l146 658 l789 0 l-188 -1112 q-5 -42 -2 -87 q3 -78 41 -125 q38 -47 107 -50 q182 -6 287.5 176 q105.5 182 107.5 475 q0 99 -13 199 l115 0 q11 -100 13 -198 q4 -218 -61 -394.5 q-65 -176.5 -184.5 -272 q-119.5 -95.5 -275.5 -89.5 q-141 3 -209 100 q-68 97 -49 267 l170 1006 Z" /><glyph glyph-name="" unicode="&#x509;" d="M880 979 l-393 0 l-86 -404 l-23 -118 q-50 -247 -142.5 -354 q-92.5 -107 -239.5 -103 l-48 0 l13 105 l39 1 q106 5 172 96.5 q66 91.5 100 296.5 l18 105 l100 478 l627 0 l-123 -738 q-4 -40 -2 -85 q2 -80 38 -128 q36 -48 102 -51 q105 -4 185 67.5 q80 71.5 122 208 q42 136.5 40 301.5 q-1 94 -15 188 l110 0 q11 -94 16 -188 q10 -181 -46.5 -344 q-56.5 -163 -167 -251 q-110.5 -88 -255.5 -84 q-135 3 -200 101 q-65 98 -46 266 l105 634 Z" /><glyph glyph-name="" unicode="&#x50a;" d="M1304 1456 l-187 -1114 q-5 -42 -2 -87 q3 -78 42 -125 q39 -47 106 -48 q118 -4 207 76 q89 80 138 234 q49 154 50 341 q0 99 -14 199 l115 0 q12 -100 15 -198 q4 -212 -61.5 -392 q-65.5 -180 -185 -274.5 q-119.5 -94.5 -276.5 -90.5 q-137 3 -205 99 q-68 96 -53 269 l51 322 l-727 0 l-116 -667 l-123 0 l253 1456 l123 0 l-119 -684 l727 0 l120 684 l122 0 Z" /><glyph glyph-name="" unicode="&#x50b;" d="M805 491 l-560 0 l-86 -491 l-119 0 l188 1082 l120 0 l-86 -491 l560 0 l85 491 l118 0 l-122 -738 q-5 -40 -3 -85 q2 -80 38 -128 q36 -48 102 -51 q107 -4 186 67 q79 71 121.5 208 q42.5 137 40.5 302 q-2 94 -16 188 l110 0 q11 -94 17 -187 q10 -181 -46.5 -345 q-56.5 -164 -167.5 -251.5 q-111 -87.5 -255 -84.5 q-134 2 -198.5 101 q-64.5 99 -47.5 267 l21 146 Z" /><glyph glyph-name="" unicode="&#x50c;" d="M577 -21 q-127 3 -224.5 61 q-97.5 58 -156 164.5 q-58.5 106.5 -67.5 241.5 q-6 75 4 151 l39 250 q44 282 221 457.5 q177 175.5 423 173.5 q193 -2 322 -79 l-50 -95 q-126 68 -277 70 q-195 2 -336.5 -142.5 q-141.5 -144.5 -180.5 -387.5 l-40 -248 q-8 -59 -6 -119 q6 -178 96 -284.5 q90 -106.5 240 -110.5 q122 -3 217.5 54.5 q95.5 57.5 147.5 166 q52 108.5 54 305.5 q1 89 -8 179 l117 -1 l7 -178 q5 -210 -62 -346.5 q-67 -136.5 -194.5 -211 q-127.5 -74.5 -285.5 -71.5 Z" /><glyph glyph-name="" unicode="&#x50d;" d="M491 80 q123 -2 200 61.5 q77 63.5 91 185.5 l7 94 l-2 116 l110 0 l4 -115 q3 -157 -49 -251.5 q-52 -94.5 -149 -144.5 q-97 -50 -219 -47 q-131 4 -221 73.5 q-90 69.5 -131 192 q-41 122.5 -26 272.5 l2 19 q30 255 175.5 412.5 q145.5 157.5 349.5 155.5 q166 0 263 -67 l-44 -93 q-93 57 -224 59 q-141 2 -246.5 -104.5 q-105.5 -106.5 -144.5 -292.5 q-21 -103 -18 -186 q6 -159 78 -248.5 q72 -89.5 194 -91.5 Z" /><glyph glyph-name="" unicode="&#x50e;" d="M659 1351 l-498 0 l18 105 l1121 0 l-19 -105 l-499 0 l-170 -1007 q-5 -42 -2 -88 q3 -79 42.5 -126 q39.5 -47 106.5 -48 q118 -4 207 76 q89 80 138 234 q49 154 50 341 q0 99 -14 199 l115 0 q11 -100 14 -198 q4 -213 -62 -393 q-66 -180 -184 -274 q-118 -94 -275 -90 q-136 3 -205 98.5 q-69 95.5 -54 269.5 l170 1006 Z" /><glyph glyph-name="" unicode="&#x50f;" d="M505 981 l-375 0 l18 101 l882 0 l-18 -101 l-387 0 l-105 -637 q-5 -43 -2 -89 q3 -78 42 -125 q39 -47 107 -50 q104 -4 184 62.5 q80 66.5 121.5 191 q41.5 124.5 37.5 284.5 q-3 87 -19 174 l111 0 q12 -87 19 -174 q12 -174 -43 -325.5 q-55 -151.5 -165 -234.5 q-110 -83 -254 -80 q-136 2 -205.5 98.5 q-69.5 96.5 -54.5 268.5 l106 636 Z" /><glyph glyph-name="" unicode="&#x510;" d="M708 690 q-225 0 -344.5 -79 q-119.5 -79 -135.5 -228 q-15 -137 85.5 -217.5 q100.5 -80.5 284.5 -83.5 q179 -2 306.5 85.5 q127.5 87.5 156.5 235.5 l120 1 q-18 -132 -98 -228 q-80 -96 -209.5 -147.5 q-129.5 -51.5 -280.5 -48.5 q-148 2 -265 52.5 q-117 50.5 -175 140.5 q-58 90 -48 214 q10 131 98.5 224 q88.5 93 257.5 139 q-107 45 -165.5 127 q-58.5 82 -50.5 187 q14 183 157.5 292 q143.5 109 373.5 120 l55 1 q207 -5 334.5 -116 q127.5 -111 113.5 -287 l-122 0 q12 129 -79 211 q-91 82 -252 87 q-186 5 -313.5 -76.5 q-127.5 -81.5 -144.5 -226.5 q-15 -132 77 -202 q92 -70 283 -71 l172 -1 l-19 -106 l-173 1 Z" /><glyph glyph-name="" unicode="&#x2017;" d="M736 -345 l-858 0 l19 102 l857 0 l-18 -102 ZM778 -101 l-857 0 l18 101 l857 0 l-18 -101 Z" /><glyph glyph-name="" unicode="&#x2018;" d="M389 1555 l69 -54 q-105 -121 -132 -244 l-24 -136 l-118 0 l17 109 q30 192 188 325 Z" /><glyph glyph-name="" unicode="&#x2019;" d="M227 1097 l-71 56 q106 124 132 249 l24 134 l117 0 l-18 -114 q-31 -196 -184 -325 Z" /><glyph glyph-name="" unicode="&#x201a;" d="M-28 -232 l-67 55 q103 119 130 243 l25 139 l118 0 l-18 -120 q-33 -186 -188 -317 Z" /><glyph glyph-name="" unicode="&#x201b;" d="M366 1536 l-19 -120 q-11 -72 -1 -137 q10 -66 45 -130 l-73 -49 q-57 66 -78 150 q-21 84 -10 170 l18 116 l118 0 Z" /><glyph glyph-name="" unicode="&#x201e;" d="M-30 -241 l-67 55 q112 133 136 273 l26 149 l118 0 l-23 -146 q-32 -197 -190 -331 ZM207 -242 l-76 57 q105 123 132 260 l28 161 l119 0 l-26 -165 q-33 -184 -177 -313 Z" /><glyph glyph-name="" unicode="&#x2020;" d="M1086 977 l-419 0 l-153 -977 l-119 0 l153 977 l-426 0 l17 105 l425 0 l59 374 l119 0 l-59 -374 l419 0 l-16 -105 Z" /><glyph glyph-name="" unicode="&#x2021;" d="M948 0 l-429 0 l-65 -416 l-121 0 l66 416 l-413 0 l17 101 l411 0 l138 878 l-413 0 l17 103 l412 0 l59 374 l120 0 l-59 -374 l430 0 l-17 -103 l-429 0 l-137 -878 l430 0 l-17 -101 Z" /><glyph glyph-name="" unicode="&#x2022;" d="M165 745 q6 83 59.5 134.5 q53.5 51.5 133.5 51.5 q76 0 121.5 -47.5 q45.5 -47.5 45.5 -128.5 l-1 -37 q-6 -81 -58.5 -130.5 q-52.5 -49.5 -133.5 -49.5 q-76 0 -122 48 q-46 48 -46 124 l1 35 Z" /><glyph glyph-name="" unicode="&#x2027;" d="M95 643 q2 33 26 56.5 q24 23.5 58 24.5 q35 1 57.5 -22.5 q22.5 -23.5 19.5 -58.5 q-2 -34 -26.5 -57 q-24.5 -23 -59.5 -24 q-35 -1 -56 22.5 q-21 23.5 -19 58.5 Z" /><glyph glyph-name="" unicode="&#x2030;" d="M779 357 q15 130 102.5 217 q87.5 87 214.5 85 q72 -2 129.5 -39.5 q57.5 -37.5 81.5 -106.5 q48 69 113 108 q65 39 140 37 q116 -4 182 -89.5 q66 -85.5 57 -211.5 l-7 -68 q-15 -142 -105 -228.5 q-90 -86.5 -211 -82.5 q-73 2 -132.5 38.5 q-59.5 36.5 -86.5 105.5 q-96 -147 -245 -143 q-116 2 -183.5 90 q-67.5 88 -56.5 210 l7 78 ZM503 1478 q117 -4 184 -90 q67 -86 58 -212 l-7 -67 q-15 -140 -104 -227 q-89 -87 -210 -83 q-113 2 -182.5 87.5 q-69.5 85.5 -60.5 212.5 l7 68 q15 139 102 226 q87 87 213 85 ZM869 277 q-7 -93 32.5 -152 q39.5 -59 117.5 -61 q80 -2 138.5 56.5 q58.5 58.5 72.5 158.5 l8 79 q7 97 -33 154 q-40 57 -117 59 q-81 2 -139 -57 q-58 -59 -72 -157 l-8 -80 ZM1328 277 q-7 -93 32.5 -152 q39.5 -59 117.5 -61 q83 -2 140.5 58.5 q57.5 60.5 69.5 164.5 l8 71 q7 97 -32.5 154 q-39.5 57 -116.5 59 q-85 2 -143.5 -60.5 q-58.5 -62.5 -68.5 -163.5 l-7 -70 ZM280 1096 q-7 -94 34 -151.5 q41 -57.5 116 -59.5 q85 -2 142 61 q57 63 68 161 l8 70 q6 81 -25 139 q-40 73 -124 75 q-83 2 -142.5 -61.5 q-59.5 -63.5 -69.5 -162.5 l-7 -71 ZM342 121 l-75 54 l885 1131 l68 -48 l-878 -1137 Z" /><glyph glyph-name="" unicode="&#x2039;" d="M217 549 l198 -382 l-95 0 l-225 378 l2 19 l348 380 l114 0 l-342 -395 Z" /><glyph glyph-name="" unicode="&#x203a;" d="M253 944 l224 -382 l-2 -20 l-348 -380 l-114 0 l341 394 l-197 388 l96 0 Z" /><glyph glyph-name="" unicode="&#x2044;" d="M56 122 l-72 53 l885 1131 l68 -49 l-881 -1135 Z" /><glyph glyph-name="" unicode="&#x207f;" d="M351 1454 l-11 -137 q104 152 253 150 q120 -2 180.5 -83.5 q60.5 -81.5 46.5 -224.5 l-83 -508 l-111 0 l81 496 q4 43 1 83 q-14 139 -148 142 q-77 0 -141.5 -47 q-64.5 -47 -86.5 -119 l-94 -555 l-111 0 l139 802 l85 1 Z" /><glyph glyph-name="" unicode="&#x20a4;" d="M714 477 l-337 0 l-13 -109 q-25 -169 -112 -266 l725 2 l-18 -104 l-970 0 l18 103 l92 -1 q112 41 143 265 l13 110 l-184 0 l15 89 l182 0 l24 169 l-177 0 l16 90 l174 0 l25 200 q27 211 153 333.5 q126 122.5 308 118.5 q164 -4 254.5 -111.5 q90.5 -107.5 73.5 -277.5 l-122 0 q13 123 -44.5 201.5 q-57.5 78.5 -176.5 82.5 q-126 3 -213.5 -89 q-87.5 -92 -108.5 -253 l-27 -205 l348 0 l-16 -90 l-345 0 l-24 -169 l340 0 l-16 -89 Z" /><glyph glyph-name="" unicode="&#x20a6;" d="M1344 914 l205 0 l-18 -102 l-204 0 l-35 -198 l205 0 l-18 -102 l-204 0 l-89 -512 l-119 0 l-245 512 l-479 0 l-90 -512 l-122 0 l89 512 l-203 0 l18 102 l203 0 l35 198 l-204 0 l18 102 l203 0 l94 542 l118 0 l259 -542 l461 0 l94 542 l123 0 l-95 -542 ZM360 614 l413 0 l-95 198 l-283 0 l-35 -198 ZM905 614 l265 0 l35 198 l-395 0 l95 -198 ZM412 914 l218 0 l-160 334 l-58 -334 ZM1099 207 l54 305 l-200 0 l146 -305 Z" /><glyph glyph-name="" unicode="&#x20a7;" d="M1526 984 l-217 0 l-121 -722 l-2 -62 q4 -109 102 -112 q24 -1 93 8 l-4 -99 q-55 -17 -120 -15 q-103 2 -151.5 74 q-48.5 72 -35.5 207 l120 721 l-151 0 q-48 -198 -182 -299 q-134 -101 -338 -101 l-225 1 l-102 -585 l-118 0 l253 1456 l328 -1 q184 -4 290 -105 q106 -101 99 -269 l162 1 l49 277 l119 0 l-48 -277 l217 0 l-17 -98 ZM312 687 l212 -2 q164 0 271 92 q107 92 126 249 q18 148 -52 234.5 q-70 86.5 -217 92.5 l-225 1 l-115 -667 Z" /><glyph glyph-name="" unicode="&#x20a9;" d="M976 964 l292 0 l183 492 l128 0 l-190 -492 l150 0 l-18 -102 l-170 0 l-86 -221 l218 0 l-18 -101 l-238 0 l-207 -540 l-122 0 l-15 540 l-277 0 l-204 -540 l-121 0 l-20 540 l-239 0 l18 101 l217 0 l-9 221 l-170 0 l18 102 l149 0 l-18 492 l121 0 l14 -492 l295 0 l186 492 l119 0 l14 -492 ZM371 641 l164 0 l84 221 l-254 0 l6 -221 ZM985 641 l163 0 l82 221 l-251 0 l6 -221 ZM644 641 l236 0 l-5 221 l-147 0 l-84 -221 ZM450 413 l48 127 l-124 0 l4 -134 l-5 -209 l77 216 ZM1068 427 l43 113 l-123 0 l4 -126 l-1 -219 l77 232 ZM766 964 l106 0 l-2 87 l1 204 l-73 -208 l-32 -83 Z" /><glyph glyph-name="" unicode="&#x20aa;" d="M708 1080 q121 -4 190 -70 q69 -66 81 -188 q7 -74 -2 -154 l-52 -324 l-118 0 l52 326 q7 58 5 113 q-7 191 -186 196 l-344 1 l-171 -980 l-118 0 l188 1082 l475 -2 ZM441 0 l128 737 l118 0 l-110 -636 l331 -2 q132 -2 210 73.5 q78 75.5 101 238.5 l112 671 l119 0 l-113 -669 q-28 -209 -129.5 -313 q-101.5 -104 -274.5 -100 l-492 0 Z" /><glyph glyph-name="" unicode="&#x20ac;" d="M788 563 l-405 0 l-3 -18 q-12 -88 -1 -170 q16 -133 98.5 -210 q82.5 -77 217.5 -80 q97 -2 221 32 l-1 -107 q-119 -30 -226 -28 q-151 1 -257 74 q-106 73 -151 203.5 q-45 130.5 -20 285.5 l4 19 l-192 -1 l16 89 l185 0 l29 164 l-187 0 l17 91 l181 -5 l1 8 q54 270 212 419.5 q158 149.5 401 147.5 q102 -2 229 -33 l-24 -108 q-105 35 -208 37 q-187 3 -310.5 -111 q-123.5 -114 -176.5 -349 l-2 -12 l412 5 l-17 -90 l-405 0 l-30 -164 l408 0 l-16 -89 Z" /><glyph glyph-name="" unicode="&#x20b1;" d="M347 593 l-103 -593 l-123 0 l146 836 l-194 0 l18 101 l193 0 l30 172 l-193 0 l18 101 l192 0 l43 246 l458 -1 q166 0 273.5 -64 q107.5 -64 142.5 -181 l193 0 l-18 -101 l-155 0 l-10 -87 q-8 -41 -24 -86 l160 1 l-18 -101 l-176 -1 q-139 -243 -485 -243 l-368 1 ZM1138 1021 q5 29 8 88 l-709 0 l-31 -172 l706 -1 q17 43 26 85 ZM453 1210 l663 1 q-60 134 -270 139 l-368 1 l-25 -141 ZM718 696 q216 0 342 141 l-671 -1 l-25 -139 l354 -1 Z" /><glyph glyph-name="" unicode="&#x20b9;" d="M1022 1351 l-293 -2 q91 -114 83 -273 l195 0 l-50 -105 l-152 0 q-46 -176 -173 -271.5 q-127 -95.5 -338 -102.5 l376 -583 l-1 -14 l-139 0 l-399 621 l14 82 l149 -2 q139 1 240 70 q101 69 148 200 l-572 0 l51 105 l531 0 q0 122 -77 195 q-77 73 -205 79 l-220 1 l52 105 l831 0 l-51 -105 Z" /><glyph glyph-name="" unicode="&#x20ba;" d="M950 773 l-23 -135 q-39 -211 -145 -371 q-106 -160 -261 -229 q-117 -53 -249 -50 q-49 0 -123 12 l114 677 l-225 -91 l23 124 l223 91 l27 156 l-224 -91 l22 123 l223 92 l66 375 l122 0 l-56 -321 l253 103 l-22 -123 l-252 -103 l-28 -156 l254 103 l-22 -123 l-253 -105 l-111 -635 q204 3 342.5 149.5 q138.5 146.5 183.5 414.5 l19 113 l122 0 Z" /><glyph glyph-name="" unicode="&#x20bc;" d="M754 878 q181 -26 283 -164.5 q102 -138.5 105 -354.5 q1 -74 -9 -147 l-35 -212 l-118 0 l36 215 q8 57 10 118 q3 189 -70 301.5 q-73 112.5 -214 137.5 l-137 -772 l-118 0 l136 773 q-180 -23 -302 -163.5 q-122 -140.5 -165 -378.5 l-39 -231 l-119 0 l34 206 q49 297 207.5 472.5 q158.5 175.5 397.5 200.5 l39 203 l118 0 l-40 -204 Z" /><glyph glyph-name="" unicode="&#x20bd;" d="M663 339 l-356 0 l-60 -339 l-121 0 l60 339 l-199 0 l19 105 l197 0 l27 149 l-199 0 l19 104 l197 0 l132 759 l455 -1 q211 0 328 -114 q117 -114 99 -311 q-21 -207 -166 -322.5 q-145 -115.5 -375 -115.5 l-369 1 l-26 -149 l357 0 l-19 -105 ZM369 697 l356 -1 q171 0 283 88.5 q112 88.5 131 244.5 q17 141 -61 229 q-78 88 -227 92 l-369 1 l-113 -654 Z" /><glyph glyph-name="" unicode="&#x2105;" d="M717 1033 q-14 -108 -91.5 -172 q-77.5 -64 -184.5 -62 q-108 2 -175 88 q-67 86 -58 212 l7 77 q15 131 101.5 218 q86.5 87 205.5 85 q105 -2 170.5 -69 q65.5 -67 59.5 -170 l-95 0 q4 69 -32.5 109.5 q-36.5 40.5 -107.5 41.5 q-74 2 -131.5 -58.5 q-57.5 -60.5 -72.5 -156.5 l-8 -78 q-8 -91 31 -151.5 q39 -60.5 108 -60.5 q67 -2 116 39 q49 41 65 107 l92 1 ZM775 356 q15 132 104.5 218.5 q89.5 86.5 209.5 82.5 q117 -4 184 -88.5 q67 -84.5 58 -211.5 l-7 -78 q-15 -132 -104.5 -218.5 q-89.5 -86.5 -209.5 -82.5 q-115 2 -183 88 q-68 86 -59 213 l7 77 ZM864 277 q-7 -94 33.5 -152.5 q40.5 -58.5 117.5 -60.5 q80 -2 138.5 56.5 q58.5 58.5 72.5 158.5 l8 79 q7 97 -33 155 q-40 57 -117 59 q-85 2 -143 -60.5 q-58 -62.5 -69 -163.5 l-8 -71 ZM349 122 l-73 53 l885 1131 l69 -48 l-881 -1136 Z" /><glyph glyph-name="" unicode="&#x2113;" d="M587 -20 q-125 5 -201 82 q-76 77 -89 207 q-8 81 4 161 l7 44 q-108 -38 -247 -42 l14 113 q122 2 247 49 l97 572 q14 113 55.5 205 q41.5 92 102.5 135 q61 43 138 40 q97 -3 148.5 -88 q51.5 -85 40.5 -226 l-5 -45 q-25 -198 -150 -375 q-125 -177 -314 -283 l-20 -131 l-4 -85 q0 -104 46.5 -163.5 q46.5 -59.5 136.5 -65.5 l-7 -104 ZM451 664 q138 101 226.5 245 q88.5 144 104.5 295 l3 27 l4 60 q2 66 -20 108 q-22 42 -65 44 q-61 4 -103.5 -56 q-42.5 -60 -63.5 -220 l-86 -503 Z" /><glyph glyph-name="" unicode="&#x2116;" d="M1852 433 l-582 0 l18 97 l582 0 l-18 -97 ZM1717 1473 q134 -4 208.5 -100 q74.5 -96 61.5 -241 l-11 -98 q-18 -159 -116.5 -256 q-98.5 -97 -242.5 -93 q-135 4 -209.5 99.5 q-74.5 95.5 -61.5 239.5 l11 97 q18 162 118 259 q100 97 242 93 ZM1455 1022 q-10 -111 35 -175.5 q45 -64.5 135 -66.5 q96 -4 162.5 64.5 q66.5 68.5 80.5 186.5 l12 102 q10 107 -33.5 173.5 q-43.5 66.5 -135.5 70.5 q-97 2 -164.5 -66 q-67.5 -68 -80.5 -189 l-11 -100 ZM981 0 l-124 0 l-455 1248 l-217 -1248 l-119 0 l253 1456 l124 0 l456 -1249 l218 1249 l117 0 l-253 -1456 Z" /><glyph glyph-name="" unicode="&#x2122;" d="M1103 1320 l-212 -400 l-51 -1 l-76 422 l-72 -422 l-73 0 l91 537 l88 0 l80 -426 l228 426 l93 0 l-92 -537 l-72 0 l68 401 ZM623 1387 l-157 0 l-79 -468 l-73 0 l78 468 l-151 0 l8 69 l382 0 l-8 -69 Z" /><glyph glyph-name="" unicode="&#x212e;" d="M942 93 q-189 -116 -378 -112 q-128 2 -230.5 75 q-102.5 73 -155 201.5 q-52.5 128.5 -37.5 274.5 q17 149 107.5 285.5 q90.5 136.5 219.5 212 q129 75.5 266 72.5 l2 0 q125 -3 220 -71 q95 -68 143.5 -193.5 q48.5 -125.5 34.5 -274.5 l-5 -49 l-746 0 l-58 -329 q98 -104 240 -108 q169 -6 383 120 l-6 -104 ZM735 1008 q-133 3 -287 -121 l-49 -278 l521 0 l50 287 q-95 108 -235 112 Z" /><glyph glyph-name="" unicode="&#x2202;" d="M620 1022 q105 -2 194.5 -51 q89.5 -49 142.5 -141 l6 118 q2 123 -30.5 235.5 q-32.5 112.5 -101.5 171 q-69 58.5 -168 61.5 q-142 3 -296 -90 l-15 96 q154 104 326 100 q142 -1 235.5 -81.5 q93.5 -80.5 132 -233 q38.5 -152.5 27.5 -345.5 q-13 -231 -57.5 -383.5 q-44.5 -152.5 -126.5 -269 q-82 -116.5 -189.5 -175 q-107.5 -58.5 -230.5 -55.5 q-181 3 -287.5 130 q-106.5 127 -100.5 333 l3 48 l2 19 q28 234 177 376.5 q149 142.5 357 136.5 ZM622 920 q-155 5 -270.5 -103 q-115.5 -108 -143.5 -281 l-6 -45 q-20 -178 55 -292.5 q75 -114.5 219 -119.5 q173 -5 293 144 q120 149 161 415 l5 32 q0 69 -44 125 q-44 56 -117.5 89.5 q-73.5 33.5 -151.5 35.5 Z" /><glyph glyph-name="" unicode="&#x220f;" d="M1006 -243 l-120 0 l250 1597 l-731 0 l-250 -1597 l-119 0 l265 1699 l970 0 l-265 -1699 Z" /><glyph glyph-name="" unicode="&#x2211;" d="M769 578 l-692 -745 l936 0 l-19 -102 l-1085 0 l17 97 l718 769 l-451 772 l16 87 l1020 0 l-18 -102 l-881 0 l442 -750 l-3 -26 Z" /><glyph glyph-name="" unicode="&#x2212;" d="M986 686 l-813 0 l19 102 l813 0 l-19 -102 Z" /><glyph glyph-name="" unicode="&#x221a;" d="M409 242 l5 -74 l31 79 l605 1209 l128 0 l-739 -1456 l-95 0 l-125 640 l-151 0 l18 102 l229 1 l94 -501 Z" /><glyph glyph-name="" unicode="&#x221e;" d="M1425 -21 q-151 5 -260 117 q-109 112 -148 299 q-132 -231 -260.5 -325.5 q-128.5 -94.5 -273.5 -91.5 q-127 4 -216.5 75 q-89.5 71 -131.5 196.5 q-42 125.5 -27 268.5 l3 24 q32 250 183.5 407.5 q151.5 157.5 355.5 152.5 q148 -5 256 -115.5 q108 -110.5 147 -287.5 l3 -14 q126 223 258 322 q132 99 281 96 q159 -4 259.5 -117 q100.5 -113 114.5 -293 q5 -64 -1 -126 l-2 -17 q-33 -259 -184.5 -417.5 q-151.5 -158.5 -356.5 -153.5 ZM226 514 q-5 -47 -3 -97 q3 -153 74.5 -245 q71.5 -92 192.5 -94 q143 -3 278 128.5 q135 131.5 201 316.5 l9 41 q7 93 -41 197.5 q-48 104.5 -127 169 q-79 64.5 -167 68.5 q-156 7 -271.5 -123.5 q-115.5 -130.5 -142.5 -338.5 l-3 -23 ZM1853 663 q-6 155 -75.5 246 q-69.5 91 -189.5 93 q-145 3 -281 -129.5 q-136 -132.5 -200 -313.5 l-9 -41 q-8 -93 39 -198 q47 -105 127 -170.5 q80 -65.5 167 -69.5 q122 -4 221 75 q99 79 152 219 q53 140 49 289 Z" /><glyph glyph-name="" unicode="&#x222b;" d="M185 -97 q-20 -164 -110 -255 q-90 -91 -232 -87 q-46 0 -117 22 l26 97 q49 -16 88 -18 q88 -3 148 58.5 q60 61.5 79 188.5 l197 1308 q20 162 112.5 253 q92.5 91 236.5 89 q47 0 139 -21 l-26 -95 q-56 15 -104 15 q-98 0 -160 -63 q-62 -63 -79 -178 l-198 -1314 Z" /><glyph glyph-name="" unicode="&#x2248;" d="M138 867 q116 129 255 131 q65 0 119 -23.5 q54 -23.5 103.5 -52.5 q49.5 -29 96.5 -50.5 q47 -21.5 105 -21.5 q58 0 117 30.5 q59 30.5 137 108.5 l-11 -125 q-117 -129 -247 -129 q-46 0 -83.5 12 q-37.5 12 -173.5 88 q-84 47 -165 47 q-105 0 -216 -98 l-43 -40 l6 123 ZM67 465 q117 128 252 130 q82 0 165 -45 l54 -30 q49 -29 96.5 -51 q47.5 -22 106.5 -22 q105 0 205 92 l49 47 l-11 -125 q-115 -129 -247 -129 q-72 0 -150 41 l-109 61 q-81 46 -162 46 q-125 0 -259 -139 l10 124 Z" /><glyph glyph-name="" unicode="&#x2260;" d="M923 418 l-509 -1 l-193 -263 l-69 45 l161 219 l-201 0 l18 106 l260 0 l223 305 l-430 0 l19 106 l488 0 l200 271 l69 -45 l-167 -226 l222 0 l-19 -106 l-280 0 l-224 -305 l451 0 l-19 -106 Z" /><glyph glyph-name="" unicode="&#x25ca;" d="M594 1455 l98 1 l276 -736 l-520 -720 l-95 0 l-279 727 l520 728 ZM627 1322 l-426 -602 l215 -589 l426 603 l-215 588 Z" /><glyph glyph-name="" unicode="&#xee02;" d="M225 669 l-102 0 l75 413 l92 0 l-65 -413 ZM489 669 l-102 0 l74 413 l93 0 l-65 -413 Z" /><glyph glyph-name="" unicode="&#xf6c3;" d="M58 -183 l-67 55 q88 106 108 224 l14 80 l115 0 l-12 -76 q-27 -172 -158 -283 Z" /><glyph glyph-name="" unicode="&#xfb01;" d="M116 0 l171 984 l-175 0 l17 98 l175 0 l16 121 q27 171 133 264 q106 93 270 91 q121 -2 269 -61 l-31 -102 q-119 54 -234 56 q-122 1 -195 -66 q-73 -67 -92 -182 l-18 -121 l246 0 l-17 -98 l-245 0 l-171 -984 l-119 0 ZM798 0 l-120 0 l189 1082 l119 0 l-188 -1082 Z" /><glyph glyph-name="" unicode="&#xfb02;" d="M935 1425 l-108 20 q-62 11 -121 11 q-103 0 -168.5 -64.5 q-65.5 -64.5 -82.5 -181.5 l-19 -128 l251 0 l-18 -98 l-249 0 l-171 -984 l-120 0 l171 984 l-174 0 l18 98 l173 0 l19 134 q22 161 118 253.5 q96 92.5 251 90.5 q89 -2 178 -22 l184 -42 l-256 -1496 l-116 0 l240 1425 Z" /><glyph glyph-name="" unicode="&#xfb03;" d="M129 0 l171 984 l-174 0 l18 98 l173 0 l21 147 q25 159 121.5 246 q96.5 87 240.5 85 q67 -2 131 -20 l-21 -99 q-54 14 -108 15 q-100 0 -165 -65 q-65 -65 -82 -181 l-19 -128 l444 0 l20 133 q28 164 134.5 255 q106.5 91 266.5 89 q118 -2 269 -62 l-32 -102 q-123 56 -235 56 q-118 2 -193.5 -65 q-75.5 -67 -94.5 -195 l-16 -109 l247 0 l-18 -98 l-246 0 l-171 -984 l-118 0 l171 984 l-444 0 l-171 -984 l-120 0 ZM1375 0 l-120 0 l189 1082 l119 0 l-188 -1082 Z" /><glyph glyph-name="" unicode="&#xfb04;" d="M129 0 l171 984 l-174 0 l18 98 l173 0 l19 133 q23 166 119 256.5 q96 90.5 245 88.5 q58 -2 131 -20 l-21 -99 q-54 14 -108 14 q-102 0 -166 -65 q-64 -65 -81 -180 l-19 -128 l445 0 l19 134 q22 162 119 254 q97 92 248 90 q82 0 210 -28 l154 -36 l-256 -1496 l-120 0 l249 1423 q-147 33 -235 33 q-103 0 -168.5 -64.5 q-65.5 -64.5 -82.5 -181.5 l-19 -128 l251 0 l-17 -98 l-251 0 l-171 -984 l-118 0 l171 984 l-444 0 l-171 -984 l-120 0 Z" /><glyph glyph-name="" unicode="&#xfffc;" d="M782 469 q-13 -103 -83 -163.5 q-70 -60.5 -166 -58.5 q-95 2 -152 63.5 q-57 61.5 -51 157.5 l9 103 q11 120 97 183 q66 48 151 46 q93 -2 150.5 -63 q57.5 -61 53.5 -157 l-9 -111 ZM801 252 l95 549 l175 -1 q94 -3 141 -40.5 q47 -37.5 42 -102.5 q-3 -47 -30.5 -75.5 q-27.5 -28.5 -65.5 -49.5 q81 -32 79 -118 q-3 -75 -59 -117.5 q-56 -42.5 -154 -45.5 l-223 1 ZM699 582 q5 69 -26 108 q-31 39 -85 39 q-61 2 -102.5 -39.5 q-41.5 -41.5 -50.5 -107.5 l-13 -115 q-5 -67 24.5 -106 q29.5 -39 88.5 -41 q56 -2 98 36 q42 38 54 111 l12 115 ZM1664 803 l96 0 l-59 -378 q-10 -78 -63 -124.5 q-53 -46.5 -135 -46.5 q-84 0 -133 43.5 q-49 43.5 -47 122.5 l91 -1 q-4 -95 85 -93 q43 1 70.5 29.5 q27.5 28.5 35.5 68.5 l59 379 ZM-89 -398 l55 315 l113 0 l-36 -202 l191 0 l-20 -113 l-303 0 ZM1491 -398 l20 113 l193 0 l36 202 l110 0 l-55 -315 l-304 0 ZM182 1169 l50 285 l303 0 l-21 -116 l-189 0 l-30 -169 l-113 0 ZM1792 1338 l21 116 l303 0 l-50 -285 l-111 0 l31 169 l-194 0 ZM939 496 l-31 -169 l115 0 q107 5 121 89 q9 72 -73 79 l-132 1 ZM1405 1338 l21 116 l272 0 l-21 -116 l-272 0 ZM1018 1338 l21 116 l271 0 l-21 -116 l-271 0 ZM631 1338 l21 116 l270 0 l-21 -116 l-270 0 ZM1104 -398 l20 113 l273 0 l-20 -113 l-273 0 ZM717 -398 l20 113 l272 0 l-20 -113 l-272 0 ZM330 -398 l20 113 l271 0 l-20 -113 l-271 0 ZM946 565 l88 0 q120 6 133 86 q9 63 -88 65 l-99 1 l-34 -152 ZM164 416 l-112 0 l45 252 l112 0 l-45 -252 ZM230 794 l-113 0 l45 250 l112 0 l-44 -250 ZM99 41 l-112 0 l44 249 l113 0 l-45 -249 ZM1935 416 l-110 0 l45 252 l110 0 l-45 -252 ZM2001 794 l-111 0 l45 250 l110 0 l-44 -250 ZM1870 41 l-110 0 l44 249 l111 0 l-45 -249 Z" /><glyph glyph-name="" unicode="&#xfffd;" d="M1048 1618 l959 -975 l-959 -975 l-956 975 l956 975 ZM1131 402 q0 58 15 87 q15 29 51 53 q74 39 120 106.5 q46 67.5 46 141.5 q0 128 -83.5 203.5 q-83.5 75.5 -232.5 75.5 q-144 0 -224 -69.5 q-80 -69.5 -82 -196.5 l203 0 q2 51 31 77 q29 26 72 26 q57 0 85 -32 q28 -32 28 -84 q0 -95 -93 -155 q-91 -65 -114.5 -111 q-23.5 -46 -23.5 -122 l202 0 ZM1131 311 l-202 0 l0 -170 l202 0 l0 170 ZM1056 -551 l4 0 l0 -4 l-4 0 l0 4 ZM1054 2163 l4 0 l0 -4 l-4 0 l0 4 Z" /><glyph glyph-name="" unicode="&#x110;" d="M103 0 l119 689 l-175 0 l18 102 l175 0 l116 665 l379 -1 q169 0 293 -86.5 q124 -86.5 179.5 -239 q55.5 -152.5 32.5 -335.5 l-18 -121 q-46 -303 -242 -488 q-196 -185 -481 -185 l-396 0 ZM643 689 l-298 0 l-102 -585 l260 -1 q153 0 279 70 q126 70 208.5 197.5 q82.5 127.5 108 288 q25.5 160.5 27 221.5 q1.5 61 -6.5 118 q-23 160 -122 254 q-99 94 -256 98 l-281 1 l-98 -560 l299 0 l-18 -102 Z" /><glyph glyph-name="" unicode="Ð" d="M103 0 l119 689 l-175 0 l18 102 l175 0 l116 665 l379 -1 q169 0 293 -86.5 q124 -86.5 179.5 -239 q55.5 -152.5 32.5 -335.5 l-18 -121 q-46 -303 -242 -488 q-196 -185 -481 -185 l-396 0 ZM643 689 l-298 0 l-102 -585 l260 -1 q153 0 279 70 q126 70 208.5 197.5 q82.5 127.5 108 288 q25.5 160.5 27 221.5 q1.5 61 -6.5 118 q-23 160 -122 254 q-99 94 -256 98 l-281 1 l-98 -560 l299 0 l-18 -102 Z" /><glyph glyph-name="" unicode="&#x127;" d="M709 1257 l-300 0 l-66 -358 q156 207 368 203 q156 -4 227 -109 q71 -105 50 -289 l-118 -704 l-118 0 l118 706 q6 57 2 110 q-17 178 -194 183 q-105 2 -196 -62.5 q-91 -64.5 -160 -194.5 l-128 -742 l-118 0 l218 1257 l-181 0 l18 102 l181 0 l31 177 l118 0 l-33 -177 l299 0 l-18 -102 Z" /><glyph glyph-name="" unicode="&#x166;" d="M928 834 l-233 0 l-145 -834 l-122 0 l145 834 l-241 0 l18 102 l241 0 l72 415 l-484 0 l19 105 l1089 0 l-19 -105 l-483 0 l-72 -415 l233 0 l-18 -102 Z" /><glyph glyph-name="" unicode="&#x167;" d="M612 617 l-273 0 l-59 -355 l-2 -62 q0 -109 100 -112 q31 -1 97 7 l-5 -98 q-59 -17 -120 -15 q-105 2 -153 73.5 q-48 71.5 -35 207.5 l58 354 l-204 0 l18 102 l203 0 l44 265 l-194 0 l18 98 l192 0 l49 277 l119 0 l-48 -277 l217 0 l-17 -98 l-217 0 l-44 -265 l274 0 l-18 -102 Z" /><glyph glyph-name="" unicode="&#x104;" d="M1085 0 l5 -3 l-68 -49 q-128 -95 -137 -190 q-8 -73 64 -76 q43 -1 105 32 l7 -85 q-65 -42 -137 -42 q-73 0 -113 45.5 q-40 45.5 -36 116.5 q6 142 208 262 l-74 397 l-638 0 l-217 -408 l-133 0 l787 1456 l117 0 l281 -1456 l-21 0 ZM326 513 l563 0 l-144 789 l-419 -789 Z" /><glyph glyph-name="" unicode="&#x105;" d="M819 0 l5 -3 l-68 -49 q-128 -95 -137 -190 q-8 -73 64 -76 q43 -1 105 32 l7 -85 q-65 -42 -137 -42 q-73 0 -113 45.5 q-40 45.5 -36 116.5 q6 140 208 263 q-4 35 -1 70 l9 69 q-75 -81 -171.5 -127 q-96.5 -46 -208.5 -44 q-137 2 -222.5 86.5 q-85.5 84.5 -76.5 212.5 q8 107 73.5 185.5 q65.5 78.5 186.5 122 q121 43.5 271 43.5 l221 -1 l18 124 q12 111 -48 178 q-60 67 -177 71 q-118 2 -205.5 -58.5 q-87.5 -60.5 -109.5 -159.5 l-117 0 q20 142 146 231.5 q126 89.5 298 87.5 q167 -4 257.5 -101 q90.5 -97 73.5 -252 l-90 -544 l-8 -87 q-3 -54 8 -107 l-2 -12 l-23 0 ZM365 85 q110 -4 210.5 52.5 q100.5 56.5 166.5 160.5 l41 239 l-191 1 q-182 0 -297 -64.5 q-115 -64.5 -127 -184.5 q-9 -88 46.5 -145 q55.5 -57 150.5 -59 Z" /><glyph glyph-name="" unicode="&#x118;" d="M977 698 l-660 0 l-104 -594 l760 0 l-18 -104 l-69 0 l5 -3 l-68 -49 q-128 -95 -137 -190 q-8 -73 64 -76 q43 -1 105 32 l7 -85 q-65 -42 -137 -42 q-73 0 -113 45.5 q-40 45.5 -36 116.5 q7 134 188 251 l-691 0 l253 1456 l877 0 l-19 -105 l-754 0 l-96 -549 l661 0 l-18 -104 Z" /><glyph glyph-name="" unicode="&#x119;" d="M475 -20 q-130 2 -225 72.5 q-95 70.5 -139.5 192 q-44.5 121.5 -31.5 262.5 l3 34 q14 150 89 285.5 q75 135.5 190 207 q115 71.5 246 68.5 q121 -2 204.5 -66 q83.5 -64 121.5 -178 q38 -114 24 -252 l-8 -73 l-749 0 l-3 -24 q-15 -109 16 -208.5 q31 -99.5 101.5 -158 q70.5 -58.5 169.5 -60.5 q96 -3 173 37 q77 40 142 107 l70 -57 q-71 -91 -166 -139 l-52 -37 q-134 -98 -141 -193 q-8 -73 64 -76 q43 -1 105 32 l7 -85 q-65 -42 -137 -42 q-73 0 -113 45.5 q-40 45.5 -36 116.5 q4 100 105 190 l-30 -1 ZM601 1000 q-130 5 -233 -92 q-103 -97 -155 -273 l628 -1 l3 15 q18 142 -50 244.5 q-68 102.5 -193 106.5 Z" /><glyph glyph-name="" unicode="&#x172;" d="M1306 1456 l-169 -986 q-24 -160 -114 -279 q-90 -119 -229 -173 l-51 -37 q-123 -93 -130 -185 q-8 -73 64 -76 q43 -1 105 32 l7 -85 q-65 -42 -137 -42 q-73 0 -113 45.5 q-40 45.5 -36 116.5 q4 102 109 193 l-50 -1 q-141 3 -243.5 65 q-102.5 62 -149 174 q-46.5 112 -29.5 251 l169 987 l121 0 l-168 -988 q-21 -169 62 -273.5 q83 -104.5 244 -110.5 q168 -6 289 93 q121 99 154 275 l172 1004 l123 0 Z" /><glyph glyph-name="" unicode="&#x173;" d="M839 0 l5 -3 l-68 -49 q-128 -95 -137 -190 q-8 -73 64 -76 q43 -1 105 32 l7 -85 q-65 -42 -137 -42 q-73 0 -113 45.5 q-40 45.5 -36 116.5 q6 140 208 263 l27 124 q-129 -162 -356 -156 q-153 3 -228 110.5 q-75 107.5 -54 298.5 l116 693 l118 0 l-115 -696 q-6 -54 -1 -107 q7 -92 55 -142 q48 -50 132 -53 q120 -5 222 55.5 q102 60.5 132 158.5 l134 784 l120 0 l-188 -1082 l-12 0 Z" /><glyph glyph-name="" unicode="&#x3c7;" d="M225 1091 q136 -3 200 -172 l27 -80 l89 -345 l400 588 l131 0 l-495 -728 l128 -481 l18 -61 q35 -120 102 -126 l39 -1 l40 4 l-29 -103 q-47 -11 -65 -11 q-125 -2 -187 185 l-25 78 l-103 393 l-438 -645 l-133 0 l535 786 l-112 425 l-19 61 q-38 122 -126 127 l-65 -5 l4 100 q44 11 84 11 Z" /><glyph glyph-name="" unicode="&#x405;" d="M936 365 q23 188 -201 276 l-191 69 l-62 25 q-284 121 -263 357 q9 116 82 204 q73 88 192.5 135.5 q119.5 47.5 253.5 44.5 q129 -3 230.5 -59.5 q101.5 -56.5 152 -154.5 q50.5 -98 39.5 -221 l-123 0 q14 148 -69.5 237 q-83.5 89 -235.5 93 q-158 2 -270.5 -72.5 q-112.5 -74.5 -128.5 -203.5 q-13 -103 60.5 -175.5 q73.5 -72.5 255.5 -126.5 q232 -74 322.5 -177 q90.5 -103 78.5 -248 q-11 -120 -84 -208.5 q-73 -88.5 -195 -135.5 q-122 -47 -262 -44 q-139 1 -250.5 57 q-111.5 56 -167 153.5 q-55.5 97.5 -44.5 225.5 l122 0 q-15 -152 81.5 -241.5 q96.5 -89.5 264.5 -91.5 q168 -2 282.5 76 q114.5 78 129.5 206 Z" /><glyph glyph-name="" unicode="&#x441;" d="M465 80 q118 -4 208.5 65.5 q90.5 69.5 120.5 187.5 l113 0 q-30 -161 -157.5 -259.5 q-127.5 -98.5 -290.5 -94.5 q-131 3 -220 72 q-89 69 -128.5 191 q-39.5 122 -25.5 275 l4 43 q12 105 51.5 204 q39.5 99 105.5 175.5 q66 76.5 157.5 121 q91.5 44.5 206.5 41.5 q166 -4 264 -112 q98 -108 92 -274 l-113 1 q2 125 -65 202 q-67 77 -183 81 q-124 4 -219 -72 q-95 -76 -143 -215 q-48 -139 -45 -295 q3 -161 72 -247.5 q69 -86.5 195 -90.5 Z" /><glyph glyph-name="" unicode="&#x48c;" d="M683 1127 l-299 0 l-52 -303 l322 -1 q211 -1 326 -110 q115 -109 98 -292 q-18 -193 -161.5 -307 q-143.5 -114 -373.5 -114 l-476 0 l196 1127 l-176 0 l18 102 l175 0 l40 227 l122 0 l-40 -227 l299 0 l-18 -102 ZM314 719 l-106 -615 l341 -1 q164 0 276.5 86 q112.5 86 129.5 235 q15 136 -63.5 213 q-78.5 77 -222.5 81 l-355 1 Z" /><glyph glyph-name="" unicode="&#x462;" d="M683 1127 l-299 0 l-52 -303 l322 -1 q211 -1 326 -110 q115 -109 98 -292 q-18 -193 -161.5 -307 q-143.5 -114 -373.5 -114 l-476 0 l196 1127 l-176 0 l18 102 l175 0 l40 227 l122 0 l-40 -227 l299 0 l-18 -102 ZM314 719 l-106 -615 l341 -1 q164 0 276.5 86 q112.5 86 129.5 235 q15 136 -63.5 213 q-78.5 77 -222.5 81 l-355 1 Z" /><glyph glyph-name="" unicode="&#x492;" d="M655 707 l-336 0 l-123 -707 l-122 0 l123 707 l-138 0 l18 102 l137 0 l113 647 l854 0 l-18 -105 l-732 0 l-95 -542 l337 0 l-18 -102 Z" /><glyph glyph-name="" unicode="&#x493;" d="M578 502 l-319 0 l-87 -502 l-119 0 l87 502 l-158 0 l18 102 l158 0 l83 478 l650 0 l-19 -103 l-530 0 l-66 -375 l320 0 l-18 -102 Z" /><glyph glyph-name="" unicode="&#x49e;" d="M667 1091 l-258 0 l-52 -303 l180 0 l663 668 l162 0 l-710 -722 l491 -734 l-141 0 l-467 683 l-196 0 l-119 -683 l-122 0 l189 1091 l-216 0 l18 102 l216 0 l46 263 l122 0 l-46 -263 l258 0 l-18 -102 Z" /><glyph glyph-name="" unicode="&#x49f;" d="M695 1240 l-292 0 l-106 -610 l115 0 l471 452 l152 -1 l-517 -499 l363 -582 l-133 0 l-332 527 l-136 0 l-92 -527 l-119 0 l215 1240 l-185 0 l18 102 l185 0 l34 194 l119 0 l-34 -194 l292 0 l-18 -102 Z" /><glyph glyph-name="" unicode="&#x4b0;" d="M879 538 l-237 0 l-93 -538 l-122 0 l94 538 l-238 0 l18 102 l190 0 l-317 816 l137 0 l289 -792 l568 792 l148 0 l-601 -816 l182 0 l-18 -102 Z" /><glyph glyph-name="" unicode="&#x4b1;" d="M683 -4 l-239 0 l-71 -411 l-120 0 l72 411 l-238 0 l18 102 l216 0 l-193 984 l118 0 l160 -849 l5 -77 l38 86 l445 840 l128 0 l-533 -984 l212 0 l-18 -102 Z" /><glyph glyph-name="" unicode="&#x4fe;" d="M920 696 l-199 0 l346 -696 l-138 0 l-311 634 l-512 -634 l-151 0 l564 696 l-195 0 l18 102 l189 0 l-327 658 l138 0 l300 -614 l493 614 l152 0 l-531 -658 l182 0 l-18 -102 Z" /><glyph glyph-name="" unicode="&#x4ff;" d="M770 504 l-210 0 l262 -504 l-132 0 l-226 456 l-370 -456 l-146 0 l418 504 l-192 0 l18 102 l192 0 l-245 476 l132 0 l213 -437 l351 437 l148 0 l-394 -476 l199 0 l-18 -102 Z" /></font>
</defs>
</svg>
