<svg id="Group_2016" data-name="Group 2016" xmlns="http://www.w3.org/2000/svg" width="28" height="30.289" viewBox="0 0 28 30.289">
  <g id="Group_2015" data-name="Group 2015">
    <g id="Group_2014" data-name="Group 2014">
      <g id="Group_2013" data-name="Group 2013">
        <path id="Path_8375" data-name="Path 8375" d="M25.9,26.165,25.54,27.72s.773,1.159,6.919-1.268,6.172-3.809,6.172-3.809l-1.788-1.2-4.435-1Z" transform="translate(-17.386 -13.921)" fill="#eaeaf4"/>
        <path id="Path_8376" data-name="Path 8376" d="M24.338.785,15.223,9.8,0,10.229,10.127,0,17.2.39l.252.016Z" fill="#eaeaf4"/>
        <path id="Path_8377" data-name="Path 8377" d="M21.51,13.833l1.29,6.194s6.13-4.939,13.09-5.08l-3.3-5.808S24.019,11.321,21.51,13.833Z" transform="translate(-14.642 -6.222)" fill="#fff"/>
      </g>
      <path id="Path_8378" data-name="Path 8378" d="M57.6,5.006l-.2.093L55.65,1.29l.252.016Z" transform="translate(-37.883 -0.878)" fill="#5ac0fc"/>
    </g>
    <path id="Path_8379" data-name="Path 8379" d="M60.38,13.521c.556-.217.891-.7.744-1.076s-.718-.508-1.274-.294-.891.7-.744,1.076S59.825,13.738,60.38,13.521Z" transform="translate(-40.212 -8.202)" fill="#5ac0fc"/>
  </g>
  <path id="Path_8380" data-name="Path 8380" d="M36.147,47.8c2.934,0,4.569-1.073,5.463-3.116l3.231,2.04c-1.488,2.592-4.125,4.562-8.806,4.562a9.814,9.814,0,0,1-10.255-10.2A10.064,10.064,0,0,1,35.738,30.85a9.624,9.624,0,0,1,9.811,9.8c0,.667-.038,1.37-.077,1.743H29.681A6.319,6.319,0,0,0,36.147,47.8Zm5.536-8.419c-.52-3.3-2.787-5.341-5.8-5.341a6.112,6.112,0,0,0-6.168,5.341Z" transform="translate(-17.549 -21)" fill="#fff"/>
</svg>
